<?xml version="1.0" encoding="UTF-8"?>
<svg width="23px" height="23px" viewBox="0 0 23 23" version="1.1" xmlns="http://www.w3.org/2000/svg" xmlns:xlink="http://www.w3.org/1999/xlink">
    <!-- Generator: Sketch 52.2 (67145) - http://www.bohemiancoding.com/sketch -->
    <title>community</title>
    <desc>Created with Sketch.</desc>
    <g id="Page-1—New" stroke="none" stroke-width="1" fill="none" fill-rule="evenodd">
        <g id="community" transform="translate(0.000000, -1.000000)">
            <g id="Duotone" transform="translate(0.000000, 1.000000)">
                <polygon id="Path" fill="#FFFFFF" points="18.5 9.5 9.5 9.5 7 12 7 9.5 4.5 9.5 4.5 0.5 18.5 0.5"></polygon>
                <polygon id="Path" fill="#FFFFFF" points="5.5 17.5 3.5 18.5 1.5 17.5 1.5 15 3.5 14 5.5 15"></polygon>
                <polygon id="Path" fill="#FFFFFF" points="6.5 22.5 6.5 20.5 3.5 19.5 0.5 20.5 0.5 22.5"></polygon>
                <polygon id="Path" fill="#FFFFFF" points="14.5 22.5 14.5 20.5 11.5 19.5 8.5 20.5 8.5 22.5"></polygon>
                <polygon id="Path" fill="#FFFFFF" points="22.5 22.5 22.5 20.5 19.5 19.5 16.5 20.5 16.5 22.5"></polygon>
                <polygon id="Path" fill="#FFFFFF" points="13.5 17.5 11.5 18.5 9.5 17.5 9.5 15 11.5 14 13.5 15"></polygon>
                <polygon id="Path" fill="#FFFFFF" points="21.5 17.5 19.5 18.5 17.5 17.5 17.5 15 19.5 14 21.5 15"></polygon>
                <polygon id="Path" fill="#B2C0DB" points="5.5 17.5 5.5 15 3.5 14 3.5 18.5"></polygon>
                <polygon id="Path" fill="#B2C0DB" points="3.5 22.5 6.5 22.5 6.5 20.5 3.5 19.5"></polygon>
                <polygon id="Path" fill="#B2C0DB" points="13.5 17.5 13.5 15 11.5 14 11.5 18.5"></polygon>
                <polygon id="Path" fill="#B2C0DB" points="11.5 22.5 14.5 22.5 14.5 20.5 11.5 19.5"></polygon>
                <polygon id="Path" fill="#B2C0DB" points="21.5 17.5 21.5 15 19.5 14 19.5 18.5"></polygon>
                <polygon id="Path" fill="#B2C0DB" points="19.5 22.5 22.5 22.5 22.5 20.5 19.5 19.5"></polygon>
                <polygon id="Path" fill="#B2C0DB" points="4.5 9.5 7 9.5 7 12 9.5 9.5 18.5 9.5 18.5 7.5 4.5 7.5"></polygon>
                <path d="M7.5,3.5 L15.5,3.5" id="Path" stroke="#002F87" stroke-linecap="round" stroke-linejoin="round"></path>
                <path d="M7.5,5.5 L12.5,5.5" id="Path" stroke="#002F87" stroke-linecap="round" stroke-linejoin="round"></path>
                <polygon id="Path" stroke="#002F87" stroke-linecap="round" stroke-linejoin="round" points="18.5 9.5 9.5 9.5 7 12 7 9.5 4.5 9.5 4.5 0.5 18.5 0.5"></polygon>
                <polygon id="Path" stroke="#002F87" stroke-linecap="round" stroke-linejoin="round" points="5.5 17.5 3.5 18.5 1.5 17.5 1.5 15 3.5 14 5.5 15"></polygon>
                <polygon id="Path" stroke="#002F87" stroke-linecap="round" stroke-linejoin="round" points="6.5 22.5 6.5 20.5 3.5 19.5 0.5 20.5 0.5 22.5"></polygon>
                <polygon id="Path" stroke="#002F87" stroke-linecap="round" stroke-linejoin="round" points="14.5 22.5 14.5 20.5 11.5 19.5 8.5 20.5 8.5 22.5"></polygon>
                <polygon id="Path" stroke="#002F87" stroke-linecap="round" stroke-linejoin="round" points="22.5 22.5 22.5 20.5 19.5 19.5 16.5 20.5 16.5 22.5"></polygon>
                <polygon id="Path" stroke="#002F87" stroke-linecap="round" stroke-linejoin="round" points="13.5 17.5 11.5 18.5 9.5 17.5 9.5 15 11.5 14 13.5 15"></polygon>
                <polygon id="Path" stroke="#002F87" stroke-linecap="round" stroke-linejoin="round" points="21.5 17.5 19.5 18.5 17.5 17.5 17.5 15 19.5 14 21.5 15"></polygon>
            </g>
            <g id="Frames-24px">
                <rect id="Rectangle" x="0" y="0" width="24" height="24"></rect>
            </g>
        </g>
    </g>
</svg>