<?xml version="1.0" encoding="UTF-8"?>
<!DOCTYPE svg PUBLIC "-//W3C//DTD SVG 1.1//EN" "http://www.w3.org/Graphics/SVG/1.1/DTD/svg11.dtd">
<!-- Creator: CorelDRAW X6 -->
<svg xmlns="http://www.w3.org/2000/svg" xml:space="preserve" width="8.26772in" height="11.6929in" version="1.1" shape-rendering="geometricPrecision" text-rendering="geometricPrecision" image-rendering="optimizeQuality" fill-rule="evenodd" clip-rule="evenodd"
viewBox="0 0 8268 11693"
 xmlns:xlink="http://www.w3.org/1999/xlink">
 <g id="SPARKCORE">
  <metadata id="CorelCorpID_0Corel-Layer"/>
  <g id="PCB">
   <polygon fill="#404040" points="3734,5187 4528,5187 4534,5189 4534,6487 4434,6588 3833,6588 3734,6487 "/>
   <polygon fill="#CCCCCC" points="4528,5187 4534,5189 4534,6487 4434,6588 4427,6588 4528,6487 "/>
   <polygon fill="#B2B2B2" points="4534,6487 4434,6588 4427,6588 4528,6487 "/>
  </g>
  <g id="RGB_x0020_LED">
   <g>
    <rect fill="#CCCCCC" x="4147" y="5545" width="39.3583" height="35"/>
    <rect fill="#E5E5E5" x="4182" y="5545" width="3.9685" height="35"/>
   </g>
   <g>
    <rect fill="#CCCCCC" x="4081" y="5545" width="39.3583" height="35"/>
    <rect fill="#E5E5E5" x="4116" y="5545" width="3.9685" height="35"/>
   </g>
   <g>
    <rect fill="#CCCCCC" x="4146" y="5434" width="39.3583" height="35"/>
    <rect fill="#E5E5E5" x="4182" y="5434" width="3.9685" height="35"/>
   </g>
   <g>
    <rect fill="#CCCCCC" x="4080" y="5434" width="39.3583" height="35"/>
    <rect fill="#E5E5E5" x="4115" y="5434" width="3.9685" height="35"/>
   </g>
   <polygon fill="#E5E5E5" stroke="#999999" stroke-width="3" points="4079,5444 4187,5444 4187,5570 4079,5570 "/>
   <polygon fill="white" stroke="#999999" stroke-width="3" points="4079,5444 4164,5444 4187,5467 4187,5570 4079,5570 "/>
   <path fill="#999999" stroke="#666666" stroke-width="3" d="M4133 5463c24,0 44,20 44,44 0,24 -20,44 -44,44 -24,0 -44,-20 -44,-44 0,-24 20,-44 44,-44z"/>
   <path fill="#CCCCCC" d="M4134 5485c11,1 20,10 21,21l-21 0 0 -21z"/>
   <path fill="#1B5BB3" d="M4132 5485c-11,1 -20,10 -21,21l21 0 0 -21z"/>
   <path fill="#00A63D" d="M4132 5529c-11,-1 -20,-10 -21,-21l21 0 0 21z"/>
   <path fill="#CC1414" d="M4134 5529c11,-1 20,-10 21,-21l-21 0 0 21z"/>
   <path fill="none" stroke="#999999" stroke-width="3" d="M4133 5485c12,0 22,10 22,22 0,12 -10,22 -22,22 -12,0 -22,-10 -22,-22 0,-12 10,-22 22,-22z"/>
  </g>
  <g id="MISC_x0020_COMPS">
   <polygon fill="#CCCCCC" points="3906,6370 3969,6370 3969,6405 3906,6405 "/>
   <polygon fill="#CCCCCC" points="4192,6370 4256,6370 4256,6405 4192,6405 "/>
   <polygon fill="#CCCCCC" points="4266,5614 4329,5614 4329,5649 4266,5649 "/>
   <polygon fill="#CCCCCC" points="3937,5614 4000,5614 4000,5649 3937,5649 "/>
   <polygon fill="#CCCCCC" points="4101,5614 4165,5614 4165,5649 4101,5649 "/>
   <polygon fill="#CCCCCC" points="3886,5322 3950,5322 3950,5357 3886,5357 "/>
   <polygon fill="#CCCCCC" points="3808,5204 3950,5204 3950,5290 3808,5290 "/>
   <polygon fill="#CCCCCC" points="4220,5459 4220,5396 4255,5396 4255,5459 "/>
   <polygon fill="#CCCCCC" points="4012,5459 4012,5396 4047,5396 4047,5459 "/>
  </g>
  <g id="UFL">
   <path fill="white" stroke="#8C8C8C" stroke-width="3" d="M4279 6340l79 0c4,0 8,3 8,8l0 78c0,4 -4,7 -8,7l-79 0c-4,0 -8,-3 -8,-7l0 -78c0,-5 4,-8 8,-8z"/>
   <path fill="white" stroke="#8C8C8C" stroke-width="3" d="M4319 6360c15,0 27,12 27,27 0,15 -12,27 -27,27 -15,0 -28,-12 -28,-27 0,-15 13,-27 28,-27z"/>
   <path fill="#CC9933" d="M4319 6380c4,0 7,3 7,7 0,4 -3,7 -7,7 -4,0 -7,-3 -7,-7 0,-4 3,-7 7,-7z"/>
  </g>
  <g id="ANT">
   <polygon fill="#CCCCCC" points="4010,6528 4255,6528 4255,6566 4010,6566 "/>
   <polygon fill="#999999" points="3975,6528 4010,6528 4010,6566 3975,6566 "/>
   <polygon fill="#999999" points="4255,6528 4290,6528 4290,6566 4255,6566 "/>
   <polygon fill="#CC9933" points="4025,6528 4039,6528 4039,6566 4025,6566 "/>
  </g>
  <g id="PINS">
   <g>
    <path fill="#B2B2B2" d="M4484 5502c19,0 34,15 34,35 0,19 -15,34 -34,34 -20,0 -35,-15 -35,-34 0,-20 15,-35 35,-35z"/>
    <path fill="#8C8C8C" d="M4459 5512c4,9 12,16 25,25 -13,10 -24,18 -25,24 -7,-7 -10,-15 -10,-24 0,-10 3,-18 10,-25z"/>
    <path fill="white" d="M4484 5530c3,0 6,3 6,7 0,3 -3,6 -6,6 -4,0 -7,-3 -7,-6 0,-4 3,-7 7,-7z"/>
   </g>
   <g>
    <path fill="#B2B2B2" d="M4484 5702c19,0 34,15 34,35 0,19 -15,34 -34,34 -20,0 -35,-15 -35,-34 0,-20 15,-35 35,-35z"/>
    <path fill="#8C8C8C" d="M4459 5712c4,9 12,16 25,25 -13,10 -24,18 -25,24 -7,-7 -10,-15 -10,-24 0,-10 3,-18 10,-25z"/>
    <path fill="white" d="M4484 5730c3,0 6,3 6,7 0,3 -3,6 -6,6 -4,0 -7,-3 -7,-6 0,-4 3,-7 7,-7z"/>
   </g>
   <g>
    <path fill="#B2B2B2" d="M4484 5802c19,0 34,15 34,35 0,19 -15,34 -34,34 -20,0 -35,-15 -35,-34 0,-20 15,-35 35,-35z"/>
    <path fill="#8C8C8C" d="M4459 5812c4,9 12,16 25,25 -13,10 -24,18 -25,24 -7,-7 -10,-15 -10,-24 0,-10 3,-18 10,-25z"/>
    <path fill="white" d="M4484 5830c3,0 6,3 6,7 0,3 -3,6 -6,6 -4,0 -7,-3 -7,-6 0,-4 3,-7 7,-7z"/>
   </g>
   <g>
    <path fill="#B2B2B2" d="M4484 5902c19,0 34,15 34,35 0,19 -15,34 -34,34 -20,0 -35,-15 -35,-34 0,-20 15,-35 35,-35z"/>
    <path fill="#8C8C8C" d="M4459 5912c4,9 12,16 25,25 -13,10 -24,18 -25,24 -7,-7 -10,-15 -10,-24 0,-10 3,-18 10,-25z"/>
    <path fill="white" d="M4484 5930c3,0 6,3 6,7 0,3 -3,6 -6,6 -4,0 -7,-3 -7,-6 0,-4 3,-7 7,-7z"/>
   </g>
   <g>
    <path fill="#B2B2B2" d="M4484 6002c19,0 34,15 34,35 0,19 -15,34 -34,34 -20,0 -35,-15 -35,-34 0,-20 15,-35 35,-35z"/>
    <path fill="#8C8C8C" d="M4459 6012c4,9 12,16 25,25 -13,10 -24,18 -25,24 -7,-7 -10,-15 -10,-24 0,-10 3,-18 10,-25z"/>
    <path fill="white" d="M4484 6030c3,0 6,3 6,7 0,3 -3,6 -6,6 -4,0 -7,-3 -7,-6 0,-4 3,-7 7,-7z"/>
   </g>
   <g>
    <path fill="#B2B2B2" d="M4484 6102c19,0 34,15 34,35 0,19 -15,34 -34,34 -20,0 -35,-15 -35,-34 0,-20 15,-35 35,-35z"/>
    <path fill="#8C8C8C" d="M4459 6112c4,9 12,16 25,25 -13,10 -24,18 -25,24 -7,-7 -10,-15 -10,-24 0,-10 3,-18 10,-25z"/>
    <path fill="white" d="M4484 6130c3,0 6,3 6,7 0,3 -3,6 -6,6 -4,0 -7,-3 -7,-6 0,-4 3,-7 7,-7z"/>
   </g>
   <g>
    <path fill="#B2B2B2" d="M4484 6202c19,0 34,15 34,35 0,19 -15,34 -34,34 -20,0 -35,-15 -35,-34 0,-20 15,-35 35,-35z"/>
    <path fill="#8C8C8C" d="M4459 6212c4,9 12,16 25,25 -13,10 -24,18 -25,24 -7,-7 -10,-15 -10,-24 0,-10 3,-18 10,-25z"/>
    <path fill="white" d="M4484 6230c3,0 6,3 6,7 0,3 -3,6 -6,6 -4,0 -7,-3 -7,-6 0,-4 3,-7 7,-7z"/>
   </g>
   <g>
    <path fill="#B2B2B2" d="M4484 6402c19,0 34,15 34,35 0,19 -15,34 -34,34 -20,0 -35,-15 -35,-34 0,-20 15,-35 35,-35z"/>
    <path fill="#8C8C8C" d="M4459 6412c4,9 12,16 25,25 -13,10 -24,18 -25,24 -7,-7 -10,-15 -10,-24 0,-10 3,-18 10,-25z"/>
    <path fill="white" d="M4484 6430c3,0 6,3 6,7 0,3 -3,6 -6,6 -4,0 -7,-3 -7,-6 0,-4 3,-7 7,-7z"/>
   </g>
   <g>
    <path fill="#B2B2B2" d="M4484 6302c19,0 34,15 34,35 0,19 -15,34 -34,34 -20,0 -35,-15 -35,-34 0,-20 15,-35 35,-35z"/>
    <path fill="#8C8C8C" d="M4459 6312c4,9 12,16 25,25 -13,10 -24,18 -25,24 -7,-7 -10,-15 -10,-24 0,-10 3,-18 10,-25z"/>
    <path fill="white" d="M4484 6330c3,0 6,3 6,7 0,3 -3,6 -6,6 -4,0 -7,-3 -7,-6 0,-4 3,-7 7,-7z"/>
   </g>
   <g>
    <path fill="#B2B2B2" d="M4484 5602c19,0 34,15 34,35 0,19 -15,34 -34,34 -20,0 -35,-15 -35,-34 0,-20 15,-35 35,-35z"/>
    <path fill="#8C8C8C" d="M4459 5612c4,9 12,16 25,25 -13,10 -24,18 -25,24 -7,-7 -10,-15 -10,-24 0,-10 3,-18 10,-25z"/>
    <path fill="white" d="M4484 5630c3,0 6,3 6,7 0,3 -3,6 -6,6 -4,0 -7,-3 -7,-6 0,-4 3,-7 7,-7z"/>
   </g>
   <g>
    <path fill="#B2B2B2" d="M4484 5402c19,0 34,15 34,35 0,19 -15,34 -34,34 -20,0 -35,-15 -35,-34 0,-20 15,-35 35,-35z"/>
    <path fill="#8C8C8C" d="M4459 5412c4,9 12,16 25,25 -13,10 -24,18 -25,24 -7,-7 -10,-15 -10,-24 0,-10 3,-18 10,-25z"/>
    <path fill="white" d="M4484 5430c3,0 6,3 6,7 0,3 -3,6 -6,6 -4,0 -7,-3 -7,-6 0,-4 3,-7 7,-7z"/>
   </g>
   <g>
    <path fill="#B2B2B2" d="M4484 5302c19,0 34,15 34,35 0,19 -15,34 -34,34 -20,0 -35,-15 -35,-34 0,-20 15,-35 35,-35z"/>
    <path fill="#8C8C8C" d="M4459 5312c4,9 12,16 25,25 -13,10 -24,18 -25,24 -7,-7 -10,-15 -10,-24 0,-10 3,-18 10,-25z"/>
    <path fill="white" d="M4484 5330c3,0 6,3 6,7 0,3 -3,6 -6,6 -4,0 -7,-3 -7,-6 0,-4 3,-7 7,-7z"/>
   </g>
   <g>
    <path fill="#B2B2B2" d="M3784 5502c19,0 34,15 34,35 0,19 -15,34 -34,34 -20,0 -35,-15 -35,-34 0,-20 15,-35 35,-35z"/>
    <path fill="#8C8C8C" d="M3759 5512c4,9 12,16 25,25 -13,10 -24,18 -25,24 -7,-7 -10,-15 -10,-24 0,-10 3,-18 10,-25z"/>
    <path fill="white" d="M3784 5530c3,0 6,3 6,7 0,3 -3,6 -6,6 -4,0 -7,-3 -7,-6 0,-4 3,-7 7,-7z"/>
   </g>
   <g>
    <path fill="#B2B2B2" d="M3784 5702c19,0 34,15 34,35 0,19 -15,34 -34,34 -20,0 -35,-15 -35,-34 0,-20 15,-35 35,-35z"/>
    <path fill="#8C8C8C" d="M3759 5712c4,9 12,16 25,25 -13,10 -24,18 -25,24 -7,-7 -10,-15 -10,-24 0,-10 3,-18 10,-25z"/>
    <path fill="white" d="M3784 5730c3,0 6,3 6,7 0,3 -3,6 -6,6 -4,0 -7,-3 -7,-6 0,-4 3,-7 7,-7z"/>
   </g>
   <g>
    <path fill="#B2B2B2" d="M3784 5802c19,0 34,15 34,35 0,19 -15,34 -34,34 -20,0 -35,-15 -35,-34 0,-20 15,-35 35,-35z"/>
    <path fill="#8C8C8C" d="M3759 5812c4,9 12,16 25,25 -13,10 -24,18 -25,24 -7,-7 -10,-15 -10,-24 0,-10 3,-18 10,-25z"/>
    <path fill="white" d="M3784 5830c3,0 6,3 6,7 0,3 -3,6 -6,6 -4,0 -7,-3 -7,-6 0,-4 3,-7 7,-7z"/>
   </g>
   <g>
    <path fill="#B2B2B2" d="M3784 5902c19,0 34,15 34,35 0,19 -15,34 -34,34 -20,0 -35,-15 -35,-34 0,-20 15,-35 35,-35z"/>
    <path fill="#8C8C8C" d="M3759 5912c4,9 12,16 25,25 -13,10 -24,18 -25,24 -7,-7 -10,-15 -10,-24 0,-10 3,-18 10,-25z"/>
    <path fill="white" d="M3784 5930c3,0 6,3 6,7 0,3 -3,6 -6,6 -4,0 -7,-3 -7,-6 0,-4 3,-7 7,-7z"/>
   </g>
   <g>
    <path fill="#B2B2B2" d="M3784 6002c19,0 34,15 34,35 0,19 -15,34 -34,34 -20,0 -35,-15 -35,-34 0,-20 15,-35 35,-35z"/>
    <path fill="#8C8C8C" d="M3759 6012c4,9 12,16 25,25 -13,10 -24,18 -25,24 -7,-7 -10,-15 -10,-24 0,-10 3,-18 10,-25z"/>
    <path fill="white" d="M3784 6030c3,0 6,3 6,7 0,3 -3,6 -6,6 -4,0 -7,-3 -7,-6 0,-4 3,-7 7,-7z"/>
   </g>
   <g>
    <path fill="#B2B2B2" d="M3784 6102c19,0 34,15 34,35 0,19 -15,34 -34,34 -20,0 -35,-15 -35,-34 0,-20 15,-35 35,-35z"/>
    <path fill="#8C8C8C" d="M3759 6112c4,9 12,16 25,25 -13,10 -24,18 -25,24 -7,-7 -10,-15 -10,-24 0,-10 3,-18 10,-25z"/>
    <path fill="white" d="M3784 6130c3,0 6,3 6,7 0,3 -3,6 -6,6 -4,0 -7,-3 -7,-6 0,-4 3,-7 7,-7z"/>
   </g>
   <g>
    <path fill="#B2B2B2" d="M3784 6202c19,0 34,15 34,35 0,19 -15,34 -34,34 -20,0 -35,-15 -35,-34 0,-20 15,-35 35,-35z"/>
    <path fill="#8C8C8C" d="M3759 6212c4,9 12,16 25,25 -13,10 -24,18 -25,24 -7,-7 -10,-15 -10,-24 0,-10 3,-18 10,-25z"/>
    <path fill="white" d="M3784 6230c3,0 6,3 6,7 0,3 -3,6 -6,6 -4,0 -7,-3 -7,-6 0,-4 3,-7 7,-7z"/>
   </g>
   <g>
    <path fill="#B2B2B2" d="M3784 6402c19,0 34,15 34,35 0,19 -15,34 -34,34 -20,0 -35,-15 -35,-34 0,-20 15,-35 35,-35z"/>
    <path fill="#8C8C8C" d="M3759 6412c4,9 12,16 25,25 -13,10 -24,18 -25,24 -7,-7 -10,-15 -10,-24 0,-10 3,-18 10,-25z"/>
    <path fill="white" d="M3784 6430c3,0 6,3 6,7 0,3 -3,6 -6,6 -4,0 -7,-3 -7,-6 0,-4 3,-7 7,-7z"/>
   </g>
   <g>
    <path fill="#B2B2B2" d="M3784 6302c19,0 34,15 34,35 0,19 -15,34 -34,34 -20,0 -35,-15 -35,-34 0,-20 15,-35 35,-35z"/>
    <path fill="#8C8C8C" d="M3759 6312c4,9 12,16 25,25 -13,10 -24,18 -25,24 -7,-7 -10,-15 -10,-24 0,-10 3,-18 10,-25z"/>
    <path fill="white" d="M3784 6330c3,0 6,3 6,7 0,3 -3,6 -6,6 -4,0 -7,-3 -7,-6 0,-4 3,-7 7,-7z"/>
   </g>
   <g>
    <path fill="#B2B2B2" d="M3784 5602c19,0 34,15 34,35 0,19 -15,34 -34,34 -20,0 -35,-15 -35,-34 0,-20 15,-35 35,-35z"/>
    <path fill="#8C8C8C" d="M3759 5612c4,9 12,16 25,25 -13,10 -24,18 -25,24 -7,-7 -10,-15 -10,-24 0,-10 3,-18 10,-25z"/>
    <path fill="white" d="M3784 5630c3,0 6,3 6,7 0,3 -3,6 -6,6 -4,0 -7,-3 -7,-6 0,-4 3,-7 7,-7z"/>
   </g>
   <g>
    <path fill="#B2B2B2" d="M3784 5402c19,0 34,15 34,35 0,19 -15,34 -34,34 -20,0 -35,-15 -35,-34 0,-20 15,-35 35,-35z"/>
    <path fill="#8C8C8C" d="M3759 5412c4,9 12,16 25,25 -13,10 -24,18 -25,24 -7,-7 -10,-15 -10,-24 0,-10 3,-18 10,-25z"/>
    <path fill="white" d="M3784 5430c3,0 6,3 6,7 0,3 -3,6 -6,6 -4,0 -7,-3 -7,-6 0,-4 3,-7 7,-7z"/>
   </g>
   <g>
    <path fill="#B2B2B2" d="M3784 5302c19,0 34,15 34,35 0,19 -15,34 -34,34 -20,0 -35,-15 -35,-34 0,-20 15,-35 35,-35z"/>
    <path fill="#8C8C8C" d="M3759 5312c4,9 12,16 25,25 -13,10 -24,18 -25,24 -7,-7 -10,-15 -10,-24 0,-10 3,-18 10,-25z"/>
    <path fill="white" d="M3784 5330c3,0 6,3 6,7 0,3 -3,6 -6,6 -4,0 -7,-3 -7,-6 0,-4 3,-7 7,-7z"/>
   </g>
  </g>
  <g id="CC3000">
   <polygon fill="#00A63D" points="3868,5667 4400,5667 4400,6309 3868,6309 "/>
   <polygon fill="#CC9933" points="3876,5675 4392,5675 4392,5936 4384,5936 4384,6137 4392,6137 4392,6302 3876,6302 "/>
   <polygon fill="#B2B2B2" points="3884,5685 4384,5685 4384,6292 3884,6292 "/>
   <path fill="#CCCCCC" d="M4259 5685l125 0 0 607 -379 0c221,-115 29,-455 254,-607z"/>
   <path fill="none" stroke="#E5E5E5" stroke-width="3" d="M4269 6166c15,0 27,12 27,27 0,15 -12,27 -27,27 -15,0 -27,-12 -27,-27 0,-15 12,-27 27,-27z"/>
   <path fill="#E5E5E5" fill-rule="nonzero" d="M4150 6101c0,2 0,4 1,6 1,2 2,3 3,4 2,1 4,2 6,3 2,1 4,1 7,1 3,0 5,0 7,-1 2,0 4,-1 6,-2 1,-2 2,-3 3,-5 1,-1 1,-3 1,-6 0,-1 0,-3 -1,-5 0,-1 0,-3 -1,-4l5 0c0,1 1,1 1,2 0,1 0,2 0,2 0,1 1,2 1,3 0,1 0,2 0,3 0,3 -1,6 -2,8 -1,3 -2,5 -4,6 -2,2 -4,3 -7,4 -3,0 -6,1 -9,1 -3,0 -6,-1 -9,-2 -3,0 -5,-2 -7,-3 -2,-2 -3,-4 -4,-6 -1,-3 -2,-6 -2,-9 0,-2 0,-4 1,-6 0,-2 1,-3 2,-5l4 3c0,1 -1,2 -1,3 -1,2 -1,4 -1,5zm0 -34c0,2 0,4 1,5 1,2 2,3 3,5 2,1 4,2 6,2 2,1 4,1 7,1 3,0 5,0 7,0 2,-1 4,-2 6,-3 1,-1 2,-3 3,-4 1,-2 1,-4 1,-6 0,-2 0,-4 -1,-5 0,-2 0,-3 -1,-5l5 0c0,1 1,2 1,3 0,0 0,1 0,2 0,1 1,2 1,3 0,0 0,2 0,3 0,3 -1,6 -2,8 -1,2 -2,4 -4,6 -2,1 -4,2 -7,3 -3,1 -6,1 -9,1 -3,0 -6,0 -9,-1 -3,-1 -5,-2 -7,-4 -2,-1 -3,-4 -4,-6 -1,-2 -2,-5 -2,-8 0,-2 0,-4 1,-6 0,-2 1,-4 2,-5l4 2c0,1 -1,2 -1,4 -1,1 -1,3 -1,5zm6 -41c1,0 2,0 4,1 1,0 2,1 3,2 0,0 1,1 2,3 0,1 1,2 1,3l0 0c0,-3 2,-6 3,-8 2,-1 4,-2 7,-2 2,0 4,0 5,1 2,0 3,1 4,3 1,1 2,2 3,4 0,2 1,5 1,7 0,2 0,4 -1,6 0,2 -1,4 -2,6l-4 0c0,-2 1,-4 2,-6 0,-2 0,-4 0,-6 0,-1 0,-3 0,-4 -1,-1 -1,-3 -2,-3 -1,-1 -2,-2 -3,-2 -1,-1 -2,-1 -3,-1 -1,0 -2,0 -3,1 -1,0 -2,1 -3,2 0,1 -1,2 -1,4 0,1 0,3 0,4l0 4 -5 0 0 -4c0,-1 0,-3 -1,-4 0,-1 0,-2 -1,-3 -1,-1 -2,-1 -3,-2 -1,0 -2,-1 -3,-1 -1,0 -2,1 -3,1 0,0 -1,1 -2,1 0,1 -1,2 -1,3 0,1 0,2 0,3 0,2 0,4 1,5 0,2 1,3 2,5l-4 2c0,0 -1,-1 -1,-2 -1,-1 -1,-2 -2,-3 0,-1 0,-2 0,-3 -1,-2 -1,-3 -1,-4 0,-2 0,-4 1,-6 0,-1 1,-3 2,-4 1,-1 2,-2 3,-2 2,-1 3,-1 5,-1zm11 -35c3,0 6,1 9,1 3,1 5,1 7,2 2,2 3,3 4,5 1,1 2,3 2,6 0,2 -1,4 -2,6 -1,2 -2,3 -4,4 -2,1 -4,2 -7,3 -3,0 -6,0 -9,0 -4,0 -7,0 -9,0 -3,-1 -5,-2 -7,-3 -2,-1 -3,-2 -4,-4 -1,-2 -2,-4 -2,-6 0,-2 1,-4 2,-6 1,-2 2,-3 4,-4 2,-1 4,-2 7,-3 2,0 5,-1 9,-1zm0 22c3,0 5,0 7,0 3,-1 4,-1 6,-2 1,0 2,-1 3,-2 1,-1 1,-3 1,-4 0,-2 0,-3 -1,-4 -1,-1 -2,-2 -3,-2 -2,-1 -3,-2 -5,-2 -3,0 -5,0 -8,0 -3,0 -6,0 -8,0 -2,0 -4,1 -5,2 -2,0 -3,1 -3,2 -1,1 -1,2 -1,4 0,1 0,3 1,4 0,1 1,2 3,2 1,1 3,1 5,2 2,0 5,0 8,0zm0 -54c3,0 6,0 9,0 3,1 5,2 7,3 2,1 3,2 4,4 1,2 2,4 2,6 0,3 -1,5 -2,6 -1,2 -2,3 -4,4 -2,2 -4,2 -7,3 -3,0 -6,1 -9,1 -4,0 -7,-1 -9,-1 -3,-1 -5,-1 -7,-2 -2,-1 -3,-3 -4,-5 -1,-1 -2,-3 -2,-6 0,-2 1,-4 2,-6 1,-1 2,-3 4,-4 2,-1 4,-2 7,-3 2,0 5,0 9,0zm0 21c3,0 5,0 7,0 3,0 4,-1 6,-1 1,-1 2,-2 3,-3 1,-1 1,-2 1,-4 0,-1 0,-2 -1,-4 -1,-1 -2,-1 -3,-2 -2,-1 -3,-1 -5,-2 -3,0 -5,0 -8,0 -3,0 -6,0 -8,0 -2,1 -4,1 -5,2 -2,1 -3,1 -3,2 -1,2 -1,3 -1,4 0,2 0,3 1,4 0,1 1,2 3,3 1,0 3,1 5,1 2,0 5,0 8,0zm0 -54c3,0 6,0 9,1 3,0 5,1 7,2 2,1 3,3 4,4 1,2 2,4 2,7 0,2 -1,4 -2,6 -1,1 -2,3 -4,4 -2,1 -4,2 -7,2 -3,1 -6,1 -9,1 -4,0 -7,0 -9,-1 -3,0 -5,-1 -7,-2 -2,-1 -3,-3 -4,-4 -1,-2 -2,-4 -2,-6 0,-3 1,-5 2,-6 1,-2 2,-4 4,-5 2,-1 4,-2 7,-2 2,-1 5,-1 9,-1zm0 22c3,0 5,0 7,-1 3,0 4,-1 6,-1 1,-1 2,-2 3,-3 1,-1 1,-2 1,-3 0,-2 0,-3 -1,-4 -1,-1 -2,-2 -3,-3 -2,0 -3,-1 -5,-1 -3,-1 -5,-1 -8,-1 -3,0 -6,0 -8,1 -2,0 -4,1 -5,1 -2,1 -3,2 -3,3 -1,1 -1,2 -1,4 0,1 0,2 1,3 0,1 1,2 3,3 1,0 3,1 5,1 2,1 5,1 8,1zm21 -48l-37 12 0 1c1,-1 3,-1 4,-1 2,0 3,0 4,0 1,0 3,0 4,0l25 0 0 5 -42 0 0 -8 34 -12 0 0 -34 -12 0 -8 42 0 0 6 -26 0c-1,0 -2,0 -3,0 -1,0 -3,0 -4,-1 -1,0 -3,0 -4,0l0 1 37 12 0 5zm-21 -69c3,0 6,1 9,1 3,1 5,2 7,4 2,1 3,3 4,6 1,2 2,5 2,8 0,3 -1,5 -2,8 -1,2 -2,4 -4,5 -2,2 -5,3 -7,4 -3,1 -6,1 -9,1 -3,0 -6,0 -9,-1 -3,-1 -5,-2 -7,-4 -2,-1 -3,-3 -4,-5 -1,-3 -2,-5 -2,-9 0,-3 1,-5 2,-7 1,-3 2,-5 4,-6 2,-2 4,-3 7,-4 3,0 6,-1 9,-1zm0 31c3,0 5,0 7,-1 2,0 4,-1 5,-2 2,-1 3,-2 4,-4 1,-1 1,-3 1,-5 0,-3 0,-5 -1,-6 -1,-2 -2,-3 -4,-4 -1,-1 -3,-2 -5,-2 -2,-1 -4,-1 -7,-1 -3,0 -5,0 -7,1 -2,0 -4,1 -6,2 -1,1 -2,2 -3,4 -1,1 -1,3 -1,5 0,3 0,5 1,6 1,2 2,3 3,4 2,1 4,2 6,2 2,1 4,1 7,1zm0 -71c3,0 6,0 9,1 3,1 5,2 7,4 1,2 3,4 4,6 1,3 1,6 1,9l0 11 -42 0 0 -12c0,-3 0,-6 1,-8 1,-2 2,-5 4,-6 2,-2 4,-3 7,-4 2,-1 5,-1 9,-1zm0 5c-3,0 -6,1 -8,1 -2,1 -3,2 -5,3 -1,1 -2,3 -3,4 0,2 -1,4 -1,7l0 5 34 0 0 -4c0,-5 -2,-9 -5,-12 -3,-2 -7,-4 -12,-4z"/>
   <path fill="#E5E5E5" fill-rule="nonzero" d="M4249 6102l0 5 -26 0c-1,0 -2,0 -3,0 -1,0 -2,0 -3,0 -1,0 -1,0 -2,0 -1,0 -2,-1 -3,-1 1,1 1,1 1,1 1,1 1,1 1,1 0,0 1,1 1,1 0,0 0,1 1,1l3 4 -3 3 -9 -11 0 -4 42 0zm0 -42l0 27 -4 0 -11 -10c-2,-2 -3,-3 -4,-4 -2,-1 -3,-2 -4,-3 -1,-1 -3,-2 -4,-2 -1,0 -3,-1 -4,-1 -1,0 -2,1 -3,1 -1,0 -2,1 -2,1 -1,1 -1,2 -2,2 0,1 0,2 0,3 0,2 0,4 1,5 1,2 2,3 3,4l-4 3c0,0 -1,-1 -2,-2 0,-1 -1,-2 -1,-3 -1,-1 -1,-2 -1,-3 0,-1 -1,-3 -1,-4 0,-2 1,-3 1,-5 1,-1 1,-3 2,-4 1,-1 3,-2 4,-2 1,-1 3,-1 5,-1 1,0 3,0 4,1 2,0 3,1 5,2 1,1 3,2 4,3 2,1 3,3 5,4l8 8 1 0 0 -20 4 0zm-9 -35l0 6 9 0 0 6 -9 0 0 19 -5 0 -28 -19 0 -6 28 0 0 -6 5 0zm-5 12l-10 0c-1,0 -2,0 -4,0 -1,0 -2,-1 -3,-1 -1,0 -2,0 -3,0 -1,0 -2,0 -3,0l0 0c1,1 1,1 2,1 0,0 0,0 1,1 0,0 1,0 1,0 1,1 1,1 1,1l18 12 0 -14zm-29 -29c0,-2 1,-3 1,-5 0,-1 1,-3 2,-4 1,-1 2,-2 3,-2 1,-1 3,-1 5,-1 1,0 2,0 3,0 1,1 2,1 3,2 1,1 1,1 2,2 1,1 1,2 2,3 1,-1 1,-2 2,-3 1,-1 1,-2 2,-3 1,-1 2,-1 3,-2 2,0 3,-1 4,-1 2,0 4,1 5,1 2,1 3,2 4,3 1,1 2,3 2,4 1,2 1,4 1,6 0,2 0,4 -1,5 0,2 -1,3 -2,5 -1,1 -2,2 -4,2 -1,1 -3,1 -4,1 -2,0 -3,0 -4,-1 -2,0 -3,-1 -4,-1 0,-1 -1,-2 -2,-3 -1,-1 -1,-2 -2,-3 0,1 -1,2 -2,3 -1,0 -1,1 -2,2 -1,0 -2,1 -3,1 -1,1 -2,1 -4,1 -1,0 -3,-1 -4,-1 -1,-1 -2,-2 -3,-3 -1,-1 -2,-2 -2,-4 0,-1 -1,-3 -1,-4zm33 8c1,0 2,0 2,-1 1,0 2,0 3,-1 0,-1 1,-1 1,-2 0,-2 0,-3 0,-4 0,-1 0,-3 0,-4 0,-1 -1,-2 -1,-2 -1,-1 -2,-2 -3,-2 -1,0 -2,0 -3,0 -1,0 -2,0 -2,0 -1,1 -2,1 -3,2 0,0 -1,1 -2,2 0,1 -1,2 -1,4l-1 1c1,2 3,4 4,5 2,1 3,2 6,2zm-28 -8c0,2 0,4 1,5 1,1 3,2 5,2 1,0 2,-1 3,-1 0,0 1,-1 2,-1 0,-1 1,-2 1,-3 1,0 1,-1 2,-2 -1,-1 -1,-2 -2,-3 0,-1 -1,-1 -1,-2 -1,-1 -2,-1 -2,-2 -1,0 -2,0 -3,0 -2,0 -4,1 -5,2 -1,1 -1,3 -1,5zm17 -46c4,0 7,0 9,0 3,1 5,2 7,3 2,1 4,2 4,4 1,2 2,4 2,6 0,2 -1,4 -2,6 0,2 -2,3 -4,4 -2,1 -4,2 -7,3 -2,0 -5,1 -9,1 -3,0 -6,-1 -9,-1 -3,-1 -5,-1 -7,-2 -2,-2 -3,-3 -4,-5 -1,-1 -2,-3 -2,-6 0,-2 1,-4 2,-6 1,-2 2,-3 4,-4 2,-1 4,-2 7,-3 3,0 6,0 9,0zm0 21c3,0 6,0 8,0 2,0 4,-1 5,-2 2,0 3,-1 3,-2 1,-1 1,-2 1,-4 0,-1 0,-3 -1,-4 0,-1 -1,-2 -3,-2 -1,-1 -3,-1 -5,-2 -2,0 -5,0 -8,0 -3,0 -5,0 -7,0 -3,1 -4,1 -6,2 -1,0 -2,1 -3,2 -1,1 -1,3 -1,4 0,2 0,3 1,4 1,1 2,2 3,2 2,1 3,2 6,2 2,0 4,0 7,0zm12 -71l0 6 9 0 0 5 -9 0 0 20 -5 0 -28 -20 0 -5 28 0 0 -6 5 0zm-5 11l-10 0c-1,0 -2,0 -4,0 -1,0 -2,0 -3,0 -1,0 -2,0 -3,0 -1,0 -2,0 -3,0l0 0c1,0 1,0 2,0 0,1 0,1 1,1 0,0 1,1 1,1 1,0 1,0 1,1l18 12 0 -15zm-12 -28c0,-2 1,-4 1,-5 1,-2 2,-4 3,-5 1,-1 2,-2 3,-3 2,0 4,-1 6,-1 2,0 4,1 6,1 1,1 3,2 4,3 1,1 2,3 3,5 1,2 1,4 1,7 0,1 0,1 0,2 0,1 0,2 -1,3 0,1 0,2 0,3 -1,0 -1,1 -1,2l-5 0c0,-1 1,-2 1,-2 0,-1 1,-2 1,-3 0,-1 0,-2 0,-3 0,-1 0,-2 0,-3 0,-1 0,-3 0,-4 0,-1 -1,-2 -2,-3 0,-1 -1,-1 -3,-2 -1,0 -2,0 -4,0 -2,0 -4,0 -6,2 -1,2 -2,4 -2,8 0,0 0,1 0,1 0,1 0,2 0,2 0,1 0,1 0,2 0,0 1,1 1,1l-2 3 -20 -2 0 -20 5 0 0 16 12 1c0,-1 0,-2 0,-3 -1,-1 -1,-2 -1,-3z"/>
   <path id="TI_x0020_LOGO" fill="#E5E5E5" d="M4097 6060c-1,2 -1,4 -2,6 1,1 1,2 1,3 -3,0 -5,1 -8,2 -1,-1 -1,-1 -1,-1 1,-1 1,-1 2,-1 3,-5 9,-16 -1,-17 -4,3 -4,8 -5,12 -3,5 -4,6 -11,6 -7,-3 -6,-11 -4,-17 -1,-1 -1,-2 -1,-3 2,0 5,-1 8,-2 -1,1 -3,5 -4,7 -1,3 -1,13 5,8 4,-8 3,-20 15,-16 5,3 6,7 6,13zm-89 119c-2,0 -7,0 -8,-1 0,-3 0,-6 0,-9 2,0 5,1 8,1 0,0 0,0 0,0 0,3 0,6 0,9zm4 -12c-1,0 -1,0 0,-18l0 0 0 0 0 0 0 0 0 0 0 0 0 0 0 0 0 0 0 0 0 0 0 0 0 0 0 0 0 0 0 0 0 0 0 0 0 0 0 0 0 0 0 0 1 0 0 0 0 0 0 0 0 0 0 0 0 0 0 0 0 0 0 0 1 0 0 0 0 0 0 0 0 0 0 0 0 0 0 0 0 0 0 0 1 0 0 0 0 0 0 0 0 0 0 0 0 0 1 0 0 0 0 0 0 0 0 0 0 0 0 0 0 0 1 0 0 0 0 0 0 0 0 0 0 0 0 0 1 0 0 0 0 0 0 0 0 0 0 0 0 0 1 0 0 0 0 0 0 0 0 0 0 0 0 0 0 0 0 0 0 0 1 0 0 0 0 0 0 0 0 0 0 0 0 0 0 0 0 0 1 0 0 0 0 0 0 0 0 0 0 0 0 0 0 0 0 0 0 0 1 0 0 0 0 0 0 0 0 0 0 0 0 0 0 0 0 0 0 0 1 0 0 0 0 0 0 0 0 0 0 0 0 0 0 0 0 0 0 0 1 0 0 0 0 0 0 0 0 0 0 0 0 0 0 0 0 0 0 0 1 0 0 0 0 0c3,-1 6,-2 8,-5 7,0 13,0 19,0 3,13 11,26 25,27 3,0 6,-1 8,-1 6,17 -16,25 -28,32 -10,9 9,11 0,20 -4,2 -4,2 -12,6 -5,4 -8,9 -15,11 0,-9 0,-18 0,-27 -12,0 -24,0 -36,0 0,-7 0,-14 0,-22 6,0 12,0 18,0 0,-2 0,-4 0,-6 3,1 7,2 11,2 0,2 0,5 1,7 3,1 6,1 10,2 0,-2 0,-4 0,-6 8,1 16,3 24,3 2,-1 3,-2 4,-5 0,-5 0,-11 0,-16 -1,0 -1,0 -11,-2 0,2 0,4 -2,6 -5,-1 -10,-2 -15,-3 0,-2 0,-4 0,-7 -4,0 -7,-1 -10,-2 0,2 -1,4 -1,7 -4,-1 -7,-2 -11,-3zm0 -39c-1,0 -1,0 -1,-32 1,0 1,0 1,0 2,-1 5,-2 7,-2 0,1 0,1 -2,3 -1,2 -2,10 0,11 10,0 20,0 30,0 2,0 2,-1 3,-3 0,0 1,0 1,0 0,5 0,9 0,13 -2,0 -3,-2 -4,-3 -10,0 -20,0 -30,0 -3,4 -1,10 2,14 0,0 0,1 0,1 -3,-1 -5,-2 -7,-2zm9 -28c0,-23 0,-23 0,-23 2,-1 4,-1 6,-2 1,0 1,0 1,0 -1,2 -3,4 -3,7 0,3 0,5 0,8 0,0 0,0 0,1 3,0 6,0 8,0 0,-3 2,-10 -2,-11 0,-1 0,-1 0,-1 0,-1 0,-1 0,-1 3,0 6,0 8,0 0,0 0,0 0,1 0,1 -1,1 -2,3 0,3 0,6 0,9 3,0 10,1 10,-1 0,-3 0,-6 0,-8 0,-2 0,-3 -1,-5 -1,-1 -2,-2 -2,-4 2,1 4,2 6,3 1,8 1,16 1,24 0,0 -1,0 -1,0 -1,0 -1,-1 -1,-2 -7,-1 -17,0 -24,0 -2,0 -2,1 -3,2 0,0 -1,0 -1,0zm-9 67c0,-6 0,-12 0,-18 0,0 0,0 0,0m39 39c-13,-3 -26,-5 -39,-8 0,-3 0,-6 0,-9 13,3 26,5 38,8 1,0 1,0 1,0 0,9 0,9 0,9zm-30 -114c0,-5 0,-10 0,-15 0,0 1,0 1,0 1,2 1,2 1,3 3,-1 6,-3 9,-5 -2,-2 -8,-7 -10,-3 0,0 -1,0 -1,-1 0,-3 0,-6 0,-10 0,0 1,0 1,0 1,5 9,9 13,11 5,-2 9,-6 14,-10 0,-3 -24,-11 -28,-12 0,-2 0,-5 0,-7 0,0 0,0 27,-10 1,-1 1,-1 2,-3 0,0 1,0 1,0 0,4 0,8 0,12 0,0 -1,0 -1,0 -1,-3 -5,-1 -7,0 0,4 0,8 0,12 2,1 3,2 6,1 0,0 0,-1 1,-1 0,0 1,0 1,-1 0,7 0,14 0,21 -1,0 -2,-1 -2,-2 -2,0 -9,4 -10,6 3,2 9,8 11,3 0,0 1,0 1,0 0,4 0,7 0,11 0,0 -1,0 -1,0 -2,-5 -9,-9 -13,-12 -4,0 -14,7 -15,12 0,0 -1,0 -1,0zm18 -40c-1,1 -10,-3 -12,-4 0,-1 10,-4 12,-5 0,3 0,6 0,9zm13 -32c-1,2 -3,6 -1,7 0,1 0,1 0,1 -3,1 -6,2 -9,3 0,-2 3,-5 4,-7 1,-3 2,-5 1,-9 -6,-9 -9,3 -10,9 -5,10 -14,7 -16,-3 0,-4 1,-7 0,-11 3,0 5,-1 8,-2 0,2 -3,5 -4,7 -1,4 -1,12 5,9 3,-7 2,-16 10,-18 10,0 11,6 12,14zm5 117c0,0 0,0 0,-14 1,0 1,0 1,0 1,2 2,2 3,3 11,0 21,0 32,0 1,0 2,-1 2,-3 1,0 1,0 2,0 -1,5 -1,9 -1,14 0,0 0,0 -1,0 0,-2 -1,-3 -2,-4 -11,0 -21,0 -32,0 -2,1 -2,2 -3,4 0,0 0,0 -1,0zm10 -267c-1,0 -1,-24 0,-24 5,-1 6,-2 7,-2 0,0 0,1 1,1 -4,3 -5,5 -4,10 22,0 22,0 23,0 1,-2 1,-2 1,-3 1,0 1,0 2,0 0,4 0,8 0,13 -1,0 -1,0 -2,0 0,-2 0,-2 -1,-3 -8,0 -16,0 -24,0 0,5 0,6 5,9 0,1 0,1 0,1 -8,-2 -8,-2 -8,-2zm0 12c-1,0 -1,0 0,-9 0,0 0,0 1,0 0,2 1,2 3,2 9,1 17,1 26,1 0,0 0,0 -1,1 -7,6 -14,13 -21,19 17,0 17,0 19,0 0,-1 1,-2 2,-2 0,0 0,0 1,0 0,3 0,6 0,9 -1,1 -1,1 -1,1 -1,-2 -2,-3 -4,-3 -7,0 -14,0 -21,0 -2,0 -3,1 -3,3 -1,0 -1,0 -1,-1 -1,0 -1,-8 0,-8 5,-5 11,-10 16,-15 -4,0 -10,-1 -15,0 0,1 0,1 0,2 -1,0 -1,0 -1,0zm0 90c-1,-11 -1,-11 0,-11 18,-8 18,-8 18,-8 -6,-3 -12,-6 -18,-8 0,0 -1,0 -1,0 1,-11 1,-11 1,-11 1,1 1,2 3,3 8,0 15,0 23,0 1,-1 2,-2 2,-3 1,0 1,0 2,0 -1,4 -1,8 -1,12 0,0 0,0 -1,0 0,-1 0,-1 -1,-2 -1,0 -1,0 -2,-1 -6,1 -12,1 -18,1 8,3 15,6 23,10 0,0 0,0 0,1 -8,3 -15,6 -23,10 6,0 12,0 18,0 2,0 3,-1 3,-2 1,0 1,0 2,0 0,3 0,6 0,9 -1,0 -1,0 -2,0 0,-1 -1,-2 -2,-3 -8,0 -15,0 -23,0 -2,1 -2,2 -3,3zm0 12c-1,0 -1,-10 0,-10 1,0 1,1 1,2 7,2 15,1 22,1 9,4 9,20 1,25 -1,0 -2,0 -3,1 -6,0 -12,0 -18,0 -1,0 -2,1 -2,2 -1,0 -1,0 -1,0 -1,0 -1,-12 0,-12 1,1 2,2 3,3 6,0 12,0 17,0 8,-2 8,-13 0,-15 -5,0 -11,0 -16,0 -2,1 -2,1 -3,3 -1,0 -1,0 -1,0zm0 52c-1,0 -1,-18 0,-18 0,-6 4,-12 11,-9 3,2 3,2 4,4 0,2 0,2 1,2 1,-1 2,-2 2,-3 5,-3 8,-4 10,-9 1,0 1,0 1,0 3,10 -3,12 -11,16 -1,3 -1,4 -1,7 3,0 5,0 8,0 2,0 3,-1 3,-3 1,0 1,0 2,0 0,5 0,9 0,13 -1,0 -1,0 -2,0 0,0 0,-1 0,-1 0,-1 -1,-1 -2,-2 -8,0 -15,0 -23,0 -1,0 -1,1 -2,2 -1,1 -1,1 -1,1zm0 63c-1,0 -1,0 0,-9 0,0 0,0 1,0 0,2 1,2 3,3 8,0 17,0 26,0 0,0 0,1 -1,1 -7,7 -14,13 -21,19 17,1 17,1 19,0 0,-1 1,-1 2,-2 0,0 0,0 1,0 0,3 0,6 0,10 -1,0 -1,0 -1,0 -1,-2 -2,-2 -3,-3 -8,0 -15,0 -23,0 -1,1 -2,1 -2,3 -1,0 -1,0 -1,0 -1,0 -1,-9 0,-9 5,-5 11,-10 16,-15 -4,0 -8,0 -13,0 0,0 -1,0 -2,0 0,1 0,2 0,2 -1,0 -1,0 -1,0zm0 -168c0,1 0,1 0,-23 6,-2 6,-2 7,-2 -1,1 -2,2 -4,6 0,3 0,6 1,10 0,0 0,0 8,0 0,-3 0,-5 0,-8 0,-1 0,-2 -1,-3 -1,0 -1,0 -1,-1 0,-1 8,-1 8,0 0,1 -1,1 -2,2 0,1 0,1 0,10 3,0 6,0 9,0 2,-4 1,-9 0,-13 -1,-2 -2,-3 -3,-4 0,0 0,-1 0,-1 3,1 5,2 7,3 0,8 0,16 1,24 -1,0 -1,0 -2,0 0,-1 0,-1 -1,-2 -8,0 -18,-2 -26,0 0,1 0,2 -1,2zm26 123c-8,0 -15,0 -22,0 0,0 0,0 0,0 0,6 -1,6 3,10 0,0 1,0 1,1 -3,-1 -6,-2 -8,-3 0,-8 0,-15 0,-23 6,-2 7,-3 7,-3 1,0 1,1 1,1 -4,3 -5,5 -5,10 8,0 15,0 23,0 2,0 2,-1 2,-3 1,0 1,0 2,0 0,5 0,9 0,13 -1,0 -1,0 -1,0 -1,-2 -2,-2 -3,-3zm4 -222c-2,6 -2,6 -1,7 0,0 0,0 1,0 0,1 0,1 0,2 -9,2 -9,2 -10,2 0,0 0,-1 0,-1 4,-4 10,-14 3,-18 -11,0 -3,23 -19,17 -6,-4 -6,-10 -3,-16 -1,-1 -1,-1 -2,-1 1,0 1,-1 1,-2 2,0 5,-1 7,-1 0,0 1,0 1,0 -3,4 -8,13 -2,16 1,0 2,-1 2,-1 6,-9 2,-17 15,-17 6,2 6,7 7,13zm-16 194c-3,0 -6,0 -9,0 -5,0 0,-17 7,-9 1,3 1,6 2,9z"/>
  </g>
  <g id="USB_x0020_MICRO">
   <rect fill="#999999" transform="matrix(2.64845E-014 -1 1 2.64845E-014 4135.86 5241.96)" width="35.1732" height="78.1575"/>
   <path fill="#CBA580" d="M4153 5213l46 0c1,0 2,1 2,2l0 20c0,0 -1,1 -2,1l-49 0c-1,0 -2,-1 -2,-1l0 -5c0,0 -1,-1 -1,-1l-3 0c0,0 0,0 0,0 0,0 0,-1 0,-1l3 0c1,0 2,1 2,2l0 5c0,0 0,0 1,0l49 0c1,0 1,0 1,0l0 -20c0,-1 0,-1 -1,-1l-46 0c-1,0 -1,0 -1,1l0 18c0,0 0,1 1,1l43 0c1,0 1,-1 1,-1l0 -16c0,-1 0,-1 -1,-1l-40 0c-1,0 -1,0 -1,0l0 15c0,1 0,1 1,1l37 0c0,0 1,0 1,-1l0 -13c0,0 -1,-1 -1,-1l-34 0c-1,0 -1,1 -1,1l0 12c0,0 0,0 1,0l31 0c1,0 1,0 1,0l0 -11c0,-1 0,-1 1,-1 0,0 0,0 0,1l0 11c0,0 -1,1 -2,1l-31 0c-1,0 -2,-1 -2,-1l0 -12c0,-1 1,-1 2,-1l34 0c1,0 2,0 2,1l0 13c0,1 -1,2 -2,2l-37 0c-1,0 -2,-1 -2,-2l0 -15c0,-1 1,-1 2,-1l40 0c1,0 2,1 2,2l0 16c0,1 -1,2 -2,2l-43 0c-1,0 -2,-1 -2,-2l0 -18c0,-1 1,-2 2,-2z"/>
   <polygon fill="white" fill-opacity="0.200000" points="4136,5242 4136,5242 4214,5242 4214,5242 "/>
   <path fill="gainsboro" d="M4206 5241l0 1 8 0 0 -35 -8 0c-1,3 -2,7 -2,10 0,4 1,21 2,24z"/>
   <path fill="gainsboro" d="M4146 5217c0,-3 -1,-7 -2,-10l-8 0 0 35 8 0 0 -1c1,-3 2,-20 2,-24z"/>
   <polygon fill="white" fill-opacity="0.501961" points="4206,5242 4206,5242 4214,5242 4214,5242 "/>
   <polygon fill="white" fill-opacity="0.501961" points="4136,5242 4136,5242 4144,5242 4144,5242 "/>
   <line fill="none" x1="4207" y1="5207" x2="4207" y2= "5207" />
   <rect fill="#666666" transform="matrix(2.64845E-014 -1 1 2.64845E-014 4176.86 5367.96)" width="17.0394" height="13.6457"/>
   <rect fill="#999999" transform="matrix(2.64845E-014 -1 1 2.64845E-014 4188.86 5367.96)" width="15.122" height="1.24016"/>
   <rect fill="#666666" transform="matrix(2.64845E-014 -1 1 2.64845E-014 4151.86 5367.96)" width="17.0394" height="13.6457"/>
   <rect fill="#999999" transform="matrix(2.64845E-014 -1 1 2.64845E-014 4163.86 5367.96)" width="15.122" height="1.24016"/>
   <rect fill="#666666" transform="matrix(2.64845E-014 -1 1 2.64845E-014 4125.86 5367.96)" width="17.0394" height="13.6457"/>
   <rect fill="#999999" transform="matrix(2.64845E-014 -1 1 2.64845E-014 4138.86 5367.96)" width="15.122" height="1.22441"/>
   <rect fill="#666666" transform="matrix(2.64845E-014 -1 1 2.64845E-014 4100.86 5367.96)" width="17.0394" height="13.6457"/>
   <rect fill="#999999" transform="matrix(2.64845E-014 -1 1 2.64845E-014 4112.86 5367.96)" width="15.122" height="1.2126"/>
   <rect fill="#666666" transform="matrix(2.64845E-014 -1 1 2.64845E-014 4074.86 5367.96)" width="17.0394" height="13.6378"/>
   <rect fill="#999999" transform="matrix(2.64845E-014 -1 1 2.64845E-014 4087.86 5367.96)" width="15.122" height="1.2126"/>
   <polygon fill="#B3B3B3" points="4003,5121 4263,5121 4263,5355 4003,5355 "/>
   <rect fill="#CCCCCC" transform="matrix(2.64845E-014 -1 1 2.64845E-014 4002.86 5354.95)" width="1.79134" height="259.827"/>
   <rect fill="#333333" transform="matrix(2.64845E-014 -1 1 2.64845E-014 4061.86 5354.96)" width="215" height="142"/>
   <polygon fill="#B3B3B3" points="4266,5126 4266,5119 4275,5104 4280,5104 "/>
   <polygon fill="#CCCCCC" points="4266,5119 4266,5119 4266,5112 4275,5104 "/>
   <polygon fill="#B3B3B3" points="3986,5104 3991,5104 4000,5119 4000,5126 "/>
   <polygon fill="#CCCCCC" points="3991,5104 4000,5112 4000,5119 4000,5119 "/>
   <rect fill="#F2F2F2" transform="matrix(2.64845E-014 -1 1 2.64845E-014 4071.86 5134.96)" width="8.93701" height="6.59055"/>
   <rect fill="#F2F2F2" transform="matrix(2.64845E-014 -1 1 2.64845E-014 4100.86 5134.96)" width="8.93701" height="6.60236"/>
   <rect fill="#F2F2F2" transform="matrix(2.64845E-014 -1 1 2.64845E-014 4129.86 5134.96)" width="8.93701" height="6.5748"/>
   <rect fill="#F2F2F2" transform="matrix(2.64845E-014 -1 1 2.64845E-014 4157.86 5134.96)" width="8.93701" height="6.5748"/>
   <rect fill="#F2F2F2" transform="matrix(2.64845E-014 -1 1 2.64845E-014 4186.86 5134.96)" width="8.93701" height="6.5748"/>
   <rect fill="gray" transform="matrix(2.64845E-014 -1 1 2.64845E-014 4191.86 5134.96)" width="8.93701" height="1.32283"/>
   <rect fill="gray" transform="matrix(2.64845E-014 -1 1 2.64845E-014 4163.86 5134.96)" width="8.93701" height="1.33858"/>
   <rect fill="gray" transform="matrix(2.64845E-014 -1 1 2.64845E-014 4134.86 5134.96)" width="8.93701" height="1.35039"/>
   <rect fill="gray" transform="matrix(2.64845E-014 -1 1 2.64845E-014 4105.86 5134.96)" width="8.93701" height="1.35039"/>
   <rect fill="gray" transform="matrix(2.64845E-014 -1 1 2.64845E-014 4076.86 5134.96)" width="8.93701" height="1.35039"/>
   <path fill="#4D4D4D" d="M4201 5123l-7 0 0 6 -7 0 0 -6 -22 0 0 6 -7 0 0 -6 -22 0 0 6 -6 0 0 -6 -22 0 0 6 -7 0 0 -6 -22 0 0 6 -7 0 0 -6 -4 0 -4 0c-1,0 -2,1 -2,2l0 15c0,1 1,2 2,2l138 0c1,0 2,-1 2,-2l0 -15c0,-1 -1,-2 -2,-2l-1 0z"/>
   <path fill="#CCCCCC" d="M4266 5347l-3 8 -35 0c0,0 32,-1 33,-4 1,-2 -2,-4 -2,-4l7 0z"/>
   <path fill="#CCCCCC" d="M4000 5347l3 8 35 0c0,0 -32,-1 -33,-4 -1,-2 2,-4 2,-4l-7 0z"/>
   <path fill="#E6E6E6" d="M4047 5355l0 -22 22 0 0 22 6 0 0 -8 116 0 0 8 7 0 0 -22 22 0 0 22 46 0 0 -234 -266 0 0 234 47 0zm151 -191l0 -11 22 0 0 12c6,4 10,10 10,18 0,8 -3,15 -10,19l0 0 0 62 -22 0 0 -62c-7,-4 -11,-11 -11,-19 0,-8 4,-15 11,-19zm-150 0l0 -11 22 0 0 12c6,4 9,10 9,18 0,8 -2,15 -9,19l0 0 0 62 -22 0 0 -62c-7,-4 -12,-11 -12,-19 0,-8 5,-15 12,-19z"/>
   <polygon fill="#F2F2F2" points="4260,5121 4266,5121 4266,5347 4245,5347 "/>
   <polygon fill="#999999" points="4000,5121 4008,5272 4016,5347 4000,5347 "/>
   <rect fill="#CCCCCC" transform="matrix(2.64845E-014 -1 1 2.64845E-014 4197.86 5263.95)" width="1.80709" height="21.9646"/>
   <rect fill="#CCCCCC" transform="matrix(2.64845E-014 -1 1 2.64845E-014 4047.86 5263.95)" width="1.80709" height="21.937"/>
   <rect fill="#B3B3B3" transform="matrix(2.64845E-014 -1 1 2.64845E-014 4012.86 5131.96)" width="9.09843" height="239.713"/>
   <rect fill="#CCCCCC" transform="matrix(2.64845E-014 -1 1 2.64845E-014 4012.86 5124.96)" width="4.31496" height="239.713"/>
  </g>
  <g id="SPARK_x0020_LOGO">
   <polygon fill="#CC9933" points="4513,5267 4494,5237 4512,5209 4484,5227 4455,5209 4473,5237 4456,5265 4484,5247 "/>
   <polygon fill="#CC9933" points="4488,5256 4484,5253 4479,5256 4484,5277 "/>
   <polygon fill="#CC9933" points="4468,5237 4465,5241 4444,5237 4465,5232 "/>
   <polygon fill="#CC9933" points="4503,5242 4500,5237 4503,5232 4524,5237 "/>
   <polygon fill="#CC9933" points="4489,5218 4484,5197 4479,5218 4484,5221 "/>
   <polygon fill="#E6AB00" points="4513,5267 4494,5237 4512,5209 4512,5209 4493,5237 "/>
   <polygon fill="#E6AB00" points="4488,5256 4484,5253 4487,5256 4484,5277 "/>
   <polygon fill="#E6AB00" points="4465,5241 4467,5237 4465,5232 4468,5237 "/>
   <polygon fill="#E6AB00" points="4503,5242 4521,5237 4503,5232 4524,5237 "/>
   <polygon fill="#E6AB00" points="4489,5218 4484,5197 4488,5218 4484,5221 "/>
   <polygon fill="#E6AB00" points="4484,5227 4455,5209 4484,5228 "/>
   <polygon fill="#E6AB00" points="4484,5246 4456,5265 4484,5247 "/>
  </g>
  <g id="BLUE_x0020_LED">
   <rect fill="#CCCCCC" x="4340" y="5207" width="63.2597" height="35.0023"/>
   <rect fill="#E5E5E5" x="4352" y="5210" width="39.0433" height="28.7008"/>
   <rect fill="#1B5BB3" x="4364" y="5219" width="15.0236" height="11.0433"/>
  </g>
  <g id="BUTTON">
   <rect fill="#CCCCCC" x="4291" y="5518" width="22.5157" height="35"/>
   <rect fill="#E5E5E5" x="4312" y="5518" width="2.26772" height="35"/>
   <rect fill="#CCCCCC" x="4353" y="5518" width="22.5157" height="35"/>
   <rect fill="#E5E5E5" x="4373" y="5518" width="2.26772" height="35"/>
   <rect fill="#CCCCCC" x="4353" y="5392" width="22.5157" height="35"/>
   <rect fill="#E5E5E5" x="4373" y="5392" width="2.26772" height="35"/>
   <rect fill="#CCCCCC" x="4291" y="5392" width="22.5157" height="35"/>
   <rect fill="#E5E5E5" x="4312" y="5392" width="2.26772" height="35"/>
   <polygon fill="#999999" points="4275,5402 4393,5402 4393,5543 4275,5543 "/>
   <polygon fill="#B2B2B2" points="4390,5402 4393,5402 4393,5543 4390,5543 "/>
   <polygon fill="#8C8C8C" points="4275,5402 4278,5402 4278,5543 4275,5543 "/>
   <path fill="black" d="M4334 5438c19,0 35,15 35,34 0,19 -16,35 -35,35 -19,0 -35,-16 -35,-35 0,-19 16,-34 35,-34z"/>
   <g>
    <path fill="#404040" d="M4332 5441c18,0 32,14 32,31 0,18 -14,32 -32,32 -17,0 -31,-14 -31,-32 0,-17 14,-31 31,-31z"/>
    <path fill="#999999" d="M4332 5441c18,0 32,14 32,31 0,18 -14,32 -32,32 41,-6 41,-58 0,-63z"/>
   </g>
  </g>
  <g id="BUTTON_0">
   <rect fill="#CCCCCC" x="3891" y="5518" width="22.5157" height="35"/>
   <rect fill="#E5E5E5" x="3912" y="5518" width="2.26772" height="35"/>
   <rect fill="#CCCCCC" x="3953" y="5518" width="22.5157" height="35"/>
   <rect fill="#E5E5E5" x="3973" y="5518" width="2.26772" height="35"/>
   <rect fill="#CCCCCC" x="3953" y="5392" width="22.5157" height="35"/>
   <rect fill="#E5E5E5" x="3973" y="5392" width="2.26772" height="35"/>
   <rect fill="#CCCCCC" x="3891" y="5392" width="22.5157" height="35"/>
   <rect fill="#E5E5E5" x="3912" y="5392" width="2.26772" height="35"/>
   <polygon fill="#999999" points="3875,5402 3993,5402 3993,5543 3875,5543 "/>
   <polygon fill="#B2B2B2" points="3990,5402 3993,5402 3993,5543 3990,5543 "/>
   <polygon fill="#8C8C8C" points="3875,5402 3878,5402 3878,5543 3875,5543 "/>
   <path fill="black" d="M3934 5438c19,0 35,15 35,34 0,19 -16,35 -35,35 -19,0 -35,-16 -35,-35 0,-19 16,-34 35,-34z"/>
   <g>
    <path fill="#404040" d="M3932 5441c18,0 32,14 32,31 0,18 -14,32 -32,32 -17,0 -31,-14 -31,-32 0,-17 14,-31 31,-31z"/>
    <path fill="#999999" d="M3932 5441c18,0 32,14 32,31 0,18 -14,32 -32,32 41,-6 41,-58 0,-63z"/>
   </g>
  </g>
  <g id="TEXT">
   <path fill="white" fill-rule="nonzero" d="M3966 6490c0,2 -1,4 -1,5 -1,1 -2,3 -3,4 -1,1 -2,1 -4,2 -2,0 -4,1 -6,1 -2,0 -4,-1 -5,-1 -2,0 -4,-1 -5,-1l0 -5c1,0 2,0 2,1 1,0 2,0 3,0 1,1 2,1 3,1 0,0 1,0 2,0 3,0 5,0 7,-1 1,-2 2,-3 2,-5 0,-1 0,-2 -1,-3 0,0 0,-1 -1,-2 -1,0 -2,-1 -3,-1 -1,-1 -2,-2 -4,-2 -1,-1 -3,-2 -4,-2 -1,-1 -2,-2 -3,-3 -1,-1 -1,-2 -2,-3 0,-1 0,-3 0,-4 0,-2 0,-3 1,-4 0,-2 1,-3 2,-4 1,0 2,-1 4,-2 1,0 3,0 5,0 2,0 4,0 5,0 2,1 4,1 5,2l-2 4c-1,0 -2,-1 -4,-1 -1,-1 -3,-1 -4,-1 -2,0 -4,1 -5,2 -2,1 -2,2 -2,4 0,1 0,2 0,3 1,0 1,1 2,2 0,0 1,1 2,1 1,1 2,1 4,2 2,1 3,1 4,2 1,1 2,1 3,2 1,1 2,2 2,3 1,1 1,3 1,4zm20 12c-1,0 -2,-1 -2,-1 -1,0 -2,0 -3,-1 0,0 -1,-1 -2,-1 0,-1 -1,-1 -1,-2l0 0c0,1 0,1 0,2 0,0 0,1 0,1 0,1 0,1 0,2l0 12 -5 0 0 -43 4 0 1 4 0 0c0,0 1,-1 1,-2 1,0 2,-1 2,-1 1,0 2,-1 3,-1 0,0 1,0 2,0 2,0 4,0 5,1 2,0 3,1 4,3 1,1 1,2 2,4 1,2 1,5 1,7 0,3 0,5 -1,7 -1,2 -1,3 -2,5 -1,1 -2,2 -4,3 -1,0 -3,1 -5,1zm0 -27c-2,0 -3,0 -4,0 -1,1 -2,1 -2,2 -1,1 -1,2 -2,3 0,2 0,3 0,5l0 1c0,2 0,3 0,5 1,1 1,3 2,3 0,1 1,2 2,3 1,0 2,0 4,0 2,0 4,-1 5,-3 1,-1 2,-4 2,-8 0,-4 -1,-7 -2,-8 -1,-2 -3,-3 -5,-3zm36 26l-1 -4 0 0c0,1 -1,1 -2,2 0,1 -1,1 -2,1 0,1 -1,1 -2,1 -1,0 -2,1 -3,1 -1,0 -2,-1 -3,-1 -1,0 -2,-1 -3,-2 -1,0 -2,-1 -2,-2 0,-2 -1,-3 -1,-4 0,-3 1,-6 4,-7 2,-2 5,-3 9,-3l5 0 0 -2c0,-1 0,-2 0,-3 -1,-1 -1,-1 -2,-2 0,0 -1,-1 -1,-1 -1,0 -2,0 -3,0 -1,0 -3,0 -4,0 -1,1 -3,1 -4,2l-1 -4c1,0 2,-1 4,-2 2,0 3,0 5,0 2,0 4,0 5,0 1,1 2,1 3,2 1,1 2,2 2,3 1,1 1,3 1,5l0 20 -4 0zm-9 -4c1,0 2,0 3,0 1,0 2,-1 3,-2 0,0 1,-1 1,-2 1,-1 1,-3 1,-4l0 -3 -4 1c-2,0 -3,0 -4,0 -1,0 -2,1 -3,1 0,1 -1,1 -1,2 0,1 0,2 0,3 0,1 0,3 1,3 1,1 2,1 3,1zm35 -26c0,0 1,0 2,0 0,0 1,0 1,0l0 4c-1,0 -1,0 -2,0 0,0 -1,0 -1,0 -1,0 -2,0 -3,1 -1,0 -2,1 -3,2 -1,1 -1,2 -1,3 -1,1 -1,2 -1,4l0 16 -5 0 0 -30 4 0 1 6 0 0c0,-1 1,-2 1,-3 1,0 1,-1 2,-2 1,0 1,-1 2,-1 1,0 2,0 3,0zm14 15l3 -5 8 -10 6 0 -11 13 12 17 -6 0 -9 -14 -3 3 0 11 -5 0 0 -42 5 0 0 19 0 8 0 0zm54 -21c-2,0 -4,1 -5,1 -2,1 -3,2 -4,3 -1,2 -2,4 -3,5 0,2 -1,5 -1,7 0,3 1,5 1,7 1,2 1,4 2,5 2,1 3,2 4,3 2,1 4,1 6,1 2,0 3,0 5,0 1,-1 2,-1 4,-1l0 4c-1,0 -2,0 -2,1 -1,0 -2,0 -2,0 -1,0 -2,0 -3,0 -1,1 -2,1 -3,1 -3,0 -5,-1 -8,-2 -2,-1 -3,-2 -5,-4 -1,-2 -2,-4 -3,-7 -1,-2 -1,-5 -1,-8 0,-3 0,-6 1,-8 1,-3 2,-5 4,-7 1,-1 3,-3 5,-4 2,-1 5,-1 8,-1 2,0 4,0 6,0 1,1 3,1 4,2l-2 4c-1,0 -2,-1 -3,-1 -2,-1 -3,-1 -5,-1zm41 21c0,3 0,5 -1,7 -1,2 -1,3 -3,5 -1,1 -2,2 -4,3 -1,0 -3,1 -5,1 -2,0 -4,-1 -5,-1 -2,-1 -3,-2 -4,-3 -1,-2 -2,-3 -3,-5 -1,-2 -1,-4 -1,-7 0,-2 0,-5 1,-7 1,-1 1,-3 3,-4 1,-2 2,-3 4,-3 1,-1 3,-1 5,-1 2,0 4,0 5,1 2,0 3,1 4,3 2,1 2,3 3,4 1,2 1,5 1,7zm-21 0c0,4 1,7 2,9 1,1 3,2 6,2 3,0 5,-1 6,-2 1,-2 2,-5 2,-9 0,-4 -1,-7 -2,-8 -1,-2 -3,-3 -6,-3 -3,0 -5,1 -6,3 -1,1 -2,4 -2,8zm42 -15c0,0 1,0 1,0 1,0 2,0 2,0l-1 4c0,0 -1,0 -1,0 -1,0 -1,0 -2,0 -1,0 -2,0 -3,1 -1,0 -1,1 -2,2 -1,1 -1,2 -2,3 0,1 0,2 0,4l0 16 -5 0 0 -30 4 0 0 6 1 0c0,-1 1,-2 1,-3 1,0 1,-1 2,-2 0,0 1,-1 2,-1 1,0 2,0 3,0zm21 31c-2,0 -4,-1 -6,-1 -1,-1 -3,-2 -4,-3 -1,-2 -2,-3 -3,-5 0,-2 -1,-4 -1,-7 0,-2 1,-4 1,-6 1,-2 2,-4 3,-5 1,-2 2,-3 4,-3 1,-1 3,-1 5,-1 1,0 3,0 4,1 2,0 3,1 4,2 1,2 2,3 2,5 1,1 1,3 1,5l0 3 -19 0c0,4 1,6 3,8 1,1 3,2 6,2 1,0 2,0 2,0 1,0 2,0 3,0 0,0 1,-1 2,-1 0,0 1,-1 2,-1l0 5c-1,0 -2,0 -2,0 -1,1 -2,1 -2,1 -1,0 -2,0 -3,0 0,0 -1,1 -2,1zm-1 -27c-2,0 -4,0 -5,2 -2,1 -2,3 -2,6l13 0c0,-1 0,-2 0,-3 -1,-1 -1,-2 -1,-3 -1,-1 -2,-1 -2,-2 -1,0 -2,0 -3,0zm39 26l-11 -30 5 0 6 17c0,0 0,1 1,2 0,1 0,2 0,3 1,1 1,2 1,3 0,1 1,1 1,2l0 0c0,-1 0,-1 0,-2 0,-1 1,-2 1,-3 0,-1 1,-2 1,-3 0,-1 0,-2 1,-2l5 -17 5 0 -10 30 -6 0zm35 0l-4 0 0 -25c0,-1 0,-1 0,-2 0,-1 0,-2 0,-3 0,-1 0,-2 0,-2 0,-1 0,-2 0,-3 -1,1 -1,1 -1,1 0,0 -1,1 -1,1 0,0 0,0 -1,1 0,0 0,0 -1,0l-4 4 -2 -4 10 -8 4 0 0 40zm16 -3c0,-1 0,-1 0,-2 0,0 0,-1 1,-1 0,0 0,0 1,-1 0,0 1,0 1,0 1,0 1,0 1,0 1,1 1,1 2,1 0,0 0,1 0,1 0,1 1,1 1,2 0,1 -1,1 -1,2 0,0 0,1 0,1 -1,0 -1,0 -2,1 0,0 0,0 -1,0 0,0 -1,0 -1,0 -1,-1 -1,-1 -1,-1 -1,0 -1,-1 -1,-1 0,-1 0,-1 0,-2zm39 -17c0,3 -1,6 -1,9 -1,2 -1,4 -2,6 -1,2 -3,3 -4,4 -2,1 -4,2 -6,2 -2,0 -4,-1 -6,-2 -1,-1 -3,-2 -4,-4 -1,-2 -2,-4 -2,-6 -1,-3 -1,-6 -1,-9 0,-3 0,-6 1,-8 0,-3 1,-5 2,-7 1,-2 2,-3 4,-4 2,-1 4,-1 6,-1 2,0 4,0 5,1 2,1 3,2 4,4 1,2 2,4 3,6 0,3 1,6 1,9zm-21 0c0,3 0,5 1,7 0,2 0,4 1,5 1,2 1,3 2,3 1,1 2,1 4,1 1,0 2,0 3,-1 1,0 2,-1 3,-3 0,-1 1,-3 1,-5 0,-2 0,-4 0,-7 0,-3 0,-5 0,-7 0,-2 -1,-4 -1,-5 -1,-1 -2,-2 -3,-3 -1,-1 -2,-1 -3,-1 -2,0 -3,0 -4,1 -1,1 -1,2 -2,3 -1,1 -1,3 -1,5 -1,2 -1,4 -1,7z"/>
   <path fill="white" fill-rule="nonzero" d="M3889 5597l-10 -28 0 0c0,1 0,2 1,3 0,1 0,2 0,3 0,1 0,2 0,3l0 19 -4 0 0 -32 6 0 9 26 0 0 9 -26 5 0 0 32 -4 0 0 -20c0,0 1,-1 1,-2 0,-1 0,-2 0,-3 0,-1 0,-2 0,-3l0 0 -10 28 -3 0zm51 -16c0,2 -1,4 -1,6 -1,2 -2,4 -3,6 -1,1 -2,2 -4,3 -2,1 -4,1 -6,1 -2,0 -4,0 -6,-1 -2,-1 -3,-2 -4,-3 -1,-2 -2,-4 -3,-6 0,-2 -1,-4 -1,-6 0,-3 1,-5 1,-7 1,-2 2,-4 3,-5 1,-1 2,-3 4,-3 2,-1 4,-1 6,-1 2,0 4,0 6,1 2,0 3,2 4,3 1,1 2,3 3,5 0,2 1,4 1,7zm-23 0c0,2 0,3 0,5 1,2 1,3 2,4 1,1 2,2 3,3 1,0 2,0 4,0 2,0 3,0 4,0 2,-1 3,-2 3,-3 1,-1 2,-2 2,-4 0,-2 1,-3 1,-5 0,-2 -1,-4 -1,-6 0,-1 -1,-2 -2,-4 0,-1 -1,-1 -3,-2 -1,-1 -2,-1 -4,-1 -1,0 -3,0 -4,1 -1,1 -2,1 -3,2 -1,2 -1,3 -2,4 0,2 0,4 0,6zm53 -1c0,3 0,5 -1,7 -1,2 -2,4 -3,5 -1,2 -3,3 -5,4 -2,0 -4,1 -6,1l-8 0 0 -32 9 0c2,0 4,0 5,1 2,1 4,2 5,3 1,1 2,3 3,5 1,2 1,4 1,6zm-4 1c0,-2 -1,-4 -1,-6 0,-1 -1,-3 -2,-4 -1,-1 -2,-1 -3,-2 -2,0 -3,-1 -5,-1l-4 0 0 25 3 0c4,0 7,-1 9,-3 2,-2 3,-5 3,-9zm27 16l-16 0 0 -32 16 0 0 4 -12 0 0 9 11 0 0 4 -11 0 0 11 12 0 0 4z"/>
   <path fill="white" fill-rule="nonzero" d="M4305 5585l0 13 -4 0 0 -32 8 0c4,0 6,1 8,3 2,1 3,3 3,6 0,2 0,3 -1,4 0,0 0,1 -1,2 -1,1 -1,1 -2,2 -1,0 -1,0 -2,1l8 14 -4 0 -8 -13 -5 0zm0 -4l4 0c1,0 2,0 3,0 1,0 2,-1 2,-1 1,-1 1,-1 1,-2 1,-1 1,-2 1,-3 0,-1 0,-1 -1,-2 0,-1 0,-1 -1,-2 -1,0 -1,-1 -2,-1 -1,0 -2,0 -3,0l-4 0 0 11zm39 8c0,2 -1,3 -1,4 -1,1 -1,2 -2,3 -1,1 -2,1 -4,2 -1,0 -2,0 -4,0 -2,0 -3,0 -4,0 -2,0 -3,-1 -4,-1l0 -4c1,0 1,0 2,1 0,0 1,0 2,0 0,0 1,1 2,1 1,0 1,0 2,0 2,0 4,-1 5,-1 1,-1 2,-3 2,-4 0,-1 0,-2 -1,-2 0,-1 0,-1 -1,-2 0,0 -1,-1 -2,-1 -1,-1 -2,-1 -3,-2 -1,0 -2,-1 -3,-1 -1,-1 -2,-2 -3,-2 0,-1 -1,-2 -1,-3 0,-1 -1,-2 -1,-3 0,-1 1,-3 1,-4 1,0 1,-1 2,-2 1,-1 2,-1 3,-2 1,0 3,0 4,0 2,0 3,0 5,0 1,1 2,1 3,2l-1 3c-1,0 -2,-1 -3,-1 -2,0 -3,-1 -4,-1 -2,0 -3,1 -4,2 -1,0 -2,2 -2,3 0,1 1,1 1,2 0,1 0,1 1,2 0,0 1,1 2,1 1,0 2,1 3,1 1,1 2,1 3,2 1,0 2,1 3,2 0,0 1,1 1,2 1,1 1,2 1,3zm15 9l-4 0 0 -28 -9 0 0 -4 22 0 0 4 -9 0 0 28z"/>
   <path fill="white" fill-rule="nonzero" d="M4415 5353c2,0 3,0 4,0 1,1 1,1 2,2 1,0 1,1 2,2 0,1 1,2 1,3l0 0c0,-3 1,-5 3,-6 1,-2 3,-2 5,-2 2,0 3,0 4,0 2,1 3,2 4,3 1,1 1,2 2,4 0,1 1,3 1,5 0,2 -1,4 -1,5 0,2 -1,3 -1,4l-4 0c0,-1 1,-2 1,-4 1,-2 1,-3 1,-5 0,-1 0,-2 -1,-3 0,-2 0,-2 -1,-3 -1,-1 -1,-1 -2,-2 -1,0 -2,0 -3,0 -1,0 -2,0 -3,1 0,0 -1,1 -2,1 0,1 0,2 -1,3 0,1 0,3 0,4l0 3 -4 0 0 -3c0,-1 0,-2 0,-3 0,-1 -1,-2 -1,-3 -1,-1 -2,-1 -3,-1 0,-1 -1,-1 -2,-1 -1,0 -2,0 -2,0 -1,1 -2,1 -2,2 -1,0 -1,1 -1,2 0,0 0,1 0,2 0,2 0,3 0,4 1,2 2,3 2,4l-3 2c0,0 -1,-1 -1,-2 0,0 -1,-1 -1,-2 0,-1 -1,-2 -1,-3 0,-1 0,-2 0,-3 0,-2 0,-3 1,-5 0,-1 1,-2 1,-3 1,-1 2,-1 3,-2 1,0 2,0 3,0zm-8 -27l0 -5 35 12 0 4 -35 12 0 -5 22 -7c2,-1 3,-1 5,-1 1,-1 2,-1 3,-1 -1,0 -2,-1 -3,-1 -2,0 -3,-1 -5,-1l-22 -7zm8 -28c2,0 3,0 4,1 1,0 1,1 2,1 1,1 1,2 2,3 0,1 1,2 1,3l0 0c0,-3 1,-5 3,-7 1,-1 3,-2 5,-2 2,0 3,0 4,1 2,0 3,1 4,2 1,1 1,3 2,4 0,2 1,4 1,6 0,2 -1,3 -1,5 0,1 -1,3 -1,4l-4 0c0,-1 1,-3 1,-4 1,-2 1,-4 1,-5 0,-1 0,-3 -1,-4 0,-1 0,-2 -1,-2 -1,-1 -1,-2 -2,-2 -1,0 -2,0 -3,0 -1,0 -2,0 -3,0 0,1 -1,1 -2,2 0,1 0,2 -1,3 0,1 0,2 0,4l0 3 -4 0 0 -3c0,-2 0,-3 0,-4 0,-1 -1,-2 -1,-2 -1,-1 -2,-2 -3,-2 0,0 -1,0 -2,0 -1,0 -2,0 -2,0 -1,0 -2,1 -2,1 -1,1 -1,1 -1,2 0,1 0,2 0,3 0,1 0,3 0,4 1,1 2,3 2,4l-3 2c0,-1 -1,-1 -1,-2 0,-1 -1,-2 -1,-2 0,-1 -1,-2 -1,-3 0,-1 0,-2 0,-3 0,-2 0,-4 1,-5 0,-1 1,-2 1,-3 1,-1 2,-2 3,-2 1,-1 2,-1 3,-1z"/>
   <path fill="white" fill-rule="nonzero" d="M4428 5467l14 0 0 4 -35 0 0 -8c0,-5 1,-8 3,-10 1,-2 4,-3 7,-3 2,0 3,0 4,1 1,0 2,1 2,1 1,1 2,2 2,3 1,0 1,1 2,2l15 -9 0 5 -14 8 0 6zm-4 0l0 -4c0,-2 0,-3 0,-4 -1,-1 -1,-2 -2,-2 0,-1 -1,-1 -2,-2 -1,0 -2,0 -3,0 -1,0 -2,0 -2,0 -1,1 -2,1 -2,2 -1,1 -1,1 -2,2 0,1 0,3 0,4l0 4 13 0zm9 -43c1,0 3,0 4,1 1,1 2,1 3,2 1,1 1,3 2,4 0,1 1,3 1,5 0,2 -1,3 -1,5 0,1 -1,3 -1,4l-4 0c0,-1 0,-1 0,-2 1,-1 1,-2 1,-2 0,-1 0,-2 1,-3 0,0 0,-1 0,-2 0,-3 -1,-4 -2,-6 -1,-1 -2,-1 -4,-1 -1,0 -1,0 -2,0 -1,0 -1,1 -2,1 0,1 -1,1 -1,2 -1,1 -1,3 -2,4 0,1 -1,3 -2,4 0,1 -1,2 -2,2 -1,1 -2,1 -3,2 -1,0 -2,0 -3,0 -2,0 -3,0 -4,-1 -1,0 -2,-1 -3,-2 -1,-1 -1,-2 -2,-3 0,-1 0,-3 0,-4 0,-2 0,-4 0,-5 1,-2 1,-3 2,-4l3 1c0,1 0,2 -1,4 0,1 0,2 0,4 0,2 0,3 1,4 1,1 2,2 4,2 1,0 1,0 2,-1 1,0 1,0 2,-1 0,0 1,-1 1,-2 1,-1 1,-2 2,-3 0,-2 1,-3 2,-4 0,-1 1,-2 2,-3 0,0 1,-1 2,-1 1,-1 2,-1 4,-1zm9 -17l0 5 -31 0 0 9 -4 0 0 -24 4 0 0 10 31 0z"/>
   <path fill="white" fill-rule="nonzero" d="M4415 5559c1,0 2,0 2,1 1,0 2,1 3,1 0,1 1,1 1,2 0,1 1,2 1,3l0 0c0,-3 1,-4 2,-6 2,-1 3,-2 5,-2 1,0 3,1 4,1 1,0 2,1 3,2 0,1 1,2 1,3 1,2 1,3 1,5 0,2 0,3 0,5 -1,1 -1,2 -2,3l-3 0c1,-1 1,-2 1,-4 1,-1 1,-2 1,-4 0,-1 0,-2 -1,-3 0,-1 0,-2 -1,-2 0,-1 -1,-1 -2,-1 0,-1 -1,-1 -2,-1 -1,0 -2,0 -2,1 -1,0 -2,1 -2,1 0,1 -1,2 -1,3 0,1 0,2 0,3l0 3 -3 0 0 -3c0,-1 -1,-2 -1,-3 0,-1 0,-2 -1,-2 -1,-1 -1,-1 -2,-1 0,-1 -1,-1 -2,-1 -1,0 -1,0 -2,0 -1,1 -1,1 -1,2 -1,0 -1,0 -1,1 0,1 -1,1 -1,2 0,2 1,3 1,4 1,1 1,2 2,3l-3 2c0,0 -1,-1 -1,-2 0,0 -1,-1 -1,-2 0,0 0,-1 -1,-2 0,-1 0,-2 0,-3 0,-1 0,-3 1,-4 0,-1 1,-2 1,-2 1,-1 2,-2 3,-2 1,-1 2,-1 3,-1zm-7 -23l0 -4 30 10 0 4 -30 10 0 -4 19 -6c1,-1 2,-1 3,-1 1,-1 2,-1 4,-1 -2,0 -3,-1 -4,-1 -1,0 -2,-1 -3,-1l-19 -6zm7 -24c1,0 2,0 2,1 1,0 2,1 3,1 0,1 1,1 1,2 0,1 1,2 1,3l0 0c0,-3 1,-4 2,-6 2,-1 3,-2 5,-2 1,0 3,1 4,1 1,1 2,1 3,2 0,1 1,2 1,4 1,1 1,3 1,4 0,2 0,3 0,5 -1,1 -1,2 -2,3l-3 0c1,-1 1,-2 1,-4 1,-1 1,-2 1,-4 0,-1 0,-2 -1,-3 0,-1 0,-1 -1,-2 0,-1 -1,-1 -2,-1 0,-1 -1,-1 -2,-1 -1,0 -2,0 -2,1 -1,0 -2,1 -2,1 0,1 -1,2 -1,3 0,1 0,2 0,3l0 3 -3 0 0 -3c0,-1 -1,-2 -1,-3 0,-1 0,-2 -1,-2 -1,-1 -1,-1 -2,-1 0,-1 -1,-1 -2,-1 -1,0 -1,0 -2,0 -1,1 -1,1 -1,2 -1,0 -1,1 -1,1 0,1 -1,1 -1,2 0,2 1,3 1,4 1,1 1,2 2,3l-3 2c0,0 -1,-1 -1,-2 0,0 -1,-1 -1,-2 0,0 0,-1 -1,-2 0,-1 0,-2 0,-3 0,-1 0,-2 1,-4 0,-1 1,-2 1,-2 1,-1 2,-2 3,-2 1,0 2,-1 3,-1zm-9 -17l8 1 -3 -8 4 -1 1 8 7 -5 2 4 -8 3 8 4 -2 3 -7 -4 -1 7 -4 0 3 -8 -8 0 0 -4z"/>
   <path fill="white" fill-rule="nonzero" d="M4424 5674l0 -11 17 0c0,1 0,2 1,3 0,0 0,1 0,2 0,1 0,2 0,3 1,1 1,2 1,4 0,2 -1,4 -2,6 -1,2 -2,4 -3,5 -2,1 -4,2 -6,3 -2,1 -5,1 -7,1 -3,0 -6,0 -8,-1 -2,-1 -4,-2 -5,-3 -2,-2 -3,-4 -4,-6 -1,-2 -1,-4 -1,-7 0,-2 0,-3 0,-5 1,-2 1,-3 2,-5l4 2c-1,1 -1,1 -1,2 0,1 0,1 -1,2 0,1 0,1 0,2 0,1 0,2 0,2 0,2 0,4 1,6 0,1 1,2 2,3 2,1 3,2 5,3 2,0 4,0 6,0 2,0 4,0 5,0 2,-1 4,-1 5,-2 1,-1 2,-3 3,-4 0,-2 1,-3 1,-5 0,-1 0,-2 0,-2 0,-1 0,-1 -1,-2 0,0 0,-1 0,-1 0,-1 0,-1 0,-2l-10 0 0 7 -4 0zm18 -45l0 5 -29 17 0 0c2,0 3,0 4,0 1,-1 2,-1 3,-1 1,0 2,0 3,0l19 0 0 5 -35 0 0 -6 29 -16 0 0c-1,0 -2,0 -4,0 0,0 -1,0 -1,0 -1,0 -1,0 -2,0 0,0 -1,0 -1,0 -1,0 -1,0 -2,0l-19 0 0 -4 35 0zm-18 -35c3,0 6,0 8,1 2,1 4,2 6,3 1,2 2,3 3,5 1,3 1,5 1,8l0 8 -35 0 0 -9c0,-3 1,-5 1,-7 1,-2 2,-4 4,-5 1,-1 3,-2 5,-3 2,-1 5,-1 7,-1zm1 4c-3,0 -5,1 -6,1 -2,1 -4,1 -5,2 -1,1 -2,3 -2,4 -1,2 -1,3 -1,5l0 5 27 0 0 -4c0,-4 -1,-7 -3,-9 -2,-3 -6,-4 -10,-4z"/>
   <path fill="white" fill-rule="nonzero" d="M4424 5736c3,0 6,0 8,1 2,1 4,2 6,3 1,2 2,4 3,6 1,2 1,4 1,7l0 9 -35 0 0 -10c0,-3 1,-5 1,-7 1,-2 2,-3 4,-5 1,-1 3,-2 5,-3 2,-1 5,-1 7,-1zm1 5c-3,0 -5,0 -6,0 -2,1 -4,2 -5,3 -1,1 -2,2 -2,3 -1,2 -1,4 -1,5l0 5 27 0 0 -4c0,-4 -1,-7 -3,-9 -3,-2 -6,-3 -10,-3zm17 -15l-31 -13 0 18 -4 0 0 -22 4 0 31 13 0 4z"/>
   <path fill="white" fill-rule="nonzero" d="M4424 5836c3,0 6,0 8,1 2,1 4,2 6,4 1,1 2,3 3,5 1,2 1,4 1,7l0 9 -35 0 0 -10c0,-2 1,-5 1,-7 1,-2 2,-3 4,-5 1,-1 3,-2 5,-3 2,-1 5,-1 7,-1zm1 5c-3,0 -5,0 -6,1 -2,0 -4,1 -5,2 -1,1 -2,2 -2,3 -1,2 -1,4 -1,5l0 5 27 0 0 -4c0,-4 -1,-7 -3,-9 -2,-2 -6,-3 -10,-3zm2 -11c-1,0 -3,0 -5,0 -1,0 -3,0 -4,-1 -2,0 -3,-1 -5,-1 -1,-1 -2,-2 -3,-3 -1,-1 -2,-3 -2,-4 -1,-2 -1,-4 -1,-6 0,0 0,0 0,-1 0,0 0,0 0,-1 0,0 0,-1 0,-1 0,0 0,-1 0,-1l4 0c0,1 0,1 0,2 0,1 0,1 0,2 0,2 0,3 0,4 0,1 1,2 1,3 1,0 2,1 3,2 0,0 1,1 2,1 1,0 3,0 4,1 1,0 2,0 3,0l0 0c0,-1 -1,-1 -1,-1 -1,-1 -1,-1 -2,-2 0,-1 0,-1 0,-2 -1,-1 -1,-2 -1,-3 0,-1 1,-2 1,-4 1,-1 1,-2 2,-3 1,-1 2,-1 3,-2 2,0 3,0 5,0 2,0 3,0 5,0 1,1 2,1 3,2 1,1 2,2 3,4 0,1 1,2 1,4 0,2 -1,3 -1,5 -1,1 -2,2 -3,3 -1,1 -3,2 -5,3 -2,0 -4,0 -7,0zm12 -11c0,-1 0,-2 -1,-2 0,-1 0,-2 -1,-2 -1,-1 -2,-1 -3,-2 -1,0 -2,0 -3,0 -1,0 -2,0 -3,0 -1,0 -2,1 -2,1 -1,1 -1,1 -2,2 0,1 0,2 0,3 0,1 0,2 0,3 1,1 1,1 2,2 0,1 1,1 2,2 1,0 1,0 2,0 1,0 2,0 3,0 1,-1 2,-1 3,-2 1,0 2,-1 2,-2 1,-1 1,-2 1,-3z"/>
   <path fill="white" fill-rule="nonzero" d="M4424 5936c3,0 5,0 8,1 2,1 4,2 5,3 2,1 3,3 3,5 1,2 2,5 2,7l0 9 -35 0 0 -9c0,-3 0,-5 1,-7 1,-2 2,-4 3,-5 2,-1 3,-3 6,-3 2,-1 4,-1 7,-1zm0 4c-2,0 -4,1 -6,1 -2,1 -3,1 -4,2 -1,1 -2,3 -3,4 0,1 0,3 0,5l0 5 27 0 0 -4c0,-4 -1,-7 -4,-10 -2,-2 -5,-3 -10,-3zm-4 -20c0,-2 0,-3 1,-5 0,-1 1,-2 2,-3 1,-1 2,-2 3,-3 1,0 3,0 4,0 2,0 4,0 5,0 2,1 3,2 4,3 1,1 2,2 2,4 1,1 1,3 1,5 0,1 0,2 0,2 0,1 0,2 0,3 -1,0 -1,1 -1,2 0,0 -1,1 -1,2l-4 0c0,-1 1,-2 1,-2 0,-1 1,-2 1,-3 0,0 0,-1 0,-2 0,-1 0,-1 0,-2 0,-1 0,-2 0,-3 0,-1 -1,-2 -1,-3 -1,-1 -2,-1 -3,-1 -1,-1 -2,-1 -3,-1 -2,0 -4,1 -5,2 -1,1 -2,4 -2,6 0,1 0,1 0,2 0,0 0,1 0,1 0,1 0,1 0,1 0,1 1,1 1,2l-2 2 -16 -1 0 -17 4 0 0 13 10 1c0,-1 0,-1 -1,-2 0,-1 0,-2 0,-3z"/>
   <path fill="white" fill-rule="nonzero" d="M4425 6037c2,0 5,1 7,1 2,1 4,2 6,4 1,1 2,3 3,5 1,2 1,5 1,7l0 9 -34 0 0 -10c0,-2 0,-4 1,-6 0,-2 1,-4 3,-5 1,-2 3,-3 5,-4 2,0 5,-1 8,-1zm0 5c-3,0 -5,0 -6,1 -2,0 -3,1 -4,2 -2,1 -2,2 -3,4 0,1 -1,3 -1,5l0 4 27 0 0 -3c0,-5 -1,-8 -3,-10 -2,-2 -6,-3 -10,-3zm9 -33l0 5 8 0 0 4 -8 0 0 16 -3 0 -24 -16 0 -4 24 0 0 -5 3 0zm-3 9l-9 0c-1,0 -2,0 -3,0 -1,0 -2,0 -3,0 -1,0 -1,0 -2,0 -1,0 -2,0 -2,-1l0 1c0,0 0,0 1,0 0,0 1,0 1,1 0,0 1,0 1,0 1,0 1,1 1,1l15 10 0 -12z"/>
   <path fill="white" fill-rule="nonzero" d="M4424 6135c3,0 6,1 8,2 2,0 4,1 6,3 1,1 2,3 3,5 1,2 1,5 1,7l0 9 -35 0 0 -10c0,-2 1,-4 1,-6 1,-2 2,-4 4,-5 1,-2 3,-3 5,-3 2,-1 5,-2 7,-2zm1 5c-3,0 -5,0 -6,1 -2,0 -4,1 -5,2 -1,1 -2,2 -2,4 -1,1 -1,3 -1,5l0 5 27 0 0 -4c0,-4 -1,-8 -3,-10 -2,-2 -6,-3 -10,-3zm-9 -30c1,0 2,0 3,0 1,1 1,1 2,2 1,0 1,1 2,2 0,1 1,2 1,3l0 0c0,-3 1,-5 3,-6 1,-2 3,-2 5,-2 2,0 3,0 4,0 2,1 3,2 4,3 1,1 1,2 2,4 0,1 1,3 1,5 0,2 -1,4 -1,5 0,2 -1,3 -1,5l-4 0c0,-2 1,-3 1,-5 1,-2 1,-3 1,-5 0,-1 0,-2 -1,-3 0,-1 0,-2 -1,-3 -1,-1 -1,-1 -2,-2 -1,0 -2,0 -3,0 -1,0 -2,0 -3,1 0,0 -1,1 -2,1 0,1 0,2 -1,3 0,1 0,3 0,4l0 3 -4 0 0 -3c0,-1 0,-2 0,-3 0,-1 -1,-2 -1,-3 -1,-1 -2,-1 -3,-1 0,-1 -1,-1 -2,-1 -1,0 -2,0 -2,0 -1,1 -2,1 -2,2 -1,0 -1,1 -1,2 0,0 0,1 0,2 0,2 0,3 0,4 1,2 2,3 2,4l-3 2c0,0 -1,-1 -1,-2 0,0 -1,-1 -1,-2 0,-1 -1,-2 -1,-3 0,-1 0,-2 0,-3 0,-2 0,-3 1,-4 0,-2 1,-3 1,-4 1,-1 2,-1 3,-2 1,0 2,0 4,0z"/>
   <path fill="white" fill-rule="nonzero" d="M4425 6235c3,0 5,1 8,2 2,0 4,1 5,3 2,1 3,3 3,5 1,2 2,5 2,7l0 9 -35 0 0 -10c0,-2 0,-4 1,-6 1,-2 2,-4 3,-5 2,-2 3,-3 6,-3 2,-1 4,-2 7,-2zm0 5c-2,0 -4,0 -6,1 -2,0 -3,1 -4,2 -1,1 -2,2 -3,4 0,1 0,3 0,5l0 5 27 0 0 -4c0,-4 -1,-8 -4,-10 -2,-2 -5,-3 -10,-3zm18 -31l0 21 -4 0 -9 -8c-1,-1 -3,-2 -4,-3 -1,-1 -2,-2 -3,-3 -1,0 -2,-1 -3,-1 -1,0 -2,-1 -3,-1 -1,0 -2,0 -3,1 0,0 -1,0 -1,1 -1,0 -1,1 -2,2 0,0 0,1 0,2 0,1 0,3 1,4 1,1 1,2 2,3l-3 3c0,-1 -1,-1 -1,-2 -1,-1 -1,-2 -1,-3 -1,0 -1,-1 -1,-2 -1,-1 -1,-2 -1,-3 0,-2 1,-3 1,-4 0,-1 1,-3 2,-3 1,-1 2,-2 3,-2 1,-1 2,-1 4,-1 1,0 2,0 3,1 2,0 3,1 4,1 1,1 2,2 4,3 1,1 2,2 3,3l7 7 1 0 0 -16 4 0z"/>
   <path fill="white" fill-rule="nonzero" d="M4424 6328c3,0 6,1 8,2 2,0 4,1 6,3 1,1 2,3 3,5 1,2 1,5 1,7l0 9 -35 0 0 -10c0,-2 1,-4 1,-6 1,-2 2,-4 4,-5 1,-2 3,-3 5,-3 2,-1 5,-2 7,-2zm1 5c-3,0 -5,0 -6,1 -2,0 -4,1 -5,2 -1,1 -2,2 -2,4 -1,1 -1,3 -1,5l0 5 27 0 0 -4c0,-4 -1,-8 -3,-10 -3,-2 -6,-3 -10,-3zm17 -24l0 4 -22 0c0,0 -1,0 -2,0 -1,0 -1,0 -2,0 -1,0 -2,0 -2,0 -1,0 -2,0 -2,0 0,0 0,0 1,0 0,0 0,1 0,1 0,0 1,0 1,1 0,0 0,0 0,0l3 4 -3 2 -7 -9 0 -3 35 0z"/>
   <path fill="white" fill-rule="nonzero" d="M4424 6436c3,0 6,0 8,1 2,1 4,2 6,3 1,2 2,4 3,6 1,2 1,4 1,7l0 9 -35 0 0 -10c0,-2 1,-5 2,-7 0,-2 1,-3 3,-5 1,-1 3,-2 5,-3 2,-1 5,-1 7,-1zm1 5c-3,0 -5,0 -6,0 -2,1 -3,2 -5,3 -1,1 -1,2 -2,3 -1,2 -1,4 -1,5l0 5 27 0 0 -4c0,-4 -1,-7 -3,-9 -2,-2 -6,-3 -10,-3zm0 -32c3,0 5,0 7,0 2,1 4,1 6,2 1,1 3,2 3,4 1,1 2,3 2,5 0,2 -1,3 -2,5 0,1 -2,2 -3,3 -2,1 -4,2 -6,2 -2,1 -4,1 -7,1 -3,0 -6,0 -8,-1 -2,0 -4,-1 -5,-2 -2,-1 -3,-2 -4,-3 -1,-2 -1,-3 -1,-5 0,-2 0,-4 1,-5 1,-2 2,-3 4,-4 1,-1 3,-1 5,-2 2,0 5,0 8,0zm0 17c2,0 4,0 6,0 2,0 3,-1 4,-1 2,-1 2,-1 3,-2 1,-1 1,-2 1,-3 0,-2 0,-3 -1,-3 -1,-1 -1,-2 -3,-2 -1,-1 -2,-1 -4,-2 -2,0 -4,0 -6,0 -3,0 -5,0 -7,0 -1,1 -3,1 -4,2 -1,0 -2,1 -3,2 0,0 0,1 0,3 0,1 0,2 0,3 1,1 2,1 3,2 1,0 3,1 4,1 2,0 4,0 7,0z"/>
   <path fill="white" fill-rule="nonzero" d="M3862 6441l-11 3 0 13 11 4 0 5 -35 -13 0 -4 35 -13 0 5zm-15 5l-10 3c0,0 0,1 -1,1 0,0 -1,0 -1,0 -1,0 -1,0 -2,1 0,0 -1,0 -1,0 0,0 1,0 1,0 1,0 1,1 2,1 0,0 1,0 1,0 1,0 1,0 1,1l10 3 0 -10zm-2 -34c2,0 5,0 7,0 2,1 4,1 6,2 1,1 3,2 3,4 1,1 2,3 2,5 0,2 -1,3 -2,5 0,1 -2,2 -3,3 -2,1 -4,2 -6,2 -2,1 -5,1 -7,1 -3,0 -6,0 -8,-1 -2,0 -4,-1 -5,-2 -2,-1 -3,-2 -4,-3 -1,-2 -1,-3 -1,-5 0,-2 0,-4 1,-5 1,-1 2,-3 3,-4 2,0 4,-1 6,-2 2,0 5,0 8,0zm0 17c2,0 4,0 6,0 2,0 3,-1 4,-1 1,-1 2,-1 3,-2 1,-1 1,-2 1,-3 0,-1 0,-2 -1,-3 -1,-1 -2,-2 -3,-2 -1,-1 -2,-1 -4,-2 -2,0 -4,0 -6,0 -3,0 -5,0 -7,0 -1,1 -3,1 -4,2 -1,0 -2,1 -3,2 0,1 -1,2 -1,3 0,1 1,2 1,3 1,1 2,1 3,2 1,0 3,1 4,1 2,0 4,0 7,0z"/>
   <path fill="white" fill-rule="nonzero" d="M3862 6341l-11 3 0 13 11 4 0 5 -35 -13 0 -4 35 -13 0 5zm-15 5l-10 3c0,0 0,1 -1,1 0,0 -1,0 -1,0 -1,0 -1,0 -2,1 0,0 -1,0 -1,0 0,0 1,0 1,0 1,0 1,1 2,1 0,0 1,0 1,0 1,0 1,0 1,1l10 3 0 -10zm15 -27l0 4 -22 0c0,0 -1,0 -2,0 -1,0 -1,0 -2,0 -1,0 -2,0 -2,0 -1,0 -2,0 -2,0 0,1 0,1 1,1 0,0 0,0 0,1 0,0 1,0 1,0 0,1 0,1 0,1l3 4 -3 2 -7 -9 0 -4 35 0z"/>
   <path fill="white" fill-rule="nonzero" d="M3862 6241l-11 3 0 13 11 4 0 5 -35 -13 0 -4 35 -13 0 5zm-15 5l-10 3c0,0 0,1 -1,1 0,0 -1,0 -1,0 -1,0 -1,0 -2,1 0,0 -1,0 -1,0 0,0 1,0 1,0 1,0 1,1 2,1 0,0 1,0 1,0 1,0 1,0 1,1l10 3 0 -10zm15 -34l0 22 -4 0 -9 -8c-1,-2 -2,-3 -3,-4 -1,-1 -2,-1 -3,-2 -1,-1 -2,-1 -3,-1 -1,-1 -3,-1 -4,-1 -1,0 -1,0 -2,0 -1,1 -1,1 -2,2 0,0 -1,1 -1,1 0,1 0,2 0,3 0,1 0,2 0,4 1,1 2,2 3,3l-3 3c-1,-1 -1,-2 -2,-2 0,-1 -1,-2 -1,-3 0,-1 -1,-2 -1,-3 0,0 0,-1 0,-2 0,-2 0,-3 0,-5 1,-1 2,-2 2,-3 1,-1 2,-1 3,-2 1,0 3,0 4,0 1,0 3,0 4,0 1,1 2,1 4,2 1,1 2,2 3,3 1,1 3,2 4,3l7 7 0 0 0 -17 4 0z"/>
   <path fill="white" fill-rule="nonzero" d="M3862 6141l-11 3 0 13 11 4 0 5 -35 -13 0 -4 35 -13 0 5zm-15 5l-10 3c0,0 0,1 -1,1 0,0 -1,0 -1,0 -1,0 -1,0 -2,1 0,0 -1,0 -1,0 0,0 1,0 1,0 1,0 1,1 2,1 0,0 1,0 1,0 1,0 1,0 1,1l10 3 0 -10zm-12 -33c2,0 3,1 4,1 1,0 1,1 2,1 1,1 1,2 2,3 0,1 1,2 1,3l0 0c0,-3 1,-5 3,-7 1,-1 3,-2 5,-2 2,0 3,1 4,1 2,1 3,1 4,2 1,1 1,3 2,4 0,2 1,4 1,6 0,2 -1,3 -1,5 0,1 -1,3 -1,4l-4 0c0,-1 1,-3 1,-4 1,-2 1,-3 1,-5 0,-1 0,-3 -1,-4 0,-1 0,-2 -1,-2 -1,-1 -1,-1 -2,-2 -1,0 -2,0 -3,0 -1,0 -2,0 -3,0 0,1 -1,1 -2,2 0,1 0,2 -1,3 0,1 0,2 0,4l0 3 -4 0 0 -3c0,-2 0,-3 0,-4 0,-1 -1,-2 -2,-2 0,-1 -1,-1 -2,-2 0,0 -1,0 -2,0 -1,0 -2,0 -2,0 -1,0 -2,1 -2,1 -1,1 -1,2 -1,2 0,1 0,2 0,3 0,1 0,3 0,4 1,1 2,3 2,4l-3 2c0,-1 -1,-1 -1,-2 0,-1 -1,-1 -1,-2 0,-1 -1,-2 -1,-3 0,-1 0,-2 0,-3 0,-2 0,-3 0,-5 1,-1 2,-2 2,-3 1,-1 2,-2 3,-2 1,0 2,-1 3,-1z"/>
   <path fill="white" fill-rule="nonzero" d="M3862 6041l-11 3 0 13 11 4 0 5 -35 -13 0 -4 35 -13 0 5zm-15 5l-10 3c0,0 0,1 -1,1 0,0 -1,0 -1,0 -1,0 -1,0 -2,1 0,0 -1,0 -1,0 0,0 1,0 1,0 1,0 1,1 2,1 0,0 1,0 1,0 1,0 1,0 1,1l10 3 0 -10zm7 -36l0 5 8 0 0 5 -8 0 0 16 -4 0 -23 -16 0 -5 23 0 0 -5 4 0zm-4 10l-8 0c-1,0 -2,0 -3,0 -1,0 -2,0 -3,-1 -1,0 -2,0 -2,0 -1,0 -2,0 -2,0l0 0c0,1 0,1 1,1 0,0 0,0 1,0 0,1 1,1 1,1 0,0 1,0 1,1l14 9 0 -11z"/>
   <path fill="white" fill-rule="nonzero" d="M3862 5941l-11 3 0 13 11 4 0 5 -35 -13 0 -4 35 -13 0 5zm-15 5l-10 3c0,0 0,1 -1,1 0,0 -1,0 -1,0 -1,0 -1,0 -2,1 0,0 -1,0 -1,0 0,0 1,0 1,0 1,0 1,1 2,1 0,0 1,0 1,0 1,0 1,0 1,1l10 3 0 -10zm-6 -23c0,-1 0,-3 0,-4 1,-1 1,-3 2,-4 1,-1 2,-1 4,-2 1,-1 2,-1 4,-1 2,0 3,0 5,1 1,0 2,1 3,2 1,1 2,3 3,4 0,2 1,4 1,6 0,0 -1,1 -1,2 0,1 0,2 0,2 0,1 0,2 -1,2 0,1 0,2 0,2l-4 0c0,0 0,-1 1,-2 0,0 0,-1 0,-2 0,-1 1,-2 1,-2 0,-1 0,-2 0,-3 0,-1 0,-2 -1,-3 0,-1 0,-2 -1,-2 -1,-1 -1,-2 -2,-2 -1,0 -2,0 -4,0 -2,0 -4,0 -5,2 -1,1 -2,3 -2,6 0,0 0,1 0,1 1,1 1,1 1,2 0,0 0,1 0,1 0,0 0,1 0,1l-1 2 -17 -1 0 -16 4 0 0 12 10 1c0,0 0,-1 0,-2 0,-1 0,-2 0,-3z"/>
   <path fill="white" fill-rule="nonzero" d="M3862 5841l-11 3 0 13 11 4 0 5 -35 -13 0 -4 35 -13 0 5zm-15 5l-10 3c0,0 0,1 -1,1 0,0 -1,0 -1,0 -1,0 -1,0 -2,1 0,0 -1,0 -1,0 0,0 1,0 1,0 1,0 1,1 2,1 0,0 1,0 1,0 1,0 1,0 1,1l10 3 0 -10zm0 -13c-1,0 -3,0 -5,0 -1,0 -3,0 -4,-1 -2,0 -3,-1 -5,-1 -1,-1 -2,-2 -3,-3 -1,-1 -2,-3 -2,-4 -1,-2 -1,-4 -1,-6 0,0 0,0 0,-1 0,0 0,0 0,-1 0,0 0,-1 0,-1 0,0 0,0 0,-1l4 0c0,1 0,1 0,2 0,1 0,1 0,2 0,2 0,3 0,4 0,1 1,2 1,3 1,0 2,1 3,2 0,0 1,1 2,1 1,0 3,1 4,1 1,0 2,0 3,0l0 0c0,-1 -1,-1 -1,-1 -1,-1 -1,-1 -2,-2 0,-1 0,-1 0,-2 -1,-1 -1,-2 -1,-3 0,-1 1,-2 1,-4 0,-1 1,-2 2,-3 1,-1 2,-1 3,-2 2,0 3,0 5,0 2,0 3,0 5,0 1,1 2,2 3,2 1,1 2,3 3,4 0,1 1,3 1,4 0,2 -1,3 -1,5 -1,1 -2,2 -3,3 -1,1 -3,2 -5,3 -2,0 -4,0 -7,0zm12 -11c0,-1 0,-2 -1,-2 0,-1 0,-2 -1,-2 -1,-1 -2,-1 -3,-2 -1,0 -2,0 -3,0 -1,0 -2,0 -3,0 -1,0 -2,1 -2,1 -1,1 -1,2 -2,2 0,1 0,2 0,3 0,1 0,2 0,3 1,1 1,2 2,2 0,1 1,1 2,2 0,0 1,0 2,0 1,0 2,0 3,0 1,-1 2,-1 3,-2 1,0 2,-1 2,-2 1,-1 1,-2 1,-3z"/>
   <path fill="white" fill-rule="nonzero" d="M3862 5741l-11 3 0 13 11 4 0 5 -35 -13 0 -4 35 -13 0 5zm-15 5l-10 3c0,0 0,1 -1,1 0,0 -1,0 -1,0 -1,0 -1,0 -2,1 0,0 -1,0 -1,0 0,0 1,0 1,0 1,0 1,1 2,1 0,0 1,0 1,0 1,0 1,0 1,1l10 3 0 -10zm15 -16l-31 -14 0 18 -4 0 0 -22 4 0 31 13 0 5z"/>
   <path fill="white" fill-rule="nonzero" d="M3844 5471l0 -12 17 0c0,1 0,2 1,3 0,1 0,1 0,2 0,1 0,2 0,3 1,1 1,2 1,4 0,2 -1,4 -2,6 0,2 -2,4 -3,5 -2,1 -4,2 -6,3 -2,1 -5,1 -7,1 -3,0 -5,0 -8,-1 -2,-1 -4,-2 -5,-3 -2,-2 -3,-4 -4,-6 -1,-2 -1,-4 -1,-7 0,-2 0,-3 0,-5 1,-2 1,-3 2,-4l4 1c0,1 -1,1 -1,2 0,1 0,1 -1,2 0,1 0,2 0,2 0,1 0,2 0,3 0,1 0,3 1,5 0,1 1,2 3,3 1,1 2,2 4,3 2,0 4,0 6,0 2,0 4,0 5,0 2,-1 4,-1 5,-2 1,-1 2,-2 3,-4 0,-1 1,-3 1,-5 0,-1 0,-2 0,-2 0,-1 0,-1 -1,-2 0,0 0,-1 0,-1 0,-1 0,-1 0,-2l-10 0 0 8 -4 0zm18 -46l0 5 -29 17 0 0c2,0 3,0 4,0 1,0 2,0 3,-1 1,0 2,0 3,0l19 0 0 5 -35 0 0 -6 29 -16 0 0c-1,0 -2,0 -4,0 0,0 -1,0 -1,0 -1,0 -1,0 -2,0 0,0 -1,0 -1,0 -1,0 -1,0 -2,0l-19 0 0 -4 35 0zm-18 -35c3,0 6,0 8,1 2,1 4,2 6,3 1,2 2,3 3,6 1,2 1,4 1,7l0 8 -35 0 0 -9c0,-3 1,-5 1,-7 1,-2 2,-3 4,-5 1,-1 3,-2 5,-3 2,-1 5,-1 7,-1zm1 4c-3,0 -5,1 -6,1 -2,1 -3,2 -5,3 -1,1 -1,2 -2,3 -1,2 -1,3 -1,5l0 5 27 0 0 -4c0,-4 -1,-7 -3,-9 -2,-2 -6,-4 -10,-4z"/>
   <path fill="white" fill-rule="nonzero" d="M3827 5349l0 -5 35 12 0 4 -35 12 0 -5 22 -7c2,-1 3,-1 4,-1 2,-1 3,-1 4,-1 -1,0 -2,-1 -4,-1 -1,-1 -2,-1 -4,-1l-22 -7zm35 -20l0 13 -3 0 -1 -4 -27 0 -1 4 -3 0 0 -13 3 0 1 4 27 0 1 -4 3 0zm0 -32l0 5 -29 17 0 0c1,0 3,0 4,0 1,-1 2,-1 3,-1 1,0 2,0 3,0l19 0 0 5 -35 0 0 -6 29 -16 0 0c-1,0 -3,0 -4,0 0,0 -1,0 -1,0 -1,0 -1,0 -2,0 0,0 -1,0 -1,0 -1,0 -1,0 -2,0l-19 0 0 -4 35 0z"/>
   <path fill="white" fill-rule="nonzero" d="M3848 5657l14 0 0 5 -35 0 0 -9c0,-4 1,-7 3,-9 1,-2 4,-3 7,-3 2,0 3,0 4,1 1,0 2,0 2,1 1,1 2,1 2,2 1,1 1,2 1,3l16 -10 0 6 -14 8 0 5zm-4 0l0 -3c0,-2 0,-3 0,-4 -1,-1 -1,-2 -2,-3 0,0 -1,-1 -2,-1 -1,0 -2,0 -3,0 -1,0 -2,0 -3,0 0,0 -1,1 -1,2 -1,0 -1,1 -2,2 0,1 0,2 0,4l0 3 13 0zm18 -46l0 5 -15 9 15 8 0 5 -18 -11 -17 10 0 -5 14 -7 -14 -8 0 -5 17 10 18 -11z"/>
   <path fill="white" fill-rule="nonzero" d="M3862 5548l0 4 -31 0 0 10 -4 0 0 -24 4 0 0 10 31 0zm0 -37l0 5 -15 8 15 9 0 4 -18 -10 -17 10 0 -5 14 -8 -14 -8 0 -4 17 10 18 -11z"/>
  </g>
 </g>
</svg>
