<?xml version="1.0" encoding="UTF-8"?>
<!DOCTYPE svg PUBLIC "-//W3C//DTD SVG 1.1//EN" "http://www.w3.org/Graphics/SVG/1.1/DTD/svg11.dtd">
<!-- Creator: CorelDRAW X6 -->
<svg xmlns="http://www.w3.org/2000/svg" xml:space="preserve" width="0.799976in" height="1.48395in" version="1.1" shape-rendering="geometricPrecision" text-rendering="geometricPrecision" image-rendering="optimizeQuality" fill-rule="evenodd" clip-rule="evenodd"
viewBox="0 0 800 1484"
 xmlns:xlink="http://www.w3.org/1999/xlink">
 <g id="SPARKCORE">
  <metadata id="CorelCorpID_0Corel-Layer"/>
  <g id="PCB">
   <polygon fill="#404040" points="0,83 794,83 800,85 800,1383 700,1484 99,1484 0,1383 "/>
   <polygon fill="#CCCCCC" points="794,83 800,85 800,1383 700,1484 693,1484 794,1383 "/>
   <polygon fill="#B2B2B2" points="800,1383 700,1484 693,1484 794,1383 "/>
  </g>
  <g id="RGB_x0020_LED">
   <g>
    <rect fill="#CCCCCC" x="413" y="441" width="39.3583" height="35"/>
    <rect fill="#E5E5E5" x="448" y="441" width="3.9685" height="35"/>
   </g>
   <g>
    <rect fill="#CCCCCC" x="347" y="441" width="39.3583" height="35"/>
    <rect fill="#E5E5E5" x="382" y="441" width="3.9685" height="35"/>
   </g>
   <g>
    <rect fill="#CCCCCC" x="412" y="330" width="39.3583" height="35"/>
    <rect fill="#E5E5E5" x="448" y="330" width="3.9685" height="35"/>
   </g>
   <g>
    <rect fill="#CCCCCC" x="346" y="330" width="39.3583" height="35"/>
    <rect fill="#E5E5E5" x="381" y="330" width="3.9685" height="35"/>
   </g>
   <polygon fill="#E5E5E5" stroke="#999999" stroke-width="3" points="345,340 453,340 453,466 345,466 "/>
   <polygon fill="white" stroke="#999999" stroke-width="3" points="345,340 430,340 453,363 453,466 345,466 "/>
   <path fill="#999999" stroke="#666666" stroke-width="3" d="M399 359c24,0 44,20 44,44 0,24 -20,44 -44,44 -24,0 -44,-20 -44,-44 0,-24 20,-44 44,-44z"/>
   <path fill="#CCCCCC" d="M400 381c11,1 20,10 21,21l-21 0 0 -21z"/>
   <path fill="#1B5BB3" d="M398 381c-11,1 -20,10 -21,21l21 0 0 -21z"/>
   <path fill="#00A63D" d="M398 425c-11,-1 -20,-10 -21,-21l21 0 0 21z"/>
   <path fill="#CC1414" d="M400 425c11,-1 20,-10 21,-21l-21 0 0 21z"/>
   <path fill="none" stroke="#999999" stroke-width="3" d="M399 381c12,0 22,10 22,22 0,12 -10,22 -22,22 -12,0 -22,-10 -22,-22 0,-12 10,-22 22,-22z"/>
  </g>
  <g id="MISC_x0020_COMPS">
   <polygon fill="#CCCCCC" points="172,1266 235,1266 235,1301 172,1301 "/>
   <polygon fill="#CCCCCC" points="458,1266 522,1266 522,1301 458,1301 "/>
   <polygon fill="#CCCCCC" points="532,510 595,510 595,545 532,545 "/>
   <polygon fill="#CCCCCC" points="203,510 266,510 266,545 203,545 "/>
   <polygon fill="#CCCCCC" points="367,510 431,510 431,545 367,545 "/>
   <polygon fill="#CCCCCC" points="152,218 216,218 216,253 152,253 "/>
   <polygon fill="#CCCCCC" points="74,100 216,100 216,186 74,186 "/>
   <polygon fill="#CCCCCC" points="486,355 486,292 521,292 521,355 "/>
   <polygon fill="#CCCCCC" points="278,355 278,292 313,292 313,355 "/>
  </g>
  <g id="UFL">
   <path fill="white" stroke="#8C8C8C" stroke-width="3" d="M545 1236l79 0c4,0 8,3 8,8l0 78c0,4 -4,7 -8,7l-79 0c-4,0 -8,-3 -8,-7l0 -78c0,-5 4,-8 8,-8z"/>
   <path fill="white" stroke="#8C8C8C" stroke-width="3" d="M585 1256c15,0 27,12 27,27 0,15 -12,27 -27,27 -15,0 -28,-12 -28,-27 0,-15 13,-27 28,-27z"/>
   <path fill="#CC9933" d="M585 1276c4,0 7,3 7,7 0,4 -3,7 -7,7 -4,0 -7,-3 -7,-7 0,-4 3,-7 7,-7z"/>
  </g>
  <g id="ANT">
   <polygon fill="#CCCCCC" points="276,1424 521,1424 521,1462 276,1462 "/>
   <polygon fill="#999999" points="241,1424 276,1424 276,1462 241,1462 "/>
   <polygon fill="#999999" points="521,1424 556,1424 556,1462 521,1462 "/>
   <polygon fill="#CC9933" points="291,1424 305,1424 305,1462 291,1462 "/>
  </g>
  <g id="PINS">
   <g>
    <path fill="#B2B2B2" d="M750 398c19,0 34,15 34,35 0,19 -15,34 -34,34 -20,0 -35,-15 -35,-34 0,-20 15,-35 35,-35z"/>
    <path fill="#8C8C8C" d="M725 408c4,9 12,16 25,25 -13,10 -24,18 -25,24 -7,-7 -10,-15 -10,-24 0,-10 3,-18 10,-25z"/>
    <path fill="white" d="M750 426c3,0 6,3 6,7 0,3 -3,6 -6,6 -4,0 -7,-3 -7,-6 0,-4 3,-7 7,-7z"/>
   </g>
   <g>
    <path fill="#B2B2B2" d="M750 598c19,0 34,15 34,35 0,19 -15,34 -34,34 -20,0 -35,-15 -35,-34 0,-20 15,-35 35,-35z"/>
    <path fill="#8C8C8C" d="M725 608c4,9 12,16 25,25 -13,10 -24,18 -25,24 -7,-7 -10,-15 -10,-24 0,-10 3,-18 10,-25z"/>
    <path fill="white" d="M750 626c3,0 6,3 6,7 0,3 -3,6 -6,6 -4,0 -7,-3 -7,-6 0,-4 3,-7 7,-7z"/>
   </g>
   <g>
    <path fill="#B2B2B2" d="M750 698c19,0 34,15 34,35 0,19 -15,34 -34,34 -20,0 -35,-15 -35,-34 0,-20 15,-35 35,-35z"/>
    <path fill="#8C8C8C" d="M725 708c4,9 12,16 25,25 -13,10 -24,18 -25,24 -7,-7 -10,-15 -10,-24 0,-10 3,-18 10,-25z"/>
    <path fill="white" d="M750 726c3,0 6,3 6,7 0,3 -3,6 -6,6 -4,0 -7,-3 -7,-6 0,-4 3,-7 7,-7z"/>
   </g>
   <g>
    <path fill="#B2B2B2" d="M750 798c19,0 34,15 34,35 0,19 -15,34 -34,34 -20,0 -35,-15 -35,-34 0,-20 15,-35 35,-35z"/>
    <path fill="#8C8C8C" d="M725 808c4,9 12,16 25,25 -13,10 -24,18 -25,24 -7,-7 -10,-15 -10,-24 0,-10 3,-18 10,-25z"/>
    <path fill="white" d="M750 826c3,0 6,3 6,7 0,3 -3,6 -6,6 -4,0 -7,-3 -7,-6 0,-4 3,-7 7,-7z"/>
   </g>
   <g>
    <path fill="#B2B2B2" d="M750 898c19,0 34,15 34,35 0,19 -15,34 -34,34 -20,0 -35,-15 -35,-34 0,-20 15,-35 35,-35z"/>
    <path fill="#8C8C8C" d="M725 908c4,9 12,16 25,25 -13,10 -24,18 -25,24 -7,-7 -10,-15 -10,-24 0,-10 3,-18 10,-25z"/>
    <path fill="white" d="M750 926c3,0 6,3 6,7 0,3 -3,6 -6,6 -4,0 -7,-3 -7,-6 0,-4 3,-7 7,-7z"/>
   </g>
   <g>
    <path fill="#B2B2B2" d="M750 998c19,0 34,15 34,35 0,19 -15,34 -34,34 -20,0 -35,-15 -35,-34 0,-20 15,-35 35,-35z"/>
    <path fill="#8C8C8C" d="M725 1008c4,9 12,16 25,25 -13,10 -24,18 -25,24 -7,-7 -10,-15 -10,-24 0,-10 3,-18 10,-25z"/>
    <path fill="white" d="M750 1026c3,0 6,3 6,7 0,3 -3,6 -6,6 -4,0 -7,-3 -7,-6 0,-4 3,-7 7,-7z"/>
   </g>
   <g>
    <path fill="#B2B2B2" d="M750 1098c19,0 34,15 34,35 0,19 -15,34 -34,34 -20,0 -35,-15 -35,-34 0,-20 15,-35 35,-35z"/>
    <path fill="#8C8C8C" d="M725 1108c4,9 12,16 25,25 -13,10 -24,18 -25,24 -7,-7 -10,-15 -10,-24 0,-10 3,-18 10,-25z"/>
    <path fill="white" d="M750 1126c3,0 6,3 6,7 0,3 -3,6 -6,6 -4,0 -7,-3 -7,-6 0,-4 3,-7 7,-7z"/>
   </g>
   <g>
    <path fill="#B2B2B2" d="M750 1298c19,0 34,15 34,35 0,19 -15,34 -34,34 -20,0 -35,-15 -35,-34 0,-20 15,-35 35,-35z"/>
    <path fill="#8C8C8C" d="M725 1308c4,9 12,16 25,25 -13,10 -24,18 -25,24 -7,-7 -10,-15 -10,-24 0,-10 3,-18 10,-25z"/>
    <path fill="white" d="M750 1326c3,0 6,3 6,7 0,3 -3,6 -6,6 -4,0 -7,-3 -7,-6 0,-4 3,-7 7,-7z"/>
   </g>
   <g>
    <path fill="#B2B2B2" d="M750 1198c19,0 34,15 34,35 0,19 -15,34 -34,34 -20,0 -35,-15 -35,-34 0,-20 15,-35 35,-35z"/>
    <path fill="#8C8C8C" d="M725 1208c4,9 12,16 25,25 -13,10 -24,18 -25,24 -7,-7 -10,-15 -10,-24 0,-10 3,-18 10,-25z"/>
    <path fill="white" d="M750 1226c3,0 6,3 6,7 0,3 -3,6 -6,6 -4,0 -7,-3 -7,-6 0,-4 3,-7 7,-7z"/>
   </g>
   <g>
    <path fill="#B2B2B2" d="M750 498c19,0 34,15 34,35 0,19 -15,34 -34,34 -20,0 -35,-15 -35,-34 0,-20 15,-35 35,-35z"/>
    <path fill="#8C8C8C" d="M725 508c4,9 12,16 25,25 -13,10 -24,18 -25,24 -7,-7 -10,-15 -10,-24 0,-10 3,-18 10,-25z"/>
    <path fill="white" d="M750 526c3,0 6,3 6,7 0,3 -3,6 -6,6 -4,0 -7,-3 -7,-6 0,-4 3,-7 7,-7z"/>
   </g>
   <g>
    <path fill="#B2B2B2" d="M750 298c19,0 34,15 34,35 0,19 -15,34 -34,34 -20,0 -35,-15 -35,-34 0,-20 15,-35 35,-35z"/>
    <path fill="#8C8C8C" d="M725 308c4,9 12,16 25,25 -13,10 -24,18 -25,24 -7,-7 -10,-15 -10,-24 0,-10 3,-18 10,-25z"/>
    <path fill="white" d="M750 326c3,0 6,3 6,7 0,3 -3,6 -6,6 -4,0 -7,-3 -7,-6 0,-4 3,-7 7,-7z"/>
   </g>
   <g>
    <path fill="#B2B2B2" d="M750 198c19,0 34,15 34,35 0,19 -15,34 -34,34 -20,0 -35,-15 -35,-34 0,-20 15,-35 35,-35z"/>
    <path fill="#8C8C8C" d="M725 208c4,9 12,16 25,25 -13,10 -24,18 -25,24 -7,-7 -10,-15 -10,-24 0,-10 3,-18 10,-25z"/>
    <path fill="white" d="M750 226c3,0 6,3 6,7 0,3 -3,6 -6,6 -4,0 -7,-3 -7,-6 0,-4 3,-7 7,-7z"/>
   </g>
   <g>
    <path fill="#B2B2B2" d="M50 398c19,0 34,15 34,35 0,19 -15,34 -34,34 -20,0 -35,-15 -35,-34 0,-20 15,-35 35,-35z"/>
    <path fill="#8C8C8C" d="M25 408c4,9 12,16 25,25 -13,10 -24,18 -25,24 -7,-7 -10,-15 -10,-24 0,-10 3,-18 10,-25z"/>
    <path fill="white" d="M50 426c3,0 6,3 6,7 0,3 -3,6 -6,6 -4,0 -7,-3 -7,-6 0,-4 3,-7 7,-7z"/>
   </g>
   <g>
    <path fill="#B2B2B2" d="M50 598c19,0 34,15 34,35 0,19 -15,34 -34,34 -20,0 -35,-15 -35,-34 0,-20 15,-35 35,-35z"/>
    <path fill="#8C8C8C" d="M25 608c4,9 12,16 25,25 -13,10 -24,18 -25,24 -7,-7 -10,-15 -10,-24 0,-10 3,-18 10,-25z"/>
    <path fill="white" d="M50 626c3,0 6,3 6,7 0,3 -3,6 -6,6 -4,0 -7,-3 -7,-6 0,-4 3,-7 7,-7z"/>
   </g>
   <g>
    <path fill="#B2B2B2" d="M50 698c19,0 34,15 34,35 0,19 -15,34 -34,34 -20,0 -35,-15 -35,-34 0,-20 15,-35 35,-35z"/>
    <path fill="#8C8C8C" d="M25 708c4,9 12,16 25,25 -13,10 -24,18 -25,24 -7,-7 -10,-15 -10,-24 0,-10 3,-18 10,-25z"/>
    <path fill="white" d="M50 726c3,0 6,3 6,7 0,3 -3,6 -6,6 -4,0 -7,-3 -7,-6 0,-4 3,-7 7,-7z"/>
   </g>
   <g>
    <path fill="#B2B2B2" d="M50 798c19,0 34,15 34,35 0,19 -15,34 -34,34 -20,0 -35,-15 -35,-34 0,-20 15,-35 35,-35z"/>
    <path fill="#8C8C8C" d="M25 808c4,9 12,16 25,25 -13,10 -24,18 -25,24 -7,-7 -10,-15 -10,-24 0,-10 3,-18 10,-25z"/>
    <path fill="white" d="M50 826c3,0 6,3 6,7 0,3 -3,6 -6,6 -4,0 -7,-3 -7,-6 0,-4 3,-7 7,-7z"/>
   </g>
   <g>
    <path fill="#B2B2B2" d="M50 898c19,0 34,15 34,35 0,19 -15,34 -34,34 -20,0 -35,-15 -35,-34 0,-20 15,-35 35,-35z"/>
    <path fill="#8C8C8C" d="M25 908c4,9 12,16 25,25 -13,10 -24,18 -25,24 -7,-7 -10,-15 -10,-24 0,-10 3,-18 10,-25z"/>
    <path fill="white" d="M50 926c3,0 6,3 6,7 0,3 -3,6 -6,6 -4,0 -7,-3 -7,-6 0,-4 3,-7 7,-7z"/>
   </g>
   <g>
    <path fill="#B2B2B2" d="M50 998c19,0 34,15 34,35 0,19 -15,34 -34,34 -20,0 -35,-15 -35,-34 0,-20 15,-35 35,-35z"/>
    <path fill="#8C8C8C" d="M25 1008c4,9 12,16 25,25 -13,10 -24,18 -25,24 -7,-7 -10,-15 -10,-24 0,-10 3,-18 10,-25z"/>
    <path fill="white" d="M50 1026c3,0 6,3 6,7 0,3 -3,6 -6,6 -4,0 -7,-3 -7,-6 0,-4 3,-7 7,-7z"/>
   </g>
   <g>
    <path fill="#B2B2B2" d="M50 1098c19,0 34,15 34,35 0,19 -15,34 -34,34 -20,0 -35,-15 -35,-34 0,-20 15,-35 35,-35z"/>
    <path fill="#8C8C8C" d="M25 1108c4,9 12,16 25,25 -13,10 -24,18 -25,24 -7,-7 -10,-15 -10,-24 0,-10 3,-18 10,-25z"/>
    <path fill="white" d="M50 1126c3,0 6,3 6,7 0,3 -3,6 -6,6 -4,0 -7,-3 -7,-6 0,-4 3,-7 7,-7z"/>
   </g>
   <g>
    <path fill="#B2B2B2" d="M50 1298c19,0 34,15 34,35 0,19 -15,34 -34,34 -20,0 -35,-15 -35,-34 0,-20 15,-35 35,-35z"/>
    <path fill="#8C8C8C" d="M25 1308c4,9 12,16 25,25 -13,10 -24,18 -25,24 -7,-7 -10,-15 -10,-24 0,-10 3,-18 10,-25z"/>
    <path fill="white" d="M50 1326c3,0 6,3 6,7 0,3 -3,6 -6,6 -4,0 -7,-3 -7,-6 0,-4 3,-7 7,-7z"/>
   </g>
   <g>
    <path fill="#B2B2B2" d="M50 1198c19,0 34,15 34,35 0,19 -15,34 -34,34 -20,0 -35,-15 -35,-34 0,-20 15,-35 35,-35z"/>
    <path fill="#8C8C8C" d="M25 1208c4,9 12,16 25,25 -13,10 -24,18 -25,24 -7,-7 -10,-15 -10,-24 0,-10 3,-18 10,-25z"/>
    <path fill="white" d="M50 1226c3,0 6,3 6,7 0,3 -3,6 -6,6 -4,0 -7,-3 -7,-6 0,-4 3,-7 7,-7z"/>
   </g>
   <g>
    <path fill="#B2B2B2" d="M50 498c19,0 34,15 34,35 0,19 -15,34 -34,34 -20,0 -35,-15 -35,-34 0,-20 15,-35 35,-35z"/>
    <path fill="#8C8C8C" d="M25 508c4,9 12,16 25,25 -13,10 -24,18 -25,24 -7,-7 -10,-15 -10,-24 0,-10 3,-18 10,-25z"/>
    <path fill="white" d="M50 526c3,0 6,3 6,7 0,3 -3,6 -6,6 -4,0 -7,-3 -7,-6 0,-4 3,-7 7,-7z"/>
   </g>
   <g>
    <path fill="#B2B2B2" d="M50 298c19,0 34,15 34,35 0,19 -15,34 -34,34 -20,0 -35,-15 -35,-34 0,-20 15,-35 35,-35z"/>
    <path fill="#8C8C8C" d="M25 308c4,9 12,16 25,25 -13,10 -24,18 -25,24 -7,-7 -10,-15 -10,-24 0,-10 3,-18 10,-25z"/>
    <path fill="white" d="M50 326c3,0 6,3 6,7 0,3 -3,6 -6,6 -4,0 -7,-3 -7,-6 0,-4 3,-7 7,-7z"/>
   </g>
   <g>
    <path fill="#B2B2B2" d="M50 198c19,0 34,15 34,35 0,19 -15,34 -34,34 -20,0 -35,-15 -35,-34 0,-20 15,-35 35,-35z"/>
    <path fill="#8C8C8C" d="M25 208c4,9 12,16 25,25 -13,10 -24,18 -25,24 -7,-7 -10,-15 -10,-24 0,-10 3,-18 10,-25z"/>
    <path fill="white" d="M50 226c3,0 6,3 6,7 0,3 -3,6 -6,6 -4,0 -7,-3 -7,-6 0,-4 3,-7 7,-7z"/>
   </g>
  </g>
  <g id="CC3000">
   <polygon fill="#00A63D" points="134,563 666,563 666,1205 134,1205 "/>
   <polygon fill="#CC9933" points="142,571 658,571 658,832 650,832 650,1033 658,1033 658,1198 142,1198 "/>
   <polygon fill="#B2B2B2" points="150,581 650,581 650,1188 150,1188 "/>
   <path fill="#CCCCCC" d="M525 581l125 0 0 607 -379 0c221,-115 29,-455 254,-607z"/>
   <path fill="none" stroke="#E5E5E5" stroke-width="3" d="M535 1062c15,0 27,12 27,27 0,15 -12,27 -27,27 -15,0 -27,-12 -27,-27 0,-15 12,-27 27,-27z"/>
   <path fill="#E5E5E5" fill-rule="nonzero" d="M416 997c0,2 0,4 1,6 1,2 2,3 3,4 2,1 4,2 6,3 2,1 4,1 7,1 3,0 5,0 7,-1 2,0 4,-1 6,-2 1,-2 2,-3 3,-5 1,-1 1,-3 1,-6 0,-1 0,-3 -1,-5 0,-1 0,-3 -1,-4l5 0c0,1 1,1 1,2 0,1 0,2 0,2 0,1 1,2 1,3 0,1 0,2 0,3 0,3 -1,6 -2,8 -1,3 -2,5 -4,6 -2,2 -4,3 -7,4 -3,0 -6,1 -9,1 -3,0 -6,-1 -9,-2 -3,0 -5,-2 -7,-3 -2,-2 -3,-4 -4,-6 -1,-3 -2,-6 -2,-9 0,-2 0,-4 1,-6 0,-2 1,-3 2,-5l4 3c0,1 -1,2 -1,3 -1,2 -1,4 -1,5zm0 -34c0,2 0,4 1,5 1,2 2,3 3,5 2,1 4,2 6,2 2,1 4,1 7,1 3,0 5,0 7,0 2,-1 4,-2 6,-3 1,-1 2,-3 3,-4 1,-2 1,-4 1,-6 0,-2 0,-4 -1,-5 0,-2 0,-3 -1,-5l5 0c0,1 1,2 1,3 0,0 0,1 0,2 0,1 1,2 1,3 0,0 0,2 0,3 0,3 -1,6 -2,8 -1,2 -2,4 -4,6 -2,1 -4,2 -7,3 -3,1 -6,1 -9,1 -3,0 -6,0 -9,-1 -3,-1 -5,-2 -7,-4 -2,-1 -3,-4 -4,-6 -1,-2 -2,-5 -2,-8 0,-2 0,-4 1,-6 0,-2 1,-4 2,-5l4 2c0,1 -1,2 -1,4 -1,1 -1,3 -1,5zm6 -41c1,0 2,0 4,1 1,0 2,1 3,2 0,0 1,1 2,3 0,1 1,2 1,3l0 0c0,-3 2,-6 3,-8 2,-1 4,-2 7,-2 2,0 4,0 5,1 2,0 3,1 4,3 1,1 2,2 3,4 0,2 1,5 1,7 0,2 0,4 -1,6 0,2 -1,4 -2,6l-4 0c0,-2 1,-4 2,-6 0,-2 0,-4 0,-6 0,-1 0,-3 0,-4 -1,-1 -1,-3 -2,-3 -1,-1 -2,-2 -3,-2 -1,-1 -2,-1 -3,-1 -1,0 -2,0 -3,1 -1,0 -2,1 -3,2 0,1 -1,2 -1,4 0,1 0,3 0,4l0 4 -5 0 0 -4c0,-1 0,-3 -1,-4 0,-1 0,-2 -1,-3 -1,-1 -2,-1 -3,-2 -1,0 -2,-1 -3,-1 -1,0 -2,1 -3,1 0,0 -1,1 -2,1 0,1 -1,2 -1,3 0,1 0,2 0,3 0,2 0,4 1,5 0,2 1,3 2,5l-4 2c0,0 -1,-1 -1,-2 -1,-1 -1,-2 -2,-3 0,-1 0,-2 0,-3 -1,-2 -1,-3 -1,-4 0,-2 0,-4 1,-6 0,-1 1,-3 2,-4 1,-1 2,-2 3,-2 2,-1 3,-1 5,-1zm11 -35c3,0 6,1 9,1 3,1 5,1 7,2 2,2 3,3 4,5 1,1 2,3 2,6 0,2 -1,4 -2,6 -1,2 -2,3 -4,4 -2,1 -4,2 -7,3 -3,0 -6,0 -9,0 -4,0 -7,0 -9,0 -3,-1 -5,-2 -7,-3 -2,-1 -3,-2 -4,-4 -1,-2 -2,-4 -2,-6 0,-2 1,-4 2,-6 1,-2 2,-3 4,-4 2,-1 4,-2 7,-3 2,0 5,-1 9,-1zm0 22c3,0 5,0 7,0 3,-1 4,-1 6,-2 1,0 2,-1 3,-2 1,-1 1,-3 1,-4 0,-2 0,-3 -1,-4 -1,-1 -2,-2 -3,-2 -2,-1 -3,-2 -5,-2 -3,0 -5,0 -8,0 -3,0 -6,0 -8,0 -2,0 -4,1 -5,2 -2,0 -3,1 -3,2 -1,1 -1,2 -1,4 0,1 0,3 1,4 0,1 1,2 3,2 1,1 3,1 5,2 2,0 5,0 8,0zm0 -54c3,0 6,0 9,0 3,1 5,2 7,3 2,1 3,2 4,4 1,2 2,4 2,6 0,3 -1,5 -2,6 -1,2 -2,3 -4,4 -2,2 -4,2 -7,3 -3,0 -6,1 -9,1 -4,0 -7,-1 -9,-1 -3,-1 -5,-1 -7,-2 -2,-1 -3,-3 -4,-5 -1,-1 -2,-3 -2,-6 0,-2 1,-4 2,-6 1,-1 2,-3 4,-4 2,-1 4,-2 7,-3 2,0 5,0 9,0zm0 21c3,0 5,0 7,0 3,0 4,-1 6,-1 1,-1 2,-2 3,-3 1,-1 1,-2 1,-4 0,-1 0,-2 -1,-4 -1,-1 -2,-1 -3,-2 -2,-1 -3,-1 -5,-2 -3,0 -5,0 -8,0 -3,0 -6,0 -8,0 -2,1 -4,1 -5,2 -2,1 -3,1 -3,2 -1,2 -1,3 -1,4 0,2 0,3 1,4 0,1 1,2 3,3 1,0 3,1 5,1 2,0 5,0 8,0zm0 -54c3,0 6,0 9,1 3,0 5,1 7,2 2,1 3,3 4,4 1,2 2,4 2,7 0,2 -1,4 -2,6 -1,1 -2,3 -4,4 -2,1 -4,2 -7,2 -3,1 -6,1 -9,1 -4,0 -7,0 -9,-1 -3,0 -5,-1 -7,-2 -2,-1 -3,-3 -4,-4 -1,-2 -2,-4 -2,-6 0,-3 1,-5 2,-6 1,-2 2,-4 4,-5 2,-1 4,-2 7,-2 2,-1 5,-1 9,-1zm0 22c3,0 5,0 7,-1 3,0 4,-1 6,-1 1,-1 2,-2 3,-3 1,-1 1,-2 1,-3 0,-2 0,-3 -1,-4 -1,-1 -2,-2 -3,-3 -2,0 -3,-1 -5,-1 -3,-1 -5,-1 -8,-1 -3,0 -6,0 -8,1 -2,0 -4,1 -5,1 -2,1 -3,2 -3,3 -1,1 -1,2 -1,4 0,1 0,2 1,3 0,1 1,2 3,3 1,0 3,1 5,1 2,1 5,1 8,1zm21 -48l-37 12 0 1c1,-1 3,-1 4,-1 2,0 3,0 4,0 1,0 3,0 4,0l25 0 0 5 -42 0 0 -8 34 -12 0 0 -34 -12 0 -8 42 0 0 6 -26 0c-1,0 -2,0 -3,0 -1,0 -3,0 -4,-1 -1,0 -3,0 -4,0l0 1 37 12 0 5zm-21 -69c3,0 6,1 9,1 3,1 5,2 7,4 2,1 3,3 4,6 1,2 2,5 2,8 0,3 -1,5 -2,8 -1,2 -2,4 -4,5 -2,2 -5,3 -7,4 -3,1 -6,1 -9,1 -3,0 -6,0 -9,-1 -3,-1 -5,-2 -7,-4 -2,-1 -3,-3 -4,-5 -1,-3 -2,-5 -2,-9 0,-3 1,-5 2,-7 1,-3 2,-5 4,-6 2,-2 4,-3 7,-4 3,0 6,-1 9,-1zm0 31c3,0 5,0 7,-1 2,0 4,-1 5,-2 2,-1 3,-2 4,-4 1,-1 1,-3 1,-5 0,-3 0,-5 -1,-6 -1,-2 -2,-3 -4,-4 -1,-1 -3,-2 -5,-2 -2,-1 -4,-1 -7,-1 -3,0 -5,0 -7,1 -2,0 -4,1 -6,2 -1,1 -2,2 -3,4 -1,1 -1,3 -1,5 0,3 0,5 1,6 1,2 2,3 3,4 2,1 4,2 6,2 2,1 4,1 7,1zm0 -71c3,0 6,0 9,1 3,1 5,2 7,4 1,2 3,4 4,6 1,3 1,6 1,9l0 11 -42 0 0 -12c0,-3 0,-6 1,-8 1,-2 2,-5 4,-6 2,-2 4,-3 7,-4 2,-1 5,-1 9,-1zm0 5c-3,0 -6,1 -8,1 -2,1 -3,2 -5,3 -1,1 -2,3 -3,4 0,2 -1,4 -1,7l0 5 34 0 0 -4c0,-5 -2,-9 -5,-12 -3,-2 -7,-4 -12,-4z"/>
   <path fill="#E5E5E5" fill-rule="nonzero" d="M515 998l0 5 -26 0c-1,0 -2,0 -3,0 -1,0 -2,0 -3,0 -1,0 -1,0 -2,0 -1,0 -2,-1 -3,-1 1,1 1,1 1,1 1,1 1,1 1,1 0,0 1,1 1,1 0,0 0,1 1,1l3 4 -3 3 -9 -11 0 -4 42 0zm0 -42l0 27 -4 0 -11 -10c-2,-2 -3,-3 -4,-4 -2,-1 -3,-2 -4,-3 -1,-1 -3,-2 -4,-2 -1,0 -3,-1 -4,-1 -1,0 -2,1 -3,1 -1,0 -2,1 -2,1 -1,1 -1,2 -2,2 0,1 0,2 0,3 0,2 0,4 1,5 1,2 2,3 3,4l-4 3c0,0 -1,-1 -2,-2 0,-1 -1,-2 -1,-3 -1,-1 -1,-2 -1,-3 0,-1 -1,-3 -1,-4 0,-2 1,-3 1,-5 1,-1 1,-3 2,-4 1,-1 3,-2 4,-2 1,-1 3,-1 5,-1 1,0 3,0 4,1 2,0 3,1 5,2 1,1 3,2 4,3 2,1 3,3 5,4l8 8 1 0 0 -20 4 0zm-9 -35l0 6 9 0 0 6 -9 0 0 19 -5 0 -28 -19 0 -6 28 0 0 -6 5 0zm-5 12l-10 0c-1,0 -2,0 -4,0 -1,0 -2,-1 -3,-1 -1,0 -2,0 -3,0 -1,0 -2,0 -3,0l0 0c1,1 1,1 2,1 0,0 0,0 1,1 0,0 1,0 1,0 1,1 1,1 1,1l18 12 0 -14zm-29 -29c0,-2 1,-3 1,-5 0,-1 1,-3 2,-4 1,-1 2,-2 3,-2 1,-1 3,-1 5,-1 1,0 2,0 3,0 1,1 2,1 3,2 1,1 1,1 2,2 1,1 1,2 2,3 1,-1 1,-2 2,-3 1,-1 1,-2 2,-3 1,-1 2,-1 3,-2 2,0 3,-1 4,-1 2,0 4,1 5,1 2,1 3,2 4,3 1,1 2,3 2,4 1,2 1,4 1,6 0,2 0,4 -1,5 0,2 -1,3 -2,5 -1,1 -2,2 -4,2 -1,1 -3,1 -4,1 -2,0 -3,0 -4,-1 -2,0 -3,-1 -4,-1 0,-1 -1,-2 -2,-3 -1,-1 -1,-2 -2,-3 0,1 -1,2 -2,3 -1,0 -1,1 -2,2 -1,0 -2,1 -3,1 -1,1 -2,1 -4,1 -1,0 -3,-1 -4,-1 -1,-1 -2,-2 -3,-3 -1,-1 -2,-2 -2,-4 0,-1 -1,-3 -1,-4zm33 8c1,0 2,0 2,-1 1,0 2,0 3,-1 0,-1 1,-1 1,-2 0,-2 0,-3 0,-4 0,-1 0,-3 0,-4 0,-1 -1,-2 -1,-2 -1,-1 -2,-2 -3,-2 -1,0 -2,0 -3,0 -1,0 -2,0 -2,0 -1,1 -2,1 -3,2 0,0 -1,1 -2,2 0,1 -1,2 -1,4l-1 1c1,2 3,4 4,5 2,1 3,2 6,2zm-28 -8c0,2 0,4 1,5 1,1 3,2 5,2 1,0 2,-1 3,-1 0,0 1,-1 2,-1 0,-1 1,-2 1,-3 1,0 1,-1 2,-2 -1,-1 -1,-2 -2,-3 0,-1 -1,-1 -1,-2 -1,-1 -2,-1 -2,-2 -1,0 -2,0 -3,0 -2,0 -4,1 -5,2 -1,1 -1,3 -1,5zm17 -46c4,0 7,0 9,0 3,1 5,2 7,3 2,1 4,2 4,4 1,2 2,4 2,6 0,2 -1,4 -2,6 0,2 -2,3 -4,4 -2,1 -4,2 -7,3 -2,0 -5,1 -9,1 -3,0 -6,-1 -9,-1 -3,-1 -5,-1 -7,-2 -2,-2 -3,-3 -4,-5 -1,-1 -2,-3 -2,-6 0,-2 1,-4 2,-6 1,-2 2,-3 4,-4 2,-1 4,-2 7,-3 3,0 6,0 9,0zm0 21c3,0 6,0 8,0 2,0 4,-1 5,-2 2,0 3,-1 3,-2 1,-1 1,-2 1,-4 0,-1 0,-3 -1,-4 0,-1 -1,-2 -3,-2 -1,-1 -3,-1 -5,-2 -2,0 -5,0 -8,0 -3,0 -5,0 -7,0 -3,1 -4,1 -6,2 -1,0 -2,1 -3,2 -1,1 -1,3 -1,4 0,2 0,3 1,4 1,1 2,2 3,2 2,1 3,2 6,2 2,0 4,0 7,0zm12 -71l0 6 9 0 0 5 -9 0 0 20 -5 0 -28 -20 0 -5 28 0 0 -6 5 0zm-5 11l-10 0c-1,0 -2,0 -4,0 -1,0 -2,0 -3,0 -1,0 -2,0 -3,0 -1,0 -2,0 -3,0l0 0c1,0 1,0 2,0 0,1 0,1 1,1 0,0 1,1 1,1 1,0 1,0 1,1l18 12 0 -15zm-12 -28c0,-2 1,-4 1,-5 1,-2 2,-4 3,-5 1,-1 2,-2 3,-3 2,0 4,-1 6,-1 2,0 4,1 6,1 1,1 3,2 4,3 1,1 2,3 3,5 1,2 1,4 1,7 0,1 0,1 0,2 0,1 0,2 -1,3 0,1 0,2 0,3 -1,0 -1,1 -1,2l-5 0c0,-1 1,-2 1,-2 0,-1 1,-2 1,-3 0,-1 0,-2 0,-3 0,-1 0,-2 0,-3 0,-1 0,-3 0,-4 0,-1 -1,-2 -2,-3 0,-1 -1,-1 -3,-2 -1,0 -2,0 -4,0 -2,0 -4,0 -6,2 -1,2 -2,4 -2,8 0,0 0,1 0,1 0,1 0,2 0,2 0,1 0,1 0,2 0,0 1,1 1,1l-2 3 -20 -2 0 -20 5 0 0 16 12 1c0,-1 0,-2 0,-3 -1,-1 -1,-2 -1,-3z"/>
   <path id="TI_x0020_LOGO" fill="#E5E5E5" d="M363 956c-1,2 -1,4 -2,6 1,1 1,2 1,3 -3,0 -5,1 -8,2 -1,-1 -1,-1 -1,-1 1,-1 1,-1 2,-1 3,-5 9,-16 -1,-17 -4,3 -4,8 -5,12 -3,5 -4,6 -11,6 -7,-3 -6,-11 -4,-17 -1,-1 -1,-2 -1,-3 2,0 5,-1 8,-2 -1,1 -3,5 -4,7 -1,3 -1,13 5,8 4,-8 3,-20 15,-16 5,3 6,7 6,13zm-89 119c-2,0 -7,0 -8,-1 0,-3 0,-6 0,-9 2,0 5,1 8,1 0,0 0,0 0,0 0,3 0,6 0,9zm4 -12c-1,0 -1,0 0,-18l0 0 0 0 0 0 0 0 0 0 0 0 0 0 0 0 0 0 0 0 0 0 0 0 0 0 0 0 0 0 0 0 0 0 0 0 0 0 0 0 0 0 0 0 1 0 0 0 0 0 0 0 0 0 0 0 0 0 0 0 0 0 0 0 1 0 0 0 0 0 0 0 0 0 0 0 0 0 0 0 0 0 0 0 1 0 0 0 0 0 0 0 0 0 0 0 0 0 1 0 0 0 0 0 0 0 0 0 0 0 0 0 0 0 1 0 0 0 0 0 0 0 0 0 0 0 0 0 1 0 0 0 0 0 0 0 0 0 0 0 0 0 1 0 0 0 0 0 0 0 0 0 0 0 0 0 0 0 0 0 0 0 1 0 0 0 0 0 0 0 0 0 0 0 0 0 0 0 0 0 1 0 0 0 0 0 0 0 0 0 0 0 0 0 0 0 0 0 0 0 1 0 0 0 0 0 0 0 0 0 0 0 0 0 0 0 0 0 0 0 1 0 0 0 0 0 0 0 0 0 0 0 0 0 0 0 0 0 0 0 1 0 0 0 0 0 0 0 0 0 0 0 0 0 0 0 0 0 0 0 1 0 0 0 0 0c3,-1 6,-2 8,-5 7,0 13,0 19,0 3,13 11,26 25,27 3,0 6,-1 8,-1 6,17 -16,25 -28,32 -10,9 9,11 0,20 -4,2 -4,2 -12,6 -5,4 -8,9 -15,11 0,-9 0,-18 0,-27 -12,0 -24,0 -36,0 0,-7 0,-14 0,-22 6,0 12,0 18,0 0,-2 0,-4 0,-6 3,1 7,2 11,2 0,2 0,5 1,7 3,1 6,1 10,2 0,-2 0,-4 0,-6 8,1 16,3 24,3 2,-1 3,-2 4,-5 0,-5 0,-11 0,-16 -1,0 -1,0 -11,-2 0,2 0,4 -2,6 -5,-1 -10,-2 -15,-3 0,-2 0,-4 0,-7 -4,0 -7,-1 -10,-2 0,2 -1,4 -1,7 -4,-1 -7,-2 -11,-3zm0 -39c-1,0 -1,0 -1,-32 1,0 1,0 1,0 2,-1 5,-2 7,-2 0,1 0,1 -2,3 -1,2 -2,10 0,11 10,0 20,0 30,0 2,0 2,-1 3,-3 0,0 1,0 1,0 0,5 0,9 0,13 -2,0 -3,-2 -4,-3 -10,0 -20,0 -30,0 -3,4 -1,10 2,14 0,0 0,1 0,1 -3,-1 -5,-2 -7,-2zm9 -28c0,-23 0,-23 0,-23 2,-1 4,-1 6,-2 1,0 1,0 1,0 -1,2 -3,4 -3,7 0,3 0,5 0,8 0,0 0,0 0,1 3,0 6,0 8,0 0,-3 2,-10 -2,-11 0,-1 0,-1 0,-1 0,-1 0,-1 0,-1 3,0 6,0 8,0 0,0 0,0 0,1 0,1 -1,1 -2,3 0,3 0,6 0,9 3,0 10,1 10,-1 0,-3 0,-6 0,-8 0,-2 0,-3 -1,-5 -1,-1 -2,-2 -2,-4 2,1 4,2 6,3 1,8 1,16 1,24 0,0 -1,0 -1,0 -1,0 -1,-1 -1,-2 -7,-1 -17,0 -24,0 -2,0 -2,1 -3,2 0,0 -1,0 -1,0zm-9 67c0,-6 0,-12 0,-18 0,0 0,0 0,0m39 39c-13,-3 -26,-5 -39,-8 0,-3 0,-6 0,-9 13,3 26,5 38,8 1,0 1,0 1,0 0,9 0,9 0,9zm-30 -114c0,-5 0,-10 0,-15 0,0 1,0 1,0 1,2 1,2 1,3 3,-1 6,-3 9,-5 -2,-2 -8,-7 -10,-3 0,0 -1,0 -1,-1 0,-3 0,-6 0,-10 0,0 1,0 1,0 1,5 9,9 13,11 5,-2 9,-6 14,-10 0,-3 -24,-11 -28,-12 0,-2 0,-5 0,-7 0,0 0,0 27,-10 1,-1 1,-1 2,-3 0,0 1,0 1,0 0,4 0,8 0,12 0,0 -1,0 -1,0 -1,-3 -5,-1 -7,0 0,4 0,8 0,12 2,1 3,2 6,1 0,0 0,-1 1,-1 0,0 1,0 1,-1 0,7 0,14 0,21 -1,0 -2,-1 -2,-2 -2,0 -9,4 -10,6 3,2 9,8 11,3 0,0 1,0 1,0 0,4 0,7 0,11 0,0 -1,0 -1,0 -2,-5 -9,-9 -13,-12 -4,0 -14,7 -15,12 0,0 -1,0 -1,0zm18 -40c-1,1 -10,-3 -12,-4 0,-1 10,-4 12,-5 0,3 0,6 0,9zm13 -32c-1,2 -3,6 -1,7 0,1 0,1 0,1 -3,1 -6,2 -9,3 0,-2 3,-5 4,-7 1,-3 2,-5 1,-9 -6,-9 -9,3 -10,9 -5,10 -14,7 -16,-3 0,-4 1,-7 0,-11 3,0 5,-1 8,-2 0,2 -3,5 -4,7 -1,4 -1,12 5,9 3,-7 2,-16 10,-18 10,0 11,6 12,14zm5 117c0,0 0,0 0,-14 1,0 1,0 1,0 1,2 2,2 3,3 11,0 21,0 32,0 1,0 2,-1 2,-3 1,0 1,0 2,0 -1,5 -1,9 -1,14 0,0 0,0 -1,0 0,-2 -1,-3 -2,-4 -11,0 -21,0 -32,0 -2,1 -2,2 -3,4 0,0 0,0 -1,0zm10 -267c-1,0 -1,-24 0,-24 5,-1 6,-2 7,-2 0,0 0,1 1,1 -4,3 -5,5 -4,10 22,0 22,0 23,0 1,-2 1,-2 1,-3 1,0 1,0 2,0 0,4 0,8 0,13 -1,0 -1,0 -2,0 0,-2 0,-2 -1,-3 -8,0 -16,0 -24,0 0,5 0,6 5,9 0,1 0,1 0,1 -8,-2 -8,-2 -8,-2zm0 12c-1,0 -1,0 0,-9 0,0 0,0 1,0 0,2 1,2 3,2 9,1 17,1 26,1 0,0 0,0 -1,1 -7,6 -14,13 -21,19 17,0 17,0 19,0 0,-1 1,-2 2,-2 0,0 0,0 1,0 0,3 0,6 0,9 -1,1 -1,1 -1,1 -1,-2 -2,-3 -4,-3 -7,0 -14,0 -21,0 -2,0 -3,1 -3,3 -1,0 -1,0 -1,-1 -1,0 -1,-8 0,-8 5,-5 11,-10 16,-15 -4,0 -10,-1 -15,0 0,1 0,1 0,2 -1,0 -1,0 -1,0zm0 90c-1,-11 -1,-11 0,-11 18,-8 18,-8 18,-8 -6,-3 -12,-6 -18,-8 0,0 -1,0 -1,0 1,-11 1,-11 1,-11 1,1 1,2 3,3 8,0 15,0 23,0 1,-1 2,-2 2,-3 1,0 1,0 2,0 -1,4 -1,8 -1,12 0,0 0,0 -1,0 0,-1 0,-1 -1,-2 -1,0 -1,0 -2,-1 -6,1 -12,1 -18,1 8,3 15,6 23,10 0,0 0,0 0,1 -8,3 -15,6 -23,10 6,0 12,0 18,0 2,0 3,-1 3,-2 1,0 1,0 2,0 0,3 0,6 0,9 -1,0 -1,0 -2,0 0,-1 -1,-2 -2,-3 -8,0 -15,0 -23,0 -2,1 -2,2 -3,3zm0 12c-1,0 -1,-10 0,-10 1,0 1,1 1,2 7,2 15,1 22,1 9,4 9,20 1,25 -1,0 -2,0 -3,1 -6,0 -12,0 -18,0 -1,0 -2,1 -2,2 -1,0 -1,0 -1,0 -1,0 -1,-12 0,-12 1,1 2,2 3,3 6,0 12,0 17,0 8,-2 8,-13 0,-15 -5,0 -11,0 -16,0 -2,1 -2,1 -3,3 -1,0 -1,0 -1,0zm0 52c-1,0 -1,-18 0,-18 0,-6 4,-12 11,-9 3,2 3,2 4,4 0,2 0,2 1,2 1,-1 2,-2 2,-3 5,-3 8,-4 10,-9 1,0 1,0 1,0 3,10 -3,12 -11,16 -1,3 -1,4 -1,7 3,0 5,0 8,0 2,0 3,-1 3,-3 1,0 1,0 2,0 0,5 0,9 0,13 -1,0 -1,0 -2,0 0,0 0,-1 0,-1 0,-1 -1,-1 -2,-2 -8,0 -15,0 -23,0 -1,0 -1,1 -2,2 -1,1 -1,1 -1,1zm0 63c-1,0 -1,0 0,-9 0,0 0,0 1,0 0,2 1,2 3,3 8,0 17,0 26,0 0,0 0,1 -1,1 -7,7 -14,13 -21,19 17,1 17,1 19,0 0,-1 1,-1 2,-2 0,0 0,0 1,0 0,3 0,6 0,10 -1,0 -1,0 -1,0 -1,-2 -2,-2 -3,-3 -8,0 -15,0 -23,0 -1,1 -2,1 -2,3 -1,0 -1,0 -1,0 -1,0 -1,-9 0,-9 5,-5 11,-10 16,-15 -4,0 -8,0 -13,0 0,0 -1,0 -2,0 0,1 0,2 0,2 -1,0 -1,0 -1,0zm0 -168c0,1 0,1 0,-23 6,-2 6,-2 7,-2 -1,1 -2,2 -4,6 0,3 0,6 1,10 0,0 0,0 8,0 0,-3 0,-5 0,-8 0,-1 0,-2 -1,-3 -1,0 -1,0 -1,-1 0,-1 8,-1 8,0 0,1 -1,1 -2,2 0,1 0,1 0,10 3,0 6,0 9,0 2,-4 1,-9 0,-13 -1,-2 -2,-3 -3,-4 0,0 0,-1 0,-1 3,1 5,2 7,3 0,8 0,16 1,24 -1,0 -1,0 -2,0 0,-1 0,-1 -1,-2 -8,0 -18,-2 -26,0 0,1 0,2 -1,2zm26 123c-8,0 -15,0 -22,0 0,0 0,0 0,0 0,6 -1,6 3,10 0,0 1,0 1,1 -3,-1 -6,-2 -8,-3 0,-8 0,-15 0,-23 6,-2 7,-3 7,-3 1,0 1,1 1,1 -4,3 -5,5 -5,10 8,0 15,0 23,0 2,0 2,-1 2,-3 1,0 1,0 2,0 0,5 0,9 0,13 -1,0 -1,0 -1,0 -1,-2 -2,-2 -3,-3zm4 -222c-2,6 -2,6 -1,7 0,0 0,0 1,0 0,1 0,1 0,2 -9,2 -9,2 -10,2 0,0 0,-1 0,-1 4,-4 10,-14 3,-18 -11,0 -3,23 -19,17 -6,-4 -6,-10 -3,-16 -1,-1 -1,-1 -2,-1 1,0 1,-1 1,-2 2,0 5,-1 7,-1 0,0 1,0 1,0 -3,4 -8,13 -2,16 1,0 2,-1 2,-1 6,-9 2,-17 15,-17 6,2 6,7 7,13zm-16 194c-3,0 -6,0 -9,0 -5,0 0,-17 7,-9 1,3 1,6 2,9z"/>
  </g>
  <g id="USB_x0020_MICRO">
   <rect fill="#999999" transform="matrix(2.64845E-014 -1 1 2.64845E-014 401.851 137.959)" width="35.1732" height="78.1535"/>
   <path fill="#CBA580" d="M419 109l46 0c1,0 2,1 2,2l0 20c0,0 -1,1 -2,1l-49 0c-1,0 -2,-1 -2,-1l0 -5c0,0 -1,-1 -1,-1l-3 0c0,0 0,0 0,0 0,0 0,-1 0,-1l3 0c1,0 2,1 2,2l0 5c0,0 0,0 1,0l49 0c1,0 1,0 1,0l0 -20c0,-1 0,-1 -1,-1l-46 0c-1,0 -1,0 -1,1l0 18c0,0 0,1 1,1l43 0c1,0 1,-1 1,-1l0 -16c0,-1 0,-1 -1,-1l-40 0c-1,0 -1,0 -1,0l0 15c0,1 0,1 1,1l37 0c0,0 1,0 1,-1l0 -13c0,0 -1,-1 -1,-1l-34 0c-1,0 -1,1 -1,1l0 12c0,0 0,0 1,0l31 0c1,0 1,0 1,0l0 -11c0,-1 0,-1 1,-1 0,0 0,0 0,1l0 11c0,0 -1,1 -2,1l-31 0c-1,0 -2,-1 -2,-1l0 -12c0,-1 1,-1 2,-1l34 0c1,0 2,0 2,1l0 13c0,1 -1,2 -2,2l-37 0c-1,0 -2,-1 -2,-2l0 -15c0,-1 1,-1 2,-1l40 0c1,0 2,1 2,2l0 16c0,1 -1,2 -2,2l-43 0c-1,0 -2,-1 -2,-2l0 -18c0,-1 1,-2 2,-2z"/>
   <polygon fill="white" fill-opacity="0.200000" points="402,138 402,138 480,138 480,138 "/>
   <path fill="gainsboro" d="M472 137l0 1 8 0 0 -35 -8 0c-1,3 -2,7 -2,10 0,4 1,21 2,24z"/>
   <path fill="gainsboro" d="M412 113c0,-3 -1,-7 -2,-10l-8 0 0 35 8 0 0 -1c1,-3 2,-20 2,-24z"/>
   <polygon fill="white" fill-opacity="0.501961" points="472,138 472,138 480,138 480,138 "/>
   <polygon fill="white" fill-opacity="0.501961" points="402,138 402,138 410,138 410,138 "/>
   <line fill="none" x1="473" y1="103" x2="473" y2= "103" />
   <rect fill="#666666" transform="matrix(2.64845E-014 -1 1 2.64845E-014 442.846 263.955)" width="17.0394" height="13.6457"/>
   <rect fill="#999999" transform="matrix(2.64845E-014 -1 1 2.64845E-014 454.849 263.951)" width="15.122" height="1.24016"/>
   <rect fill="#666666" transform="matrix(2.64845E-014 -1 1 2.64845E-014 417.847 263.955)" width="17.0394" height="13.6457"/>
   <rect fill="#999999" transform="matrix(2.64845E-014 -1 1 2.64845E-014 429.85 263.951)" width="15.122" height="1.24016"/>
   <rect fill="#666666" transform="matrix(2.64845E-014 -1 1 2.64845E-014 391.847 263.955)" width="17.0394" height="13.6457"/>
   <rect fill="#999999" transform="matrix(2.64845E-014 -1 1 2.64845E-014 404.851 263.951)" width="15.122" height="1.22441"/>
   <rect fill="#666666" transform="matrix(2.64845E-014 -1 1 2.64845E-014 366.848 263.955)" width="17.0394" height="13.6457"/>
   <rect fill="#999999" transform="matrix(2.64845E-014 -1 1 2.64845E-014 378.848 263.951)" width="15.122" height="1.2126"/>
   <rect fill="#666666" transform="matrix(2.64845E-014 -1 1 2.64845E-014 340.849 263.955)" width="17.0394" height="13.6378"/>
   <rect fill="#999999" transform="matrix(2.64845E-014 -1 1 2.64845E-014 353.849 263.951)" width="15.122" height="1.2126"/>
   <polygon fill="#B3B3B3" points="269,17 529,17 529,251 269,251 "/>
   <rect fill="#CCCCCC" transform="matrix(2.64845E-014 -1 1 2.64845E-014 268.852 250.941)" width="1.79134" height="259.819"/>
   <rect fill="#333333" transform="matrix(2.64845E-014 -1 1 2.64845E-014 327.854 250.951)" width="215" height="142"/>
   <polygon fill="#B3B3B3" points="532,22 532,15 541,0 546,0 "/>
   <polygon fill="#CCCCCC" points="532,15 532,15 532,8 541,0 "/>
   <polygon fill="#B3B3B3" points="252,0 257,0 266,15 266,22 "/>
   <polygon fill="#CCCCCC" points="257,0 266,8 266,15 266,15 "/>
   <rect fill="#F2F2F2" transform="matrix(2.64845E-014 -1 1 2.64845E-014 337.849 30.9625)" width="8.93701" height="6.59055"/>
   <rect fill="#F2F2F2" transform="matrix(2.64845E-014 -1 1 2.64845E-014 366.852 30.9625)" width="8.93701" height="6.60236"/>
   <rect fill="#F2F2F2" transform="matrix(2.64845E-014 -1 1 2.64845E-014 395.847 30.9625)" width="8.93701" height="6.5748"/>
   <rect fill="#F2F2F2" transform="matrix(2.64845E-014 -1 1 2.64845E-014 423.846 30.9625)" width="8.93701" height="6.5748"/>
   <rect fill="#F2F2F2" transform="matrix(2.64845E-014 -1 1 2.64845E-014 452.845 30.9625)" width="8.93701" height="6.5748"/>
   <rect fill="gray" transform="matrix(2.64845E-014 -1 1 2.64845E-014 457.845 30.9625)" width="8.93701" height="1.32283"/>
   <rect fill="gray" transform="matrix(2.64845E-014 -1 1 2.64845E-014 429.846 30.9625)" width="8.93701" height="1.33858"/>
   <rect fill="gray" transform="matrix(2.64845E-014 -1 1 2.64845E-014 400.851 30.9625)" width="8.93701" height="1.35039"/>
   <rect fill="gray" transform="matrix(2.64845E-014 -1 1 2.64845E-014 371.852 30.9625)" width="8.93701" height="1.35039"/>
   <rect fill="gray" transform="matrix(2.64845E-014 -1 1 2.64845E-014 342.853 30.9625)" width="8.93701" height="1.35039"/>
   <path fill="#4D4D4D" d="M467 19l-7 0 0 6 -7 0 0 -6 -22 0 0 6 -7 0 0 -6 -22 0 0 6 -6 0 0 -6 -22 0 0 6 -7 0 0 -6 -22 0 0 6 -7 0 0 -6 -4 0 -4 0c-1,0 -2,1 -2,2l0 15c0,1 1,2 2,2l138 0c1,0 2,-1 2,-2l0 -15c0,-1 -1,-2 -2,-2l-1 0 0 0z"/>
   <path fill="#CCCCCC" d="M532 243l-3 8 -35 0c0,0 32,-1 33,-4 1,-2 -2,-4 -2,-4l7 0z"/>
   <path fill="#CCCCCC" d="M266 243l3 8 35 0c0,0 -32,-1 -33,-4 -1,-2 2,-4 2,-4l-7 0z"/>
   <path fill="#E6E6E6" d="M313 251l0 -22 22 0 0 22 6 0 0 -8 116 0 0 8 7 0 0 -22 22 0 0 22 46 0 0 -234 -266 0 0 234 47 0 0 0zm151 -191l0 -11 22 0 0 12c6,4 10,10 10,18 0,8 -3,15 -10,19l0 0 0 62 -22 0 0 -62c-7,-4 -11,-11 -11,-19 0,-8 4,-15 11,-19zm-150 0l0 -11 22 0 0 12c6,4 9,10 9,18 0,8 -2,15 -9,19l0 0 0 62 -22 0 0 -62c-7,-4 -12,-11 -12,-19 0,-8 5,-15 12,-19z"/>
   <polygon fill="#F2F2F2" points="526,17 532,17 532,243 511,243 "/>
   <polygon fill="#999999" points="266,17 274,168 282,243 266,243 "/>
   <rect fill="#CCCCCC" transform="matrix(2.64845E-014 -1 1 2.64845E-014 463.849 159.944)" width="1.80709" height="21.9646"/>
   <rect fill="#CCCCCC" transform="matrix(2.64845E-014 -1 1 2.64845E-014 313.85 159.944)" width="1.80709" height="21.937"/>
   <rect fill="#B3B3B3" transform="matrix(2.64845E-014 -1 1 2.64845E-014 278.855 27.9587)" width="9.09843" height="239.705"/>
   <rect fill="#CCCCCC" transform="matrix(2.64845E-014 -1 1 2.64845E-014 278.855 20.959)" width="4.31496" height="239.705"/>
  </g>
  <g id="SPARK_x0020_LOGO">
   <polygon fill="#CC9933" points="779,163 760,133 778,105 750,123 721,105 739,133 722,161 750,143 "/>
   <polygon fill="#CC9933" points="754,152 750,149 745,152 750,173 "/>
   <polygon fill="#CC9933" points="734,133 731,137 710,133 731,128 "/>
   <polygon fill="#CC9933" points="769,138 766,133 769,128 790,133 "/>
   <polygon fill="#CC9933" points="755,114 750,93 745,114 750,117 "/>
   <polygon fill="#E6AB00" points="779,163 760,133 778,105 778,105 759,133 "/>
   <polygon fill="#E6AB00" points="754,152 750,149 753,152 750,173 "/>
   <polygon fill="#E6AB00" points="731,137 733,133 731,128 734,133 "/>
   <polygon fill="#E6AB00" points="769,138 787,133 769,128 790,133 "/>
   <polygon fill="#E6AB00" points="755,114 750,93 754,114 750,117 "/>
   <polygon fill="#E6AB00" points="750,123 721,105 750,124 "/>
   <polygon fill="#E6AB00" points="750,142 722,161 750,143 "/>
  </g>
  <g id="BLUE_x0020_LED">
   <rect fill="#CCCCCC" x="606" y="103" width="63.2559" height="35"/>
   <rect fill="#E5E5E5" x="618" y="106" width="39.0433" height="28.7008"/>
   <rect fill="#1B5BB3" x="630" y="115" width="15.0236" height="11.0433"/>
  </g>
  <g id="BUTTON">
   <rect fill="#CCCCCC" x="557" y="414" width="22.5157" height="35"/>
   <rect fill="#E5E5E5" x="578" y="414" width="2.26772" height="35"/>
   <rect fill="#CCCCCC" x="619" y="414" width="22.5157" height="35"/>
   <rect fill="#E5E5E5" x="639" y="414" width="2.26772" height="35"/>
   <rect fill="#CCCCCC" x="619" y="288" width="22.5157" height="35"/>
   <rect fill="#E5E5E5" x="639" y="288" width="2.26772" height="35"/>
   <rect fill="#CCCCCC" x="557" y="288" width="22.5157" height="35"/>
   <rect fill="#E5E5E5" x="578" y="288" width="2.26772" height="35"/>
   <polygon fill="#999999" points="541,298 659,298 659,439 541,439 "/>
   <polygon fill="#B2B2B2" points="656,298 659,298 659,439 656,439 "/>
   <polygon fill="#8C8C8C" points="541,298 544,298 544,439 541,439 "/>
   <path fill="black" d="M600 334c19,0 35,15 35,34 0,19 -16,35 -35,35 -19,0 -35,-16 -35,-35 0,-19 16,-34 35,-34z"/>
   <g>
    <path fill="#404040" d="M598 337c18,0 32,14 32,31 0,18 -14,32 -32,32 -17,0 -31,-14 -31,-32 0,-17 14,-31 31,-31z"/>
    <path fill="#999999" d="M598 337c18,0 32,14 32,31 0,18 -14,32 -32,32 41,-6 41,-58 0,-63l0 0z"/>
   </g>
  </g>
  <g id="BUTTON_0">
   <rect fill="#CCCCCC" x="157" y="414" width="22.5157" height="35"/>
   <rect fill="#E5E5E5" x="178" y="414" width="2.26772" height="35"/>
   <rect fill="#CCCCCC" x="219" y="414" width="22.5157" height="35"/>
   <rect fill="#E5E5E5" x="239" y="414" width="2.26772" height="35"/>
   <rect fill="#CCCCCC" x="219" y="288" width="22.5157" height="35"/>
   <rect fill="#E5E5E5" x="239" y="288" width="2.26772" height="35"/>
   <rect fill="#CCCCCC" x="157" y="288" width="22.5157" height="35"/>
   <rect fill="#E5E5E5" x="178" y="288" width="2.26772" height="35"/>
   <polygon fill="#999999" points="141,298 259,298 259,439 141,439 "/>
   <polygon fill="#B2B2B2" points="256,298 259,298 259,439 256,439 "/>
   <polygon fill="#8C8C8C" points="141,298 144,298 144,439 141,439 "/>
   <path fill="black" d="M200 334c19,0 35,15 35,34 0,19 -16,35 -35,35 -19,0 -35,-16 -35,-35 0,-19 16,-34 35,-34z"/>
   <g>
    <path fill="#404040" d="M198 337c18,0 32,14 32,31 0,18 -14,32 -32,32 -17,0 -31,-14 -31,-32 0,-17 14,-31 31,-31z"/>
    <path fill="#999999" d="M198 337c18,0 32,14 32,31 0,18 -14,32 -32,32 41,-6 41,-58 0,-63l0 0z"/>
   </g>
  </g>
  <g id="TEXT">
   <path fill="white" fill-rule="nonzero" d="M232 1386c0,2 -1,4 -1,5 -1,1 -2,3 -3,4 -1,1 -2,1 -4,2 -2,0 -4,1 -6,1 -2,0 -4,-1 -5,-1 -2,0 -4,-1 -5,-1l0 -5c1,0 2,0 2,1 1,0 2,0 3,0 1,1 2,1 3,1 0,0 1,0 2,0 3,0 5,0 7,-1 1,-2 2,-3 2,-5 0,-1 0,-2 -1,-3 0,0 0,-1 -1,-2 -1,0 -2,-1 -3,-1 -1,-1 -2,-2 -4,-2 -1,-1 -3,-2 -4,-2 -1,-1 -2,-2 -3,-3 -1,-1 -1,-2 -2,-3 0,-1 0,-3 0,-4 0,-2 0,-3 1,-4 0,-2 1,-3 2,-4 1,0 2,-1 4,-2 1,0 3,0 5,0 2,0 4,0 5,0 2,1 4,1 5,2l-2 4c-1,0 -2,-1 -4,-1 -1,-1 -3,-1 -4,-1 -2,0 -4,1 -5,2 -2,1 -2,2 -2,4 0,1 0,2 0,3 1,0 1,1 2,2 0,0 1,1 2,1 1,1 2,1 4,2 2,1 3,1 4,2 1,1 2,1 3,2 1,1 2,2 2,3 1,1 1,3 1,4zm20 12c-1,0 -2,-1 -2,-1 -1,0 -2,0 -3,-1 0,0 -1,-1 -2,-1 0,-1 -1,-1 -1,-2l0 0c0,1 0,1 0,2 0,0 0,1 0,1 0,1 0,1 0,2l0 12 -5 0 0 -43 4 0 1 4 0 0c0,0 1,-1 1,-2 1,0 2,-1 2,-1 1,0 2,-1 3,-1 0,0 1,0 2,0 2,0 4,0 5,1 2,0 3,1 4,3 1,1 1,2 2,4 1,2 1,5 1,7 0,3 0,5 -1,7 -1,2 -1,3 -2,5 -1,1 -2,2 -4,3 -1,0 -3,1 -5,1zm0 -27c-2,0 -3,0 -4,0 -1,1 -2,1 -2,2 -1,1 -1,2 -2,3 0,2 0,3 0,5l0 1c0,2 0,3 0,5 1,1 1,3 2,3 0,1 1,2 2,3 1,0 2,0 4,0 2,0 4,-1 5,-3 1,-1 2,-4 2,-8 0,-4 -1,-7 -2,-8 -1,-2 -3,-3 -5,-3zm36 26l-1 -4 0 0c0,1 -1,1 -2,2 0,1 -1,1 -2,1 0,1 -1,1 -2,1 -1,0 -2,1 -3,1 -1,0 -2,-1 -3,-1 -1,0 -2,-1 -3,-2 -1,0 -2,-1 -2,-2 0,-2 -1,-3 -1,-4 0,-3 1,-6 4,-7 2,-2 5,-3 9,-3l5 0 0 -2c0,-1 0,-2 0,-3 -1,-1 -1,-1 -2,-2 0,0 -1,-1 -1,-1 -1,0 -2,0 -3,0 -1,0 -3,0 -4,0 -1,1 -3,1 -4,2l-1 -4c1,0 2,-1 4,-2 2,0 3,0 5,0 2,0 4,0 5,0 1,1 2,1 3,2 1,1 2,2 2,3 1,1 1,3 1,5l0 20 -4 0zm-9 -4c1,0 2,0 3,0 1,0 2,-1 3,-2 0,0 1,-1 1,-2 1,-1 1,-3 1,-4l0 -3 -4 1c-2,0 -3,0 -4,0 -1,0 -2,1 -3,1 0,1 -1,1 -1,2 0,1 0,2 0,3 0,1 0,3 1,3 1,1 2,1 3,1zm35 -26c0,0 1,0 2,0 0,0 1,0 1,0l0 4c-1,0 -1,0 -2,0 0,0 -1,0 -1,0 -1,0 -2,0 -3,1 -1,0 -2,1 -3,2 -1,1 -1,2 -1,3 -1,1 -1,2 -1,4l0 16 -5 0 0 -30 4 0 1 6 0 0c0,-1 1,-2 1,-3 1,0 1,-1 2,-2 1,0 1,-1 2,-1 1,0 2,0 3,0zm14 15l3 -5 8 -10 6 0 -11 13 12 17 -6 0 -9 -14 -3 3 0 11 -5 0 0 -42 5 0 0 19 0 8 0 0zm54 -21c-2,0 -4,1 -5,1 -2,1 -3,2 -4,3 -1,2 -2,4 -3,5 0,2 -1,5 -1,7 0,3 1,5 1,7 1,2 1,4 2,5 2,1 3,2 4,3 2,1 4,1 6,1 2,0 3,0 5,0 1,-1 2,-1 4,-1l0 4c-1,0 -2,0 -2,1 -1,0 -2,0 -2,0 -1,0 -2,0 -3,0 -1,1 -2,1 -3,1 -3,0 -5,-1 -8,-2 -2,-1 -3,-2 -5,-4 -1,-2 -2,-4 -3,-7 -1,-2 -1,-5 -1,-8 0,-3 0,-6 1,-8 1,-3 2,-5 4,-7 1,-1 3,-3 5,-4 2,-1 5,-1 8,-1 2,0 4,0 6,0 1,1 3,1 4,2l-2 4c-1,0 -2,-1 -3,-1 -2,-1 -3,-1 -5,-1zm41 21c0,3 0,5 -1,7 -1,2 -1,3 -3,5 -1,1 -2,2 -4,3 -1,0 -3,1 -5,1 -2,0 -4,-1 -5,-1 -2,-1 -3,-2 -4,-3 -1,-2 -2,-3 -3,-5 -1,-2 -1,-4 -1,-7 0,-2 0,-5 1,-7 1,-1 1,-3 3,-4 1,-2 2,-3 4,-3 1,-1 3,-1 5,-1 2,0 4,0 5,1 2,0 3,1 4,3 2,1 2,3 3,4 1,2 1,5 1,7zm-21 0c0,4 1,7 2,9 1,1 3,2 6,2 3,0 5,-1 6,-2 1,-2 2,-5 2,-9 0,-4 -1,-7 -2,-8 -1,-2 -3,-3 -6,-3 -3,0 -5,1 -6,3 -1,1 -2,4 -2,8zm42 -15c0,0 1,0 1,0 1,0 2,0 2,0l-1 4c0,0 -1,0 -1,0 -1,0 -1,0 -2,0 -1,0 -2,0 -3,1 -1,0 -1,1 -2,2 -1,1 -1,2 -2,3 0,1 0,2 0,4l0 16 -5 0 0 -30 4 0 0 6 1 0c0,-1 1,-2 1,-3 1,0 1,-1 2,-2 0,0 1,-1 2,-1 1,0 2,0 3,0zm21 31c-2,0 -4,-1 -6,-1 -1,-1 -3,-2 -4,-3 -1,-2 -2,-3 -3,-5 0,-2 -1,-4 -1,-7 0,-2 1,-4 1,-6 1,-2 2,-4 3,-5 1,-2 2,-3 4,-3 1,-1 3,-1 5,-1 1,0 3,0 4,1 2,0 3,1 4,2 1,2 2,3 2,5 1,1 1,3 1,5l0 3 -19 0c0,4 1,6 3,8 1,1 3,2 6,2 1,0 2,0 2,0 1,0 2,0 3,0 0,0 1,-1 2,-1 0,0 1,-1 2,-1l0 5c-1,0 -2,0 -2,0 -1,1 -2,1 -2,1 -1,0 -2,0 -3,0 0,0 -1,1 -2,1zm-1 -27c-2,0 -4,0 -5,2 -2,1 -2,3 -2,6l13 0c0,-1 0,-2 0,-3 -1,-1 -1,-2 -1,-3 -1,-1 -2,-1 -2,-2 -1,0 -2,0 -3,0zm39 26l-11 -30 5 0 6 17c0,0 0,1 1,2 0,1 0,2 0,3 1,1 1,2 1,3 0,1 1,1 1,2l0 0c0,-1 0,-1 0,-2 0,-1 1,-2 1,-3 0,-1 1,-2 1,-3 0,-1 0,-2 1,-2l5 -17 5 0 -10 30 -6 0zm35 0l-4 0 0 -25c0,-1 0,-1 0,-2 0,-1 0,-2 0,-3 0,-1 0,-2 0,-2 0,-1 0,-2 0,-3 -1,1 -1,1 -1,1 0,0 -1,1 -1,1 0,0 0,0 -1,1 0,0 0,0 -1,0l-4 4 -2 -4 10 -8 4 0 0 40zm16 -3c0,-1 0,-1 0,-2 0,0 0,-1 1,-1 0,0 0,0 1,-1 0,0 1,0 1,0 1,0 1,0 1,0 1,1 1,1 2,1 0,0 0,1 0,1 0,1 1,1 1,2 0,1 -1,1 -1,2 0,0 0,1 0,1 -1,0 -1,0 -2,1 0,0 0,0 -1,0 0,0 -1,0 -1,0 -1,-1 -1,-1 -1,-1 -1,0 -1,-1 -1,-1 0,-1 0,-1 0,-2zm39 -17c0,3 -1,6 -1,9 -1,2 -1,4 -2,6 -1,2 -3,3 -4,4 -2,1 -4,2 -6,2 -2,0 -4,-1 -6,-2 -1,-1 -3,-2 -4,-4 -1,-2 -2,-4 -2,-6 -1,-3 -1,-6 -1,-9 0,-3 0,-6 1,-8 0,-3 1,-5 2,-7 1,-2 2,-3 4,-4 2,-1 4,-1 6,-1 2,0 4,0 5,1 2,1 3,2 4,4 1,2 2,4 3,6 0,3 1,6 1,9zm-21 0c0,3 0,5 1,7 0,2 0,4 1,5 1,2 1,3 2,3 1,1 2,1 4,1 1,0 2,0 3,-1 1,0 2,-1 3,-3 0,-1 1,-3 1,-5 0,-2 0,-4 0,-7 0,-3 0,-5 0,-7 0,-2 -1,-4 -1,-5 -1,-1 -2,-2 -3,-3 -1,-1 -2,-1 -3,-1 -2,0 -3,0 -4,1 -1,1 -1,2 -2,3 -1,1 -1,3 -1,5 -1,2 -1,4 -1,7z"/>
   <path fill="white" fill-rule="nonzero" d="M155 493l-10 -28 0 0c0,1 0,2 1,3 0,1 0,2 0,3 0,1 0,2 0,3l0 19 -4 0 0 -32 6 0 9 26 0 0 9 -26 5 0 0 32 -4 0 0 -20c0,0 1,-1 1,-2 0,-1 0,-2 0,-3 0,-1 0,-2 0,-3l0 0 -10 28 -3 0zm51 -16c0,2 -1,4 -1,6 -1,2 -2,4 -3,6 -1,1 -2,2 -4,3 -2,1 -4,1 -6,1 -2,0 -4,0 -6,-1 -2,-1 -3,-2 -4,-3 -1,-2 -2,-4 -3,-6 0,-2 -1,-4 -1,-6 0,-3 1,-5 1,-7 1,-2 2,-4 3,-5 1,-1 2,-3 4,-3 2,-1 4,-1 6,-1 2,0 4,0 6,1 2,0 3,2 4,3 1,1 2,3 3,5 0,2 1,4 1,7zm-23 0c0,2 0,3 0,5 1,2 1,3 2,4 1,1 2,2 3,3 1,0 2,0 4,0 2,0 3,0 4,0 2,-1 3,-2 3,-3 1,-1 2,-2 2,-4 0,-2 1,-3 1,-5 0,-2 -1,-4 -1,-6 0,-1 -1,-2 -2,-4 0,-1 -1,-1 -3,-2 -1,-1 -2,-1 -4,-1 -1,0 -3,0 -4,1 -1,1 -2,1 -3,2 -1,2 -1,3 -2,4 0,2 0,4 0,6zm53 -1c0,3 0,5 -1,7 -1,2 -2,4 -3,5 -1,2 -3,3 -5,4 -2,0 -4,1 -6,1l-8 0 0 -32 9 0c2,0 4,0 5,1 2,1 4,2 5,3 1,1 2,3 3,5 1,2 1,4 1,6zm-4 1c0,-2 -1,-4 -1,-6 0,-1 -1,-3 -2,-4 -1,-1 -2,-1 -3,-2 -2,0 -3,-1 -5,-1l-4 0 0 25 3 0c4,0 7,-1 9,-3 2,-2 3,-5 3,-9zm27 16l-16 0 0 -32 16 0 0 4 -12 0 0 9 11 0 0 4 -11 0 0 11 12 0 0 4z"/>
   <path fill="white" fill-rule="nonzero" d="M571 481l0 13 -4 0 0 -32 8 0c4,0 6,1 8,3 2,1 3,3 3,6 0,2 0,3 -1,4 0,0 0,1 -1,2 -1,1 -1,1 -2,2 -1,0 -1,0 -2,1l8 14 -4 0 -8 -13 -5 0zm0 -4l4 0c1,0 2,0 3,0 1,0 2,-1 2,-1 1,-1 1,-1 1,-2 1,-1 1,-2 1,-3 0,-1 0,-1 -1,-2 0,-1 0,-1 -1,-2 -1,0 -1,-1 -2,-1 -1,0 -2,0 -3,0l-4 0 0 11zm39 8c0,2 -1,3 -1,4 -1,1 -1,2 -2,3 -1,1 -2,1 -4,2 -1,0 -2,0 -4,0 -2,0 -3,0 -4,0 -2,0 -3,-1 -4,-1l0 -4c1,0 1,0 2,1 0,0 1,0 2,0 0,0 1,1 2,1 1,0 1,0 2,0 2,0 4,-1 5,-1 1,-1 2,-3 2,-4 0,-1 0,-2 -1,-2 0,-1 0,-1 -1,-2 0,0 -1,-1 -2,-1 -1,-1 -2,-1 -3,-2 -1,0 -2,-1 -3,-1 -1,-1 -2,-2 -3,-2 0,-1 -1,-2 -1,-3 0,-1 -1,-2 -1,-3 0,-1 1,-3 1,-4 1,0 1,-1 2,-2 1,-1 2,-1 3,-2 1,0 3,0 4,0 2,0 3,0 5,0 1,1 2,1 3,2l-1 3c-1,0 -2,-1 -3,-1 -2,0 -3,-1 -4,-1 -2,0 -3,1 -4,2 -1,0 -2,2 -2,3 0,1 1,1 1,2 0,1 0,1 1,2 0,0 1,1 2,1 1,0 2,1 3,1 1,1 2,1 3,2 1,0 2,1 3,2 0,0 1,1 1,2 1,1 1,2 1,3zm15 9l-4 0 0 -28 -9 0 0 -4 22 0 0 4 -9 0 0 28z"/>
   <path fill="white" fill-rule="nonzero" d="M681 249c2,0 3,0 4,0 1,1 1,1 2,2 1,0 1,1 2,2 0,1 1,2 1,3l0 0c0,-3 1,-5 3,-6 1,-2 3,-2 5,-2 2,0 3,0 4,0 2,1 3,2 4,3 1,1 1,2 2,4 0,1 1,3 1,5 0,2 -1,4 -1,5 0,2 -1,3 -1,4l-4 0c0,-1 1,-2 1,-4 1,-2 1,-3 1,-5 0,-1 0,-2 -1,-3 0,-2 0,-2 -1,-3 -1,-1 -1,-1 -2,-2 -1,0 -2,0 -3,0 -1,0 -2,0 -3,1 0,0 -1,1 -2,1 0,1 0,2 -1,3 0,1 0,3 0,4l0 3 -4 0 0 -3c0,-1 0,-2 0,-3 0,-1 -1,-2 -1,-3 -1,-1 -2,-1 -3,-1 0,-1 -1,-1 -2,-1 -1,0 -2,0 -2,0 -1,1 -2,1 -2,2 -1,0 -1,1 -1,2 0,0 0,1 0,2 0,2 0,3 0,4 1,2 2,3 2,4l-3 2c0,0 -1,-1 -1,-2 0,0 -1,-1 -1,-2 0,-1 -1,-2 -1,-3 0,-1 0,-2 0,-3 0,-2 0,-3 1,-5 0,-1 1,-2 1,-3 1,-1 2,-1 3,-2 1,0 2,0 3,0zm-8 -27l0 -5 35 12 0 4 -35 12 0 -5 22 -7c2,-1 3,-1 5,-1 1,-1 2,-1 3,-1 -1,0 -2,-1 -3,-1 -2,0 -3,-1 -5,-1l-22 -7zm8 -28c2,0 3,0 4,1 1,0 1,1 2,1 1,1 1,2 2,3 0,1 1,2 1,3l0 0c0,-3 1,-5 3,-7 1,-1 3,-2 5,-2 2,0 3,0 4,1 2,0 3,1 4,2 1,1 1,3 2,4 0,2 1,4 1,6 0,2 -1,3 -1,5 0,1 -1,3 -1,4l-4 0c0,-1 1,-3 1,-4 1,-2 1,-4 1,-5 0,-1 0,-3 -1,-4 0,-1 0,-2 -1,-2 -1,-1 -1,-2 -2,-2 -1,0 -2,0 -3,0 -1,0 -2,0 -3,0 0,1 -1,1 -2,2 0,1 0,2 -1,3 0,1 0,2 0,4l0 3 -4 0 0 -3c0,-2 0,-3 0,-4 0,-1 -1,-2 -1,-2 -1,-1 -2,-2 -3,-2 0,0 -1,0 -2,0 -1,0 -2,0 -2,0 -1,0 -2,1 -2,1 -1,1 -1,1 -1,2 0,1 0,2 0,3 0,1 0,3 0,4 1,1 2,3 2,4l-3 2c0,-1 -1,-1 -1,-2 0,-1 -1,-2 -1,-2 0,-1 -1,-2 -1,-3 0,-1 0,-2 0,-3 0,-2 0,-4 1,-5 0,-1 1,-2 1,-3 1,-1 2,-2 3,-2 1,-1 2,-1 3,-1z"/>
   <path fill="white" fill-rule="nonzero" d="M694 363l14 0 0 4 -35 0 0 -8c0,-5 1,-8 3,-10 1,-2 4,-3 7,-3 2,0 3,0 4,1 1,0 2,1 2,1 1,1 2,2 2,3 1,0 1,1 2,2l15 -9 0 5 -14 8 0 6zm-4 0l0 -4c0,-2 0,-3 0,-4 -1,-1 -1,-2 -2,-2 0,-1 -1,-1 -2,-2 -1,0 -2,0 -3,0 -1,0 -2,0 -2,0 -1,1 -2,1 -2,2 -1,1 -1,1 -2,2 0,1 0,3 0,4l0 4 13 0zm9 -43c1,0 3,0 4,1 1,1 2,1 3,2 1,1 1,3 2,4 0,1 1,3 1,5 0,2 -1,3 -1,5 0,1 -1,3 -1,4l-4 0c0,-1 0,-1 0,-2 1,-1 1,-2 1,-2 0,-1 0,-2 1,-3 0,0 0,-1 0,-2 0,-3 -1,-4 -2,-6 -1,-1 -2,-1 -4,-1 -1,0 -1,0 -2,0 -1,0 -1,1 -2,1 0,1 -1,1 -1,2 -1,1 -1,3 -2,4 0,1 -1,3 -2,4 0,1 -1,2 -2,2 -1,1 -2,1 -3,2 -1,0 -2,0 -3,0 -2,0 -3,0 -4,-1 -1,0 -2,-1 -3,-2 -1,-1 -1,-2 -2,-3 0,-1 0,-3 0,-4 0,-2 0,-4 0,-5 1,-2 1,-3 2,-4l3 1c0,1 0,2 -1,4 0,1 0,2 0,4 0,2 0,3 1,4 1,1 2,2 4,2 1,0 1,0 2,-1 1,0 1,0 2,-1 0,0 1,-1 1,-2 1,-1 1,-2 2,-3 0,-2 1,-3 2,-4 0,-1 1,-2 2,-3 0,0 1,-1 2,-1 1,-1 2,-1 4,-1zm9 -17l0 5 -31 0 0 9 -4 0 0 -24 4 0 0 10 31 0z"/>
   <path fill="white" fill-rule="nonzero" d="M681 455c1,0 2,0 2,1 1,0 2,1 3,1 0,1 1,1 1,2 0,1 1,2 1,3l0 0c0,-3 1,-4 2,-6 2,-1 3,-2 5,-2 1,0 3,1 4,1 1,0 2,1 3,2 0,1 1,2 1,3 1,2 1,3 1,5 0,2 0,3 0,5 -1,1 -1,2 -2,3l-3 0c1,-1 1,-2 1,-4 1,-1 1,-2 1,-4 0,-1 0,-2 -1,-3 0,-1 0,-2 -1,-2 0,-1 -1,-1 -2,-1 0,-1 -1,-1 -2,-1 -1,0 -2,0 -2,1 -1,0 -2,1 -2,1 0,1 -1,2 -1,3 0,1 0,2 0,3l0 3 -3 0 0 -3c0,-1 -1,-2 -1,-3 0,-1 0,-2 -1,-2 -1,-1 -1,-1 -2,-1 0,-1 -1,-1 -2,-1 -1,0 -1,0 -2,0 -1,1 -1,1 -1,2 -1,0 -1,0 -1,1 0,1 -1,1 -1,2 0,2 1,3 1,4 1,1 1,2 2,3l-3 2c0,0 -1,-1 -1,-2 0,0 -1,-1 -1,-2 0,0 0,-1 -1,-2 0,-1 0,-2 0,-3 0,-1 0,-3 1,-4 0,-1 1,-2 1,-2 1,-1 2,-2 3,-2 1,-1 2,-1 3,-1zm-7 -23l0 -4 30 10 0 4 -30 10 0 -4 19 -6c1,-1 2,-1 3,-1 1,-1 2,-1 4,-1 -2,0 -3,-1 -4,-1 -1,0 -2,-1 -3,-1l-19 -6zm7 -24c1,0 2,0 2,1 1,0 2,1 3,1 0,1 1,1 1,2 0,1 1,2 1,3l0 0c0,-3 1,-4 2,-6 2,-1 3,-2 5,-2 1,0 3,1 4,1 1,1 2,1 3,2 0,1 1,2 1,4 1,1 1,3 1,4 0,2 0,3 0,5 -1,1 -1,2 -2,3l-3 0c1,-1 1,-2 1,-4 1,-1 1,-2 1,-4 0,-1 0,-2 -1,-3 0,-1 0,-1 -1,-2 0,-1 -1,-1 -2,-1 0,-1 -1,-1 -2,-1 -1,0 -2,0 -2,1 -1,0 -2,1 -2,1 0,1 -1,2 -1,3 0,1 0,2 0,3l0 3 -3 0 0 -3c0,-1 -1,-2 -1,-3 0,-1 0,-2 -1,-2 -1,-1 -1,-1 -2,-1 0,-1 -1,-1 -2,-1 -1,0 -1,0 -2,0 -1,1 -1,1 -1,2 -1,0 -1,1 -1,1 0,1 -1,1 -1,2 0,2 1,3 1,4 1,1 1,2 2,3l-3 2c0,0 -1,-1 -1,-2 0,0 -1,-1 -1,-2 0,0 0,-1 -1,-2 0,-1 0,-2 0,-3 0,-1 0,-2 1,-4 0,-1 1,-2 1,-2 1,-1 2,-2 3,-2 1,0 2,-1 3,-1zm-9 -17l8 1 -3 -8 4 -1 1 8 7 -5 2 4 -8 3 8 4 -2 3 -7 -4 -1 7 -4 0 3 -8 -8 0 0 -4z"/>
   <path fill="white" fill-rule="nonzero" d="M690 570l0 -11 17 0c0,1 0,2 1,3 0,0 0,1 0,2 0,1 0,2 0,3 1,1 1,2 1,4 0,2 -1,4 -2,6 -1,2 -2,4 -3,5 -2,1 -4,2 -6,3 -2,1 -5,1 -7,1 -3,0 -6,0 -8,-1 -2,-1 -4,-2 -5,-3 -2,-2 -3,-4 -4,-6 -1,-2 -1,-4 -1,-7 0,-2 0,-3 0,-5 1,-2 1,-3 2,-5l4 2c-1,1 -1,1 -1,2 0,1 0,1 -1,2 0,1 0,1 0,2 0,1 0,2 0,2 0,2 0,4 1,6 0,1 1,2 2,3 2,1 3,2 5,3 2,0 4,0 6,0 2,0 4,0 5,0 2,-1 4,-1 5,-2 1,-1 2,-3 3,-4 0,-2 1,-3 1,-5 0,-1 0,-2 0,-2 0,-1 0,-1 -1,-2 0,0 0,-1 0,-1 0,-1 0,-1 0,-2l-10 0 0 7 -4 0zm18 -45l0 5 -29 17 0 0c2,0 3,0 4,0 1,-1 2,-1 3,-1 1,0 2,0 3,0l19 0 0 5 -35 0 0 -6 29 -16 0 0c-1,0 -2,0 -4,0 0,0 -1,0 -1,0 -1,0 -1,0 -2,0 0,0 -1,0 -1,0 -1,0 -1,0 -2,0l-19 0 0 -4 35 0zm-18 -35c3,0 6,0 8,1 2,1 4,2 6,3 1,2 2,3 3,5 1,3 1,5 1,8l0 8 -35 0 0 -9c0,-3 1,-5 1,-7 1,-2 2,-4 4,-5 1,-1 3,-2 5,-3 2,-1 5,-1 7,-1zm1 4c-3,0 -5,1 -6,1 -2,1 -4,1 -5,2 -1,1 -2,3 -2,4 -1,2 -1,3 -1,5l0 5 27 0 0 -4c0,-4 -1,-7 -3,-9 -2,-3 -6,-4 -10,-4z"/>
   <path fill="white" fill-rule="nonzero" d="M690 632c3,0 6,0 8,1 2,1 4,2 6,3 1,2 2,4 3,6 1,2 1,4 1,7l0 9 -35 0 0 -10c0,-3 1,-5 1,-7 1,-2 2,-3 4,-5 1,-1 3,-2 5,-3 2,-1 5,-1 7,-1zm1 5c-3,0 -5,0 -6,0 -2,1 -4,2 -5,3 -1,1 -2,2 -2,3 -1,2 -1,4 -1,5l0 5 27 0 0 -4c0,-4 -1,-7 -3,-9 -3,-2 -6,-3 -10,-3zm17 -15l-31 -13 0 18 -4 0 0 -22 4 0 31 13 0 4z"/>
   <path fill="white" fill-rule="nonzero" d="M690 732c3,0 6,0 8,1 2,1 4,2 6,4 1,1 2,3 3,5 1,2 1,4 1,7l0 9 -35 0 0 -10c0,-2 1,-5 1,-7 1,-2 2,-3 4,-5 1,-1 3,-2 5,-3 2,-1 5,-1 7,-1zm1 5c-3,0 -5,0 -6,1 -2,0 -4,1 -5,2 -1,1 -2,2 -2,3 -1,2 -1,4 -1,5l0 5 27 0 0 -4c0,-4 -1,-7 -3,-9 -2,-2 -6,-3 -10,-3zm2 -11c-1,0 -3,0 -5,0 -1,0 -3,0 -4,-1 -2,0 -3,-1 -5,-1 -1,-1 -2,-2 -3,-3 -1,-1 -2,-3 -2,-4 -1,-2 -1,-4 -1,-6 0,0 0,0 0,-1 0,0 0,0 0,-1 0,0 0,-1 0,-1 0,0 0,-1 0,-1l4 0c0,1 0,1 0,2 0,1 0,1 0,2 0,2 0,3 0,4 0,1 1,2 1,3 1,0 2,1 3,2 0,0 1,1 2,1 1,0 3,0 4,1 1,0 2,0 3,0l0 0c0,-1 -1,-1 -1,-1 -1,-1 -1,-1 -2,-2 0,-1 0,-1 0,-2 -1,-1 -1,-2 -1,-3 0,-1 1,-2 1,-4 1,-1 1,-2 2,-3 1,-1 2,-1 3,-2 2,0 3,0 5,0 2,0 3,0 5,0 1,1 2,1 3,2 1,1 2,2 3,4 0,1 1,2 1,4 0,2 -1,3 -1,5 -1,1 -2,2 -3,3 -1,1 -3,2 -5,3 -2,0 -4,0 -7,0zm12 -11c0,-1 0,-2 -1,-2 0,-1 0,-2 -1,-2 -1,-1 -2,-1 -3,-2 -1,0 -2,0 -3,0 -1,0 -2,0 -3,0 -1,0 -2,1 -2,1 -1,1 -1,1 -2,2 0,1 0,2 0,3 0,1 0,2 0,3 1,1 1,1 2,2 0,1 1,1 2,2 1,0 1,0 2,0 1,0 2,0 3,0 1,-1 2,-1 3,-2 1,0 2,-1 2,-2 1,-1 1,-2 1,-3z"/>
   <path fill="white" fill-rule="nonzero" d="M690 832c3,0 5,0 8,1 2,1 4,2 5,3 2,1 3,3 3,5 1,2 2,5 2,7l0 9 -35 0 0 -9c0,-3 0,-5 1,-7 1,-2 2,-4 3,-5 2,-1 3,-3 6,-3 2,-1 4,-1 7,-1zm0 4c-2,0 -4,1 -6,1 -2,1 -3,1 -4,2 -1,1 -2,3 -3,4 0,1 0,3 0,5l0 5 27 0 0 -4c0,-4 -1,-7 -4,-10 -2,-2 -5,-3 -10,-3zm-4 -20c0,-2 0,-3 1,-5 0,-1 1,-2 2,-3 1,-1 2,-2 3,-3 1,0 3,0 4,0 2,0 4,0 5,0 2,1 3,2 4,3 1,1 2,2 2,4 1,1 1,3 1,5 0,1 0,2 0,2 0,1 0,2 0,3 -1,0 -1,1 -1,2 0,0 -1,1 -1,2l-4 0c0,-1 1,-2 1,-2 0,-1 1,-2 1,-3 0,0 0,-1 0,-2 0,-1 0,-1 0,-2 0,-1 0,-2 0,-3 0,-1 -1,-2 -1,-3 -1,-1 -2,-1 -3,-1 -1,-1 -2,-1 -3,-1 -2,0 -4,1 -5,2 -1,1 -2,4 -2,6 0,1 0,1 0,2 0,0 0,1 0,1 0,1 0,1 0,1 0,1 1,1 1,2l-2 2 -16 -1 0 -17 4 0 0 13 10 1c0,-1 0,-1 -1,-2 0,-1 0,-2 0,-3z"/>
   <path fill="white" fill-rule="nonzero" d="M691 933c2,0 5,1 7,1 2,1 4,2 6,4 1,1 2,3 3,5 1,2 1,5 1,7l0 9 -34 0 0 -10c0,-2 0,-4 1,-6 0,-2 1,-4 3,-5 1,-2 3,-3 5,-4 2,0 5,-1 8,-1zm0 5c-3,0 -5,0 -6,1 -2,0 -3,1 -4,2 -2,1 -2,2 -3,4 0,1 -1,3 -1,5l0 4 27 0 0 -3c0,-5 -1,-8 -3,-10 -2,-2 -6,-3 -10,-3zm9 -33l0 5 8 0 0 4 -8 0 0 16 -3 0 -24 -16 0 -4 24 0 0 -5 3 0zm-3 9l-9 0c-1,0 -2,0 -3,0 -1,0 -2,0 -3,0 -1,0 -1,0 -2,0 -1,0 -2,0 -2,-1l0 1c0,0 0,0 1,0 0,0 1,0 1,1 0,0 1,0 1,0 1,0 1,1 1,1l15 10 0 -12z"/>
   <path fill="white" fill-rule="nonzero" d="M690 1031c3,0 6,1 8,2 2,0 4,1 6,3 1,1 2,3 3,5 1,2 1,5 1,7l0 9 -35 0 0 -10c0,-2 1,-4 1,-6 1,-2 2,-4 4,-5 1,-2 3,-3 5,-3 2,-1 5,-2 7,-2zm1 5c-3,0 -5,0 -6,1 -2,0 -4,1 -5,2 -1,1 -2,2 -2,4 -1,1 -1,3 -1,5l0 5 27 0 0 -4c0,-4 -1,-8 -3,-10 -2,-2 -6,-3 -10,-3zm-9 -30c1,0 2,0 3,0 1,1 1,1 2,2 1,0 1,1 2,2 0,1 1,2 1,3l0 0c0,-3 1,-5 3,-6 1,-2 3,-2 5,-2 2,0 3,0 4,0 2,1 3,2 4,3 1,1 1,2 2,4 0,1 1,3 1,5 0,2 -1,4 -1,5 0,2 -1,3 -1,5l-4 0c0,-2 1,-3 1,-5 1,-2 1,-3 1,-5 0,-1 0,-2 -1,-3 0,-1 0,-2 -1,-3 -1,-1 -1,-1 -2,-2 -1,0 -2,0 -3,0 -1,0 -2,0 -3,1 0,0 -1,1 -2,1 0,1 0,2 -1,3 0,1 0,3 0,4l0 3 -4 0 0 -3c0,-1 0,-2 0,-3 0,-1 -1,-2 -1,-3 -1,-1 -2,-1 -3,-1 0,-1 -1,-1 -2,-1 -1,0 -2,0 -2,0 -1,1 -2,1 -2,2 -1,0 -1,1 -1,2 0,0 0,1 0,2 0,2 0,3 0,4 1,2 2,3 2,4l-3 2c0,0 -1,-1 -1,-2 0,0 -1,-1 -1,-2 0,-1 -1,-2 -1,-3 0,-1 0,-2 0,-3 0,-2 0,-3 1,-4 0,-2 1,-3 1,-4 1,-1 2,-1 3,-2 1,0 2,0 4,0z"/>
   <path fill="white" fill-rule="nonzero" d="M691 1131c3,0 5,1 8,2 2,0 4,1 5,3 2,1 3,3 3,5 1,2 2,5 2,7l0 9 -35 0 0 -10c0,-2 0,-4 1,-6 1,-2 2,-4 3,-5 2,-2 3,-3 6,-3 2,-1 4,-2 7,-2zm0 5c-2,0 -4,0 -6,1 -2,0 -3,1 -4,2 -1,1 -2,2 -3,4 0,1 0,3 0,5l0 5 27 0 0 -4c0,-4 -1,-8 -4,-10 -2,-2 -5,-3 -10,-3zm18 -31l0 21 -4 0 -9 -8c-1,-1 -3,-2 -4,-3 -1,-1 -2,-2 -3,-3 -1,0 -2,-1 -3,-1 -1,0 -2,-1 -3,-1 -1,0 -2,0 -3,1 0,0 -1,0 -1,1 -1,0 -1,1 -2,2 0,0 0,1 0,2 0,1 0,3 1,4 1,1 1,2 2,3l-3 3c0,-1 -1,-1 -1,-2 -1,-1 -1,-2 -1,-3 -1,0 -1,-1 -1,-2 -1,-1 -1,-2 -1,-3 0,-2 1,-3 1,-4 0,-1 1,-3 2,-3 1,-1 2,-2 3,-2 1,-1 2,-1 4,-1 1,0 2,0 3,1 2,0 3,1 4,1 1,1 2,2 4,3 1,1 2,2 3,3l7 7 1 0 0 -16 4 0z"/>
   <path fill="white" fill-rule="nonzero" d="M690 1224c3,0 6,1 8,2 2,0 4,1 6,3 1,1 2,3 3,5 1,2 1,5 1,7l0 9 -35 0 0 -10c0,-2 1,-4 1,-6 1,-2 2,-4 4,-5 1,-2 3,-3 5,-3 2,-1 5,-2 7,-2zm1 5c-3,0 -5,0 -6,1 -2,0 -4,1 -5,2 -1,1 -2,2 -2,4 -1,1 -1,3 -1,5l0 5 27 0 0 -4c0,-4 -1,-8 -3,-10 -3,-2 -6,-3 -10,-3zm17 -24l0 4 -22 0c0,0 -1,0 -2,0 -1,0 -1,0 -2,0 -1,0 -2,0 -2,0 -1,0 -2,0 -2,0 0,0 0,0 1,0 0,0 0,1 0,1 0,0 1,0 1,1 0,0 0,0 0,0l3 4 -3 2 -7 -9 0 -3 35 0z"/>
   <path fill="white" fill-rule="nonzero" d="M690 1332c3,0 6,0 8,1 2,1 4,2 6,3 1,2 2,4 3,6 1,2 1,4 1,7l0 9 -35 0 0 -10c0,-2 1,-5 2,-7 0,-2 1,-3 3,-5 1,-1 3,-2 5,-3 2,-1 5,-1 7,-1zm1 5c-3,0 -5,0 -6,0 -2,1 -3,2 -5,3 -1,1 -1,2 -2,3 -1,2 -1,4 -1,5l0 5 27 0 0 -4c0,-4 -1,-7 -3,-9 -2,-2 -6,-3 -10,-3zm0 -32c3,0 5,0 7,0 2,1 4,1 6,2 1,1 3,2 3,4 1,1 2,3 2,5 0,2 -1,3 -2,5 0,1 -2,2 -3,3 -2,1 -4,2 -6,2 -2,1 -4,1 -7,1 -3,0 -6,0 -8,-1 -2,0 -4,-1 -5,-2 -2,-1 -3,-2 -4,-3 -1,-2 -1,-3 -1,-5 0,-2 0,-4 1,-5 1,-2 2,-3 4,-4 1,-1 3,-1 5,-2 2,0 5,0 8,0zm0 17c2,0 4,0 6,0 2,0 3,-1 4,-1 2,-1 2,-1 3,-2 1,-1 1,-2 1,-3 0,-2 0,-3 -1,-3 -1,-1 -1,-2 -3,-2 -1,-1 -2,-1 -4,-2 -2,0 -4,0 -6,0 -3,0 -5,0 -7,0 -1,1 -3,1 -4,2 -1,0 -2,1 -3,2 0,0 0,1 0,3 0,1 0,2 0,3 1,1 2,1 3,2 1,0 3,1 4,1 2,0 4,0 7,0z"/>
   <path fill="white" fill-rule="nonzero" d="M128 1337l-11 3 0 13 11 4 0 5 -35 -13 0 -4 35 -13 0 5zm-15 5l-10 3c0,0 0,1 -1,1 0,0 -1,0 -1,0 -1,0 -1,0 -2,1 0,0 -1,0 -1,0 0,0 1,0 1,0 1,0 1,1 2,1 0,0 1,0 1,0 1,0 1,0 1,1l10 3 0 -10zm-2 -34c2,0 5,0 7,0 2,1 4,1 6,2 1,1 3,2 3,4 1,1 2,3 2,5 0,2 -1,3 -2,5 0,1 -2,2 -3,3 -2,1 -4,2 -6,2 -2,1 -5,1 -7,1 -3,0 -6,0 -8,-1 -2,0 -4,-1 -5,-2 -2,-1 -3,-2 -4,-3 -1,-2 -1,-3 -1,-5 0,-2 0,-4 1,-5 1,-1 2,-3 3,-4 2,0 4,-1 6,-2 2,0 5,0 8,0zm0 17c2,0 4,0 6,0 2,0 3,-1 4,-1 1,-1 2,-1 3,-2 1,-1 1,-2 1,-3 0,-1 0,-2 -1,-3 -1,-1 -2,-2 -3,-2 -1,-1 -2,-1 -4,-2 -2,0 -4,0 -6,0 -3,0 -5,0 -7,0 -1,1 -3,1 -4,2 -1,0 -2,1 -3,2 0,1 -1,2 -1,3 0,1 1,2 1,3 1,1 2,1 3,2 1,0 3,1 4,1 2,0 4,0 7,0z"/>
   <path fill="white" fill-rule="nonzero" d="M128 1237l-11 3 0 13 11 4 0 5 -35 -13 0 -4 35 -13 0 5zm-15 5l-10 3c0,0 0,1 -1,1 0,0 -1,0 -1,0 -1,0 -1,0 -2,1 0,0 -1,0 -1,0 0,0 1,0 1,0 1,0 1,1 2,1 0,0 1,0 1,0 1,0 1,0 1,1l10 3 0 -10zm15 -27l0 4 -22 0c0,0 -1,0 -2,0 -1,0 -1,0 -2,0 -1,0 -2,0 -2,0 -1,0 -2,0 -2,0 0,1 0,1 1,1 0,0 0,0 0,1 0,0 1,0 1,0 0,1 0,1 0,1l3 4 -3 2 -7 -9 0 -4 35 0z"/>
   <path fill="white" fill-rule="nonzero" d="M128 1137l-11 3 0 13 11 4 0 5 -35 -13 0 -4 35 -13 0 5zm-15 5l-10 3c0,0 0,1 -1,1 0,0 -1,0 -1,0 -1,0 -1,0 -2,1 0,0 -1,0 -1,0 0,0 1,0 1,0 1,0 1,1 2,1 0,0 1,0 1,0 1,0 1,0 1,1l10 3 0 -10zm15 -34l0 22 -4 0 -9 -8c-1,-2 -2,-3 -3,-4 -1,-1 -2,-1 -3,-2 -1,-1 -2,-1 -3,-1 -1,-1 -3,-1 -4,-1 -1,0 -1,0 -2,0 -1,1 -1,1 -2,2 0,0 -1,1 -1,1 0,1 0,2 0,3 0,1 0,2 0,4 1,1 2,2 3,3l-3 3c-1,-1 -1,-2 -2,-2 0,-1 -1,-2 -1,-3 0,-1 -1,-2 -1,-3 0,0 0,-1 0,-2 0,-2 0,-3 0,-5 1,-1 2,-2 2,-3 1,-1 2,-1 3,-2 1,0 3,0 4,0 1,0 3,0 4,0 1,1 2,1 4,2 1,1 2,2 3,3 1,1 3,2 4,3l7 7 0 0 0 -17 4 0z"/>
   <path fill="white" fill-rule="nonzero" d="M128 1037l-11 3 0 13 11 4 0 5 -35 -13 0 -4 35 -13 0 5zm-15 5l-10 3c0,0 0,1 -1,1 0,0 -1,0 -1,0 -1,0 -1,0 -2,1 0,0 -1,0 -1,0 0,0 1,0 1,0 1,0 1,1 2,1 0,0 1,0 1,0 1,0 1,0 1,1l10 3 0 -10zm-12 -33c2,0 3,1 4,1 1,0 1,1 2,1 1,1 1,2 2,3 0,1 1,2 1,3l0 0c0,-3 1,-5 3,-7 1,-1 3,-2 5,-2 2,0 3,1 4,1 2,1 3,1 4,2 1,1 1,3 2,4 0,2 1,4 1,6 0,2 -1,3 -1,5 0,1 -1,3 -1,4l-4 0c0,-1 1,-3 1,-4 1,-2 1,-3 1,-5 0,-1 0,-3 -1,-4 0,-1 0,-2 -1,-2 -1,-1 -1,-1 -2,-2 -1,0 -2,0 -3,0 -1,0 -2,0 -3,0 0,1 -1,1 -2,2 0,1 0,2 -1,3 0,1 0,2 0,4l0 3 -4 0 0 -3c0,-2 0,-3 0,-4 0,-1 -1,-2 -2,-2 0,-1 -1,-1 -2,-2 0,0 -1,0 -2,0 -1,0 -2,0 -2,0 -1,0 -2,1 -2,1 -1,1 -1,2 -1,2 0,1 0,2 0,3 0,1 0,3 0,4 1,1 2,3 2,4l-3 2c0,-1 -1,-1 -1,-2 0,-1 -1,-1 -1,-2 0,-1 -1,-2 -1,-3 0,-1 0,-2 0,-3 0,-2 0,-3 0,-5 1,-1 2,-2 2,-3 1,-1 2,-2 3,-2 1,0 2,-1 3,-1z"/>
   <path fill="white" fill-rule="nonzero" d="M128 937l-11 3 0 13 11 4 0 5 -35 -13 0 -4 35 -13 0 5zm-15 5l-10 3c0,0 0,1 -1,1 0,0 -1,0 -1,0 -1,0 -1,0 -2,1 0,0 -1,0 -1,0 0,0 1,0 1,0 1,0 1,1 2,1 0,0 1,0 1,0 1,0 1,0 1,1l10 3 0 -10zm7 -36l0 5 8 0 0 5 -8 0 0 16 -4 0 -23 -16 0 -5 23 0 0 -5 4 0zm-4 10l-8 0c-1,0 -2,0 -3,0 -1,0 -2,0 -3,-1 -1,0 -2,0 -2,0 -1,0 -2,0 -2,0l0 0c0,1 0,1 1,1 0,0 0,0 1,0 0,1 1,1 1,1 0,0 1,0 1,1l14 9 0 -11z"/>
   <path fill="white" fill-rule="nonzero" d="M128 837l-11 3 0 13 11 4 0 5 -35 -13 0 -4 35 -13 0 5zm-15 5l-10 3c0,0 0,1 -1,1 0,0 -1,0 -1,0 -1,0 -1,0 -2,1 0,0 -1,0 -1,0 0,0 1,0 1,0 1,0 1,1 2,1 0,0 1,0 1,0 1,0 1,0 1,1l10 3 0 -10zm-6 -23c0,-1 0,-3 0,-4 1,-1 1,-3 2,-4 1,-1 2,-1 4,-2 1,-1 2,-1 4,-1 2,0 3,0 5,1 1,0 2,1 3,2 1,1 2,3 3,4 0,2 1,4 1,6 0,0 -1,1 -1,2 0,1 0,2 0,2 0,1 0,2 -1,2 0,1 0,2 0,2l-4 0c0,0 0,-1 1,-2 0,0 0,-1 0,-2 0,-1 1,-2 1,-2 0,-1 0,-2 0,-3 0,-1 0,-2 -1,-3 0,-1 0,-2 -1,-2 -1,-1 -1,-2 -2,-2 -1,0 -2,0 -4,0 -2,0 -4,0 -5,2 -1,1 -2,3 -2,6 0,0 0,1 0,1 1,1 1,1 1,2 0,0 0,1 0,1 0,0 0,1 0,1l-1 2 -17 -1 0 -16 4 0 0 12 10 1c0,0 0,-1 0,-2 0,-1 0,-2 0,-3z"/>
   <path fill="white" fill-rule="nonzero" d="M128 737l-11 3 0 13 11 4 0 5 -35 -13 0 -4 35 -13 0 5zm-15 5l-10 3c0,0 0,1 -1,1 0,0 -1,0 -1,0 -1,0 -1,0 -2,1 0,0 -1,0 -1,0 0,0 1,0 1,0 1,0 1,1 2,1 0,0 1,0 1,0 1,0 1,0 1,1l10 3 0 -10zm0 -13c-1,0 -3,0 -5,0 -1,0 -3,0 -4,-1 -2,0 -3,-1 -5,-1 -1,-1 -2,-2 -3,-3 -1,-1 -2,-3 -2,-4 -1,-2 -1,-4 -1,-6 0,0 0,0 0,-1 0,0 0,0 0,-1 0,0 0,-1 0,-1 0,0 0,0 0,-1l4 0c0,1 0,1 0,2 0,1 0,1 0,2 0,2 0,3 0,4 0,1 1,2 1,3 1,0 2,1 3,2 0,0 1,1 2,1 1,0 3,1 4,1 1,0 2,0 3,0l0 0c0,-1 -1,-1 -1,-1 -1,-1 -1,-1 -2,-2 0,-1 0,-1 0,-2 -1,-1 -1,-2 -1,-3 0,-1 1,-2 1,-4 0,-1 1,-2 2,-3 1,-1 2,-1 3,-2 2,0 3,0 5,0 2,0 3,0 5,0 1,1 2,2 3,2 1,1 2,3 3,4 0,1 1,3 1,4 0,2 -1,3 -1,5 -1,1 -2,2 -3,3 -1,1 -3,2 -5,3 -2,0 -4,0 -7,0zm12 -11c0,-1 0,-2 -1,-2 0,-1 0,-2 -1,-2 -1,-1 -2,-1 -3,-2 -1,0 -2,0 -3,0 -1,0 -2,0 -3,0 -1,0 -2,1 -2,1 -1,1 -1,2 -2,2 0,1 0,2 0,3 0,1 0,2 0,3 1,1 1,2 2,2 0,1 1,1 2,2 0,0 1,0 2,0 1,0 2,0 3,0 1,-1 2,-1 3,-2 1,0 2,-1 2,-2 1,-1 1,-2 1,-3z"/>
   <path fill="white" fill-rule="nonzero" d="M128 637l-11 3 0 13 11 4 0 5 -35 -13 0 -4 35 -13 0 5zm-15 5l-10 3c0,0 0,1 -1,1 0,0 -1,0 -1,0 -1,0 -1,0 -2,1 0,0 -1,0 -1,0 0,0 1,0 1,0 1,0 1,1 2,1 0,0 1,0 1,0 1,0 1,0 1,1l10 3 0 -10zm15 -16l-31 -14 0 18 -4 0 0 -22 4 0 31 13 0 5z"/>
   <path fill="white" fill-rule="nonzero" d="M110 367l0 -12 17 0c0,1 0,2 1,3 0,1 0,1 0,2 0,1 0,2 0,3 1,1 1,2 1,4 0,2 -1,4 -2,6 0,2 -2,4 -3,5 -2,1 -4,2 -6,3 -2,1 -5,1 -7,1 -3,0 -5,0 -8,-1 -2,-1 -4,-2 -5,-3 -2,-2 -3,-4 -4,-6 -1,-2 -1,-4 -1,-7 0,-2 0,-3 0,-5 1,-2 1,-3 2,-4l4 1c0,1 -1,1 -1,2 0,1 0,1 -1,2 0,1 0,2 0,2 0,1 0,2 0,3 0,1 0,3 1,5 0,1 1,2 3,3 1,1 2,2 4,3 2,0 4,0 6,0 2,0 4,0 5,0 2,-1 4,-1 5,-2 1,-1 2,-2 3,-4 0,-1 1,-3 1,-5 0,-1 0,-2 0,-2 0,-1 0,-1 -1,-2 0,0 0,-1 0,-1 0,-1 0,-1 0,-2l-10 0 0 8 -4 0zm18 -46l0 5 -29 17 0 0c2,0 3,0 4,0 1,0 2,0 3,-1 1,0 2,0 3,0l19 0 0 5 -35 0 0 -6 29 -16 0 0c-1,0 -2,0 -4,0 0,0 -1,0 -1,0 -1,0 -1,0 -2,0 0,0 -1,0 -1,0 -1,0 -1,0 -2,0l-19 0 0 -4 35 0zm-18 -35c3,0 6,0 8,1 2,1 4,2 6,3 1,2 2,3 3,6 1,2 1,4 1,7l0 8 -35 0 0 -9c0,-3 1,-5 1,-7 1,-2 2,-3 4,-5 1,-1 3,-2 5,-3 2,-1 5,-1 7,-1zm1 4c-3,0 -5,1 -6,1 -2,1 -3,2 -5,3 -1,1 -1,2 -2,3 -1,2 -1,3 -1,5l0 5 27 0 0 -4c0,-4 -1,-7 -3,-9 -2,-2 -6,-4 -10,-4z"/>
   <path fill="white" fill-rule="nonzero" d="M93 245l0 -5 35 12 0 4 -35 12 0 -5 22 -7c2,-1 3,-1 4,-1 2,-1 3,-1 4,-1 -1,0 -2,-1 -4,-1 -1,-1 -2,-1 -4,-1l-22 -7zm35 -20l0 13 -3 0 -1 -4 -27 0 -1 4 -3 0 0 -13 3 0 1 4 27 0 1 -4 3 0zm0 -32l0 5 -29 17 0 0c1,0 3,0 4,0 1,-1 2,-1 3,-1 1,0 2,0 3,0l19 0 0 5 -35 0 0 -6 29 -16 0 0c-1,0 -3,0 -4,0 0,0 -1,0 -1,0 -1,0 -1,0 -2,0 0,0 -1,0 -1,0 -1,0 -1,0 -2,0l-19 0 0 -4 35 0z"/>
   <path fill="white" fill-rule="nonzero" d="M114 553l14 0 0 5 -35 0 0 -9c0,-4 1,-7 3,-9 1,-2 4,-3 7,-3 2,0 3,0 4,1 1,0 2,0 2,1 1,1 2,1 2,2 1,1 1,2 1,3l16 -10 0 6 -14 8 0 5zm-4 0l0 -3c0,-2 0,-3 0,-4 -1,-1 -1,-2 -2,-3 0,0 -1,-1 -2,-1 -1,0 -2,0 -3,0 -1,0 -2,0 -3,0 0,0 -1,1 -1,2 -1,0 -1,1 -2,2 0,1 0,2 0,4l0 3 13 0zm18 -46l0 5 -15 9 15 8 0 5 -18 -11 -17 10 0 -5 14 -7 -14 -8 0 -5 17 10 18 -11z"/>
   <path fill="white" fill-rule="nonzero" d="M128 444l0 4 -31 0 0 10 -4 0 0 -24 4 0 0 10 31 0zm0 -37l0 5 -15 8 15 9 0 4 -18 -10 -17 10 0 -5 14 -8 -14 -8 0 -4 17 10 18 -11z"/>
  </g>
 </g>
</svg>
