<svg xmlns="http://www.w3.org/2000/svg" width="1.484in" height="76.896" shape-rendering="geometricPrecision" text-rendering="geometricPrecision" image-rendering="optimizeQuality" fill-rule="evenodd" clip-rule="evenodd" viewBox="0 0 1484 801"><path fill="#404040" d="M1401 0v794l-2 6H101L0 700V99L101 0z"/><path fill="#CCC" d="M1401 794l-2 6H101L0 700v-7l101 101z"/><path fill="#B2B2B2" d="M101 800L0 700v-7l101 101z"/><path fill="#CCC" d="M1042.91 412.665v39.358h-35v-39.358z"/><path fill="#E5E5E5" d="M1042.91 448.056v3.97h-35v-3.97z"/><path fill="#CCC" d="M1042.91 346.787v39.358h-35v-39.358z"/><path fill="#E5E5E5" d="M1042.91 382.178v3.97h-35v-3.97z"/><path fill="#CCC" d="M1153.72 412.53v39.36h-35v-39.36z"/><path fill="#E5E5E5" d="M1153.72 447.922v3.97h-35v-3.97z"/><path fill="#CCC" d="M1153.72 346.15v39.358h-35V346.15z"/><path fill="#E5E5E5" d="M1153.72 381.54v3.97h-35v-3.97z"/><path fill="#E5E5E5" stroke="#999" stroke-width="3" d="M1144 345v108h-126V345z"/><path fill="#fff" stroke="#999" stroke-width="3" d="M1144 345v85l-23 23h-103V345z"/><path fill="#999" stroke="#666" stroke-width="3" d="M1125 399c0 24-20 44-44 44s-44-20-44-44 20-44 44-44 44 20 44 44z"/><path fill="#CCC" d="M1103 400c-1 11-10 20-21 21v-21h21z"/><path fill="#1B5BB3" d="M1103 398c-1-11-10-20-21-21v21h21z"/><path fill="#00A63D" d="M1059 398c1-11 10-20 21-21v21h-21z"/><path fill="#CC1414" d="M1059 400c1 11 10 20 21 21v-21h-21z"/><path fill="none" stroke="#999" stroke-width="3" d="M1103 399c0 12-10 22-22 22s-22-10-22-22 10-22 22-22 22 10 22 22z"/><path d="M218 172v63h-35v-63zm0 286v64h-35v-64zm756 74v63h-35v-63zm0-329v63h-35v-63zm0 164v64h-35v-64zm292-215v64h-35v-64zm118-78v142h-86V74zm-255 412h63v35h-63zm0-208h63v35h-63z" fill="#CCC"/><path fill="#fff" stroke="#8C8C8C" stroke-width="3" d="M248 545v79c0 4-3 8-8 8h-78c-4 0-7-4-7-8v-79c0-4 3-8 7-8h78c5 0 8 4 8 8z"/><path fill="#fff" stroke="#8C8C8C" stroke-width="3" d="M228 585c0 15-12 27-27 27s-27-12-27-27 12-28 27-28 27 13 27 28z"/><path fill="#C93" d="M208 585c0 4-3 7-7 7s-7-3-7-7 3-7 7-7 7 3 7 7z"/><path fill="#CCC" d="M60 276v245H22V276z"/><path fill="#999" d="M60 241v35H22v-35zm0 280v35H22v-35z"/><path fill="#C93" d="M60 291v14H22v-14z"/><path fill="#B2B2B2" d="M1086 750c0 19-15 34-35 34-19 0-34-15-34-34 0-20 15-35 34-35 20 0 35 15 35 35z"/><path fill="#8C8C8C" d="M1076 725c-9 4-16 12-25 25-10-13-18-24-24-25 7-7 15-10 24-10 10 0 18 3 25 10z"/><path fill="#fff" d="M1058 750c0 3-3 6-7 6-3 0-6-3-6-6 0-4 3-7 6-7 4 0 7 3 7 7z"/><path fill="#B2B2B2" d="M886 750c0 19-15 34-35 34-19 0-34-15-34-34 0-20 15-35 34-35 20 0 35 15 35 35z"/><path fill="#8C8C8C" d="M876 725c-9 4-16 12-25 25-10-13-18-24-24-25 7-7 15-10 24-10 10 0 18 3 25 10z"/><path fill="#fff" d="M858 750c0 3-3 6-7 6-3 0-6-3-6-6 0-4 3-7 6-7 4 0 7 3 7 7z"/><path fill="#B2B2B2" d="M786 750c0 19-15 34-35 34-19 0-34-15-34-34 0-20 15-35 34-35 20 0 35 15 35 35z"/><path fill="#8C8C8C" d="M776 725c-9 4-16 12-25 25-10-13-18-24-24-25 7-7 15-10 24-10 10 0 18 3 25 10z"/><path fill="#fff" d="M758 750c0 3-3 6-7 6-3 0-6-3-6-6 0-4 3-7 6-7 4 0 7 3 7 7z"/><path fill="#B2B2B2" d="M686 750c0 19-15 34-35 34-19 0-34-15-34-34 0-20 15-35 34-35 20 0 35 15 35 35z"/><path fill="#8C8C8C" d="M676 725c-9 4-16 12-25 25-10-13-18-24-24-25 7-7 15-10 24-10 10 0 18 3 25 10z"/><path fill="#fff" d="M658 750c0 3-3 6-7 6-3 0-6-3-6-6 0-4 3-7 6-7 4 0 7 3 7 7z"/><path fill="#B2B2B2" d="M586 750c0 19-15 34-35 34-19 0-34-15-34-34 0-20 15-35 34-35 20 0 35 15 35 35z"/><path fill="#8C8C8C" d="M576 725c-9 4-16 12-25 25-10-13-18-24-24-25 7-7 15-10 24-10 10 0 18 3 25 10z"/><path fill="#fff" d="M558 750c0 3-3 6-7 6-3 0-6-3-6-6 0-4 3-7 6-7 4 0 7 3 7 7z"/><path fill="#B2B2B2" d="M486 750c0 19-15 34-35 34-19 0-34-15-34-34 0-20 15-35 34-35 20 0 35 15 35 35z"/><path fill="#8C8C8C" d="M476 725c-9 4-16 12-25 25-10-13-18-24-24-25 7-7 15-10 24-10 10 0 18 3 25 10z"/><path fill="#fff" d="M458 750c0 3-3 6-7 6-3 0-6-3-6-6 0-4 3-7 6-7 4 0 7 3 7 7z"/><path fill="#B2B2B2" d="M386 750c0 19-15 34-35 34-19 0-34-15-34-34 0-20 15-35 34-35 20 0 35 15 35 35z"/><path fill="#8C8C8C" d="M376 725c-9 4-16 12-25 25-10-13-18-24-24-25 7-7 15-10 24-10 10 0 18 3 25 10z"/><path fill="#fff" d="M358 750c0 3-3 6-7 6-3 0-6-3-6-6 0-4 3-7 6-7 4 0 7 3 7 7z"/><path fill="#B2B2B2" d="M186 750c0 19-15 34-35 34-19 0-34-15-34-34 0-20 15-35 34-35 20 0 35 15 35 35z"/><path fill="#8C8C8C" d="M176 725c-9 4-16 12-25 25-10-13-18-24-24-25 7-7 15-10 24-10 10 0 18 3 25 10z"/><path fill="#fff" d="M158 750c0 3-3 6-7 6-3 0-6-3-6-6 0-4 3-7 6-7 4 0 7 3 7 7z"/><path fill="#B2B2B2" d="M286 750c0 19-15 34-35 34-19 0-34-15-34-34 0-20 15-35 34-35 20 0 35 15 35 35z"/><path fill="#8C8C8C" d="M276 725c-9 4-16 12-25 25-10-13-18-24-24-25 7-7 15-10 24-10 10 0 18 3 25 10z"/><path fill="#fff" d="M258 750c0 3-3 6-7 6-3 0-6-3-6-6 0-4 3-7 6-7 4 0 7 3 7 7z"/><path fill="#B2B2B2" d="M986 750c0 19-15 34-35 34-19 0-34-15-34-34 0-20 15-35 34-35 20 0 35 15 35 35z"/><path fill="#8C8C8C" d="M976 725c-9 4-16 12-25 25-10-13-18-24-24-25 7-7 15-10 24-10 10 0 18 3 25 10z"/><path fill="#fff" d="M958 750c0 3-3 6-7 6-3 0-6-3-6-6 0-4 3-7 6-7 4 0 7 3 7 7z"/><path fill="#B2B2B2" d="M1186 750c0 19-15 34-35 34-19 0-34-15-34-34 0-20 15-35 34-35 20 0 35 15 35 35z"/><path fill="#8C8C8C" d="M1176 725c-9 4-16 12-25 25-10-13-18-24-24-25 7-7 15-10 24-10 10 0 18 3 25 10z"/><path fill="#fff" d="M1158 750c0 3-3 6-7 6-3 0-6-3-6-6 0-4 3-7 6-7 4 0 7 3 7 7z"/><path fill="#B2B2B2" d="M1286 750c0 19-15 34-35 34-19 0-34-15-34-34 0-20 15-35 34-35 20 0 35 15 35 35z"/><path fill="#8C8C8C" d="M1276 725c-9 4-16 12-25 25-10-13-18-24-24-25 7-7 15-10 24-10 10 0 18 3 25 10z"/><path fill="#fff" d="M1258 750c0 3-3 6-7 6-3 0-6-3-6-6 0-4 3-7 6-7 4 0 7 3 7 7z"/><path fill="#B2B2B2" d="M1086 50c0 19-15 34-35 34-19 0-34-15-34-34 0-20 15-35 34-35 20 0 35 15 35 35z"/><path fill="#8C8C8C" d="M1076 25c-9 4-16 12-25 25-10-13-18-24-24-25 7-7 15-10 24-10 10 0 18 3 25 10z"/><path fill="#fff" d="M1058 50c0 3-3 6-7 6-3 0-6-3-6-6 0-4 3-7 6-7 4 0 7 3 7 7z"/><path fill="#B2B2B2" d="M886 50c0 19-15 34-35 34-19 0-34-15-34-34 0-20 15-35 34-35 20 0 35 15 35 35z"/><path fill="#8C8C8C" d="M876 25c-9 4-16 12-25 25-10-13-18-24-24-25 7-7 15-10 24-10 10 0 18 3 25 10z"/><path fill="#fff" d="M858 50c0 3-3 6-7 6-3 0-6-3-6-6 0-4 3-7 6-7 4 0 7 3 7 7z"/><g><path fill="#B2B2B2" d="M786 50c0 19-15 34-35 34-19 0-34-15-34-34 0-20 15-35 34-35 20 0 35 15 35 35z"/><path fill="#8C8C8C" d="M776 25c-9 4-16 12-25 25-10-13-18-24-24-25 7-7 15-10 24-10 10 0 18 3 25 10z"/><path fill="#fff" d="M758 50c0 3-3 6-7 6-3 0-6-3-6-6 0-4 3-7 6-7 4 0 7 3 7 7z"/></g><g><path fill="#B2B2B2" d="M686 50c0 19-15 34-35 34-19 0-34-15-34-34 0-20 15-35 34-35 20 0 35 15 35 35z"/><path fill="#8C8C8C" d="M676 25c-9 4-16 12-25 25-10-13-18-24-24-25 7-7 15-10 24-10 10 0 18 3 25 10z"/><path fill="#fff" d="M658 50c0 3-3 6-7 6-3 0-6-3-6-6 0-4 3-7 6-7 4 0 7 3 7 7z"/></g><g><path fill="#B2B2B2" d="M586 50c0 19-15 34-35 34-19 0-34-15-34-34 0-20 15-35 34-35 20 0 35 15 35 35z"/><path fill="#8C8C8C" d="M576 25c-9 4-16 12-25 25-10-13-18-24-24-25 7-7 15-10 24-10 10 0 18 3 25 10z"/><path fill="#fff" d="M558 50c0 3-3 6-7 6-3 0-6-3-6-6 0-4 3-7 6-7 4 0 7 3 7 7z"/></g><g><path fill="#B2B2B2" d="M486 50c0 19-15 34-35 34-19 0-34-15-34-34 0-20 15-35 34-35 20 0 35 15 35 35z"/><path fill="#8C8C8C" d="M476 25c-9 4-16 12-25 25-10-13-18-24-24-25 7-7 15-10 24-10 10 0 18 3 25 10z"/><path fill="#fff" d="M458 50c0 3-3 6-7 6-3 0-6-3-6-6 0-4 3-7 6-7 4 0 7 3 7 7z"/></g><g><path fill="#B2B2B2" d="M386 50c0 19-15 34-35 34-19 0-34-15-34-34 0-20 15-35 34-35 20 0 35 15 35 35z"/><path fill="#8C8C8C" d="M376 25c-9 4-16 12-25 25-10-13-18-24-24-25 7-7 15-10 24-10 10 0 18 3 25 10z"/><path fill="#fff" d="M358 50c0 3-3 6-7 6-3 0-6-3-6-6 0-4 3-7 6-7 4 0 7 3 7 7z"/></g><g><path fill="#B2B2B2" d="M186 50c0 19-15 34-35 34-19 0-34-15-34-34 0-20 15-35 34-35 20 0 35 15 35 35z"/><path fill="#8C8C8C" d="M176 25c-9 4-16 12-25 25-10-13-18-24-24-25 7-7 15-10 24-10 10 0 18 3 25 10z"/><path fill="#fff" d="M158 50c0 3-3 6-7 6-3 0-6-3-6-6 0-4 3-7 6-7 4 0 7 3 7 7z"/></g><g><path fill="#B2B2B2" d="M286 50c0 19-15 34-35 34-19 0-34-15-34-34 0-20 15-35 34-35 20 0 35 15 35 35z"/><path fill="#8C8C8C" d="M276 25c-9 4-16 12-25 25-10-13-18-24-24-25 7-7 15-10 24-10 10 0 18 3 25 10z"/><path fill="#fff" d="M258 50c0 3-3 6-7 6-3 0-6-3-6-6 0-4 3-7 6-7 4 0 7 3 7 7z"/></g><g><path fill="#B2B2B2" d="M986 50c0 19-15 34-35 34-19 0-34-15-34-34 0-20 15-35 34-35 20 0 35 15 35 35z"/><path fill="#8C8C8C" d="M976 25c-9 4-16 12-25 25-10-13-18-24-24-25 7-7 15-10 24-10 10 0 18 3 25 10z"/><path fill="#fff" d="M958 50c0 3-3 6-7 6-3 0-6-3-6-6 0-4 3-7 6-7 4 0 7 3 7 7z"/></g><g><path fill="#B2B2B2" d="M1186 50c0 19-15 34-35 34-19 0-34-15-34-34 0-20 15-35 34-35 20 0 35 15 35 35z"/><path fill="#8C8C8C" d="M1176 25c-9 4-16 12-25 25-10-13-18-24-24-25 7-7 15-10 24-10 10 0 18 3 25 10z"/><path fill="#fff" d="M1158 50c0 3-3 6-7 6-3 0-6-3-6-6 0-4 3-7 6-7 4 0 7 3 7 7z"/></g><g><path fill="#B2B2B2" d="M1286 50c0 19-15 34-35 34-19 0-34-15-34-34 0-20 15-35 34-35 20 0 35 15 35 35z"/><path fill="#8C8C8C" d="M1276 25c-9 4-16 12-25 25-10-13-18-24-24-25 7-7 15-10 24-10 10 0 18 3 25 10z"/><path fill="#fff" d="M1258 50c0 3-3 6-7 6-3 0-6-3-6-6 0-4 3-7 6-7 4 0 7 3 7 7z"/></g><g><path fill="#00A63D" d="M921 134v532H279V134z"/><path fill="#C93" d="M913 142v516H652v-8H451v8H286V142z"/><path fill="#B2B2B2" d="M903 150v500H296V150z"/><path fill="#CCC" d="M903 525v125H296V271c115 221 455 29 607 254z"/><path fill="none" stroke="#E5E5E5" stroke-width="3" d="M422 535c0 15-12 27-27 27s-27-12-27-27 12-27 27-27 27 12 27 27z"/><path fill="#E5E5E5" fill-rule="nonzero" d="M487 416c-2 0-4 0-6 1s-3 2-4 3l-3 6c-1 2-1 4-1 7s0 5 1 7c0 2 1 4 2 6 2 1 3 2 5 3 1 1 3 1 6 1 1 0 3 0 5-1 1 0 3 0 4-1v5c-1 0-1 1-2 1h-2c-1 0-2 1-3 1h-3c-3 0-6-1-8-2-3-1-5-2-6-4-2-2-3-4-4-7 0-3-1-6-1-9s1-6 2-9c0-3 2-5 3-7 2-2 4-3 6-4 3-1 6-2 9-2 2 0 4 0 6 1 2 0 3 1 5 2l-3 4c-1 0-2-1-3-1-2-1-4-1-5-1zm34 0c-2 0-4 0-5 1-2 1-3 2-5 3-1 2-2 4-2 6-1 2-1 4-1 7v7l3 6c1 1 3 2 4 3 2 1 4 1 6 1s4 0 5-1c2 0 3 0 5-1v5c-1 0-2 1-3 1h-2c-1 0-2 1-3 1h-3c-3 0-6-1-8-2s-4-2-6-4c-1-2-2-4-3-7s-1-6-1-9 0-6 1-9 2-5 4-7c1-2 4-3 6-4s5-2 8-2c2 0 4 0 6 1 2 0 4 1 5 2l-2 4c-1 0-2-1-4-1-1-1-3-1-5-1zm41 6c0 1 0 2-1 4 0 1-1 2-2 3 0 0-1 1-3 2-1 0-2 1-3 1 3 0 6 2 8 3 1 2 2 4 2 7 0 2 0 4-1 5 0 2-1 3-3 4-1 1-2 2-4 3-2 0-5 1-7 1s-4 0-6-1c-2 0-4-1-6-2v-4c2 0 4 1 6 2h10c1-1 3-1 3-2 1-1 2-2 2-3 1-1 1-2 1-3s0-2-1-3c0-1-1-2-2-3-1 0-2-1-4-1h-8v-5h4c1 0 3 0 4-1 1 0 2 0 3-1s1-2 2-3c0-1 1-2 1-3s-1-2-1-3c0 0-1-1-1-2-1 0-2-1-3-1h-3c-2 0-4 0-5 1-2 0-3 1-5 2l-2-4s1-1 2-1c1-1 2-1 3-2h3c2-1 3-1 4-1 2 0 4 0 6 1 1 0 3 1 4 2s2 2 2 3c1 2 1 3 1 5zm35 11c0 3-1 6-1 9-1 3-1 5-2 7-2 2-3 3-5 4-1 1-3 2-6 2-2 0-4-1-6-2s-3-2-4-4-2-4-3-7v-18c1-3 2-5 3-7s2-3 4-4 4-2 6-2 4 1 6 2 3 2 4 4 2 4 3 7c0 2 1 5 1 9zm-22 0v7c1 3 1 4 2 6 0 1 1 2 2 3s3 1 4 1c2 0 3 0 4-1s2-2 2-3c1-2 2-3 2-5v-16c0-2-1-4-2-5 0-2-1-3-2-3-1-1-2-1-4-1-1 0-3 0-4 1-1 0-2 1-2 3-1 1-1 3-2 5v8zm54 0v9c-1 3-2 5-3 7s-2 3-4 4-4 2-6 2c-3 0-5-1-6-2-2-1-3-2-4-4-2-2-2-4-3-7 0-3-1-6-1-9 0-4 1-7 1-9 1-3 1-5 2-7s3-3 5-4c1-1 3-2 6-2 2 0 4 1 6 2 1 1 3 2 4 4s2 4 3 7v9zm-21 0v7c0 3 1 4 1 6l3 3c1 1 2 1 4 1 1 0 2 0 4-1 1-1 1-2 2-3 1-2 1-3 2-5v-16c-1-2-1-4-2-5-1-2-1-3-2-3-2-1-3-1-4-1-2 0-3 0-4 1-1 0-2 1-3 3 0 1-1 3-1 5v8zm54 0c0 3 0 6-1 9 0 3-1 5-2 7s-3 3-4 4c-2 1-4 2-7 2-2 0-4-1-6-2-1-1-3-2-4-4s-2-4-2-7c-1-3-1-6-1-9 0-4 0-7 1-9 0-3 1-5 2-7s3-3 4-4c2-1 4-2 6-2 3 0 5 1 6 2 2 1 4 2 5 4s2 4 2 7c1 2 1 5 1 9zm-22 0c0 3 0 5 1 7 0 3 1 4 1 6l3 3c1 1 2 1 3 1 2 0 3 0 4-1l3-3c0-2 1-3 1-5 1-3 1-5 1-8s0-6-1-8c0-2-1-4-1-5-1-2-2-3-3-3-1-1-2-1-4-1-1 0-2 0-3 1-1 0-2 1-3 3 0 1-1 3-1 5-1 2-1 5-1 8zm48 21l-12-37h-1c1 1 1 3 1 4v33h-5v-42h8l12 34 12-34h8v42h-6v-29c0-1 0-3 1-4v-4h-1l-12 37h-5zm69-21c0 3-1 6-1 9-1 3-2 5-4 7-1 2-3 3-6 4-2 1-5 2-8 2s-5-1-8-2c-2-1-4-2-5-4-2-2-3-5-4-7-1-3-1-6-1-9s0-6 1-9 2-5 4-7c1-2 3-3 5-4 3-1 5-2 9-2 3 0 5 1 7 2 3 1 5 2 6 4 2 2 3 4 4 7 0 3 1 6 1 9zm-31 0c0 3 0 5 1 7 0 2 1 4 2 5 1 2 2 3 4 4 1 1 3 1 5 1 3 0 5 0 6-1 2-1 3-2 4-4 1-1 2-3 2-5 1-2 1-4 1-7s0-5-1-7c0-2-1-4-2-6-1-1-2-2-4-3-1-1-3-1-5-1-3 0-5 0-6 1-2 1-3 2-4 3-1 2-2 4-2 6-1 2-1 4-1 7zm71 0c0 3 0 6-1 9s-2 5-4 7c-2 1-4 3-6 4-3 1-6 1-9 1h-11v-42h12c3 0 6 0 8 1s5 2 6 4c2 2 3 4 4 7 1 2 1 5 1 9zm-5 0c0-3-1-6-1-8-1-2-2-3-3-5-1-1-3-2-4-3-2 0-4-1-7-1h-5v34h4c5 0 9-2 12-5 2-3 4-7 4-12zm-306 82h-5v-34c0-1 1-2 1-3l-1 1-1 1-1 1s-1 0-1 1l-4 3-3-3 11-9h4v42zm42 0h-27v-4l10-11 4-4c1-2 2-3 3-4s2-3 2-4 1-3 1-4-1-2-1-3-1-2-1-2c-1-1-2-1-2-2h-3c-2 0-4 0-5 1-2 1-3 2-4 3l-3-4 2-2c1 0 2-1 3-1 1-1 2-1 3-1s3-1 4-1c2 0 3 1 5 1 1 1 3 1 4 2s2 3 2 4c1 1 1 3 1 5 0 1 0 3-1 4 0 2-1 3-2 5-1 1-2 3-3 4-1 2-3 3-4 5l-8 8v1h20v4zm35-9h-6v9h-6v-9h-19v-5l19-28h6v28h6v5zm-12-5v-14c0-1 1-2 1-3v-6c-1 1-1 1-1 2l-1 1v1l-1 1-12 18h14zm29-29c2 0 3 1 5 1 1 0 3 1 4 2s2 2 2 3c1 1 1 3 1 5v3c-1 1-1 2-2 3l-2 2c-1 1-2 1-3 2 1 1 2 1 3 2s2 1 3 2 1 2 2 3c0 2 1 3 1 4 0 2-1 4-1 5-1 2-2 3-3 4s-3 2-4 2c-2 1-4 1-6 1s-4 0-5-1c-2 0-3-1-5-2-1-1-2-2-2-4-1-1-1-3-1-4 0-2 0-3 1-4 0-2 1-3 1-4 1 0 2-1 3-2s2-1 3-2c-1 0-2-1-3-2 0-1-1-1-2-2 0-1-1-2-1-3-1-1-1-2-1-4 0-1 1-3 1-4l3-3c1-1 2-2 4-2 1 0 3-1 4-1zm-8 33c0 1 0 2 1 2 0 1 0 2 1 3 1 0 1 1 2 1h8c1 0 2-1 2-1 1-1 2-2 2-3v-5c-1-1-1-2-2-3l-2-2c-1 0-2-1-4-1l-1-1c-2 1-4 3-5 4-1 2-2 3-2 6zm8-28c-2 0-4 0-5 1s-2 3-2 5c0 1 1 2 1 3 0 0 1 1 1 2 1 0 2 1 3 1 0 1 1 1 2 2 1-1 2-1 3-2 1 0 1-1 2-1 1-1 1-2 2-2v-3c0-2-1-4-2-5s-3-1-5-1zm46 17v9c-1 3-2 5-3 7s-2 4-4 4c-2 1-4 2-6 2s-4-1-6-2c-2 0-3-2-4-4s-2-4-3-7c0-2-1-5-1-9 0-3 1-6 1-9 1-3 1-5 2-7 2-2 3-3 5-4 1-1 3-2 6-2 2 0 4 1 6 2s3 2 4 4 2 4 3 7v9zm-21 0v8c0 2 1 4 2 5 0 2 1 3 2 3 1 1 2 1 4 1 1 0 3 0 4-1 1 0 2-1 2-3 1-1 1-3 2-5v-15c-1-3-1-4-2-6 0-1-1-2-2-3s-3-1-4-1c-2 0-3 0-4 1s-2 2-2 3c-1 2-2 3-2 6v7zm71 12h-6v9h-5v-9h-20v-5l20-28h5v28h6v5zm-11-5v-23 2c-1 0-1 0-1 1l-1 1c0 1 0 1-1 1l-12 18h15zm28-12c2 0 4 1 5 1 2 1 4 2 5 3l3 3c0 2 1 4 1 6s-1 4-1 6c-1 1-2 3-3 4s-3 2-5 3-4 1-7 1h-2c-1 0-2 0-3-1h-3c0-1-1-1-2-1v-5c1 0 2 1 2 1 1 0 2 1 3 1h10c1 0 2-1 3-2 1 0 1-1 2-3v-4c0-2 0-4-2-6-2-1-4-2-8-2h-5l-1 1-3-2 2-20h20v5h-16l-1 12h3c1-1 2-1 3-1z"/><path fill="#E5E5E5" d="M528 363c-2-1-4-1-6-2-1 1-2 1-3 1 0-3-1-5-2-8l1-1c1 1 1 1 1 2 5 3 16 9 17-1-3-4-8-4-12-5-5-3-6-4-6-11 3-7 11-6 17-4 1-1 2-1 3-1 0 2 1 5 2 8-1-1-5-3-7-4-3-1-13-1-8 5 8 4 20 3 16 15-3 5-7 6-13 6zm-119-89c0-2 0-7 1-8h9c0 2-1 5-1 8h-9zm12 4c0-1 0-1 18 0v13c1 3 2 6 5 8v19c-13 3-26 11-27 25 0 3 1 6 1 8-17 6-25-16-32-28-9-10-11 9-20 0l-6-12c-4-5-9-8-11-15h27v-36h22v18h6c-1 3-2 7-2 11-2 0-5 0-7 1-1 3-1 6-2 10h6c-1 8-3 16-3 24 1 2 2 3 5 4h16c0-1 0-1 2-11-2 0-4 0-6-2l3-15h7c0-4 1-7 2-10-2 0-4-1-7-1 1-4 2-7 3-11zm39 0c0-1 0-1 32-1v1c1 2 2 5 2 7-1 0-1 0-3-2-2-1-10-2-11 0v30c0 2 1 2 3 3v1h-13c0-2 2-3 3-4v-30c-4-3-10-1-14 2h-1c1-3 2-5 2-7zm28 9h23c1 2 1 4 2 6v1c-2-1-4-3-7-3h-9v8c3 0 10 2 11-2h2v8h-1c-1 0-1-1-3-2h-9c0 3-1 10 1 10h8c2 0 3 0 5-1 1-1 2-2 4-2l-3 6c-8 1-16 1-24 1v-1c0-1 1-1 2-1 1-7 0-17 0-24 0-2-1-2-2-3v-1zm-67-9h18m-39 39c3-13 5-26 8-39h9c-3 13-5 26-8 38v1h-9zm114-30h15v1c-2 1-2 1-3 1 1 3 3 6 5 9 2-2 7-8 3-10 0 0 0-1 1-1h10v1c-5 1-9 9-11 13 2 5 6 9 10 14 3 0 11-24 12-28h7l10 27c1 1 1 1 3 2v1h-12v-1c3-1 1-5 0-7h-12c-1 2-2 3-1 6 0 0 1 0 1 1 0 0 0 1 1 1h-21c0-1 1-2 2-2 0-2-4-9-6-10-2 3-8 9-3 11v1h-11v-1c5-2 9-9 12-13 0-4-7-14-12-15v-1zm40 18c-1-1 3-10 4-12 1 0 4 10 5 12h-9zm32 13c-2-1-6-3-7-1h-1l-3-9c2 0 5 3 7 4 3 1 5 2 9 1 9-6-3-9-9-10-10-5-7-14 3-16 4 0 7 1 11 0 0 3 1 5 2 8-2 0-5-3-7-4-4-1-12-1-9 5 7 3 16 2 18 10 0 10-6 11-14 12zm-117 5h14v1c-2 1-2 2-3 3v32c0 1 1 2 3 2v2c-5-1-9-1-14-1v-1c2 0 3-1 4-2v-32c-1-2-2-2-4-3v-1zm267 10c0-1 24-1 24 0 1 5 2 6 2 7 0 0-1 0-1 1-3-4-5-5-10-4v23c2 1 2 1 3 1v2h-13v-2c2 0 2 0 3-1v-24c-5 0-6 0-9 5h-1l2-8zm-12 0c0-1 0-1 9 0v1c-2 0-2 1-2 3-1 9-1 17-1 26l-1-1c-6-7-13-14-19-21v19c1 0 2 1 2 2v1h-9l-1-1c2-1 3-2 3-4v-21c0-2-1-3-3-3 0-1 0-1 1-1 0-1 8-1 8 0 5 5 10 11 15 16 0-4 1-10 0-15h-2v-1zm-90 0c11-1 11-1 11 0l8 18c3-6 6-12 8-18v-1l11 1c-1 1-2 1-3 3v23c1 1 2 2 3 2v2c-4-1-8-1-12-1v-1c1 0 1 0 2-1 0-1 0-1 1-2-1-6-1-12-1-18-3 8-6 15-10 23h-1c-3-8-6-15-10-23v18c0 2 1 3 2 3v2h-9v-2c1 0 2-1 3-2v-23c-1-2-2-2-3-3zm-12 0c0-1 10-1 10 0s-1 1-2 1c-2 7-1 15-1 22-4 9-20 9-25 1 0-1 0-2-1-3v-18c0-1-1-2-2-2v-1c0-1 12-1 12 0l-3 3v17c2 8 13 8 15 0v-16c-1-2-1-2-3-3v-1zm-52 0c0-1 18-1 18 0 6 0 12 4 9 11-2 3-2 3-4 4-2 0-2 0-2 1 1 1 2 2 3 2 3 5 4 8 9 10v1c-10 3-12-3-16-11-3-1-4-1-7-1v8c0 2 1 3 3 3v2h-13v-2h1c1 0 1-1 2-2v-23c0-1-1-1-2-2l-1-1zm-63 0c0-1 0-1 9 0v1c-2 0-2 1-3 3v26s-1 0-1-1c-7-7-13-14-19-21-1 17-1 17 0 19 1 0 1 1 2 2v1h-10v-1c2-1 2-2 3-3v-23c-1-1-1-2-3-2v-1c0-1 9-1 9 0 5 5 10 11 15 16v-15h-2v-1zm168 0h23c2 6 2 6 2 7-1-1-2-2-6-4-3 0-6 0-10 1v8h8c1 0 2 0 3-1 0-1 0-1 1-1s1 8 0 8-1-1-2-2h-10v9c4 2 9 1 13 0 2-1 3-2 4-3h1c-1 3-2 5-3 7-8 0-16 0-24 1v-2c1 0 1 0 2-1 0-8 2-18 0-26-1 0-2 0-2-1zm-123 26v-22c-6 0-6-1-10 3 0 0 0 1-1 1 1-3 2-6 3-8h23c2 6 3 7 3 7 0 1-1 1-1 1-3-4-5-5-10-5v23c0 2 1 2 3 2v2h-13v-1c2-1 2-2 3-3zm222 4c-6-2-6-2-7-1v1h-2c-2-9-2-9-2-10h1c4 4 14 10 18 3 0-11-23-3-17-19 4-6 10-6 16-3 1-1 1-1 1-2 0 1 1 1 2 1 0 2 1 5 1 7v1c-4-3-13-8-16-2 0 1 1 2 1 2 9 6 17 2 17 15-2 6-7 6-13 7zm-194-16v-9c0-5 17 0 9 7-3 1-6 1-9 2z"/></g><g><path fill="#999" d="M1346 402h35.173v78.157H1346z"/><path fill="#CBA580" d="M1375 419v46c0 1-1 2-2 2h-20s-1-1-1-2v-49c0-1 1-2 1-2h5l1-1v-3h1v3c0 1-1 2-2 2h-5v51h20c1 0 1 0 1-1v-46c0-1 0-1-1-1h-18s-1 0-1 1v43c0 1 1 1 1 1h16c1 0 1 0 1-1v-41h-15c-1 0-1 0-1 1v37s0 1 1 1h13l1-1v-34c0-1-1-1-1-1h-12v33h11c1 0 1 0 1 1h-12s-1-1-1-2v-31c0-1 1-2 1-2h12c1 0 1 1 1 2v34c0 1 0 2-1 2h-13c-1 0-2-1-2-2v-37c0-1 1-2 2-2h15c1 0 1 1 1 2v40c0 1-1 2-2 2h-16c-1 0-2-1-2-2v-43c0-1 1-2 2-2h18c1 0 2 1 2 2z"/><path fill="#fff" fill-opacity=".2" d="M1346 402v78z"/><path fill="#dcdcdc" d="M1347 472h-1v8h35v-8c-3-1-7-2-10-2-4 0-21 1-24 2zm24-60c3 0 7-1 10-2v-8h-35v8h1c3 1 20 2 24 2z"/><path fill="#fff" fill-opacity=".502" d="M1346 472v8zm0-70v8z"/><path fill="#666" d="M1220 443h17.04v13.647H1220z"/><path fill="#999" d="M1220 455h15.122v1.24H1220z"/><path fill="#666" d="M1220 418h17.04v13.647H1220z"/><path fill="#999" d="M1220 430h15.122v1.24H1220z"/><path fill="#666" d="M1220 392h17.04v13.647H1220z"/><path fill="#999" d="M1220 405h15.122v1.225H1220z"/><path fill="#666" d="M1220 367h17.04v13.647H1220z"/><path fill="#999" d="M1220 379h15.122v1.214H1220z"/><path fill="#666" d="M1220 341h17.04v13.637H1220z"/><path fill="#999" d="M1220 354h15.122v1.214H1220z"/><path fill="#B3B3B3" d="M1467 269v260h-234V269z"/><path fill="#CCC" d="M1233 269h1.793v259.826H1233z"/><path fill="#333" d="M1233 328h215v142h-215z"/><path fill="#B3B3B3" d="M1462 532h7l15 9v5z"/><path fill="#CCC" d="M1469 532h7l8 9z"/><path fill="#B3B3B3" d="M1484 252v5l-15 9h-7z"/><path fill="#CCC" d="M1484 257l-8 9h-7z"/><path fill="#F2F2F2" d="M1453 338h8.937v6.592H1453zm0 29h8.937v6.602H1453zm0 29h8.937v6.576H1453zm0 28h8.937v6.576H1453zm0 29h8.937v6.576H1453z"/><path fill="gray" d="M1453 458h8.937v1.324H1453zm0-28h8.937v1.34H1453zm0-29h8.937v1.35H1453zm0-29h8.937v1.35H1453zm0-29h8.937v1.35H1453z"/><path fill="#4D4D4D" d="M1465 467v-7h-6v-7h6v-22h-6v-7h6v-22h-6v-6h6v-22h-6v-7h6v-22h-6v-7h6v-8c0-1-1-2-2-2h-15c-1 0-2 1-2 2v138c0 1 1 2 2 2h15c1 0 2-1 2-2v-1z"/><path fill="#CCC" d="M1241 532l-8-3v-35s1 32 4 33c2 1 4-2 4-2v7zm0-266l-8 3v35s1-32 4-33c2-1 4 2 4 2v-7z"/><path fill="#E6E6E6" d="M1233 313h22v22h-22v6h8v116h-8v7h22v22h-22v46h234V266h-234v47zm191 151h11v22h-12c-4 6-10 10-18 10s-15-3-19-10h-62v-22h62c4-7 11-11 19-11s15 4 19 11zm0-150h11v22h-12c-4 6-10 9-18 9s-15-2-19-9h-62v-22h62c4-7 11-12 19-12s15 5 19 12z"/><path fill="#F2F2F2" d="M1467 526v6h-226v-21z"/><path fill="#999" d="M1467 266l-151 8-75 8v-16z"/><path fill="#CCC" d="M1324 464h1.808v21.963H1324zm0-150h1.808v21.938H1324z"/><path fill="#B3B3B3" d="M1456 279h9.098v239.712H1456z"/><path fill="#CCC" d="M1463 279h4.315v239.712H1463z"/></g><g><path fill="#C93" d="M1321 779l30-19 28 18-18-28 18-29-28 18-28-17 18 28z"/><path fill="#C93" d="M1332 754l3-4-3-5-21 5zm19-20l-4-3 4-21 5 21-5 3zm-5 35l5-3 5 3-5 21zm24-14l21-5-21-5-3 5z"/><path fill="#E6AB00" d="M1321 779l30-19 28 18-28-19zm11-25l3-4-3 3-21-3zm15-23l4 2 5-2-5 3z"/><path fill="#E6AB00" d="M1346 769l5 18 5-18-5 21zm24-14l21-5-21 4-3-4zm-9-5l18-29-19 29zm-19 0l-19-28 18 28z"/></g><g><path fill="#CCC" d="M1381.25 606.374v63.26h-35.003v-63.26z"/><path fill="#E5E5E5" d="M1378.1 618.48v39.043h-28.7V618.48z"/><path fill="#1B5BB3" d="M1369.27 630.49v15.025h-11.043V630.49z"/></g><g><path fill="#CCC" d="M1069.79 557.626v22.516h-35v-22.516z"/><path fill="#E5E5E5" d="M1069.79 577.87v2.268h-35v-2.268z"/><path fill="#CCC" d="M1069.79 618.685V641.2h-35v-22.515z"/><path fill="#E5E5E5" d="M1069.79 638.93v2.267h-35v-2.268z"/><path fill="#CCC" d="M1196.02 618.882v22.516h-35v-22.516z"/><path fill="#E5E5E5" d="M1196.02 639.126v2.268h-35v-2.268z"/><path fill="#CCC" d="M1196.02 557.626v22.516h-35v-22.516z"/><path fill="#E5E5E5" d="M1196.02 577.87v2.268h-35v-2.268z"/><path fill="#999" d="M1186 541v118h-141V541z"/><path fill="#B2B2B2" d="M1186 656v3h-141v-3z"/><path fill="#8C8C8C" d="M1186 541v3h-141v-3z"/><path d="M1150 600c0 19-15 35-34 35s-35-16-35-35 16-35 35-35 34 16 34 35z"/><path fill="#404040" d="M1147 598c0 18-14 32-31 32-18 0-32-14-32-32 0-17 14-31 32-31 17 0 31 14 31 31z"/><path fill="#999" d="M1147 598c0 18-14 32-31 32-18 0-32-14-32-32 6 41 58 41 63 0z"/></g><g><path fill="#CCC" d="M1069.79 157.626v22.516h-35v-22.516z"/><path fill="#E5E5E5" d="M1069.79 177.87v2.268h-35v-2.268z"/><path fill="#CCC" d="M1069.79 218.685V241.2h-35v-22.515z"/><path fill="#E5E5E5" d="M1069.79 238.93v2.267h-35v-2.268z"/><path fill="#CCC" d="M1196.02 218.882v22.516h-35v-22.516z"/><path fill="#E5E5E5" d="M1196.02 239.126v2.268h-35v-2.268z"/><path fill="#CCC" d="M1196.02 157.626v22.516h-35v-22.516z"/><path fill="#E5E5E5" d="M1196.02 177.87v2.268h-35v-2.268z"/><path fill="#999" d="M1186 141v118h-141V141z"/><path fill="#B2B2B2" d="M1186 256v3h-141v-3z"/><path fill="#8C8C8C" d="M1186 141v3h-141v-3z"/><path d="M1150 200c0 19-15 35-34 35s-35-16-35-35 16-35 35-35 34 16 34 35z"/><path fill="#404040" d="M1147 198c0 18-14 32-31 32-18 0-32-14-32-32 0-17 14-31 32-31 17 0 31 14 31 31z"/><path fill="#999" d="M1147 198c0 18-14 32-31 32-18 0-32-14-32-32 6 41 58 41 63 0z"/></g><g fill="#fff" fill-rule="nonzero"><path d="M98 232c-2 0-4-1-5-1-1-1-3-2-4-3s-1-2-2-4c0-2-1-4-1-6s1-4 1-5c0-2 1-4 1-5h5c0 1 0 2-1 2v3c-1 1-1 2-1 3v2c0 3 0 5 1 7 2 1 3 2 5 2 1 0 2 0 3-1 0 0 1 0 2-1 0-1 1-2 1-3 1-1 2-2 2-4 1-1 2-3 2-4l3-3c1-1 2-1 3-2h4c2 0 3 0 4 1 2 0 3 1 4 2 0 1 1 2 2 4v10c-1 2-1 4-2 5l-4-2c0-1 1-2 1-4 1-1 1-3 1-4 0-2-1-4-2-5-1-2-2-2-4-2h-3c0 1-1 1-2 2 0 0-1 1-1 2-1 1-1 2-2 4s-1 3-2 4-1 2-2 3-2 2-3 2c-1 1-3 1-4 1zm-12 20c0-1 1-2 1-2 0-1 0-2 1-3 0 0 1-1 1-2 1 0 1-1 2-1H74v-5h43v4l-4 1s1 1 2 1c0 1 1 2 1 2 0 1 1 2 1 3v2c0 2 0 4-1 5 0 2-1 3-3 4-1 1-2 1-4 2s-5 1-7 1c-3 0-5 0-7-1s-3-1-5-2c-1-1-2-2-3-4 0-1-1-3-1-5zm27 0v-4c-1-1-1-2-2-2-1-1-2-1-3-2H97c-1 1-3 1-3 2-1 0-2 1-3 2v4c0 2 1 4 3 5 1 1 4 2 8 2s7-1 8-2c2-1 3-3 3-5zm-26 36l4-1c-1 0-1-1-2-2-1 0-1-1-1-2-1 0-1-1-1-2s-1-2-1-3 1-2 1-3 1-2 2-3c0-1 1-2 2-2 2 0 3-1 4-1 3 0 6 1 7 4 2 2 3 5 3 9v5h5l2-2 1-1v-7c-1-1-1-3-2-4l4-1c0 1 1 2 2 4v10c-1 1-1 2-2 3s-2 2-3 2c-1 1-3 1-5 1H87v-4zm4-9v3c0 1 1 2 2 3 0 0 1 1 2 1 1 1 3 1 4 1h3l-1-4v-4c0-1-1-2-1-3-1 0-1-1-2-1h-3c-1 0-3 0-3 1-1 1-1 2-1 3zm26 35v3h-4v-3c0-1 0-2-1-3 0-1-1-2-2-3s-2-1-3-1c-1-1-2-1-4-1H87v-5h30v4l-6 1c1 0 2 1 3 1 0 1 1 1 2 2 0 1 1 1 1 2v3zm-15 14l5 3 10 8v6l-13-11-17 12v-6l14-9-3-3H87v-5h42v5h-27zm21 54c0-2-1-4-1-5-1-2-2-3-3-4-2-1-4-2-5-3-2 0-5-1-7-1-3 0-5 1-7 1-2 1-4 1-5 2-1 2-2 3-3 4-1 2-1 4-1 6v5c1 1 1 2 1 4h-4c0-1 0-2-1-2v-5c-1-1-1-2-1-3 0-3 1-5 2-8 1-2 2-3 4-5 2-1 4-2 7-3 2-1 5-1 8-1s6 0 8 1c3 1 5 2 7 4 1 1 3 3 4 5s1 5 1 8v6c-1 1-1 3-2 4l-4-2c0-1 1-2 1-3 1-2 1-3 1-5zm-21 41c-3 0-5 0-7-1s-3-1-5-3c-1-1-2-2-3-4 0-1-1-3-1-5s1-4 1-5c1-2 2-3 3-4 2-1 3-2 5-3s4-1 7-1c2 0 5 0 7 1 1 1 3 1 4 3 2 1 3 2 3 4 1 1 1 3 1 5s0 4-1 5c0 2-1 3-3 4-1 2-3 2-4 3-2 1-5 1-7 1zm0-21c-4 0-7 1-9 2-1 1-2 3-2 6s1 5 2 6c2 1 5 2 9 2s7-1 8-2c2-1 3-3 3-6s-1-5-3-6c-1-1-4-2-8-2zm15 42v3l-4-1v-3c0-1 0-2-1-3 0-1-1-1-2-2s-2-1-3-2H87v-5h30v4h-6v1c1 0 2 1 3 1 0 1 1 1 2 2 0 0 1 1 1 2v3zm-31 21c0-2 1-4 1-6 1-1 2-3 3-4 2-1 3-2 5-3 2 0 4-1 7-1 2 0 4 1 6 1 2 1 4 2 5 3 2 1 3 2 3 4 1 1 1 3 1 5 0 1 0 3-1 4 0 2-1 3-2 4-2 1-3 2-5 2-1 1-3 1-5 1h-3v-19c-4 0-6 1-8 3-1 1-2 3-2 6v5s1 1 1 2c0 0 1 1 1 2h-5v-2c-1-1-1-2-1-2v-3s-1-1-1-2zm27-1c0-2 0-4-2-5-1-2-3-2-6-2v13h3c1-1 2-1 3-1 1-1 1-2 2-2v-3zm-26 39l30-11v5l-17 6s-1 0-2 1h-3c-1 1-2 1-3 1s-1 1-2 1h2c1 0 2 1 3 1s2 1 3 1 2 0 2 1l17 5v5l-30-10v-6zm0 35v-4h35l-1-1-1-1-1-1v-1l-4-4 4-2 8 10v4H87zm3 16h2s1 0 1 1l1 1v2c-1 1-1 1-1 2h-1c-1 0-1 1-2 1s-1-1-2-1h-1c0-1 0-1-1-2v-2l1-1c0-1 1-1 1-1h2zm17 39c-3 0-6-1-9-1-2-1-4-1-6-2s-3-3-4-4c-1-2-2-4-2-6s1-4 2-6c1-1 2-3 4-4s4-2 6-2c3-1 6-1 9-1s6 0 8 1c3 0 5 1 7 2s3 2 4 4 1 4 1 6 0 4-1 5c-1 2-2 3-4 4l-6 3c-3 0-6 1-9 1zm0-21c-3 0-5 0-7 1-2 0-4 0-5 1-2 1-3 1-3 2-1 1-1 2-1 4 0 1 0 2 1 3 0 1 1 2 3 3 1 0 3 1 5 1h14c2 0 4-1 5-1l3-3c1-1 1-2 1-3 0-2 0-3-1-4s-2-1-3-2-3-1-5-1c-2-1-4-1-7-1zm884-417l28-10c-1 0-2 0-3 1h-25v-4h32v6l-26 9 26 9v5h-32v-4h20s1 1 2 1h6l-28-10v-3zm16 51c-2 0-4-1-6-1l-6-3c-1-1-2-2-3-4s-1-4-1-6 0-4 1-6 2-3 3-4l6-3c2 0 4-1 6-1 3 0 5 1 7 1 2 1 4 2 5 3s3 2 3 4c1 2 1 4 1 6s0 4-1 6c0 2-2 3-3 4s-3 2-5 3c-2 0-4 1-7 1zm0-23h-5c-2 1-3 1-4 2l-3 3v8c1 2 2 3 3 3 1 1 2 2 4 2s3 1 5 1 4-1 6-1c1 0 2-1 4-2 1 0 1-1 2-3 1-1 1-2 1-4 0-1 0-3-1-4s-1-2-2-3c-2-1-3-1-4-2h-6zm1 53c-3 0-5 0-7-1s-4-2-5-3c-2-1-3-3-4-5 0-2-1-4-1-6v-8h32v9c0 2 0 4-1 5-1 2-2 4-3 5s-3 2-5 3-4 1-6 1zm-1-4c2 0 4-1 6-1 1 0 3-1 4-2s1-2 2-3c0-2 1-3 1-5v-4h-25v3c0 4 1 7 3 9s5 3 9 3zm-16 27v-16h32v16h-4v-12h-9v11h-4v-11h-11v12h-4zm12 312h-13v-4h32v8c0 4-1 6-3 8-1 2-3 3-6 3-2 0-3 0-4-1 0 0-1 0-2-1l-2-2c0-1 0-1-1-2l-14 8v-4l13-8v-5zm4 0v7c0 1 1 2 1 2 1 1 1 1 2 1 1 1 2 1 3 1s1 0 2-1c1 0 1 0 2-1 0-1 1-1 1-2v-7h-11zm-8 39c-2 0-3-1-4-1-1-1-2-1-3-2s-1-2-2-4v-8c0-2 1-3 1-4h4c0 1 0 1-1 2v2s-1 1-1 2v2c0 2 1 4 1 5 1 1 3 2 4 2s2 0 2-1c1 0 1 0 2-1 0 0 1-1 1-2 1-1 1-2 2-3 0-1 1-2 1-3 1-1 2-2 2-3 1 0 2-1 3-1s2-1 3-1 3 1 4 1c0 1 1 1 2 2s1 2 2 3v9c-1 1-1 2-2 3l-3-1c0-1 1-2 1-3 0-2 1-3 1-4 0-2-1-3-2-4 0-1-2-2-3-2s-1 1-2 1-1 0-2 1c0 0-1 1-1 2s-1 2-1 3c-1 1-1 2-2 3 0 1-1 2-2 3 0 0-1 1-2 1-1 1-2 1-3 1zm-9 15v-4h28v-9h4v22h-4v-9h-28zm245 56v4l-2 2c0 1-1 1-2 2-1 0-2 1-3 1 3 0 5 1 6 3 2 1 2 3 2 5v4c-1 2-2 3-3 4s-2 1-4 2c-1 0-3 1-5 1s-4-1-5-1c-2 0-3-1-4-1v-4c1 0 2 1 4 1 2 1 3 1 5 1 1 0 2 0 3-1 2 0 2 0 3-1l2-2v-3c0-1 0-2-1-3 0 0-1-1-1-2-1 0-2 0-3-1h-7v-4h6c1 0 2-1 3-1 1-1 1-2 1-3 1 0 1-1 1-2v-2c-1-1-1-2-2-2 0-1-1-1-2-1h-6c-2 1-3 2-4 2l-2-3s1-1 2-1c0 0 1-1 2-1s2-1 3-1h3c2 0 3 0 5 1 1 0 2 1 3 1 1 1 1 2 2 3v3zm27-8h5l-12 35h-4l-12-35h5l7 22c1 2 1 3 1 5 1 1 1 2 1 3 0-1 1-2 1-3 0-2 1-3 1-5l7-22zm28 8c0 2 0 3-1 4 0 1-1 1-1 2-1 1-2 1-3 2-1 0-2 1-3 1 3 0 5 1 7 3 1 1 2 3 2 5s0 3-1 4c0 2-1 3-2 4s-3 1-4 2c-2 0-4 1-6 1s-3-1-5-1c-1 0-3-1-4-1v-4c1 0 3 1 4 1 2 1 4 1 5 1s3 0 4-1c1 0 2 0 2-1 1-1 2-1 2-2v-6c-1 0-1-1-2-2-1 0-2 0-3-1h-7v-4h7c1 0 2-1 2-1 1-1 2-2 2-3v-4c0-1-1-2-1-2-1-1-1-1-2-1h-7c-1 1-3 2-4 2l-2-3c1 0 1-1 2-1s2-1 2-1c1 0 2-1 3-1h3c2 0 4 0 5 1 1 0 2 1 3 1 1 1 2 2 2 3 1 1 1 2 1 3zm-169 13v14h-4v-35h8c5 0 8 1 10 3 2 1 3 4 3 7 0 2 0 3-1 4 0 1-1 2-1 2-1 1-2 2-3 2 0 1-1 1-2 2l9 15h-5l-8-14h-6zm0-4h8c1-1 2-1 2-2 1 0 1-1 2-2v-5c-1-1-1-2-2-2l-2-2h-8v13zm43 9c0 1 0 3-1 4s-1 2-2 3-3 1-4 2c-1 0-3 1-5 1s-3-1-5-1c-1 0-3-1-4-1v-4h2c1 1 2 1 2 1 1 0 2 0 3 1h2c3 0 4-1 6-2 1-1 1-2 1-4v-2c0-1-1-1-1-2-1 0-1-1-2-1-1-1-3-1-4-2-1 0-3-1-4-2-1 0-2-1-2-2-1-1-1-2-2-3v-3c0-2 0-3 1-4 0-1 1-2 2-3s2-1 3-2h9c2 1 3 1 4 2l-1 3c-1 0-2 0-4-1h-4c-2 0-3 0-4 1s-2 2-2 4c0 1 0 1 1 2 0 1 0 1 1 2 0 0 1 1 2 1 1 1 2 1 3 2 2 0 3 1 4 2 1 0 2 1 3 2 0 0 1 1 1 2 1 1 1 2 1 4zm17 9h-5v-31h-9v-4h24v4h-10v31zm-152-27c0 1 0 2-1 2 0 1-1 2-1 3-1 0-1 1-2 1s-2 1-3 1c3 0 4 1 6 2 1 2 2 3 2 5 0 1-1 3-1 4s-1 2-2 3c-1 0-2 1-3 1-2 1-3 1-5 1h-5c-1-1-2-1-3-2v-3c1 1 2 1 4 1 1 1 2 1 4 1 1 0 2 0 3-1 1 0 2 0 2-1 1 0 1-1 1-2 1 0 1-1 1-2s0-2-1-2c0-1-1-2-1-2-1 0-2-1-3-1h-6v-3h3c1 0 2-1 3-1s2 0 2-1c1-1 1-1 1-2 1 0 1-1 1-2v-2c-1-1-1-1-2-1 0-1 0-1-1-1s-1-1-2-1c-2 0-3 1-4 1-1 1-2 1-3 2l-2-3s1-1 2-1c0 0 1-1 2-1 0 0 1 0 2-1h3c1 0 3 0 4 1 1 0 2 1 2 1 1 1 2 2 2 3 1 1 1 2 1 3zm23-7h4l-10 30h-4l-10-30h4l6 19c1 1 1 2 1 3 1 1 1 2 1 4 0-2 1-3 1-4s1-2 1-3l6-19zm24 7c0 1 0 2-1 2 0 1-1 2-1 3-1 0-1 1-2 1s-2 1-3 1c3 0 4 1 6 2 1 2 2 3 2 5 0 1-1 3-1 4-1 1-1 2-2 3-1 0-2 1-4 1-1 1-3 1-4 1h-5c-1-1-2-1-3-2v-3c1 1 2 1 4 1 1 1 2 1 4 1 1 0 2 0 3-1 1 0 1 0 2-1 1 0 1-1 1-2 1 0 1-1 1-2s0-2-1-2c0-1-1-2-1-2-1 0-2-1-3-1h-6v-3h3c1 0 2-1 3-1s2 0 2-1c1-1 1-1 1-2 1 0 1-1 1-2v-2c-1-1-1-1-2-1 0-1-1-1-1-1-1 0-1-1-2-1-2 0-3 1-4 1-1 1-2 1-3 2l-2-3s1-1 2-1c0 0 1-1 2-1 0 0 1 0 2-1h3c1 0 2 0 4 1 1 0 2 1 2 1 1 1 2 2 2 3s1 2 1 3zm17-9l-1 8 8-3 1 4-8 1 5 7-4 2-3-8-4 8-3-2 4-7-7-1v-4l8 3v-8h4zm-179 18h11v17c-1 0-2 0-3 1h-5c-1 1-2 1-4 1s-4-1-6-2-4-2-5-3l-3-6c-1-2-1-5-1-7 0-3 0-6 1-8s2-4 3-5c2-2 4-3 6-4s4-1 7-1h5c2 1 3 1 5 2l-2 4c-1-1-1-1-2-1s-1 0-2-1h-4c-2 0-4 0-6 1-1 0-2 1-3 2-1 2-2 3-3 5v11c1 2 1 4 2 5s3 2 4 3c2 0 3 1 5 1h2c1 0 1 0 2-1h3v-10h-7v-4zm45 18h-5l-17-29v4c1 1 1 2 1 3v22h-5v-35h6l16 29v-29h4v35zm35-18c0 3 0 6-1 8l-3 6c-2 1-3 2-5 3-3 1-5 1-8 1h-8v-35h9c3 0 5 1 7 1 2 1 4 2 5 4 1 1 2 3 3 5s1 5 1 7zm-4 1c0-3-1-5-1-6-1-2-1-4-2-5s-3-2-4-2c-2-1-3-1-5-1h-5v27h4c4 0 7-1 9-3 3-2 4-6 4-10zm-138-1c0 3 0 6-1 8l-3 6-6 3c-2 1-4 1-7 1h-9v-35h10c3 0 5 1 7 1 2 1 3 2 5 4 1 1 2 3 3 5s1 5 1 7zm-5 1v-6c-1-2-2-4-3-5s-2-2-3-2c-2-1-4-1-5-1h-5v27h4c4 0 7-1 9-3 2-3 3-6 3-10zm15 17l13-31h-18v-4h22v4l-13 31h-4zm-110-18c0 3 0 6-1 8s-2 4-4 6c-1 1-3 2-5 3s-4 1-7 1h-9v-35h10c2 0 5 1 7 1 2 1 3 2 5 4 1 1 2 3 3 5s1 5 1 7zm-5 1c0-3 0-5-1-6 0-2-1-4-2-5s-2-2-3-2c-2-1-4-1-5-1h-5v27h4c4 0 7-1 9-3s3-6 3-10zm11 2v-5c0-1 0-3 1-4 0-2 1-3 1-5l3-3c1-1 3-2 4-2 2-1 4-1 6-1h4v4h-8c-1 0-2 1-3 1 0 1-1 2-2 3 0 0-1 1-1 2s0 3-1 4v3c1 0 1-1 1-1l2-2h2c1-1 2-1 3-1s2 1 4 1c1 1 2 1 3 2s1 2 2 3v10c-1 1-1 2-2 3s-2 2-4 3c-1 0-2 1-4 1s-3-1-5-1l-3-3c-1-1-2-3-3-5v-7zm11 12c1 0 2 0 2-1 1 0 2 0 2-1 1-1 1-2 2-3v-6c0-1-1-2-1-2l-2-2h-6l-2 2c-1 0-1 1-2 2v5c1 1 1 2 2 3 0 1 1 2 2 2 1 1 2 1 3 1zm-117-15c0 3 0 5-1 8-1 2-2 4-3 5-1 2-3 3-5 3-2 1-5 2-7 2h-9v-35h9c3 0 5 0 7 1s4 2 5 3c1 2 3 3 3 6 1 2 1 4 1 7zm-4 0c0-2-1-4-1-6-1-2-1-3-2-4s-3-2-4-3h-10v27h4c4 0 7-1 10-4 2-2 3-5 3-10zm20-4c2 0 3 0 5 1 1 0 2 1 3 2l3 3v9c-1 2-2 3-3 4s-2 2-4 2c-1 1-3 1-5 1h-5c0-1-1-1-2-1 0 0-1-1-2-1v-4c1 0 2 1 2 1 1 0 2 1 3 1h7c1 0 2-1 3-1 1-1 1-2 1-3 1-1 1-2 1-3 0-2-1-4-2-5s-4-2-6-2h-4c-1 0-1 1-2 1l-2-2 1-16h17v4h-13l-1 10c1 0 1 0 2-1h3zm-117 5c0 2-1 5-1 7-1 2-2 4-4 6-1 1-3 2-5 3s-5 1-7 1h-9v-34h10c2 0 4 0 6 1 2 0 4 1 5 3 2 1 3 3 4 5 0 2 1 5 1 8zm-5 0c0-3 0-5-1-6 0-2-1-3-2-4-1-2-2-2-4-3-1 0-3-1-5-1h-4v27h3c5 0 8-1 10-3s3-6 3-10zm33 9h-5v8h-4v-8h-16v-3l16-24h4v24h5v3zm-9-3v-17c0-1 0-2 1-2h-1v1s0 1-1 1v1c0 1-1 1-1 1l-10 15h12zm-117-7c0 3-1 6-2 8 0 2-1 4-3 6-1 1-3 2-5 3s-5 1-7 1h-9v-35h10c2 0 4 1 6 1 2 1 4 2 5 4 2 1 3 3 3 5 1 2 2 5 2 7zm-5 1c0-3 0-5-1-6 0-2-1-4-2-5s-2-2-4-2c-1-1-3-1-5-1h-5v27h4c4 0 8-1 10-3s3-6 3-10zm30-9v3l-2 2c0 1-1 1-2 2-1 0-2 1-3 1 3 0 5 1 6 3 2 1 2 3 2 5v4c-1 2-2 3-3 4s-2 1-4 2c-1 0-3 1-5 1s-4-1-5-1c-2 0-3-1-5-1v-4c2 0 3 1 5 1 2 1 3 1 5 1 1 0 2 0 3-1 1 0 2 0 3-1l2-2v-3c0-1 0-2-1-3 0 0-1-1-1-2-1 0-2 0-3-1h-7v-4h6c1 0 2-1 3-1 1-1 1-2 1-3 1 0 1-1 1-2v-2c-1-1-1-2-2-2 0-1-1-1-2-1h-6c-2 1-3 2-4 2l-2-3s1-1 2-1c0 0 1-1 2-1s2-1 3-1h3c2 0 3 0 4 1 2 0 3 1 4 1 1 1 1 2 2 3v4zm-125 9c0 3-1 5-2 8 0 2-1 4-3 5-1 2-3 3-5 3-2 1-5 2-7 2h-9v-35h10c2 0 4 0 6 1s4 2 5 3c2 2 3 3 3 6 1 2 2 4 2 7zm-5 0c0-2 0-4-1-6 0-2-1-3-2-4s-2-2-4-3h-10v27h4c4 0 8-1 10-4 2-2 3-5 3-10zm31 18h-21v-4l8-9c1-1 2-3 3-4l3-3c0-1 1-2 1-3s1-2 1-3 0-2-1-3c0 0 0-1-1-1 0-1-1-1-2-2h-2c-1 0-3 0-4 1s-2 1-3 2l-3-3c1 0 1-1 2-1 1-1 2-1 3-1 0-1 1-1 2-1 1-1 2-1 3-1 2 0 3 1 4 1s3 1 3 2c1 1 2 2 2 3 1 1 1 2 1 4 0 1 0 2-1 3 0 2-1 3-1 4-1 1-2 2-3 4l-3 3-7 7v1h16v4zm-119-19c0 3-1 6-2 8 0 2-1 4-3 6-1 1-3 2-5 3s-5 1-7 1h-9v-35h10c2 0 4 1 6 1 2 1 4 2 5 4 2 1 3 3 3 5 1 2 2 5 2 7zm-5 1c0-3 0-5-1-6 0-2-1-4-2-5s-2-2-4-2c-1-1-3-1-5-1h-5v27h4c4 0 8-1 10-3 2-3 3-6 3-10zm24 17h-4v-30 1h-1s0 1-1 1l-4 3-2-3 9-7h3v35zm-127-18c0 3 0 6-1 8l-3 6-6 3c-2 1-4 1-7 1h-9v-35h10c2 0 5 1 7 2 2 0 3 1 5 3 1 1 2 3 3 5s1 5 1 7zm-5 1v-6c-1-2-2-3-3-5-1-1-2-1-3-2-2-1-4-1-5-1h-5v27h4c4 0 7-1 9-3s3-6 3-10zm32 0v7c-1 2-1 4-2 6-1 1-2 3-4 3-1 1-3 2-5 2s-3-1-5-2c-1 0-2-2-3-3-1-2-2-4-2-6-1-2-1-4-1-7s0-6 1-8c0-2 1-4 2-5 1-2 2-3 3-4 2-1 3-1 5-1s4 0 5 1c2 1 3 2 4 4 1 1 1 3 2 5v8zm-17 0v6c0 2 1 3 1 4 1 2 1 2 2 3s2 1 3 1c2 0 3 0 3-1 1-1 2-1 2-3 1-1 1-2 2-4v-13c-1-1-1-3-2-4 0-1-1-2-2-3h-6c-1 1-1 2-2 3 0 1-1 3-1 4v7zm-15-563l-3-11h-13l-4 11h-5l13-35h4l13 35h-5zm-5-15l-3-10s-1 0-1-1v-1c0-1 0-1-1-2v-1 1c0 1-1 1-1 2v1c0 1 0 1-1 1l-3 10h10zm34-2v7c-1 2-1 4-2 6-1 1-2 3-4 3-1 1-3 2-5 2s-3-1-5-2c-1 0-2-2-3-3-1-2-2-4-2-6-1-2-1-5-1-7 0-3 0-6 1-8 0-2 1-4 2-5 1-2 2-3 3-4 2-1 3-1 5-1s4 0 5 1 3 2 4 3c0 2 1 4 2 6v8zm-17 0v6c0 2 1 3 1 4 1 1 1 2 2 3s2 1 3 1 2 0 3-1 2-2 2-3c1-1 1-2 2-4v-13c-1-1-1-3-2-4 0-1-1-2-2-3-1 0-2-1-3-1s-2 1-3 1c-1 1-1 2-2 3 0 1-1 3-1 4v7zm88 17l-3-11h-13l-4 11h-5l13-35h4l13 35h-5zm-5-15l-3-10s-1 0-1-1v-1c0-1 0-1-1-2v-1 1c0 1-1 1-1 2v1c0 1 0 1-1 1l-3 10h10zm27 15h-4V98c-1 0-1 0-1 1h-1v1h-1l-4 3-2-3 9-7h4v35zm78 0l-3-11h-13l-4 11h-5l13-35h4l13 35h-5zm-5-15l-3-10s-1 0-1-1v-1c0-1 0-1-1-2v-1 1c0 1-1 1-1 2v1c0 1 0 1-1 1l-3 10h10zm34 15h-22v-4l8-9c2-1 3-2 4-3s1-2 2-3 1-2 1-3c1-1 1-3 1-4v-2l-2-2-1-1h-7l-3 3-3-3c1-1 2-1 2-2 1 0 2-1 3-1s2-1 3-1h7c1 1 2 2 3 2 1 1 1 2 2 3v8c-1 1-1 2-2 4l-3 3c-1 1-2 3-3 4l-7 7h17v4zm71 0l-3-11h-13l-4 11h-5l13-35h4l13 35h-5zm-5-15l-3-10s-1 0-1-1v-1c0-1 0-1-1-2v-1 1c0 1-1 1-1 2v1c0 1 0 1-1 1l-3 10h10zm33-12c0 2-1 3-1 4s-1 1-1 2c-1 1-2 1-3 2-1 0-2 1-3 1 3 0 5 1 7 3 1 1 2 3 2 5s-1 3-1 4c-1 2-1 3-2 4s-3 1-4 2c-2 0-4 1-6 1s-3-1-5-1c-1 0-3-1-4-1v-4c1 0 3 1 4 1 2 1 3 1 5 1 1 0 3 0 4-1 1 0 2 0 2-1l2-2v-6c-1 0-1-1-2-2-1 0-2 0-3-1h-7v-4h7c1 0 2-1 2-2 1 0 1-1 2-2v-4c0-1-1-2-1-2-1-1-2-1-2-1h-7c-1 1-3 2-4 2l-2-3c1 0 1-1 2-1s1-1 2-1 2-1 3-1h8c1 1 2 2 3 2 1 1 2 2 2 3s1 2 1 3zm72 27l-3-11h-13l-4 11h-5l13-35h4l13 35h-5zm-5-15l-3-10s-1 0-1-1v-1c0-1 0-1-1-2v-1 1c0 1-1 1-1 2v1c0 1 0 1-1 1l-3 10h10zm36 7h-5v8h-5v-8h-16v-4l16-23h5v23h5v4zm-10-4v-11c0-1 0-2 1-3v-4c-1 0-1 0-1 1v1c-1 0-1 1-1 1s0 1-1 1l-9 14h11zm79 12l-3-11h-13l-4 11h-5l13-35h4l13 35h-5zm-5-15l-3-10s-1 0-1-1v-1c0-1 0-1-1-2v-1 1c0 1-1 1-1 2v1c0 1 0 1-1 1l-3 10h10zm23-6h4c1 1 3 1 4 2s1 2 2 4c1 1 1 2 1 4s0 3-1 5c0 1-1 2-2 3s-3 2-4 3c-2 0-4 1-6 1 0 0-1-1-2-1h-2c-1 0-2 0-2-1h-2v-4s1 0 2 1h2c1 0 2 1 2 1h3c1 0 2 0 3-1 1 0 2 0 2-1 1-1 2-1 2-2v-4c0-2 0-4-2-5-1-1-3-2-6-2h-1c-1 1-1 1-2 1h-2l-2-1 1-17h16v4h-12l-1 10h5zm82 21l-3-11h-13l-4 11h-5l13-35h4l13 35h-5zm-5-15l-3-10s-1 0-1-1v-1c0-1 0-1-1-2v-1 1c0 1-1 1-1 2v1c0 1 0 1-1 1l-3 10h10zm13 0v-5c0-1 0-3 1-4 0-2 1-3 1-5l3-3c1-1 3-2 4-2 2-1 4-1 6-1h4v4h-8c-1 0-2 1-3 1 0 1-1 2-2 3 0 0-1 1-1 2s-1 3-1 4v3c1 0 1-1 1-1l2-2h2c1-1 2-1 3-1s2 1 4 1c1 0 2 1 3 2s1 2 2 3v10c-1 1-2 2-2 3-1 1-3 2-4 3-1 0-3 1-4 1-2 0-3-1-5-1l-3-3c-1-1-2-3-3-5v-7zm11 12c1 0 2 0 2-1 1 0 2 0 2-1 1-1 1-2 2-3v-6c0-1-1-2-1-2-1-1-2-1-2-2h-6c-1 1-2 1-2 2-1 0-1 1-2 2v5c1 1 1 2 2 3 0 1 1 2 2 2 1 1 2 1 3 1zm81 3l-3-11h-13l-4 11h-5l13-35h4l13 35h-5zm-5-15l-3-10s-1 0-1-1v-1c0-1 0-1-1-2v-1 1c0 1-1 1-1 2v1c0 1 0 1-1 1l-3 10h10zm16 15l14-31h-18v-4h22v4l-13 31h-5zm259-18h12v17c-1 0-2 0-3 1h-5c-1 1-2 1-4 1s-4-1-6-2c-2 0-4-2-5-3l-3-6c-1-2-1-5-1-7 0-3 0-5 1-8 1-2 2-4 3-5 2-2 4-3 6-4s4-1 7-1h5c2 1 3 1 4 2l-1 4c-1 0-1-1-2-1s-1 0-2-1h-5c-1 0-3 0-5 1-1 0-2 1-3 3-1 1-2 2-3 4v11c1 2 1 4 2 5s2 2 4 3c1 0 3 1 5 1h2c1 0 1 0 2-1h3v-10h-8v-4zm46 18h-5l-17-29v4c0 1 0 2 1 3v22h-5V93h6l16 29V93h4v35zm35-18c0 3 0 6-1 8l-3 6c-2 1-3 2-6 3-2 1-4 1-7 1h-8V93h9c3 0 5 1 7 1 2 1 3 2 5 4 1 1 2 3 3 5s1 5 1 7zm-4 1c0-3-1-5-1-6-1-2-2-3-3-5-1-1-2-1-3-2-2-1-3-1-5-1h-5v27h4c4 0 7-1 9-3s4-6 4-10zm45-18h5l-12 35h-4l-12-35h5l7 22c1 2 1 3 1 4 1 2 1 3 1 4 0-1 1-2 1-4 1-1 1-2 1-4l7-22zm20 35h-13v-3l4-1V97l-4-1v-3h13v3l-4 1v27l4 1v3zm32 0h-5l-17-29v4c1 1 1 2 1 3v22h-5V93h6l16 29V93h4v35zm-360-14v14h-5V93h9c4 0 7 1 9 3 2 1 3 4 3 7 0 2 0 3-1 4 0 1 0 2-1 2-1 1-1 2-2 2-1 1-2 1-3 1l10 16h-6l-8-14h-5zm0-4h7c1-1 2-1 3-2 0 0 1-1 1-2v-6s-1-1-2-1c0-1-1-1-2-2h-7v13zm46 18h-5l-9-15-8 15h-5l11-18-10-17h5l7 14 8-14h5l-10 17 11 18zm63 0h-4V97h-10v-4h24v4h-10v31zm37 0h-5l-8-15-9 15h-4l10-18-10-17h5l8 14 8-14h4l-10 17 11 18z"/></g></svg>