<svg xmlns="http://www.w3.org/2000/svg" width="76.8" height="1.503in" shape-rendering="geometricPrecision" text-rendering="geometricPrecision" image-rendering="optimizeQuality" fill-rule="evenodd" clip-rule="evenodd" viewBox="0 0 800 1503"><path fill="#404040" d="M0 84h794l6 2v1314l-100 103H99L0 1400z"/><path fill="#CCC" d="M794 84l6 2v1314l-100 103h-7l101-103z"/><path fill="#B2B2B2" d="M800 1400l-100 103h-7l101-103z"/><path fill="#CCC" d="M413 446h39.36v35.45H413z"/><path fill="#E5E5E5" d="M448 446h3.97v35.45H448z"/><path fill="#CCC" d="M347 446h39.36v35.45H347z"/><path fill="#E5E5E5" d="M382 446h3.97v35.45H382z"/><path fill="#CCC" d="M412 334h39.36v35.45H412z"/><path fill="#E5E5E5" d="M448 334h3.97v35.45H448z"/><path fill="#CCC" d="M346 334h39.36v35.45H346z"/><path fill="#E5E5E5" d="M381 334h3.97v35.45H381z"/><path fill="#E5E5E5" stroke="#999" stroke-width="3" d="M345 344h108v127H345z"/><path fill="#fff" stroke="#999" stroke-width="3" d="M345 344h85l23 23v104H345z"/><path fill="#999" stroke="#666" stroke-width="3" d="M399 363c24 0 44 20 44 45 0 24-20 44-44 44s-44-20-44-44c0-25 20-45 44-45z"/><path fill="#CCC" d="M400 385c11 1 20 11 21 22h-21v-22z"/><path fill="#1B5BB3" d="M398 385c-11 1-20 11-21 22h21v-22z"/><path fill="#00A63D" d="M398 430c-11-1-20-10-21-21h21v21z"/><path fill="#CC1414" d="M400 430c11-1 20-10 21-21h-21v21z"/><path fill="none" stroke="#999" stroke-width="3" d="M399 385c12 0 22 11 22 23s-10 22-22 22-22-10-22-22 10-23 22-23z"/><path d="M172 1282h63v35h-63zm286 0h64v35h-64zm74-766h63v35h-63zm-329 0h63v35h-63zm164 0h64v35h-64zM152 220h64v36h-64zM74 101h142v87H74zm412 258v-64h35v64zm-208 0v-64h35v64z" fill="#CCC"/><path fill="#fff" stroke="#8C8C8C" stroke-width="3" d="M545 1251h79c4 0 8 3 8 8v79c0 4-4 8-8 8h-79c-4 0-8-4-8-8v-79c0-5 4-8 8-8z"/><path fill="#fff" stroke="#8C8C8C" stroke-width="3" d="M585 1272c15 0 27 12 27 27s-12 27-27 27-28-12-28-27 13-27 28-27z"/><path fill="#C93" d="M585 1292c4 0 7 3 7 7s-3 7-7 7-7-3-7-7 3-7 7-7z"/><path fill="#CCC" d="M276 1442h245v38H276z"/><path fill="#999" d="M241 1442h35v38h-35zm280 0h35v38h-35z"/><path fill="#C93" d="M291 1442h14v38h-14z"/><path fill="#B2B2B2" d="M750 403c19 0 34 15 34 35 0 19-15 34-34 34-20 0-35-15-35-34 0-20 15-35 35-35z"/><path fill="#8C8C8C" d="M725 413c4 9 12 16 25 25-13 10-24 18-25 24-7-7-10-15-10-24 0-10 3-18 10-25z"/><path fill="#fff" d="M750 431c3 0 6 3 6 7 0 3-3 6-6 6-4 0-7-3-7-6 0-4 3-7 7-7z"/><path fill="#B2B2B2" d="M750 605c19 0 34 15 34 36 0 19-15 34-34 34-20 0-35-15-35-34 0-21 15-36 35-36z"/><path fill="#8C8C8C" d="M725 615c4 9 12 16 25 26-13 10-24 18-25 24-7-7-10-15-10-24 0-11 3-19 10-26z"/><path fill="#fff" d="M750 634c3 0 6 3 6 7 0 3-3 6-6 6-4 0-7-3-7-6 0-4 3-7 7-7z"/><path fill="#B2B2B2" d="M750 706c19 0 34 16 34 36 0 19-15 34-34 34-20 0-35-15-35-34 0-20 15-36 35-36z"/><path fill="#8C8C8C" d="M725 717c4 9 12 16 25 25-13 10-24 18-25 24-7-7-10-15-10-24 0-10 3-18 10-25z"/><path fill="#fff" d="M750 735c3 0 6 3 6 7 0 3-3 6-6 6-4 0-7-3-7-6 0-4 3-7 7-7z"/><path fill="#B2B2B2" d="M750 808c19 0 34 15 34 35 0 19-15 35-34 35-20 0-35-16-35-35 0-20 15-35 35-35z"/><path fill="#8C8C8C" d="M725 818c4 9 12 16 25 25-13 10-24 18-25 24-7-7-10-15-10-24 0-10 3-18 10-25z"/><path fill="#fff" d="M750 836c3 0 6 3 6 7 0 3-3 6-6 6-4 0-7-3-7-6 0-4 3-7 7-7z"/><path fill="#B2B2B2" d="M750 909c19 0 34 15 34 35s-15 35-34 35c-20 0-35-15-35-35s15-35 35-35z"/><path fill="#8C8C8C" d="M725 919c4 9 12 16 25 25-13 11-24 19-25 25-7-7-10-15-10-25s3-18 10-25z"/><path fill="#fff" d="M750 937c3 0 6 3 6 7 0 3-3 7-6 7-4 0-7-4-7-7 0-4 3-7 7-7z"/><path fill="#B2B2B2" d="M750 1010c19 0 34 15 34 36 0 19-15 34-34 34-20 0-35-15-35-34 0-21 15-36 35-36z"/><path fill="#8C8C8C" d="M725 1020c4 10 12 17 25 26-13 10-24 18-25 24-7-7-10-15-10-24 0-10 3-19 10-26z"/><path fill="#fff" d="M750 1039c3 0 6 3 6 7 0 3-3 6-6 6-4 0-7-3-7-6 0-4 3-7 7-7z"/><path fill="#B2B2B2" d="M750 1112c19 0 34 15 34 35 0 19-15 34-34 34-20 0-35-15-35-34 0-20 15-35 35-35z"/><path fill="#8C8C8C" d="M725 1122c4 9 12 16 25 25-13 10-24 18-25 24-7-7-10-15-10-24 0-10 3-18 10-25z"/><path fill="#fff" d="M750 1140c3 0 6 3 6 7 0 3-3 6-6 6-4 0-7-3-7-6 0-4 3-7 7-7z"/><path fill="#B2B2B2" d="M750 1314c19 0 34 15 34 36 0 19-15 34-34 34-20 0-35-15-35-34 0-21 15-36 35-36z"/><path fill="#8C8C8C" d="M725 1324c4 9 12 16 25 26-13 10-24 18-25 24-7-7-10-15-10-24 0-11 3-19 10-26z"/><path fill="#fff" d="M750 1342c3 0 6 4 6 8 0 3-3 6-6 6-4 0-7-3-7-6 0-4 3-8 7-8z"/><path fill="#B2B2B2" d="M750 1213c19 0 34 15 34 35s-15 35-34 35c-20 0-35-15-35-35s15-35 35-35z"/><path fill="#8C8C8C" d="M725 1223c4 9 12 16 25 25-13 10-24 19-25 25-7-7-10-16-10-25 0-10 3-18 10-25z"/><path fill="#fff" d="M750 1241c3 0 6 3 6 7 0 3-3 6-6 6-4 0-7-3-7-6 0-4 3-7 7-7z"/><path fill="#B2B2B2" d="M750 504c19 0 34 15 34 35s-15 35-34 35c-20 0-35-15-35-35s15-35 35-35z"/><path fill="#8C8C8C" d="M725 514c4 9 12 16 25 25-13 10-24 19-25 25-7-7-10-16-10-25 0-10 3-18 10-25z"/><path fill="#fff" d="M750 532c3 0 6 3 6 7 0 3-3 6-6 6-4 0-7-3-7-6 0-4 3-7 7-7z"/><path fill="#B2B2B2" d="M750 301c19 0 34 16 34 36 0 19-15 34-34 34-20 0-35-15-35-34 0-20 15-36 35-36z"/><path fill="#8C8C8C" d="M725 311c4 10 12 17 25 26-13 10-24 18-25 24-7-7-10-15-10-24 0-10 3-18 10-26z"/><path fill="#fff" d="M750 330c3 0 6 3 6 7 0 3-3 6-6 6-4 0-7-3-7-6 0-4 3-7 7-7z"/><path fill="#B2B2B2" d="M750 200c19 0 34 15 34 35s-15 35-34 35c-20 0-35-15-35-35s15-35 35-35z"/><path fill="#8C8C8C" d="M725 210c4 9 12 16 25 25-13 11-24 19-25 25-7-7-10-15-10-25s3-18 10-25z"/><path fill="#fff" d="M750 228c3 0 6 3 6 7s-3 7-6 7c-4 0-7-3-7-7s3-7 7-7z"/><path fill="#B2B2B2" d="M50 403c19 0 34 15 34 35 0 19-15 34-34 34-20 0-35-15-35-34 0-20 15-35 35-35z"/><path fill="#8C8C8C" d="M25 413c4 9 12 16 25 25-13 10-24 18-25 24-7-7-10-15-10-24 0-10 3-18 10-25z"/><path fill="#fff" d="M50 431c3 0 6 3 6 7 0 3-3 6-6 6-4 0-7-3-7-6 0-4 3-7 7-7z"/><path fill="#B2B2B2" d="M50 605c19 0 34 15 34 36 0 19-15 34-34 34-20 0-35-15-35-34 0-21 15-36 35-36z"/><path fill="#8C8C8C" d="M25 615c4 9 12 16 25 26-13 10-24 18-25 24-7-7-10-15-10-24 0-11 3-19 10-26z"/><path fill="#fff" d="M50 634c3 0 6 3 6 7 0 3-3 6-6 6-4 0-7-3-7-6 0-4 3-7 7-7z"/><g><path fill="#B2B2B2" d="M50 706c19 0 34 16 34 36 0 19-15 34-34 34-20 0-35-15-35-34 0-20 15-36 35-36z"/><path fill="#8C8C8C" d="M25 717c4 9 12 16 25 25-13 10-24 18-25 24-7-7-10-15-10-24 0-10 3-18 10-25z"/><path fill="#fff" d="M50 735c3 0 6 3 6 7 0 3-3 6-6 6-4 0-7-3-7-6 0-4 3-7 7-7z"/></g><g><path fill="#B2B2B2" d="M50 808c19 0 34 15 34 35 0 19-15 35-34 35-20 0-35-16-35-35 0-20 15-35 35-35z"/><path fill="#8C8C8C" d="M25 818c4 9 12 16 25 25-13 10-24 18-25 24-7-7-10-15-10-24 0-10 3-18 10-25z"/><path fill="#fff" d="M50 836c3 0 6 3 6 7 0 3-3 6-6 6-4 0-7-3-7-6 0-4 3-7 7-7z"/></g><g><path fill="#B2B2B2" d="M50 909c19 0 34 15 34 35s-15 35-34 35c-20 0-35-15-35-35s15-35 35-35z"/><path fill="#8C8C8C" d="M25 919c4 9 12 16 25 25-13 11-24 19-25 25-7-7-10-15-10-25s3-18 10-25z"/><path fill="#fff" d="M50 937c3 0 6 3 6 7 0 3-3 7-6 7-4 0-7-4-7-7 0-4 3-7 7-7z"/></g><g><path fill="#B2B2B2" d="M50 1010c19 0 34 15 34 36 0 19-15 34-34 34-20 0-35-15-35-34 0-21 15-36 35-36z"/><path fill="#8C8C8C" d="M25 1020c4 10 12 17 25 26-13 10-24 18-25 24-7-7-10-15-10-24 0-10 3-19 10-26z"/><path fill="#fff" d="M50 1039c3 0 6 3 6 7 0 3-3 6-6 6-4 0-7-3-7-6 0-4 3-7 7-7z"/></g><g><path fill="#B2B2B2" d="M50 1112c19 0 34 15 34 35 0 19-15 34-34 34-20 0-35-15-35-34 0-20 15-35 35-35z"/><path fill="#8C8C8C" d="M25 1122c4 9 12 16 25 25-13 10-24 18-25 24-7-7-10-15-10-24 0-10 3-18 10-25z"/><path fill="#fff" d="M50 1140c3 0 6 3 6 7 0 3-3 6-6 6-4 0-7-3-7-6 0-4 3-7 7-7z"/></g><g><path fill="#B2B2B2" d="M50 1314c19 0 34 15 34 36 0 19-15 34-34 34-20 0-35-15-35-34 0-21 15-36 35-36z"/><path fill="#8C8C8C" d="M25 1324c4 9 12 16 25 26-13 10-24 18-25 24-7-7-10-15-10-24 0-11 3-19 10-26z"/><path fill="#fff" d="M50 1342c3 0 6 4 6 8 0 3-3 6-6 6-4 0-7-3-7-6 0-4 3-8 7-8z"/></g><g><path fill="#B2B2B2" d="M50 1213c19 0 34 15 34 35s-15 35-34 35c-20 0-35-15-35-35s15-35 35-35z"/><path fill="#8C8C8C" d="M25 1223c4 9 12 16 25 25-13 10-24 19-25 25-7-7-10-16-10-25 0-10 3-18 10-25z"/><path fill="#fff" d="M50 1241c3 0 6 3 6 7 0 3-3 6-6 6-4 0-7-3-7-6 0-4 3-7 7-7z"/></g><g><path fill="#B2B2B2" d="M50 504c19 0 34 15 34 35s-15 35-34 35c-20 0-35-15-35-35s15-35 35-35z"/><path fill="#8C8C8C" d="M25 514c4 9 12 16 25 25-13 10-24 19-25 25-7-7-10-16-10-25 0-10 3-18 10-25z"/><path fill="#fff" d="M50 532c3 0 6 3 6 7 0 3-3 6-6 6-4 0-7-3-7-6 0-4 3-7 7-7z"/></g><g><path fill="#B2B2B2" d="M50 301c19 0 34 16 34 36 0 19-15 34-34 34-20 0-35-15-35-34 0-20 15-36 35-36z"/><path fill="#8C8C8C" d="M25 311c4 10 12 17 25 26-13 10-24 18-25 24-7-7-10-15-10-24 0-10 3-18 10-26z"/><path fill="#fff" d="M50 330c3 0 6 3 6 7 0 3-3 6-6 6-4 0-7-3-7-6 0-4 3-7 7-7z"/></g><g><path fill="#B2B2B2" d="M50 200c19 0 34 15 34 35s-15 35-34 35c-20 0-35-15-35-35s15-35 35-35z"/><path fill="#8C8C8C" d="M25 210c4 9 12 16 25 25-13 11-24 19-25 25-7-7-10-15-10-25s3-18 10-25z"/><path fill="#fff" d="M50 228c3 0 6 3 6 7s-3 7-6 7c-4 0-7-3-7-7s3-7 7-7z"/></g><g><path fill="#00A63D" d="M134 570h532v650H134z"/><path fill="#C93" d="M142 578h516v264h-8v204h8v167H142z"/><path fill="#B2B2B2" d="M150 588h500v615H150z"/><path fill="#CCC" d="M525 588h125v615H271c221-117 29-461 254-615z"/><path fill="none" stroke="#E5E5E5" stroke-width="3" d="M535 1075c15 0 27 12 27 27 0 16-12 28-27 28s-27-12-27-28c0-15 12-27 27-27z"/><path fill="#E5E5E5" fill-rule="nonzero" d="M416 1009c0 2 0 4 1 6s2 3 3 4l6 3c2 1 4 1 7 1s5 0 7-1c2 0 4-1 6-2 1-2 2-3 3-5 1-1 1-3 1-6 0-1 0-3-1-5 0-1 0-3-1-4h5c0 1 1 1 1 2v2c0 1 1 2 1 3v3c0 3-1 6-2 8-1 3-2 5-4 6-2 2-4 3-7 5-3 0-6 1-9 1s-6-1-9-3c-3 0-5-2-7-3-2-2-3-4-4-6-1-3-2-6-2-9 0-2 0-4 1-6 0-2 1-3 2-5l4 3c0 1-1 2-1 3-1 2-1 4-1 5zm0-34c0 2 0 4 1 5 1 2 2 3 3 5 2 1 4 2 6 2 2 1 4 1 7 1h7l6-3c1-1 2-3 3-4 1-2 1-4 1-6s0-4-1-5c0-2 0-3-1-5h5c0 1 1 2 1 3v2c0 1 1 2 1 3v3c0 3-1 6-2 8s-2 4-4 6c-2 1-4 2-7 3s-6 1-9 1-6 0-9-1-5-2-7-4c-2-1-3-4-4-6s-2-5-2-8c0-2 0-4 1-6 0-2 1-4 2-5l4 2c0 1-1 2-1 4-1 1-1 3-1 5zm6-42c1 0 2 0 4 1 1 0 2 1 3 2 0 0 1 1 2 3 0 1 1 2 1 3 0-3 2-6 3-8 2-1 4-2 7-2 2 0 4 0 5 1 2 0 3 1 4 3 1 1 2 2 3 4 0 2 1 5 1 7 0 3 0 5-1 7 0 2-1 4-2 6h-4c0-2 1-4 2-6v-11c-1-1-1-3-2-3-1-1-2-2-3-2-1-1-2-1-3-1s-2 0-3 1c-1 0-2 1-3 2 0 1-1 2-1 4v9h-5v-5c0-1 0-3-1-4 0-1 0-2-1-3s-2-1-3-2c-1 0-2-1-3-1s-2 1-3 1c0 0-1 1-2 1 0 1-1 2-1 3v3c0 2 0 5 1 6 0 2 1 3 2 5l-4 2s-1-1-1-2c-1-1-1-2-2-3v-3c-1-3-1-4-1-5 0-2 0-4 1-6 0-1 1-3 2-4s2-2 3-2c2-1 3-1 5-1zm11-35c3 0 6 1 9 1 3 1 5 1 7 2 2 2 3 3 4 5 1 1 2 3 2 6 0 2-1 4-2 6s-2 3-4 4-4 2-7 3h-18c-3-1-5-2-7-3s-3-2-4-4-2-4-2-6 1-4 2-6 2-3 4-4 4-2 7-3c2 0 5-1 9-1zm0 22h7c3-1 4-1 6-2 1 0 2-1 3-2s1-3 1-4c0-2 0-3-1-4s-2-2-3-2c-2-1-3-2-5-2h-16c-2 0-4 1-5 2-2 0-3 1-3 2-1 1-1 2-1 4 0 1 0 3 1 4 0 1 1 2 3 2 1 1 3 1 5 2h8zm0-55h9c3 1 5 2 7 3s3 3 4 5 2 4 2 6c0 3-1 5-2 6-1 2-2 3-4 4-2 2-4 2-7 3-3 0-6 1-9 1-4 0-7-1-9-1-3-1-5-1-7-2s-3-3-4-5c-1-1-2-3-2-6 0-2 1-4 2-6 1-1 2-4 4-5s4-2 7-3h9zm0 22h7c3 0 4-1 6-1l3-3c1-1 1-2 1-4 0-1 0-2-1-4-1-1-2-1-3-2-2-1-3-1-5-2h-16c-2 1-4 1-5 2-2 1-3 1-3 2-1 2-1 3-1 4 0 2 0 3 1 4 0 1 1 2 3 3 1 0 3 1 5 1h8zm0-55c3 0 6 0 9 1 3 0 5 1 7 2s3 3 4 4c1 2 2 4 2 7 0 2-1 4-2 6-1 1-2 3-4 4s-4 2-7 2c-3 1-6 1-9 1-4 0-7 0-9-1-3 0-5-1-7-2s-3-3-4-4c-1-2-2-4-2-6 0-3 1-5 2-6 1-2 2-4 4-5s4-2 7-2c2-1 5-1 9-1zm0 22c3 0 5 0 7-1 3 0 4-1 6-1l3-3c1-1 1-2 1-3 0-2 0-3-1-4l-3-3c-2 0-3-1-5-1-3-1-5-1-8-1s-6 0-8 1c-2 0-4 1-5 1-2 1-3 2-3 3-1 1-1 2-1 4 0 1 0 2 1 3 0 1 1 2 3 3 1 0 3 1 5 1 2 1 5 1 8 1zm21-48l-37 12v1c1-1 3-1 4-1h33v5h-42v-8l34-12-34-12v-9h42v6h-29c-1 0-3 0-4-1h-4v1l37 13v5zm-21-70c3 0 6 1 9 1 3 1 5 2 7 4 2 1 3 3 4 6 1 2 2 5 2 8s-1 5-2 8c-1 2-2 4-4 5-2 2-5 3-7 4-3 1-6 1-9 1s-6 0-9-1-5-2-7-4c-2-1-3-3-4-5-1-3-2-5-2-9 0-3 1-5 2-7 1-3 2-5 4-6 2-2 4-3 7-4 3 0 6-1 9-1zm0 31c3 0 5 0 7-1 2 0 4-1 5-2 2-1 3-2 4-4 1-1 1-3 1-5 0-3 0-5-1-6-1-2-2-3-4-4-1-1-3-2-5-2-2-1-4-1-7-1s-5 0-7 1c-2 0-4 1-6 2-1 1-2 2-3 4-1 1-1 3-1 5 0 3 0 5 1 6 1 2 2 3 3 4 2 1 4 2 6 2 2 1 4 1 7 1zm0-72c3 0 6 0 9 1s5 2 7 4c1 2 3 4 4 6 1 3 1 7 1 10v11h-42v-12c0-3 0-7 1-9s2-5 4-6c2-2 4-3 7-4 2-1 5-1 9-1zm0 5c-3 0-6 1-8 1-2 1-3 2-5 3-1 1-2 3-3 4 0 2-1 5-1 8v5h34v-4c0-5-2-10-5-13-3-2-7-4-12-4zm82 310v5h-34c-1 0-2-1-3-1l1 1 1 1 1 1s0 1 1 1l3 4-3 3-9-11v-4h42zm0-42v27h-4l-11-10-4-4c-2-1-3-2-4-3s-3-2-4-2-3-1-4-1-2 1-3 1-2 1-2 1c-1 1-1 2-2 2v3c0 2 0 4 1 5 1 2 2 3 3 4l-4 3-2-2c0-1-1-2-1-3-1-1-1-2-1-3s-1-3-1-4c0-2 1-3 1-5 1-1 1-3 2-4s3-2 4-2c1-1 3-1 5-1 1 0 3 0 4 1 2 0 3 1 5 2 1 1 3 2 4 3 2 1 3 3 5 4l8 8h1v-20h4zm-9-36v6h9v6h-9v20h-5l-28-20v-6h28v-6h5zm-5 12h-14c-1 0-2-1-3-1h-6c1 1 1 1 2 1l1 1h1l1 1 18 13v-15zm-29-29c0-2 1-3 1-5 0-1 1-3 2-4s2-2 3-2c1-1 3-1 5-1h3c1 1 2 1 3 2l2 2c1 1 1 2 2 3 1-1 1-2 2-3s1-2 2-3 2-1 3-2c2 0 3-1 4-1 2 0 4 1 5 1 2 1 3 2 4 3s2 3 2 4c1 2 1 4 1 6s0 4-1 5c0 2-1 3-2 5-1 1-2 2-4 2-1 1-3 1-4 1-2 0-3 0-4-1-2 0-3-1-4-1 0-1-1-2-2-3s-1-2-2-3c0 1-1 2-2 3-1 0-1 1-2 2-1 0-2 1-3 1-1 1-2 1-4 1-1 0-3-1-4-1l-3-3c-1-1-2-2-2-4 0-1-1-3-1-4zm33 8c1 0 2 0 2-1 1 0 2 0 3-1 0-1 1-1 1-2v-8c0-1-1-2-1-2-1-1-2-2-3-2h-5c-1 1-2 1-3 2l-2 2c0 1-1 2-1 4l-1 1c1 2 3 4 4 5 2 1 3 2 6 2zm-28-8c0 2 0 4 1 5s3 2 5 2c1 0 2-1 3-1 0 0 1-1 2-1 0-1 1-2 1-3 1 0 1-1 2-2-1-1-1-2-2-3 0-1-1-1-1-2-1-1-2-1-2-2h-3c-2 0-4 1-5 2s-1 3-1 5zm17-47h9c3 1 5 3 7 4s4 2 4 4c1 2 2 4 2 6s-1 4-2 6c0 2-2 3-4 4s-4 2-7 3c-2 0-5 1-9 1-3 0-6-1-9-1-3-1-5-1-7-2-2-2-3-3-4-5-1-1-2-3-2-6 0-2 1-4 2-6s2-3 4-4 4-3 7-4h9zm0 22h8c2 0 4-1 5-2 2 0 3-1 3-2 1-1 1-2 1-4 0-1 0-3-1-4 0-1-1-2-3-2-1-1-3-1-5-2h-15c-3 1-4 1-6 2-1 0-2 1-3 2s-1 3-1 4c0 2 0 3 1 4s2 2 3 2c2 1 3 2 6 2h7zm12-72v6h9v5h-9v20h-5l-28-20v-5h28v-6h5zm-5 11h-23 2c0 1 0 1 1 1l1 1c1 0 1 0 1 1l18 12v-15zm-12-28c0-2 1-4 1-5 1-2 2-4 3-5 1-2 2-3 3-4 2 0 4-1 6-1s4 1 6 1c1 1 3 2 4 4 1 1 2 3 3 5s1 4 1 7v2c0 1 0 2-1 3v3c-1 0-1 1-1 2h-5c0-1 1-2 1-2 0-1 1-2 1-3v-10c0-1-1-2-2-3 0-1-1-1-3-2h-4c-2 0-4 0-6 2-1 2-2 4-2 8v5l1 1-2 3-20-2v-21h5v17l12 1v-3c-1-1-1-2-1-3z"/><path fill="#E5E5E5" d="M363 968c-1 2-1 4-2 6 1 1 1 2 1 3-3 0-5 1-8 2l-1-1c1-1 1-1 2-1 3-5 9-16-1-17-4 3-4 8-5 12-3 5-4 6-11 6-7-3-6-11-4-17-1-1-1-2-1-3 2 0 5-1 8-2-1 1-3 5-4 7-1 3-1 13 5 8 4-8 3-20 15-16 5 3 6 7 6 13zm-89 120c-2 0-7 0-8-1v-9c2 0 5 1 8 1v9zm4-12c-1 0-1 0 0-18h13c3-1 6-2 8-5h19c3 13 11 26 25 27 3 0 6-1 8-1 6 17-16 25-28 33-10 9 9 11 0 20l-12 6c-5 4-8 9-15 11v-27h-36v-23h18v-6c3 1 7 2 11 2 0 2 0 5 1 7 3 1 6 1 10 2v-6c8 1 16 3 24 3 2-1 3-2 4-5v-16c-1 0-1 0-11-2 0 2 0 4-2 6l-15-3v-7c-4 0-7-1-10-2 0 2-1 4-1 7-4-1-7-2-11-3zm0-39c-1 0-1 0-1-33h1c2-1 5-2 7-2 0 1 0 1-2 3-1 2-2 10 0 11h30c2 0 2-1 3-3h1v13c-2 0-3-2-4-3h-30c-3 4-1 11 2 15v1c-3-1-5-2-7-2zm9-29v-23c2-1 4-1 6-2h1c-1 2-3 4-3 7v9h8c0-3 2-10-2-11v-2h8v1c0 1-1 1-2 3v9c3 0 10 1 10-1v-8c0-2 0-3-1-5-1-1-2-2-2-4l6 3c1 8 1 16 1 24h-1c-1 0-1-1-1-2-7-1-17 0-24 0-2 0-2 1-3 2h-1zm-9 68v-18m39 39c-13-3-26-5-39-8v-9c13 3 26 5 38 8h1v9zm-30-115v-15h1c1 2 1 2 1 3 3-1 6-3 9-5-2-2-8-7-10-3 0 0-1 0-1-1v-10h1c1 5 9 9 13 11 5-2 9-6 14-10 0-4-24-12-28-13v-7l27-10c1-1 1-1 2-3h1v12h-1c-1-3-5-1-7 0v12c2 1 3 2 6 1 0 0 0-1 1-1 0 0 1 0 1-1v22c-1 0-2-1-2-2-2 0-9 4-10 6 3 2 9 8 11 3h1v11h-1c-2-5-9-9-13-12-4 0-14 7-15 12h-1zm18-41c-1 1-10-3-12-4 0-1 10-4 12-5v9zm13-32c-1 2-3 6-1 7v1l-9 3c0-2 3-5 4-7 1-3 2-5 1-9-6-9-9 3-10 9-5 10-14 7-16-3 0-4 1-7 0-11 3 0 5-1 8-2 0 2-3 5-4 7-1 4-1 12 5 9 3-7 2-16 10-18 10 0 11 6 12 14zm5 118v-14h1c1 2 2 2 3 3h32c1 0 2-1 2-3h2c-1 5-1 9-1 14h-1c0-2-1-3-2-4h-32c-2 1-2 2-3 4h-1zm10-270c-1 0-1-24 0-24 5-1 6-2 7-2 0 0 0 1 1 1-4 3-5 5-4 10h23c1-2 1-2 1-3h2v13h-2c0-2 0-2-1-3h-24c0 5 0 6 5 9v1l-8-2zm0 12c-1 0-1 0 0-9h1c0 2 1 2 3 2 9 1 17 1 26 1l-1 1c-7 6-14 13-21 19h19c0-1 1-2 2-2h1v10l-1 1c-1-3-2-4-4-4h-21c-2 0-3 1-3 4-1 0-1 0-1-1-1 0-1-9 0-9 5-5 11-10 16-15-4 0-10-1-15 0v2h-1zm0 91c-1-11-1-11 0-11l18-8c-6-3-12-6-18-8h-1l1-11c1 1 1 2 3 3h23c1-1 2-2 2-3h2c-1 4-1 8-1 12h-1c0-1 0-1-1-2-1 0-1 0-2-1-6 1-12 1-18 1 8 3 15 6 23 10v1c-8 3-15 6-23 10h18c2 0 3-1 3-2h2v9h-2c0-1-1-2-2-3h-23c-2 1-2 2-3 3zm0 13c-1 0-1-11 0-11s1 1 1 2c7 2 15 1 22 1 9 4 9 21 1 26-1 0-2 0-3 1h-18c-1 0-2 1-2 2h-1c-1 0-1-12 0-12l3 3h17c8-2 8-13 0-16h-16c-2 2-2 2-3 4h-1zm0 52c-1 0-1-18 0-18 0-6 4-12 11-9 3 2 3 2 4 4 0 2 0 2 1 2 1-1 2-2 2-3 5-3 8-4 10-9h1c3 10-3 12-11 16-1 3-1 4-1 7h8c2 0 3-1 3-3h2v13h-2v-1c0-1-1-1-2-2h-23c-1 0-1 1-2 2l-1 1zm0 64c-1 0-1 0 0-9h1c0 2 1 2 3 3h26s0 1-1 1c-7 7-14 13-21 19 17 1 17 1 19 0 0-1 1-1 2-2h1v10h-1c-1-2-2-2-3-3h-23c-1 1-2 1-2 3h-1c-1 0-1-9 0-9 5-5 11-10 16-15h-15v2h-1zm0-170v-23c6-2 6-2 7-2-1 1-2 2-4 6 0 3 0 6 1 10h8v-8c0-1 0-2-1-3-1 0-1 0-1-1s8-1 8 0-1 1-2 2v10h9c2-4 1-9 0-13-1-2-2-3-3-4v-1c3 1 5 2 7 3 0 8 0 16 1 24h-2c0-1 0-1-1-2-8 0-18-2-26 0 0 1 0 2-1 2zm26 124h-22c0 7-1 7 3 11 0 0 1 0 1 1-3-1-6-2-8-3v-24c6-2 7-3 7-3 1 0 1 1 1 1-4 3-5 5-5 10h23c2 0 2-1 2-3h2v13h-1c-1-2-2-2-3-3zm4-224c-2 6-2 6-1 7h1v2c-9 2-9 2-10 2v-1c4-4 10-14 3-19-11 0-3 24-19 18-6-4-6-10-3-16-1-2-1-2-2-2 1 0 1-1 1-2 2 0 5-1 7-1h1c-3 5-8 14-2 17 1 0 2-1 2-1 6-9 2-18 15-18 6 2 6 8 7 14zm-16 196h-9c-5 0 0-17 7-9 1 3 1 6 2 9z"/></g><g><path fill="#999" d="M401.863 139.23v-35.625h78.155v35.625z"/><path fill="#CBA580" d="M419 110h46c1 0 2 1 2 2v20s-1 1-2 1h-49c-1 0-2-1-2-1v-5l-1-1h-3v-1h3c1 0 2 1 2 2v5h51v-20c0-1 0-1-1-1h-46c-1 0-1 0-1 1v18s0 1 1 1h43c1 0 1-1 1-1v-16c0-1 0-1-1-1h-41v15c0 1 0 1 1 1h37s1 0 1-1v-13l-1-1h-34c-1 0-1 1-1 1v12h33v-11c0-1 0-1 1-1v12s-1 1-2 1h-31c-1 0-2-1-2-1v-12c0-1 1-1 2-1h34c1 0 2 0 2 1v13c0 1-1 2-2 2h-37c-1 0-2-1-2-2v-15c0-1 1-1 2-1h40c1 0 2 1 2 2v16c0 1-1 2-2 2h-43c-1 0-2-1-2-2v-18c0-1 1-2 2-2z"/><path fill="#fff" fill-opacity=".2" d="M402 139h78z"/><path fill="#dcdcdc" d="M472 138v1h8v-35h-8c-1 3-2 7-2 10 0 4 1 21 2 24zm-60-24c0-3-1-7-2-10h-8v35h8v-1c1-3 2-20 2-24z"/><path fill="#fff" fill-opacity=".502" d="M472 139h8zm-70 0h8z"/><path fill="#666" d="M442.858 266.843v-17.258h13.646v17.258z"/><path fill="#999" d="M454.862 266.84v-15.317h1.24v15.316z"/><path fill="#666" d="M417.86 266.843v-17.258h13.645v17.258z"/><path fill="#999" d="M429.863 266.84v-15.317h1.24v15.316z"/><path fill="#666" d="M391.86 266.843v-17.258h13.645v17.258z"/><path fill="#999" d="M404.863 266.84v-15.317h1.224v15.316z"/><path fill="#666" d="M366.86 266.843v-17.258h13.645v17.258z"/><path fill="#999" d="M378.86 266.84v-15.317h1.212v15.316z"/><path fill="#666" d="M340.86 266.843v-17.258h13.638v17.258z"/><path fill="#999" d="M353.86 266.84v-15.317h1.213v15.316z"/><path fill="#B3B3B3" d="M269 17h260v237H269z"/><path fill="#CCC" d="M268.86 253.662v-1.814h259.825v1.814z"/><path fill="#333" d="M327.864 253.672V35.912h142.003v217.76z"/><path fill="#B3B3B3" d="M532 22v-7l9-16h5z"/><path fill="#CCC" d="M532 15V8l9-9z"/><path fill="#B3B3B3" d="M252-1h5l9 16v7z"/><path fill="#CCC" d="M257-1l9 9v7z"/><path fill="#F2F2F2" d="M337.86 30.86v-9.052h6.59v9.052zm29.003 0v-9.052h6.602v9.052zm28.997 0v-9.052h6.574v9.052zm28 0v-9.052h6.574v9.052zm28.998 0v-9.052h6.575v9.052z"/><path fill="gray" d="M457.858 30.86v-9.052h1.323v9.052zm-27.998 0v-9.052h1.338v9.052zm-28.997 0v-9.052h1.35v9.052zm-29 0v-9.052h1.35v9.052zm-28.999 0v-9.052h1.35v9.052z"/><path fill="#4D4D4D" d="M467 19h-7v6h-7v-6h-22v6h-7v-6h-22v6h-6v-6h-22v6h-7v-6h-22v6h-7v-6h-8c-1 0-2 1-2 2v15c0 1 1 2 2 2h138c1 0 2-1 2-2V21c0-1-1-2-2-2h-1z"/><path fill="#CCC" d="M532 246l-3 8h-35s32-1 33-4c1-2-2-4-2-4h7zm-266 0l3 8h35s-32-1-33-4c-1-2 2-4 2-4h-7z"/><path fill="#E6E6E6" d="M313 254v-23h22v23h6v-8h116v8h7v-23h22v23h46V17H266v237h47zM464 60V49h22v12c6 4 10 10 10 19 0 8-3 15-10 19v63h-22V99c-7-4-11-11-11-19 0-9 4-16 11-20zm-150 0V49h22v12c6 4 9 10 9 19 0 8-2 15-9 19v63h-22V99c-7-4-12-11-12-19 0-9 5-16 12-20z"/><path fill="#F2F2F2" d="M526 17h6v229h-21z"/><path fill="#999" d="M266 17l8 153 8 76h-16z"/><path fill="#CCC" d="M463.862 161.497v-1.83h21.965v1.83zm-150.002 0v-1.83h21.937v1.83z"/><path fill="#B3B3B3" d="M278.865 27.817v-9.214h239.71v9.215z"/><path fill="#CCC" d="M278.865 20.728v-4.37h239.71v4.37z"/></g><g><path fill="#C93" d="M779 165l-19-31 18-28-28 18-29-18 18 28-17 29 28-19z"/><path fill="#C93" d="M754 153l-4-3-5 3 5 22zm-20-19l-3 4-21-4 21-5zm35 5l-3-5 3-5 21 5zm-14-24l-5-21-5 21 5 3z"/><path fill="#E6AB00" d="M779 165l-19-31 18-28-19 28zm-25-12l-4-3 3 3-3 22zm-23-15l2-4-2-5 3 5z"/><path fill="#E6AB00" d="M769 139l18-5-18-5 21 5zm-14-24l-5-21 4 21-4 3zm-5 9l-29-18 29 19zm0 19l-28 20 28-19z"/></g><g><path fill="#CCC" d="M606 104h63.257v35.45H606z"/><path fill="#E5E5E5" d="M618 107h39.044v29.07H618z"/><path fill="#1B5BB3" d="M630 116h15.024v11.185H630z"/></g><g><path fill="#CCC" d="M557 419h22.516v35.45H557z"/><path fill="#E5E5E5" d="M578 419h2.268v35.45H578z"/><path fill="#CCC" d="M619 419h22.516v35.45H619z"/><path fill="#E5E5E5" d="M639 419h2.268v35.45H639z"/><path fill="#CCC" d="M619 291h22.516v35.45H619z"/><path fill="#E5E5E5" d="M639 291h2.268v35.45H639z"/><path fill="#CCC" d="M557 291h22.516v35.45H557z"/><path fill="#E5E5E5" d="M578 291h2.268v35.45H578z"/><path fill="#999" d="M541 301h118v143H541z"/><path fill="#B2B2B2" d="M656 301h3v143h-3z"/><path fill="#8C8C8C" d="M541 301h3v143h-3z"/><path d="M600 338c19 0 35 15 35 34s-16 36-35 36-35-17-35-36 16-34 35-34z"/><path fill="#404040" d="M598 341c18 0 32 14 32 31 0 18-14 33-32 33-17 0-31-15-31-33 0-17 14-31 31-31z"/><path fill="#999" d="M598 341c18 0 32 14 32 31 0 18-14 33-32 33 41-6 41-59 0-64z"/></g><g><path fill="#CCC" d="M157 419h22.516v35.45H157z"/><path fill="#E5E5E5" d="M178 419h2.268v35.45H178z"/><path fill="#CCC" d="M219 419h22.516v35.45H219z"/><path fill="#E5E5E5" d="M239 419h2.268v35.45H239z"/><path fill="#CCC" d="M219 291h22.516v35.45H219z"/><path fill="#E5E5E5" d="M239 291h2.268v35.45H239z"/><path fill="#CCC" d="M157 291h22.516v35.45H157z"/><path fill="#E5E5E5" d="M178 291h2.268v35.45H178z"/><path fill="#999" d="M141 301h118v143H141z"/><path fill="#B2B2B2" d="M256 301h3v143h-3z"/><path fill="#8C8C8C" d="M141 301h3v143h-3z"/><path d="M200 338c19 0 35 15 35 34s-16 36-35 36-35-17-35-36 16-34 35-34z"/><path fill="#404040" d="M198 341c18 0 32 14 32 31 0 18-14 33-32 33-17 0-31-15-31-33 0-17 14-31 31-31z"/><path fill="#999" d="M198 341c18 0 32 14 32 31 0 18-14 33-32 33 41-6 41-59 0-64z"/></g><g fill="#fff" fill-rule="nonzero"><path d="M232 1403c0 2-1 4-1 5-1 1-2 3-3 4s-2 1-4 2c-2 0-4 1-6 1s-4-1-5-1c-2 0-4-1-5-1v-5c1 0 2 0 2 1h3c1 1 2 1 3 1h2c3 0 5 0 7-1 1-2 2-3 2-5 0-1 0-2-1-3 0 0 0-1-1-2-1 0-2-1-3-1-1-1-2-2-4-2-1-1-3-2-4-2l-3-3c-1-1-1-2-2-3v-4c0-2 0-3 1-4 0-2 1-3 2-4 1 0 2-1 4-2h10c2 1 4 1 5 2l-2 4c-1 0-2-1-4-1-1-1-3-1-4-1-2 0-4 1-5 2-2 1-2 2-2 4v3c1 0 1 1 2 2 0 0 1 1 2 1 1 1 2 1 4 2s3 1 4 2 2 1 3 2 2 2 2 3c1 1 1 3 1 4zm20 12c-1 0-2-1-2-1-1 0-2 0-3-1 0 0-1-1-2-1 0-1-1-1-1-2v18h-5v-44h4l1 4s1-1 1-2c1 0 2-1 2-1 1 0 2-1 3-1h2c2 0 4 0 5 1 2 0 3 1 4 3 1 1 1 2 2 4s1 5 1 7c0 3 0 5-1 7s-1 3-2 5c-1 1-2 2-4 3-1 0-3 1-5 1zm0-27h-4c-1 1-2 1-2 2-1 1-1 2-2 3v11c1 1 1 3 2 3 0 1 1 2 2 3h4c2 0 4-1 5-3 1-1 2-4 2-8s-1-7-2-8c-1-2-3-3-5-3zm36 26l-1-4c0 1-1 1-2 2 0 1-1 1-2 1 0 1-1 1-2 1s-2 1-3 1-2-1-3-1-2-1-3-2c-1 0-2-1-2-2 0-2-1-3-1-4 0-3 1-6 4-7 2-2 5-3 9-3h5v-5l-2-2-1-1h-7c-1 1-3 1-4 2l-1-4c1 0 2-1 4-2h10c1 1 2 1 3 2s2 2 2 3c1 1 1 3 1 5v20h-4zm-9-4h3c1 0 2-1 3-2 0 0 1-1 1-2 1-1 1-3 1-4v-3l-4 1h-4c-1 0-2 1-3 1 0 1-1 1-1 2v3c0 1 0 3 1 3 1 1 2 1 3 1zm35-26h3v4h-3c-1 0-2 0-3 1-1 0-2 1-3 2s-1 2-1 3c-1 1-1 2-1 4v16h-5v-30h4l1 6c0-1 1-2 1-3 1 0 1-1 2-2 1 0 1-1 2-1h3zm14 15l3-5 8-10h6l-11 13 12 17h-6l-9-14-3 3v11h-5v-42h5v27zm54-21c-2 0-4 1-5 1-2 1-3 2-4 3-1 2-2 4-3 5 0 2-1 5-1 7 0 3 1 5 1 7 1 2 1 4 2 5 2 1 3 2 4 3 2 1 4 1 6 1h5c1-1 2-1 4-1v4c-1 0-2 0-2 1h-5c-1 1-2 1-3 1-3 0-5-1-8-2-2-1-3-2-5-4-1-2-2-4-3-7-1-2-1-5-1-8s0-6 1-8c1-3 2-5 4-7 1-1 3-3 5-4s5-1 8-1h6c1 1 3 1 4 2l-2 4c-1 0-2-1-3-1-2-1-3-1-5-1zm41 21c0 3 0 5-1 7s-1 3-3 5c-1 1-2 2-4 3-1 0-3 1-5 1s-4-1-5-1c-2-1-3-2-4-3-1-2-2-3-3-5s-1-4-1-7c0-2 0-5 1-7 1-1 1-3 3-4 1-2 2-3 4-3 1-1 3-1 5-1s4 0 5 1c2 0 3 1 4 3 2 1 2 3 3 4 1 2 1 5 1 7zm-21 0c0 4 1 7 2 9 1 1 3 2 6 2s5-1 6-2c1-2 2-5 2-9s-1-7-2-8c-1-2-3-3-6-3s-5 1-6 3c-1 1-2 4-2 8zm42-15h3l-1 4h-3c-1 0-2 0-3 1-1 0-1 1-2 2s-1 2-2 3v20h-5v-30h4v6h1c0-1 1-2 1-3 1 0 1-1 2-2 0 0 1-1 2-1h3zm21 31c-2 0-4-1-6-1-1-1-3-2-4-3-1-2-2-3-3-5 0-2-1-4-1-7 0-2 1-4 1-6 1-2 2-4 3-5 1-2 2-3 4-3 1-1 3-1 5-1 1 0 3 0 4 1 2 0 3 1 4 2 1 2 2 3 2 5 1 1 1 3 1 5v3h-19c0 4 1 6 3 8 1 1 3 2 6 2h5s1-1 2-1c0 0 1-1 2-1v5h-2c-1 1-2 1-2 1h-3s-1 1-2 1zm-1-27c-2 0-4 0-5 2-2 1-2 3-2 6h13v-3c-1-1-1-2-1-3-1-1-2-1-2-2h-3zm39 26l-11-30h5l6 17s0 1 1 2v3c1 1 1 2 1 3s1 1 1 2v-2c0-1 1-2 1-3s1-2 1-3 0-2 1-2l5-17h5l-10 30h-6zm35 0h-4v-35l-1 1-1 1-1 1h-1l-4 4-2-4 10-8h4v40zm16-3v-2s0-1 1-1l1-1h2c1 1 1 1 2 1v1c0 1 1 1 1 2s-1 1-1 2v1c-1 0-1 0-2 1h-2l-1-1c-1 0-1-1-1-1v-2zm39-17c0 3-1 6-1 9-1 2-1 4-2 6s-3 3-4 4c-2 1-4 2-6 2s-4-1-6-2c-1-1-3-2-4-4s-2-4-2-6c-1-3-1-6-1-9s0-6 1-8c0-3 1-5 2-7s2-3 4-4 4-1 6-1 4 0 5 1c2 1 3 2 4 4l3 6c0 3 1 6 1 9zm-21 0c0 3 0 5 1 7 0 2 0 4 1 5 1 2 1 3 2 3 1 1 2 1 4 1 1 0 2 0 3-1 1 0 2-1 3-3 0-1 1-3 1-5v-14c0-2-1-4-1-5l-3-3c-1-1-2-1-3-1-2 0-3 0-4 1s-1 2-2 3-1 3-1 5c-1 2-1 4-1 7zM155 499l-10-29c0 1 0 2 1 3v26h-4v-33h6l9 27 9-27h5v33h-4v-20s1-1 1-2v-7l-10 29h-3zm51-16c0 2-1 4-1 6l-3 6c-1 1-2 2-4 3s-4 1-6 1-4 0-6-1-3-2-4-3l-3-6c0-2-1-4-1-6 0-3 1-5 1-7 1-3 2-5 3-6s2-3 4-3c2-1 4-1 6-1s4 0 6 1c2 0 3 2 4 3s2 3 3 6c0 2 1 4 1 7zm-23 0v5c1 2 1 3 2 4l3 3h8c2-1 3-2 3-3 1-1 2-2 2-4s1-3 1-5-1-4-1-6c0-1-1-2-2-5 0-1-1-1-3-2-1-1-2-1-4-1-1 0-3 0-4 1s-2 1-3 2c-1 3-1 4-2 5v6zm53-1c0 3 0 5-1 7s-2 4-3 5c-1 2-3 3-5 4-2 0-4 1-6 1h-8v-33h9c2 0 4 0 5 1 2 1 4 2 5 3s2 3 3 6c1 2 1 4 1 6zm-4 1c0-2-1-4-1-6 0-1-1-4-2-5s-2-1-3-2c-2 0-3-1-5-1h-4v26h3c4 0 7-1 9-3s3-5 3-9zm27 16h-16v-33h16v4h-12v10h11v4h-11v11h12v4zm312-12v13h-4v-33h8c4 0 6 1 8 3 2 1 3 3 3 7 0 2 0 3-1 4 0 0 0 1-1 2l-2 2c-1 0-1 0-2 1l8 14h-4l-8-13h-5zm0-4h7c1 0 2-1 2-1 1-1 1-1 1-2 1-1 1-2 1-3s0-1-1-2c0-2 0-2-1-3-1 0-1-1-2-1h-7v12zm39 8c0 2-1 3-1 4-1 1-1 2-2 3s-2 1-4 2h-8c-2 0-3-1-4-1v-4c1 0 1 0 2 1h2s1 1 2 1h2c2 0 4-1 5-1 1-1 2-3 2-4s0-2-1-2c0-1 0-1-1-2 0 0-1-1-2-1-1-1-2-1-3-2-1 0-2-1-3-1-1-1-2-2-3-2 0-1-1-2-1-3s-1-2-1-3 1-4 1-5c1 0 1-1 2-2s2-1 3-2h9c1 1 2 1 3 2l-1 3c-1 0-2-1-3-1-2 0-3-1-4-1-2 0-3 1-4 2-1 0-2 3-2 4s1 1 1 2 0 1 1 2c0 0 1 1 2 1s2 1 3 1c1 1 2 1 3 2 1 0 2 1 3 2 0 0 1 1 1 2 1 1 1 2 1 3zm15 9h-4v-29h-9v-4h22v4h-9v29zm56-248h4l2 2c1 0 1 1 2 2 0 1 1 2 1 3 0-3 1-5 3-6 1-2 3-2 5-2h4c2 1 3 2 4 3s1 2 2 4c0 1 1 3 1 5s-1 4-1 5c0 2-1 3-1 4h-4c0-1 1-2 1-4 1-2 1-3 1-5 0-1 0-2-1-3 0-2 0-2-1-3l-2-2h-3c-1 0-2 0-3 1 0 0-1 1-2 1 0 1 0 2-1 3v7h-4v-6c0-1-1-2-1-3-1-1-2-1-3-1 0-1-1-1-2-1h-2c-1 1-2 1-2 2-1 0-1 1-1 2v6c1 2 2 3 2 4l-3 2s-1-1-1-2c0 0-1-1-1-2s-1-2-1-3v-3c0-2 0-3 1-5 0-1 1-2 1-3 1-1 2-1 3-2h3zm-8-28v-5l35 12v4l-35 13v-5l22-8c2-1 3-1 5-1 1-1 2-1 3-1-1 0-2-1-3-1-2 0-3-1-5-1l-22-7zm8-28c2 0 3 0 4 1 1 0 1 1 2 1 1 1 1 2 2 3 0 1 1 2 1 3 0-3 1-5 3-7 1-1 3-2 5-2s3 0 4 1c2 0 3 1 4 2s1 3 2 4c0 2 1 4 1 6s-1 3-1 5c0 1-1 3-1 4h-4c0-1 1-3 1-4 1-2 1-4 1-5s0-3-1-4c0-1 0-2-1-2-1-1-1-2-2-2h-6c0 1-1 1-2 2 0 1 0 2-1 3v7h-4v-7c0-1-1-2-1-2-1-1-2-2-3-2h-4c-1 0-2 1-2 1-1 1-1 1-1 2v7c1 1 2 3 2 4l-3 2c0-1-1-1-1-2s-1-2-1-2c0-1-1-2-1-3v-3c0-2 0-4 1-5 0-1 1-2 1-3 1-1 2-2 3-2 1-1 2-1 3-1zm13 171h14v4h-35v-8c0-5 1-8 3-10 1-2 4-3 7-3 2 0 3 0 4 1 1 0 2 1 2 1 1 1 2 2 2 3 1 0 1 1 2 2l15-9v5l-14 8v6zm-4 0v-8c-1-1-1-2-2-2 0-1-1-1-2-2h-5c-1 1-2 1-2 2l-2 2v8h13zm9-43c1 0 3 0 4 1s2 1 3 2 1 3 2 4c0 1 1 3 1 5s-1 3-1 5c0 1-1 3-1 4h-4v-2c1-1 1-2 1-2 0-1 0-2 1-3v-2c0-3-1-4-2-6-1-1-2-1-4-1h-2c-1 0-1 1-2 1 0 1-1 1-1 2-1 1-1 3-2 4 0 1-1 3-2 4 0 1-1 2-2 2-1 1-2 1-3 2h-3c-2 0-3 0-4-1-1 0-2-1-3-2s-1-2-2-3v-9c1-2 1-3 2-4l3 1c0 1 0 2-1 4v4c0 2 0 3 1 4s2 2 4 2c1 0 1 0 2-1 1 0 1 0 2-1 0 0 1-1 1-2 1-1 1-2 2-3 0-2 1-3 2-4 0-1 1-2 2-3 0 0 1-1 2-1 1-1 2-1 4-1zm9-18v5h-31v10h-4v-25h4v10h31zm-27 154c1 0 2 0 2 1 1 0 2 1 3 1 0 1 1 1 1 2s1 2 1 3c0-3 1-4 2-6 2-1 3-2 5-2 1 0 3 1 4 1s2 1 3 2c0 1 1 2 1 3 1 2 1 3 1 5v6c-1 1-1 2-2 3h-3c1-1 1-2 1-4 1-2 1-3 1-5 0-1 0-2-1-3 0-1 0-2-1-2 0-1-1-1-2-1 0-1-1-1-2-1s-2 0-2 1c-1 0-2 1-2 1 0 1-1 2-1 3v7h-3v-4c0-1-1-2-1-3s0-2-1-2c-1-1-1-1-2-1 0-1-1-1-2-1h-2c-1 1-1 1-1 2-1 0-1 0-1 1s-1 1-1 2c0 2 1 3 1 4 1 2 1 3 2 4l-3 2s-1-1-1-2c0 0-1-1-1-2 0 0 0-2-1-3v-3c0-1 0-3 1-4 0-1 1-2 1-2 1-1 2-2 3-2 1-1 2-1 3-1zm-7-23v-4l30 10v4l-30 10v-4l19-6c1-1 2-1 3-1 1-1 2-1 4-1-2 0-3-1-4-1s-2-1-3-1l-19-6zm7-24c1 0 2 0 2 1 1 0 2 1 3 1 0 1 1 1 1 2s1 2 1 3c0-3 1-4 2-6 2-1 3-2 5-2 1 0 3 1 4 1 1 1 2 1 3 2 0 1 1 2 1 4 1 1 1 3 1 4v5c-1 1-1 2-2 3h-3c1-1 1-2 1-4 1-1 1-2 1-4 0-1 0-2-1-3 0-1 0-1-1-2 0-1-1-1-2-1 0-1-1-1-2-1s-2 0-2 1c-1 0-2 1-2 1 0 1-1 2-1 3v6h-3v-3c0-1-1-2-1-3s0-2-1-2c-1-1-1-1-2-1 0-1-1-1-2-1h-2c-1 1-1 1-1 2-1 0-1 1-1 1 0 1-1 1-1 2 0 2 1 3 1 4 1 1 1 2 2 3l-3 2s-1-1-1-2c0 0-1-1-1-2 0 0 0-1-1-2v-3c0-1 0-2 1-4 0-1 1-2 1-2 1-1 2-2 3-2s2-1 3-1zm-9-17l8 1-3-9 4-1 1 9 7-6 2 4-8 4 8 4-2 3-7-4-1 7h-4l3-8h-8v-4zm18 181v-11h17c0 1 0 2 1 3v5c1 1 1 2 1 4s-1 4-2 6-2 4-3 5l-6 3c-2 1-5 1-7 1-3 0-6 0-8-1s-4-2-5-3c-2-2-3-4-4-6s-1-4-1-7v-5c1-2 1-3 2-5l4 2c-1 1-1 1-1 2s0 1-1 2v4c0 2 0 4 1 6 0 1 1 2 2 3 2 1 3 2 5 3h11c2-1 4-1 5-2s2-3 3-4c0-2 1-3 1-5v-2c0-1 0-1-1-2v-3h-10v7h-4zm18-46v5l-29 18h4c1-2 2-2 3-2h22v6h-35v-7l29-16h-29v-4h35zm-18-35c3 0 6 0 8 1l6 3c1 2 2 3 3 5 1 3 1 5 1 8v8h-35v-9c0-3 1-5 1-7 1-2 2-4 4-5 1-1 3-2 5-3s5-1 7-1zm1 4c-3 0-5 1-6 1-2 1-4 1-5 2s-2 3-2 4c-1 2-1 3-1 5v5h27v-4c0-4-1-7-3-9-2-3-6-4-10-4zm-1 140c3 0 6 0 8 1l6 3 3 6c1 2 1 4 1 7v9h-35v-10c0-3 1-5 1-7 1-2 2-3 4-5 1-1 3-2 5-3s5-1 7-1zm1 5h-6c-2 1-4 2-5 3s-2 2-2 3c-1 2-1 4-1 5v5h27v-4c0-4-1-7-3-9-3-2-6-3-10-3zm17-16l-31-13v19h-4v-23h4l31 13v4zm-18 112c3 0 6 0 8 1s4 2 6 4c1 1 2 3 3 5s1 4 1 7v9h-35v-10c0-2 1-5 1-7 1-2 2-3 4-5 1-1 3-2 5-3s5-1 7-1zm1 5c-3 0-5 0-6 1-2 0-4 1-5 2s-2 2-2 3c-1 2-1 4-1 5v5h27v-4c0-4-1-7-3-9s-6-3-10-3zm2-11h-5c-1 0-3 0-4-1-2 0-3-1-5-1l-3-3c-1-1-2-3-2-4-1-2-1-4-1-6v-4h4v8c0 1 1 2 1 3 1 0 2 1 3 2 0 0 1 1 2 1s3 0 4 1h3c0-1-1-1-1-1l-2-2v-2c-1-1-1-2-1-3s1-2 1-4c1-1 1-2 2-3s2-1 3-2h10c1 1 2 1 3 2s2 2 3 4c0 1 1 2 1 4s-1 3-1 5l-3 3c-1 1-3 2-5 3h-7zm12-11c0-1 0-2-1-2 0-1 0-2-1-2-1-1-2-1-3-2h-6c-1 0-2 1-2 1l-2 2v6l2 2c0 1 1 1 2 2h5c1-1 2-1 3-2 1 0 2-1 2-2 1-1 1-2 1-3zm-15 118c3 0 5 0 8 1 2 1 4 2 5 3 2 1 3 3 3 5 1 2 2 5 2 7v9h-35v-9c0-3 0-5 1-7s2-4 3-5c2-1 3-3 6-3 2-1 4-1 7-1zm0 4c-2 0-4 1-6 1-2 1-3 1-4 2s-2 3-3 4v10h27v-4c0-4-1-7-4-10-2-2-5-3-10-3zm-4-20c0-2 0-3 1-5 0-1 1-2 2-3l3-3h9c2 1 3 2 4 3s2 2 2 4c1 1 1 3 1 5v5c-1 0-1 1-1 2 0 0-1 1-1 2h-4c0-1 1-2 1-2 0-1 1-2 1-3v-7c0-1-1-2-1-3-1-1-2-1-3-1-1-1-2-1-3-1-2 0-4 1-5 2s-2 4-2 6v4c0 1 1 1 1 2l-2 2-16-1v-17h4v13l10 1c0-1 0-1-1-2v-3zm5 118c2 0 5 1 7 1 2 1 4 2 6 5 1 1 2 3 3 5s1 5 1 7v9h-34v-10c0-2 0-4 1-6 0-2 1-4 3-5 1-3 3-4 5-5 2 0 5-1 8-1zm0 6c-3 0-5 0-6 1-2 0-3 1-4 2-2 1-2 2-3 4 0 1-1 3-1 5v4h27v-3c0-5-1-8-3-10s-6-3-10-3zm9-34v5h8v4h-8v16h-3l-24-16v-4h24v-5h3zm-3 9h-17c-1 0-2 0-2-1v1h1s1 0 1 1h1c1 0 1 1 1 1l15 10v-12zm-7 119c3 0 6 1 8 2 2 0 4 1 6 3 1 1 2 3 3 5s1 5 1 7v9h-35v-10c0-2 1-4 1-6 1-2 2-4 4-5 1-2 3-3 5-3 2-1 5-2 7-2zm1 5c-3 0-5 0-6 1-2 0-4 1-5 2s-2 2-2 4c-1 1-1 3-1 5v5h27v-4c0-4-1-8-3-10s-6-3-10-3zm-9-31h3l2 2c1 0 1 1 2 2 0 1 1 2 1 3 0-3 1-5 3-6 1-2 3-2 5-2h4c2 1 3 2 4 3s1 2 2 4c0 1 1 3 1 6 0 2-1 4-1 5 0 2-1 3-1 5h-4c0-2 1-3 1-5 1-2 1-3 1-5 0-1 0-3-1-4 0-1 0-2-1-3l-2-2h-3c-1 0-2 0-3 1 0 0-1 1-2 1 0 1 0 2-1 3v8h-4v-7c0-1-1-2-1-3-1-1-2-1-3-1 0-1-1-1-2-1h-2c-1 1-2 1-2 2-1 0-1 1-1 2v7c1 2 2 3 2 4l-3 2s-1-1-1-2c0 0-1-1-1-2s-1-2-1-3v-3c0-3 0-4 1-5 0-2 1-3 1-4 1-1 2-1 3-2h4zm9 127c3 0 5 1 8 2 2 0 4 1 5 3 2 1 3 3 3 5 1 2 2 5 2 7v9h-35v-10c0-2 0-4 1-6s2-4 3-5c2-2 3-3 6-3 2-1 4-2 7-2zm0 5c-2 0-4 0-6 1-2 0-3 1-4 2s-2 2-3 4v10h27v-4c0-4-1-8-4-10-2-2-5-3-10-3zm18-31v21h-4l-9-8c-1-1-3-2-4-3l-3-3c-1 0-2-1-3-1s-2-1-3-1-2 0-3 1c0 0-1 0-1 1-1 0-1 1-2 2v2c0 1 0 3 1 4s1 2 2 3l-3 3c0-1-1-1-1-2-1-1-1-2-1-3-1 0-1-1-1-2-1-1-1-2-1-3 0-2 1-3 1-4s1-3 2-3c1-1 2-2 3-2 1-1 2-1 4-1 1 0 2 0 3 1 2 0 3 1 4 1 1 1 2 2 4 3l3 3 7 7h1v-16h4zm-19 120c3 0 6 1 8 2 2 0 4 1 6 3 1 1 2 3 3 5s1 5 1 7v10h-35v-11c0-2 1-4 1-6 1-2 2-4 4-5 1-2 3-3 5-3 2-1 5-2 7-2zm1 5c-3 0-5 0-6 1-2 0-4 1-5 2s-2 2-2 4c-1 1-1 3-1 5v5h27v-4c0-4-1-8-3-10-3-2-6-3-10-3zm17-24v4h-30 1v1s1 0 1 1l3 4-3 2-7-9v-3h35zm-18 129c3 0 6 0 8 1l6 3 3 6c1 2 1 4 1 7v9h-35v-10c0-2 1-5 2-7 0-2 1-3 3-5 1-1 3-2 5-3s5-1 7-1zm1 5h-6c-2 1-3 2-5 3-1 1-1 2-2 3-1 2-1 4-1 5v5h27v-4c0-4-1-7-3-9s-6-3-10-3zm0-33h7c2 1 4 1 6 2 1 1 3 2 3 4 1 1 2 3 2 5s-1 3-2 5c0 1-2 2-3 3-2 1-4 2-6 2-2 1-4 1-7 1s-6 0-8-1c-2 0-4-1-5-2-2-1-3-2-4-3-1-2-1-3-1-5s0-4 1-5c1-2 2-3 4-4 1-1 3-1 5-2h8zm0 17h6c2 0 3-1 4-1 2-1 2-1 3-2s1-2 1-3c0-2 0-3-1-3-1-1-1-2-3-2-1-1-2-1-4-2h-13c-1 1-3 1-4 2-1 0-2 1-3 2v6c1 1 2 1 3 2 1 0 3 1 4 1h7zm-563 16l-11 3v13l11 4v5l-35-13v-4l35-13v5zm-15 5l-10 3s0 1-1 1h-1c-1 0-1 0-2 1h-1 1c1 0 1 1 2 1h1c1 0 1 0 1 1l10 3v-10zm-2-35h7c2 1 4 1 6 2 1 1 3 2 3 4 1 1 2 3 2 5s-1 3-2 5c0 1-2 2-3 3-2 2-4 3-6 3-2 1-5 1-7 1-3 0-6 0-8-1-2 0-4-1-5-3-2-1-3-2-4-3-1-2-1-3-1-5s0-4 1-5 2-3 3-4c2 0 4-1 6-2h8zm0 17h6c2 0 3-1 4-1 1-1 2-1 3-2s1-2 1-3 0-2-1-3-2-2-3-2c-1-1-2-1-4-2h-13c-1 1-3 1-4 2-1 0-2 1-3 2 0 1-1 2-1 3s1 2 1 3c1 1 2 1 3 2 1 0 3 1 4 1h7zm17-89l-11 3v14l11 4v5l-35-14v-4l35-13v5zm-15 5l-10 3s0 1-1 1h-1c-1 0-1 0-2 1h-1 1c1 0 1 1 2 1h1c1 0 1 0 1 1l10 4v-11zm15-27v4H98c0 1 0 1 1 1v1h1v1l3 4-3 2-7-9v-4h35zm0-79l-11 3v13l11 4v5l-35-13v-4l35-13v5zm-15 5l-10 3s0 1-1 1h-1c-1 0-1 0-2 1h-1 1c1 0 1 1 2 1h1c1 0 1 0 1 1l10 3v-10zm15-34v22h-4l-9-8c-1-2-2-3-3-4s-2-1-3-2-2-1-3-1c-1-1-3-1-4-1h-2l-2 2-1 1v7l3 3-3 3c-1-1-1-2-2-2 0-1-1-2-1-3s-1-2-1-3v-7c1-1 2-2 2-3 1-1 2-1 3-2h8c1 1 2 1 4 2l3 3c1 1 3 2 4 3l7 7v-17h4zm0-72l-11 3v13l11 4v5l-35-13v-4l35-13v5zm-15 5l-10 3s0 1-1 1h-1c-1 0-1 0-2 1h-1 1c1 0 1 1 2 1h1c1 0 1 0 1 1l10 3v-10zm-12-34c2 0 3 1 4 1s1 1 2 1c1 1 1 2 2 3 0 1 1 3 1 4 0-4 1-6 3-8 1-1 3-2 5-2s3 1 4 1c2 1 3 1 4 2s1 3 2 4c0 3 1 5 1 7s-1 3-1 5c0 1-1 3-1 4h-4c0-1 1-3 1-4 1-2 1-3 1-5 0-1 0-3-1-4 0-1 0-3-1-3l-2-2h-6c0 1-1 1-2 2 0 2 0 3-1 4v7h-4v-7c0-1-1-2-2-2 0-2-1-2-2-3h-4c-1 0-2 1-2 1-1 2-1 3-1 3v7c1 1 2 3 2 4l-3 2c0-1-1-1-1-2s-1-1-1-2-1-2-1-3v-9c1-1 2-2 2-3 1-1 2-2 3-2s2-1 3-1zm27-73l-11 4v13l11 4v5l-35-13v-4l35-14v5zm-15 6l-10 3s0 1-1 1h-1c-1 0-1 0-2 1h-1 1c1 0 1 1 2 1h1c1 0 1 0 1 1l10 3v-10zm7-37v5h8v5h-8v16h-4l-23-16v-5h23v-5h4zm-4 10h-11c-1 0-2 0-3-1h-4c0 1 0 1 1 1h1c0 1 1 1 1 1s1 0 1 1l14 9v-11zm12-80l-11 3v13l11 4v6l-35-14v-4l35-13v5zm-15 5l-10 3s0 1-1 1h-1c-1 0-1 0-2 1h-1 1c1 0 1 1 2 1h1c1 0 1 0 1 1l10 3v-10zm-6-23v-4c1-1 1-3 2-4s2-1 4-2c1-1 2-1 4-1s3 0 5 1c1 0 2 1 3 2s2 3 3 4c0 2 1 4 1 6 0 0-1 1-1 2v2c0 1 0 2-1 2v2h-4s0-1 1-2v-2c0-1 1-2 1-2v-3c0-1 0-2-1-3 0-1 0-2-1-2-1-1-1-2-2-2h-4c-2 0-4 0-5 2-1 1-2 3-2 6v1c1 1 1 1 1 2v2l-1 2-17-1v-16h4v12l10 1v-5zm21-83l-11 3v13l11 4v5l-35-13v-4l35-13v5zm-15 5l-10 3s0 1-1 1h-1c-1 0-1 0-2 1h-1 1c1 0 1 1 2 1h1c1 0 1 0 1 1l10 3v-10zm0-13h-5c-1 0-3 0-4-1-2 0-3-1-5-1l-3-3c-1-1-2-3-2-4-1-2-1-4-1-6v-4h4v8c0 1 1 2 1 3 1 0 2 1 3 2 0 0 1 1 2 1s3 1 4 1h3c0-1-1-1-1-1l-2-2v-2c-1-1-1-2-1-3s1-2 1-4c0-1 1-2 2-3s2-1 3-2h10c1 1 2 2 3 2 1 1 2 3 3 4 0 1 1 3 1 4 0 2-1 3-1 5l-3 3c-1 1-3 2-5 3h-7zm12-11c0-1 0-2-1-2 0-1 0-2-1-2-1-1-2-1-3-2h-6c-1 0-2 1-2 1-1 1-1 2-2 2v6c1 1 1 2 2 2 0 1 1 1 2 2h5c1-1 2-1 3-2 1 0 2-1 2-2 1-1 1-2 1-3zm3-82l-11 3v13l11 4v5l-35-13v-4l35-13v5zm-15 5l-10 3s0 1-1 1h-1c-1 0-1 0-2 1h-1 1c1 0 1 1 2 1h1c1 0 1 0 1 1l10 3v-10zm15-16l-31-15v19h-4v-23h4l31 13v6zm-18-263v-12h17c0 1 0 2 1 3v5c1 1 1 2 1 4s-1 4-2 6c0 2-2 4-3 5l-6 3c-2 1-5 1-7 1-3 0-5 0-8-1-2-1-4-2-5-3-2-2-3-4-4-6s-1-4-1-7v-5c1-2 1-3 2-4l4 1c0 1-1 1-1 2s0 1-1 2v5c0 1 0 3 1 5 0 1 1 2 3 3 1 1 2 2 4 3h11c2-1 4-1 5-2s2-2 3-4c0-1 1-3 1-5v-2c0-1 0-1-1-2v-3h-10v8h-4zm18-46v5l-29 17h4c1 0 2 0 3-1h22v5H93v-6l29-16H93v-4h35zm-18-36c3 0 6 0 8 1l6 3c1 2 2 3 3 6 1 2 1 4 1 7v8H93v-9c0-3 1-5 1-7 1-2 2-3 4-5 1-1 3-2 5-3s5-1 7-1zm1 4c-3 0-5 1-6 1-2 1-3 2-5 3-1 1-1 2-2 3-1 2-1 3-1 5v5h27v-4c0-4-1-7-3-9s-6-4-10-4zm-18-45v-5l35 12v4l-35 12v-5l22-7c2-1 3-1 4-1 2-1 3-1 4-1-1 0-2-1-4-1-1-1-2-1-4-1l-22-7zm35-21v14h-3l-1-5H97l-1 5h-3v-14h3l1 4h27l1-4h3zm0-32v5l-29 17h4c1-1 2-1 3-1h22v5H93v-6l29-16H93v-4h35zm-14 365h14v5H93v-9c0-5 1-8 3-10 1-2 4-3 7-3 2 0 3 0 4 1 1 0 2 0 2 1 1 1 2 1 2 2 1 1 1 2 1 3l16-10v6l-14 9v5zm-4 0v-8c-1-1-1-2-2-3 0 0-1-1-2-1h-6s-1 1-1 2c-1 0-1 1-2 2v8h13zm18-47v5l-15 9 15 8v5l-18-11-17 10v-5l14-7-14-8v-5l17 10 18-11zm0-64v4H97v10h-4v-24h4v10h31zm0-37v5l-15 8 15 9v4l-18-10-17 10v-5l14-8-14-8v-4l17 10 18-11z"/></g></svg>