<?xml version="1.0" encoding="UTF-8" standalone="no"?>
<!DOCTYPE svg PUBLIC "-//W3C//DTD SVG 1.1//EN" "http://www.w3.org/Graphics/SVG/1.1/DTD/svg11.dtd">
<svg width="100%" height="100%" viewBox="0 0 14 18" version="1.1" xmlns="http://www.w3.org/2000/svg" xmlns:xlink="http://www.w3.org/1999/xlink" xml:space="preserve" xmlns:serif="http://www.serif.com/" style="fill-rule:evenodd;clip-rule:evenodd;stroke-linejoin:round;stroke-miterlimit:2;">
    <g transform="matrix(1,0,0,1,-2.58132,-2.91211)">
        <g transform="matrix(1.36156,0,0,1.74345,-3.92165,-8.82762)">
            <path d="M11.119,13.213L7.875,13.213C7.869,13.052 7.866,12.922 7.866,12.823C7.866,12.514 7.908,12.233 7.991,11.98C8.074,11.727 8.187,11.522 8.331,11.365C8.474,11.208 8.664,11.062 8.899,10.928C9.031,10.856 9.332,10.725 9.802,10.535C10.273,10.344 10.557,10.197 10.655,10.094C10.804,9.947 10.878,9.776 10.878,9.584C10.878,9.364 10.766,9.177 10.543,9.022C10.319,8.868 10.021,8.79 9.648,8.79C9.269,8.79 8.97,8.885 8.752,9.073C8.534,9.261 8.425,9.552 8.425,9.947L4.776,9.947C4.833,9.368 5.008,8.878 5.301,8.475C5.72,7.892 6.32,7.456 7.1,7.167C7.88,6.878 8.793,6.734 9.837,6.734C10.812,6.734 11.663,6.853 12.389,7.093C13.115,7.333 13.657,7.676 14.016,8.122C14.374,8.568 14.553,9.035 14.553,9.523C14.553,9.805 14.496,10.07 14.381,10.316C14.267,10.563 14.123,10.763 13.951,10.918C13.779,11.072 13.567,11.219 13.314,11.358C13.136,11.452 12.795,11.606 12.29,11.819C11.785,12.031 11.464,12.215 11.326,12.37C11.188,12.524 11.119,12.754 11.119,13.059L11.119,13.213ZM11.326,14.154L11.326,16.829L7.694,16.829L7.694,14.154L11.326,14.154Z" style="fill:rgb(0,225,255);fill-rule:nonzero;"/>
        </g>
    </g>
</svg>
