<?xml version="1.0" encoding="UTF-8"?>
<svg width="23px" height="24px" viewBox="0 0 23 24" version="1.1" xmlns="http://www.w3.org/2000/svg" xmlns:xlink="http://www.w3.org/1999/xlink">
    <!-- Generator: Sketch 52.2 (67145) - http://www.bohemiancoding.com/sketch -->
    <title>documentation</title>
    <desc>Created with Sketch.</desc>
    <g id="Page-1—New" stroke="none" stroke-width="1" fill="none" fill-rule="evenodd">
        <g id="documentation">
            <g id="Duotone">
                <polygon id="Path" fill="#FFFFFF" points="6.5 23.5 21 23.5 22.5 20.5 21 17.5 6.5 17.5 8 20.5"></polygon>
                <polygon id="Path" fill="#FFFFFF" points="14 4.5 11.5 6.5 9 4.5 5 7 6 13.5 9 15.5 11.5 14 14 15.5 17 13.5 18 7"></polygon>
                <polygon id="Path" fill="#B2C0DB" points="13.5 2.5 16.5 2.5 18 0.5 15 0.5"></polygon>
                <polygon id="Path" fill="#B2C0DB" points="11.5 14 14 15.5 17 13.5 18 7 14 4.5 11.5 6.5"></polygon>
                <polygon id="Path" fill="#B2C0DB" points="16 23.5 17.5 20.5 16 17.5 18.5 17.5 20 20.5 18.5 23.5"></polygon>
                <polygon id="Path" fill="#B2C0DB" points="10 23.5 11.5 20.5 10 17.5 12.5 17.5 14 20.5 12.5 23.5"></polygon>
                <g id="Group" stroke="#002F87" stroke-linecap="round" stroke-linejoin="round">
                    <polyline id="Path" points="6.5 23.5 21 23.5 22.5 20.5 21 17.5 6.5 17.5"></polyline>
                    <polyline id="Path" points="0.5 23.5 6.5 23.5 8 20.5 6.5 17.5 0.5 17.5"></polyline>
                    <polyline id="Path" points="18.5 17.5 20 20.5 18.5 23.5"></polyline>
                    <polyline id="Path" points="16 17.5 17.5 20.5 16 23.5"></polyline>
                    <polyline id="Path" points="12.5 17.5 14 20.5 12.5 23.5"></polyline>
                    <polyline id="Path" points="10 17.5 11.5 20.5 10 23.5"></polyline>
                    <path d="M5.5,21.5 L1.5,21.5" id="Path"></path>
                    <path d="M5.5,19.5 L1.5,19.5" id="Path"></path>
                    <polygon id="Path" points="14 4.5 11.5 6.5 9 4.5 5 7 6 13.5 9 15.5 11.5 14 14 15.5 17 13.5 18 7"></polygon>
                    <polygon id="Path" points="13.5 2.5 16.5 2.5 18 0.5 15 0.5"></polygon>
                    <path d="M11.5,6.5 L11.5,1.5" id="Path"></path>
                </g>
            </g>
            <g id="Frames-24px">
                <rect id="Rectangle" x="0" y="0" width="24" height="24"></rect>
            </g>
        </g>
    </g>
</svg>