<?xml version="1.0" encoding="UTF-8"?>
<!DOCTYPE svg PUBLIC "-//W3C//DTD SVG 1.1//EN" "http://www.w3.org/Graphics/SVG/1.1/DTD/svg11.dtd">
<!-- Creator: CorelDRAW X6 -->
<svg xmlns="http://www.w3.org/2000/svg" xml:space="preserve" width="2.04536in" height="0.8in" version="1.1" shape-rendering="geometricPrecision" text-rendering="geometricPrecision" image-rendering="optimizeQuality" fill-rule="evenodd" clip-rule="evenodd"
viewBox="0 0 2045 800"
 xmlns:xlink="http://www.w3.org/1999/xlink">
 <g id="Layer_x0020_1">
  <metadata id="CorelCorpID_0Corel-Layer"/>
  <g id="shapes">
   <path fill="#404040" d="M1987 0l-1890 0 -97 50 0 696 97 54 1890 0 0 -800 0 0zm-244 598c0,-10 8,-18 18,-18 10,0 18,8 18,18 0,10 -8,18 -18,18 -10,0 -18,-8 -18,-18zm167 149c0,-16 13,-29 29,-29 16,0 29,14 29,29 0,17 -13,30 -29,30 -16,0 -29,-14 -29,-30zm0 -694c0,-16 13,-29 29,-29 16,0 29,13 29,29 0,16 -13,29 -29,29 -16,0 -29,-13 -29,-29zm-167 496c0,-10 8,-18 18,-18 10,0 18,8 18,18 0,10 -8,18 -18,18 -10,0 -18,-8 -18,-18z"/>
   <rect fill="#666666" x="1696" y="688" width="42.5696" height="16.4243"/>
   <polygon fill="#00A9F3" fill-rule="nonzero" points="1678,212 1667,212 1667,201 1664,201 1664,212 1652,212 1652,215 1664,215 1664,226 1667,226 1667,215 1678,215 "/>
   <rect fill="none" stroke="#E81C40" stroke-width="4.35039" x="169" y="91" width="1017" height="617"/>
   <rect fill="#006900" x="169" y="87" width="1019" height="621"/>
   <rect fill="#B2B2B2" x="1085" y="98" width="88.7148" height="57.5418"/>
   <rect fill="#CCCCCC" x="178" y="98" width="73.2957" height="57.5418"/>
   <rect fill="#D29A33" x="1081" y="209" width="88.7148" height="95.5305"/>
   <rect fill="#A8916F" x="188" y="227" width="49.9444" height="76.7601"/>
   <rect fill="#A8916F" x="246" y="650" width="59.1062" height="47.8209"/>
   <rect fill="#A8916F" x="334" y="650" width="59.1062" height="47.8209"/>
   <rect fill="#A8916F" x="422" y="650" width="59.1062" height="47.8209"/>
   <rect fill="#A8916F" x="510" y="650" width="59.1062" height="47.8209"/>
   <rect fill="#A8916F" x="598" y="650" width="59.1062" height="47.8209"/>
   <rect fill="#A8916F" x="687" y="650" width="59.1062" height="47.8209"/>
   <rect fill="#A8916F" x="775" y="650" width="59.1062" height="47.8209"/>
   <rect fill="#A8916F" x="863" y="650" width="59.1062" height="47.8209"/>
   <rect fill="#A8916F" x="951" y="650" width="59.1062" height="47.8209"/>
   <rect fill="#A8916F" x="1039" y="650" width="59.1062" height="47.8209"/>
   <rect fill="#A8916F" x="246" y="98" width="59.1062" height="47.8209"/>
   <rect fill="#A8916F" x="334" y="98" width="59.1062" height="47.8209"/>
   <rect fill="#A8916F" x="422" y="98" width="59.1062" height="47.8209"/>
   <rect fill="#A8916F" x="510" y="98" width="59.1062" height="47.8209"/>
   <rect fill="#A8916F" x="598" y="98" width="59.1062" height="47.8209"/>
   <rect fill="#A8916F" x="687" y="98" width="59.1062" height="47.8209"/>
   <rect fill="#A8916F" x="775" y="98" width="59.1062" height="47.8209"/>
   <rect fill="#A8916F" x="863" y="98" width="59.1062" height="47.8209"/>
   <rect fill="#A8916F" x="951" y="98" width="59.1062" height="47.8209"/>
   <rect fill="#A8916F" x="1039" y="98" width="59.1062" height="47.8209"/>
   <rect fill="#B2B2B2" x="1119" y="617" width="54.5253" height="80.3348"/>
   <rect fill="#CCCCCC" x="178" y="630" width="54.5253" height="67.3739"/>
   <rect fill="#CCCCCC" x="178" y="454" width="54.5253" height="129.162"/>
   <rect fill="#B2B2B2" x="1085" y="344" width="88.7148" height="57.5418"/>
   <rect fill="#B2B2B2" x="1085" y="535" width="88.7148" height="57.5418"/>
   <rect fill="#B2B2B2" x="195" y="107" width="969" height="582"/>
   <polygon fill="#E6E6E6" fill-opacity="0.349020" points="195,689 759,540 1163,107 1163,689 "/>
   <path fill="#F2F2F2" d="M1107 657l-857 0c-16,0 -30,-14 -30,-31l0 -456c0,-17 14,-31 30,-31l857 0c17,0 31,14 31,31l0 456c0,17 -14,31 -31,31z"/>
   <path fill="black" d="M476 466l2 -18 17 0 0 5 -13 0 -1 8c1,0 2,-1 3,-1 1,0 2,-1 3,-1 3,0 5,1 7,3 1,2 2,5 2,8 0,4 -1,6 -2,8 -2,2 -5,3 -8,3 -3,0 -6,0 -8,-2 -2,-2 -3,-4 -3,-7l0 0 6 0c0,2 0,3 1,4 1,1 2,1 3,1 2,0 3,0 4,-2 1,-1 2,-2 2,-4 0,-2 -1,-4 -2,-5 -1,-1 -2,-2 -4,-2 -1,0 -2,0 -3,1 -1,0 -1,1 -1,2l-5 -1z"/>
   <path fill="black" d="M452 466l1 -18 18 0 0 5 -13 0 -1 8c1,0 1,-1 2,-1 1,0 2,-1 3,-1 3,0 5,1 7,3 2,2 3,5 3,8 0,4 -1,6 -3,8 -2,2 -4,3 -8,3 -3,0 -5,0 -7,-2 -2,-2 -3,-4 -3,-7l0 0 5 0c0,2 0,3 1,4 1,1 2,1 4,1 2,0 3,0 4,-2 1,-1 1,-2 1,-4 0,-2 0,-4 -1,-5 -1,-1 -2,-2 -4,-2 -2,0 -3,0 -3,1 -1,0 -2,1 -2,2l-4 -1z"/>
   <path fill="black" d="M427 466l2 -18 17 0 0 5 -13 0 -1 8c1,0 2,-1 3,-1 1,0 2,-1 3,-1 3,0 5,1 7,3 1,2 2,5 2,8 0,4 -1,6 -3,8 -1,2 -4,3 -8,3 -2,0 -5,0 -7,-2 -2,-2 -3,-4 -3,-7l0 0 5 0c0,2 1,3 2,4 1,1 2,1 3,1 2,0 3,0 4,-2 1,-1 2,-2 2,-4 0,-2 -1,-4 -2,-5 -1,-1 -2,-2 -4,-2 -1,0 -2,0 -3,1 -1,0 -1,1 -2,2l-4 -1z"/>
   <path fill="black" d="M402 466l2 -18 17 0 0 5 -12 0 -1 8c0,0 1,-1 2,-1 1,0 2,-1 3,-1 3,0 5,1 7,3 2,2 3,5 3,8 0,4 -1,6 -3,8 -2,2 -5,3 -8,3 -3,0 -5,0 -7,-2 -2,-2 -3,-4 -3,-7l0 0 5 0c0,2 0,3 1,4 1,1 2,1 4,1 1,0 3,0 4,-2 1,-1 1,-2 1,-4 0,-2 0,-4 -1,-5 -1,-1 -3,-2 -4,-2 -2,0 -3,0 -4,1 0,0 -1,1 -1,2l-5 -1z"/>
   <polygon fill="black" points="336,578 326,578 326,588 322,588 322,564 338,564 338,567 326,567 326,574 336,574 "/>
   <path fill="black" d="M359 580l0 0c0,3 -1,4 -3,6 -1,1 -4,2 -6,2 -3,0 -6,-1 -7,-3 -2,-1 -3,-4 -3,-7l0 -4c0,-3 1,-6 3,-8 1,-2 4,-3 6,-3 3,0 6,1 7,3 2,1 3,3 3,6l0 0 -4 0c0,-2 -1,-3 -2,-4 -1,-1 -2,-1 -4,-1 -1,0 -2,0 -3,2 -1,1 -2,3 -2,5l0 4c0,2 1,4 2,5 1,1 2,2 4,2 1,0 3,-1 3,-1 1,-1 2,-3 2,-4l4 0 0 0z"/>
   <path fill="black" d="M380 580l0 0c0,3 -1,4 -2,6 -2,1 -4,2 -7,2 -3,0 -5,-1 -7,-3 -1,-1 -2,-4 -2,-7l0 -4c0,-3 1,-6 2,-8 2,-2 4,-3 7,-3 3,0 5,1 7,3 1,1 2,3 2,6l0 0 -4 0c0,-2 0,-3 -1,-4 -1,-1 -2,-1 -4,-1 -2,0 -3,0 -4,2 -1,1 -1,3 -1,5l0 4c0,2 0,4 1,5 1,1 2,2 4,2 2,0 3,-1 4,-1 1,-1 1,-3 1,-4l4 0 0 0z"/>
   <polygon fill="black" points="397,588 393,588 393,564 397,564 "/>
   <path fill="black" d="M402 588l0 -24 8 0c3,0 6,1 8,3 2,2 3,4 3,7l0 4c0,3 -1,5 -3,7 -2,2 -5,3 -8,3l-8 0 0 0zm4 -21l0 18 4 0c2,0 4,-1 5,-2 1,-2 1,-3 1,-5l0 -4c0,-2 0,-4 -1,-5 -1,-2 -3,-2 -5,-2l-4 0 0 0z"/>
   <path fill="black" d="M437 573l-4 0 0 -4 4 0 0 4zm0 15l-4 0 0 -4 4 0 0 4z"/>
   <polygon fill="black" points="459,573 464,564 469,564 462,576 469,588 465,588 459,579 454,588 449,588 457,576 450,564 454,564 "/>
   <path fill="black" d="M477 579l0 9 -4 0 0 -24 9 0c3,0 5,0 6,2 2,1 2,3 2,5 0,3 0,4 -2,6 -1,1 -3,2 -6,2l-5 0zm0 -3l5 0c1,0 2,-1 3,-2 1,0 1,-1 1,-3 0,-1 0,-2 -1,-3 -1,-1 -2,-1 -3,-1l-5 0 0 9z"/>
   <polygon fill="black" points="502,576 508,564 513,564 504,580 504,588 500,588 500,579 492,564 496,564 "/>
   <path fill="black" d="M528 582c0,-1 0,-2 -1,-3 -1,0 -2,-1 -4,-1 -2,-1 -4,-2 -6,-3 -1,-1 -2,-3 -2,-5 0,-2 1,-3 2,-5 2,-1 4,-2 6,-2 3,0 5,1 7,3 1,1 2,3 2,5l0 0 -4 0c0,-1 -1,-2 -1,-3 -1,-1 -2,-1 -4,-1 -1,0 -2,0 -3,1 -1,0 -1,1 -1,2 0,1 1,2 1,3 1,0 2,1 4,1 3,1 5,2 6,3 2,1 2,3 2,5 0,2 -1,3 -2,5 -2,1 -4,1 -6,1 -3,0 -5,0 -7,-2 -1,-1 -2,-3 -2,-5l0 0 4 0c0,1 0,2 1,3 1,1 2,1 4,1 1,0 2,0 3,-1 1,0 1,-1 1,-2z"/>
   <path fill="black" d="M549 582l-9 0 -2 6 -4 0 9 -24 3 0 9 24 -4 0 -2 -6zm-8 -3l7 0 -3 -10 0 0 -4 10z"/>
   <path fill="black" d="M562 578l0 10 -4 0 0 -24 8 0c3,0 5,0 6,2 2,1 3,2 3,5 0,1 -1,2 -1,3 -1,1 -2,2 -3,2 1,1 2,1 3,2 0,1 1,2 1,4l0 2c0,1 0,1 0,2 0,1 0,1 1,2l0 0 -4 0c-1,0 -1,-1 -1,-2 0,-1 0,-1 0,-2l0 -2c0,-1 -1,-2 -2,-3 0,-1 -1,-1 -3,-1l-4 0 0 0zm0 -3l4 0c1,0 3,-1 3,-1 1,-1 2,-2 2,-3 0,-1 -1,-2 -2,-3 0,-1 -1,-1 -3,-1l-4 0 0 8z"/>
   <path fill="black" d="M592 582l-9 0 -1 6 -5 0 9 -24 4 0 8 24 -4 0 -2 -6zm-7 -3l6 0 -3 -10 0 0 -3 10z"/>
   <path fill="black" d="M619 564l0 16c0,2 -1,4 -2,6 -2,1 -4,2 -7,2 -3,0 -5,-1 -7,-2 -2,-2 -3,-4 -3,-6l0 -16 4 0 0 16c0,1 1,3 2,4 1,0 2,1 4,1 1,0 3,0 4,-1 1,-1 1,-3 1,-4l0 -16 4 0z"/>
   <path fill="black" d="M639 588l-15 0 0 -3 7 -9c2,-1 2,-2 3,-3 0,-1 1,-2 1,-3 0,-1 -1,-2 -1,-2 -1,-1 -2,-1 -3,-1 -1,0 -2,0 -3,1 0,1 -1,2 -1,3l-4 0 0 0c0,-2 1,-4 2,-5 2,-2 4,-3 6,-3 2,0 4,1 5,2 2,2 2,3 2,5 0,2 0,3 -1,4 0,1 -2,3 -3,5l-6 6 0 0 11 0 0 3 0 0z"/>
   <path fill="black" d="M652 563c0,0 1,0 2,1 1,0 2,0 3,0l-1 3c-1,0 -2,0 -2,0 -1,0 -2,-1 -2,-1 -2,0 -3,1 -4,2 -1,1 -1,3 -1,5l0 1c0,0 1,-1 2,-1 1,-1 2,-1 3,-1 2,0 4,1 5,2 1,2 2,3 2,6 0,2 -1,4 -2,6 -2,1 -4,2 -6,2 -3,0 -5,-1 -6,-3 -2,-1 -2,-4 -2,-7l0 -5c0,-3 0,-5 2,-7 2,-2 4,-3 7,-3zm-1 12c-1,0 -2,1 -3,1 -1,0 -1,1 -1,1l0 2c0,2 0,3 1,4 1,2 2,2 3,2 1,0 2,0 3,-1 0,-1 1,-2 1,-4 0,-1 -1,-2 -1,-3 -1,-1 -2,-2 -3,-2z"/>
   <path fill="black" d="M678 579c0,3 -1,5 -3,7 -1,1 -3,2 -5,2 -3,0 -5,-1 -6,-2 -2,-2 -2,-4 -2,-7l0 -7c0,-2 0,-5 2,-6 1,-2 3,-3 6,-3 2,0 4,1 5,3 2,1 3,4 3,6l0 7zm-4 -7c0,-2 -1,-3 -1,-4 -1,-1 -2,-1 -3,-1 -2,0 -3,0 -3,1 -1,1 -1,2 -1,4l0 8c0,1 0,3 1,4 0,0 1,1 3,1 1,0 2,-1 3,-1 0,-1 1,-3 1,-4l0 -8z"/>
   <polygon fill="black" points="285,481 280,481 280,448 285,448 "/>
   <polygon fill="black" points="309,473 309,473 319,448 326,448 326,481 320,481 320,457 320,457 311,481 307,481 298,457 298,457 298,481 293,481 293,448 300,448 "/>
   <polygon fill="black" points="351,466 338,466 338,476 353,476 353,481 333,481 333,448 353,448 353,452 338,452 338,461 351,461 "/>
   <polygon fill="black" points="364,481 358,481 358,448 364,448 "/>
   <path fill="black" d="M377 461l-6 0 0 -5 6 0 0 5zm0 20l-6 0 0 -6 6 0 0 6z"/>
   <path fill="black" d="M650 466l2 -18 17 0 0 5 -12 0 -1 8c0,0 1,-1 2,-1 1,0 2,-1 3,-1 3,0 5,1 7,3 2,2 3,5 3,8 0,4 -1,6 -3,8 -2,2 -5,3 -8,3 -3,0 -5,0 -7,-2 -2,-2 -3,-4 -3,-7l0 0 5 0c0,2 0,3 1,4 1,1 2,1 4,1 1,0 3,0 4,-2 1,-1 1,-2 1,-4 0,-2 0,-4 -1,-5 -1,-1 -3,-2 -4,-2 -2,0 -3,0 -4,1 0,0 -1,1 -1,2l-5 -1z"/>
   <path fill="black" d="M626 466l2 -18 17 0 0 5 -13 0 -1 8c1,0 2,-1 3,-1 0,0 1,-1 2,-1 3,0 6,1 7,3 2,2 3,5 3,8 0,4 -1,6 -3,8 -1,2 -4,3 -8,3 -3,0 -5,0 -7,-2 -2,-2 -3,-4 -3,-7l0 0 5 0c0,2 1,3 2,4 1,1 2,1 3,1 2,0 3,0 4,-2 1,-1 1,-2 1,-4 0,-2 0,-4 -1,-5 -1,-1 -2,-2 -4,-2 -1,0 -2,0 -3,1 -1,0 -1,1 -2,2l-4 -1z"/>
   <path fill="black" d="M601 466l2 -18 17 0 0 5 -12 0 -1 8c0,0 1,-1 2,-1 1,0 2,-1 3,-1 3,0 5,1 7,3 2,2 2,5 2,8 0,4 0,6 -2,8 -2,2 -5,3 -8,3 -3,0 -6,0 -8,-2 -2,-2 -2,-4 -2,-7l0 0 5 0c0,2 0,3 1,4 1,1 2,1 4,1 1,0 3,0 4,-2 0,-1 1,-2 1,-4 0,-2 -1,-4 -1,-5 -1,-1 -3,-2 -4,-2 -2,0 -3,0 -4,1 -1,0 -1,1 -1,2l-5 -1z"/>
   <path fill="black" d="M577 466l2 -18 17 0 0 5 -13 0 -1 8c1,0 1,-1 2,-1 1,0 2,-1 3,-1 3,0 6,1 7,3 2,2 3,5 3,8 0,4 -1,6 -3,8 -2,2 -4,3 -8,3 -3,0 -5,0 -7,-2 -2,-2 -3,-4 -3,-7l0 0 5 0c0,2 1,3 1,4 1,1 3,1 4,1 2,0 3,0 4,-2 1,-1 1,-2 1,-4 0,-2 0,-4 -1,-5 -1,-1 -2,-2 -4,-2 -1,0 -3,0 -3,1 -1,0 -2,1 -2,2l-4 -1z"/>
   <path fill="black" d="M551 466l2 -18 17 0 0 5 -13 0 -1 8c1,0 2,-1 3,-1 1,0 2,-1 3,-1 3,0 5,1 7,3 1,2 2,5 2,8 0,4 -1,6 -3,8 -1,2 -4,3 -8,3 -2,0 -5,0 -7,-2 -2,-2 -3,-4 -3,-7l0 0 5 0c0,2 1,3 2,4 1,1 2,1 3,1 2,0 3,0 4,-2 1,-1 2,-2 2,-4 0,-2 -1,-4 -2,-5 -1,-1 -2,-2 -4,-2 -1,0 -2,0 -3,1 -1,0 -1,1 -2,2l-4 -1z"/>
   <path fill="black" d="M526 466l2 -18 17 0 0 5 -12 0 -1 8c0,0 1,-1 2,-1 1,0 2,-1 3,-1 3,0 5,1 7,3 2,2 3,5 3,8 0,4 -1,6 -3,8 -2,2 -5,3 -8,3 -3,0 -5,0 -7,-2 -2,-2 -3,-4 -3,-7l0 0 5 0c0,2 0,3 1,4 1,1 2,1 4,1 1,0 3,0 4,-2 1,-1 1,-2 1,-4 0,-2 0,-4 -1,-5 -1,-1 -3,-2 -4,-2 -2,0 -3,0 -4,1 0,0 -1,1 -1,2l-5 -1z"/>
   <path fill="black" d="M502 466l2 -18 17 0 0 5 -13 0 -1 8c1,0 2,-1 2,-1 1,0 2,-1 3,-1 3,0 6,1 7,3 2,2 3,5 3,8 0,4 -1,6 -3,8 -1,2 -4,3 -8,3 -3,0 -5,0 -7,-2 -2,-2 -3,-4 -3,-7l0 0 5 0c0,2 1,3 2,4 0,1 2,1 3,1 2,0 3,0 4,-2 1,-1 1,-2 1,-4 0,-2 0,-4 -1,-5 -1,-1 -2,-2 -4,-2 -1,0 -2,0 -3,1 -1,0 -1,1 -2,2l-4 -1z"/>
   <path fill="black" d="M299 402c0,2 0,3 -1,4 -1,2 -2,3 -4,3 2,1 3,2 4,3 2,2 2,3 2,5 0,3 -1,6 -3,7 -2,2 -5,3 -8,3 -3,0 -6,-1 -8,-3 -2,-1 -3,-4 -3,-7 0,-2 1,-3 2,-5 1,-1 2,-2 4,-3 -1,0 -3,-1 -4,-3 -1,-1 -1,-2 -1,-4 0,-3 1,-5 3,-7 2,-1 4,-2 7,-2 3,0 5,1 7,3 2,1 3,3 3,6zm-5 0c0,-1 -1,-2 -2,-3 0,-1 -1,-2 -3,-2 -1,0 -2,1 -3,2 -1,1 -2,2 -2,3 0,2 1,3 2,4 1,1 2,1 3,1 2,0 3,0 3,-1 1,-1 2,-2 2,-4zm1 15c0,-2 -1,-3 -2,-4 -1,-1 -2,-1 -4,-1 -1,0 -3,0 -4,1 -1,1 -2,2 -2,4 0,2 1,3 2,4 1,1 3,1 4,1 2,0 3,0 4,-1 1,-1 2,-2 2,-4z"/>
   <path fill="black" d="M326 415c0,3 -1,6 -3,8 -2,3 -5,4 -8,4 -3,0 -6,-1 -8,-4 -2,-2 -3,-5 -3,-8l0 -10c0,-4 1,-6 3,-9 2,-2 5,-3 8,-3 3,0 6,1 8,3 2,3 3,5 3,9l0 10zm-6 -11c0,-2 0,-3 -1,-5 -1,-1 -2,-2 -4,-2 -2,0 -3,1 -4,2 -1,2 -1,3 -1,5l0 11c0,3 0,4 1,5 1,2 2,2 4,2 2,0 3,0 4,-1 1,-2 1,-3 1,-6l0 -11z"/>
   <path fill="black" d="M341 407c2,0 3,0 4,-1 1,-1 1,-2 1,-4 0,-1 0,-2 -1,-3 -1,-1 -2,-2 -4,-2 -1,0 -2,1 -3,2 -1,1 -2,2 -2,3l-5 0 0 0c0,-3 1,-5 3,-6 2,-2 4,-3 7,-3 3,0 6,1 8,2 2,2 3,4 3,7 0,2 -1,3 -2,4 0,2 -2,3 -3,3 2,1 3,2 4,3 1,2 1,3 1,5 0,3 -1,5 -3,7 -2,2 -4,3 -8,3 -3,0 -5,-1 -7,-3 -2,-1 -3,-4 -3,-6l0 -1 5 0c0,2 0,3 1,4 1,1 3,1 4,1 2,0 3,0 4,-1 1,-1 2,-2 2,-4 0,-2 -1,-3 -2,-4 -1,-1 -2,-1 -4,-1l-3 0 0 -5 3 0 0 0z"/>
   <path fill="black" d="M378 415c0,3 -1,6 -3,8 -2,3 -4,4 -8,4 -3,0 -5,-1 -7,-4 -2,-2 -3,-5 -3,-8l0 -10c0,-4 1,-6 3,-9 1,-2 4,-3 7,-3 4,0 6,1 8,3 2,3 3,5 3,9l0 10zm-5 -11c0,-2 -1,-3 -2,-5 -1,-1 -2,-2 -4,-2 -1,0 -3,1 -4,2 0,2 -1,3 -1,5l0 11c0,3 1,4 1,5 1,2 3,2 4,2 2,0 3,0 4,-1 1,-2 2,-3 2,-6l0 -11z"/>
   <path fill="black" d="M404 415c0,3 -1,6 -3,8 -2,3 -4,4 -8,4 -3,0 -5,-1 -7,-4 -2,-2 -3,-5 -3,-8l0 -10c0,-4 1,-6 3,-9 1,-2 4,-3 7,-3 4,0 6,1 8,3 2,3 3,5 3,9l0 10zm-5 -11c0,-2 -1,-3 -2,-5 0,-1 -2,-2 -3,-2 -2,0 -3,1 -4,2 -1,2 -2,3 -2,5l0 11c0,3 1,4 2,5 1,2 2,2 4,2 1,0 3,0 3,-1 1,-2 2,-3 2,-6l0 -11z"/>
   <path fill="black" d="M430 415c0,3 -1,6 -3,8 -2,3 -4,4 -7,4 -4,0 -6,-1 -8,-4 -2,-2 -3,-5 -3,-8l0 -10c0,-4 1,-6 3,-9 2,-2 4,-3 8,-3 3,0 5,1 7,3 2,3 3,5 3,9l0 10zm-5 -11c0,-2 -1,-3 -2,-5 0,-1 -2,-2 -3,-2 -2,0 -3,1 -4,2 -1,2 -2,3 -2,5l0 11c0,3 1,4 2,5 1,2 2,2 4,2 1,0 3,0 3,-1 1,-2 2,-3 2,-6l0 -11z"/>
   <path fill="black" d="M456 415c0,3 -1,6 -2,8 -2,3 -5,4 -8,4 -4,0 -6,-1 -8,-4 -2,-2 -3,-5 -3,-8l0 -10c0,-4 1,-6 3,-9 2,-2 4,-3 8,-3 3,0 6,1 8,3 1,3 2,5 2,9l0 10zm-5 -11c0,-2 0,-3 -1,-5 -1,-1 -3,-2 -4,-2 -2,0 -3,1 -4,2 -1,2 -2,3 -2,5l0 11c0,3 1,4 2,5 1,2 2,2 4,2 1,0 3,0 4,-1 1,-2 1,-3 1,-6l0 -11z"/>
   <polygon fill="black" points="468,426 462,426 462,421 468,421 "/>
   <path fill="black" d="M495 415c0,3 -1,6 -2,8 -2,3 -5,4 -8,4 -4,0 -6,-1 -8,-4 -2,-2 -3,-5 -3,-8l0 -10c0,-4 1,-6 3,-9 2,-2 4,-3 8,-3 3,0 6,1 8,3 1,3 2,5 2,9l0 10zm-5 -11c0,-2 -1,-3 -1,-5 -1,-1 -3,-2 -4,-2 -2,0 -3,1 -4,2 -1,2 -2,3 -2,5l0 11c0,3 1,4 2,5 1,2 2,2 4,2 1,0 3,0 4,-1 0,-2 1,-3 1,-6l0 -11z"/>
   <path fill="black" d="M518 415l5 0 0 4 -5 0 0 7 -5 0 0 -7 -14 0 0 -3 14 -22 5 0 0 21zm-13 0l8 0 0 -14 0 0 -1 2 -7 12z"/>
   <path fill="black" d="M548 415c0,3 -1,6 -3,8 -2,3 -5,4 -8,4 -3,0 -6,-1 -8,-4 -2,-2 -3,-5 -3,-8l0 -10c0,-4 1,-6 3,-9 2,-2 5,-3 8,-3 3,0 6,1 8,3 2,3 3,5 3,9l0 10zm-6 -11c0,-2 0,-3 -1,-5 -1,-1 -2,-2 -4,-2 -2,0 -3,1 -4,2 -1,2 -1,3 -1,5l0 11c0,3 0,4 1,5 1,2 2,2 4,2 2,0 3,0 4,-1 1,-2 1,-3 1,-6l0 -11z"/>
   <path fill="black" d="M571 415l4 0 0 4 -4 0 0 7 -6 0 0 -7 -13 0 0 -3 13 -22 6 0 0 21zm-14 0l8 0 0 -14 0 0 0 2 -8 12z"/>
   <polygon fill="black" points="585,426 580,426 580,421 585,421 "/>
   <path fill="black" d="M613 415c0,3 -1,6 -3,8 -2,3 -5,4 -8,4 -3,0 -6,-1 -8,-4 -2,-2 -3,-5 -3,-8l0 -10c0,-4 1,-6 3,-9 2,-2 5,-3 8,-3 3,0 6,1 8,3 2,3 3,5 3,9l0 10zm-6 -11c0,-2 0,-3 -1,-5 -1,-1 -2,-2 -4,-2 -2,0 -3,1 -4,2 -1,2 -1,3 -1,5l0 11c0,3 0,4 1,5 1,2 2,2 4,2 2,0 3,0 4,-1 1,-2 1,-3 1,-6l0 -11z"/>
   <path fill="black" d="M639 415c0,3 -1,6 -3,8 -2,3 -5,4 -8,4 -3,0 -6,-1 -8,-4 -2,-2 -3,-5 -3,-8l0 -10c0,-4 1,-6 3,-9 2,-2 5,-3 8,-3 3,0 6,1 8,3 2,3 3,5 3,9l0 10zm-6 -11c0,-2 0,-3 -1,-5 -1,-1 -2,-2 -4,-2 -2,0 -3,1 -4,2 -1,2 -1,3 -1,5l0 11c0,3 0,4 1,5 1,2 2,2 4,2 2,0 3,0 4,-1 1,-2 1,-3 1,-6l0 -11z"/>
   <polygon fill="black" points="301,362 301,362 312,331 321,331 321,371 314,371 314,342 314,342 303,371 298,371 287,342 287,342 287,371 280,371 280,331 289,331 "/>
   <path fill="black" d="M328 356c0,-4 1,-8 3,-11 3,-3 6,-4 10,-4 5,0 8,1 11,4 2,3 3,7 3,11l0 1c0,4 -1,8 -3,11 -3,2 -6,4 -11,4 -4,0 -7,-2 -10,-4 -2,-3 -3,-7 -3,-11l0 -1 0 0zm6 1c0,3 1,5 2,7 1,2 3,3 5,3 3,0 4,-1 6,-3 1,-2 1,-4 1,-7l0 -1c0,-3 0,-5 -1,-7 -2,-2 -3,-3 -6,-3 -2,0 -4,1 -5,3 -1,2 -2,4 -2,7l0 1 0 0z"/>
   <path fill="black" d="M360 357c0,-5 1,-9 3,-12 2,-3 5,-4 9,-4 1,0 3,0 4,1 1,0 2,1 3,2l0 -16 7 0 0 43 -6 0 0 -4c-1,2 -2,3 -4,4 -1,0 -3,1 -4,1 -4,0 -7,-2 -9,-4 -2,-3 -3,-7 -3,-11l0 0zm6 0c0,3 1,5 2,7 1,2 3,2 5,2 2,0 3,0 4,-1 1,0 1,-1 2,-2l0 -13c-1,-1 -1,-2 -2,-3 -1,0 -3,-1 -4,-1 -2,0 -4,1 -5,3 -1,2 -2,5 -2,8l0 0 0 0z"/>
   <path fill="black" d="M406 372c-4,0 -8,-1 -10,-4 -3,-3 -4,-7 -4,-11l0 -1c0,-4 1,-8 4,-11 2,-3 5,-4 9,-4 4,0 7,1 9,3 3,3 4,6 4,10l0 4 -19 0 0 0c0,3 1,5 2,6 1,2 3,3 5,3 2,0 4,-1 5,-1 1,-1 3,-1 4,-2l2 4c-1,1 -3,2 -5,3 -1,1 -4,1 -6,1zm-1 -26c-2,0 -3,1 -4,2 -1,1 -2,3 -2,5l0 0 12 0 0 0c0,-2 -1,-4 -2,-5 -1,-1 -2,-2 -4,-2z"/>
   <polygon fill="black" points="430,371 423,371 423,328 430,328 "/>
   <path fill="black" d="M445 347l-7 0 0 -6 7 0 0 6zm0 24l-7 0 0 -6 7 0 0 6z"/>
   <path fill="black" d="M489 361c0,-2 -1,-3 -2,-4 -1,-1 -3,-2 -6,-3 -5,-1 -8,-3 -10,-5 -3,-2 -4,-4 -4,-7 0,-4 1,-6 4,-8 3,-3 6,-4 10,-4 4,0 8,2 11,4 2,2 3,5 3,9l0 0 -6 0c0,-2 -1,-4 -2,-5 -2,-2 -4,-2 -6,-2 -2,0 -4,0 -5,1 -1,1 -2,3 -2,4 0,2 1,3 2,4 1,1 3,2 7,3 4,1 7,3 9,5 3,2 4,5 4,8 0,3 -2,6 -4,8 -3,2 -6,3 -11,3 -4,0 -7,-1 -10,-3 -3,-3 -5,-6 -5,-10l0 0 7 0c0,3 0,4 2,6 2,1 4,2 6,2 3,0 4,-1 6,-2 1,-1 2,-2 2,-4z"/>
   <path fill="black" d="M524 362l-15 0 -3 9 -7 0 14 -40 7 0 14 40 -7 0 -3 -9zm-13 -6l11 0 -5 -16 0 0 -6 16z"/>
   <path fill="black" d="M545 355l0 16 -6 0 0 -40 14 0c4,0 8,1 10,3 2,2 4,5 4,9 0,2 -1,4 -2,5 -1,1 -3,3 -5,4 3,0 4,2 5,3 1,2 2,4 2,6l0 4c0,1 0,2 0,3 1,1 1,2 2,3l0 0 -7 0c-1,0 -1,-1 -2,-3 0,-1 0,-2 0,-4l0 -3c0,-2 -1,-3 -2,-5 -1,-1 -3,-1 -5,-1l-8 0 0 0zm0 -6l7 0c3,0 5,0 6,-1 1,-1 2,-3 2,-5 0,-2 0,-4 -2,-5 -1,-1 -3,-2 -5,-2l-7 0 0 13 -1 0z"/>
   <path fill="black" d="M596 362l-14 0 -4 9 -6 0 14 -40 6 0 14 40 -7 0 -3 -9zm-13 -6l11 0 -5 -16 0 0 -6 16z"/>
   <polygon fill="black" points="627,357 611,357 611,351 627,351 "/>
   <path fill="black" d="M667 331l0 27c0,4 -2,8 -5,10 -3,3 -6,4 -11,4 -5,0 -8,-1 -11,-4 -3,-3 -4,-6 -4,-10l0 -27 6 0 0 27c0,2 1,5 3,6 1,2 3,2 6,2 3,0 5,0 7,-2 1,-1 2,-4 2,-6l0 -27 7 0z"/>
   <path fill="black" d="M700 371l-26 0 0 -4 13 -15c2,-2 3,-4 4,-6 1,-2 1,-3 1,-4 0,-2 0,-4 -1,-5 -1,-1 -2,-1 -4,-1 -2,0 -4,0 -5,2 -1,1 -2,3 -2,5l-6 0 0 0c0,-4 1,-7 3,-9 3,-2 6,-4 10,-4 4,0 7,1 9,3 2,3 3,5 3,9 0,2 0,4 -2,6 -1,2 -3,5 -5,8l-9 10 0 0 17 0 0 5 0 0z"/>
   <path fill="black" d="M721 330c2,0 3,0 5,1 1,0 2,0 3,1l-1 5c-1,0 -2,-1 -3,-1 -1,0 -3,0 -4,0 -2,0 -4,1 -6,3 -1,2 -2,4 -2,8l0 2c1,-1 2,-2 4,-3 1,0 3,-1 5,-1 3,0 6,2 8,4 2,2 3,5 3,9 0,4 -1,8 -4,10 -2,3 -5,4 -9,4 -4,0 -7,-1 -10,-4 -3,-3 -4,-7 -4,-12l0 -9c0,-5 2,-9 4,-12 3,-3 7,-5 11,-5zm-1 21c-2,0 -3,0 -5,0 -1,1 -2,2 -2,3l0 2c0,3 1,6 2,8 1,2 3,3 5,3 2,0 3,-1 5,-3 1,-1 1,-3 1,-6 0,-2 0,-4 -2,-5 -1,-2 -2,-2 -4,-2z"/>
   <path fill="black" d="M765 357c0,5 -2,8 -4,11 -2,3 -6,4 -10,4 -4,0 -7,-1 -9,-4 -3,-3 -4,-6 -4,-11l0 -12c0,-4 1,-8 4,-11 2,-2 5,-4 9,-4 4,0 8,2 10,4 2,3 3,7 3,11l0 12 1 0zm-7 -13c0,-2 -1,-4 -2,-6 -1,-2 -3,-2 -5,-2 -2,0 -3,1 -5,2 -1,1 -1,4 -1,6l0 14c0,2 0,5 1,6 2,2 3,2 5,2 2,0 4,0 5,-2 1,-1 2,-4 2,-6l0 -14z"/>
   <path fill="black" d="M778 256c0,3 -1,6 -3,9 -2,2 -5,3 -8,3 -3,0 -6,-1 -8,-3 -2,-3 -3,-6 -3,-9l0 -10c0,-3 1,-6 3,-9 2,-2 5,-3 8,-3 3,0 6,1 8,3 2,3 3,6 3,9l0 10zm-6 -10c0,-3 0,-4 -1,-6 -1,-1 -3,-1 -4,-1 -2,0 -3,0 -4,1 -1,2 -1,3 -1,6l0 10c0,3 0,4 1,6 1,1 2,1 4,1 1,0 3,0 4,-1 1,-2 1,-3 1,-5l0 -11z"/>
   <path fill="black" d="M804 256c0,3 -1,6 -3,9 -2,2 -5,3 -8,3 -3,0 -6,-1 -8,-3 -2,-3 -3,-6 -3,-9l0 -10c0,-3 1,-6 3,-9 2,-2 5,-3 8,-3 3,0 6,1 8,3 2,3 3,6 3,9l0 10zm-6 -10c0,-3 0,-4 -1,-6 -1,-1 -2,-1 -4,-1 -2,0 -3,0 -4,1 -1,2 -1,3 -1,6l0 10c0,3 0,4 1,6 1,1 2,1 4,1 2,0 3,0 4,-1 1,-2 1,-3 1,-5l0 -11z"/>
   <path fill="black" d="M827 259c0,-1 -1,-2 -2,-3 -1,-1 -3,-2 -5,-3 -3,-1 -6,-2 -8,-4 -2,-1 -3,-3 -3,-6 0,-2 1,-4 3,-6 2,-2 5,-3 8,-3 4,0 6,1 9,3 2,2 3,4 3,7l0 0 -6 0c0,-1 0,-3 -1,-4 -1,-1 -3,-1 -5,-1 -2,0 -3,0 -4,1 -1,1 -2,2 -2,3 0,1 1,3 2,3 1,1 3,2 6,3 3,1 6,2 7,4 2,1 3,3 3,6 0,3 -1,5 -3,6 -2,2 -5,3 -9,3 -3,0 -6,-1 -8,-3 -3,-2 -4,-4 -4,-7l0 0 5 0c0,2 1,3 2,4 2,1 3,2 5,2 2,0 4,-1 5,-2 1,-1 2,-2 2,-3z"/>
   <polygon fill="black" points="851,256 838,256 838,251 851,251 "/>
   <path fill="black" d="M878 256c0,3 -1,6 -2,9 -2,2 -5,3 -8,3 -4,0 -6,-1 -8,-3 -2,-3 -3,-6 -3,-9l0 -10c0,-3 1,-6 3,-9 2,-2 4,-3 8,-3 3,0 6,1 8,3 1,3 2,6 2,9l0 10zm-5 -10c0,-3 0,-4 -1,-6 -1,-1 -3,-1 -4,-1 -2,0 -3,0 -4,1 -1,2 -2,3 -2,6l0 10c0,3 1,4 2,6 1,1 2,1 4,1 1,0 3,0 4,-1 1,-2 1,-3 1,-5l0 -11z"/>
   <path fill="black" d="M905 256c0,3 -1,6 -3,9 -2,2 -5,3 -8,3 -3,0 -6,-1 -8,-3 -2,-3 -3,-6 -3,-9l0 -10c0,-3 1,-6 3,-9 2,-2 5,-3 8,-3 3,0 6,1 8,3 2,3 3,6 3,9l0 10zm-6 -10c0,-3 0,-4 -1,-6 -1,-1 -2,-1 -4,-1 -2,0 -3,0 -4,1 -1,2 -1,3 -1,6l0 10c0,3 0,4 1,6 1,1 2,1 4,1 2,0 3,0 4,-1 1,-2 1,-3 1,-5l0 -11z"/>
   <path fill="black" d="M755 216l-15 0 0 -3 7 -8c2,-2 3,-3 3,-4 1,-1 1,-2 1,-3 0,-1 -1,-2 -1,-2 -1,-1 -2,-1 -3,-1 -1,0 -2,0 -3,1 0,1 -1,2 -1,3l-3 0 0 0c0,-2 0,-4 2,-5 1,-2 3,-2 5,-2 3,0 4,0 6,2 1,1 2,2 2,4 0,2 -1,3 -2,4 0,1 -1,3 -3,5l-5 6 0 0 10 0 0 3 0 0z"/>
   <path fill="black" d="M775 207c0,3 -1,6 -3,7 -1,2 -3,3 -5,3 -3,0 -5,-1 -6,-3 -2,-1 -2,-4 -2,-7l0 -6c0,-3 0,-5 2,-7 1,-1 3,-2 6,-2 2,0 4,0 5,2 2,2 3,4 3,7l0 6zm-4 -7c0,-2 -1,-3 -2,-4 0,-1 -1,-1 -2,-1 -2,0 -3,0 -3,1 -1,1 -1,2 -1,4l0 8c0,2 0,3 1,4 0,1 1,1 3,1 1,0 2,0 2,-1 1,-1 2,-2 2,-4l0 -8z"/>
   <path fill="black" d="M612 175l7 0c3,0 4,0 5,0 2,1 4,4 4,7 0,3 -2,5 -5,6l0 0c0,0 1,1 1,2l5 9 -4 0 -5 -10 -5 0 0 10 -3 0 0 -24zm8 11c3,0 4,-1 4,-4 0,-2 0,-3 -2,-4 0,0 -1,0 -3,0l-4 0 0 8 5 0z"/>
   <polygon fill="black" points="828,216 824,216 824,196 819,196 819,192 828,192 "/>
   <path fill="black" d="M838 205l1 -13 13 0 0 4 -10 0 0 6c0,-1 1,-1 1,-1 1,0 2,-1 2,-1 3,0 4,1 6,3 1,1 2,3 2,5 0,3 -1,5 -2,6 -2,2 -4,3 -6,3 -2,0 -4,-1 -6,-2 -1,-1 -2,-3 -2,-5l0 0 4 0c0,1 0,2 1,2 1,1 2,1 3,1 1,0 2,0 3,-1 0,-1 1,-2 1,-3 0,-2 -1,-3 -1,-4 -1,-1 -2,-1 -3,-1 -1,0 -2,0 -3,0 0,1 -1,1 -1,2l-3 -1z"/>
   <polygon fill="black" points="858,218 854,218 864,192 867,192 "/>
   <polygon fill="black" points="881,216 877,216 877,196 872,196 872,192 881,192 "/>
   <path fill="black" d="M897 202c1,0 2,0 3,-1 0,-1 1,-1 1,-3 0,-1 -1,-1 -1,-2 -1,-1 -2,-1 -3,-1 -1,0 -2,0 -2,1 -1,1 -2,1 -2,2l-4 0 0 0c0,-2 1,-3 3,-4 1,-2 3,-2 5,-2 3,0 4,0 6,1 1,2 2,3 2,5 0,2 -1,3 -1,3 -1,1 -2,2 -3,3 2,0 3,1 3,2 1,1 1,2 1,3 0,3 -1,4 -2,6 -1,1 -3,2 -6,2 -2,0 -4,-1 -5,-2 -2,-1 -3,-3 -3,-5l0 0 4 0c0,1 1,2 1,2 1,1 2,1 3,1 1,0 2,0 3,-1 1,0 1,-1 1,-3 0,-1 0,-2 -1,-3 0,0 -1,-1 -3,-1l-2 0 0 -3 2 0 0 0z"/>
   <path fill="black" d="M1062 243c-3,0 -5,-1 -7,-3 -2,-2 -3,-4 -3,-7l0 -1c0,-3 1,-6 3,-8 2,-2 4,-3 7,-3 3,0 5,1 6,3 2,2 3,4 3,7l0 3 -14 0 0 0c0,1 1,3 2,4 1,1 2,2 4,2 1,0 2,0 3,-1 1,0 2,-1 3,-1l1 3c0,1 -2,1 -3,2 -1,0 -3,0 -5,0zm0 -18c-2,0 -3,0 -3,1 -1,1 -2,2 -2,4l0 0 9 0 0 -1c0,-1 -1,-2 -1,-3 -1,-1 -2,-1 -3,-1z"/>
   <path fill="black" d="M1090 233l4 0 0 4 -4 0 0 6 -4 0 0 -6 -13 0 0 -3 12 -20 6 0 0 19 -1 0zm-12 0l8 0 0 -12 -1 0 0 1 -7 11z"/>
   <path fill="black" d="M452 252c0,8 -1,15 -5,19 -4,5 -9,8 -15,8 -4,0 -6,-1 -9,-2 -1,-1 -2,-2 -3,-2 -1,-2 -3,-1 -3,1l0 0c-1,1 -2,2 -3,2l-8 0c-1,0 -2,-1 -2,-3l0 -67c0,-1 1,-2 1,-3l10 -4c2,0 4,1 4,3l0 20c0,2 2,3 3,2 1,-1 1,-1 2,-2 2,-1 5,-1 8,-1 6,0 12,2 15,7 4,6 6,12 6,21l0 1 -1 0zm-14 -1c0,-5 -1,-9 -2,-12 -2,-3 -5,-5 -8,-5 -3,0 -5,1 -6,2 -2,0 -3,2 -3,3 -1,0 -1,1 -1,1l0 22c0,0 0,1 1,1 0,1 2,2 3,3 1,1 3,1 6,1 4,0 6,-1 8,-3 1,-3 2,-7 2,-12l0 -1 0 0z"/>
   <path fill="black" d="M474 278l-10 0c-1,0 -2,-1 -2,-3l0 -67c0,-1 1,-2 2,-3l10 -4c1,0 3,1 3,2l0 72c0,2 -1,3 -3,3z"/>
   <path fill="black" d="M486 250c0,-8 3,-14 7,-20 5,-5 11,-7 19,-7 8,0 14,2 19,7 4,6 6,12 6,20l0 1c0,8 -2,15 -6,20 -5,5 -11,8 -19,8 -8,0 -14,-3 -19,-8 -4,-5 -6,-12 -6,-20l0 -1 -1 0zm15 1c0,5 1,9 2,12 2,3 5,5 9,5 4,0 6,-2 8,-5 2,-3 3,-7 3,-12l0 -1c0,-5 -1,-8 -3,-11 -2,-3 -5,-5 -8,-5 -4,0 -7,2 -9,5 -1,3 -2,6 -2,11l0 1z"/>
   <path fill="black" d="M565 241l1 0 7 -16c1,-1 2,-1 2,-1l11 0c2,0 3,2 2,3l-13 22c-1,1 -1,2 0,2l14 23c0,2 -1,3 -2,3l-11 0c-1,0 -2,0 -2,-1l-6 -12c-1,-2 -4,-2 -4,0l-7 12c0,1 -1,1 -2,1l-11 0c-1,0 -2,-2 -1,-3l13 -23c1,0 1,-1 0,-2l-13 -22c-1,-1 0,-3 2,-3l11 0c1,0 1,0 2,1l7 16z"/>
   <path fill="#C02432" d="M355 263c-1,0 -1,0 -1,0 -4,1 -4,1 -7,3 -2,2 -6,2 -9,2 -7,0 -12,-2 -15,-6 -4,-4 -5,-11 -5,-20l0 -34 16 0 0 31c0,5 0,8 2,10 1,2 3,3 6,3 3,0 5,0 7,-1l0 0c2,-1 4,-4 4,-7l0 -36 16 0 0 35c3,-7 4,-14 4,-21 0,-35 -28,-63 -63,-63 -35,0 -63,28 -63,63 0,34 28,62 63,62 18,0 34,-7 45,-19l0 -2zm-58 -55c-6,0 -11,-5 -11,-11 0,-6 5,-12 11,-12 6,0 11,6 11,12 0,6 -5,11 -11,11z"/>
   <polygon fill="black" points="326,629 322,629 322,605 326,605 "/>
   <path fill="black" d="M349 621l0 0c1,3 0,5 -2,6 -2,2 -4,2 -6,2 -3,0 -6,-1 -7,-2 -2,-2 -3,-5 -3,-8l0 -4c0,-3 1,-6 3,-8 1,-1 4,-2 6,-2 3,0 5,0 7,2 2,1 3,3 2,6l0 0 -3 0c0,-2 -1,-3 -2,-4 -1,-1 -2,-1 -4,-1 -1,0 -2,0 -3,2 -1,1 -2,3 -2,5l0 4c0,2 1,4 2,5 1,1 2,2 4,2 1,0 2,0 3,-1 1,-1 2,-2 2,-4l3 0 0 0z"/>
   <path fill="black" d="M357 614l-4 0 0 -3 4 0 0 3zm0 15l-4 0 0 -4 4 0 0 4z"/>
   <path fill="black" d="M386 611c0,1 -1,2 -1,3 -1,1 -2,2 -3,2 1,1 2,2 3,3 1,1 1,2 1,3 0,2 -1,4 -2,5 -1,2 -3,2 -6,2 -2,0 -4,0 -6,-2 -1,-1 -2,-3 -2,-5 0,-1 0,-2 1,-3 1,-1 2,-2 4,-3 -2,0 -3,-1 -3,-2 -1,-1 -1,-2 -1,-3 0,-2 0,-4 2,-5 1,-1 3,-2 5,-2 2,0 4,1 6,2 1,1 2,3 2,5zm-4 0c0,-1 -1,-2 -1,-2 -1,-1 -2,-1 -3,-1 -1,0 -2,0 -2,1 -1,0 -1,1 -1,2 0,1 0,2 1,3 0,1 1,1 2,1 1,0 2,0 3,-1 0,-1 1,-2 1,-3zm0 11c0,-1 0,-2 -1,-3 -1,-1 -1,-1 -3,-1 -1,0 -2,0 -3,1 0,1 -1,2 -1,3 0,1 1,2 1,3 1,1 2,1 4,1 1,0 2,0 2,-1 1,-1 1,-2 1,-3z"/>
   <path fill="black" d="M390 618l2 -13 12 0 0 3 -9 0 -1 7c1,-1 1,-1 2,-1 1,-1 1,-1 2,-1 2,0 4,1 5,2 2,2 2,4 2,6 0,3 0,5 -2,6 -1,2 -3,2 -6,2 -2,0 -3,0 -5,-1 -1,-1 -2,-3 -2,-5l0 0 4 0c0,1 0,2 1,2 0,1 1,1 2,1 2,0 3,0 3,-1 1,-1 1,-2 1,-4 0,-1 0,-2 -1,-3 0,-1 -1,-1 -3,-1 -1,0 -1,0 -2,0 -1,1 -1,1 -1,2l-4 -1z"/>
   <path fill="black" d="M416 626c1,0 2,0 3,-1 1,-1 1,-3 1,-4l0 -2c0,1 -1,1 -2,1 0,1 -1,1 -2,1 -2,0 -4,-1 -5,-2 -2,-2 -2,-4 -2,-6 0,-3 0,-5 2,-6 1,-2 3,-3 5,-3 3,0 5,1 6,3 2,1 3,4 3,6l0 7c0,3 -1,5 -3,7 -2,1 -4,2 -6,2 -1,0 -2,0 -3,0 -1,0 -1,-1 -2,-1l1 -3c0,0 1,1 2,1 0,0 1,0 2,0zm0 -8c1,0 2,0 3,-1 0,0 1,-1 1,-1l0 -3c0,-2 0,-3 -1,-4 -1,-1 -2,-1 -3,-1 -1,0 -2,0 -2,1 -1,1 -1,2 -1,4 0,1 0,3 1,4 0,0 1,1 2,1z"/>
   <path fill="black" d="M429 618l1 -13 13 0 0 3 -9 0 -1 7c0,-1 1,-1 2,-1 0,-1 1,-1 2,-1 2,0 4,1 5,2 1,2 2,4 2,6 0,3 -1,5 -2,6 -1,2 -3,2 -6,2 -2,0 -4,0 -5,-1 -2,-1 -3,-3 -3,-5l0 0 4 0c0,1 1,2 1,2 1,1 2,1 3,1 1,0 2,0 3,-1 1,-1 1,-2 1,-4 0,-1 0,-2 -1,-3 -1,-1 -2,-1 -3,-1 -1,0 -2,0 -2,0 -1,1 -1,1 -2,2l-3 -1z"/>
   <path fill="black" d="M461 623l-9 0 -2 6 -4 0 9 -24 3 0 9 24 -4 0 -2 -6zm-8 -3l7 0 -3 -9 -1 0 -3 9z"/>
   <polygon fill="black" points="480,620 470,620 470,617 480,617 "/>
   <path fill="black" d="M498 623c0,-1 -1,-2 -2,-3 0,0 -2,-1 -3,-1 -3,-1 -5,-2 -6,-3 -2,-1 -3,-3 -3,-5 0,-2 1,-3 3,-5 1,-1 3,-1 6,-1 2,0 4,0 6,2 2,1 2,3 2,5l0 0 -4 0c0,-1 0,-2 -1,-3 -1,-1 -2,-1 -3,-1 -2,0 -3,0 -3,1 -1,0 -2,1 -2,2 0,1 1,2 2,3 1,0 2,1 4,1 2,1 4,2 6,3 1,1 2,3 2,5 0,2 -1,3 -3,5 -1,1 -3,1 -6,1 -2,0 -5,0 -6,-2 -2,-1 -3,-3 -3,-5l0 0 4 0c0,1 0,2 1,3 1,1 3,1 4,1 2,0 3,0 3,-1 1,0 2,-1 2,-2z"/>
   <path fill="black" d="M518 623l-8 0 -2 6 -4 0 8 -24 4 0 8 24 -4 0 -2 -6zm-7 -3l6 0 -3 -9 0 0 -3 9z"/>
   <path fill="black" d="M531 619l0 10 -4 0 0 -24 9 0c2,0 4,0 6,2 1,1 2,3 2,5 0,1 0,2 -1,3 -1,1 -2,2 -3,2 2,1 3,1 3,2 1,1 1,3 1,4l0 2c0,1 0,1 0,2 0,1 1,1 1,2l0 0 -4 0c0,0 -1,-1 -1,-2 0,0 0,-1 0,-2l0 -2c0,-1 0,-2 -1,-3 -1,0 -2,-1 -3,-1l-5 0 0 0zm0 -3l4 0c2,0 3,-1 4,-1 1,-1 1,-2 1,-3 0,-1 0,-2 -1,-3 -1,-1 -2,-1 -3,-1l-5 0 0 8z"/>
   <path fill="black" d="M561 623l-8 0 -2 6 -4 0 8 -24 4 0 8 24 -4 0 -2 -6zm-7 -3l6 0 -3 -9 0 0 -3 9z"/>
   <path fill="black" d="M589 605l0 16c0,2 -1,4 -3,6 -2,1 -4,2 -7,2 -3,0 -5,-1 -7,-2 -1,-2 -2,-4 -2,-6l0 -16 4 0 0 16c0,1 0,3 1,4 1,1 3,1 4,1 2,0 3,0 4,-1 1,-1 1,-3 1,-4l0 -16 5 0z"/>
   <path fill="black" d="M608 629l-15 0 0 -3 8 -9c1,-1 2,-2 2,-3 1,-1 1,-2 1,-3 0,-1 -1,-2 -1,-2 -1,-1 -2,-1 -3,-1 -1,0 -2,0 -2,1 -1,1 -1,2 -1,3l-4 0 0 0c0,-2 0,-4 2,-5 1,-2 3,-3 5,-3 3,0 4,1 6,2 1,2 2,3 2,5 0,2 -1,3 -2,4 0,1 -1,3 -3,5l-5 6 0 0 10 0 0 3 0 0z"/>
   <path fill="black" d="M621 604c1,0 2,1 3,1 0,0 1,0 2,0l-1 3c-1,0 -1,0 -2,0 -1,0 -1,0 -2,0 -2,0 -3,0 -4,1 -1,2 -1,3 -1,5l0 1c1,0 1,-1 2,-1 1,-1 2,-1 3,-1 2,0 4,1 5,2 1,2 2,4 2,6 0,2 -1,4 -2,6 -2,1 -3,2 -6,2 -2,0 -4,-1 -6,-3 -1,-1 -2,-4 -2,-7l0 -5c0,-3 1,-5 3,-7 1,-2 3,-3 6,-3zm-1 13c-1,0 -2,0 -2,0 -1,0 -2,1 -2,2l0 1c0,2 0,3 1,5 1,1 2,1 3,1 1,0 2,0 3,-1 1,-1 1,-2 1,-4 0,-1 0,-2 -1,-3 -1,-1 -2,-1 -3,-1z"/>
   <path fill="black" d="M647 620c0,3 -1,5 -2,7 -2,1 -4,2 -6,2 -2,0 -4,0 -6,-2 -1,-2 -2,-4 -2,-7l0 -6c0,-3 1,-5 2,-7 2,-2 4,-3 6,-3 2,0 4,1 6,3 1,2 2,4 2,7l0 6zm-4 -7c0,-2 0,-3 -1,-4 -1,-1 -2,-1 -3,-1 -1,0 -2,0 -3,1 -1,1 -1,2 -1,4l0 8c0,2 0,3 1,4 1,1 2,1 3,1 1,0 2,0 3,-1 1,-1 1,-3 1,-4l0 -8z"/>
   <polygon fill="black" points="853,623 853,623 860,605 865,605 865,629 861,629 861,612 861,612 854,629 852,629 845,611 845,611 845,629 841,629 841,605 846,605 "/>
   <path fill="black" d="M881 629c0,-1 -1,-1 -1,-1 0,-1 0,-1 0,-2 0,1 -1,2 -2,2 -1,1 -2,1 -3,1 -2,0 -3,0 -4,-1 -1,-1 -2,-2 -2,-4 0,-2 1,-3 2,-4 2,-1 4,-2 6,-2l3 0 0 -1c0,-1 0,-2 -1,-2 0,-1 -1,-1 -2,-1 -1,0 -2,0 -2,1 -1,0 -1,1 -1,1l-4 0 0 0c0,-1 1,-3 2,-4 1,-1 3,-1 5,-1 2,0 4,0 5,1 1,1 2,3 2,5l0 8c0,0 0,1 0,2 0,0 0,1 1,2l-4 0 0 0zm-5 -3c1,0 2,0 2,-1 1,0 2,-1 2,-1l0 -3 -3 0c-1,0 -2,0 -3,1 -1,0 -1,1 -1,2 0,0 0,1 1,1 0,1 1,1 2,1z"/>
   <path fill="black" d="M888 620c0,-3 0,-5 1,-7 2,-1 3,-2 6,-2 1,0 1,0 2,0 1,1 2,1 2,2l0 -10 4 0 0 26 -3 0 -1 -2c0,0 -1,1 -2,1 0,1 -1,1 -2,1 -3,0 -4,-1 -6,-2 -1,-2 -1,-4 -1,-7l0 0zm4 1c0,1 0,3 1,4 0,1 1,1 3,1 1,0 1,0 2,-1 0,0 1,0 1,-1l0 -8c0,-1 -1,-1 -1,-1 -1,-1 -2,-1 -2,-1 -2,0 -3,1 -3,2 -1,1 -1,2 -1,4l0 1z"/>
   <path fill="black" d="M915 629c-2,0 -4,0 -6,-2 -1,-2 -2,-4 -2,-7l0 0c0,-3 1,-5 2,-7 2,-1 3,-2 6,-2 2,0 4,1 5,2 1,1 2,3 2,6l0 2 -11 0 0 0c0,2 1,3 1,4 1,1 2,1 4,1 1,0 2,0 2,0 1,-1 2,-1 3,-2l1 3c-1,1 -2,1 -3,2 -1,0 -2,0 -4,0zm0 -15c-1,0 -2,0 -3,1 0,1 -1,2 -1,3l0 0 7 0 0 0c0,-1 0,-2 -1,-3 0,-1 -1,-1 -2,-1z"/>
   <polygon fill="black" points="939,629 935,629 935,605 939,605 "/>
   <path fill="black" d="M947 611l0 3c1,-1 2,-2 3,-2 1,-1 2,-1 3,-1 2,0 3,0 4,1 1,2 2,3 2,6l0 11 -4 0 0 -11c0,-2 -1,-3 -1,-3 -1,-1 -1,-1 -3,-1 0,0 -1,0 -2,0 -1,1 -1,1 -1,2l0 13 -4 0 0 -18 3 0 0 0z"/>
   <path fill="black" d="M984 623l-8 0 -2 6 -4 0 8 -24 4 0 8 24 -4 0 -2 -6zm-7 -3l6 0 -3 -9 0 0 -3 9z"/>
   <path fill="black" d="M1004 626c-1,1 -1,2 -2,3 -1,0 -2,0 -3,0 -2,0 -4,0 -5,-2 -1,-1 -1,-3 -1,-5l0 -11 4 0 0 11c0,1 0,2 0,3 1,1 2,1 3,1 1,0 1,0 2,0 1,-1 1,-1 2,-2l0 -13 4 0 0 18 -4 0 0 -3z"/>
   <path fill="black" d="M1022 624c0,-1 0,-1 -1,-1 0,-1 -1,-1 -3,-2 -2,0 -4,-1 -5,-1 -1,-1 -1,-2 -1,-4 0,-1 0,-3 2,-4 1,-1 2,-1 5,-1 2,0 3,0 5,1 1,2 2,3 2,4l0 1 -4 0c0,-1 -1,-2 -1,-2 -1,-1 -2,-1 -3,-1 -1,0 -1,0 -2,1 0,0 -1,1 -1,1 0,1 1,1 1,2 1,0 2,0 3,1 2,0 4,1 5,2 1,0 2,2 2,3 0,2 -1,3 -2,4 -2,1 -3,1 -6,1 -2,0 -4,0 -5,-1 -1,-2 -2,-3 -2,-4l0 -1 4 0c0,1 0,2 1,3 1,0 2,0 3,0 1,0 1,0 2,0 1,-1 1,-1 1,-2z"/>
   <path fill="black" d="M1035 607l0 4 3 0 0 3 -3 0 0 10c0,1 0,1 0,2 0,0 1,0 1,0 1,0 1,0 1,0 0,0 0,0 1,0l0 3c0,0 -1,0 -1,0 -1,0 -1,0 -2,0 -1,0 -2,0 -3,-1 -1,-1 -1,-2 -1,-4l0 -10 -3 0 0 -3 3 0 0 -5 4 0 0 1z"/>
   <path fill="black" d="M1050 615l-2 0c0,0 -1,0 -2,0 0,0 -1,1 -1,1l0 13 -4 0 0 -18 4 0 0 3c0,-1 1,-2 2,-3 1,0 1,0 2,0 0,0 1,0 1,0 0,0 0,0 1,0l-1 4z"/>
   <path fill="black" d="M1057 607l-4 0 0 -4 4 0 0 4zm0 22l-4 0 0 -18 4 0 0 18z"/>
   <path fill="black" d="M1073 629c0,-1 0,-1 -1,-1 0,-1 0,-1 0,-2 0,1 -1,2 -2,2 -1,1 -2,1 -3,1 -2,0 -3,0 -4,-1 -1,-1 -2,-2 -2,-4 0,-2 1,-3 2,-4 2,-1 4,-2 6,-2l3 0 0 -1c0,-1 0,-2 -1,-2 0,-1 -1,-1 -2,-1 -1,0 -2,0 -2,1 -1,0 -1,1 -1,1l-4 0 0 0c0,-1 1,-3 2,-4 1,-1 3,-1 5,-1 2,0 4,0 5,1 2,1 2,3 2,5l0 8c0,0 0,1 0,2 0,0 1,1 1,2l-4 0 0 0zm-5 -3c1,0 2,0 3,-1 0,0 1,-1 1,-1l0 -3 -3 0c-1,0 -2,0 -3,1 -1,0 -1,1 -1,2 0,0 0,1 1,1 0,1 1,1 2,1z"/>
   <rect fill="black" x="1076" y="308" width="9.9444" height="9.9444"/>
   <rect fill="black" x="1056" y="308" width="9.9444" height="9.9444"/>
   <rect fill="black" x="1036" y="308" width="9.9444" height="9.9444"/>
   <rect fill="black" x="1016" y="308" width="9.9444" height="9.9444"/>
   <rect fill="black" x="996" y="308" width="9.9444" height="9.9444"/>
   <rect fill="black" x="996" y="387" width="9.9444" height="9.9444"/>
   <rect fill="black" x="976" y="308" width="9.9444" height="9.9444"/>
   <rect fill="black" x="976" y="378" width="9.9444" height="9.9444"/>
   <rect fill="black" x="966" y="358" width="9.9444" height="9.9444"/>
   <rect fill="black" x="956" y="308" width="9.9444" height="9.9444"/>
   <rect fill="black" x="936" y="308" width="9.9444" height="9.9444"/>
   <rect fill="black" x="1086" y="457" width="9.9444" height="9.9444"/>
   <polygon fill="black" points="1056,457 1056,467 1065,467 1065,478 1006,478 1006,468 996,468 996,478 986,478 986,468 956,468 956,467 956,457 946,457 946,467 946,468 946,477 946,478 926,478 926,478 925,478 925,308 916,308 916,478 916,487 916,488 917,488 926,488 1096,488 1096,478 1076,478 1076,447 1065,447 1065,457 "/>
   <rect fill="black" x="1086" y="437" width="9.9444" height="9.9444"/>
   <rect fill="black" x="1076" y="437" width="9.9444" height="9.9444"/>
   <rect fill="black" x="1086" y="417" width="9.9444" height="9.9444"/>
   <rect fill="black" x="1086" y="398" width="9.9444" height="9.9444"/>
   <polygon fill="black" points="1065,427 1076,427 1076,417 1085,417 1085,407 1076,407 1065,407 1065,398 1056,398 1056,388 1045,388 1045,398 1036,398 1036,388 1026,388 1026,398 1016,398 1016,417 1026,417 1036,417 1036,407 1026,407 1026,398 1036,398 1036,407 1056,407 1056,427 1036,427 1036,437 1056,437 1056,447 1065,447 "/>
   <rect fill="black" x="1086" y="378" width="9.9444" height="9.9444"/>
   <polygon fill="black" points="936,447 936,437 926,437 926,447 926,457 936,457 "/>
   <polygon fill="black" points="1026,457 1026,467 1036,467 1036,457 1056,457 1056,447 1016,447 1016,457 "/>
   <rect fill="black" x="956" y="398" width="9.9444" height="9.9444"/>
   <rect fill="black" x="1086" y="318" width="9.9444" height="9.9444"/>
   <polygon fill="black" points="1016,378 1006,378 1006,387 1016,387 1026,387 1026,378 1026,367 1016,367 "/>
   <rect fill="black" x="1006" y="318" width="9.9444" height="9.9444"/>
   <polygon fill="black" points="966,318 956,318 946,318 946,328 956,328 956,338 976,338 976,347 966,347 966,357 996,357 996,348 996,347 996,338 1006,338 1006,328 966,328 "/>
   <rect fill="black" x="936" y="387" width="9.9444" height="9.9444"/>
   <polygon fill="black" points="946,378 946,387 956,387 956,378 956,367 936,367 936,378 "/>
   <polygon fill="black" points="936,348 936,358 926,358 926,367 936,367 936,358 946,358 946,348 956,348 956,338 936,338 "/>
   <rect fill="black" x="926" y="378" width="9.9444" height="9.9444"/>
   <polygon fill="black" points="946,427 946,437 956,437 956,447 956,457 966,457 966,467 996,467 996,457 986,457 986,447 976,447 976,437 986,437 986,447 996,447 996,437 1006,437 1006,447 1016,447 1016,437 1026,437 1026,427 996,427 996,417 1006,417 1006,407 996,407 986,407 986,417 966,417 966,427 956,427 956,407 936,407 936,427 "/>
   <rect fill="black" x="926" y="398" width="9.9444" height="9.9444"/>
   <rect fill="black" x="926" y="318" width="9.9444" height="9.9444"/>
   <path fill="black" d="M1085 338l0 -10 0 0 -9 0 0 -10 -10 0 0 10 -10 0 0 -10 -10 0 0 10 -10 0 0 10 -10 0 0 -10 -10 0 0 10 0 0 0 9 0 0 0 10 10 0 0 -10 10 0 0 10 10 0 0 -10 0 0 0 -9 10 0 0 29 -20 0 0 20 20 0 0 -9 10 0 0 9 10 0 0 -9 10 0 0 -10 10 0 0 -10 -10 0 0 -10 10 0 0 -10 -10 0 -1 0 0 0zm-9 19l-10 0 0 -10 10 0 0 10z"/>
   <path fill="black" d="M797 548c0,16 14,30 31,30l0 -9c-12,0 -21,-10 -21,-21 0,-12 9,-21 21,-21l0 -10c-17,0 -31,14 -31,31z"/>
   <path fill="black" d="M883 526l0 -9c-16,0 -30,14 -30,31 0,17 13,30 30,30l0 -9c-10,0 -18,-7 -20,-16l20 0 0 -10 -20 0c2,-9 10,-17 20,-17z"/>
   <circle fill="black" cx="262" cy="623" r="15"/>
   <ellipse fill="none" stroke="black" stroke-width="13.0512" cx="1074" cy="230" rx="41" ry="28"/>
   <path fill="black" d="M972 234l0 9 -4 0 0 -23 9 0c3,0 5,0 6,2 1,1 2,3 2,5 0,2 -1,4 -2,5 -1,2 -3,2 -6,2l-5 0 0 0zm0 -3l5 0c1,0 2,0 3,-1 1,-1 1,-2 1,-3 0,-1 0,-2 -1,-3 0,-1 -2,-1 -3,-1l-5 0 0 8z"/>
   <path fill="black" d="M1004 235c0,2 -1,4 -2,6 -1,1 -3,2 -5,2 -1,0 -2,0 -3,0 -1,-1 -1,-2 -2,-2l0 2 -4 0 0 -25 4 0 0 10c1,-1 2,-2 2,-2 1,0 2,-1 3,-1 2,0 4,1 5,3 1,2 2,4 2,7l0 0 0 0zm-4 0c0,-2 -1,-4 -1,-5 -1,-1 -2,-2 -3,-2 -1,0 -2,1 -2,1 -1,0 -1,1 -1,2l0 7c0,1 0,1 1,1 0,1 1,1 2,1 1,0 2,0 3,-1 1,-1 1,-3 1,-4l0 0 0 0z"/>
   <circle fill="none" stroke="black" stroke-width="13.0512" cx="985" cy="230" r="28"/>
   <line fill="none" stroke="black" stroke-width="13.0512" x1="1003" y1="251" x2="966" y2= "210" />
   <circle fill="none" stroke="black" stroke-width="13.0512" cx="619" cy="187" r="20"/>
   <polygon fill="#CC9932" points="55,730 50,707 55,704 59,707 "/>
   <polygon fill="#CC9932" points="38,688 35,693 13,688 35,683 "/>
   <polygon fill="#CC9932" points="97,688 74,693 71,688 74,683 "/>
   <polygon fill="#CC9932" points="59,668 55,671 50,668 55,646 "/>
   <polygon fill="#CC9932" points="84,717 55,698 25,717 44,688 25,658 55,677 84,658 65,688 "/>
   <rect fill="#CCCCCC" x="31" y="210" width="71.1731" height="129.162"/>
   <rect fill="#CCCCCC" x="102" y="259" width="26.8157" height="28.827"/>
   <path fill="#E5E5E5" stroke="#929292" stroke-width="13.0512" d="M13 318l0 -89c0,-4 4,-8 8,-8l89 0c4,0 8,4 8,8l0 89c0,4 -4,8 -8,8l-89 0c-4,-1 -8,-4 -8,-8z"/>
   <circle fill="#7B7B7B" cx="67" cy="274" r="32"/>
   <circle fill="#E5E5E5" cx="67" cy="274" r="28"/>
   <circle fill="#CC9932" cx="67" cy="274" r="7"/>
   <rect fill="#666666" x="126" y="109" width="16.4243" height="42.5696"/>
   <rect fill="#666666" x="1232" y="280" width="16.4243" height="42.5696"/>
   <rect fill="#666666" x="1232" y="352" width="16.4243" height="42.5696"/>
   <rect fill="#666666" x="1399" y="352" width="16.4243" height="42.5696"/>
   <rect fill="#666666" x="1399" y="472" width="16.4243" height="42.5696"/>
   <rect fill="#666666" x="1555" y="503" width="42.5696" height="16.4243"/>
   <rect fill="#666666" x="1515" y="607" width="42.5696" height="16.4243"/>
   <rect fill="#666666" x="1555" y="382" width="42.5696" height="16.4243"/>
   <rect fill="#666666" x="1555" y="217" width="63.4635" height="27.1504"/>
   <rect fill="#CCCCCC" x="1556" y="338" width="63.4635" height="21.0052"/>
   <rect fill="#666666" x="1705" y="111" width="27.1504" height="63.4635"/>
   <rect fill="#666666" x="1211" y="680" width="42.5696" height="16.4243"/>
   <rect fill="#666666" x="1411" y="558" width="42.5696" height="16.4243"/>
   <rect fill="#666666" x="78" y="393" width="42.5696" height="16.4243"/>
   <rect fill="#666666" x="78" y="434" width="42.5696" height="16.4243"/>
   <rect fill="#666666" x="78" y="511" width="42.5696" height="16.4243"/>
   <rect fill="#666666" x="78" y="594" width="42.5696" height="16.4243"/>
   <rect fill="#666666" x="91" y="109" width="16.4243" height="42.5696"/>
   <rect fill="#666666" x="56" y="109" width="16.4243" height="42.5696"/>
   <rect fill="#666666" x="21" y="109" width="16.4243" height="42.5696"/>
   <rect fill="#CCCCCC" x="1282" y="143" width="21.6756" height="163.575"/>
   <rect fill="#CCCCCC" x="1344" y="143" width="21.6756" height="163.575"/>
   <rect fill="#999999" x="1263" y="154" width="120" height="142"/>
   <circle fill="black" cx="1324" cy="226" r="35"/>
   <circle fill="#404040" cx="1324" cy="222" r="32"/>
   <line fill="none" stroke="#B8B8B8" stroke-width="17.4016" x1="1383" y1="294" x2="1263" y2= "294" />
   <path fill="#737373" d="M1356 222c0,0 0,1 0,1 0,1 0,1 0,2 0,0 0,0 0,1 0,0 0,0 0,1 -1,0 -1,1 -1,2 0,1 0,2 0,3 0,1 -1,2 -1,3 0,1 -1,2 -1,3 -1,1 -2,2 -2,3 -1,1 -2,2 -3,3 -2,2 -4,4 -6,6 -1,1 -2,1 -2,1 -1,1 -1,1 -2,2l-1 0 -1 1c-1,0 -2,0 -3,0 -1,1 -3,1 -4,1 -1,0 -2,1 -3,1l-2 0c-3,0 -7,-1 -10,-2 -1,0 -1,0 -2,0l-1 -1 -1 0c-1,-1 -2,-1 -2,-2 -1,0 -2,0 -2,-1 -3,-2 -5,-4 -7,-6 -1,-1 -1,-2 -2,-3 -1,-1 -1,-2 -2,-3 0,-1 -1,-2 -1,-3 -1,-1 -1,-2 -1,-3 0,-1 0,-2 -1,-3 0,-1 0,-2 0,-2 0,-1 0,-1 0,-1 0,-1 0,-1 0,-1 0,-1 0,-1 0,-2 0,0 0,-1 0,-1 0,0 0,1 0,1 0,1 0,2 1,4 0,0 0,1 0,2 0,0 1,1 1,2 0,1 1,2 1,3 0,1 1,2 1,3 1,1 2,2 2,3 1,1 2,2 3,2 2,2 4,4 6,5 2,2 5,3 8,4 3,1 6,1 9,1l2 0c1,0 1,0 2,0 1,0 3,-1 4,-1 3,-1 6,-2 8,-4 2,-1 5,-3 6,-5 1,0 2,-1 3,-2 1,-1 1,-2 2,-3 0,-1 1,-2 1,-3 1,-1 1,-2 2,-3 0,-1 0,-2 0,-2 1,-1 1,-2 1,-2 0,-1 0,-2 0,-2 0,-1 0,-1 0,-2 1,0 1,-1 1,-1z"/>
   <rect fill="#CCCCCC" x="1282" y="492" width="21.6756" height="163.575"/>
   <rect fill="#CCCCCC" x="1344" y="492" width="21.6756" height="163.575"/>
   <rect fill="#999999" x="1263" y="503" width="120" height="142"/>
   <circle fill="black" cx="1324" cy="574" r="35"/>
   <circle fill="#404040" cx="1324" cy="571" r="32"/>
   <line fill="none" stroke="#B8B8B8" stroke-width="17.4016" x1="1383" y1="643" x2="1263" y2= "643" />
   <path fill="#737373" d="M1356 571c0,0 0,1 0,1 0,1 0,1 0,2 0,0 0,0 0,1 0,0 0,0 0,1 -1,0 -1,1 -1,2 0,1 0,2 0,3 0,0 -1,1 -1,3 0,1 -1,2 -1,3 -1,1 -2,2 -2,3 -1,1 -2,2 -3,3 -2,2 -4,4 -6,6 -1,1 -2,1 -2,1 -1,1 -1,1 -2,1l-1 1 -1 0c-1,1 -2,1 -3,1 -1,1 -3,1 -4,1 -1,0 -2,0 -3,1l-2 0c-3,0 -7,-1 -10,-2 -1,0 -1,0 -2,-1l-1 0 -1 -1c-1,0 -2,0 -2,-1 -1,0 -2,0 -2,-1 -3,-2 -5,-4 -7,-6 -1,-1 -1,-2 -2,-3 -1,-1 -1,-2 -2,-3 0,-1 -1,-2 -1,-3 -1,-1 -1,-2 -1,-3 0,-1 0,-2 -1,-3 0,-1 0,-2 0,-2 0,-1 0,-1 0,-1 0,-1 0,-1 0,-1 0,-1 0,-1 0,-2 0,0 0,-1 0,-1 0,0 0,1 0,1 0,1 0,2 1,4 0,0 0,1 0,2 0,0 1,1 1,2 0,1 1,2 1,3 0,1 1,2 1,3 1,1 2,2 2,3 1,0 2,2 3,2 2,2 4,4 6,5 2,2 5,3 8,4 3,1 6,1 9,1l2 0c1,0 1,0 2,0 1,0 3,-1 4,-1 3,-1 6,-2 8,-4 2,-1 5,-3 6,-5 1,0 2,-2 3,-2 1,-1 1,-2 2,-3 0,-1 1,-2 1,-3 1,-1 1,-2 2,-3 0,-1 0,-2 0,-2 1,-1 1,-2 1,-2 0,-1 0,-2 0,-2 0,-1 0,-1 0,-2 1,0 1,-1 1,-1z"/>
   <polygon fill="#E6E6E6" points="2030,427 1820,427 1820,504 1826,504 1826,621 1820,621 1820,698 2030,698 "/>
   <rect fill="#666666" x="1796" y="504" width="23.5757" height="13.966"/>
   <rect fill="#666666" x="1796" y="530" width="23.5757" height="13.966"/>
   <rect fill="#666666" x="1796" y="555" width="23.5757" height="13.966"/>
   <rect fill="#666666" x="1796" y="581" width="23.5757" height="13.966"/>
   <rect fill="#666666" x="1796" y="607" width="23.5757" height="13.966"/>
   <line fill="none" stroke="#929292" stroke-width="8.70079" x1="1820" y1="518" x2="1796" y2= "518" />
   <line fill="none" stroke="#929292" stroke-width="8.70079" x1="1820" y1="544" x2="1796" y2= "544" />
   <line fill="none" stroke="#929292" stroke-width="8.70079" x1="1820" y1="569" x2="1796" y2= "569" />
   <line fill="none" stroke="#929292" stroke-width="8.70079" x1="1820" y1="595" x2="1796" y2= "595" />
   <line fill="none" stroke="#929292" stroke-width="8.70079" x1="1820" y1="621" x2="1796" y2= "621" />
   <polygon fill="#B2B2B2" points="2026,698 2045,713 2045,706 2040,698 "/>
   <polygon fill="#C3C3C3" points="2045,707 2045,706 2040,698 2030,698 "/>
   <polygon fill="#B2B2B2" points="2026,427 2045,412 2045,418 2040,427 "/>
   <polygon fill="#C3C3C3" points="2045,418 2045,418 2040,427 2030,427 "/>
   <rect fill="#B2B2B2" x="2019" y="441" width="11.0618" height="242.793"/>
   <rect fill="#CFCFCF" x="2026" y="441" width="4.58085" height="242.793"/>
   <rect fill="#B3B3B3" x="1820" y="474" width="20.447" height="22.793"/>
   <rect fill="#B3B3B3" x="1902" y="474" width="98.6592" height="22.793"/>
   <rect fill="#262626" x="1820" y="489" width="20.447" height="7.48611"/>
   <ellipse fill="#B3B3B3" cx="1974" cy="485" rx="19" ry="21"/>
   <rect fill="#B3B3B3" x="1820" y="628" width="20.447" height="22.793"/>
   <rect fill="#B3B3B3" x="1902" y="628" width="98.6592" height="22.793"/>
   <rect fill="#262626" x="1820" y="628" width="20.447" height="7.48611"/>
   <polygon fill="#F2F2F2" points="2030,698 2030,696 1826,678 1826,698 "/>
   <polygon fill="#999999" points="2030,427 2030,429 1826,447 1826,427 "/>
   <path fill="#333333" d="M1974 506c6,0 12,-4 15,-10l12 0 0 -7 -9 0 -37 0 -53 0 0 7 56 0c3,6 9,10 16,10z"/>
   <path fill="#333333" d="M1974 619c6,0 12,4 15,9l12 0 0 8 -9 0 -37 0 -53 0 0 -8 56 0c3,-5 9,-9 16,-9z"/>
   <polygon fill="#666666" points="1521,249 1531,241 1531,217 1531,210 1531,176 1521,168 1521,153 1425,153 1425,168 1425,168 1415,176 1415,210 1415,217 1415,241 1425,249 1425,264 1521,264 "/>
   <rect fill="#BFBFBF" x="1333" y="351" width="29.274" height="93.1845"/>
   <rect fill="#BFBFBF" x="1285" y="351" width="29.274" height="93.1845"/>
   <rect fill="black" x="1278" y="355" width="91.2844" height="85.6984"/>
   <polygon fill="#E5E5E5" points="1323,433 1354,429 1358,398 1354,367 1323,363 1292,367 1288,398 1292,429 "/>
   <path fill="#00A637" d="M1322 417c0,0 0,0 0,0l0 -17 -16 0c0,0 0,0 0,0 0,9 7,17 16,17z"/>
   <path fill="#1B5BB3" d="M1306 398c0,0 0,0 0,0l16 0 0 -17c0,0 0,0 0,0 -9,0 -16,8 -16,17z"/>
   <path fill="#B2B2B2" d="M1324 381c0,0 0,0 0,0l0 17 17 0c0,0 0,0 0,0 0,-9 -7,-17 -17,-17z"/>
   <path fill="#CC1314" d="M1341 400c0,0 0,0 0,0l-17 0 0 17c0,0 0,0 1,0 9,0 16,-8 16,-17z"/>
   <rect fill="#CCCCCC" x="1573" y="172" width="51.62" height="13.966"/>
   <rect fill="#CCCCCC" x="1573" y="122" width="51.62" height="13.966"/>
   <rect fill="#CCCCCC" x="1573" y="147" width="51.62" height="13.966"/>
   <rect fill="#CCCCCC" x="1598" y="112" width="51.62" height="83.7993"/>
   <rect fill="#666666" x="1587" y="115" width="73.6314" height="77.4306"/>
   <rect fill="#CCCCCC" x="1587" y="605" width="70.8384" height="13.8548"/>
   <rect fill="#CCCCCC" x="1587" y="556" width="70.8384" height="13.8548"/>
   <rect fill="#CCCCCC" x="1587" y="580" width="70.8384" height="13.8548"/>
   <rect fill="#666666" x="1601" y="549" width="112.291" height="76.3132"/>
   <rect fill="#CCCCCC" x="1558" y="636" width="113.184" height="37.654"/>
   <rect fill="#666666" x="1590" y="636" width="49.0505" height="37.654"/>
   <rect fill="#CCCCCC" x="1558" y="430" width="113.184" height="37.654"/>
   <rect fill="#666666" x="1590" y="430" width="49.0505" height="37.654"/>
   <path fill="#00A9F3" d="M1474 799l0 -177c0,-13 -7,-24 -17,-30l0 11 -32 0 0 -11c-11,6 -18,17 -18,30l0 176m67 1l0 0 0 0z"/>
   <rect fill="#918C70" x="1821" y="158" width="143" height="180"/>
   <rect fill="#7F7A60" x="1821" y="158" width="101" height="180"/>
   <rect fill="#A09C85" x="1848" y="182" width="73.7426" height="54.9723"/>
   <rect fill="#A09C85" x="1848" y="258" width="73.7426" height="54.9723"/>
   <rect fill="#7F7744" x="1948" y="228" width="46.48" height="39.3296"/>
   <polygon fill="#D6D4C8" points="1821,379 1821,364 1846,364 1873,364 1873,338 1821,338 1821,158 1873,158 1873,131 1846,131 1821,131 1821,116 1846,116 1846,95 1779,95 1779,401 1846,401 1846,379 "/>
   <polygon fill="#D6D4C8" points="2004,352 1990,352 1990,313 2004,313 2004,182 1990,182 1990,143 2004,143 2004,95 1939,95 1939,116 1964,116 1964,131 1939,131 1910,131 1910,158 1964,158 1964,182 1948,182 1948,228 1994,228 1994,267 1948,267 1948,313 1964,313 1964,338 1910,338 1910,364 1939,364 1964,364 1964,379 1939,379 1939,401 2004,401 "/>
   <polygon fill="#BAB7A0" points="1865,237 1877,182 1922,182 1922,237 "/>
   <polygon fill="#BAB7A0" points="1865,313 1877,258 1922,258 1922,313 "/>
   <circle fill="#666666" cx="1901" cy="212" r="13"/>
   <circle fill="#CCCCCC" cx="1901" cy="207" r="13"/>
   <circle fill="#666666" cx="1901" cy="287" r="13"/>
   <circle fill="#CCCCCC" cx="1901" cy="282" r="13"/>
   <rect fill="#918C70" x="1922" y="228" width="72.6252" height="39.1061"/>
   <rect fill="#7F7A60" x="1892" y="158" width="72.6252" height="24.8044"/>
   <rect fill="#7F7A60" x="1892" y="313" width="72.6252" height="24.8044"/>
   <rect fill="#666666" x="1684" y="196" width="86.3688" height="37.207"/>
   <rect fill="#CCCCCC" x="1699" y="202" width="71.8436" height="24.6931"/>
   <rect fill="#666666" x="1684" y="263" width="86.3688" height="37.207"/>
   <rect fill="#CCCCCC" x="1699" y="269" width="71.8436" height="24.6931"/>
   <rect fill="#404040" x="1923" y="158" width="30.2791" height="24.8044"/>
   <rect fill="#404040" x="1923" y="313" width="30.2791" height="24.8044"/>
   <rect fill="#BAB7A0" x="1953" y="158" width="13.8548" height="24.8044"/>
   <rect fill="#BAB7A0" x="1936" y="182" width="13.8548" height="45.8095"/>
   <rect fill="#BAB7A0" x="1953" y="116" width="13.8548" height="15.0834"/>
   <rect fill="#BAB7A0" x="1928" y="95" width="13.8548" height="21.3409"/>
   <rect fill="#BAB7A0" x="1899" y="131" width="13.8548" height="26.48"/>
   <rect fill="#BAB7A0" x="1936" y="267" width="13.8548" height="45.8095"/>
   <rect fill="#BAB7A0" x="1953" y="364" width="13.8548" height="15.0834"/>
   <rect fill="#BAB7A0" x="1928" y="379" width="13.8548" height="21.3409"/>
   <rect fill="#BAB7A0" x="1899" y="338" width="13.8548" height="26.48"/>
   <rect fill="#BAB7A0" x="1953" y="313" width="13.8548" height="24.8044"/>
   <rect fill="#BAB7A0" x="1769" y="95" width="23.7992" height="306.033"/>
   <circle fill="#666666" cx="1747" cy="325" r="10"/>
   <circle fill="#666666" cx="1747" cy="366" r="10"/>
   <circle fill="#666666" cx="1747" cy="406" r="10"/>
   <circle fill="#666666" cx="1707" cy="325" r="10"/>
   <circle fill="#666666" cx="1707" cy="366" r="10"/>
   <circle fill="#666666" cx="1707" cy="406" r="10"/>
   <circle fill="#666666" cx="1789" cy="684" r="10"/>
   <circle fill="#666666" cx="1789" cy="644" r="10"/>
   <circle fill="#666666" cx="1791" cy="451" r="10"/>
   <circle fill="#666666" cx="1667" cy="325" r="10"/>
   <circle fill="#666666" cx="1667" cy="366" r="10"/>
   <circle fill="#666666" cx="1667" cy="406" r="10"/>
   <circle fill="#666666" cx="1683" cy="509" r="10"/>
   <circle fill="#666666" cx="1642" cy="509" r="10"/>
   <circle fill="#666666" cx="1512" cy="646" r="10"/>
   <circle fill="#666666" cx="1512" cy="568" r="10"/>
   <circle fill="#666666" cx="1512" cy="526" r="10"/>
   <circle fill="#666666" cx="1526" cy="471" r="10"/>
   <circle fill="#666666" cx="1512" cy="384" r="10"/>
   <circle fill="#666666" cx="1472" cy="384" r="10"/>
   <circle fill="#666666" cx="1512" cy="342" r="10"/>
   <circle fill="#666666" cx="1238" cy="481" r="10"/>
   <circle fill="#666666" cx="1238" cy="439" r="10"/>
   <circle fill="#666666" cx="1472" cy="342" r="10"/>
   <circle fill="#666666" cx="1512" cy="298" r="10"/>
   <circle fill="#666666" cx="1472" cy="298" r="10"/>
   <circle fill="#00A9F3" cx="1441" cy="620" r="33"/>
   <rect fill="#CCCCCC" x="1429" y="602" width="24.5809" height="49.9444"/>
   <path fill="#00A9F3" d="M1888 799l0 -77c0,-10 8,-18 18,-18l60 0c10,0 18,8 18,18l0 77 -96 0z"/>
   <rect fill="#666666" x="1747" y="663" width="16.4243" height="42.5696"/>
   <rect fill="#CCCCCC" x="1435" y="438" width="13.966" height="30.1679"/>
   <rect fill="#CCCCCC" x="1485" y="438" width="13.966" height="30.1679"/>
   <rect fill="#CCCCCC" x="1460" y="438" width="13.966" height="30.1679"/>
   <rect fill="#CCCCCC" x="1485" y="478" width="13.966" height="30.1679"/>
   <rect fill="#CCCCCC" x="1436" y="478" width="13.966" height="30.1679"/>
   <rect fill="#666666" x="1428" y="452" width="77.4306" height="43.0165"/>
   <circle fill="#B2B2B2" cx="1440" cy="755" r="31"/>
   <circle fill="#B2B2B2" cx="1840" cy="755" r="31"/>
   <rect fill="#B2B2B2" x="1809" y="755" width="62.1226" height="43.7992"/>
   <path fill="#B2B2B2" d="M1856 782c9,-6 15,-16 15,-27 0,-17 -14,-31 -31,-31 -17,0 -31,14 -31,31 0,11 6,21 15,27m32 0l0 0 0 0z"/>
   <rect fill="#CCCCCC" x="1829" y="745" width="21.3409" height="21.3409"/>
   <path fill="#999999" d="M1838 755c18,9 30,33 33,44 0,-11 0,-33 0,-44 0,-10 -5,-20 -13,-25 -4,10 -11,19 -20,25z"/>
   <path fill="#999999" d="M1829 745l0 21 1 0c4,-4 8,-8 12,-11 -4,-3 -8,-6 -12,-11l-1 0 0 1z"/>
   <circle fill="#CBCBCB" stroke="#999999" stroke-width="4.35039" cx="1840" cy="755" r="5"/>
   <path fill="#B2B2B2" d="M1456 782c9,-6 15,-16 15,-27 0,-17 -14,-31 -31,-31 -17,0 -31,14 -31,31 0,11 6,21 15,27m32 0l0 0 0 0z"/>
   <rect fill="#CCCCCC" x="1430" y="745" width="21.3409" height="21.3409"/>
   <path fill="#999999" d="M1430 745l0 21 1 0c3,-4 7,-8 11,-11 -4,-3 -8,-6 -11,-11l-1 0 0 1z"/>
   <circle fill="#CBCBCB" stroke="#999999" stroke-width="4.35039" cx="1440" cy="755" r="5"/>
   <circle fill="#B2B2B2" cx="1741" cy="756" r="31"/>
   <rect fill="#B2B2B2" x="1710" y="756" width="62.1226" height="43.7992"/>
   <path fill="#B2B2B2" d="M1757 782c9,-5 15,-15 15,-26 0,-17 -14,-31 -31,-31 -17,0 -31,14 -31,31 0,11 6,21 15,26m32 0l0 0 0 0z"/>
   <rect fill="#CCCCCC" x="1730" y="745" width="21.3409" height="21.3409"/>
   <path fill="#999999" d="M1739 756c17,9 29,33 33,44 0,-11 0,-34 0,-44 0,-11 -5,-20 -14,-26 -3,11 -10,20 -19,26z"/>
   <path fill="#999999" d="M1730 745l0 21 1 0c3,-4 7,-7 12,-10 -5,-3 -9,-7 -12,-11l-1 0 0 0z"/>
   <circle fill="#CBCBCB" stroke="#999999" stroke-width="4.35039" cx="1741" cy="756" r="5"/>
   <circle fill="#B2B2B2" cx="1641" cy="755" r="31"/>
   <rect fill="#B2B2B2" x="1610" y="755" width="62.1226" height="43.7992"/>
   <path fill="#B2B2B2" d="M1658 782c8,-6 14,-16 14,-27 0,-17 -13,-31 -31,-31 -17,0 -31,14 -31,31 0,11 6,21 15,27m33 0l0 0 0 0z"/>
   <rect fill="#CCCCCC" x="1631" y="745" width="21.3409" height="21.3409"/>
   <path fill="#999999" d="M1639 755c18,9 30,33 33,44 0,-11 0,-33 0,-44 0,-10 -5,-20 -13,-25 -3,10 -10,19 -20,25z"/>
   <path fill="#999999" d="M1631 745l0 21 1 0c3,-4 7,-8 11,-11 -4,-3 -8,-6 -11,-11l-1 0 0 1z"/>
   <circle fill="#CBCBCB" stroke="#999999" stroke-width="4.35039" cx="1641" cy="755" r="5"/>
   <circle fill="#B2B2B2" cx="1542" cy="755" r="31"/>
   <rect fill="#B2B2B2" x="1511" y="755" width="62.1226" height="43.7992"/>
   <path fill="#B2B2B2" d="M1558 782c9,-6 15,-16 15,-27 0,-17 -14,-31 -31,-31 -17,0 -31,14 -31,31 0,11 6,21 15,27m32 0l0 0 0 0z"/>
   <rect fill="#CCCCCC" x="1531" y="745" width="21.3409" height="21.3409"/>
   <path fill="#999999" d="M1540 755c17,9 29,33 33,44 0,-11 0,-33 0,-44 0,-10 -5,-20 -13,-25 -4,10 -11,19 -20,25z"/>
   <path fill="#999999" d="M1531 745l0 21 1 0c3,-4 7,-8 12,-11 -5,-3 -9,-6 -12,-11l-1 0 0 1z"/>
   <circle fill="#CBCBCB" stroke="#999999" stroke-width="4.35039" cx="1542" cy="755" r="5"/>
   <circle fill="#B2B2B2" cx="1440" cy="755" r="31"/>
   <rect fill="#B2B2B2" x="1409" y="755" width="62.1226" height="43.7992"/>
   <path fill="#B2B2B2" d="M1456 782c9,-6 15,-16 15,-27 0,-17 -14,-31 -31,-31 -17,0 -31,14 -31,31 0,11 6,21 15,27m32 0l0 0 0 0z"/>
   <rect fill="#CCCCCC" x="1430" y="745" width="21.3409" height="21.3409"/>
   <path fill="#999999" d="M1438 755c18,9 30,33 33,44 0,-11 0,-33 0,-44 0,-10 -5,-20 -13,-25 -3,10 -10,19 -20,25z"/>
   <path fill="#999999" d="M1430 745l0 21 1 0c3,-4 7,-8 11,-11 -4,-3 -8,-6 -11,-11l-1 0 0 1z"/>
   <circle fill="#CBCBCB" stroke="#999999" stroke-width="4.35039" cx="1440" cy="755" r="5"/>
   <circle fill="#B2B2B2" cx="1343" cy="755" r="31"/>
   <rect fill="#B2B2B2" x="1312" y="755" width="62.1226" height="43.7992"/>
   <path fill="#B2B2B2" d="M1359 782c9,-6 15,-15 15,-27 0,-17 -14,-31 -31,-31 -17,0 -31,14 -31,31 0,12 6,21 15,27m32 0l0 0 0 0z"/>
   <rect fill="#CCCCCC" x="1332" y="745" width="21.3409" height="21.3409"/>
   <path fill="#999999" d="M1341 755c18,10 30,34 33,44 0,-11 0,-33 0,-44 0,-10 -5,-19 -13,-25 -4,10 -11,19 -20,25z"/>
   <path fill="#999999" d="M1332 745l0 21 1 0c4,-4 7,-8 12,-11 -5,-3 -8,-6 -12,-10l-1 0 0 0z"/>
   <circle fill="#CBCBCB" stroke="#999999" stroke-width="4.35039" cx="1343" cy="755" r="5"/>
   <circle fill="#B2B2B2" cx="1244" cy="755" r="31"/>
   <rect fill="#B2B2B2" x="1213" y="755" width="62.1226" height="43.7992"/>
   <path fill="#B2B2B2" d="M1260 782c9,-6 15,-16 15,-27 0,-17 -14,-31 -31,-31 -17,0 -31,14 -31,31 0,11 6,21 14,27m33 0l0 0 0 0z"/>
   <rect fill="#CCCCCC" x="1233" y="745" width="21.3409" height="21.3409"/>
   <path fill="#999999" d="M1242 755c17,9 29,33 33,44 0,-11 0,-33 0,-44 0,-10 -6,-20 -14,-25 -3,10 -10,19 -19,25z"/>
   <path fill="#999999" d="M1233 745l0 21 1 0c3,-4 7,-8 11,-11 -4,-3 -8,-6 -11,-11l-1 0 0 1z"/>
   <circle fill="#CBCBCB" stroke="#999999" stroke-width="4.35039" cx="1244" cy="755" r="5"/>
   <circle fill="#B2B2B2" cx="1144" cy="755" r="31"/>
   <rect fill="#B2B2B2" x="1113" y="755" width="62.1226" height="43.7992"/>
   <path fill="#B2B2B2" d="M1160 782c9,-6 15,-16 15,-27 0,-17 -14,-31 -31,-31 -17,0 -31,14 -31,31 0,11 6,21 15,27m32 0l0 0 0 0z"/>
   <rect fill="#CCCCCC" x="1134" y="745" width="21.3409" height="21.3409"/>
   <path fill="#999999" d="M1142 755c18,9 30,33 33,44 0,-11 0,-33 0,-44 0,-10 -5,-20 -13,-25 -3,10 -10,19 -20,25z"/>
   <path fill="#999999" d="M1134 745l0 21 1 0c3,-4 7,-8 11,-11 -4,-3 -8,-6 -11,-11l-1 0 0 1z"/>
   <circle fill="#CBCBCB" stroke="#999999" stroke-width="4.35039" cx="1144" cy="755" r="5"/>
   <circle fill="#B2B2B2" cx="945" cy="755" r="31"/>
   <rect fill="#B2B2B2" x="914" y="755" width="62.1226" height="43.7992"/>
   <path fill="#B2B2B2" d="M962 782c9,-6 15,-16 15,-27 0,-17 -14,-31 -32,-31 -17,0 -31,14 -31,31 0,11 6,21 15,27m33 0l0 0 0 0z"/>
   <rect fill="#CCCCCC" x="935" y="745" width="21.3409" height="21.3409"/>
   <path fill="#999999" d="M944 755c17,9 29,33 33,44 0,-11 0,-33 0,-44 0,-10 -6,-20 -14,-25 -3,10 -10,19 -19,25z"/>
   <path fill="#999999" d="M935 745l0 21 1 0c3,-4 7,-8 11,-11 -4,-3 -8,-6 -11,-11l-1 0 0 1z"/>
   <circle fill="#CBCBCB" stroke="#999999" stroke-width="4.35039" cx="945" cy="755" r="5"/>
   <circle fill="#B2B2B2" cx="1045" cy="755" r="31"/>
   <rect fill="#B2B2B2" x="1014" y="755" width="62.1226" height="43.7992"/>
   <path fill="#B2B2B2" d="M1061 782c9,-6 15,-16 15,-27 0,-17 -14,-31 -31,-31 -17,0 -31,14 -31,31 0,11 6,21 15,27m32 0l0 0 0 0z"/>
   <rect fill="#CCCCCC" x="1034" y="745" width="21.3409" height="21.3409"/>
   <path fill="#999999" d="M1043 755c17,9 30,33 33,44 0,-11 0,-33 0,-44 0,-10 -5,-20 -13,-25 -4,10 -11,19 -20,25z"/>
   <path fill="#999999" d="M1034 745l0 21 1 0c3,-4 7,-8 12,-11 -5,-3 -9,-6 -12,-11l-1 0 0 1z"/>
   <circle fill="#CBCBCB" stroke="#999999" stroke-width="4.35039" cx="1045" cy="755" r="5"/>
   <circle fill="#B2B2B2" cx="846" cy="755" r="31"/>
   <rect fill="#B2B2B2" x="815" y="755" width="62.1226" height="43.7992"/>
   <path fill="#B2B2B2" d="M862 782c9,-6 15,-16 15,-27 0,-17 -14,-31 -31,-31 -17,0 -31,14 -31,31 0,11 6,21 15,27m32 0l0 0 0 0z"/>
   <rect fill="#CCCCCC" x="835" y="745" width="21.3409" height="21.3409"/>
   <path fill="#999999" d="M844 755c18,9 30,33 33,44 0,-11 0,-33 0,-44 0,-10 -5,-20 -13,-25 -4,10 -11,19 -20,25z"/>
   <path fill="#999999" d="M835 745l0 21 1 0c3,-4 7,-8 12,-11 -5,-3 -9,-6 -12,-11l-1 0 0 1z"/>
   <circle fill="#CBCBCB" stroke="#999999" stroke-width="4.35039" cx="846" cy="755" r="5"/>
   <circle fill="#B2B2B2" cx="747" cy="755" r="31"/>
   <rect fill="#B2B2B2" x="716" y="755" width="62.1226" height="43.7992"/>
   <path fill="#B2B2B2" d="M763 782c9,-6 15,-16 15,-27 0,-17 -14,-31 -31,-31 -18,0 -31,14 -31,31 0,11 5,21 14,27m33 0l0 0 0 0z"/>
   <rect fill="#CCCCCC" x="736" y="745" width="21.3409" height="21.3409"/>
   <path fill="#999999" d="M745 755c17,9 29,33 33,44 0,-11 0,-33 0,-44 0,-10 -6,-20 -14,-25 -3,10 -10,19 -19,25z"/>
   <path fill="#999999" d="M736 745l0 21 1 0c3,-4 7,-8 11,-11 -4,-3 -8,-6 -11,-11l-1 0 0 1z"/>
   <circle fill="#CBCBCB" stroke="#999999" stroke-width="4.35039" cx="747" cy="755" r="5"/>
   <circle fill="#B2B2B2" cx="647" cy="756" r="31"/>
   <rect fill="#B2B2B2" x="616" y="756" width="62.1226" height="43.7992"/>
   <path fill="#B2B2B2" d="M663 782c9,-5 15,-15 15,-26 0,-17 -14,-31 -31,-31 -17,0 -31,13 -31,31 0,11 6,21 15,26m32 0l0 0 0 0z"/>
   <rect fill="#CCCCCC" x="637" y="745" width="21.3409" height="21.3409"/>
   <path fill="#999999" d="M645 756c18,9 30,33 33,43 0,-10 0,-33 0,-43 0,-11 -5,-20 -13,-26 -4,11 -10,20 -20,26z"/>
   <path fill="#999999" d="M637 745l0 21 0 0c4,-4 8,-8 12,-10 -4,-3 -8,-7 -12,-11l0 0 0 0z"/>
   <circle fill="#CBCBCB" stroke="#999999" stroke-width="4.35039" cx="647" cy="756" r="5"/>
   <circle fill="#B2B2B2" cx="548" cy="755" r="31"/>
   <rect fill="#B2B2B2" x="517" y="755" width="62.1226" height="43.7992"/>
   <path fill="#B2B2B2" d="M564 782c9,-6 15,-16 15,-27 0,-17 -14,-31 -31,-31 -17,0 -31,14 -31,31 0,11 6,21 15,27m32 0l0 0 0 0z"/>
   <rect fill="#CCCCCC" x="537" y="745" width="21.3409" height="21.3409"/>
   <path fill="#999999" d="M546 755c17,9 29,33 33,44 0,-11 0,-33 0,-44 0,-10 -5,-20 -14,-25 -3,10 -10,19 -19,25z"/>
   <path fill="#999999" d="M537 745l0 21 1 0c3,-4 7,-8 12,-11 -5,-3 -9,-6 -12,-11l-1 0 0 1z"/>
   <circle fill="#CBCBCB" stroke="#999999" stroke-width="4.35039" cx="548" cy="755" r="5"/>
   <circle fill="#B2B2B2" cx="448" cy="755" r="31"/>
   <rect fill="#B2B2B2" x="417" y="755" width="62.1226" height="43.7992"/>
   <path fill="#B2B2B2" d="M465 782c9,-6 14,-16 14,-27 0,-17 -13,-31 -31,-31 -17,0 -31,14 -31,31 0,11 6,21 15,27m33 0l0 0 0 0z"/>
   <rect fill="#CCCCCC" x="438" y="745" width="21.3409" height="21.3409"/>
   <path fill="#999999" d="M446 755c18,9 30,33 33,44 0,-11 0,-33 0,-44 0,-10 -5,-20 -13,-25 -3,10 -10,19 -20,25z"/>
   <path fill="#999999" d="M438 745l0 21 1 0c3,-4 7,-8 11,-11 -4,-3 -8,-6 -11,-11l-1 0 0 1z"/>
   <circle fill="#CBCBCB" stroke="#999999" stroke-width="4.35039" cx="448" cy="755" r="5"/>
   <circle fill="#B2B2B2" cx="349" cy="755" r="31"/>
   <rect fill="#B2B2B2" x="318" y="755" width="62.1226" height="43.7992"/>
   <path fill="#B2B2B2" d="M365 782c9,-6 15,-16 15,-27 0,-17 -14,-31 -31,-31 -17,0 -31,14 -31,31 0,11 6,21 15,27m32 0l0 0 0 0z"/>
   <rect fill="#CCCCCC" x="338" y="745" width="21.3409" height="21.3409"/>
   <path fill="#999999" d="M347 755c17,9 30,33 33,44 0,-11 0,-33 0,-44 0,-10 -5,-20 -13,-25 -4,10 -11,19 -20,25z"/>
   <path fill="#999999" d="M338 745l0 21 1 0c3,-4 7,-8 12,-11 -5,-3 -9,-6 -12,-11l-1 0 0 1z"/>
   <circle fill="#CBCBCB" stroke="#999999" stroke-width="4.35039" cx="349" cy="755" r="5"/>
   <circle fill="#B2B2B2" cx="249" cy="755" r="31"/>
   <rect fill="#B2B2B2" x="219" y="755" width="62.1226" height="43.7992"/>
   <path fill="#B2B2B2" d="M266 782c9,-6 15,-16 15,-27 0,-17 -14,-31 -32,-31 -17,0 -31,14 -31,31 0,11 6,21 15,27m33 0l0 0 0 0z"/>
   <rect fill="#CCCCCC" x="239" y="745" width="21.3409" height="21.3409"/>
   <path fill="#999999" d="M248 755c17,9 29,33 33,44 0,-11 0,-33 0,-44 0,-10 -6,-20 -14,-25 -3,10 -10,19 -19,25z"/>
   <path fill="#999999" d="M239 745l0 21 1 0c3,-4 7,-8 11,-11 -4,-3 -8,-6 -11,-11l-1 0 0 1z"/>
   <circle fill="#CBCBCB" stroke="#999999" stroke-width="4.35039" cx="249" cy="755" r="5"/>
   <circle fill="#B2B2B2" cx="150" cy="756" r="31"/>
   <rect fill="#B2B2B2" x="119" y="756" width="62.1226" height="43.7992"/>
   <path fill="#B2B2B2" d="M166 782c9,-5 15,-15 15,-26 0,-17 -14,-31 -31,-31 -17,0 -31,13 -31,31 0,11 6,21 15,26m32 0l0 0 0 0z"/>
   <rect fill="#CCCCCC" x="139" y="745" width="21.3409" height="21.3409"/>
   <path fill="#999999" d="M148 756c18,9 30,33 33,43 0,-10 0,-33 0,-43 0,-11 -5,-20 -13,-26 -4,11 -11,20 -20,26z"/>
   <path fill="#999999" d="M139 745l0 21 1 0c4,-4 7,-8 12,-10 -5,-3 -8,-7 -12,-11l-1 0 0 0z"/>
   <circle fill="#CBCBCB" stroke="#999999" stroke-width="4.35039" cx="150" cy="756" r="5"/>
   <circle fill="#B2B2B2" cx="1440" cy="45" r="31"/>
   <circle fill="#B2B2B2" cx="1840" cy="45" r="31"/>
   <rect fill="#B2B2B2" x="1809" y="2" width="62.1226" height="43.7992"/>
   <path fill="#B2B2B2" d="M1856 19c9,5 15,15 15,26 0,17 -14,31 -31,31 -17,0 -31,-13 -31,-31 0,-11 6,-21 15,-26m32 0l0 0 0 0z"/>
   <rect fill="#CCCCCC" x="1829" y="35" width="21.3409" height="21.3409"/>
   <path fill="#999999" d="M1838 45c18,-9 30,-33 33,-43 0,10 0,33 0,43 0,11 -5,20 -13,26 -4,-11 -11,-20 -20,-26z"/>
   <path fill="#999999" d="M1829 56l0 -21 1 0c4,4 8,7 12,10 -4,3 -8,7 -12,11l-1 0z"/>
   <circle fill="#CBCBCB" stroke="#999999" stroke-width="4.35039" cx="1840" cy="45" r="5"/>
   <path fill="#B2B2B2" d="M1456 19c9,5 15,15 15,26 0,17 -14,31 -31,31 -17,0 -31,-13 -31,-31 0,-11 6,-21 15,-26m32 0l0 0 0 0z"/>
   <rect fill="#CCCCCC" x="1430" y="35" width="21.3409" height="21.3409"/>
   <path fill="#999999" d="M1430 56l0 -21 1 0c3,4 7,7 11,10 -4,3 -8,7 -11,11l-1 0z"/>
   <circle fill="#CBCBCB" stroke="#999999" stroke-width="4.35039" cx="1440" cy="45" r="5"/>
   <circle fill="#B2B2B2" cx="1741" cy="45" r="31"/>
   <rect fill="#B2B2B2" x="1710" y="1" width="62.1226" height="43.7992"/>
   <path fill="#B2B2B2" d="M1757 18c9,6 15,16 15,27 0,17 -14,31 -31,31 -17,0 -31,-14 -31,-31 0,-11 6,-21 15,-27m32 0l0 0 0 0z"/>
   <rect fill="#CCCCCC" x="1730" y="34" width="21.3409" height="21.3409"/>
   <path fill="#999999" d="M1739 45c17,-9 29,-33 33,-44 0,11 0,33 0,44 0,11 -5,20 -14,25 -3,-10 -10,-19 -19,-25z"/>
   <path fill="#999999" d="M1730 56l0 -22 1 0c3,4 7,8 12,11 -5,3 -9,6 -12,11l-1 0 0 0z"/>
   <circle fill="#CBCBCB" stroke="#999999" stroke-width="4.35039" cx="1741" cy="45" r="5"/>
   <circle fill="#B2B2B2" cx="1641" cy="45" r="31"/>
   <rect fill="#B2B2B2" x="1610" y="2" width="62.1226" height="43.7992"/>
   <path fill="#B2B2B2" d="M1658 19c8,5 14,15 14,26 0,17 -13,31 -31,31 -17,0 -31,-13 -31,-31 0,-11 6,-21 15,-26m33 0l0 0 0 0z"/>
   <rect fill="#CCCCCC" x="1631" y="35" width="21.3409" height="21.3409"/>
   <path fill="#999999" d="M1639 45c18,-9 30,-33 33,-43 0,10 0,33 0,43 0,11 -5,20 -13,26 -3,-11 -10,-20 -20,-26z"/>
   <path fill="#999999" d="M1631 56l0 -21 1 0c3,4 7,7 11,10 -4,3 -8,7 -11,11l-1 0z"/>
   <circle fill="#CBCBCB" stroke="#999999" stroke-width="4.35039" cx="1641" cy="45" r="5"/>
   <circle fill="#B2B2B2" cx="1542" cy="45" r="31"/>
   <rect fill="#B2B2B2" x="1511" y="2" width="62.1226" height="43.7992"/>
   <path fill="#B2B2B2" d="M1558 19c9,5 15,15 15,26 0,17 -14,31 -31,31 -17,0 -31,-13 -31,-31 0,-11 6,-21 15,-26m32 0l0 0 0 0z"/>
   <rect fill="#CCCCCC" x="1531" y="35" width="21.3409" height="21.3409"/>
   <path fill="#999999" d="M1540 45c17,-9 29,-33 33,-43 0,10 0,33 0,43 0,11 -5,20 -13,26 -4,-11 -11,-20 -20,-26z"/>
   <path fill="#999999" d="M1531 56l0 -21 1 0c3,4 7,7 12,10 -5,3 -9,7 -12,11l-1 0z"/>
   <circle fill="#CBCBCB" stroke="#999999" stroke-width="4.35039" cx="1542" cy="45" r="5"/>
   <circle fill="#B2B2B2" cx="1440" cy="45" r="31"/>
   <rect fill="#B2B2B2" x="1409" y="2" width="62.1226" height="43.7992"/>
   <path fill="#B2B2B2" d="M1456 19c9,5 15,15 15,26 0,17 -14,31 -31,31 -17,0 -31,-13 -31,-31 0,-11 6,-21 15,-26m32 0l0 0 0 0z"/>
   <rect fill="#CCCCCC" x="1430" y="35" width="21.3409" height="21.3409"/>
   <path fill="#999999" d="M1438 45c18,-9 30,-33 33,-43 0,10 0,33 0,43 0,11 -5,20 -13,26 -3,-11 -10,-20 -20,-26z"/>
   <path fill="#999999" d="M1430 56l0 -21 1 0c3,4 7,7 11,10 -4,3 -8,7 -11,11l-1 0z"/>
   <circle fill="#CBCBCB" stroke="#999999" stroke-width="4.35039" cx="1440" cy="45" r="5"/>
   <circle fill="#B2B2B2" cx="1343" cy="45" r="31"/>
   <rect fill="#B2B2B2" x="1312" y="2" width="62.1226" height="43.7992"/>
   <path fill="#B2B2B2" d="M1359 19c9,5 15,15 15,26 0,17 -14,31 -31,31 -17,0 -31,-14 -31,-31 0,-11 6,-21 15,-26m32 0l0 0 0 0z"/>
   <rect fill="#CCCCCC" x="1332" y="35" width="21.3409" height="21.3409"/>
   <path fill="#999999" d="M1341 45c18,-9 30,-33 33,-44 0,11 0,34 0,44 0,11 -5,20 -13,26 -4,-11 -11,-20 -20,-26z"/>
   <path fill="#999999" d="M1332 56l0 -21 1 0c4,4 7,7 12,10 -5,3 -8,7 -12,11l-1 0 0 0z"/>
   <circle fill="#CBCBCB" stroke="#999999" stroke-width="4.35039" cx="1343" cy="45" r="5"/>
   <circle fill="#B2B2B2" cx="1244" cy="45" r="31"/>
   <rect fill="#B2B2B2" x="1213" y="2" width="62.1226" height="43.7992"/>
   <path fill="#B2B2B2" d="M1260 19c9,5 15,15 15,26 0,17 -14,31 -31,31 -17,0 -31,-13 -31,-31 0,-11 6,-21 14,-26m33 0l0 0 0 0z"/>
   <rect fill="#CCCCCC" x="1233" y="35" width="21.3409" height="21.3409"/>
   <path fill="#999999" d="M1242 45c17,-9 29,-33 33,-43 0,10 0,33 0,43 0,11 -6,20 -14,26 -3,-11 -10,-20 -19,-26z"/>
   <path fill="#999999" d="M1233 56l0 -21 1 0c3,4 7,7 11,10 -4,3 -8,7 -11,11l-1 0z"/>
   <circle fill="#CBCBCB" stroke="#999999" stroke-width="4.35039" cx="1244" cy="45" r="5"/>
   <circle fill="#B2B2B2" cx="1144" cy="45" r="31"/>
   <rect fill="#B2B2B2" x="1113" y="2" width="62.1226" height="43.7992"/>
   <path fill="#B2B2B2" d="M1160 19c9,5 15,15 15,26 0,17 -14,31 -31,31 -17,0 -31,-13 -31,-31 0,-11 6,-21 15,-26m32 0l0 0 0 0z"/>
   <rect fill="#CCCCCC" x="1134" y="35" width="21.3409" height="21.3409"/>
   <path fill="#999999" d="M1142 45c18,-9 30,-33 33,-43 0,10 0,33 0,43 0,11 -5,20 -13,26 -3,-11 -10,-20 -20,-26z"/>
   <path fill="#999999" d="M1134 56l0 -21 1 0c3,4 7,7 11,10 -4,3 -8,7 -11,11l-1 0z"/>
   <circle fill="#CBCBCB" stroke="#999999" stroke-width="4.35039" cx="1144" cy="45" r="5"/>
   <circle fill="#B2B2B2" cx="945" cy="45" r="31"/>
   <rect fill="#B2B2B2" x="914" y="2" width="62.1226" height="43.7992"/>
   <path fill="#B2B2B2" d="M962 19c9,5 15,15 15,26 0,17 -14,31 -32,31 -17,0 -31,-13 -31,-31 0,-11 6,-21 15,-26m33 0l0 0 0 0z"/>
   <rect fill="#CCCCCC" x="935" y="35" width="21.3409" height="21.3409"/>
   <path fill="#999999" d="M944 45c17,-9 29,-33 33,-43 0,10 0,33 0,43 0,11 -6,20 -14,26 -3,-11 -10,-20 -19,-26z"/>
   <path fill="#999999" d="M935 56l0 -21 1 0c3,4 7,7 11,10 -4,3 -8,7 -11,11l-1 0z"/>
   <circle fill="#CBCBCB" stroke="#999999" stroke-width="4.35039" cx="945" cy="45" r="5"/>
   <circle fill="#B2B2B2" cx="1045" cy="45" r="31"/>
   <rect fill="#B2B2B2" x="1014" y="2" width="62.1226" height="43.7992"/>
   <path fill="#B2B2B2" d="M1061 19c9,5 15,15 15,26 0,17 -14,31 -31,31 -17,0 -31,-13 -31,-31 0,-11 6,-21 15,-26m32 0l0 0 0 0z"/>
   <rect fill="#CCCCCC" x="1034" y="35" width="21.3409" height="21.3409"/>
   <path fill="#999999" d="M1043 45c17,-9 30,-33 33,-43 0,10 0,33 0,43 0,11 -5,20 -13,26 -4,-11 -11,-20 -20,-26z"/>
   <path fill="#999999" d="M1034 56l0 -21 1 0c3,4 7,7 12,10 -5,3 -9,7 -12,11l-1 0z"/>
   <circle fill="#CBCBCB" stroke="#999999" stroke-width="4.35039" cx="1045" cy="45" r="5"/>
   <circle fill="#B2B2B2" cx="846" cy="45" r="31"/>
   <rect fill="#B2B2B2" x="815" y="2" width="62.1226" height="43.7992"/>
   <path fill="#B2B2B2" d="M862 19c9,5 15,15 15,26 0,17 -14,31 -31,31 -17,0 -31,-13 -31,-31 0,-11 6,-21 15,-26m32 0l0 0 0 0z"/>
   <rect fill="#CCCCCC" x="835" y="35" width="21.3409" height="21.3409"/>
   <path fill="#999999" d="M844 45c18,-9 30,-33 33,-43 0,10 0,33 0,43 0,11 -5,20 -13,26 -4,-11 -11,-20 -20,-26z"/>
   <path fill="#999999" d="M835 56l0 -21 1 0c3,4 7,7 12,10 -5,3 -9,7 -12,11l-1 0z"/>
   <circle fill="#CBCBCB" stroke="#999999" stroke-width="4.35039" cx="846" cy="45" r="5"/>
   <circle fill="#B2B2B2" cx="747" cy="45" r="31"/>
   <rect fill="#B2B2B2" x="716" y="2" width="62.1226" height="43.7992"/>
   <path fill="#B2B2B2" d="M763 19c9,5 15,15 15,26 0,17 -14,31 -31,31 -18,0 -31,-13 -31,-31 0,-11 5,-21 14,-26m33 0l0 0 0 0z"/>
   <rect fill="#CCCCCC" x="736" y="35" width="21.3409" height="21.3409"/>
   <path fill="#999999" d="M745 45c17,-9 29,-33 33,-43 0,10 0,33 0,43 0,11 -6,20 -14,26 -3,-11 -10,-20 -19,-26z"/>
   <path fill="#999999" d="M736 56l0 -21 1 0c3,4 7,7 11,10 -4,3 -8,7 -11,11l-1 0z"/>
   <circle fill="#CBCBCB" stroke="#999999" stroke-width="4.35039" cx="747" cy="45" r="5"/>
   <circle fill="#B2B2B2" cx="647" cy="45" r="31"/>
   <rect fill="#B2B2B2" x="616" y="1" width="62.1226" height="43.7992"/>
   <path fill="#B2B2B2" d="M663 19c9,5 15,15 15,26 0,17 -14,31 -31,31 -17,0 -31,-14 -31,-31 0,-11 6,-21 15,-26m32 0l0 0 0 0z"/>
   <rect fill="#CCCCCC" x="637" y="34" width="21.3409" height="21.3409"/>
   <path fill="#999999" d="M645 45c18,-9 30,-33 33,-44 0,11 0,33 0,44 0,11 -5,20 -13,26 -4,-11 -10,-20 -20,-26z"/>
   <path fill="#999999" d="M637 56l0 -22 0 0c4,5 8,8 12,11 -4,3 -8,7 -12,11l0 0 0 0z"/>
   <circle fill="#CBCBCB" stroke="#999999" stroke-width="4.35039" cx="647" cy="45" r="5"/>
   <circle fill="#B2B2B2" cx="548" cy="45" r="31"/>
   <rect fill="#B2B2B2" x="517" y="2" width="62.1226" height="43.7992"/>
   <path fill="#B2B2B2" d="M564 19c9,5 15,15 15,26 0,17 -14,31 -31,31 -17,0 -31,-13 -31,-31 0,-11 6,-21 15,-26m32 0l0 0 0 0z"/>
   <rect fill="#CCCCCC" x="537" y="35" width="21.3409" height="21.3409"/>
   <path fill="#999999" d="M546 45c17,-9 29,-33 33,-43 0,10 0,33 0,43 0,11 -5,20 -14,26 -3,-11 -10,-20 -19,-26z"/>
   <path fill="#999999" d="M537 56l0 -21 1 0c3,4 7,7 12,10 -5,3 -9,7 -12,11l-1 0z"/>
   <circle fill="#CBCBCB" stroke="#999999" stroke-width="4.35039" cx="548" cy="45" r="5"/>
   <circle fill="#B2B2B2" cx="448" cy="45" r="31"/>
   <rect fill="#B2B2B2" x="417" y="2" width="62.1226" height="43.7992"/>
   <path fill="#B2B2B2" d="M465 19c9,5 14,15 14,26 0,17 -13,31 -31,31 -17,0 -31,-13 -31,-31 0,-11 6,-21 15,-26m33 0l0 0 0 0z"/>
   <rect fill="#CCCCCC" x="438" y="35" width="21.3409" height="21.3409"/>
   <path fill="#999999" d="M446 45c18,-9 30,-33 33,-43 0,10 0,33 0,43 0,11 -5,20 -13,26 -3,-11 -10,-20 -20,-26z"/>
   <path fill="#999999" d="M438 56l0 -21 1 0c3,4 7,7 11,10 -4,3 -8,7 -11,11l-1 0z"/>
   <circle fill="#CBCBCB" stroke="#999999" stroke-width="4.35039" cx="448" cy="45" r="5"/>
   <circle fill="#B2B2B2" cx="349" cy="45" r="31"/>
   <rect fill="#B2B2B2" x="318" y="2" width="62.1226" height="43.7992"/>
   <path fill="#B2B2B2" d="M365 19c9,5 15,15 15,26 0,17 -14,31 -31,31 -17,0 -31,-13 -31,-31 0,-11 6,-21 15,-26m32 0l0 0 0 0z"/>
   <rect fill="#CCCCCC" x="338" y="35" width="21.3409" height="21.3409"/>
   <path fill="#999999" d="M347 45c17,-9 30,-33 33,-43 0,10 0,33 0,43 0,11 -5,20 -13,26 -4,-11 -11,-20 -20,-26z"/>
   <path fill="#999999" d="M338 56l0 -21 1 0c3,4 7,7 12,10 -5,3 -9,7 -12,11l-1 0z"/>
   <circle fill="#CBCBCB" stroke="#999999" stroke-width="4.35039" cx="349" cy="45" r="5"/>
   <circle fill="#B2B2B2" cx="249" cy="45" r="31"/>
   <rect fill="#B2B2B2" x="219" y="2" width="62.1226" height="43.7992"/>
   <path fill="#B2B2B2" d="M266 19c9,5 15,15 15,26 0,17 -14,31 -32,31 -17,0 -31,-13 -31,-31 0,-11 6,-21 15,-26m33 0l0 0 0 0z"/>
   <rect fill="#CCCCCC" x="239" y="35" width="21.3409" height="21.3409"/>
   <path fill="#999999" d="M248 45c17,-9 29,-33 33,-43 0,10 0,33 0,43 0,11 -6,20 -14,26 -3,-11 -10,-20 -19,-26z"/>
   <path fill="#999999" d="M239 56l0 -21 1 0c3,4 7,7 11,10 -4,3 -8,7 -11,11l-1 0z"/>
   <circle fill="#CBCBCB" stroke="#999999" stroke-width="4.35039" cx="249" cy="45" r="5"/>
   <circle fill="#B2B2B2" cx="150" cy="45" r="31"/>
   <rect fill="#B2B2B2" x="119" y="1" width="62.1226" height="43.7992"/>
   <path fill="#B2B2B2" d="M166 19c9,5 15,15 15,26 0,17 -14,31 -31,31 -17,0 -31,-14 -31,-31 0,-11 6,-21 15,-26m32 0l0 0 0 0z"/>
   <rect fill="#CCCCCC" x="139" y="34" width="21.3409" height="21.3409"/>
   <path fill="#999999" d="M148 45c18,-9 30,-33 33,-44 0,11 0,33 0,44 0,11 -5,20 -13,26 -4,-11 -11,-20 -20,-26z"/>
   <path fill="#999999" d="M139 56l0 -22 1 0c4,5 7,8 12,11 -5,3 -8,7 -12,11l-1 0 0 0z"/>
   <circle fill="#CBCBCB" stroke="#999999" stroke-width="4.35039" cx="150" cy="45" r="5"/>
   <path fill="#00A9F3" d="M1783 725c-1,1 -2,3 -2,6 0,4 3,5 5,5 3,0 5,-3 5,-6l0 -2 2 0 0 2c0,2 2,5 5,5 2,0 3,-1 3,-4 0,-2 -1,-4 -1,-5l2 -1c1,1 2,4 2,7 0,4 -3,7 -6,7 -3,0 -5,-2 -6,-5l0 0c0,3 -3,5 -6,5 -4,0 -8,-3 -8,-9 0,-2 1,-5 2,-6l3 1z"/>
   <path fill="#00A9F3" d="M1779 751l26 -9 0 4 -13 4c-4,1 -7,2 -10,2l0 1c3,0 6,1 10,2l12 5 0 3 -25 -9 0 -3 0 0z"/>
   <path fill="#00A9F3" d="M1783 766c-1,1 -2,3 -2,5 0,4 3,6 5,6 3,0 5,-3 5,-7l0 -2 2 0 0 2c0,3 2,6 5,6 2,0 3,-1 3,-4 0,-3 -1,-4 -1,-5l2 -1c1,1 2,3 2,6 0,5 -3,7 -6,7 -3,0 -5,-1 -6,-4l0 0c0,3 -3,5 -6,5 -4,0 -8,-3 -8,-9 0,-3 1,-5 2,-6l3 1z"/>
   <path fill="#00A9F3" d="M1744 509c0,1 0,3 0,5 0,4 -1,6 -2,8 -2,2 -4,3 -7,3 -4,0 -6,-1 -8,-3 -2,-2 -3,-5 -3,-9 0,-1 0,-3 0,-4l20 0zm-18 2c0,1 0,2 0,3 0,5 3,8 8,8 5,0 8,-2 8,-8 0,-1 0,-2 0,-3l-16 0z"/>
   <polygon fill="#00A9F3" points="1740,536 1733,536 1733,542 1731,542 1731,536 1724,536 1724,534 1731,534 1731,527 1733,527 1733,534 1740,534 "/>
   <path fill="#00A9F3" d="M1744 617c0,2 0,3 0,5 0,4 -1,7 -2,8 -2,2 -4,3 -7,3 -4,0 -6,-1 -8,-3 -2,-1 -3,-5 -3,-8 0,-2 0,-4 0,-5l20 0zm-18 3c0,0 0,1 0,2 0,5 3,9 8,9 5,0 8,-3 8,-8 0,-2 0,-3 0,-3l-16 0z"/>
   <polygon fill="#00A9F3" points="1733,643 1731,643 1731,636 1733,636 "/>
   <path fill="#00A9F3" d="M1705 727c0,2 0,5 0,7 0,3 -1,6 -2,7 -1,2 -3,2 -5,2 -3,0 -5,-2 -6,-5l0 0c-1,2 -3,4 -6,4 -3,1 -6,2 -7,2l0 -3c1,-1 3,-1 6,-2 4,-1 5,-2 6,-5l0 -3 -12 0 0 -4 26 0zm-12 4l0 3c0,4 2,6 5,6 3,0 4,-2 5,-6 0,-1 -1,-3 -1,-3l-9 0z"/>
   <path fill="#00A9F3" d="M1683 747c-1,2 -1,4 -1,6 0,4 1,6 4,6 2,0 4,-2 5,-5 2,-4 4,-7 7,-7 4,0 7,4 7,8 0,3 0,5 -1,6l-3 -1c1,-1 2,-2 2,-5 0,-3 -2,-4 -4,-4 -2,0 -4,1 -5,5 -2,4 -4,6 -8,6 -3,0 -7,-3 -7,-9 0,-2 1,-5 2,-6l2 0z"/>
   <polygon fill="#00A9F3" points="1702,772 1702,764 1705,764 1705,783 1702,783 1702,775 1679,775 1679,772 "/>
   <path fill="#00A9F3" d="M1580 710l25 -8 0 3 -12 4c-4,2 -7,2 -10,3l0 0c3,1 6,2 9,3l13 4 0 4 -26 -9 0 -4 1 0z"/>
   <path fill="#00A9F3" d="M1605 726c0,1 0,3 0,6 0,3 0,5 -1,7 -1,1 -3,2 -5,2 -2,0 -4,-2 -5,-4l-1 0c0,2 -2,5 -6,5 -2,0 -4,-1 -5,-2 -2,-2 -2,-5 -2,-9 0,-2 0,-4 0,-5l25 0zm-11 3l0 3c0,4 2,6 5,6 3,0 4,-3 4,-6 0,-1 0,-2 0,-3l-9 0 0 0zm-12 0c0,1 0,2 0,3 0,3 1,6 5,6 4,0 5,-3 5,-6l0 -3 -10 0 0 0z"/>
   <path fill="#00A9F3" d="M1588 751l-8 -3 0 -4 25 9 0 4 -25 9 0 -4 8 -2 0 -9zm2 8l8 -3c1,0 3,0 4,-1l0 0c-1,0 -3,-1 -4,-1l-8 -3 0 8 0 0z"/>
   <polygon fill="#00A9F3" points="1602,772 1602,764 1605,764 1605,783 1602,783 1602,775 1580,775 1580,772 "/>
   <path fill="#00A9F3" d="M1481 730c-1,-1 -1,-4 -1,-8 0,-4 1,-7 3,-9 2,-2 5,-4 9,-4 8,0 14,5 14,14 0,3 -1,5 -2,6l-2 0c0,-2 1,-4 1,-6 0,-6 -4,-10 -10,-10 -7,0 -11,4 -11,9 0,3 1,4 1,5l8 0 0 -5 2 0 0 8 -12 0 0 0z"/>
   <path fill="#00A9F3" d="M1480 735l25 0 0 4 -12 8c-4,2 -6,3 -9,5l0 0c4,-1 7,-1 11,-1l10 0 0 3 -25 0 0 -3 13 -8c3,-2 6,-4 8,-5l0 0c-3,0 -6,0 -10,0l-11 0 0 -3 0 0z"/>
   <path fill="#00A9F3" d="M1505 760c0,2 1,5 1,7 0,5 -1,8 -4,11 -2,2 -5,3 -9,3 -4,0 -7,-1 -10,-3 -2,-3 -3,-7 -3,-12 0,-2 0,-4 0,-6l25 0zm-22 4c-1,0 -1,2 -1,3 0,7 4,11 11,11 6,0 10,-3 10,-11 0,-1 0,-3 0,-3l-20 0z"/>
   <path fill="#00A9F3" d="M1306 741c0,2 0,4 0,7 0,5 -1,8 -3,10 -2,2 -5,4 -9,4 -4,0 -8,-2 -10,-4 -2,-2 -4,-6 -4,-11 0,-3 0,-5 1,-6l25 0zm-23 3c0,1 0,2 0,3 0,7 4,11 11,11 6,0 10,-3 10,-10 0,-2 -1,-3 -1,-4l-20 0z"/>
   <path fill="#00A9F3" d="M1303 779c0,-1 0,-2 0,-2 -1,-6 -5,-9 -9,-9l0 0c1,1 3,3 3,6 0,4 -3,7 -8,7 -5,0 -9,-3 -9,-8 0,-5 4,-8 11,-8 4,0 8,1 11,4 2,2 3,5 3,8 0,1 1,1 1,2l-3 0 0 0zm-14 -1c3,0 5,-2 5,-5 0,-2 -1,-4 -3,-5 0,0 -1,0 -1,0 -4,0 -7,2 -7,5 0,3 2,5 6,5z"/>
   <path fill="#00A9F3" d="M1206 741c0,2 1,4 1,7 0,5 -2,8 -4,10 -2,2 -5,4 -9,4 -4,0 -7,-2 -10,-4 -2,-2 -3,-6 -3,-11 0,-3 0,-5 0,-6l25 0zm-23 3c0,1 0,2 0,3 0,7 4,11 11,11 6,0 10,-3 10,-10 0,-2 0,-3 -1,-4l-20 0z"/>
   <path fill="#00A9F3" d="M1203 780l0 -10 -7 -1c0,1 0,1 0,2 0,2 0,4 -1,6 -1,1 -3,3 -6,3 -5,0 -9,-4 -9,-9 0,-3 1,-5 2,-6l2 1c0,1 -1,3 -1,5 0,3 2,6 5,6 4,0 6,-2 6,-7 0,-2 0,-3 0,-4l12 2 0 11 -3 0 0 1z"/>
   <path fill="#00A9F3" d="M1106 741c1,2 1,4 1,7 0,5 -1,8 -3,10 -2,2 -5,4 -9,4 -5,0 -8,-2 -10,-4 -3,-2 -4,-6 -4,-11 0,-3 0,-5 0,-6l25 0zm-22 3c0,1 -1,2 -1,3 0,7 4,11 11,11 6,0 10,-3 10,-10 0,-2 0,-3 0,-4l-20 0z"/>
   <path fill="#00A9F3" d="M1081 775l7 0 0 -11 2 0 16 11 0 3 -15 0 0 4 -3 0 0 -4 -7 0 0 -3 0 0zm9 0l9 0c1,0 2,0 4,0l0 0c-2,-1 -3,-1 -4,-2l-8 -6 -1 0 0 8z"/>
   <path fill="#00A9F3" d="M1007 741c0,2 0,4 0,7 0,5 -1,8 -3,10 -2,2 -5,4 -9,4 -4,0 -8,-2 -10,-4 -3,-2 -4,-6 -4,-11 0,-3 0,-5 0,-6l26 0zm-23 3c0,1 0,2 0,3 0,7 4,11 11,11 6,0 9,-3 9,-10 0,-2 0,-3 0,-4l-20 0z"/>
   <path fill="#00A9F3" d="M985 766c0,1 -1,3 -1,5 0,4 2,6 4,6 4,0 5,-3 5,-7l0 -2 3 0 0 2c0,3 1,6 4,6 2,0 4,-1 4,-4 0,-3 -1,-4 -2,-5l2 -1c1,1 2,3 2,6 0,5 -3,7 -6,7 -2,0 -4,-1 -5,-4l0 0c-1,3 -3,5 -7,5 -4,0 -7,-3 -7,-9 0,-3 1,-5 1,-6l3 1z"/>
   <path fill="#00A9F3" d="M907 741c0,2 0,4 0,7 0,5 -1,8 -3,10 -2,2 -5,4 -9,4 -4,0 -8,-2 -10,-4 -2,-2 -4,-6 -4,-11 0,-3 1,-5 1,-6l25 0zm-23 3c0,1 0,2 0,3 0,7 4,11 11,11 6,0 10,-3 10,-10 0,-2 0,-3 -1,-4l-20 0z"/>
   <path fill="#00A9F3" d="M882 765l2 0 2 2c6,7 9,10 13,10 3,0 5,-2 5,-5 0,-3 -1,-4 -2,-6l2 -1c2,2 3,4 3,7 0,6 -4,8 -7,8 -5,0 -9,-3 -14,-8l-2 -3 0 0 0 12 -2 0 0 -16 0 0z"/>
   <path fill="#00A9F3" d="M807 741c1,2 1,4 1,7 0,5 -1,8 -3,10 -3,2 -5,4 -10,4 -4,0 -7,-2 -10,-4 -2,-2 -3,-6 -3,-11 0,-3 0,-5 0,-6l25 0zm-22 3c-1,1 -1,2 -1,3 0,7 4,11 11,11 6,0 10,-3 10,-10 0,-2 0,-3 0,-4l-20 0z"/>
   <polygon fill="#00A9F3" points="804,772 804,772 801,768 804,767 807,772 807,775 782,775 782,772 "/>
   <path fill="#00A9F3" d="M707 741c1,2 1,4 1,7 0,5 -1,8 -3,10 -2,2 -5,4 -9,4 -4,0 -8,-2 -10,-4 -3,-2 -4,-6 -4,-11 0,-3 0,-5 0,-6l25 0zm-22 3c0,1 0,2 0,3 0,7 4,11 11,11 6,0 9,-3 9,-10 0,-2 0,-3 0,-4l-20 0z"/>
   <path fill="#00A9F3" d="M695 781c-9,0 -13,-3 -13,-8 0,-5 4,-8 13,-9 8,0 12,4 12,9 0,5 -4,8 -12,8zm0 -13c-7,0 -11,2 -11,5 0,3 4,5 11,5 6,0 10,-2 10,-5 0,-3 -4,-5 -10,-5z"/>
   <path fill="#00A9F3" d="M583 762c0,-1 -1,-4 -1,-7 0,-7 5,-13 13,-13 8,0 13,6 13,14 0,3 0,5 -1,6l-2 -1c0,-1 1,-3 1,-5 0,-6 -4,-10 -11,-10 -6,0 -10,4 -10,10 0,2 0,4 1,5l-3 1z"/>
   <path fill="#00A9F3" d="M604 780l0 -10 -6 -1c0,1 0,1 0,2 0,2 0,4 -1,6 -1,1 -3,3 -6,3 -5,0 -9,-4 -9,-9 0,-3 1,-5 2,-6l2 1c0,1 -1,3 -1,5 0,3 2,6 5,6 4,0 6,-2 6,-7 0,-2 0,-3 0,-4l11 2 0 11 -3 0 0 1z"/>
   <path fill="#00A9F3" d="M484 762c-1,-1 -2,-4 -2,-7 0,-7 5,-13 13,-13 8,0 14,6 14,14 0,3 -1,5 -1,6l-3 -1c1,-1 1,-3 1,-5 0,-6 -4,-10 -10,-10 -7,0 -11,4 -11,10 0,2 1,4 1,5l-2 1z"/>
   <path fill="#00A9F3" d="M483 775l7 0 0 -11 2 0 16 11 0 3 -16 0 0 4 -2 0 0 -4 -7 0 0 -3 0 0zm9 0l8 0c2,0 3,0 4,0l0 0c-1,-1 -2,-1 -3,-2l-9 -6 0 0 0 8z"/>
   <path fill="#00A9F3" d="M384 762c-1,-1 -1,-4 -1,-7 0,-7 4,-13 13,-13 8,0 13,6 13,14 0,3 -1,5 -1,6l-3 -1c1,-1 1,-3 1,-5 0,-6 -3,-10 -10,-10 -6,0 -10,4 -10,10 0,2 0,4 1,5l-3 1z"/>
   <path fill="#00A9F3" d="M387 766c-1,1 -2,3 -2,5 0,4 3,6 5,6 4,0 5,-3 5,-7l0 -2 3 0 0 2c0,3 1,6 4,6 2,0 3,-1 3,-4 0,-3 0,-4 -1,-5l2 -1c1,1 2,3 2,6 0,5 -3,7 -6,7 -2,0 -4,-1 -6,-4l0 0c0,3 -3,5 -6,5 -4,0 -7,-3 -7,-9 0,-3 0,-5 1,-6l3 1z"/>
   <path fill="#00A9F3" d="M284 762c0,-1 -1,-4 -1,-7 0,-7 5,-13 13,-13 8,0 13,6 13,14 0,3 0,5 -1,6l-2 -1c0,-1 1,-3 1,-5 0,-6 -4,-10 -11,-10 -6,0 -10,4 -10,10 0,2 0,4 1,5l-3 1z"/>
   <path fill="#00A9F3" d="M283 765l2 0 3 2c6,7 9,10 13,10 2,0 5,-2 5,-5 0,-3 -1,-4 -2,-6l2 -1c1,2 2,4 2,7 0,6 -3,8 -7,8 -4,0 -8,-3 -13,-8l-2 -3 0 0 0 12 -3 0 0 -16 0 0z"/>
   <path fill="#00A9F3" d="M185 762c-1,-1 -2,-4 -2,-7 0,-7 5,-13 13,-13 8,0 14,6 14,14 0,3 -1,5 -1,6l-3 -1c0,-1 1,-3 1,-5 0,-6 -4,-10 -11,-10 -6,0 -10,4 -10,10 0,2 1,4 1,5l-2 1z"/>
   <polygon fill="#00A9F3" points="205,772 205,772 203,768 206,767 208,772 208,775 184,775 184,772 "/>
   <path fill="#00A9F3" d="M85 762c-1,-1 -1,-4 -1,-7 0,-7 4,-13 13,-13 8,0 13,6 13,14 0,3 -1,5 -1,6l-3 -1c1,-1 1,-3 1,-5 0,-6 -3,-10 -10,-10 -6,0 -11,4 -11,10 0,2 1,4 2,5l-3 1z"/>
   <path fill="#00A9F3" d="M97 781c-9,0 -13,-3 -13,-8 0,-5 4,-8 12,-9 9,0 13,4 13,9 0,5 -5,8 -12,8zm-1 -13c-6,0 -10,2 -10,5 0,3 4,5 11,5 6,0 10,-2 10,-5 0,-3 -4,-5 -11,-5z"/>
   <path fill="#00A9F3" d="M1779 22l26 -9 0 4 -13 4c-4,1 -7,2 -10,2l0 1c3,0 6,1 10,2l12 5 0 3 -25 -9 0 -3 0 0z"/>
   <polygon fill="#00A9F3" points="1805,40 1779,40 1779,37 1805,37 "/>
   <path fill="#00A9F3" d="M1779 46l26 0 0 4 -13 8c-3,2 -6,3 -9,4l0 1c4,-1 7,-1 11,-1l11 0 0 3 -26 0 0 -3 13 -8c3,-2 6,-4 8,-5l0 0c-3,0 -6,0 -10,0l-11 0 0 -3 0 0z"/>
   <path fill="#00A9F3" d="M1680 35c0,-1 -1,-4 -1,-7 0,-4 1,-7 3,-10 2,-2 6,-4 10,-4 7,0 13,6 13,14 0,3 -1,6 -1,7l-3 -1c1,-1 1,-3 1,-6 0,-6 -4,-10 -10,-10 -7,0 -10,4 -10,10 0,2 0,3 0,4l8 0 0 -5 3 0 0 8 -13 0 0 0z"/>
   <path fill="#00A9F3" d="M1679 40l26 0 0 4 -13 8c-3,2 -6,4 -8,5l0 0c3,0 6,0 10,0l11 0 0 3 -26 0 0 -4 13 -8c3,-2 6,-3 9,-5l0 0c-3,0 -6,0 -11,0l-11 0 0 -3 0 0z"/>
   <path fill="#00A9F3" d="M1705 65c0,2 0,5 0,8 0,4 -1,8 -3,10 -2,2 -5,3 -9,3 -4,0 -8,-1 -10,-3 -3,-3 -4,-7 -4,-11 0,-3 0,-5 0,-7l26 0zm-23 4c0,0 0,2 0,3 0,7 4,11 11,11 6,0 9,-3 9,-10 0,-2 0,-3 0,-4l-20 0z"/>
   <polygon fill="#00A9F3" points="1602,21 1602,13 1605,13 1605,32 1602,32 1602,24 1580,24 1580,21 "/>
   <path fill="#00A9F3" d="M1580 50l5 -4c2,-1 4,-2 5,-3l0 0c-1,0 -3,-1 -5,-3l-5 -3 0 -3 13 7 12 -7 0 4 -6 3c-2,1 -3,2 -4,2l0 0c1,1 2,2 4,3l6 3 0 4 -12 -8 -14 8 0 -3 1 0z"/>
   <path fill="#00A9F3" d="M1505 16c0,2 1,4 1,6 0,4 -1,6 -2,8 -2,1 -3,2 -5,2 -4,0 -6,-3 -7,-5l0 0c-1,2 -2,3 -5,4 -4,0 -6,1 -7,2l0 -4c1,0 3,-1 6,-2 4,0 5,-2 5,-5l0 -3 -11 0 0 -3 25 0zm-11 3l0 4c0,3 1,5 4,5 4,0 5,-2 5,-6 0,-1 0,-2 0,-3l-9 0z"/>
   <path fill="#00A9F3" d="M1480 51l6 -4c2,-1 3,-2 5,-3l0 0c-2,-1 -3,-1 -6,-3l-5 -3 0 -4 13 8 12 -7 0 4 -6 3c-1,1 -3,2 -4,2l0 0c2,1 3,2 4,3l6 3 0 4 -12 -8 -13 8 0 -3 0 0z"/>
   <path fill="#00A9F3" d="M1380 20l26 -6 0 3 -13 3c-3,1 -7,2 -9,2l0 0c3,1 6,1 9,2l13 4 0 3 -13 3c-3,1 -6,2 -9,2l0 0c3,1 6,1 9,2l13 4 0 3 -26 -7 0 -4 14 -3c3,-1 5,-1 8,-2l0 0c-3,0 -5,-1 -8,-2l-14 -4 0 -3 0 0z"/>
   <path fill="#00A9F3" d="M1406 48l0 3 -12 0 0 1c1,0 1,1 2,2l10 7 0 4 -11 -9 -15 10 0 -4 13 -8 -3 -3 -10 0 0 -3 26 0z"/>
   <path fill="#00A9F3" d="M1405 69c1,1 1,3 1,6 0,3 -1,6 -2,7 -1,2 -3,2 -6,2 -2,0 -4,0 -5,-2 -2,-1 -3,-4 -3,-7 0,-1 0,-2 0,-3l-10 0 0 -4 25 0 0 1zm-12 3c0,1 0,2 0,3 0,4 2,6 5,6 4,0 5,-2 5,-6 0,-1 0,-3 0,-3l-10 0 0 0z"/>
   <path fill="#00A9F3" d="M1306 16c0,2 0,4 0,7 0,5 -1,8 -3,10 -2,3 -5,4 -9,4 -4,0 -8,-1 -10,-4 -2,-2 -4,-6 -4,-11 0,-2 0,-4 1,-6l25 0zm-23 3c0,1 0,2 0,4 0,7 4,11 11,11 6,0 10,-4 10,-11 0,-2 -1,-3 -1,-4l-20 0z"/>
   <path fill="#00A9F3" d="M1288 45l-8 -3 0 -3 26 8 0 4 -26 9 0 -3 8 -3 0 -9zm3 8l8 -2c1,-1 3,-1 4,-2l0 0c-1,0 -3,-1 -4,-1l-8 -3 0 8 0 0z"/>
   <path fill="#00A9F3" d="M1281 81c0,-1 -1,-3 -1,-7 0,-7 5,-12 13,-12 8,0 13,5 13,13 0,3 0,5 -1,6l-2 -1c0,-1 1,-3 1,-5 0,-6 -4,-10 -11,-10 -6,0 -10,4 -10,10 0,2 0,4 1,6l-3 0z"/>
   <path fill="#00A9F3" d="M1189 20l-8 -3 0 -3 25 9 0 4 -25 8 0 -3 8 -3 0 -9zm2 8l8 -2c1,-1 3,-1 4,-1l0 0c-1,-1 -3,-1 -4,-2l-7 -2 0 7 -1 0z"/>
   <path fill="#00A9F3" d="M1203 53l0 -10 -7 -1c0,1 0,2 0,2 0,2 0,4 -1,6 -1,2 -3,3 -6,3 -5,0 -9,-3 -9,-9 0,-2 1,-5 2,-6l2 1c0,1 -1,3 -1,5 0,3 2,6 5,6 4,0 6,-2 6,-7 0,-2 0,-3 0,-4l12 2 0 12 -3 0z"/>
   <path fill="#00A9F3" d="M1218 161c4,0 10,-1 14,-1l0 0c-4,-1 -8,-2 -13,-4l-16 -6 0 -3 16 -5c5,-2 9,-3 13,-4l0 0c-4,0 -10,-1 -15,-1l-14 -1 0 -4 33 2 0 6 -16 6c-4,1 -7,2 -11,3l0 0c4,1 7,2 11,4l16 5 0 6 -33 2 0 -4 15 -1z"/>
   <path fill="#00A9F3" d="M1220 201c-11,0 -17,-7 -17,-16 0,-8 6,-14 16,-14 11,0 18,6 18,15 0,9 -7,15 -17,15zm0 -26c-7,0 -14,4 -14,11 0,7 6,10 14,10 6,0 13,-3 13,-10 0,-7 -6,-11 -13,-11z"/>
   <path fill="#00A9F3" d="M1236 206c0,3 1,6 1,9 0,7 -2,11 -5,14 -2,3 -6,5 -11,5 -6,0 -10,-2 -13,-5 -3,-3 -5,-8 -5,-15 0,-3 0,-6 0,-8l33 0 0 0zm-29 5c-1,1 -1,2 -1,4 0,9 6,14 14,14 8,0 13,-4 13,-13 0,-3 0,-4 0,-5l-26 0z"/>
   <polygon fill="#00A9F3" points="1219,256 1219,243 1207,243 1207,258 1203,258 1203,239 1236,239 1236,257 1233,257 1233,243 1222,243 1222,256 "/>
   <path fill="#00A9F3" d="M1236 544c0,3 1,6 1,9 0,4 -1,7 -3,9 -2,2 -4,3 -6,3 -5,0 -8,-3 -9,-6l0 0c-1,2 -3,4 -7,4 -4,2 -8,2 -9,3l0 -4c1,-1 4,-2 8,-3 5,-1 6,-2 7,-6l0 -4 -15 0 0 -5 33 0zm-15 5l0 4c0,5 2,8 6,8 4,0 6,-4 6,-8 0,-2 0,-4 0,-4l-12 0z"/>
   <polygon fill="#00A9F3" points="1219,588 1219,575 1207,575 1207,589 1203,589 1203,571 1236,571 1236,589 1233,589 1233,575 1222,575 1222,588 1219,588 "/>
   <path fill="#00A9F3" d="M1208 595c-1,1 -2,4 -2,7 0,5 3,7 6,7 3,0 5,-2 7,-6 1,-5 4,-9 9,-9 5,0 9,4 9,11 0,3 -1,6 -2,7l-3 -1c0,-1 1,-3 1,-6 0,-5 -2,-6 -5,-6 -3,0 -4,2 -6,6 -2,6 -5,9 -10,9 -5,0 -9,-4 -9,-12 0,-3 1,-7 2,-8l3 1z"/>
   <polygon fill="#00A9F3" points="1219,636 1219,624 1207,624 1207,638 1203,638 1203,619 1236,619 1236,637 1233,637 1233,623 1222,623 1222,636 1219,636 "/>
   <polygon fill="#00A9F3" points="1233,651 1233,641 1236,641 1236,665 1233,665 1233,655 1203,655 1203,651 "/>
   <path fill="#00A9F3" d="M1089 20l-8 -3 0 -3 26 9 0 4 -26 8 0 -3 8 -3 0 -9zm3 8l7 -2c2,-1 3,-1 5,-1l0 0c-2,-1 -3,-1 -5,-2l-7 -2 0 7 0 0z"/>
   <path fill="#00A9F3" d="M1081 48l7 0 0 -11 2 0 16 11 0 4 -15 0 0 3 -3 0 0 -3 -7 0 0 -4 0 0zm9 0l9 0c1,0 2,0 4,0l0 0c-2,-1 -3,-1 -4,-2l-8 -6 -1 0 0 8z"/>
   <path fill="#00A9F3" d="M989 20l-8 -3 0 -3 26 9 0 4 -26 8 0 -3 8 -3 0 -9zm3 8l7 -2c2,-1 4,-1 5,-1l0 0c-2,-1 -3,-1 -5,-2l-7 -2 0 7 0 0z"/>
   <path fill="#00A9F3" d="M985 39c0,1 -1,3 -1,5 0,4 2,6 4,6 4,0 5,-3 5,-7l0 -1 3 0 0 1c0,3 1,6 4,6 2,0 4,-1 4,-4 0,-2 -1,-4 -2,-5l2 -1c1,1 2,4 2,6 0,5 -3,7 -6,7 -2,0 -4,-1 -5,-4l0 0c-1,3 -3,5 -7,5 -4,0 -7,-3 -7,-9 0,-3 1,-5 1,-6l3 1z"/>
   <path fill="#00A9F3" d="M890 20l-8 -3 0 -3 25 9 0 4 -25 8 0 -3 8 -3 0 -9zm2 8l8 -2c1,-1 3,-1 4,-1l0 0c-1,-1 -3,-1 -4,-2l-8 -2 0 7 0 0z"/>
   <path fill="#00A9F3" d="M882 38l2 0 2 3c6,6 9,9 13,9 3,0 5,-2 5,-5 0,-2 -1,-4 -2,-5l2 -2c2,2 3,5 3,7 0,6 -4,8 -7,8 -5,0 -9,-3 -14,-8l-2 -2 0 0 0 11 -2 0 0 -16 0 0z"/>
   <path fill="#00A9F3" d="M790 20l-8 -3 0 -3 26 9 0 4 -26 8 0 -3 8 -3 0 -9zm3 8l7 -2c2,-1 3,-1 5,-1l0 0c-2,-1 -3,-1 -5,-2l-7 -2 0 7 0 0z"/>
   <polygon fill="#00A9F3" points="804,45 804,45 801,41 804,40 807,46 807,48 782,48 782,45 "/>
   <path fill="#00A9F3" d="M690 20l-8 -3 0 -3 26 9 0 4 -26 8 0 -3 8 -3 0 -9zm3 8l7 -2c2,-1 3,-1 5,-1l0 0c-2,-1 -3,-1 -5,-2l-7 -2 0 7 0 0z"/>
   <path fill="#00A9F3" d="M695 54c-9,0 -13,-3 -13,-8 0,-5 4,-8 13,-8 8,0 12,3 12,8 0,5 -4,8 -12,8zm0 -13c-7,0 -11,2 -11,5 0,3 4,5 11,5 6,0 10,-2 10,-5 0,-3 -4,-5 -10,-5z"/>
   <path fill="#00A9F3" d="M608 16c0,1 0,4 0,6 0,3 0,5 -2,7 -1,1 -2,2 -4,2 -2,0 -5,-2 -6,-4l0 0c0,2 -2,5 -6,5 -2,0 -4,-1 -5,-2 -2,-2 -3,-5 -3,-9 0,-2 1,-4 1,-5l25 0zm-11 3l0 3c0,4 2,6 5,6 3,0 4,-2 4,-6 0,-1 0,-2 -1,-3l-8 0 0 0zm-12 0c0,1 0,2 0,3 0,3 1,7 5,7 3,0 5,-3 5,-7l0 -3 -10 0 0 0z"/>
   <path fill="#00A9F3" d="M604 50l0 -9 -6 -1c0,0 0,1 0,2 0,2 0,3 -1,5 -1,2 -3,4 -6,4 -5,0 -9,-4 -9,-10 0,-2 1,-5 2,-6l2 1c0,1 -1,3 -1,5 0,3 2,6 5,6 4,0 6,-2 6,-7 0,-1 0,-2 0,-3l11 1 0 12 -3 0 0 0z"/>
   <path fill="#00A9F3" d="M508 16c0,1 1,4 1,6 0,3 -1,5 -2,7 -1,1 -3,2 -5,2 -2,0 -4,-2 -5,-4l0 0c-1,2 -3,5 -7,5 -2,0 -4,-1 -5,-2 -2,-2 -2,-5 -2,-9 0,-2 0,-4 0,-5l25 0zm-10 3l0 3c0,4 1,6 4,6 3,0 4,-2 4,-6 0,-1 0,-2 0,-3l-8 0 0 0zm-13 0c0,1 0,2 0,3 0,3 1,7 5,7 4,0 5,-3 5,-7l0 -3 -10 0 0 0z"/>
   <path fill="#00A9F3" d="M483 46l7 0 0 -12 2 0 16 11 0 4 -16 0 0 3 -2 0 0 -3 -7 0 0 -3 0 0zm9 0l8 0c2,0 3,0 4,0l0 0c-1,-1 -2,-2 -3,-2l-9 -6 0 0 0 8z"/>
   <path fill="#00A9F3" d="M408 16c1,1 1,4 1,6 0,3 -1,5 -2,7 -1,1 -2,2 -4,2 -3,0 -5,-2 -6,-4l0 0c-1,2 -3,5 -6,5 -3,0 -4,-1 -6,-2 -1,-2 -2,-5 -2,-9 0,-2 0,-4 0,-5l25 0zm-10 3l0 3c0,4 2,6 4,6 3,0 4,-2 4,-6 0,-1 0,-2 0,-3l-8 0 0 0zm-12 0c0,1 0,2 0,3 0,3 1,7 5,7 3,0 5,-3 5,-7l0 -3 -10 0 0 0z"/>
   <path fill="#00A9F3" d="M387 36c-1,1 -2,3 -2,6 0,4 3,5 5,5 4,0 5,-3 5,-6l0 -2 3 0 0 2c0,2 1,5 4,5 2,0 3,-1 3,-4 0,-2 0,-4 -1,-5l2 -1c1,1 2,4 2,7 0,4 -3,7 -6,7 -2,0 -4,-2 -6,-5l0 0c0,3 -3,6 -6,6 -4,0 -7,-4 -7,-10 0,-2 0,-5 1,-6l3 1z"/>
   <path fill="#00A9F3" d="M309 16c0,1 0,4 0,6 0,3 0,5 -2,7 -1,1 -2,2 -4,2 -3,0 -5,-2 -6,-4l0 0c0,2 -2,5 -6,5 -2,0 -4,-1 -5,-2 -2,-2 -3,-5 -3,-9 0,-2 0,-4 1,-5l25 0zm-11 3l0 3c0,4 2,6 4,6 3,0 5,-2 5,-6 0,-1 -1,-2 -1,-3l-8 0 0 0zm-12 0c0,1 0,2 0,3 0,3 1,7 5,7 3,0 5,-3 5,-7l0 -3 -10 0 0 0z"/>
   <path fill="#00A9F3" d="M283 35l2 0 3 3c6,6 9,9 13,9 2,0 5,-1 5,-5 0,-2 -1,-4 -2,-5l2 -1c1,1 2,4 2,7 0,5 -3,7 -7,7 -4,0 -8,-3 -13,-8l-2 -2 0 0 0 11 -3 0 0 -16 0 0z"/>
   <path fill="#00A9F3" d="M209 16c0,1 1,4 1,6 0,3 -1,5 -2,7 -1,1 -3,2 -5,2 -2,0 -4,-2 -5,-4l0 0c-1,2 -3,5 -7,5 -2,0 -4,-1 -5,-2 -2,-2 -2,-5 -2,-9 0,-2 0,-4 0,-5l25 0zm-10 3l0 3c0,4 1,6 4,6 3,0 4,-2 4,-6 0,-1 0,-2 0,-3l-8 0 0 0zm-13 0c0,1 0,2 0,3 0,3 1,7 5,7 4,0 5,-3 5,-7l0 -3 -10 0 0 0z"/>
   <polygon fill="#00A9F3" points="205,43 205,43 203,38 206,38 208,43 208,46 184,46 184,42 205,42 "/>
   <path fill="#00A9F3" d="M109 16c1,1 1,4 1,6 0,3 -1,5 -2,7 -1,1 -3,2 -5,2 -2,0 -4,-2 -5,-4l0 0c-1,2 -3,5 -7,5 -2,0 -4,-1 -5,-2 -1,-2 -2,-5 -2,-9 0,-2 0,-4 0,-5l25 0zm-10 3l0 3c0,4 2,6 4,6 3,0 4,-2 4,-6 0,-1 0,-2 0,-3l-8 0 0 0zm-12 0c-1,1 -1,2 -1,3 0,3 2,7 6,7 3,0 4,-3 4,-7l0 -3 -9 0 0 0z"/>
   <path fill="#00A9F3" d="M97 52c-9,0 -13,-3 -13,-9 0,-5 4,-8 12,-8 9,0 13,4 13,9 0,5 -5,8 -12,8zm-1 -14c-6,0 -10,2 -10,5 0,4 4,5 11,5 6,0 10,-1 10,-5 0,-3 -4,-5 -11,-5z"/>
   <path fill="#404040" d="M1461 695c-2,0 -4,1 -7,1 -5,0 -8,-1 -10,-4 -3,-2 -4,-5 -4,-9 0,-4 1,-7 4,-10 2,-2 6,-3 11,-3 2,0 4,0 6,0l0 25zm-3 -23c-1,0 -2,0 -4,0 -7,0 -11,4 -11,11 0,6 4,10 11,10 2,0 3,0 4,0l0 -21z"/>
   <polygon fill="#404040" points="1421,695 1421,692 1432,670 1435,670 1424,692 1424,692 1436,692 1436,695 "/>
   <polygon fill="#404040" fill-rule="nonzero" points="1887,726 1887,729 1906,736 1906,733 1892,727 1906,722 1906,718 "/>
   <path id="1" fill="#404040" fill-rule="nonzero" d="M1887 747c0,5 3,8 8,8l11 0 0 -3 -11 0c-3,0 -5,-2 -5,-5 0,-3 2,-4 5,-4l11 0 0 -4 -11 0c-5,0 -8,3 -8,8z"/>
   <path id="2" fill="#404040" fill-rule="nonzero" d="M1887 766c0,4 2,6 6,6l0 0c3,0 4,-2 5,-5 1,-4 2,-5 3,-5l0 0c1,0 2,1 2,3 0,2 0,3 -2,5l3 2c1,-2 2,-4 2,-7 0,-3 -2,-6 -5,-6l0 0c-4,0 -5,2 -6,6 -1,3 -1,4 -3,4l0 0c-1,0 -2,-1 -2,-3 0,-2 1,-4 2,-6l-2 -2c-2,2 -3,5 -3,8z"/>
   <path id="3" fill="#404040" fill-rule="nonzero" d="M1887 776l0 9c0,4 2,6 5,6l0 0c3,0 4,-1 5,-3 1,1 2,2 4,2l0 0c1,0 2,0 3,-1 1,-1 2,-2 2,-5l0 -8 -19 0zm11 3l5 0 0 5c0,2 -1,3 -2,3l0 0c-2,0 -3,-1 -3,-3l0 -5zm-8 0l5 0 0 5c0,3 -1,4 -2,4l0 0c-2,0 -3,-1 -3,-3l0 -6z"/>
   <circle fill="#F2F2F2" cx="1947" cy="755" r="25"/>
   <path fill="#FBAE17" d="M1947 736c11,0 19,8 19,19 0,10 -8,19 -19,19 -11,0 -19,-9 -19,-19 0,-11 8,-19 19,-19m0 -10c-16,0 -29,13 -29,29 0,16 13,29 29,29 16,0 29,-13 29,-29 0,-16 -13,-29 -29,-29l0 0z"/>
   <path fill="#00A9F3" d="M1983 0l0 75c0,9 -7,17 -17,17l-60 0c-10,0 -18,-8 -18,-17l0 -75 95 0z"/>
   <circle fill="#F2F2F2" cx="1947" cy="45" r="25"/>
   <path fill="#FBAE17" d="M1947 25c11,0 19,9 19,20 0,10 -8,19 -19,19 -11,0 -19,-9 -19,-19 0,-11 8,-20 19,-20m0 -9c-16,0 -29,13 -29,29 0,16 13,29 29,29 16,0 29,-13 29,-29 0,-16 -13,-29 -29,-29l0 0z"/>
   <polygon fill="#404040" points="1912,22 1912,25 1891,25 1891,35 1889,35 1889,22 "/>
   <path fill="#404040" d="M1910 41c-1,0 -2,0 -2,-2 0,-1 1,-1 2,-1 1,0 1,0 1,1 1,2 0,2 -1,2zm-21 -3l16 0 0 3 -16 0 0 -3z"/>
   <polygon fill="#404040" points="1907,56 1899,56 1899,64 1897,64 1897,56 1889,56 1889,54 1897,54 1897,47 1899,47 1899,54 1907,54 "/>
   <path fill="#FBAE17" d="M1761 585c7,0 13,6 13,13 0,7 -6,12 -13,12 -7,0 -12,-5 -12,-12 0,-7 5,-13 12,-13m0 -6c-10,0 -19,8 -19,19 0,10 9,19 19,19 11,0 19,-9 19,-19 0,-11 -8,-19 -19,-19l0 0z"/>
   <path fill="#FBAE17" d="M1761 536c7,0 13,6 13,13 0,7 -6,12 -13,12 -7,0 -12,-5 -12,-12 0,-7 5,-13 12,-13m0 -6c-10,0 -19,9 -19,19 0,10 9,19 19,19 11,0 19,-9 19,-19 0,-10 -8,-19 -19,-19l0 0z"/>
   <rect fill="#FF0033" x="1566" y="335" width="43.0165" height="27.1504"/>
  </g>
 </g>
</svg>
