<svg xmlns="http://www.w3.org/2000/svg" viewBox="0 0 57.5999985 147.2610168"><path d="M0 4.2v136.062l3.62 6.999h50.118l3.862-6.999V4.2H0zm43.06 17.569a1.297 1.297 0 1 1 0-2.597 1.297 1.297 0 0 1-.001 2.598zm10.758-12.04a2.095 2.095 0 1 1 0-4.189 2.095 2.095 0 0 1 .001 4.19zm-50.008 0a2.095 2.095 0 1 1 0-4.189 2.095 2.095 0 0 1 0 4.19zm35.712 12.04a1.297 1.297 0 1 1 .002-2.597 1.297 1.297 0 0 1-.002 2.598z" fill="#404040"/><path fill="#666" d="M49.542 22.12h1.18v3.063h-1.18z"/><text transform="translate(14.333 28.292)" fill="#00a9f3" font-family="MyriadPro-Bold" font-size="3.475">+</text><path fill="#006900" d="M6.285 61.72h44.736v73.34H6.285z"/><path fill="#b2b2b2" d="M7.024 62.741h4.147v6.389H7.024z"/><path fill="#CCC" d="M7.024 129.148h4.147v5.277H7.024z"/><path fill="#d29a33" d="M15.028 63.026h6.88v6.389h-6.88z"/><path fill="#a8916f" d="M16.384 130.096h5.523v3.595h-5.523zm30.408-4.798h3.44v4.253h-3.44zm0-6.343h3.44v4.252h-3.44zm0-6.344h3.44v4.252h-3.44zm0-6.344h3.44v4.253h-3.44zm0-6.343h3.44v4.252h-3.44zm0-6.344h3.44v4.252h-3.44zm0-6.344h3.44v4.252h-3.44zm0-6.343h3.44v4.252h-3.44zm0-6.344h3.44v4.252h-3.44zm0-6.344h3.44v4.252h-3.44zM7.024 125.298h3.44v4.252h-3.44zm0-6.343h3.44v4.252h-3.44zm0-6.344h3.44v4.252h-3.44zm0-6.344h3.44v4.252h-3.44zm0-6.343h3.44v4.252h-3.44zm0-6.344h3.44v4.252h-3.44zm0-6.344h3.44v4.252h-3.44zm0-6.343h3.44v4.252h-3.44zm0-6.344h3.44v4.252h-3.44zm0-6.344h3.44v4.252h-3.44z"/><path fill="#b2b2b2" d="M44.451 62.741h5.78v3.93h-5.78z"/><path fill="#CCC" d="M45.377 130.496h4.854v3.93h-4.854zm-12.662 0h9.302v3.93h-9.302z"/><path fill="#b2b2b2" d="M24.788 62.741h4.147v6.389H24.79zm13.726 0h4.146v6.389h-4.146z"/><path fill="#b2b2b2" d="M7.685 63.519h41.936v69.742H7.685z"/><path opacity=".35" fill="#e6e6e6" d="M49.621 133.26L38.902 92.632 7.685 63.519h41.936z"/><path d="M47.27 67.537v61.706a2.178 2.178 0 0 1-2.177 2.178h-32.88a2.178 2.178 0 0 1-2.177-2.178V67.537c0-1.203.975-2.178 2.178-2.178h32.879c1.202 0 2.178.975 2.178 2.178z" fill="#f2f2f2"/><path d="M33.562 112.987l-1.312-.135v-1.242h.34v.915l.6.071a.652.652 0 0 1-.085-.165.663.663 0 0 1-.035-.213c-.002-.218.066-.388.205-.51.14-.121.332-.182.577-.182.233 0 .422.064.568.192.145.128.218.32.218.575a.826.826 0 0 1-.167.525c-.112.143-.271.211-.478.206l-.008-.003-.011-.369c.11 0 .196-.033.258-.1a.365.365 0 0 0 .093-.259c0-.123-.042-.216-.125-.28a.555.555 0 0 0-.344-.095.545.545 0 0 0-.34.099.334.334 0 0 0-.129.281c0 .108.017.188.052.24.035.052.085.09.152.114l-.028.336zm0 1.77l-1.312-.135v-1.242h.34v.915l.6.071a.652.652 0 0 1-.085-.165.663.663 0 0 1-.035-.213c-.002-.218.066-.389.205-.51.14-.121.332-.182.577-.182.233 0 .422.064.568.192.145.128.218.32.218.575a.826.826 0 0 1-.167.525c-.112.143-.271.211-.478.206l-.008-.003-.011-.369c.11 0 .196-.033.258-.1s.093-.152.093-.259c0-.123-.042-.216-.125-.28a.553.553 0 0 0-.344-.095c-.141 0-.255.033-.34.099s-.129.16-.129.281c0 .108.017.188.052.24.035.052.085.09.152.114l-.028.336zm0 1.77l-1.312-.136v-1.24h.34v.914l.6.072a.652.652 0 0 1-.085-.166.663.663 0 0 1-.035-.212c-.002-.219.066-.389.205-.51.14-.122.332-.183.577-.183.233 0 .422.064.568.192.145.129.218.32.218.576a.826.826 0 0 1-.167.524c-.112.143-.271.212-.478.206l-.008-.003-.011-.368c.11 0 .196-.033.258-.1a.364.364 0 0 0 .093-.26c0-.122-.042-.215-.125-.279a.555.555 0 0 0-.344-.095.545.545 0 0 0-.34.099.334.334 0 0 0-.129.28c0 .109.017.189.052.24.035.053.085.091.152.115l-.028.336zm0 1.77l-1.312-.135v-1.242h.34v.915l.6.071a.652.652 0 0 1-.085-.166.663.663 0 0 1-.035-.212c-.002-.219.066-.389.205-.51.14-.123.332-.183.577-.183.233 0 .422.064.568.192.145.128.218.32.218.575a.826.826 0 0 1-.167.525c-.112.143-.271.211-.478.206l-.008-.003-.011-.369c.11 0 .196-.033.258-.099s.093-.152.093-.259c0-.123-.042-.216-.125-.28a.555.555 0 0 0-.344-.095.543.543 0 0 0-.34.099.333.333 0 0 0-.129.281c0 .108.017.188.052.24.035.053.085.09.152.114l-.028.336zm8.027 4.782v.7h.74v.29h-1.738v-1.112h.233v.823h.53v-.701h.234zm.173-1.633l.007-.003a.536.536 0 0 1 .424.171c.108.117.162.275.162.474a.637.637 0 0 1-.205.492.741.741 0 0 1-.523.19h-.33c-.212 0-.387-.063-.524-.187s-.206-.286-.206-.486c0-.204.052-.365.157-.483a.531.531 0 0 1 .429-.17l.007.001v.281c-.116 0-.205.031-.267.094-.062.063-.093.155-.093.277a.33.33 0 0 0 .14.28.585.585 0 0 0 .354.103h.333a.58.58 0 0 0 .357-.105.339.339 0 0 0 .14-.286c0-.119-.03-.21-.093-.27-.062-.063-.152-.093-.268-.093v-.28zm0-1.552l.007-.003a.536.536 0 0 1 .424.171c.108.117.162.275.162.474a.637.637 0 0 1-.205.492.745.745 0 0 1-.523.188h-.33a.748.748 0 0 1-.524-.187.625.625 0 0 1-.206-.486c0-.204.052-.365.157-.483a.53.53 0 0 1 .429-.17l.007.002v.28c-.116 0-.205.032-.267.095-.062.063-.093.155-.093.277a.33.33 0 0 0 .14.28.582.582 0 0 0 .354.103h.333a.58.58 0 0 0 .357-.105.338.338 0 0 0 .14-.287c0-.118-.03-.208-.093-.27-.062-.061-.152-.092-.268-.092v-.28zm.568-1.205v.29h-1.738v-.29h1.738zm0-.389h-1.738v-.574c0-.22.069-.4.206-.538a.718.718 0 0 1 .531-.207h.264c.217 0 .395.07.531.207a.73.73 0 0 1 .206.538v.574zm-1.505-.29h1.273v-.284c0-.14-.047-.25-.141-.332a.535.535 0 0 0-.364-.123h-.266a.532.532 0 0 0-.36.123.418.418 0 0 0-.142.332v.284zm.46-2.245v.289h-.279v-.29h.278zm1.045 0v.289h-.28v-.29h.279zm-1.096-1.569l-.643-.366v-.344l.862.535.876-.555v.348l-.653.378.653.377v.344l-.876-.547-.862.535v-.341l.642-.363zm.437-1.249h.659v.29h-1.74v-.666c0-.191.05-.342.15-.45a.504.504 0 0 1 .39-.163c.163 0 .294.054.392.163.099.108.148.259.148.45v.376zm-.233 0v-.376c0-.107-.03-.188-.086-.242a.307.307 0 0 0-.22-.08.311.311 0 0 0-.22.081c-.06.054-.089.135-.089.242v.376h.614zm-.001-1.857l-.846-.419v-.324l1.13.603h.608v.29h-.626l-1.112.593v-.323l.845-.42zm.446-1.858a.228.228 0 0 0-.178.077.706.706 0 0 0-.124.273c-.052.187-.12.331-.204.433a.408.408 0 0 1-.329.152.429.429 0 0 1-.346-.167.66.66 0 0 1-.136-.43c0-.188.05-.338.15-.451a.461.461 0 0 1 .374-.163l.007.002v.28a.278.278 0 0 0-.219.09.353.353 0 0 0-.08.244c0 .098.022.173.068.226.046.053.106.08.18.08a.198.198 0 0 0 .165-.088.943.943 0 0 0 .123-.289c.051-.182.12-.32.209-.417a.438.438 0 0 1 .337-.143c.144 0 .259.057.345.17a.715.715 0 0 1 .129.445c0 .176-.047.33-.141.462a.445.445 0 0 1-.397.19l-.007-.002v-.279c.104 0 .182-.036.235-.108a.432.432 0 0 0 .08-.263.385.385 0 0 0-.065-.24.21.21 0 0 0-.176-.085zm.04-1.492v.616l.406.134v.299l-1.738-.607v-.276l1.738-.599v.3l-.406.132zm-.242.536v-.457l-.685.223v.007l.685.227zm-.073-1.473h.721v.29h-1.738v-.598c0-.193.044-.343.131-.449a.46.46 0 0 1 .375-.159c.09 0 .168.024.232.07s.117.115.156.204a.366.366 0 0 1 .152-.212.48.48 0 0 1 .26-.065h.145a.586.586 0 0 0 .149-.02.214.214 0 0 0 .11-.064h.028v.299a.193.193 0 0 1-.123.061 1.079 1.079 0 0 1-.167.013H41.9c-.09 0-.16.026-.213.077a.279.279 0 0 0-.078.21v.342zm-.233 0v-.292c0-.117-.022-.201-.067-.255-.044-.053-.112-.08-.204-.08a.27.27 0 0 0-.206.08c-.05.052-.074.132-.074.24v.307h.551zm.548-2.17v.616l.406.134v.3l-1.738-.607v-.276l1.738-.6v.3l-.406.133zm-.242.536v-.457l-.685.223v.007l.685.227zm-1.09-2.49h1.145c.193 0 .344.063.454.19.11.127.164.291.164.492a.7.7 0 0 1-.164.482.573.573 0 0 1-.454.187H40.59v-.29h1.145c.123 0 .218-.035.286-.104a.378.378 0 0 0 .1-.275c0-.118-.033-.212-.1-.284s-.163-.107-.286-.107H40.59v-.29zm1.738-1.438v1.121h-.199l-.628-.543a1.442 1.442 0 0 0-.258-.184.433.433 0 0 0-.194-.051.262.262 0 0 0-.181.062c-.047.041-.07.1-.07.178 0 .09.03.159.087.206a.335.335 0 0 0 .22.072v.281l-.008.003a.495.495 0 0 1-.378-.147.557.557 0 0 1-.154-.414c0-.166.044-.296.133-.39a.462.462 0 0 1 .351-.14.523.523 0 0 1 .276.078c.086.052.201.138.345.257l.42.367.006-.003v-.752h.232zm-1.763-.889a.957.957 0 0 1 .02-.196.902.902 0 0 1 .051-.17l.225.057a1.008 1.008 0 0 0-.045.143.749.749 0 0 0-.016.165c0 .106.043.191.128.256a.543.543 0 0 0 .338.098h.09a.5.5 0 0 1-.11-.168.566.566 0 0 1-.039-.214c0-.149.052-.266.154-.351a.61.61 0 0 1 .404-.129c.176 0 .318.052.426.154a.536.536 0 0 1 .162.407.545.545 0 0 1-.185.424c-.123.11-.292.166-.506.166h-.379a.738.738 0 0 1-.519-.183.596.596 0 0 1-.199-.458zm.868.064c0 .07.012.128.037.176a.275.275 0 0 0 .104.112h.104a.552.552 0 0 0 .326-.085.257.257 0 0 0 .118-.216.233.233 0 0 0-.1-.2.426.426 0 0 0-.257-.072.363.363 0 0 0-.242.076.26.26 0 0 0-.09.21zm.273-1.937c.2 0 .358.052.474.155s.173.24.173.413a.531.531 0 0 1-.174.416c-.116.104-.274.156-.473.156h-.493c-.2 0-.358-.05-.474-.155a.526.526 0 0 1-.175-.414c0-.172.058-.31.174-.415s.274-.155.474-.155h.493zm-.538.29a.446.446 0 0 0-.272.074.243.243 0 0 0-.099.207c0 .089.033.158.099.206a.45.45 0 0 0 .272.073h.58a.45.45 0 0 0 .274-.074.246.246 0 0 0 .098-.208.24.24 0 0 0-.098-.206.457.457 0 0 0-.275-.072h-.58zm-6.567 27.957v.392h-2.353v-.392h2.353zm-.543-1.718v-.01l-1.81-.68v-.501H34.6v.392h-1.69l-.001.01 1.692.648v.27l-1.725.66.004.01h1.721v.393H32.25v-.516l1.81-.675zm-.516-3.002v.922h.745v-1.086h.313v1.478h-2.353v-1.467h.315v1.075h.664v-.922h.315zm1.059-.943v.392h-2.353v-.392h2.353zm-1.416-.918v.39h-.377v-.39h.377zm1.416 0v.39h-.377v-.39h.376zm-1.041-19.708l-1.313-.136V99.06h.34v.915l.6.07a.652.652 0 0 1-.085-.165.663.663 0 0 1-.036-.212c-.002-.218.067-.389.206-.51.139-.122.33-.183.577-.183.232 0 .421.064.567.193.145.128.218.32.218.575a.827.827 0 0 1-.167.524c-.112.143-.271.212-.478.206l-.008-.003-.012-.368c.11 0 .196-.033.258-.1a.364.364 0 0 0 .093-.26c0-.122-.041-.215-.124-.279a.555.555 0 0 0-.345-.095c-.14 0-.254.033-.34.099s-.129.16-.129.281c0 .108.017.188.052.24.035.052.085.09.152.114l-.027.336zm0 1.77l-1.313-.136v-1.241h.34v.915l.6.07a.652.652 0 0 1-.085-.165.663.663 0 0 1-.036-.212c-.002-.219.067-.389.206-.51.139-.122.33-.183.577-.183.232 0 .421.064.567.192.145.129.218.32.218.576a.827.827 0 0 1-.167.524c-.112.143-.271.212-.478.206l-.008-.003-.012-.368c.11 0 .196-.033.258-.1a.364.364 0 0 0 .093-.259c0-.123-.041-.216-.124-.28a.556.556 0 0 0-.345-.095.544.544 0 0 0-.34.098.333.333 0 0 0-.129.281c0 .108.017.188.052.24.035.053.085.09.152.114l-.027.337zm0 1.77l-1.313-.136V102.6h.34v.915l.6.07a.652.652 0 0 1-.085-.165.663.663 0 0 1-.036-.212c-.002-.219.067-.39.206-.511.139-.122.33-.183.577-.183.232 0 .421.064.567.193.145.128.218.32.218.575a.83.83 0 0 1-.167.525c-.112.143-.271.212-.478.206l-.008-.003-.012-.368c.11 0 .196-.033.258-.1a.364.364 0 0 0 .093-.259c0-.123-.041-.216-.124-.28a.555.555 0 0 0-.345-.095.546.546 0 0 0-.34.099.333.333 0 0 0-.129.28c0 .109.017.189.052.24.035.053.085.091.152.115l-.027.336zm0 1.77l-1.313-.136v-1.241h.34v.914l.6.071a.652.652 0 0 1-.085-.165.663.663 0 0 1-.036-.213c-.002-.22.067-.39.206-.511s.33-.183.577-.183c.232 0 .421.064.567.192.145.129.218.32.218.576a.827.827 0 0 1-.167.524c-.112.143-.271.212-.478.206l-.008-.003-.012-.368c.11 0 .196-.033.258-.1a.364.364 0 0 0 .093-.26c0-.122-.041-.215-.124-.279a.555.555 0 0 0-.345-.095.545.545 0 0 0-.34.098.333.333 0 0 0-.129.281c0 .108.017.188.052.24.035.053.085.09.152.114l-.027.337zm0 1.85l-1.313-.136v-1.24h.34v.914l.6.07a.652.652 0 0 1-.085-.165.663.663 0 0 1-.036-.213c-.002-.219.067-.39.206-.51.139-.123.33-.184.577-.184.232 0 .421.064.567.193.145.128.218.32.218.575a.828.828 0 0 1-.167.524c-.112.143-.271.212-.478.206l-.008-.003-.012-.368c.11 0 .196-.033.258-.1a.365.365 0 0 0 .093-.259c0-.122-.041-.216-.124-.28a.557.557 0 0 0-.345-.094.544.544 0 0 0-.34.098.333.333 0 0 0-.129.281c0 .108.017.188.052.24.035.053.085.09.152.114l-.027.337zm0 1.77l-1.313-.136v-1.241h.34v.915l.6.071a.652.652 0 0 1-.085-.166.663.663 0 0 1-.036-.212c-.002-.219.067-.39.206-.51.139-.122.33-.183.577-.183.232 0 .421.064.567.193.145.128.218.32.218.575a.828.828 0 0 1-.167.525c-.112.143-.271.211-.478.206l-.008-.003-.012-.369c.11 0 .196-.033.258-.1a.364.364 0 0 0 .093-.259c0-.123-.041-.216-.124-.28a.555.555 0 0 0-.345-.095c-.14 0-.254.034-.34.1s-.129.159-.129.28c0 .108.017.188.052.24.035.053.085.09.152.114l-.027.336zm0 1.77l-1.313-.136v-1.241h.34v.915l.6.07a.652.652 0 0 1-.085-.165.663.663 0 0 1-.036-.212c-.002-.219.067-.39.206-.511.139-.122.33-.183.577-.183.232 0 .421.064.567.193.145.128.218.32.218.575a.83.83 0 0 1-.167.525c-.112.143-.271.212-.478.206l-.008-.003-.012-.368c.11 0 .196-.033.258-.1a.365.365 0 0 0 .093-.259c0-.123-.041-.216-.124-.28a.556.556 0 0 0-.345-.095c-.14 0-.254.033-.34.1s-.129.158-.129.28c0 .108.017.188.052.24.035.052.085.09.152.114l-.027.336zm-4.615 14.593c.118 0 .223.032.314.095.091.064.161.15.211.26a.707.707 0 0 1 .224-.31.543.543 0 0 1 .343-.115c.22 0 .388.073.508.22.12.145.179.33.179.556 0 .24-.06.434-.179.586a.61.61 0 0 1-.508.227.533.533 0 0 1-.342-.119.73.73 0 0 1-.225-.322.641.641 0 0 1-.211.27.524.524 0 0 1-.314.098c-.208 0-.367-.068-.477-.204-.11-.135-.165-.313-.165-.533 0-.208.055-.378.165-.51s.27-.198.476-.198zm.014.393c-.1 0-.183.03-.246.089s-.095.134-.095.226c0 .104.03.187.092.25.06.063.144.095.25.095s.19-.032.256-.097a.337.337 0 0 0 .097-.25.289.289 0 0 0-.097-.224.37.37 0 0 0-.256-.088zm1.064-.073a.383.383 0 0 0-.395.388c0 .121.037.221.11.3a.37.37 0 0 0 .284.117.362.362 0 0 0 .282-.117.434.434 0 0 0 .106-.303.378.378 0 0 0-.106-.274.374.374 0 0 0-.282-.11zm-.175-2.245c.271 0 .485.07.641.21.157.14.235.326.235.56a.719.719 0 0 1-.235.562c-.157.142-.37.212-.641.212h-.667c-.27 0-.485-.07-.642-.21a.715.715 0 0 1-.236-.56c0-.235.079-.422.236-.562s.371-.21.642-.21h.667zm-.727.393a.602.602 0 0 0-.37.1.33.33 0 0 0-.133.28c0 .12.044.213.133.279a.612.612 0 0 0 .37.098h.783c.16 0 .284-.033.373-.1a.33.33 0 0 0 .133-.281.325.325 0 0 0-.133-.28c-.088-.065-.212-.097-.373-.097h-.784zm.205-1.5c0-.127-.032-.219-.096-.275a.39.39 0 0 0-.266-.084.35.35 0 0 0-.25.09c-.064.06-.096.148-.096.262 0 .105.032.193.095.263s.142.105.236.105v.377l-.01.003a.544.544 0 0 1-.453-.206.809.809 0 0 1-.183-.542c0-.23.057-.41.169-.544.113-.133.277-.2.492-.2a.531.531 0 0 1 .297.088c.09.06.16.14.21.245a.572.572 0 0 1 .215-.275.608.608 0 0 1 .345-.095c.216 0 .386.073.509.218a.842.842 0 0 1 .184.563.885.885 0 0 1-.175.544.547.547 0 0 1-.48.226l-.01-.003v-.378a.327.327 0 0 0 .25-.109.396.396 0 0 0 .101-.28c0-.119-.035-.213-.105-.283s-.162-.105-.273-.105c-.133 0-.233.032-.299.097-.066.066-.099.164-.099.297v.262h-.308v-.262zm.521-2.655c.272 0 .486.07.642.21.156.14.235.326.235.56a.72.72 0 0 1-.235.562c-.157.141-.37.212-.641.212h-.667c-.271 0-.485-.07-.642-.21a.715.715 0 0 1-.236-.56c0-.234.079-.422.236-.562.157-.14.371-.211.642-.211h.667zm-.727.393a.602.602 0 0 0-.369.1.33.33 0 0 0-.133.28c0 .12.044.213.133.279a.61.61 0 0 0 .37.098h.783a.61.61 0 0 0 .373-.1.332.332 0 0 0 .133-.28.325.325 0 0 0-.133-.279.62.62 0 0 0-.373-.098h-.784zm.727-2.274c.272 0 .486.07.642.209a.712.712 0 0 1 .234.56.72.72 0 0 1-.235.562c-.157.14-.37.21-.64.21h-.668c-.27 0-.484-.07-.642-.21a.715.715 0 0 1-.236-.56c0-.234.08-.421.236-.562.158-.14.372-.21.642-.21h.668zm-.727.392a.602.602 0 0 0-.37.1.33.33 0 0 0-.132.28c0 .12.044.214.133.28a.61.61 0 0 0 .37.098h.783c.16 0 .284-.033.373-.1a.33.33 0 0 0 .133-.28.325.325 0 0 0-.132-.279c-.089-.065-.213-.098-.374-.098h-.784zm.727-2.274c.272 0 .486.07.642.21.156.14.235.326.235.56a.72.72 0 0 1-.236.562c-.157.141-.37.212-.64.212h-.667c-.271 0-.485-.07-.642-.21a.715.715 0 0 1-.236-.561c0-.234.079-.421.236-.562.157-.14.371-.21.642-.21h.667zm-.727.393a.6.6 0 0 0-.369.101.33.33 0 0 0-.134.28c0 .12.045.214.134.28a.611.611 0 0 0 .37.098h.783c.16 0 .284-.033.373-.1.089-.067.133-.16.133-.281s-.044-.214-.132-.28a.62.62 0 0 0-.374-.097h-.784zm.727-2.274c.271 0 .485.07.642.21.156.14.234.327.234.56a.72.72 0 0 1-.235.563c-.157.14-.37.211-.641.211h-.667c-.27 0-.485-.07-.642-.21-.157-.14-.236-.327-.236-.56s.08-.422.236-.562.372-.211.642-.211h.668zm-.727.393a.608.608 0 0 0-.37.1.33.33 0 0 0-.133.28c0 .121.044.214.133.28a.609.609 0 0 0 .37.099h.783a.61.61 0 0 0 .373-.1.332.332 0 0 0 .133-.282.325.325 0 0 0-.132-.278c-.088-.066-.213-.098-.373-.098h-.784zm1.569-1.2v.39h-.377v-.39h.377zm-.842-1.998c.271 0 .485.07.641.21.157.14.235.326.235.56a.72.72 0 0 1-.235.562c-.157.141-.37.212-.641.212h-.667c-.27 0-.485-.07-.642-.21a.715.715 0 0 1-.236-.561c0-.234.08-.421.236-.562s.371-.21.642-.21h.667zm-.728.393a.602.602 0 0 0-.369.1.33.33 0 0 0-.133.28c0 .12.044.214.133.28a.61.61 0 0 0 .37.098h.783c.16 0 .284-.033.373-.1a.33.33 0 0 0 .133-.281.326.326 0 0 0-.133-.28.622.622 0 0 0-.373-.097h-.784zm.73-2.053v-.297h.318v.297h.522v.391h-.522v.984l-.24.01-1.591-.982v-.403h1.514zm0 1.002v-.61h-.96v.01l.09.037.871.564zm-.002-3.104c.271 0 .485.07.641.21.156.139.235.326.235.56a.72.72 0 0 1-.235.562c-.157.14-.37.211-.641.211h-.667c-.271 0-.485-.07-.642-.21a.715.715 0 0 1-.236-.56c0-.234.079-.422.236-.562.157-.14.371-.21.642-.21h.667zm-.728.393a.602.602 0 0 0-.369.1.33.33 0 0 0-.133.28c0 .12.044.214.133.28a.61.61 0 0 0 .37.098h.784a.61.61 0 0 0 .372-.1c.089-.067.133-.16.133-.281s-.044-.214-.133-.279c-.088-.065-.212-.098-.373-.098h-.784zm.731-2.053v-.297h.317v.297h.522v.391h-.522v.984l-.24.01-1.591-.983v-.402h1.514zm0 1.002v-.61h-.96l-.002.01.09.037.872.564zm.839-2.031v.39h-.377v-.39h.377zm-.842-1.998c.271 0 .485.07.641.21.156.14.235.326.235.56a.72.72 0 0 1-.235.562c-.157.141-.37.212-.641.212h-.668c-.27 0-.484-.07-.641-.21a.715.715 0 0 1-.236-.561c0-.234.079-.421.236-.562.157-.14.371-.21.642-.21h.667zm-.728.393a.603.603 0 0 0-.37.1.33.33 0 0 0-.133.28c0 .12.045.214.134.28a.61.61 0 0 0 .369.098h.784c.16 0 .284-.033.372-.1a.332.332 0 0 0 .134-.281.325.325 0 0 0-.133-.279c-.088-.065-.213-.098-.373-.098h-.784zm.727-2.274c.272 0 .486.07.642.21.156.14.234.326.234.56a.721.721 0 0 1-.235.562c-.157.141-.37.212-.64.212h-.668c-.27 0-.484-.07-.641-.21a.715.715 0 0 1-.237-.561c0-.234.08-.421.236-.562.158-.14.372-.21.642-.21h.668zm-.727.393a.601.601 0 0 0-.37.1.33.33 0 0 0-.133.28c0 .12.045.213.134.28a.61.61 0 0 0 .37.098h.783c.16 0 .284-.034.373-.1a.331.331 0 0 0 .133-.282.325.325 0 0 0-.132-.278c-.089-.066-.213-.098-.374-.098h-.784zm-3.059 23.965v-.012l-2.237-.841v-.62h2.908v.486h-2.087l-.002.012 2.09.801v.334l-2.13.814.004.012h2.126v.486h-2.905v-.637l2.236-.835zm-.43-1.945c-.321 0-.585-.089-.791-.265-.206-.176-.308-.417-.308-.724 0-.31.102-.553.308-.73s.47-.264.792-.264h.042c.325 0 .59.088.793.264.205.177.307.419.307.726 0 .31-.103.552-.308.728-.205.177-.469.265-.793.265h-.041zm.043-.486a.955.955 0 0 0 .515-.124c.132-.082.198-.21.198-.383a.421.421 0 0 0-.2-.38.942.942 0 0 0-.513-.128h-.042a.938.938 0 0 0-.51.127.424.424 0 0 0-.201.385c0 .169.067.295.2.379a.952.952 0 0 0 .51.124h.043zm.008-1.831c-.345 0-.623-.074-.834-.221s-.317-.356-.317-.623c0-.118.024-.222.071-.315a.712.712 0 0 1 .202-.241H23.62v-.485h3.115v.393l-.273.058c.102.069.18.153.234.251a.699.699 0 0 1 .08.342c0 .265-.096.47-.29.619s-.446.221-.76.221h-.042zm.042-.485c.2 0 .358-.038.477-.115.118-.076.178-.198.178-.364a.49.49 0 0 0-.066-.26.503.503 0 0 0-.188-.176h-.942a.475.475 0 0 0-.254.431c0 .166.07.288.209.366.139.079.32.118.544.118h.042zm1.05-2.838c0 .316-.1.562-.299.74-.199.178-.457.267-.774.267h-.08c-.316 0-.578-.09-.783-.267s-.308-.407-.307-.688c0-.29.09-.51.269-.659s.418-.224.718-.224h.262v1.336l.01.004a.707.707 0 0 0 .431-.14c.11-.088.166-.22.166-.397 0-.132-.016-.246-.048-.342a.976.976 0 0 0-.138-.269l.318-.157c.072.082.132.191.181.327.05.136.074.292.074.47zm-1.853.052c0 .126.045.228.137.303s.21.124.356.142l.01-.004v-.844h-.038a.545.545 0 0 0-.336.097c-.086.064-.13.166-.13.306zm1.811-1.793v.485H23.62v-.485h3.115zm-1.75-1.077v.483h-.464v-.483h.465zm1.75 0v.483h-.464v-.483h.466zm-.747-3.163a.382.382 0 0 0-.297.129c-.077.086-.146.238-.208.456-.086.313-.2.554-.34.724a.68.68 0 0 1-.55.255.715.715 0 0 1-.58-.28c-.151-.187-.227-.426-.227-.719 0-.314.084-.566.253-.754s.376-.279.624-.273l.012.004v.467a.465.465 0 0 0-.366.153.59.59 0 0 0-.136.407c0 .163.04.29.116.378s.177.132.3.132a.332.332 0 0 0 .276-.146c.073-.097.142-.258.207-.483.085-.305.202-.537.349-.697a.733.733 0 0 1 .564-.24c.24 0 .433.095.577.284.144.19.216.438.216.745 0 .296-.079.553-.236.773a.747.747 0 0 1-.665.32l-.012-.004v-.468c.174 0 .306-.06.394-.18a.724.724 0 0 0 .133-.44c0-.172-.036-.306-.11-.401a.351.351 0 0 0-.294-.143zm.068-2.496v1.03l.68.224v.501l-2.907-1.015v-.46l2.908-1.004v.502l-.68.221zm-.405.896v-.765l-1.146.374v.012l1.146.38zm-.122-2.464h1.206v.485h-2.906v-1c0-.323.074-.574.22-.75s.355-.266.627-.266c.15 0 .28.039.389.117a.8.8 0 0 1 .26.34.615.615 0 0 1 .254-.355.812.812 0 0 1 .435-.108h.242a.98.98 0 0 0 .25-.032.356.356 0 0 0 .184-.106h.046v.5a.32.32 0 0 1-.205.101 1.793 1.793 0 0 1-.28.022h-.234a.488.488 0 0 0-.355.129.469.469 0 0 0-.131.35v.573zm-.39 0v-.49c0-.194-.037-.335-.111-.424-.075-.09-.188-.134-.342-.134a.452.452 0 0 0-.344.131c-.083.088-.125.222-.125.402v.515h.923zm.917-3.63v1.03l.68.224v.501l-2.908-1.015v-.46l2.907-1.003v.501l-.679.222zm-.405.896v-.765l-1.146.373v.012l1.146.38zm.044-3.167v1.178H25.3v-1.179h.391zm-1.867-2.85h1.915c.323 0 .577.106.76.319.183.212.274.486.274.822 0 .33-.091.599-.274.807-.183.207-.437.311-.76.311h-1.915v-.485h1.915c.206 0 .365-.058.478-.174a.63.63 0 0 0 .168-.459.666.666 0 0 0-.168-.475c-.113-.12-.272-.18-.478-.18h-1.915v-.485zm2.907-2.404v1.875H26.4l-1.05-.909a2.412 2.412 0 0 0-.432-.307.725.725 0 0 0-.325-.086.438.438 0 0 0-.303.104c-.078.07-.117.168-.117.298 0 .15.049.265.146.345.097.08.22.12.368.12v.469l-.012.004a.83.83 0 0 1-.632-.247c-.172-.17-.259-.401-.259-.692 0-.278.075-.495.224-.652a.774.774 0 0 1 .587-.234c.163 0 .317.043.46.13.145.088.337.231.578.43l.703.614.01-.004v-1.258h.388zm-2.95-1.488a1.596 1.596 0 0 1 .12-.61l.376.093a1.669 1.669 0 0 0-.075.24c-.018.078-.027.17-.027.275 0 .177.071.32.214.429.142.108.33.162.565.162h.152a.834.834 0 0 1-.184-.28.945.945 0 0 1-.066-.36c0-.248.086-.444.258-.587.171-.143.396-.215.675-.215.294 0 .532.086.713.258.18.171.271.398.271.68a.91.91 0 0 1-.31.709c-.206.185-.488.278-.846.278h-.633c-.357 0-.647-.102-.869-.306a.997.997 0 0 1-.333-.766zm1.452.108c0 .116.021.214.063.295s.1.143.173.187h.173c.232 0 .414-.048.546-.142a.428.428 0 0 0 .198-.362.389.389 0 0 0-.168-.334.717.717 0 0 0-.43-.121.607.607 0 0 0-.404.127.434.434 0 0 0-.15.35zm.458-3.24c.335 0 .6.085.793.258.193.172.289.403.289.692 0 .289-.097.52-.29.695-.195.174-.459.261-.793.261h-.825c-.334 0-.598-.086-.792-.26s-.292-.403-.292-.692c0-.29.097-.52.292-.694.194-.174.459-.26.793-.26h.824zm-.899.484c-.194 0-.347.042-.456.124a.409.409 0 0 0-.165.346c0 .149.055.264.165.345.11.082.262.122.456.122h.968c.197 0 .35-.041.46-.124a.408.408 0 0 0 .165-.347.402.402 0 0 0-.164-.345c-.109-.08-.263-.12-.461-.12h-.969zm-6.383-1.418c.272 0 .485.07.642.21.156.14.234.326.234.56a.719.719 0 0 1-.235.562c-.157.141-.37.212-.64.212h-.668c-.27 0-.484-.07-.642-.21a.715.715 0 0 1-.236-.561c0-.234.08-.421.236-.562.158-.14.371-.21.642-.21h.667zm-.727.393a.603.603 0 0 0-.37.1.33.33 0 0 0-.133.28c0 .12.045.214.134.28a.612.612 0 0 0 .37.098h.783a.61.61 0 0 0 .372-.1.332.332 0 0 0 .134-.282.326.326 0 0 0-.133-.279c-.088-.065-.213-.097-.373-.097h-.784zm.727-2.274c.272 0 .485.07.642.21.156.14.234.326.234.56a.72.72 0 0 1-.235.562c-.157.141-.37.212-.64.212h-.668c-.27 0-.484-.07-.642-.21a.715.715 0 0 1-.236-.56c0-.235.08-.422.236-.562.158-.141.371-.211.642-.211h.667zm-.727.393a.604.604 0 0 0-.37.1.33.33 0 0 0-.133.28c0 .121.045.214.134.28a.608.608 0 0 0 .37.099h.783a.608.608 0 0 0 .372-.1.33.33 0 0 0 .134-.282.325.325 0 0 0-.133-.278c-.088-.065-.213-.098-.373-.098h-.784zm.965-2.049a.31.31 0 0 0-.241.104c-.063.07-.119.193-.168.37-.07.253-.162.448-.276.585a.55.55 0 0 1-.445.206.578.578 0 0 1-.469-.226c-.122-.15-.184-.345-.184-.582 0-.254.068-.457.205-.61a.627.627 0 0 1 .505-.22l.01.003v.378a.374.374 0 0 0-.296.124.476.476 0 0 0-.11.329c0 .132.03.234.093.306s.144.107.243.107c.09 0 .165-.039.224-.118a1.28 1.28 0 0 0 .167-.39c.07-.248.163-.435.282-.565a.594.594 0 0 1 .457-.194c.195 0 .35.077.467.23s.174.354.174.603c0 .239-.063.448-.19.625a.603.603 0 0 1-.539.259l-.01-.003v-.378c.142 0 .248-.049.32-.147a.584.584 0 0 0 .108-.356.522.522 0 0 0-.088-.324.283.283 0 0 0-.238-.116zm-.238-1.757v.954h-.317v-.954h.317zm0-1.973c.272 0 .485.07.642.209.156.14.234.326.234.56a.72.72 0 0 1-.235.562c-.157.141-.37.212-.64.212h-.668c-.27 0-.484-.07-.642-.21a.715.715 0 0 1-.236-.56c0-.235.08-.422.236-.562.158-.141.371-.211.642-.211h.667zm-.727.392a.604.604 0 0 0-.37.1.33.33 0 0 0-.133.28c0 .12.045.214.134.28a.61.61 0 0 0 .37.098h.783a.61.61 0 0 0 .372-.1.332.332 0 0 0 .134-.281.325.325 0 0 0-.133-.28c-.088-.064-.213-.097-.373-.097h-.784zm.727-2.274c.272 0 .485.07.642.21.156.139.234.326.234.56a.719.719 0 0 1-.235.562c-.157.14-.37.211-.64.211h-.668c-.27 0-.484-.07-.642-.21a.715.715 0 0 1-.236-.56c0-.234.08-.422.236-.562.158-.14.371-.21.642-.21h.667zm-.727.393a.602.602 0 0 0-.37.1.33.33 0 0 0-.133.28c0 .12.045.214.134.28a.608.608 0 0 0 .37.098h.783a.61.61 0 0 0 .372-.1.332.332 0 0 0 .134-.281.325.325 0 0 0-.133-.28c-.088-.064-.213-.097-.373-.097h-.784zm-2.12 10.345v1.121h-.199l-.628-.543a1.46 1.46 0 0 0-.258-.184.434.434 0 0 0-.194-.051.263.263 0 0 0-.181.062c-.047.041-.07.1-.07.178 0 .09.029.158.087.206a.336.336 0 0 0 .22.072v.28l-.007.002a.493.493 0 0 1-.377-.148.557.557 0 0 1-.155-.413c0-.167.045-.297.134-.39a.462.462 0 0 1 .35-.14.523.523 0 0 1 .276.077c.086.053.201.138.346.258l.42.366.006-.002v-.752h.231zm-.621-1.373c.2 0 .358.052.474.155a.527.527 0 0 1 .173.414.532.532 0 0 1-.174.416c-.116.104-.274.156-.473.156h-.493c-.2 0-.358-.051-.474-.155-.117-.103-.175-.241-.175-.414s.058-.31.175-.415c.116-.104.274-.156.474-.156h.493zm-.538.29a.446.446 0 0 0-.272.074.244.244 0 0 0-.099.207c0 .089.033.158.099.206a.45.45 0 0 0 .273.073h.579a.45.45 0 0 0 .275-.074.244.244 0 0 0 .098-.207.239.239 0 0 0-.098-.205.456.456 0 0 0-.276-.073h-.579zm-1.817 11.424v-.528c0-.18.015-.256.039-.322.066-.176.24-.291.467-.291.22 0 .406.122.467.31h.005s.022-.02.078-.051l.67-.367v.274l-.687.364v.37h.687v.241h-1.725zm.829-.59c0-.188-.12-.305-.313-.305-.127 0-.218.049-.267.137-.024.046-.039.103-.039.237v.279h.619v-.347zm2.148-14.986v.29h-1.471v.37h-.23l-.063-.66h1.763zm-.77-.681l-.968-.1v-.918h.25v.676l.443.053a.49.49 0 0 1-.088-.28.468.468 0 0 1 .152-.377c.102-.09.244-.135.425-.135a.61.61 0 0 1 .42.142c.107.095.16.237.16.425 0 .153-.04.282-.123.388s-.2.156-.353.152l-.006-.003-.008-.272a.248.248 0 0 0 .19-.074.27.27 0 0 0 .07-.192c0-.09-.031-.16-.093-.206a.408.408 0 0 0-.254-.07.4.4 0 0 0-.251.072.243.243 0 0 0-.095.208c0 .08.012.138.038.177a.214.214 0 0 0 .112.084l-.02.248zm.919-1.47v.266l-1.887-.684v-.266l1.887.684zm-.15-1.63v.29h-1.47v.37h-.23l-.063-.66h1.763zm-1.007-1.185c0-.094-.023-.162-.07-.203a.29.29 0 0 0-.197-.062.26.26 0 0 0-.185.067c-.048.044-.071.109-.071.193 0 .078.023.143.07.195a.226.226 0 0 0 .175.077v.278l-.007.002a.402.402 0 0 1-.335-.152.596.596 0 0 1-.136-.4c0-.17.042-.304.125-.402s.204-.148.363-.148a.393.393 0 0 1 .22.065.441.441 0 0 1 .155.181.424.424 0 0 1 .158-.203.45.45 0 0 1 .255-.07c.16 0 .285.054.376.16.09.108.136.247.136.416a.654.654 0 0 1-.13.403.404.404 0 0 1-.353.167l-.007-.003v-.28a.241.241 0 0 0 .184-.08.292.292 0 0 0 .074-.207.282.282 0 0 0-.078-.21.274.274 0 0 0-.2-.077c-.1 0-.173.024-.222.073-.048.048-.073.12-.073.219v.193h-.228v-.193zm2.972-11.89c0 .228-.072.405-.215.533a.807.807 0 0 1-.558.192h-.057a.833.833 0 0 1-.565-.192.62.62 0 0 1-.221-.495c0-.21.065-.368.194-.475.129-.108.3-.161.517-.161h.188v.962l.007.002a.51.51 0 0 0 .31-.1c.08-.064.12-.16.12-.287a.792.792 0 0 0-.035-.247.704.704 0 0 0-.099-.193l.23-.114c.05.06.094.138.13.236.035.098.053.21.053.338zm-1.335.038c0 .09.032.164.098.218a.486.486 0 0 0 .257.103l.007-.003v-.609h-.028c-.1 0-.18.023-.242.07-.062.047-.093.12-.093.221zm.558-2.062v-.265h.282v.265h.465v.348h-.465v.876l-.215.009-1.416-.875v-.358h1.348zm0 .892v-.544h-.855l-.002.009.08.033.777.502zm1.409 45.042c.578 0 1.04.13 1.387.387.346.258.519.63.519 1.118 0 .227-.048.425-.144.593a1.123 1.123 0 0 1-.157.213.165.165 0 0 0 .089.277.165.165 0 0 1 .136.163v.582a.165.165 0 0 1-.165.165H14.94a.165.165 0 0 1-.152-.102l-.294-.713a.165.165 0 0 1 .153-.227h1.477a.165.165 0 0 0 .13-.266 1.118 1.118 0 0 1-.087-.137 1.129 1.129 0 0 1-.125-.54c0-.492.186-.867.558-1.125s.867-.387 1.486-.387h.075zm-.076 1.043c-.378 0-.677.055-.898.167-.22.112-.332.3-.332.568 0 .163.034.3.102.413.062.1.146.182.254.244a.164.164 0 0 0 .082.02h1.552a.161.161 0 0 0 .086-.023.66.66 0 0 0 .23-.243.86.86 0 0 0 .092-.418c0-.27-.095-.458-.285-.566-.19-.108-.46-.161-.808-.161h-.075zm1.906-2.623v.716a.165.165 0 0 1-.165.165H14.94a.165.165 0 0 1-.152-.102l-.294-.717a.165.165 0 0 1 .152-.227h5.18c.091 0 .165.074.165.165zm-1.974-.864c-.578 0-1.052-.161-1.421-.484-.37-.322-.554-.77-.554-1.34 0-.574.184-1.023.552-1.348.368-.325.842-.488 1.423-.488h.075c.583 0 1.058.162 1.424.486.367.324.55.77.55 1.342 0 .573-.183 1.022-.55 1.345-.366.324-.84.486-1.424.486h-.075zm.075-1.043c.353 0 .637-.062.851-.186.214-.124.32-.325.32-.602 0-.27-.107-.468-.322-.593-.215-.125-.498-.188-.85-.188h-.074c-.344 0-.625.064-.842.19-.218.127-.326.326-.326.599 0 .27.109.467.327.593.219.125.499.188.84.188h.076zm-.746-4.645v-.02l-1.139-.55a.165.165 0 0 1-.093-.15v-.785c0-.129.14-.208.25-.14l1.58.962a.165.165 0 0 0 .173 0l1.623-1a.165.165 0 0 1 .251.14v.782a.165.165 0 0 1-.092.147l-.895.442a.165.165 0 0 0 0 .295l.895.441a.165.165 0 0 1 .092.148v.785a.165.165 0 0 1-.251.14l-1.623-1a.165.165 0 0 0-.172 0l-1.58.966a.165.165 0 0 1-.251-.14v-.777a.165.165 0 0 1 .094-.15l1.138-.535z"/><path d="M18.965 121.736a.051.051 0 0 0-.03.067c.097.25.104.26.22.45.124.203.185.438.185.705 0 .45-.152.8-.456 1.053-.304.253-.776.38-1.417.38H15l.002-1.145H17.2c.372 0 .627-.05.765-.151.138-.101.207-.258.207-.47 0-.184-.03-.341-.09-.473l-.001-.004a.542.542 0 0 0-.494-.318H15l-.002-1.15h2.49a4.516 4.516 0 0 0-1.534-.267 4.525 4.525 0 1 0 3.147 1.275l-.138.05zm-3.966 4.141a.82.82 0 1 1-1.639 0 .82.82 0 0 1 1.64 0z" fill="#c02432"/><path d="M45.29 123.756v.29h-1.738v-.29h1.738zm-.568-1.66l.007-.002a.533.533 0 0 1 .424.17c.108.117.162.275.162.474 0 .202-.068.366-.205.492s-.31.188-.523.188h-.33a.75.75 0 0 1-.524-.186.625.625 0 0 1-.206-.486c0-.205.052-.365.157-.483a.53.53 0 0 1 .429-.171l.007.002v.28c-.116 0-.205.032-.267.095-.062.063-.092.155-.092.277a.33.33 0 0 0 .14.28.58.58 0 0 0 .354.103h.333a.577.577 0 0 0 .356-.105.339.339 0 0 0 .14-.286c0-.119-.03-.209-.093-.27-.062-.063-.152-.094-.269-.094v-.279zm-.478-.57v.289h-.278v-.29h.278zm1.046 0v.289h-.28v-.29h.279zM44 119.5c.088 0 .165.024.232.07.067.048.12.111.156.192a.526.526 0 0 1 .166-.23.4.4 0 0 1 .253-.085c.161 0 .286.054.375.162a.628.628 0 0 1 .132.41.679.679 0 0 1-.132.434.45.45 0 0 1-.375.168.394.394 0 0 1-.253-.088.542.542 0 0 1-.166-.238.471.471 0 0 1-.156.199.387.387 0 0 1-.232.073c-.154 0-.271-.05-.352-.15s-.122-.232-.122-.395c0-.153.04-.279.122-.376.081-.098.199-.146.351-.146zm.01.29a.255.255 0 0 0-.181.066.217.217 0 0 0-.07.167c0 .076.022.138.067.184.045.046.106.07.184.07a.256.256 0 0 0 .19-.072.25.25 0 0 0 .072-.185.213.213 0 0 0-.073-.166.271.271 0 0 0-.189-.065zm.786-.053a.283.283 0 0 0-.291.286c0 .089.027.162.081.22a.275.275 0 0 0 .21.087.268.268 0 0 0 .209-.087.322.322 0 0 0 .078-.224.282.282 0 0 0-.078-.203.276.276 0 0 0-.209-.08zm-.276-.583l-.969-.1v-.917h.25v.675l.444.053a.484.484 0 0 1-.062-.122.488.488 0 0 1-.026-.157.468.468 0 0 1 .151-.377c.103-.09.245-.135.426-.135a.61.61 0 0 1 .42.142c.107.094.16.236.16.425a.61.61 0 0 1-.123.387.408.408 0 0 1-.353.152l-.006-.003-.009-.272a.249.249 0 0 0 .19-.074.27.27 0 0 0 .07-.191c0-.091-.031-.16-.093-.207a.408.408 0 0 0-.254-.07.402.402 0 0 0-.25.072.246.246 0 0 0-.096.208c0 .08.013.139.038.177a.216.216 0 0 0 .112.084l-.02.249zm.563-1.816c0-.1-.036-.181-.106-.244s-.17-.094-.3-.094h-.125a.374.374 0 0 1 .121.14.399.399 0 0 1 .04.179.494.494 0 0 1-.156.388c-.104.093-.247.14-.43.14a.61.61 0 0 1-.432-.157.515.515 0 0 1-.17-.395c0-.174.058-.315.172-.423.114-.108.273-.162.477-.162h.493c.202 0 .36.059.475.176a.619.619 0 0 1 .172.452.964.964 0 0 1-.019.188.853.853 0 0 1-.056.18l-.22-.047a.72.72 0 0 0 .049-.152.861.861 0 0 0 .015-.17zm-.595-.046a.344.344 0 0 0-.043-.178.302.302 0 0 0-.114-.114h-.207a.42.42 0 0 0-.27.077.259.259 0 0 0-.095.213.23.23 0 0 0 .104.192c.07.05.157.076.263.076a.456.456 0 0 0 .263-.069.226.226 0 0 0 .099-.197zm.032-.917l-.969-.1v-.917h.25v.675l.444.053a.484.484 0 0 1-.062-.122.488.488 0 0 1-.026-.157.469.469 0 0 1 .152-.378c.102-.09.244-.135.426-.135a.61.61 0 0 1 .419.143c.107.094.16.236.16.425a.61.61 0 0 1-.123.387.408.408 0 0 1-.353.152l-.006-.003-.008-.272a.249.249 0 0 0 .19-.074.27.27 0 0 0 .07-.191c0-.091-.031-.16-.093-.207a.408.408 0 0 0-.254-.07.403.403 0 0 0-.251.073.246.246 0 0 0-.095.207c0 .08.013.14.038.178a.217.217 0 0 0 .112.084l-.02.248zm.363-2.289v.616l.406.134v.3l-1.738-.606v-.276l1.738-.599v.3l-.406.132zm-.242.536v-.457l-.685.224v.007l.685.227zm.026-1.893v.704h-.234v-.704h.234zm.176-1.292a.23.23 0 0 0-.178.077.718.718 0 0 0-.124.273c-.052.187-.12.332-.203.433a.407.407 0 0 1-.33.152.428.428 0 0 1-.346-.167.659.659 0 0 1-.136-.43c0-.187.05-.338.151-.45a.463.463 0 0 1 .373-.163l.007.002v.28a.278.278 0 0 0-.218.092.353.353 0 0 0-.081.243c0 .098.023.173.069.226.046.053.106.08.179.08a.198.198 0 0 0 .165-.088.945.945 0 0 0 .123-.289c.051-.182.12-.32.209-.416a.437.437 0 0 1 .337-.144c.144 0 .259.057.345.17a.716.716 0 0 1 .129.445c0 .177-.047.33-.141.462a.446.446 0 0 1-.398.191l-.007-.002v-.28c.104 0 .183-.036.236-.108a.432.432 0 0 0 .079-.263.387.387 0 0 0-.065-.24.21.21 0 0 0-.176-.085zm.04-1.492v.616l.407.134v.3l-1.739-.607v-.276l1.738-.599v.3l-.405.132zm-.242.536v-.457l-.685.224v.007l.686.227zm-.072-1.473h.72v.29h-1.737v-.598c0-.193.043-.343.13-.449a.46.46 0 0 1 .376-.158c.09 0 .167.023.232.07s.117.114.156.203a.367.367 0 0 1 .151-.212.487.487 0 0 1 .26-.065h.145a.586.586 0 0 0 .15-.019.215.215 0 0 0 .11-.063h.028v.298a.188.188 0 0 1-.123.061 1.079 1.079 0 0 1-.167.013h-.14c-.089 0-.16.026-.213.077s-.078.122-.078.21v.343zm-.233 0v-.292c0-.116-.022-.201-.067-.255-.044-.053-.112-.08-.204-.08a.271.271 0 0 0-.206.08c-.05.052-.074.132-.074.24v.307h.551zm.548-2.17v.616l.406.134v.3l-1.738-.607v-.276l1.738-.6v.3l-.406.132zm-.243.536v-.457l-.685.223v.007l.686.227zm-1.09-2.49h1.145c.194 0 .345.063.455.19.109.127.164.29.164.491a.703.703 0 0 1-.164.483.575.575 0 0 1-.455.186h-1.144v-.291h1.144c.124 0 .22-.035.287-.104a.376.376 0 0 0 .1-.275c0-.117-.033-.212-.1-.284s-.163-.107-.286-.107h-1.145v-.29zm1.739-1.437v1.12h-.2l-.628-.543a1.449 1.449 0 0 0-.258-.184.433.433 0 0 0-.194-.05.26.26 0 0 0-.181.062c-.047.042-.07.1-.07.178 0 .09.029.159.087.207a.338.338 0 0 0 .22.071v.28l-.007.003a.495.495 0 0 1-.378-.147.557.557 0 0 1-.154-.414c0-.166.044-.296.134-.39a.462.462 0 0 1 .35-.14.523.523 0 0 1 .276.078c.086.052.201.138.345.258l.42.366.006-.003v-.752h.232zm-1.763-.89a.957.957 0 0 1 .02-.196.902.902 0 0 1 .051-.17l.225.057a1.007 1.007 0 0 0-.045.143.749.749 0 0 0-.016.165c0 .106.042.191.127.256a.543.543 0 0 0 .338.098h.091a.5.5 0 0 1-.11-.167.567.567 0 0 1-.04-.215c0-.149.052-.266.155-.351a.61.61 0 0 1 .403-.129c.176 0 .318.052.426.154a.535.535 0 0 1 .163.407.545.545 0 0 1-.185.424c-.124.11-.292.166-.507.166h-.378a.737.737 0 0 1-.519-.183.597.597 0 0 1-.199-.458zm.867.065c0 .069.013.128.038.176a.275.275 0 0 0 .103.111h.104a.551.551 0 0 0 .326-.084.256.256 0 0 0 .118-.216c0-.086-.033-.152-.1-.2s-.153-.073-.257-.073a.363.363 0 0 0-.242.076.26.26 0 0 0-.09.21zm.274-1.938c.2 0 .358.052.474.155a.528.528 0 0 1 .173.413.532.532 0 0 1-.174.416c-.116.104-.273.156-.473.156h-.493c-.2 0-.358-.05-.474-.155a.525.525 0 0 1-.174-.414c0-.172.058-.31.174-.415s.274-.156.474-.156h.493zm-.538.29a.446.446 0 0 0-.272.074.243.243 0 0 0-.099.207c0 .089.033.158.099.206a.45.45 0 0 0 .272.073h.58a.45.45 0 0 0 .274-.074.245.245 0 0 0 .099-.208.24.24 0 0 0-.098-.206.457.457 0 0 0-.276-.072h-.579zm.759-15.127v-.008l-1.337-.502v-.37h1.738v.29h-1.25v.007l1.25.479v.2l-1.274.487.003.007h1.27v.29h-1.737v-.38l1.337-.5zm.4-1.995a1.059 1.059 0 0 1-.095.025.667.667 0 0 1-.093.014.498.498 0 0 1 .152.157.403.403 0 0 1 .062.219c0 .134-.035.238-.104.31s-.165.108-.286.108a.337.337 0 0 1-.292-.148c-.07-.099-.104-.238-.104-.417v-.225h-.114c-.068 0-.12.02-.159.059s-.057.096-.057.171c0 .066.016.118.048.157a.15.15 0 0 0 .122.059l.001.279h-.007c-.102.007-.192-.04-.27-.135a.58.58 0 0 1-.12-.378c0-.15.039-.272.115-.364.077-.093.187-.139.33-.139h.574a1.055 1.055 0 0 0 .153-.01.818.818 0 0 0 .144-.035v.294zm-.207.354a.363.363 0 0 0-.055-.196.274.274 0 0 0-.125-.117h-.191v.23c0 .084.02.15.062.198a.19.19 0 0 0 .148.072.15.15 0 0 0 .118-.049c.029-.032.043-.078.043-.139zm-.42-.852c-.206 0-.373-.044-.499-.133a.429.429 0 0 1-.189-.372c0-.07.014-.133.042-.188a.426.426 0 0 1 .122-.144h-.711v-.29h1.863v.235l-.164.035a.428.428 0 0 1 .14.15.419.419 0 0 1 .049.204.44.44 0 0 1-.173.37.73.73 0 0 1-.455.132h-.025zm.025-.29a.52.52 0 0 0 .285-.069c.07-.046.106-.118.106-.218a.29.29 0 0 0-.04-.155.3.3 0 0 0-.111-.105h-.564a.305.305 0 0 0-.111.105.286.286 0 0 0-.04.153c0 .099.042.171.125.218.083.047.191.07.325.07h.025zm.628-1.696c0 .188-.06.335-.179.442s-.273.16-.463.16h-.048a.69.69 0 0 1-.468-.16.514.514 0 0 1-.183-.412c0-.173.053-.304.16-.393a.65.65 0 0 1 .43-.134h.155v.798l.006.002a.422.422 0 0 0 .258-.084c.067-.052.1-.131.1-.237a.653.653 0 0 0-.03-.205.586.586 0 0 0-.082-.16l.19-.095a.606.606 0 0 1 .109.196c.03.081.044.175.044.28zm-1.108.03c0 .076.027.137.082.182a.404.404 0 0 0 .213.085l.006-.003v-.505h-.023c-.083 0-.15.02-.201.058-.052.039-.077.1-.077.183zm1.083-1.715v.29h-1.738v-.29h1.738zm-1.292-.622l.186-.016a.463.463 0 0 1-.155-.16.426.426 0 0 1-.056-.216c0-.135.042-.24.124-.315.083-.075.213-.113.389-.113h.803v.29h-.801c-.1 0-.172.02-.214.059s-.063.098-.063.176c0 .062.012.116.035.161a.282.282 0 0 0 .097.11h.946v.29h-1.291v-.266zm.886-2.665v.616l.406.133v.3l-1.739-.607v-.276l1.738-.6v.3l-.406.133zm-.243.536v-.458l-.685.224v.007l.685.227zm.457-1.946c.07.04.123.09.16.153a.417.417 0 0 1 .056.217.405.405 0 0 1-.136.325c-.091.078-.233.117-.425.117h-.756v-.289h.758c.124 0 .208-.018.254-.053.046-.036.069-.092.069-.167 0-.07-.013-.129-.038-.176s-.061-.085-.109-.112h-.934v-.29h1.292v.25l-.19.026zm-.162-1.305a.134.134 0 0 0-.11.057.595.595 0 0 0-.079.214.865.865 0 0 1-.137.348.29.29 0 0 1-.244.12.351.351 0 0 1-.277-.137.544.544 0 0 1-.115-.362c0-.154.039-.278.118-.373a.345.345 0 0 1 .286-.135l.007.002v.278a.182.182 0 0 0-.136.062.236.236 0 0 0-.058.166c0 .07.016.124.048.16a.15.15 0 0 0 .117.055.126.126 0 0 0 .105-.051.554.554 0 0 0 .07-.211.872.872 0 0 1 .14-.358.297.297 0 0 1 .248-.121c.116 0 .211.048.285.144.074.096.11.222.11.379 0 .168-.043.3-.129.398a.364.364 0 0 1-.296.138l-.007-.002v-.27c.075-.003.13-.03.164-.081a.328.328 0 0 0 .051-.186.291.291 0 0 0-.044-.173.137.137 0 0 0-.117-.061zm-1.252-.917h.314v-.231h.215v.231h.713c.054 0 .092-.011.114-.034a.124.124 0 0 0 .034-.092.26.26 0 0 0-.004-.047.286.286 0 0 0-.01-.043l.212-.03a.336.336 0 0 1 .031.087.484.484 0 0 1 .012.106c0 .107-.031.19-.094.251-.062.061-.16.092-.294.092h-.714v.197h-.215v-.197h-.314v-.289zm.575-1.109l-.005.124c0 .057.012.104.036.142a.236.236 0 0 0 .101.088h.898v.29h-1.292v-.265l.188-.02a.413.413 0 0 1-.156-.125.293.293 0 0 1-.056-.178.274.274 0 0 1 .004-.049.38.38 0 0 1 .01-.042l.271.035zm-.578-.524v.29h-.254v-.29h.254zm1.608 0v.29H44v-.29h1.291zm0-1.103a1.058 1.058 0 0 1-.095.026.678.678 0 0 1-.093.014.498.498 0 0 1 .152.156.403.403 0 0 1 .061.218c0 .134-.035.238-.104.31a.377.377 0 0 1-.285.108.339.339 0 0 1-.292-.148c-.07-.1-.104-.238-.104-.417v-.226h-.114a.21.21 0 0 0-.158.059c-.038.04-.057.096-.057.171 0 .066.016.119.047.158a.15.15 0 0 0 .122.058l.002.28h-.007c-.102.006-.193-.04-.271-.136a.578.578 0 0 1-.119-.378c0-.15.038-.272.115-.364a.404.404 0 0 1 .33-.138h.574a1.061 1.061 0 0 0 .153-.011.814.814 0 0 0 .144-.035v.294zm-.208.355a.363.363 0 0 0-.055-.197.277.277 0 0 0-.125-.116h-.19v.23c0 .085.02.15.062.198a.19.19 0 0 0 .147.072c.05 0 .09-.016.118-.048.03-.032.044-.078.044-.139zM22.15 69.109h.719v.72h-.719zm0 1.438h.719v.719h-.719zm0 1.438h.719v.719h-.719zm0 1.438h.719v.719h-.719zm0 1.438h.719v.719h-.719zm5.753 0h.72v.719h-.72zm-5.753 1.437h.719v.72h-.72zm5.034 0h.72v.72h-.72zm-1.438.72h.72v.718h-.72zm-3.596.718h.719v.72h-.72zm0 1.438h.719v.72h-.72zM32.935 68.38h.719v.719h-.719z"/><path d="M32.936 71.266h.719v-.719h.757v4.314h-.72v.719h.72v.718h-.72v2.157h-.757v.72h1.476v1.436h-.014v.014H22.149v.705h12.967V68.379h-.705v1.449h-2.195v.719h.719zm-1.438-2.887h.719v.719h-.72z"/><path d="M31.498 69.11h.719v.718h-.72zm-1.438-.731h.719v.719h-.719zm-1.438 0h.72v.719h-.72zm2.157 2.168v-.719h-.719v-.719h-.719v1.438h-.719v.719h-.7v.719h.7v.719h-.701v.719h.7v.719h1.438v-1.438h-.719v.719h-.7v-.72h.7v-1.437h1.438v1.438h.72v-1.438h.718v-.719zm-3.595-2.168h.72v.719h-.72zm5.033 11.514h-.72v.719h1.439v-.719zm.719-6.47h.719v-.72h-.72v-1.437h-.718v2.876h.719zm-4.314 4.313h.72v.72h-.72zm-5.751-9.357h.719v.719h-.72zm4.313 5.763v.719h.72v-1.438h-1.439v.719zm-4.304 0h.719v.719h-.72zm0 3.594v1.438h.719v-.718h.719v-1.438h.7v.72h.72V75.58h-1.42v-.719h-.72v2.876zm5.023 1.438h.72v.72h-.72zm-.719 0h.72v-.719h-1.439v1.438h.72z"/><path d="M25.037 79.893h.71v.719h.718v-.719h-.71v-.719h-.718v-.719h-.72v1.438zm2.147 0h.72v.719h-.72zm3.595-.719h.719v-.719h1.438v-.719h.719V75.58h-.72v.719h-.718v.718h-.72V76.3h.72v-.72h-.72v-.718h.72v-.72h-.72v-.718h-.718v2.157h-.719v-.72h-.719V76.3h.719v1.437h.719v.72h-1.438v1.437h1.438z"/><path d="M28.622 79.893h.72v.719h-.72zm-5.742 0h.719v.719h-.72zm1.429-10.784h-.72v.72h-.71v.718h.71v.719h-.71v.719h.72v.719h.71v.719h-.71v.719h2.138v-.72h-.71v-.718h.71v-.72h-1.42v-.718h2.148v1.438h1.438v-1.438h-.719v-.719h.72v-.719h-.72v-.73h-.719v-.719h-.719v.719h-.718v-.719h-.72v.73zm1.428.72v.718h-.719v-.719h.72zm13.694 20.04c1.218 0 2.21-.99 2.21-2.209h-.687c0 .84-.683 1.523-1.523 1.523-.84 0-1.523-.683-1.523-1.523h-.686c0 1.218.991 2.21 2.21 2.21zm-1.523-6.212h-.686c0 1.218.991 2.21 2.21 2.21 1.217 0 2.208-.992 2.208-2.21h-.686c0 .722-.505 1.326-1.18 1.483v-1.483h-.686v1.483a1.525 1.525 0 0 1-1.18-1.483z"/><circle cx="44.847" cy="128.37" r="1.094"/><ellipse cx="16.57" cy="69.958" rx="2.016" ry="2.989" fill="none" stroke="#000" stroke-width=".241" stroke-miterlimit="10"/><path d="M16.856 77.282h.633v.279h-1.67v-.64c0-.185.048-.329.143-.433a.484.484 0 0 1 .376-.157c.156 0 .282.053.376.157.095.105.142.25.142.433v.362zm-.224 0v-.361c0-.104-.027-.181-.082-.233a.293.293 0 0 0-.21-.078.304.304 0 0 0-.213.078c-.057.052-.085.129-.085.232v.361h.59zm.278-2.278c.181 0 .327.042.438.127.11.084.166.203.166.357a.408.408 0 0 1-.049.203.396.396 0 0 1-.14.143l.164.034v.226H15.7v-.28h.69a.402.402 0 0 1-.122-.137.396.396 0 0 1-.043-.187c0-.155.06-.275.181-.36.121-.085.281-.127.48-.127h.024zm-.024.279a.64.64 0 0 0-.313.066.224.224 0 0 0-.12.211c0 .062.014.114.042.156a.288.288 0 0 0 .114.099h.52a.273.273 0 0 0 .116-.1.289.289 0 0 0 .04-.158c0-.097-.033-.167-.1-.21a.505.505 0 0 0-.276-.065h-.024z"/><circle cx="16.57" cy="76.375" r="1.999" fill="none" stroke="#000" stroke-width=".241" stroke-miterlimit="10"/><path fill="none" stroke="#000" stroke-width=".241" stroke-miterlimit="10" d="M18.053 75.035l-2.955 2.701"/><circle cx="13.457" cy="102.691" r="1.411" fill="none" stroke="#000" stroke-width=".241" stroke-miterlimit="10"/><g fill="#cc9932"><path d="M52.544 143.332l-1.605.345-.223-.345.223-.345zm-3.016 1.187l.345.223-.345 1.606-.345-1.606zm0-4.203l.345 1.605-.345.223-.345-.223zm-1.41 2.67l.223.346-.223.345-1.606-.345z"/><path d="M51.661 141.2l-1.379 2.132 1.379 2.132-2.133-1.379-2.133 1.379 1.378-2.133-1.378-2.132 2.132 1.378z"/></g><path fill="#CCC" d="M15.125 139.918h9.304v5.123h-9.304zm3.528-1.933h2.079v1.933h-2.078z"/><path d="M22.926 146.298h-6.467a.512.512 0 0 1-.512-.512v-6.467a.512.512 0 0 1 .512-.513h6.467a.512.512 0 0 1 .512.512v6.467a.512.512 0 0 1-.512.512z" fill="#e5e5e5" stroke="#929292" stroke-width=".241" stroke-miterlimit="10"/><circle cx="19.693" cy="142.456" r="2.32" fill="#7b7b7b"/><circle cx="19.693" cy="142.456" r="2.03" fill="#e5e5e5"/><circle cx="19.693" cy="142.456" r=".532" fill="#cc9932"/><path fill="#666" d="M7.883 137.044h3.063v1.18H7.883zm12.308-79.647h3.063v1.18h-3.063zm5.14 0h3.062v1.18H25.33zm0-12.009h3.062v1.18H25.33zm8.617 0h3.063v1.18h-3.063zm2.262-13.129h1.18v3.063h-1.18zm7.473 2.856h1.18v3.063h-1.18zm-16.21-2.856h1.18v3.063h-1.18zM15.651 30.75h1.956v4.572h-1.956z"/><path fill="#CCC" d="M24.367 30.684h1.512v4.572h-1.512z"/><path fill="#666" d="M8.021 22.512h4.572v1.956H8.021zm40.931 34.533h1.18v3.063h-1.18zm-8.786-14.406h1.18v3.063h-1.18zm-11.905 95.965h1.18v3.063h-1.18zm2.969 0h1.18v3.063h-1.18zm5.546 0h1.18v3.063h-1.18zm5.969 0h1.18v3.063h-1.18zm-34.862.942h3.063v1.18H7.883zm0 2.502h3.063v1.18H7.883zm0 2.502h3.063v1.18H7.883z"/><path fill="#CCC" d="M10.307 53.424h11.778v1.561H10.307zm0-4.456h11.778v1.561H10.307z"/><path fill="#999" d="M11.075 47.675h10.242v8.628H11.075z"/><circle cx="16.241" cy="51.934" r="2.518"/><circle cx="16.005" cy="51.934" r="2.281" fill="#404040"/><path fill="none" stroke="#b8b8b8" stroke-width=".322" stroke-miterlimit="10" d="M21.182 47.674v8.628"/><path d="M16.005 49.653s.112-.01.309.002c.198.011.486.056.798.207.308.154.647.405.892.772.247.366.396.822.403 1.306a2.423 2.423 0 0 1-.403 1.295 2.315 2.315 0 0 1-.891.77 2.089 2.089 0 0 1-.798.208c-.198.012-.31.003-.31.003s.114-.006.305-.044c.192-.03.456-.126.74-.286.282-.163.564-.429.78-.766.217-.345.339-.747.337-1.192a2.2 2.2 0 0 0-.337-1.181 2.34 2.34 0 0 0-.78-.766 2.366 2.366 0 0 0-.74-.286c-.19-.038-.304-.043-.304-.043z" fill="#737373"/><path fill="#CCC" d="M35.427 53.424h11.778v1.561H35.427zm0-4.456h11.778v1.561H35.427z"/><path fill="#999" d="M36.195 47.675h10.242v8.628H36.195z"/><circle cx="41.361" cy="51.934" r="2.518"/><circle cx="41.125" cy="51.934" r="2.281" fill="#404040"/><path fill="none" stroke="#b8b8b8" stroke-width=".322" stroke-miterlimit="10" d="M46.302 47.674v8.628"/><path d="M41.125 49.653s.112-.01.309.002c.197.011.485.056.798.207.308.154.646.405.892.772.246.366.395.822.403 1.306a2.423 2.423 0 0 1-.403 1.295 2.316 2.316 0 0 1-.892.77 2.088 2.088 0 0 1-.798.208c-.197.012-.31.003-.31.003s.114-.006.304-.044a2.37 2.37 0 0 0 .74-.286c.282-.163.564-.429.78-.766.217-.345.338-.747.337-1.192a2.199 2.199 0 0 0-.338-1.181 2.34 2.34 0 0 0-.78-.766 2.366 2.366 0 0 0-.739-.286c-.191-.038-.304-.043-.304-.043z" fill="#737373"/><path fill="#e6e6e6" d="M30.72 1.073v15.171h5.577V15.8h8.39v.446h5.577V1.074z"/><path fill="#666" d="M36.297 16.244h1.007v1.696h-1.007zm1.846 0h1.006v1.696h-1.007zm1.845 0h1.007v1.696h-1.007zm1.846 0h1.007v1.696h-1.007zm1.846 0h1.007v1.696H43.68z"/><path fill="none" stroke="#929292" stroke-width=".161" stroke-miterlimit="10" d="M37.303 16.244v1.696m1.846-1.696v1.696m1.846-1.696v1.696m1.846-1.696v1.696m1.846-1.696v1.696"/><path fill="#b2b2b2" d="M50.25 1.405L51.31 0h-.44l-.62.409z"/><path fill="#c3c3c3" d="M50.898 0h-.028l-.62.409v.681z"/><path fill="#b2b2b2" d="M30.715 1.405L29.656 0h.44l.619.409z"/><path fill="#c3c3c3" d="M30.067 0h.028l.62.409v.681z"/><path fill="#b2b2b2" d="M31.753 1.073H49.23v.8H31.753z"/><path fill="#cfcfcf" d="M31.753 1.073H49.23v.332H31.753z"/><path fill="#b3b3b3" d="M34.105 14.77h1.645v1.475h-1.645zm0-11.59h1.645v7.105h-1.645z"/><path fill="#262626" d="M35.209 14.77h.54v1.475h-.54z"/><ellipse cx="34.928" cy="5.152" rx="1.521" ry="1.345" fill="#b3b3b3"/><path fill="#b3b3b3" d="M45.234 14.77h1.644v1.475h-1.644zm0-11.59h1.644v7.105h-1.644z"/><path fill="#262626" d="M45.234 14.77h.54v1.475h-.54z"/><path fill="#f2f2f2" d="M50.264 1.073h-.174l-1.276 14.718h1.45z"/><path fill="#999" d="M30.72 1.073h.174l1.276 14.718h-1.45z"/><path d="M36.448 5.152c0-.474-.279-.89-.698-1.13V3.18h-.54v7.105h.54V6.282c.42-.239.7-.655.7-1.13zm8.098 0c0-.474.28-.89.699-1.13V3.18h.54v7.105h-.541V6.282c-.42-.239-.699-.655-.699-1.13z" fill="#333"/><path fill="#666" d="M17.963 37.761l-.614-.739h-4.64l-.615.739h-1.076v6.888h1.076l.614.739h4.64l.615-.739h1.076v-6.888z"/><path fill="#bfbfbf" d="M25.298 49.214h6.71v2.104h-6.71zm0 3.444h6.71v2.105h-6.71z"/><path d="M25.571 48.703h6.168v6.57H25.57z"/><path fill="#e5e5e5" d="M31.183 51.988l-.303-2.225-2.225-.303-2.226.302-.303 2.225.302 2.226 2.226.303 2.225-.303z"/><path d="M30.002 52.048l-1.209-.001v1.187h.023c.655 0 1.186-.53 1.186-1.186z" fill="#00a637"/><path d="M28.655 53.255h.002v-1.209H27.47l-.002.023c0 .655.531 1.186 1.187 1.186z" fill="#1b5bb3"/><path d="M27.468 51.908v.002h1.21v-1.187l-.023-.002c-.656 0-1.187.532-1.187 1.187z" fill="#b2b2b2"/><path d="M28.816 50.711h-.001v1.209h1.187l.001-.022c0-.656-.53-1.187-1.186-1.187z" fill="#cc1314"/><path d="M12.359 30.318h1.009v3.716h-1.01zm-3.576 0h1.009v3.716H8.783zm1.788 0h1.009v3.716h-1.01z" fill="#CCC"/><path fill="#CCC" d="M8.059 28.46h6.033v3.716H8.058z"/><path fill="#666" d="M8.29 27.667h5.571v5.303H8.29z"/><path d="M43.536 27.924h.996v5.103h-.996zm-3.527 0h.996v5.103h-.996zm1.764 0h.995v5.103h-.995z" fill="#CCC"/><path fill="#666" d="M39.523 23.88h5.495v8.087h-5.495z"/><path fill="#CCC" d="M45.787 26.936H48.5v8.149h-2.712z"/><path fill="#666" d="M45.787 29.245H48.5v3.53h-2.712z"/><path fill="#CCC" d="M30.958 26.936h2.712v8.149h-2.712z"/><path fill="#666" d="M30.958 29.245h2.712v3.53h-2.712z"/><path d="M57.532 41.137h-12.78a2.4 2.4 0 0 0-2.108 1.25h.783v2.3h-.783a2.4 2.4 0 0 0 2.107 1.25h12.7" fill="#00a9f3"/><path fill="#918c70" d="M11.345 5.856h12.986v10.313H11.345z"/><path fill="#7f7a60" d="M11.345 8.885h12.986v7.284H11.345z"/><path fill="#a09c85" d="M13.122 8.885h3.956v5.31h-3.956zm5.476 0h3.956v5.31h-3.956z"/><path fill="#7f7744" d="M16.43 3.67h2.832v3.343H16.43z"/><path fill="#d6d4c8" d="M27.324 16.169h-1.086v-3.773h-1.907v3.773H11.345v-3.773H9.438v3.772H8.352V14.37H6.817v4.786h22.042V14.37h-1.535zm-1.962-13.21v1.006h-2.815V2.959h-9.418v1.006h-2.816V2.959H6.817v4.696h1.535V5.856h1.086v3.862h1.907V5.856h1.784v1.157h3.301V3.67h2.816v3.343h3.3V5.856h1.785v3.862h1.907V5.856h1.086v1.799h1.535V2.959z"/><path fill="#bab7a0" d="M17.078 12.945l-3.956-.802V8.885h3.956zm5.476 0l-3.956-.802V8.885h3.956z"/><circle cx="15.278" cy="10.41" r=".945" fill="#666"/><circle cx="14.922" cy="10.41" r=".945" fill="#CCC"/><circle cx="20.662" cy="10.41" r=".945" fill="#666"/><circle cx="20.307" cy="10.41" r=".945" fill="#CCC"/><path fill="#918c70" d="M16.43 3.653h2.816v5.232H16.43z"/><path fill="#7f7a60" d="M11.345 5.78h1.784v5.232h-1.784zm11.202 0h1.784v5.232h-1.784z"/><path fill="#666" d="M14.084 19.774h2.681v6.221h-2.681z"/><path fill="#CCC" d="M14.535 19.774h1.78v5.175h-1.78z"/><path fill="#666" d="M18.91 19.774h2.682v6.221h-2.68z"/><path fill="#CCC" d="M19.362 19.774h1.78v5.175h-1.78z"/><path fill="#404040" d="M11.345 6.658h1.784v2.177h-1.784zm11.202 0h1.784v2.177h-1.784z"/><path d="M11.345 5.683h1.784v.997h-1.784zm1.784 1.157h3.301v.997h-3.301zM8.352 5.683h1.086v.997H8.352zM6.817 7.482h1.535v.997H6.817zm2.621 2.063h1.907v.997H9.438zm9.808-2.705h3.3v.997h-3.3zm6.992-1.157h1.086v.997h-1.086zm1.086 1.799h1.535v.997h-1.535zm-2.993 2.063h1.907v.997H24.33zm-1.784-3.862h1.784v.997h-1.784zM6.817 18.159h22.035v1.714H6.817z" fill="#bab7a0"/><g fill="#666"><circle cx="23.421" cy="21.48" r=".724"/><circle cx="26.323" cy="21.48" r=".724"/><circle cx="29.225" cy="21.48" r=".724"/><circle cx="23.421" cy="24.376" r=".724"/><circle cx="26.323" cy="24.376" r=".724"/><circle cx="29.225" cy="24.376" r=".724"/><circle cx="49.25" cy="18.456" r=".724"/><circle cx="46.355" cy="18.456" r=".724"/><circle cx="32.44" cy="18.295" r=".724"/><circle cx="23.421" cy="27.272" r=".724"/><circle cx="26.323" cy="27.272" r=".724"/><circle cx="29.225" cy="27.272" r=".724"/><circle cx="36.645" cy="26.119" r=".724"/><circle cx="36.645" cy="29.015" r=".724"/><circle cx="46.506" cy="38.395" r=".724"/><circle cx="40.918" cy="38.395" r=".724"/><circle cx="37.866" cy="38.395" r=".724"/><circle cx="33.931" cy="37.37" r=".724"/><circle cx="27.658" cy="38.395" r=".724"/><circle cx="27.658" cy="41.291" r=".724"/><circle cx="24.606" cy="38.395" r=".724"/><circle cx="34.655" cy="58.114" r=".724"/><circle cx="31.604" cy="58.114" r=".724"/><circle cx="24.606" cy="41.291" r=".724"/><circle cx="21.492" cy="38.395" r=".724"/><circle cx="21.492" cy="41.291" r=".724"/></g><circle cx="44.657" cy="43.481" r="2.345" fill="#00a9f3"/><path fill="#CCC" d="M43.361 42.62h3.599v1.772H43.36z"/><path d="M57.536 11.317h-5.58a1.29 1.29 0 0 1-1.287-1.287V5.74c0-.708.58-1.287 1.288-1.287h5.579v6.866z" fill="#00a9f3"/><path fill="#666" d="M47.719 20.288h3.063v1.18h-3.063z"/><path d="M31.561 42.936h2.168v1.01h-2.168zm0-3.575h2.168v1.009h-2.168zm0 1.787h2.168v1.01h-2.168zm2.834-1.788h2.169v1.01h-2.169zm0 3.536h2.169v1.01h-2.169z" fill="#CCC"/><path fill="#666" d="M32.558 38.867h3.095v5.572h-3.095z"/><circle cx="54.385" cy="43.562" r="2.235" fill="#b2b2b2"/><circle cx="54.385" cy="14.77" r="2.235" fill="#b2b2b2"/><path fill="#b2b2b2" d="M54.385 12.534h3.15v4.47h-3.15z"/><path d="M56.293 13.605a2.235 2.235 0 1 0 0 2.33" fill="#b2b2b2"/><path fill="#CCC" d="M53.615 14h1.54v1.539h-1.54z"/><path d="M54.385 14.906c.657-1.253 2.388-2.126 3.15-2.372h-3.15c-.762 0-1.434.382-1.838.964a3.463 3.463 0 0 1 1.838 1.408z" fill="#999"/><path d="M53.615 15.539h1.54v-.066a3.469 3.469 0 0 1-.77-.84 3.468 3.468 0 0 1-.77.84v.066z" fill="#999"/><circle cx="54.385" cy="14.77" r=".363" fill="#cbcbcb" stroke="#999" stroke-width=".08" stroke-miterlimit="10"/><path d="M56.293 42.397a2.235 2.235 0 1 0 0 2.33" fill="#b2b2b2"/><path fill="#CCC" d="M53.615 42.792h1.54v1.54h-1.54z"/><path d="M53.615 44.331h1.54v-.066a3.469 3.469 0 0 1-.77-.84 3.468 3.468 0 0 1-.77.84v.067z" fill="#999"/><circle cx="54.385" cy="43.562" r=".363" fill="#cbcbcb" stroke="#999" stroke-width=".08" stroke-miterlimit="10"/><circle cx="54.418" cy="21.927" r="2.235" fill="#b2b2b2"/><path fill="#b2b2b2" d="M54.418 19.692h3.15v4.47h-3.15z"/><path d="M56.326 20.763a2.234 2.234 0 0 0-4.143 1.164 2.235 2.235 0 0 0 4.143 1.165" fill="#b2b2b2"/><path fill="#CCC" d="M53.648 21.158h1.54v1.539h-1.54z"/><path d="M54.418 22.064c.656-1.253 2.388-2.126 3.15-2.372h-3.15c-.762 0-1.434.382-1.838.964a3.463 3.463 0 0 1 1.838 1.408z" fill="#999"/><path d="M53.648 22.697h1.54v-.066a3.469 3.469 0 0 1-.77-.84 3.469 3.469 0 0 1-.77.84v.066z" fill="#999"/><circle cx="54.418" cy="21.927" r=".363" fill="#cbcbcb" stroke="#999" stroke-width=".08" stroke-miterlimit="10"/><circle cx="54.385" cy="29.085" r="2.235" fill="#b2b2b2"/><path fill="#b2b2b2" d="M54.385 26.85h3.15v4.47h-3.15z"/><path d="M56.293 27.92a2.235 2.235 0 1 0 0 2.33" fill="#b2b2b2"/><path fill="#CCC" d="M53.615 28.316h1.54v1.539h-1.54z"/><path d="M54.385 29.221c.657-1.252 2.388-2.125 3.15-2.37h-3.15c-.762 0-1.434.38-1.838.962a3.463 3.463 0 0 1 1.838 1.408z" fill="#999"/><path d="M53.615 29.855h1.54v-.066a3.469 3.469 0 0 1-.77-.84 3.469 3.469 0 0 1-.77.839v.066z" fill="#999"/><circle cx="54.385" cy="29.085" r=".363" fill="#cbcbcb" stroke="#999" stroke-width=".08" stroke-miterlimit="10"/><circle cx="54.385" cy="36.243" r="2.235" fill="#b2b2b2"/><path fill="#b2b2b2" d="M54.385 34.008h3.15v4.47h-3.15z"/><path d="M56.293 35.078a2.235 2.235 0 1 0 0 2.33" fill="#b2b2b2"/><path fill="#CCC" d="M53.615 35.474h1.54v1.539h-1.54z"/><path d="M54.385 36.38c.657-1.253 2.388-2.126 3.15-2.372h-3.15c-.762 0-1.434.381-1.838.963a3.463 3.463 0 0 1 1.838 1.408z" fill="#999"/><path d="M53.615 37.013h1.54v-.067a3.469 3.469 0 0 1-.77-.84 3.468 3.468 0 0 1-.77.84v.067z" fill="#999"/><circle cx="54.385" cy="36.243" r=".363" fill="#cbcbcb" stroke="#999" stroke-width=".08" stroke-miterlimit="10"/><circle cx="54.385" cy="43.562" r="2.235" fill="#b2b2b2"/><path fill="#b2b2b2" d="M54.385 41.327h3.15v4.47h-3.15z"/><path d="M56.293 42.397a2.235 2.235 0 1 0 0 2.33" fill="#b2b2b2"/><path fill="#CCC" d="M53.615 42.792h1.54v1.54h-1.54z"/><path d="M54.385 43.698c.657-1.252 2.388-2.125 3.15-2.371h-3.15c-.762 0-1.434.381-1.838.963a3.463 3.463 0 0 1 1.838 1.408z" fill="#999"/><path d="M53.615 44.331h1.54v-.066a3.469 3.469 0 0 1-.77-.84 3.468 3.468 0 0 1-.77.84v.067z" fill="#999"/><circle cx="54.385" cy="43.562" r=".363" fill="#cbcbcb" stroke="#999" stroke-width=".08" stroke-miterlimit="10"/><circle cx="54.391" cy="50.559" r="2.235" fill="#b2b2b2"/><path fill="#b2b2b2" d="M54.39 48.324h3.151v4.47h-3.15z"/><path d="M56.298 49.394a2.235 2.235 0 1 0 0 2.33" fill="#b2b2b2"/><path fill="#CCC" d="M53.621 49.789h1.539v1.539h-1.539z"/><path d="M54.39 50.695c.657-1.252 2.389-2.125 3.151-2.371h-3.15c-.762 0-1.435.381-1.838.963a3.463 3.463 0 0 1 1.837 1.408z" fill="#999"/><path d="M53.621 51.328h1.539v-.066a3.469 3.469 0 0 1-.77-.84 3.468 3.468 0 0 1-.77.84v.066z" fill="#999"/><circle cx="54.391" cy="50.559" r=".363" fill="#cbcbcb" stroke="#999" stroke-width=".08" stroke-miterlimit="10"/><circle cx="54.385" cy="57.717" r="2.235" fill="#b2b2b2"/><path fill="#b2b2b2" d="M54.385 55.481h3.15v4.47h-3.15z"/><path d="M56.293 56.552a2.235 2.235 0 1 0 0 2.33" fill="#b2b2b2"/><path fill="#CCC" d="M53.615 56.947h1.54v1.539h-1.54z"/><path d="M54.385 57.853c.657-1.252 2.388-2.125 3.15-2.371h-3.15c-.762 0-1.434.38-1.838.963a3.463 3.463 0 0 1 1.838 1.408z" fill="#999"/><path d="M53.615 58.486h1.54v-.066a3.469 3.469 0 0 1-.77-.84 3.468 3.468 0 0 1-.77.84v.066z" fill="#999"/><circle cx="54.385" cy="57.717" r=".363" fill="#cbcbcb" stroke="#999" stroke-width=".08" stroke-miterlimit="10"/><circle cx="54.385" cy="64.874" r="2.235" fill="#b2b2b2"/><path fill="#b2b2b2" d="M54.385 62.64h3.15v4.47h-3.15z"/><path d="M56.293 63.71a2.235 2.235 0 1 0 0 2.33" fill="#b2b2b2"/><path fill="#CCC" d="M53.615 64.105h1.54v1.539h-1.54z"/><path d="M54.385 65.01c.657-1.252 2.388-2.125 3.15-2.37h-3.15c-.762 0-1.434.38-1.838.963a3.463 3.463 0 0 1 1.838 1.408z" fill="#999"/><path d="M53.615 65.644h1.54v-.066a3.469 3.469 0 0 1-.77-.84 3.468 3.468 0 0 1-.77.84v.066z" fill="#999"/><circle cx="54.385" cy="64.874" r=".363" fill="#cbcbcb" stroke="#999" stroke-width=".08" stroke-miterlimit="10"/><circle cx="54.385" cy="79.19" r="2.235" fill="#b2b2b2"/><path fill="#b2b2b2" d="M54.385 76.955h3.15v4.47h-3.15z"/><path d="M56.293 78.025a2.235 2.235 0 1 0 0 2.33" fill="#b2b2b2"/><path fill="#CCC" d="M53.615 78.42h1.54v1.54h-1.54z"/><path d="M54.385 79.326c.657-1.252 2.388-2.125 3.15-2.371h-3.15c-.762 0-1.434.381-1.838.963a3.463 3.463 0 0 1 1.838 1.408z" fill="#999"/><path d="M53.615 79.96h1.54v-.066a3.469 3.469 0 0 1-.77-.84 3.468 3.468 0 0 1-.77.84v.066z" fill="#999"/><circle cx="54.385" cy="79.19" r=".363" fill="#cbcbcb" stroke="#999" stroke-width=".08" stroke-miterlimit="10"/><circle cx="54.385" cy="72.032" r="2.235" fill="#b2b2b2"/><path fill="#b2b2b2" d="M54.385 69.797h3.15v4.47h-3.15z"/><path d="M56.293 70.868a2.235 2.235 0 1 0 0 2.33" fill="#b2b2b2"/><path fill="#CCC" d="M53.615 71.263h1.54v1.539h-1.54z"/><path d="M54.385 72.168c.657-1.252 2.388-2.125 3.15-2.37h-3.15c-.762 0-1.434.38-1.838.962a3.463 3.463 0 0 1 1.838 1.408z" fill="#999"/><path d="M53.615 72.802h1.54v-.067a3.469 3.469 0 0 1-.77-.84 3.468 3.468 0 0 1-.77.84v.066z" fill="#999"/><circle cx="54.385" cy="72.032" r=".363" fill="#cbcbcb" stroke="#999" stroke-width=".08" stroke-miterlimit="10"/><circle cx="54.385" cy="86.348" r="2.235" fill="#b2b2b2"/><path fill="#b2b2b2" d="M54.385 84.113h3.15v4.47h-3.15z"/><path d="M56.293 85.183a2.235 2.235 0 1 0 0 2.329" fill="#b2b2b2"/><path fill="#CCC" d="M53.615 85.578h1.54v1.54h-1.54z"/><path d="M54.385 86.484c.657-1.252 2.388-2.125 3.15-2.371h-3.15c-.762 0-1.434.38-1.838.963a3.463 3.463 0 0 1 1.838 1.408z" fill="#999"/><path d="M53.615 87.117h1.54v-.066a3.469 3.469 0 0 1-.77-.84 3.468 3.468 0 0 1-.77.84v.066z" fill="#999"/><circle cx="54.385" cy="86.348" r=".363" fill="#cbcbcb" stroke="#999" stroke-width=".08" stroke-miterlimit="10"/><circle cx="54.385" cy="93.506" r="2.235" fill="#b2b2b2"/><path fill="#b2b2b2" d="M54.385 91.27h3.15v4.47h-3.15z"/><path d="M56.293 92.341a2.235 2.235 0 1 0 0 2.33" fill="#b2b2b2"/><path fill="#CCC" d="M53.615 92.736h1.54v1.54h-1.54z"/><path d="M54.385 93.642c.657-1.252 2.388-2.125 3.15-2.371h-3.15c-.762 0-1.434.381-1.838.963a3.463 3.463 0 0 1 1.838 1.408z" fill="#999"/><path d="M53.615 94.275h1.54v-.066a3.469 3.469 0 0 1-.77-.84 3.468 3.468 0 0 1-.77.84v.066z" fill="#999"/><circle cx="54.385" cy="93.506" r=".363" fill="#cbcbcb" stroke="#999" stroke-width=".08" stroke-miterlimit="10"/><circle cx="54.404" cy="100.663" r="2.235" fill="#b2b2b2"/><path fill="#b2b2b2" d="M54.404 98.428h3.15v4.47h-3.15z"/><path d="M56.312 99.499a2.234 2.234 0 0 0-4.143 1.165 2.235 2.235 0 0 0 4.143 1.164" fill="#b2b2b2"/><path fill="#CCC" d="M53.635 99.894h1.539v1.539h-1.54z"/><path d="M54.404 100.8c.657-1.252 2.389-2.125 3.151-2.371h-3.151c-.762 0-1.434.38-1.837.963a3.463 3.463 0 0 1 1.837 1.408z" fill="#999"/><path d="M53.635 101.433h1.539v-.066a3.469 3.469 0 0 1-.77-.84 3.468 3.468 0 0 1-.769.84v.066z" fill="#999"/><circle cx="54.404" cy="100.663" r=".363" fill="#cbcbcb" stroke="#999" stroke-width=".08" stroke-miterlimit="10"/><circle cx="54.385" cy="107.821" r="2.235" fill="#b2b2b2"/><path fill="#b2b2b2" d="M54.385 105.586h3.15v4.47h-3.15z"/><path d="M56.293 106.657a2.235 2.235 0 1 0 0 2.33" fill="#b2b2b2"/><path fill="#CCC" d="M53.615 107.052h1.54v1.539h-1.54z"/><path d="M54.385 107.958c.657-1.253 2.388-2.126 3.15-2.372h-3.15c-.762 0-1.434.382-1.838.964a3.463 3.463 0 0 1 1.838 1.408z" fill="#999"/><path d="M53.615 108.591h1.54v-.066a3.469 3.469 0 0 1-.77-.84 3.468 3.468 0 0 1-.77.84v.066z" fill="#999"/><circle cx="54.385" cy="107.821" r=".363" fill="#cbcbcb" stroke="#999" stroke-width=".08" stroke-miterlimit="10"/><circle cx="54.385" cy="114.979" r="2.235" fill="#b2b2b2"/><path fill="#b2b2b2" d="M54.385 112.744h3.15v4.47h-3.15z"/><path d="M56.293 113.815a2.235 2.235 0 1 0 0 2.33" fill="#b2b2b2"/><path fill="#CCC" d="M53.615 114.21h1.54v1.539h-1.54z"/><path d="M54.385 115.115c.657-1.252 2.388-2.125 3.15-2.37h-3.15c-.762 0-1.434.38-1.838.962a3.463 3.463 0 0 1 1.838 1.409z" fill="#999"/><path d="M53.615 115.749h1.54v-.066a3.469 3.469 0 0 1-.77-.84 3.468 3.468 0 0 1-.77.839v.066z" fill="#999"/><circle cx="54.385" cy="114.979" r=".363" fill="#cbcbcb" stroke="#999" stroke-width=".08" stroke-miterlimit="10"/><circle cx="54.385" cy="122.137" r="2.235" fill="#b2b2b2"/><path fill="#b2b2b2" d="M54.385 119.902h3.15v4.47h-3.15z"/><path d="M56.293 120.972a2.235 2.235 0 1 0 0 2.33" fill="#b2b2b2"/><path fill="#CCC" d="M53.615 121.368h1.54v1.539h-1.54z"/><path d="M54.385 122.273c.657-1.252 2.388-2.125 3.15-2.37h-3.15c-.762 0-1.434.381-1.838.963a3.463 3.463 0 0 1 1.838 1.408z" fill="#999"/><path d="M53.615 122.907h1.54v-.067a3.469 3.469 0 0 1-.77-.84 3.468 3.468 0 0 1-.77.84v.067z" fill="#999"/><circle cx="54.385" cy="122.137" r=".363" fill="#cbcbcb" stroke="#999" stroke-width=".08" stroke-miterlimit="10"/><circle cx="54.385" cy="129.295" r="2.235" fill="#b2b2b2"/><path fill="#b2b2b2" d="M54.385 127.06h3.15v4.47h-3.15z"/><path d="M56.293 128.13a2.235 2.235 0 1 0 0 2.329" fill="#b2b2b2"/><path fill="#CCC" d="M53.615 128.525h1.54v1.54h-1.54z"/><path d="M54.385 129.431c.657-1.252 2.388-2.125 3.15-2.371h-3.15c-.762 0-1.434.38-1.838.963a3.463 3.463 0 0 1 1.838 1.408z" fill="#999"/><path d="M53.615 130.064h1.54v-.066a3.469 3.469 0 0 1-.77-.84 3.468 3.468 0 0 1-.77.84v.066z" fill="#999"/><circle cx="54.385" cy="129.295" r=".363" fill="#cbcbcb" stroke="#999" stroke-width=".08" stroke-miterlimit="10"/><circle cx="54.404" cy="136.453" r="2.235" fill="#b2b2b2"/><path fill="#b2b2b2" d="M54.404 134.218h3.15v4.47h-3.15z"/><path d="M56.312 135.288a2.234 2.234 0 0 0-4.143 1.165 2.235 2.235 0 0 0 4.143 1.164" fill="#b2b2b2"/><path fill="#CCC" d="M53.635 135.683h1.539v1.54h-1.54z"/><path d="M54.404 136.589c.657-1.252 2.389-2.125 3.151-2.371h-3.151c-.762 0-1.434.381-1.837.963a3.463 3.463 0 0 1 1.837 1.408z" fill="#999"/><path d="M53.635 137.222h1.539v-.066a3.469 3.469 0 0 1-.77-.839 3.468 3.468 0 0 1-.769.84v.066z" fill="#999"/><circle cx="54.404" cy="136.453" r=".363" fill="#cbcbcb" stroke="#999" stroke-width=".08" stroke-miterlimit="10"/><circle cx="3.268" cy="43.562" r="2.235" fill="#b2b2b2"/><circle cx="3.268" cy="14.77" r="2.235" fill="#b2b2b2"/><path fill="#b2b2b2" d="M.117 12.534h3.15v4.47H.118z"/><path d="M1.36 13.605a2.235 2.235 0 1 1 0 2.33" fill="#b2b2b2"/><path fill="#CCC" d="M2.498 14h1.54v1.539h-1.54z"/><path d="M3.268 14.906C2.61 13.653.879 12.78.117 12.534h3.15c.762 0 1.435.382 1.838.964a3.463 3.463 0 0 0-1.837 1.408z" fill="#999"/><path d="M4.037 15.539H2.498v-.066a3.469 3.469 0 0 0 .77-.84 3.47 3.47 0 0 0 .77.84v.066z" fill="#999"/><circle cx="3.268" cy="14.77" r=".363" fill="#cbcbcb" stroke="#999" stroke-width=".08" stroke-miterlimit="10"/><path d="M1.36 42.397a2.235 2.235 0 1 1 0 2.33" fill="#b2b2b2"/><path fill="#CCC" d="M2.498 42.792h1.54v1.54h-1.54z"/><path d="M4.037 44.331H2.498v-.066a3.469 3.469 0 0 0 .77-.84c.208.321.469.605.77.84v.067z" fill="#999"/><circle cx="3.268" cy="43.562" r=".363" fill="#cbcbcb" stroke="#999" stroke-width=".08" stroke-miterlimit="10"/><circle cx="3.235" cy="21.927" r="2.235" fill="#b2b2b2"/><path fill="#b2b2b2" d="M.084 19.692h3.15v4.47H.085z"/><path d="M1.327 20.763a2.235 2.235 0 1 1 0 2.33" fill="#b2b2b2"/><path fill="#CCC" d="M2.465 21.158h1.54v1.539h-1.54z"/><path d="M3.235 22.064C2.578 20.81.846 19.938.084 19.692h3.15c.763 0 1.435.382 1.838.964a3.463 3.463 0 0 0-1.837 1.408z" fill="#999"/><path d="M4.004 22.697H2.465v-.066a3.469 3.469 0 0 0 .77-.84c.208.321.469.604.77.84v.066z" fill="#999"/><circle cx="3.235" cy="21.927" r=".363" fill="#cbcbcb" stroke="#999" stroke-width=".08" stroke-miterlimit="10"/><circle cx="3.268" cy="29.085" r="2.235" fill="#b2b2b2"/><path fill="#b2b2b2" d="M.117 26.85h3.15v4.47H.118z"/><path d="M1.36 27.92a2.235 2.235 0 1 1 0 2.33" fill="#b2b2b2"/><path fill="#CCC" d="M2.498 28.316h1.54v1.539h-1.54z"/><path d="M3.268 29.221C2.61 27.97.879 27.096.117 26.851h3.15c.762 0 1.435.38 1.838.962a3.463 3.463 0 0 0-1.837 1.408z" fill="#999"/><path d="M4.037 29.855H2.498v-.066a3.469 3.469 0 0 0 .77-.84 3.471 3.471 0 0 0 .77.839v.066z" fill="#999"/><circle cx="3.268" cy="29.085" r=".363" fill="#cbcbcb" stroke="#999" stroke-width=".08" stroke-miterlimit="10"/><circle cx="3.268" cy="36.243" r="2.235" fill="#b2b2b2"/><path fill="#b2b2b2" d="M.117 34.008h3.15v4.47H.118z"/><path d="M1.36 35.078a2.235 2.235 0 1 1 0 2.33" fill="#b2b2b2"/><path fill="#CCC" d="M2.498 35.474h1.54v1.539h-1.54z"/><path d="M3.268 36.38C2.61 35.126.879 34.253.117 34.007h3.15c.762 0 1.435.381 1.838.963a3.463 3.463 0 0 0-1.837 1.408z" fill="#999"/><path d="M4.037 37.013H2.498v-.067a3.469 3.469 0 0 0 .77-.84c.208.322.469.605.77.84v.067z" fill="#999"/><circle cx="3.268" cy="36.243" r=".363" fill="#cbcbcb" stroke="#999" stroke-width=".08" stroke-miterlimit="10"/><circle cx="3.268" cy="43.562" r="2.235" fill="#b2b2b2"/><path fill="#b2b2b2" d="M.117 41.327h3.15v4.47H.118z"/><path d="M1.36 42.397a2.235 2.235 0 1 1 0 2.33" fill="#b2b2b2"/><path fill="#CCC" d="M2.498 42.792h1.54v1.54h-1.54z"/><path d="M3.268 43.698C2.61 42.446.879 41.573.117 41.327h3.15c.762 0 1.435.381 1.838.963a3.463 3.463 0 0 0-1.837 1.408z" fill="#999"/><path d="M4.037 44.331H2.498v-.066a3.469 3.469 0 0 0 .77-.84c.208.321.469.605.77.84v.067z" fill="#999"/><circle cx="3.268" cy="43.562" r=".363" fill="#cbcbcb" stroke="#999" stroke-width=".08" stroke-miterlimit="10"/><circle cx="3.262" cy="50.559" r="2.235" fill="#b2b2b2"/><path fill="#b2b2b2" d="M.111 48.324h3.151v4.47H.112z"/><path d="M1.354 49.394a2.235 2.235 0 1 1 0 2.33" fill="#b2b2b2"/><path fill="#CCC" d="M2.493 49.789h1.539v1.539h-1.54z"/><path d="M3.262 50.695C2.606 49.443.874 48.57.112 48.324h3.15c.762 0 1.434.381 1.838.963a3.463 3.463 0 0 0-1.838 1.408z" fill="#999"/><path d="M4.032 51.328h-1.54v-.066a3.469 3.469 0 0 0 .77-.84 3.475 3.475 0 0 0 .77.84v.066z" fill="#999"/><circle cx="3.262" cy="50.559" r=".363" fill="#cbcbcb" stroke="#999" stroke-width=".08" stroke-miterlimit="10"/><circle cx="3.268" cy="57.717" r="2.235" fill="#b2b2b2"/><path fill="#b2b2b2" d="M.117 55.481h3.15v4.47H.118z"/><path d="M1.36 56.552a2.235 2.235 0 1 1 0 2.33" fill="#b2b2b2"/><path fill="#CCC" d="M2.498 56.947h1.54v1.539h-1.54z"/><path d="M3.268 57.853C2.61 56.6.879 55.727.117 55.48h3.15c.762 0 1.435.382 1.838.964a3.463 3.463 0 0 0-1.837 1.408z" fill="#999"/><path d="M4.037 58.486H2.498v-.066a3.469 3.469 0 0 0 .77-.84c.208.321.469.605.77.84v.066z" fill="#999"/><circle cx="3.268" cy="57.717" r=".363" fill="#cbcbcb" stroke="#999" stroke-width=".08" stroke-miterlimit="10"/><circle cx="3.268" cy="64.874" r="2.235" fill="#b2b2b2"/><path fill="#b2b2b2" d="M.117 62.64h3.15v4.47H.118z"/><path d="M1.36 63.71a2.235 2.235 0 1 1 0 2.33" fill="#b2b2b2"/><path fill="#CCC" d="M2.498 64.105h1.54v1.539h-1.54z"/><path d="M3.268 65.01C2.61 63.759.879 62.886.117 62.64h3.15c.762 0 1.435.38 1.838.963a3.463 3.463 0 0 0-1.837 1.408z" fill="#999"/><path d="M4.037 65.644H2.498v-.066a3.469 3.469 0 0 0 .77-.84 3.47 3.47 0 0 0 .77.84v.066z" fill="#999"/><circle cx="3.268" cy="64.874" r=".363" fill="#cbcbcb" stroke="#999" stroke-width=".08" stroke-miterlimit="10"/><circle cx="3.268" cy="79.19" r="2.235" fill="#b2b2b2"/><path fill="#b2b2b2" d="M.117 76.955h3.15v4.47H.118z"/><path d="M1.36 78.025a2.235 2.235 0 1 1 0 2.33" fill="#b2b2b2"/><path fill="#CCC" d="M2.498 78.42h1.54v1.54h-1.54z"/><path d="M3.268 79.326C2.61 78.074.879 77.201.117 76.955h3.15c.762 0 1.435.381 1.838.963a3.463 3.463 0 0 0-1.837 1.408z" fill="#999"/><path d="M4.037 79.96H2.498v-.066a3.469 3.469 0 0 0 .77-.84c.208.32.469.604.77.84v.065z" fill="#999"/><circle cx="3.268" cy="79.19" r=".363" fill="#cbcbcb" stroke="#999" stroke-width=".08" stroke-miterlimit="10"/><circle cx="3.268" cy="72.032" r="2.235" fill="#b2b2b2"/><path fill="#b2b2b2" d="M.117 69.797h3.15v4.47H.118z"/><path d="M1.36 70.868a2.235 2.235 0 1 1 0 2.33" fill="#b2b2b2"/><path fill="#CCC" d="M2.498 71.263h1.54v1.539h-1.54z"/><path d="M3.268 72.168C2.61 70.916.879 70.043.117 69.798h3.15c.762 0 1.435.38 1.838.963a3.463 3.463 0 0 0-1.837 1.408z" fill="#999"/><path d="M4.037 72.802H2.498v-.067a3.469 3.469 0 0 0 .77-.84 3.472 3.472 0 0 0 .77.84v.066z" fill="#999"/><circle cx="3.268" cy="72.032" r=".363" fill="#cbcbcb" stroke="#999" stroke-width=".08" stroke-miterlimit="10"/><circle cx="3.268" cy="86.348" r="2.235" fill="#b2b2b2"/><path fill="#b2b2b2" d="M.117 84.113h3.15v4.47H.118z"/><path d="M1.36 85.183a2.235 2.235 0 1 1 0 2.329" fill="#b2b2b2"/><path fill="#CCC" d="M2.498 85.578h1.54v1.54h-1.54z"/><path d="M3.268 86.484C2.61 85.232.879 84.36.117 84.113h3.15c.762 0 1.435.381 1.838.963a3.463 3.463 0 0 0-1.837 1.408z" fill="#999"/><path d="M4.037 87.117H2.498v-.066a3.469 3.469 0 0 0 .77-.84 3.47 3.47 0 0 0 .77.84v.066z" fill="#999"/><circle cx="3.268" cy="86.348" r=".363" fill="#cbcbcb" stroke="#999" stroke-width=".08" stroke-miterlimit="10"/><circle cx="3.268" cy="93.506" r="2.235" fill="#b2b2b2"/><path fill="#b2b2b2" d="M.117 91.27h3.15v4.47H.118z"/><path d="M1.36 92.341a2.235 2.235 0 1 1 0 2.33" fill="#b2b2b2"/><path fill="#CCC" d="M2.498 92.736h1.54v1.54h-1.54z"/><path d="M3.268 93.642C2.61 92.39.879 91.517.117 91.271h3.15c.762 0 1.435.381 1.838.963a3.463 3.463 0 0 0-1.837 1.408z" fill="#999"/><path d="M4.037 94.275H2.498v-.066a3.469 3.469 0 0 0 .77-.84c.208.321.469.605.77.84v.066z" fill="#999"/><circle cx="3.268" cy="93.506" r=".363" fill="#cbcbcb" stroke="#999" stroke-width=".08" stroke-miterlimit="10"/><circle cx="3.248" cy="100.663" r="2.235" fill="#b2b2b2"/><path fill="#b2b2b2" d="M.098 98.428h3.15v4.47H.099z"/><path d="M1.34 99.499a2.235 2.235 0 1 1 0 2.33" fill="#b2b2b2"/><path fill="#CCC" d="M2.479 99.894h1.539v1.539H2.479z"/><path d="M3.248 100.8C2.592 99.547.86 98.674.099 98.429h3.15c.762 0 1.434.38 1.838.963a3.463 3.463 0 0 0-1.837 1.408z" fill="#999"/><path d="M4.018 101.433H2.479v-.066a3.469 3.469 0 0 0 .77-.84c.208.321.469.605.769.84v.066z" fill="#999"/><circle cx="3.248" cy="100.663" r=".363" fill="#cbcbcb" stroke="#999" stroke-width=".08" stroke-miterlimit="10"/><circle cx="3.268" cy="107.822" r="2.235" fill="#b2b2b2"/><path fill="#b2b2b2" d="M.117 105.587h3.15v4.47H.118z"/><path d="M1.36 106.657a2.235 2.235 0 1 1 0 2.33" fill="#b2b2b2"/><path fill="#CCC" d="M2.498 107.052h1.54v1.539h-1.54z"/><path d="M3.268 107.958c-.657-1.253-2.389-2.126-3.151-2.372h3.15c.761 0 1.434.382 1.837.964a3.463 3.463 0 0 0-1.837 1.408z" fill="#999"/><path d="M4.037 108.591H2.498v-.066a3.469 3.469 0 0 0 .77-.84 3.465 3.465 0 0 0 .77.84v.066z" fill="#999"/><circle cx="3.268" cy="107.822" r=".363" fill="#cbcbcb" stroke="#999" stroke-width=".08" stroke-miterlimit="10"/><circle cx="3.268" cy="114.979" r="2.235" fill="#b2b2b2"/><path fill="#b2b2b2" d="M.117 112.744h3.15v4.47H.118z"/><path d="M1.36 113.815a2.235 2.235 0 1 1 0 2.33" fill="#b2b2b2"/><path fill="#CCC" d="M2.498 114.21h1.54v1.539h-1.54z"/><path d="M3.268 115.115c-.657-1.252-2.389-2.125-3.151-2.37h3.15c.761 0 1.434.38 1.837.962a3.463 3.463 0 0 0-1.837 1.409z" fill="#999"/><path d="M4.037 115.749H2.498v-.066a3.469 3.469 0 0 0 .77-.84 3.472 3.472 0 0 0 .77.839v.066z" fill="#999"/><circle cx="3.268" cy="114.979" r=".363" fill="#cbcbcb" stroke="#999" stroke-width=".08" stroke-miterlimit="10"/><circle cx="3.268" cy="122.137" r="2.235" fill="#b2b2b2"/><path fill="#b2b2b2" d="M.117 119.902h3.15v4.47H.118z"/><path d="M1.36 120.972a2.235 2.235 0 1 1 0 2.33" fill="#b2b2b2"/><path fill="#CCC" d="M2.498 121.368h1.54v1.539h-1.54z"/><path d="M3.268 122.273c-.657-1.252-2.389-2.125-3.151-2.371h3.15c.762 0 1.435.381 1.838.963a3.463 3.463 0 0 0-1.837 1.408z" fill="#999"/><path d="M4.037 122.907H2.498v-.067a3.469 3.469 0 0 0 .77-.84 3.47 3.47 0 0 0 .77.84v.067z" fill="#999"/><circle cx="3.268" cy="122.137" r=".363" fill="#cbcbcb" stroke="#999" stroke-width=".08" stroke-miterlimit="10"/><circle cx="3.268" cy="129.295" r="2.235" fill="#b2b2b2"/><path fill="#b2b2b2" d="M.117 127.06h3.15v4.47H.118z"/><path d="M1.36 128.13a2.235 2.235 0 1 1 0 2.329" fill="#b2b2b2"/><path fill="#CCC" d="M2.498 128.525h1.54v1.54h-1.54z"/><path d="M3.268 129.431C2.61 128.18.879 127.306.117 127.06h3.15c.762 0 1.435.381 1.838.963a3.463 3.463 0 0 0-1.837 1.408z" fill="#999"/><path d="M4.037 130.064H2.498v-.066a3.469 3.469 0 0 0 .77-.84c.208.322.469.605.77.84v.066z" fill="#999"/><circle cx="3.268" cy="129.295" r=".363" fill="#cbcbcb" stroke="#999" stroke-width=".08" stroke-miterlimit="10"/><circle cx="3.248" cy="136.453" r="2.235" fill="#b2b2b2"/><path fill="#b2b2b2" d="M.098 134.218h3.15v4.47H.099z"/><path d="M1.34 135.288a2.235 2.235 0 1 1 0 2.33" fill="#b2b2b2"/><path fill="#CCC" d="M2.479 135.683h1.539v1.54H2.479z"/><path d="M3.248 136.589c-.656-1.252-2.388-2.125-3.15-2.371h3.15c.762 0 1.434.381 1.838.963a3.463 3.463 0 0 0-1.837 1.408z" fill="#999"/><path d="M4.018 137.222H2.479v-.066a3.469 3.469 0 0 0 .77-.839c.208.321.469.605.769.84v.066z" fill="#999"/><circle cx="3.248" cy="136.453" r=".363" fill="#cbcbcb" stroke="#999" stroke-width=".08" stroke-miterlimit="10"/><path d="M52.2 18.898a.804.804 0 0 0 .395.112c.309 0 .405-.197.402-.345-.003-.249-.227-.355-.46-.355h-.134v-.18h.134c.175 0 .397-.09.397-.301 0-.143-.09-.268-.312-.268a.65.65 0 0 0-.355.117l-.063-.175a.85.85 0 0 1 .465-.136c.35 0 .51.208.51.424 0 .183-.11.34-.33.419v.005c.22.044.398.208.398.457 0 .284-.222.533-.649.533a.905.905 0 0 1-.462-.12l.066-.186zm1.836.276l-.602-1.843h.257l.288.908c.079.249.147.473.197.689h.005a8.28 8.28 0 0 1 .21-.687l.313-.911h.254l-.66 1.843h-.262zm1.094-.276a.804.804 0 0 0 .394.112c.31 0 .405-.197.402-.345-.003-.249-.227-.355-.46-.355h-.133v-.18h.134c.175 0 .396-.09.396-.301 0-.143-.09-.268-.312-.268a.654.654 0 0 0-.355.117l-.063-.175a.847.847 0 0 1 .465-.136c.35 0 .508.208.508.424 0 .183-.11.34-.328.419v.005c.219.044.396.208.396.457 0 .284-.222.533-.648.533a.906.906 0 0 1-.462-.12l.066-.186zm-18.493 2.83a2.612 2.612 0 0 1 .388-.029c.262 0 .448.061.572.176.126.116.199.28.199.508 0 .23-.071.42-.203.55-.132.132-.35.203-.625.203-.13 0-.239-.006-.331-.017v-1.39zm.182 1.25c.047.009.114.01.185.01.39 0 .602-.217.602-.599.002-.333-.186-.545-.572-.545a1.04 1.04 0 0 0-.214.019v1.115zm1.747-.97v.492h.474v.126h-.473v.496h-.134v-.497h-.474V22.5h.474v-.493h.134zm5.866-.28a2.613 2.613 0 0 1 .388-.029c.262 0 .449.061.573.176.125.116.199.28.199.508 0 .23-.071.42-.204.55-.132.132-.35.203-.624.203-.13 0-.24-.006-.332-.017v-1.39zm.183 1.25c.046.009.113.01.184.01.39 0 .602-.217.602-.599.002-.333-.187-.545-.572-.545-.094 0-.165.008-.213.019v1.115zm1.665-.49v.136h-.518v-.137h.518zm6.102 2.046a2.48 2.48 0 0 1 .457-.038c.255 0 .419.046.534.15a.46.46 0 0 1 .145.35.484.484 0 0 1-.348.47v.009c.142.049.227.18.27.37.061.258.105.436.143.507h-.246c-.03-.052-.071-.21-.123-.44-.055-.255-.153-.35-.37-.359h-.224v.799h-.238v-1.818zm.238.84h.243c.254 0 .416-.14.416-.35 0-.238-.173-.342-.424-.345a.975.975 0 0 0-.235.022v.673zm1.2.689a.843.843 0 0 0 .427.12c.244 0 .386-.128.386-.314 0-.173-.098-.271-.347-.367-.301-.106-.487-.262-.487-.522 0-.287.238-.5.596-.5.189 0 .325.043.407.09l-.065.194a.734.734 0 0 0-.35-.088c-.252 0-.348.15-.348.277 0 .172.112.257.367.355.312.12.47.27.47.542 0 .284-.21.53-.645.53a.96.96 0 0 1-.47-.117l.06-.2zm1.732-1.351h-.56v-.203h1.364v.203h-.563v1.64h-.241v-1.64zm-4.417 8.82l-.602-1.844h.257l.287.908c.08.249.148.473.197.69h.006c.052-.214.128-.446.21-.687l.312-.911h.255l-.66 1.843h-.262zm1.121-1.82c.104-.021.268-.037.435-.037.238 0 .391.04.506.134.096.07.153.18.153.325 0 .178-.118.334-.312.405v.005c.175.044.38.189.38.462a.497.497 0 0 1-.156.37c-.129.117-.337.172-.638.172-.164 0-.29-.011-.369-.022v-1.814zm.238.756h.216c.252 0 .4-.132.4-.31 0-.215-.165-.3-.405-.3-.11 0-.172.008-.21.016v.594zm0 .883c.046.008.115.011.2.011.247 0 .474-.09.474-.358 0-.252-.217-.356-.476-.356h-.197v.703zm1.543-.4l-.192.58H53.6l.627-1.843h.287l.629 1.844h-.255l-.197-.58h-.653zm.604-.185l-.18-.53a4.112 4.112 0 0 1-.096-.337h-.006a5.541 5.541 0 0 1-.093.334l-.18.534h.554zm.91-.875h-.56v-.203h1.365v.203h-.563v1.64h-.241v-1.64zm-2.975 8.737a1.711 1.711 0 0 1-.566.101c-.28 0-.509-.07-.69-.243-.157-.154-.256-.4-.256-.687.003-.55.38-.952.999-.952.213 0 .38.046.459.085l-.057.194a.953.953 0 0 0-.408-.08c-.449 0-.741.28-.741.742 0 .468.281.744.71.744a.78.78 0 0 0 .318-.05v-.55h-.375v-.19h.607v.885zm.364.082v-1.843h.26l.59.932c.137.216.244.41.332.6l.005-.003a8.155 8.155 0 0 1-.027-.758v-.77h.224v1.842h-.241l-.585-.935a5.822 5.822 0 0 1-.345-.615l-.008.003c.014.232.02.454.02.76v.788h-.225zm1.8-1.819a3.407 3.407 0 0 1 .506-.038c.342 0 .585.08.746.23.164.15.26.363.26.66 0 .302-.093.548-.265.717-.172.173-.457.266-.815.266-.17 0-.312-.008-.432-.022V38.89zm.238 1.63c.06.012.147.014.24.014.509 0 .785-.284.785-.782.003-.435-.243-.711-.746-.711-.123 0-.216.01-.28.025v1.455zM53.336 53.25a3.407 3.407 0 0 1 .506-.038c.342 0 .585.079.747.23.164.15.26.363.26.661 0 .301-.094.547-.266.717-.172.172-.456.265-.815.265a3.865 3.865 0 0 1-.432-.022V53.25zm.238 1.63c.06.01.148.014.24.014.51 0 .786-.285.786-.783.002-.435-.244-.71-.747-.71-.124 0-.217.01-.28.024v1.455zm2.513-1.42a.87.87 0 0 0-.18.012.722.722 0 0 0-.618.631h.008a.53.53 0 0 1 .43-.205c.314 0 .535.227.535.574 0 .326-.221.627-.59.627-.38 0-.63-.296-.63-.758 0-.35.127-.626.302-.8a.964.964 0 0 1 .568-.263 1.154 1.154 0 0 1 .175-.013v.197zm-.068 1.026c0-.254-.145-.407-.366-.407a.394.394 0 0 0-.344.22.205.205 0 0 0-.027.106c.005.293.14.509.39.509.209 0 .348-.172.348-.427zm-2.683 5.943a3.407 3.407 0 0 1 .506-.038c.342 0 .586.08.747.23.164.15.26.364.26.662 0 .3-.093.547-.266.717-.172.172-.456.265-.815.265a3.833 3.833 0 0 1-.432-.022v-1.814zm.238 1.63a1.5 1.5 0 0 0 .241.014c.509 0 .785-.285.785-.783.003-.434-.244-.71-.747-.71-.123 0-.216.01-.279.024v1.455zm2.56-1.387h-.678l-.068.457c.04-.005.079-.01.145-.01.136 0 .273.03.383.095.139.08.254.232.254.457 0 .347-.276.607-.662.607a.872.872 0 0 1-.443-.11l.06-.182a.794.794 0 0 0 .38.098c.227 0 .421-.147.421-.385-.002-.23-.155-.394-.511-.394-.101 0-.18.01-.246.019l.115-.853h.85v.202zm-2.798 6.936a3.407 3.407 0 0 1 .506-.038c.342 0 .586.08.747.23.164.15.26.364.26.662 0 .3-.093.547-.266.716-.172.173-.456.266-.815.266-.169 0-.31-.008-.432-.022v-1.814zm.238 1.63c.06.01.148.014.241.014.509 0 .785-.285.785-.783.003-.434-.244-.71-.747-.71-.123 0-.216.01-.279.024v1.455zm2.243.189v-.485h-.826v-.158l.793-1.135h.26v1.105h.248v.189h-.249v.484h-.227zm0-.673v-.594c0-.093.003-.186.008-.279h-.009a5.031 5.031 0 0 1-.147.263l-.435.604v.006h.582zm-2.48 6.032a3.407 3.407 0 0 1 .505-.038c.342 0 .585.08.747.23.164.15.26.363.26.662 0 .3-.094.547-.266.716-.172.172-.456.265-.815.265-.169 0-.31-.008-.432-.022v-1.813zm.237 1.63c.06.011.148.014.24.014.51 0 .786-.284.786-.782.002-.435-.244-.711-.747-.711-.124 0-.217.01-.279.024v1.455zm1.556-.087a.804.804 0 0 0 .394.112c.31 0 .405-.197.402-.345-.002-.248-.227-.355-.46-.355h-.133v-.18h.134c.175 0 .396-.09.396-.301 0-.142-.09-.268-.311-.268a.652.652 0 0 0-.356.118l-.063-.175a.844.844 0 0 1 .465-.137c.35 0 .508.208.508.424 0 .183-.11.34-.328.419v.005c.22.044.396.208.396.457 0 .284-.221.533-.648.533a.905.905 0 0 1-.462-.12l.066-.186zm-1.794 5.636a3.408 3.408 0 0 1 .506-.038c.342 0 .586.08.747.23.164.15.26.363.26.661 0 .301-.093.547-.266.717-.172.172-.456.265-.815.265a3.857 3.857 0 0 1-.432-.022v-1.814zm.238 1.63c.06.011.148.014.24.014.51 0 .786-.285.786-.783.003-.434-.244-.71-.747-.71-.124 0-.217.01-.279.024v1.455zm1.5.189v-.148l.188-.183c.454-.432.659-.662.662-.93 0-.18-.088-.348-.353-.348a.605.605 0 0 0-.378.15l-.076-.169a.78.78 0 0 1 .503-.18c.383 0 .545.262.545.517 0 .328-.238.593-.612.954l-.143.132v.006h.799v.2h-1.135zm-1.738 5.36a3.413 3.413 0 0 1 .506-.039c.342 0 .586.08.747.23.164.15.26.363.26.661 0 .301-.093.547-.266.717-.172.172-.456.265-.815.265-.169 0-.31-.008-.432-.022v-1.813zm.238 1.63c.06.01.148.013.24.013.51 0 .786-.284.786-.782.003-.435-.244-.71-.747-.71-.124 0-.217.01-.279.023v1.455zm2.021-1.365h-.005l-.31.167-.046-.183.389-.208h.205v1.777h-.233v-1.553zm-2.259 6.913a3.413 3.413 0 0 1 .506-.038c.342 0 .586.08.747.23.164.15.26.364.26.662 0 .3-.093.547-.266.716-.172.173-.456.266-.815.266-.169 0-.31-.008-.432-.022V96.32zm.238 1.63c.06.012.148.014.24.014.51 0 .786-.285.786-.783.003-.435-.244-.71-.747-.71-.124 0-.217.01-.279.024v1.455zm2.68-.719c0 .605-.224.938-.617.938-.348 0-.583-.325-.588-.913 0-.596.257-.924.618-.924.374 0 .588.334.588.9zm-.965.028c0 .462.142.724.36.724.246 0 .364-.287.364-.74 0-.438-.112-.725-.36-.725-.212 0-.365.257-.365.742zm-.43 7.999a1.179 1.179 0 0 1-.486.087c-.52 0-.911-.328-.911-.932 0-.577.39-.968.962-.968.23 0 .375.049.438.082l-.057.194a.867.867 0 0 0-.372-.077c-.432 0-.72.276-.72.76 0 .451.26.741.709.741.145 0 .292-.03.388-.077l.05.19zm1.275-1.515h-.678l-.069.456c.041-.005.08-.01.145-.01.137 0 .274.03.383.095.14.08.254.233.254.457 0 .347-.276.607-.662.607a.871.871 0 0 1-.443-.11l.06-.182a.794.794 0 0 0 .38.099c.228 0 .422-.148.422-.386-.003-.23-.156-.394-.512-.394-.1 0-.18.011-.246.02l.115-.854h.85v.202zm-1.275 8.694a1.18 1.18 0 0 1-.486.087c-.52 0-.911-.328-.911-.932 0-.577.391-.968.963-.968.23 0 .374.049.437.082l-.057.194a.88.88 0 0 0-.372-.076c-.432 0-.72.276-.72.76 0 .451.26.741.709.741.145 0 .292-.03.388-.076l.05.188zm.958.06v-.484h-.826v-.159l.793-1.135h.26v1.105h.248v.189h-.249v.484h-.227zm0-.673v-.593c0-.093.003-.186.008-.28h-.009a5.012 5.012 0 0 1-.148.264l-.435.605v.005h.583zm-.958 7.791a1.18 1.18 0 0 1-.486.088c-.52 0-.911-.328-.911-.933 0-.577.391-.968.963-.968.23 0 .374.05.437.082l-.057.194a.864.864 0 0 0-.372-.076c-.432 0-.72.276-.72.76 0 .451.26.741.71.741a.95.95 0 0 0 .387-.076l.05.188zm.271-.216a.805.805 0 0 0 .394.112c.31 0 .405-.196.402-.344-.002-.249-.227-.356-.46-.356h-.133v-.18h.134c.175 0 .396-.09.396-.301 0-.142-.09-.268-.311-.268a.652.652 0 0 0-.356.118l-.063-.175a.847.847 0 0 1 .465-.136c.35 0 .508.208.508.424 0 .183-.11.339-.328.418v.005c.22.045.396.209.396.457 0 .285-.221.534-.648.534a.906.906 0 0 1-.462-.12l.066-.186zm-.27 7.395a1.18 1.18 0 0 1-.487.088c-.52 0-.911-.328-.911-.932 0-.577.391-.968.963-.968.23 0 .374.05.437.082l-.057.194a.872.872 0 0 0-.372-.077c-.432 0-.72.277-.72.76 0 .452.26.742.71.742.144 0 .292-.03.387-.077l.05.189zm.213.06v-.147l.189-.183c.454-.432.659-.662.662-.93 0-.18-.088-.347-.353-.347a.603.603 0 0 0-.378.15l-.076-.169a.78.78 0 0 1 .503-.18c.383 0 .545.262.545.516 0 .328-.238.594-.612.955l-.143.131v.005h.799v.2h-1.135zm-.213 7.119a1.18 1.18 0 0 1-.487.087c-.52 0-.911-.328-.911-.932 0-.577.391-.968.963-.968.23 0 .375.049.437.082l-.057.194a.869.869 0 0 0-.372-.077c-.432 0-.72.276-.72.76 0 .451.26.741.71.741.144 0 .292-.03.388-.077l.049.189zm.735-1.494h-.005l-.309.167-.046-.183.388-.208h.205v1.778h-.232v-1.554zm-.735 8.672a1.175 1.175 0 0 1-.487.088c-.52 0-.91-.328-.91-.933 0-.578.39-.969.962-.969.23 0 .375.05.438.082l-.058.194a.87.87 0 0 0-.372-.076c-.432 0-.72.276-.72.76 0 .452.26.741.71.741.144 0 .292-.03.388-.076l.049.188zm1.395-.847c0 .604-.224.938-.618.938-.348 0-.583-.326-.588-.914 0-.596.257-.924.618-.924.374 0 .588.334.588.9zm-.966.027c0 .462.142.725.36.725.247 0 .364-.287.364-.741 0-.438-.112-.725-.36-.725-.211 0-.364.257-.364.741zM1.553 19.174l-.602-1.843h.257l.287.908c.08.249.148.473.197.689h.006c.052-.213.128-.446.21-.686l.312-.911h.254l-.659 1.843h-.262zm1.36-1.843v1.843h-.239v-1.843h.238zm.415 1.843v-1.843h.26l.59.932c.137.216.244.41.332.6l.005-.003a8.15 8.15 0 0 1-.027-.758v-.771h.224v1.843H4.47l-.586-.935a5.793 5.793 0 0 1-.345-.615l-.008.003c.014.233.02.454.02.76v.788h-.225zm-.777 7.097a1.718 1.718 0 0 1-.566.1c-.279 0-.509-.071-.69-.243-.158-.153-.256-.4-.256-.687.002-.55.38-.952.998-.952.213 0 .38.047.46.085l-.058.195a.955.955 0 0 0-.408-.08c-.448 0-.74.28-.74.741 0 .468.281.744.71.744a.784.784 0 0 0 .318-.049v-.55h-.375v-.191h.607v.886zm.364.082v-1.844h.26l.59.933c.137.216.244.411.332.6l.005-.003a8.148 8.148 0 0 1-.027-.757v-.772h.224v1.843h-.241l-.586-.935a5.822 5.822 0 0 1-.345-.616l-.008.003c.014.233.02.454.02.76v.788h-.225zm1.8-1.819a3.41 3.41 0 0 1 .506-.038c.342 0 .585.08.746.23.164.15.26.363.26.661 0 .301-.093.547-.265.717-.173.172-.457.265-.815.265-.17 0-.312-.008-.433-.022v-1.813zm.238 1.63c.06.011.147.014.24.014.51 0 .785-.285.785-.782.003-.435-.243-.711-.746-.711a1.36 1.36 0 0 0-.28.024v1.455zm-3.455 5.727h-.56v-.203h1.364v.203H1.74v1.64h-.24v-1.64zm2.079 1.64l-.235-.407a7.17 7.17 0 0 1-.214-.364h-.005a4.71 4.71 0 0 1-.2.367l-.221.405h-.274l.564-.933-.542-.911h.277l.244.432c.068.12.12.213.17.312h.007a3.74 3.74 0 0 1 .167-.312l.252-.432h.273l-.56.897.574.946h-.276zm-2.429 5.36c.12-.024.293-.038.457-.038.254 0 .418.047.533.15a.46.46 0 0 1 .145.35.484.484 0 0 1-.347.471v.01c.142.048.227.18.27.371.06.257.104.435.143.506h-.246c-.03-.052-.072-.21-.123-.44-.055-.254-.154-.35-.37-.358h-.224v.798h-.238v-1.819zm.238.84h.243c.255 0 .416-.139.416-.35 0-.238-.172-.34-.423-.344a.969.969 0 0 0-.235.022v.673zm2.256.98l-.235-.407a7.296 7.296 0 0 1-.213-.364h-.006a4.707 4.707 0 0 1-.2.366l-.22.405h-.274l.563-.932-.541-.911h.276l.243.432c.069.12.12.213.17.312h.008c.052-.11.098-.195.167-.313l.25-.431h.274l-.56.896.574.946h-.276zM1.45 47.89l-.468-1.843h.252l.218.932c.054.23.104.46.137.637h.005a7.36 7.36 0 0 1 .15-.64l.247-.93h.249l.224.936c.052.218.1.437.128.63h.006c.038-.202.09-.407.147-.637l.244-.93h.243L2.71 47.89h-.249l-.232-.96a5.558 5.558 0 0 1-.12-.602h-.006a5.833 5.833 0 0 1-.142.602l-.263.96H1.45zm2.013-1.843H3.7v.888h.008a4.674 4.674 0 0 1 .145-.197l.564-.691h.295l-.668.782.719 1.06h-.281l-.607-.904-.175.202v.703h-.238v-1.843zm1.482.022a2.74 2.74 0 0 1 .457-.036c.236 0 .408.054.517.153a.494.494 0 0 1 .162.385c0 .167-.05.298-.143.394-.125.134-.33.202-.563.202a.834.834 0 0 1-.191-.017v.739h-.238v-1.821zm.238.888a.798.798 0 0 0 .197.02c.287 0 .462-.14.462-.394 0-.244-.172-.361-.434-.361-.104 0-.184.008-.225.019v.716zM1.148 53.25a3.408 3.408 0 0 1 .506-.038c.342 0 .585.079.747.23.164.15.26.363.26.661 0 .301-.094.547-.266.717-.172.172-.457.265-.815.265-.17 0-.312-.008-.432-.022V53.25zm.238 1.63c.06.01.148.014.24.014.51 0 .786-.285.786-.783.002-.435-.244-.71-.747-.71-.123 0-.216.01-.279.024v1.455zm1.844-.391l-.192.58h-.246l.626-1.844h.287l.63 1.844H4.08l-.197-.58H3.23zm.604-.186l-.18-.53c-.042-.121-.069-.23-.096-.337h-.006a5.598 5.598 0 0 1-.093.333l-.18.533h.555zm2.019.705a1.181 1.181 0 0 1-.487.088c-.52 0-.911-.328-.911-.933 0-.577.39-.968.962-.968.23 0 .375.05.437.082l-.057.194a.867.867 0 0 0-.372-.076c-.432 0-.72.276-.72.76 0 .45.26.74.71.74.144 0 .291-.03.387-.076l.05.188zm-4.407 6.66l-.191.58h-.246l.626-1.844h.287l.63 1.843h-.255l-.197-.58h-.654zm.605-.186l-.181-.531c-.041-.12-.068-.23-.096-.336H1.77a5.597 5.597 0 0 1-.093.333l-.18.534h.554zm1.748-.81H3.12l-.068.457c.04-.006.079-.011.145-.011a.75.75 0 0 1 .383.096c.139.079.254.232.254.456 0 .348-.276.607-.662.607a.872.872 0 0 1-.443-.109l.06-.183a.794.794 0 0 0 .38.1c.227 0 .422-.148.422-.386-.003-.23-.156-.394-.511-.394-.101 0-.18.01-.246.019l.115-.853h.85v.202zm7.788-1.088c-.018-.333-.04-.733-.036-1.03h-.01c-.082.28-.181.577-.301.906l-.422 1.158h-.233l-.386-1.136a10.754 10.754 0 0 1-.276-.927h-.007c-.007.297-.025.697-.046 1.055l-.064 1.023h-.294l.167-2.386h.393l.407 1.154c.099.294.18.556.24.804h.011c.06-.241.145-.503.252-.804l.425-1.154h.393l.149 2.386h-.301l-.06-1.048zm2.874-.17c0 .821-.5 1.257-1.108 1.257-.63 0-1.073-.489-1.073-1.21 0-.758.471-1.254 1.11-1.254.65 0 1.072.5 1.072 1.207zm-1.852.039c0 .51.277.967.761.967.489 0 .765-.45.765-.992 0-.474-.247-.97-.76-.97-.51 0-.765.471-.765.995zm2.252-1.175a4.41 4.41 0 0 1 .655-.05c.442 0 .757.103.966.298.212.195.336.471.336.857 0 .39-.121.708-.344.928-.223.223-.591.343-1.055.343-.22 0-.404-.01-.56-.028v-2.347zm.308 2.11c.077.014.19.017.311.017.659 0 1.016-.368 1.016-1.012.004-.563-.315-.92-.966-.92-.16 0-.28.013-.361.031v1.884zm3.284-.875h-.927v.86h1.034v.259h-1.342v-2.387h1.288v.258h-.98v.754h.927v.255zm20.749-1.235c.156-.032.379-.05.591-.05.33 0 .542.061.69.195.12.106.188.27.188.453 0 .315-.198.524-.449.61v.01c.184.064.294.234.351.482.078.333.135.563.184.655h-.318c-.04-.067-.092-.273-.16-.57-.07-.33-.198-.453-.478-.464h-.29v1.034h-.309v-2.355zm.308 1.086h.315c.33 0 .538-.18.538-.453 0-.308-.223-.442-.549-.446a1.26 1.26 0 0 0-.304.029v.87zm2.832.15h-.928v.86h1.034v.258h-1.342v-2.387h1.289v.258h-.981v.754h.927v.255zm.463.743c.139.085.34.155.553.155.315 0 .499-.166.499-.407 0-.223-.128-.35-.45-.474-.389-.14-.63-.34-.63-.677 0-.372.308-.648.772-.648.244 0 .422.057.528.117l-.085.25a.951.951 0 0 0-.453-.112c-.326 0-.45.194-.45.357 0 .223.146.333.475.46.404.156.609.35.609.701 0 .368-.273.687-.836.687-.23 0-.481-.067-.609-.152l.078-.259zm3.023-.744h-.927v.86h1.033v.259h-1.341v-2.387h1.288v.258h-.98v.754h.926v.255zm1.016-1.005h-.726v-.262h1.767v.262h-.73v2.124h-.312v-2.124zM1.446 68.845l-.191.58h-.246l.626-1.843h.287l.63 1.844h-.255l-.197-.58h-.654zm.605-.186l-.18-.53c-.042-.12-.069-.23-.096-.337H1.77a5.597 5.597 0 0 1-.093.334l-.18.533h.555zm1.43.766v-.484h-.826v-.159l.793-1.135h.26v1.105h.25v.189h-.25v.484h-.227zm0-.673v-.593c0-.093.003-.186.008-.28h-.008a5.028 5.028 0 0 1-.147.263l-.435.605v.005h.582zm-2.035 7.272l-.191.58h-.246l.626-1.844h.287l.63 1.844h-.255l-.197-.58h-.654zm.605-.186l-.18-.53c-.042-.121-.069-.23-.096-.337H1.77a5.597 5.597 0 0 1-.093.334l-.18.533h.555zm.744.49a.805.805 0 0 0 .394.111c.309 0 .405-.196.402-.344-.003-.248-.227-.355-.46-.355h-.134v-.18h.134c.175 0 .397-.09.397-.3 0-.143-.09-.269-.312-.269a.65.65 0 0 0-.355.118l-.063-.175a.846.846 0 0 1 .465-.137c.35 0 .51.208.51.424 0 .183-.11.34-.329.419v.005c.219.044.397.208.397.457 0 .284-.222.533-.649.533a.904.904 0 0 1-.462-.12l.066-.186zm-1.349 6.875l-.191.58h-.246l.626-1.844h.287l.63 1.844h-.255l-.197-.58h-.654zm.605-.186l-.181-.531c-.041-.12-.068-.23-.096-.336H1.77a5.597 5.597 0 0 1-.093.333l-.18.534h.554zm.686.765v-.147l.189-.184c.454-.432.659-.661.662-.93 0-.18-.088-.347-.353-.347a.605.605 0 0 0-.377.15l-.077-.169a.78.78 0 0 1 .503-.18c.383 0 .545.262.545.517 0 .328-.239.593-.613.954l-.143.132v.006h.798v.2H2.737zm-1.29 6.6l-.192.58h-.246l.626-1.844h.287l.63 1.843h-.255l-.197-.58h-.654zm.604-.187l-.181-.53c-.041-.12-.068-.23-.096-.337H1.77a5.605 5.605 0 0 1-.093.334l-.18.534h.554zm1.209-.787h-.006l-.309.167-.046-.184.388-.208h.205v1.778H3.26v-1.553zM1.446 97.56l-.191.58h-.246l.626-1.843h.287l.63 1.843h-.255l-.197-.58h-.654zm.605-.186l-.18-.53c-.042-.12-.069-.23-.096-.337H1.77a5.605 5.605 0 0 1-.093.334l-.18.533h.555zm1.868-.142c0 .604-.224.938-.618.938-.348 0-.583-.326-.588-.913 0-.597.257-.925.618-.925.374 0 .588.334.588.9zm-.966.027c0 .462.143.725.361.725.247 0 .364-.287.364-.741 0-.438-.112-.725-.36-.725-.21 0-.364.257-.364.742zm-1.805 6.24c.104-.021.268-.037.435-.037.238 0 .391.04.506.134.096.07.153.18.153.325 0 .178-.117.334-.312.405v.006c.175.044.38.19.38.462a.495.495 0 0 1-.155.37c-.129.117-.337.172-.637.172a2.77 2.77 0 0 1-.37-.022V103.5zm.238.756h.216c.252 0 .4-.132.4-.31 0-.215-.165-.3-.405-.3-.11 0-.173.008-.21.016v.594zm0 .883c.047.01.115.011.2.011.246 0 .473-.09.473-.358 0-.25-.217-.355-.476-.355h-.197v.703zm2.221-1.394h-.678l-.069.457c.041-.005.08-.011.145-.011.137 0 .274.03.383.096.14.08.255.232.255.456 0 .348-.277.607-.662.607a.87.87 0 0 1-.443-.109l.06-.183a.794.794 0 0 0 .38.099c.227 0 .42-.148.42-.386-.002-.23-.155-.394-.511-.394-.101 0-.18.011-.246.02l.115-.854h.85v.203zm-2.459 6.935a2.3 2.3 0 0 1 .435-.038c.238 0 .391.04.506.134.096.07.153.18.153.325 0 .178-.117.334-.312.405v.005c.175.044.38.19.38.463a.497.497 0 0 1-.155.369c-.129.117-.337.172-.637.172a2.77 2.77 0 0 1-.37-.022v-1.813zm.238.755h.216c.252 0 .4-.132.4-.31 0-.215-.165-.3-.405-.3-.11 0-.173.008-.21.016v.593zm0 .883c.047.008.115.01.2.01.246 0 .473-.09.473-.358 0-.251-.217-.355-.476-.355h-.197v.703zm1.904.18v-.484h-.826v-.159l.793-1.135h.259v1.105h.249v.189h-.25v.484H3.29zm0-.673v-.593c0-.093.002-.186.008-.28h-.01a5.01 5.01 0 0 1-.147.263l-.435.605v.005h.582zm-2.142 6.034c.104-.022.268-.039.435-.039.238 0 .391.041.506.134.096.071.153.181.153.326 0 .178-.118.334-.312.405v.005c.175.044.38.189.38.462a.497.497 0 0 1-.156.37c-.128.116-.336.171-.637.171a2.77 2.77 0 0 1-.369-.022v-1.813zm.238.755h.216c.252 0 .4-.132.4-.31 0-.216-.165-.3-.405-.3a.997.997 0 0 0-.21.017v.593zm0 .883c.046.008.115.01.2.01.246 0 .473-.09.473-.358 0-.251-.217-.355-.476-.355h-.197v.703zm1.217-.096a.805.805 0 0 0 .394.112c.31 0 .405-.197.402-.344-.003-.25-.227-.356-.46-.356h-.133v-.18h.134c.175 0 .396-.09.396-.302 0-.142-.09-.268-.312-.268a.652.652 0 0 0-.355.118l-.063-.175a.848.848 0 0 1 .465-.136c.35 0 .509.208.509.424 0 .183-.11.34-.329.419v.005c.22.044.397.208.397.457 0 .285-.222.533-.648.533a.906.906 0 0 1-.462-.12l.065-.186zm-1.455 5.636a2.3 2.3 0 0 1 .435-.038c.238 0 .391.04.506.134.096.07.153.18.153.325 0 .178-.118.334-.312.405v.006c.175.043.38.188.38.462a.496.496 0 0 1-.156.369c-.128.118-.336.172-.637.172a2.77 2.77 0 0 1-.369-.022v-1.813zm.238.755h.216c.252 0 .4-.131.4-.31 0-.215-.165-.3-.405-.3-.11 0-.173.008-.21.016v.594zm0 .883c.046.009.115.011.2.011.246 0 .473-.09.473-.358 0-.25-.217-.355-.476-.355h-.197v.703zm1.16.18v-.147l.189-.183c.453-.432.659-.662.661-.93 0-.18-.087-.347-.352-.347a.602.602 0 0 0-.378.151l-.076-.17a.78.78 0 0 1 .503-.18c.383 0 .544.263.544.517 0 .328-.238.594-.613.955l-.142.13v.006h.799v.2H2.546zm-1.398 5.36c.104-.021.268-.037.435-.037.238 0 .391.04.506.134.096.07.153.18.153.325 0 .177-.117.333-.312.404v.005c.175.044.38.19.38.463a.497.497 0 0 1-.156.369c-.128.117-.336.172-.637.172a2.77 2.77 0 0 1-.369-.022v-1.813zm.238.756h.216c.252 0 .4-.132.4-.31 0-.215-.165-.3-.405-.3-.11 0-.173.008-.21.016v.594zm0 .883c.046.008.115.011.2.011.246 0 .473-.091.473-.359 0-.252-.217-.356-.476-.356h-.197v.703zm1.682-1.373h-.005l-.31.167-.046-.184.388-.208H3.3v1.778h-.232v-1.553zm-1.92 6.913c.104-.022.268-.038.435-.038.238 0 .391.04.506.134.096.07.153.18.153.325 0 .178-.117.334-.312.405v.006c.175.043.38.188.38.462a.497.497 0 0 1-.156.369c-.128.117-.336.172-.637.172a2.77 2.77 0 0 1-.369-.022v-1.814zm.238.755h.216c.252 0 .4-.131.4-.31 0-.215-.165-.3-.405-.3-.11 0-.173.008-.21.016v.594zm0 .883c.046.008.115.011.2.011.246 0 .473-.09.473-.358 0-.252-.217-.356-.476-.356h-.197v.703zm2.341-.727c0 .604-.224.938-.618.938-.347 0-.582-.326-.588-.914 0-.596.257-.924.618-.924.375 0 .588.334.588.9zm-.965.027c0 .462.142.725.36.725.247 0 .364-.287.364-.741 0-.438-.112-.725-.361-.725-.211 0-.364.257-.364.741z" fill="#00a9f3"/><path d="M50.048 42.064c.022.145.039.317.039.506 0 .341-.08.585-.23.746-.15.164-.364.26-.662.26-.301 0-.547-.093-.717-.265-.172-.172-.265-.457-.265-.815a4 4 0 0 1 .022-.432h1.814zm-1.63.238c-.01.06-.013.147-.013.24 0 .509.284.785.782.785.435.003.71-.243.71-.746 0-.123-.01-.216-.024-.28h-1.455zm1.59 2.653h-.16l-1.618-.774v-.25l1.572.772h.006v-.87h.2v1.122z" fill="#404040"/><text transform="translate(51.672 11.37)" fill="#404040" font-family="Gotham-Medium" font-size="1.886">VUSB</text><circle cx="54.344" cy="7.08" r="1.834" fill="#f2f2f2"/><path d="M54.344 5.698a1.383 1.383 0 0 1 0 2.763c-.762 0-1.381-.62-1.381-1.381s.62-1.382 1.381-1.382m0-.691a2.073 2.073 0 1 0 0 4.145 2.073 2.073 0 0 0 0-4.145z" fill="#fbae17"/><path d="M.002 4.451h5.38c.697 0 1.267.57 1.267 1.267v4.333a1.27 1.27 0 0 1-1.266 1.266H.002V4.451z" fill="#00a9f3"/><circle cx="3.216" cy="7.08" r="1.834" fill="#f2f2f2"/><path d="M3.216 5.698a1.383 1.383 0 0 1 0 2.763c-.761 0-1.381-.62-1.381-1.381s.62-1.382 1.381-1.382m0-.691a2.073 2.073 0 1 0 0 4.145 2.073 2.073 0 0 0 0-4.145z" fill="#fbae17"/><path d="M1.606 9.637h.21v1.45h.695v.176h-.905V9.637zm1.369.13c.002.072-.05.13-.135.13a.126.126 0 0 1-.128-.13.13.13 0 0 1 .133-.132c.08 0 .13.058.13.133zm-.237 1.496v-1.168h.213v1.168h-.213zm1.32-1.284v.567h.546v.145h-.546v.572h-.154v-.572h-.546v-.145h.546V9.98h.154z" fill="#404040"/><path d="M43.042 19.559a.9.9 0 0 1 0 1.798.9.9 0 0 1 0-1.798m0-.451a1.35 1.35 0 1 0 0 2.698 1.35 1.35 0 0 0 0-2.698zm-3.52.45a.9.9 0 1 1-.001 1.801.9.9 0 0 1 .002-1.8m0-.451a1.35 1.35 0 1 0 0 2.697 1.35 1.35 0 0 0 0-2.697z" fill="#fbae17"/><path fill="#F03" d="M24.145 31.427h1.956v3.098h-1.956z"/></svg>