<svg xmlns="http://www.w3.org/2000/svg" viewBox="0 0 147.2610168 57.5999985"><path d="M143.06 0H7L0 3.62v50.12l7 3.86h136.06V0zm-17.568 43.06a1.297 1.297 0 1 1 2.595 0 1.297 1.297 0 0 1-2.595 0zm12.04 10.758a2.095 2.095 0 1 1 4.19 0 2.095 2.095 0 0 1-4.19 0zm0-50.01a2.095 2.095 0 1 1 4.19 0 2.095 2.095 0 0 1-4.19 0zm-12.04 35.715a1.297 1.297 0 1 1 2.595 0 1.297 1.297 0 0 1-2.595 0z" fill="#404040"/><path fill="#666" d="M122.078 49.542h3.063v1.18h-3.062z"/><text transform="rotate(90 52.318 66.65)" fill="#00a9f3" font-family="MyriadPro-Bold" font-size="3.475">+</text><path fill="#006900" d="M12.2 6.286h73.342V51.02h-73.34z"/><path fill="#b2b2b2" d="M78.13 7.024h6.39v4.147h-6.39z"/><path fill="#CCC" d="M12.836 7.024h5.277v4.147h-5.277z"/><path fill="#d29a33" d="M77.846 15.028h6.39v6.88h-6.39z"/><path fill="#a8916f" d="M13.57 16.384h3.595v5.524H13.57zm4.14 30.408h4.253v3.44H17.71zm6.344 0h4.252v3.44h-4.252zm6.344 0h4.252v3.44h-4.252zm6.344 0h4.252v3.44h-4.252zm6.343 0h4.252v3.44h-4.252zm6.345 0h4.25v3.44h-4.25zm6.343 0h4.252v3.44h-4.252zm6.343 0h4.252v3.44h-4.252zm6.344 0h4.252v3.44H68.46zm6.344 0h4.252v3.44h-4.252zM17.71 7.024h4.253v3.44H17.71zm6.344 0h4.252v3.44h-4.252zm6.344 0h4.252v3.44h-4.252zm6.344 0h4.252v3.44h-4.252zm6.343 0h4.252v3.44h-4.252zm6.345 0h4.25v3.44h-4.25zm6.343 0h4.252v3.44h-4.252zm6.343 0h4.252v3.44h-4.252zm6.344 0h4.252v3.44H68.46zm6.344 0h4.252v3.44h-4.252z"/><path fill="#b2b2b2" d="M80.59 44.45h3.93v5.78h-3.93z"/><path fill="#CCC" d="M12.836 45.377h3.93v4.854h-3.93zm0-12.662h3.93v9.302h-3.93z"/><path fill="#b2b2b2" d="M78.13 24.788h6.39v4.147h-6.39zm0 13.726h6.39v4.147h-6.39z"/><path fill="#b2b2b2" d="M14 7.685h69.742V49.62H14z"/><path opacity=".35" fill="#e6e6e6" d="M14 49.62l40.63-10.718L83.742 7.685V49.62z"/><path d="M79.724 47.27H18.018a2.178 2.178 0 0 1-2.178-2.177v-32.88c0-1.202.976-2.177 2.178-2.177h61.706c1.203 0 2.178.975 2.178 2.178v32.88a2.178 2.178 0 0 1-2.178 2.177z" fill="#f2f2f2"/><path d="M34.274 33.562l.135-1.312h1.24v.34h-.914l-.07.6a.652.652 0 0 1 .377-.12c.22-.003.39.065.51.204.122.14.183.332.183.577a.826.826 0 0 1-.192.57c-.128.144-.32.217-.575.217a.826.826 0 0 1-.526-.167c-.143-.112-.21-.27-.206-.478l.003-.008.37-.01c0 .11.033.194.1.256a.364.364 0 0 0 .26.093c.12 0 .215-.04.278-.124a.554.554 0 0 0 .095-.345.544.544 0 0 0-.098-.34.333.333 0 0 0-.28-.13.443.443 0 0 0-.24.053.293.293 0 0 0-.115.152l-.336-.028zm-1.77 0l.135-1.312h1.24v.34h-.914l-.07.6a.652.652 0 0 1 .377-.12c.22-.003.39.065.51.204.122.14.183.332.183.577a.826.826 0 0 1-.192.57c-.128.144-.32.217-.575.217a.826.826 0 0 1-.526-.167c-.143-.112-.21-.27-.206-.478l.003-.008.37-.01c0 .11.033.194.1.256a.364.364 0 0 0 .26.093c.12 0 .215-.04.278-.124a.554.554 0 0 0 .096-.345.544.544 0 0 0-.1-.34.333.333 0 0 0-.28-.13.443.443 0 0 0-.24.053.293.293 0 0 0-.114.152l-.336-.028zm-1.77 0l.135-1.312h1.24v.34h-.914l-.07.6a.652.652 0 0 1 .377-.12c.22-.003.39.065.51.204.122.14.183.332.183.577a.826.826 0 0 1-.192.57c-.128.144-.32.217-.575.217a.826.826 0 0 1-.526-.167c-.143-.112-.21-.27-.206-.478l.003-.008.37-.01c0 .11.033.194.1.256a.364.364 0 0 0 .26.093c.12 0 .215-.04.278-.124a.554.554 0 0 0 .096-.345.544.544 0 0 0-.1-.34.333.333 0 0 0-.28-.13.443.443 0 0 0-.24.053.293.293 0 0 0-.114.152l-.336-.028zm-1.77 0l.135-1.312h1.24v.34h-.914l-.07.6a.652.652 0 0 1 .377-.12c.22-.003.39.065.51.204.122.14.183.332.183.577a.826.826 0 0 1-.192.57c-.128.144-.32.217-.575.217a.826.826 0 0 1-.526-.167c-.143-.112-.21-.27-.206-.478l.003-.008.37-.01c0 .11.033.194.1.256a.364.364 0 0 0 .26.093c.122 0 .215-.04.278-.124a.554.554 0 0 0 .096-.345.544.544 0 0 0-.1-.34.333.333 0 0 0-.28-.13.443.443 0 0 0-.24.053.293.293 0 0 0-.114.152l-.336-.028zm-4.782 8.028h-.7v.74h-.29v-1.738h1.112v.233h-.823v.53h.702v.234zm1.633.172l.003.007a.536.536 0 0 1-.17.423c-.118.108-.276.162-.475.162a.638.638 0 0 1-.492-.205.742.742 0 0 1-.187-.523v-.33a.75.75 0 0 1 .186-.524.624.624 0 0 1 .485-.206c.204 0 .365.052.483.156a.53.53 0 0 1 .17.43l-.002.006h-.28c0-.117-.03-.206-.094-.268-.063-.062-.156-.092-.277-.092a.33.33 0 0 0-.28.14.58.58 0 0 0-.103.354v.333a.57.57 0 0 0 .105.356.34.34 0 0 0 .286.14c.12 0 .21-.03.27-.093.062-.062.093-.15.093-.268h.28zm1.552 0l.003.007a.536.536 0 0 1-.17.423c-.118.108-.276.162-.475.162a.638.638 0 0 1-.492-.205.742.742 0 0 1-.19-.523v-.33a.75.75 0 0 1 .188-.524.624.624 0 0 1 .487-.206c.204 0 .365.052.482.156a.53.53 0 0 1 .17.43l-.002.006h-.28c0-.117-.032-.206-.095-.268-.062-.062-.155-.092-.276-.092a.33.33 0 0 0-.28.14.58.58 0 0 0-.104.354v.333c0 .144.035.263.105.356a.34.34 0 0 0 .287.14c.12 0 .21-.03.27-.093.062-.062.093-.15.093-.268h.28zm1.205.568h-.29v-1.738h.29v1.738zm.388 0v-1.738h.575c.22 0 .4.07.538.206a.718.718 0 0 1 .207.53v.265a.72.72 0 0 1-.207.532.73.73 0 0 1-.538.205h-.574zm.29-1.505v1.273h.285a.42.42 0 0 0 .332-.14.534.534 0 0 0 .123-.365v-.266a.53.53 0 0 0-.123-.36.417.417 0 0 0-.332-.142h-.284zm2.246.459h-.288v-.278h.288v.278zm0 1.046h-.288v-.278h.288v.278zm1.569-1.096l.366-.642h.345l-.535.862.555.876h-.348l-.377-.653-.378.653h-.343l.545-.876-.534-.862h.342l.363.642zm1.249.436v.66h-.29v-1.738h.666c.19 0 .342.05.45.148.11.1.163.23.163.39a.503.503 0 0 1-.163.394c-.108.098-.26.147-.45.147h-.376zm0-.232h.376c.107 0 .188-.03.242-.086a.305.305 0 0 0 .08-.218.314.314 0 0 0-.08-.22c-.054-.06-.135-.09-.242-.09h-.376v.614zm1.856-.001l.42-.845h.324l-.603 1.13v.608h-.288v-.626l-.593-1.112h.322l.42.845zm1.86.446a.228.228 0 0 0-.078-.177.71.71 0 0 0-.273-.125 1.164 1.164 0 0 1-.434-.202.407.407 0 0 1-.152-.33c0-.14.056-.254.167-.345s.256-.136.43-.136a.65.65 0 0 1 .45.15.46.46 0 0 1 .164.374l-.002.008h-.28a.278.278 0 0 0-.09-.22.352.352 0 0 0-.244-.08.334.334 0 0 0-.226.07.227.227 0 0 0-.08.18.2.2 0 0 0 .088.164.947.947 0 0 0 .29.123c.18.05.32.12.415.21.096.087.144.2.144.336a.41.41 0 0 1-.17.346.716.716 0 0 1-.446.13.773.773 0 0 1-.462-.142.446.446 0 0 1-.19-.397v-.008h.28c0 .104.037.182.11.235.07.053.158.08.262.08a.387.387 0 0 0 .24-.066.21.21 0 0 0 .085-.177zm1.49.041h-.615l-.134.406h-.3l.608-1.738h.276l.6 1.738h-.3l-.133-.406zm-.535-.242h.457l-.223-.686h-.008l-.227.686zm1.473-.072v.72h-.29v-1.738h.598c.193 0 .343.044.45.13a.46.46 0 0 1 .158.376c0 .09-.024.167-.07.232a.48.48 0 0 1-.204.156c.098.03.17.08.212.152.043.07.065.156.065.26v.144c0 .05.007.1.02.15a.208.208 0 0 0 .062.11v.028h-.3a.19.19 0 0 1-.06-.123 1.08 1.08 0 0 1-.013-.167v-.14a.29.29 0 0 0-.077-.212.28.28 0 0 0-.21-.08h-.342zm0-.234h.292c.117 0 .2-.022.255-.067.053-.045.08-.113.08-.205a.27.27 0 0 0-.08-.206c-.052-.05-.132-.075-.24-.075h-.307v.55zm2.17.548h-.616l-.134.406h-.3l.607-1.738h.276l.6 1.738h-.3l-.132-.406zm-.536-.242h.457l-.224-.686h-.007l-.228.686zm2.49-1.09v1.145a.568.568 0 0 1-.19.454.726.726 0 0 1-.49.165.702.702 0 0 1-.484-.164.574.574 0 0 1-.186-.453v-1.145h.29v1.145a.38.38 0 0 0 .104.285c.07.068.16.1.275.1a.398.398 0 0 0 .285-.1c.072-.067.107-.162.107-.285v-1.145h.29zm1.438 1.738H44.9v-.2l.542-.627c.088-.105.15-.19.184-.258a.432.432 0 0 0 .05-.195.262.262 0 0 0-.06-.18c-.042-.047-.102-.07-.18-.07a.25.25 0 0 0-.205.087.335.335 0 0 0-.07.22h-.282l-.002-.008a.496.496 0 0 1 .147-.38.557.557 0 0 1 .414-.153c.166 0 .296.044.39.133.093.09.14.207.14.35 0 .1-.026.19-.078.277-.053.086-.14.2-.258.345l-.367.42.003.006h.752v.232zm.89-1.763a.957.957 0 0 1 .364.07l-.056.226a.75.75 0 0 0-.308-.06.307.307 0 0 0-.256.127.543.543 0 0 0-.097.337v.09a.5.5 0 0 1 .168-.11.566.566 0 0 1 .214-.038c.148 0 .265.05.35.153a.61.61 0 0 1 .13.403.6.6 0 0 1-.155.427.535.535 0 0 1-.407.162.544.544 0 0 1-.424-.185c-.11-.123-.166-.292-.166-.506v-.38c0-.212.06-.385.183-.518a.596.596 0 0 1 .46-.2zm-.066.868a.378.378 0 0 0-.176.037.275.275 0 0 0-.11.103v.104a.55.55 0 0 0 .084.325c.056.08.128.118.216.118.085 0 .15-.033.2-.1s.072-.152.072-.257a.363.363 0 0 0-.076-.242.26.26 0 0 0-.21-.09zm1.938.273c0 .2-.052.358-.155.474a.527.527 0 0 1-.413.173.532.532 0 0 1-.416-.174c-.104-.115-.156-.272-.156-.472v-.493c0-.2.052-.358.155-.474a.527.527 0 0 1 .414-.173.53.53 0 0 1 .416.174c.104.117.156.275.156.475v.493zm-.29-.537a.445.445 0 0 0-.074-.272.244.244 0 0 0-.207-.098.242.242 0 0 0-.205.098.45.45 0 0 0-.073.273v.58c0 .117.025.21.074.275.05.066.12.098.208.098a.24.24 0 0 0 .206-.098.457.457 0 0 0 .072-.275v-.58zm-27.957-6.568h-.392V32.25h.392v2.353zm1.718-.543h.01l.68-1.81h.5v2.353h-.39v-1.69l-.01-.002-.65 1.693h-.27l-.658-1.725-.01.004v1.72h-.393V32.25h.516l.675 1.81zm3.002-.516h-.922v.745h1.086v.313h-1.48V32.25h1.468v.315h-1.075v.664h.922v.314zm.943 1.059h-.392V32.25h.392v2.353zm.918-1.416h-.39v-.376h.39v.377zm0 1.416h-.39v-.377h.39v.377zm19.708-1.041l.136-1.312h1.24v.34h-.914l-.07.6a.652.652 0 0 1 .377-.12c.22-.003.39.065.51.204.123.14.184.332.184.577a.826.826 0 0 1-.193.57c-.128.144-.32.217-.575.217a.826.826 0 0 1-.525-.167c-.143-.112-.212-.27-.206-.478l.002-.008.368-.01c0 .11.033.194.1.256a.364.364 0 0 0 .26.093c.122 0 .215-.04.28-.124a.554.554 0 0 0 .094-.345.544.544 0 0 0-.1-.34.333.333 0 0 0-.28-.13.443.443 0 0 0-.24.053.293.293 0 0 0-.114.152l-.336-.028zm-1.77 0l.136-1.312h1.24v.34h-.914l-.07.6a.652.652 0 0 1 .377-.12c.22-.003.39.065.51.204.123.14.184.332.184.577a.826.826 0 0 1-.193.57c-.128.144-.32.217-.575.217a.826.826 0 0 1-.525-.167c-.143-.112-.212-.27-.206-.478l.002-.008.368-.01c0 .11.033.194.1.256a.364.364 0 0 0 .26.093c.122 0 .215-.04.28-.124a.554.554 0 0 0 .094-.345.544.544 0 0 0-.1-.34.333.333 0 0 0-.28-.13.443.443 0 0 0-.24.053.293.293 0 0 0-.114.152l-.336-.028zm-1.77 0l.136-1.312h1.24v.34h-.914l-.07.6a.652.652 0 0 1 .378-.12c.218-.003.388.065.51.204.122.14.183.332.183.577a.826.826 0 0 1-.192.57c-.13.144-.32.217-.576.217a.826.826 0 0 1-.525-.167c-.143-.112-.212-.27-.206-.478l.002-.008.368-.01c0 .11.033.194.1.256a.364.364 0 0 0 .26.093c.122 0 .215-.04.28-.124a.554.554 0 0 0 .094-.345.544.544 0 0 0-.098-.34.333.333 0 0 0-.282-.13.443.443 0 0 0-.24.053.293.293 0 0 0-.114.152l-.336-.028zm-1.77 0l.136-1.312h1.24v.34h-.914l-.07.6a.652.652 0 0 1 .378-.12c.218-.003.39.065.51.204.122.14.183.332.183.577a.826.826 0 0 1-.192.57c-.13.144-.32.217-.576.217a.826.826 0 0 1-.525-.167c-.143-.112-.212-.27-.206-.478l.002-.008.368-.01c0 .11.034.194.1.256a.364.364 0 0 0 .26.093c.122 0 .215-.04.28-.124a.554.554 0 0 0 .094-.345.544.544 0 0 0-.098-.34.333.333 0 0 0-.282-.13.443.443 0 0 0-.24.053.293.293 0 0 0-.114.152l-.336-.028zm-1.85 0l.136-1.312h1.24v.34h-.914l-.07.6a.652.652 0 0 1 .377-.12c.22-.003.39.065.51.204.123.14.183.332.183.577a.826.826 0 0 1-.192.57c-.128.144-.32.217-.575.217a.826.826 0 0 1-.526-.167c-.142-.112-.21-.27-.206-.478l.004-.008.368-.01c0 .11.033.194.1.256a.364.364 0 0 0 .26.093c.122 0 .215-.04.278-.124a.554.554 0 0 0 .096-.345.544.544 0 0 0-.1-.34.333.333 0 0 0-.28-.13.443.443 0 0 0-.24.053.293.293 0 0 0-.114.152l-.336-.028zm-1.77 0l.136-1.312h1.24v.34h-.914l-.07.6a.652.652 0 0 1 .377-.12c.22-.003.39.065.51.204.123.14.184.332.184.577a.826.826 0 0 1-.193.57c-.128.144-.32.217-.575.217a.826.826 0 0 1-.526-.167c-.142-.112-.21-.27-.206-.478l.004-.008.368-.01c0 .11.033.194.1.256a.364.364 0 0 0 .26.093c.122 0 .215-.04.278-.124a.554.554 0 0 0 .096-.345.544.544 0 0 0-.1-.34.333.333 0 0 0-.28-.13.443.443 0 0 0-.24.053.293.293 0 0 0-.114.152l-.336-.028zm-1.77 0l.136-1.312h1.24v.34h-.914l-.07.6a.652.652 0 0 1 .377-.12c.22-.003.39.065.51.204.123.14.184.332.184.577a.826.826 0 0 1-.193.57c-.128.144-.32.217-.575.217a.826.826 0 0 1-.525-.167c-.143-.112-.212-.27-.207-.478l.004-.008.368-.01c0 .11.033.194.1.256a.364.364 0 0 0 .26.093c.122 0 .215-.04.28-.124a.554.554 0 0 0 .094-.345.544.544 0 0 0-.1-.34.333.333 0 0 0-.28-.13.443.443 0 0 0-.24.053.293.293 0 0 0-.114.152l-.336-.028zM21.53 28.948c0 .118-.03.223-.094.314a.623.623 0 0 1-.26.21.71.71 0 0 1 .31.226c.077.1.116.213.116.342 0 .22-.073.388-.22.508a.85.85 0 0 1-.556.18c-.24 0-.434-.06-.586-.18a.616.616 0 0 1-.227-.508c0-.13.04-.243.12-.342a.718.718 0 0 1 .32-.225.637.637 0 0 1-.268-.21.523.523 0 0 1-.1-.315c0-.208.07-.367.205-.477.135-.11.313-.164.533-.164.208 0 .378.055.51.166.132.11.198.27.198.476zm-.392.014c0-.1-.03-.183-.09-.246a.297.297 0 0 0-.225-.095.344.344 0 0 0-.25.093c-.063.06-.094.144-.094.25s.03.19.096.255a.337.337 0 0 0 .25.098c.09 0 .165-.032.224-.098a.368.368 0 0 0 .088-.256zm.073 1.064a.383.383 0 0 0-.387-.395.42.42 0 0 0-.3.112.372.372 0 0 0-.117.284c0 .117.04.21.117.282.078.07.18.106.303.106.11 0 .202-.036.275-.106a.373.373 0 0 0 .11-.282zm2.245-.176c0 .273-.07.487-.21.643a.714.714 0 0 1-.56.234.72.72 0 0 1-.562-.235c-.14-.157-.212-.37-.212-.64v-.668c0-.27.07-.485.21-.642.14-.157.327-.236.56-.236s.422.08.563.236c.14.157.21.37.21.642v.667zm-.393-.726a.602.602 0 0 0-.1-.37.33.33 0 0 0-.28-.133.327.327 0 0 0-.28.135.61.61 0 0 0-.098.37v.783c0 .16.033.283.1.372a.33.33 0 0 0 .28.134.327.327 0 0 0 .28-.133c.065-.087.098-.212.098-.372v-.784zm1.5.206c.127 0 .22-.033.275-.096a.39.39 0 0 0 .084-.267c0-.102-.03-.186-.09-.25s-.15-.096-.263-.096a.38.38 0 0 0-.264.096.305.305 0 0 0-.105.237h-.376l-.003-.01a.544.544 0 0 1 .207-.454.808.808 0 0 1 .542-.184c.23 0 .41.056.543.17.133.112.2.276.2.49a.53.53 0 0 1-.088.298c-.06.09-.14.16-.245.21.12.048.21.12.275.215.063.094.095.21.095.344a.63.63 0 0 1-.218.51.842.842 0 0 1-.563.183.884.884 0 0 1-.545-.175.547.547 0 0 1-.227-.48l.004-.01h.378c0 .1.036.183.11.25a.39.39 0 0 0 .28.102.38.38 0 0 0 .282-.106.37.37 0 0 0 .105-.273c0-.133-.033-.233-.098-.3-.066-.064-.165-.097-.297-.097H24.3v-.31h.263zm2.655.52c0 .273-.07.487-.21.643a.714.714 0 0 1-.56.234.72.72 0 0 1-.562-.235c-.14-.157-.21-.37-.21-.64v-.668c0-.27.07-.485.21-.642.14-.157.326-.236.56-.236s.42.08.56.236c.142.157.212.37.212.642v.667zm-.393-.726a.602.602 0 0 0-.1-.37.33.33 0 0 0-.28-.133.327.327 0 0 0-.28.135.61.61 0 0 0-.098.37v.783c0 .16.034.283.1.372a.33.33 0 0 0 .282.134c.12 0 .212-.045.278-.133.065-.087.097-.212.097-.372v-.784zm2.275.726c0 .273-.07.487-.21.643a.714.714 0 0 1-.56.234.72.72 0 0 1-.562-.235c-.14-.157-.212-.37-.212-.64v-.668c0-.27.07-.485.21-.642a.714.714 0 0 1 .56-.236c.235 0 .422.08.562.236.14.157.21.37.21.642v.667zm-.393-.726a.602.602 0 0 0-.1-.37.33.33 0 0 0-.28-.133.327.327 0 0 0-.28.135.61.61 0 0 0-.098.37v.783c0 .16.032.283.1.372a.33.33 0 0 0 .28.134c.12 0 .214-.045.28-.133a.622.622 0 0 0 .097-.372v-.784zm2.273.726c0 .273-.07.487-.21.643a.714.714 0 0 1-.56.234.72.72 0 0 1-.56-.235c-.142-.157-.213-.37-.213-.64v-.668c0-.27.07-.485.21-.642.14-.157.327-.236.56-.236s.422.08.563.236c.14.157.21.37.21.642v.667zm-.392-.726a.602.602 0 0 0-.1-.37.33.33 0 0 0-.28-.133.327.327 0 0 0-.28.135.61.61 0 0 0-.098.37v.783c0 .16.033.283.1.372a.33.33 0 0 0 .28.134.327.327 0 0 0 .28-.133c.065-.087.098-.212.098-.372v-.784zm2.274.726c0 .273-.07.487-.21.643a.714.714 0 0 1-.56.234.72.72 0 0 1-.562-.235c-.14-.157-.212-.37-.212-.64v-.668c0-.27.07-.485.21-.642.14-.157.328-.236.56-.236s.422.08.563.236c.142.157.212.37.212.642v.667zm-.393-.726a.602.602 0 0 0-.1-.37.33.33 0 0 0-.28-.133.327.327 0 0 0-.28.135.61.61 0 0 0-.1.37v.783c0 .16.034.283.1.372a.33.33 0 0 0 .283.134c.12 0 .213-.045.278-.133.067-.087.1-.212.1-.372v-.784zm1.201 1.569h-.39v-.376h.39v.376zm1.998-.843c0 .273-.07.487-.21.643a.714.714 0 0 1-.56.234.72.72 0 0 1-.562-.235c-.14-.157-.212-.37-.212-.64v-.668c0-.27.07-.485.21-.642.14-.157.327-.236.56-.236s.422.08.563.236c.14.157.21.37.21.642v.667zm-.393-.726a.602.602 0 0 0-.1-.37.33.33 0 0 0-.28-.133.327.327 0 0 0-.28.135.61.61 0 0 0-.098.37v.783c0 .16.033.283.1.372a.33.33 0 0 0 .28.134.327.327 0 0 0 .28-.133c.065-.087.098-.212.098-.372v-.784zm2.052.73h.298v.317h-.298v.523h-.39v-.522h-.985l-.01-.24.983-1.59h.402v1.514zm-1.002 0h.61v-.96h-.008l-.038.09-.565.87zm3.105-.004c0 .273-.07.487-.21.643a.714.714 0 0 1-.56.234.72.72 0 0 1-.562-.235c-.14-.157-.21-.37-.21-.64v-.668c0-.27.07-.485.21-.642.14-.157.326-.236.56-.236s.42.08.56.236c.142.157.212.37.212.642v.667zm-.393-.726a.602.602 0 0 0-.1-.37.33.33 0 0 0-.28-.133.327.327 0 0 0-.28.135.61.61 0 0 0-.098.37v.783c0 .16.033.283.1.372a.33.33 0 0 0 .28.134c.12 0 .214-.045.28-.133.065-.087.097-.212.097-.372v-.784zm2.053.73h.297v.317h-.297v.523h-.39v-.522h-.986l-.01-.24.983-1.59h.403v1.514zm-1.002 0h.61v-.96h-.01l-.036.09-.564.87zm2.032.839h-.392v-.376h.39v.376zm1.997-.843c0 .273-.07.487-.21.643a.714.714 0 0 1-.56.234.72.72 0 0 1-.562-.235c-.14-.157-.21-.37-.21-.64v-.668c0-.27.07-.485.21-.642.14-.157.326-.236.56-.236s.42.08.56.236c.142.157.212.37.212.642v.667zm-.393-.726a.602.602 0 0 0-.1-.37.33.33 0 0 0-.28-.133.327.327 0 0 0-.28.135.61.61 0 0 0-.098.37v.783c0 .16.034.283.1.372a.33.33 0 0 0 .282.134c.12 0 .213-.045.278-.133.066-.087.098-.212.098-.372v-.784zm2.274.726c0 .273-.07.487-.21.643a.714.714 0 0 1-.56.234.72.72 0 0 1-.562-.235c-.14-.157-.21-.37-.21-.64v-.668c0-.27.07-.485.21-.642.14-.157.326-.236.56-.236s.42.08.56.236c.142.157.212.37.212.642v.667zm-.393-.726a.602.602 0 0 0-.1-.37.33.33 0 0 0-.28-.133.327.327 0 0 0-.28.135.61.61 0 0 0-.097.37v.783c0 .16.033.283.1.372a.33.33 0 0 0 .28.134.329.329 0 0 0 .28-.133c.065-.087.097-.212.097-.372v-.784zM21.64 26.065h.012l.84-2.237h.62v2.908h-.485v-2.09h-.012l-.8 2.09h-.334l-.814-2.13-.012.003v2.126h-.486v-2.908h.638l.834 2.237zm1.945-.43c0-.322.088-.586.265-.792.176-.205.418-.308.724-.308.31 0 .553.103.73.308.176.206.264.47.264.792v.042c0 .325-.088.59-.264.794-.177.205-.42.307-.726.307-.31 0-.552-.102-.728-.307-.177-.205-.265-.47-.265-.793v-.042zm.486.042a.96.96 0 0 0 .124.515c.083.132.21.198.384.198a.42.42 0 0 0 .38-.2.942.942 0 0 0 .127-.513v-.042a.94.94 0 0 0-.127-.51.424.424 0 0 0-.384-.2.416.416 0 0 0-.38.2.952.952 0 0 0-.123.51v.042zm1.831.008c0-.345.074-.623.222-.834s.355-.315.623-.315c.117 0 .222.024.314.07a.713.713 0 0 1 .242.203V23.62h.485v3.116h-.393l-.058-.274a.72.72 0 0 1-.252.235.7.7 0 0 1-.34.08c-.266 0-.473-.096-.62-.29s-.222-.446-.222-.76v-.042zm.485.042c0 .2.038.36.115.477.077.12.198.178.364.178a.48.48 0 0 0 .26-.066.502.502 0 0 0 .176-.188v-.942a.475.475 0 0 0-.43-.254.39.39 0 0 0-.367.208c-.08.14-.118.32-.118.545v.042zm2.838 1.05c-.316 0-.562-.1-.74-.298-.178-.2-.267-.458-.267-.775v-.08c0-.317.09-.578.267-.784a.86.86 0 0 1 .688-.305c.29 0 .51.09.66.268s.223.42.223.718v.263H28.72l-.004.01c.005.177.05.32.14.43.087.112.22.167.397.167a.976.976 0 0 0 .61-.186l.16.318a1.028 1.028 0 0 1-.33.182c-.135.05-.29.073-.468.073zm-.052-1.853a.375.375 0 0 0-.304.137.678.678 0 0 0-.142.357l.004.01h.844v-.037c0-.14-.032-.25-.097-.337s-.167-.13-.307-.13zm1.793 1.812h-.485V23.62h.486v3.116zm1.077-1.75h-.484v-.465h.483v.466zm0 1.75h-.484v-.466h.483v.466zm3.163-.746a.383.383 0 0 0-.13-.3c-.085-.076-.237-.145-.455-.207-.312-.086-.553-.2-.723-.34a.68.68 0 0 1-.255-.55c0-.235.093-.428.28-.58.186-.15.426-.227.72-.227.313 0 .564.084.753.253.188.167.28.375.272.623l-.004.012h-.467a.464.464 0 0 0-.153-.366.59.59 0 0 0-.406-.137c-.164 0-.29.04-.38.116a.38.38 0 0 0-.132.3c0 .11.05.203.146.275.098.073.26.142.484.207.305.085.538.2.697.348.16.148.24.336.24.565a.69.69 0 0 1-.282.577c-.19.144-.438.215-.745.215-.296 0-.553-.078-.773-.235a.746.746 0 0 1-.32-.665l.004-.012h.468c0 .174.06.306.18.394.12.088.268.132.44.132s.306-.036.4-.11a.35.35 0 0 0 .144-.293zm2.496.067h-1.03l-.224.68h-.5l1.013-2.91h.462l1.003 2.91h-.5l-.223-.68zm-.897-.406h.765l-.373-1.145h-.012l-.38 1.146zm2.465-.121v1.206h-.486v-2.908h1c.324 0 .575.073.752.22s.265.355.265.627c0 .15-.038.28-.115.388a.8.8 0 0 1-.34.26.615.615 0 0 1 .354.254c.07.117.107.263.107.436v.24c0 .086.01.17.032.25.02.082.056.144.105.187v.046h-.5a.32.32 0 0 1-.1-.206 1.793 1.793 0 0 1-.023-.28v-.233a.487.487 0 0 0-.13-.356.468.468 0 0 0-.35-.13h-.572zm0-.39h.49c.193 0 .335-.037.424-.112.09-.074.134-.188.134-.34a.452.452 0 0 0-.132-.346c-.088-.083-.22-.125-.4-.125h-.516v.923zm3.63.917h-1.03l-.224.68h-.5l1.013-2.91h.46l1.003 2.91h-.5l-.223-.68zm-.896-.406h.765l-.375-1.145h-.012l-.38 1.146zm3.166.044h-1.177v-.39h1.178v.39zm2.85-1.867v1.915c0 .323-.106.577-.318.76-.212.183-.486.274-.822.274-.33 0-.6-.09-.806-.274-.208-.183-.312-.437-.312-.76v-1.915h.485v1.915c0 .206.058.366.174.478a.63.63 0 0 0 .46.17.666.666 0 0 0 .476-.17c.12-.11.18-.27.18-.477v-1.915h.485zm2.405 2.908H48.55v-.334l.908-1.05a2.41 2.41 0 0 0 .308-.432.722.722 0 0 0 .086-.325.44.44 0 0 0-.104-.303c-.07-.078-.168-.117-.298-.117-.15 0-.265.05-.345.146a.56.56 0 0 0-.12.37h-.47l-.003-.013a.83.83 0 0 1 .246-.632c.172-.173.402-.26.692-.26.28 0 .496.076.652.225.157.15.235.344.235.587a.875.875 0 0 1-.13.46 5.2 5.2 0 0 1-.43.578l-.614.703.004.01h1.258v.388zm1.488-2.95a1.596 1.596 0 0 1 .61.12l-.093.375a1.246 1.246 0 0 0-.515-.102.52.52 0 0 0-.43.215c-.107.142-.16.33-.16.565v.152a.834.834 0 0 1 .28-.184.947.947 0 0 1 .358-.066c.25 0 .445.086.588.258.144.172.215.397.215.675 0 .294-.085.532-.257.713s-.4.27-.68.27c-.287 0-.523-.102-.71-.308s-.278-.49-.278-.847v-.632c0-.357.102-.646.307-.87a.997.997 0 0 1 .766-.332zm-.108 1.452a.63.63 0 0 0-.295.063.46.46 0 0 0-.186.173v.174c0 .232.047.414.14.545s.216.198.363.198a.39.39 0 0 0 .334-.168.717.717 0 0 0 .122-.43.607.607 0 0 0-.127-.404.435.435 0 0 0-.35-.15zm3.241.457c0 .336-.086.6-.26.793-.17.193-.402.29-.69.29-.29 0-.52-.097-.695-.29-.174-.195-.26-.46-.26-.793v-.825c0-.334.085-.598.258-.792.174-.195.405-.292.693-.292.29 0 .522.097.695.292.174.194.26.458.26.792v.825zm-.485-.9c0-.193-.04-.345-.123-.455a.407.407 0 0 0-.346-.165c-.148 0-.263.055-.344.165s-.122.262-.122.456v.97c0 .196.04.35.124.46a.41.41 0 0 0 .347.164c.15 0 .264-.055.345-.164.08-.11.12-.263.12-.46v-.97zm1.417-6.383c0 .272-.07.485-.21.642a.714.714 0 0 1-.56.234.72.72 0 0 1-.562-.235c-.14-.157-.21-.37-.21-.64v-.668c0-.27.07-.485.21-.642.14-.157.326-.236.56-.236s.42.08.56.236c.142.157.212.37.212.642v.667zm-.392-.727a.603.603 0 0 0-.1-.37.33.33 0 0 0-.28-.133.327.327 0 0 0-.28.133.61.61 0 0 0-.098.37v.784c0 .158.033.282.1.37a.33.33 0 0 0 .28.135.327.327 0 0 0 .28-.133.62.62 0 0 0 .098-.373v-.785zm2.274.727c0 .272-.07.485-.21.642a.714.714 0 0 1-.56.234.72.72 0 0 1-.562-.235c-.14-.157-.212-.37-.212-.64v-.668c0-.27.07-.485.21-.642a.714.714 0 0 1 .56-.236c.235 0 .422.08.563.236.14.157.21.37.21.642v.667zm-.393-.727a.603.603 0 0 0-.1-.37.33.33 0 0 0-.28-.133.327.327 0 0 0-.28.133.61.61 0 0 0-.098.37v.784c0 .158.032.282.1.37a.33.33 0 0 0 .28.135c.12 0 .214-.045.28-.133a.627.627 0 0 0 .097-.373v-.785zm2.049.965a.31.31 0 0 0-.104-.24c-.07-.064-.193-.12-.37-.17-.253-.07-.448-.16-.585-.275a.55.55 0 0 1-.206-.445c0-.19.076-.346.227-.47.15-.122.345-.183.582-.183.253 0 .456.068.61.204a.627.627 0 0 1 .22.507l-.004.01h-.378a.376.376 0 0 0-.124-.297.477.477 0 0 0-.33-.11c-.13 0-.233.032-.305.094s-.108.144-.108.243c0 .09.04.165.118.224.078.06.21.115.39.168.248.07.436.163.565.282.13.12.194.27.194.456 0 .195-.078.35-.23.467s-.355.175-.604.175c-.24 0-.447-.064-.625-.19a.604.604 0 0 1-.258-.54l.004-.01h.378c0 .143.05.25.146.32a.585.585 0 0 0 .356.108c.14 0 .247-.03.324-.088a.284.284 0 0 0 .116-.238zm1.757-.238h-.954v-.317h.953v.317zm1.973 0c0 .272-.07.485-.21.642a.714.714 0 0 1-.56.234.72.72 0 0 1-.562-.235c-.14-.157-.21-.37-.21-.64v-.668c0-.27.07-.485.21-.642.14-.157.326-.236.56-.236s.42.08.56.236c.142.157.212.37.212.642v.667zm-.392-.727a.603.603 0 0 0-.1-.37.33.33 0 0 0-.28-.133.327.327 0 0 0-.28.133.61.61 0 0 0-.098.37v.784c0 .158.033.282.1.37a.33.33 0 0 0 .28.135.327.327 0 0 0 .28-.133.62.62 0 0 0 .098-.373v-.785zm2.273.727c0 .272-.07.485-.21.642a.714.714 0 0 1-.56.234.72.72 0 0 1-.56-.235c-.142-.157-.213-.37-.213-.64v-.668c0-.27.07-.485.21-.642a.714.714 0 0 1 .56-.236c.235 0 .422.08.563.236.14.157.21.37.21.642v.667zm-.392-.727a.603.603 0 0 0-.1-.37.33.33 0 0 0-.28-.133.327.327 0 0 0-.28.133.61.61 0 0 0-.098.37v.784c0 .158.033.282.1.37a.33.33 0 0 0 .28.135.327.327 0 0 0 .28-.133.62.62 0 0 0 .098-.373v-.785zm-10.345-2.12h-1.122v-.2l.544-.627c.088-.105.15-.19.183-.258a.432.432 0 0 0 .052-.195.262.262 0 0 0-.062-.18c-.042-.047-.1-.07-.178-.07-.09 0-.16.03-.207.087a.335.335 0 0 0-.07.22h-.282l-.002-.008a.496.496 0 0 1 .147-.378.557.557 0 0 1 .414-.154c.166 0 .296.044.39.133.093.09.14.207.14.35 0 .1-.026.19-.078.277-.054.086-.14.2-.26.345l-.365.42.002.006h.752v.232zm1.372-.622c0 .2-.05.358-.154.474a.527.527 0 0 1-.414.173.532.532 0 0 1-.416-.174c-.104-.115-.156-.273-.156-.473v-.493c0-.2.052-.358.155-.474a.527.527 0 0 1 .414-.174.53.53 0 0 1 .416.174c.104.116.156.274.156.474v.493zm-.29-.537a.445.445 0 0 0-.074-.273.244.244 0 0 0-.207-.1.24.24 0 0 0-.205.1.45.45 0 0 0-.073.273v.58c0 .117.025.208.074.274s.12.098.208.098a.24.24 0 0 0 .206-.098.457.457 0 0 0 .072-.275v-.58zM44.05 12.588h.527c.18 0 .257.015.323.04.176.065.29.24.29.466 0 .22-.122.406-.31.467v.006s.02.022.05.078l.368.67h-.274l-.364-.687h-.37v.687h-.24v-1.726zm.588.83c.188 0 .306-.12.306-.314 0-.127-.05-.218-.137-.266-.047-.025-.103-.04-.237-.04h-.28v.62h.348zm14.987 2.147h-.29v-1.47h-.37v-.23l.66-.063v1.763zm.681-.769l.1-.97h.917v.25h-.675l-.053.444a.487.487 0 0 1 .28-.088.468.468 0 0 1 .377.152c.09.102.134.244.134.426a.61.61 0 0 1-.142.42c-.094.106-.236.16-.425.16a.61.61 0 0 1-.388-.124.407.407 0 0 1-.152-.352l.002-.006.272-.01a.25.25 0 0 0 .074.192.27.27 0 0 0 .19.068c.092 0 .16-.03.208-.092a.41.41 0 0 0 .07-.254.402.402 0 0 0-.072-.25.246.246 0 0 0-.208-.096c-.08 0-.14.013-.177.038a.216.216 0 0 0-.086.112l-.248-.02zm1.47.918h-.267l.683-1.887h.267l-.684 1.887zm1.629-.149h-.29v-1.47h-.37v-.23l.66-.063v1.763zm1.185-1.008c.094 0 .162-.023.203-.07a.288.288 0 0 0 .063-.197.258.258 0 0 0-.067-.184c-.046-.048-.11-.072-.195-.072a.28.28 0 0 0-.194.07.226.226 0 0 0-.077.175h-.278l-.002-.008a.402.402 0 0 1 .152-.335.597.597 0 0 1 .4-.135c.17 0 .304.04.402.124.098.084.147.205.147.364 0 .08-.02.153-.065.22a.44.44 0 0 1-.18.155.424.424 0 0 1 .2.158.45.45 0 0 1 .072.255.47.47 0 0 1-.16.376.622.622 0 0 1-.417.136.653.653 0 0 1-.402-.13.404.404 0 0 1-.167-.354l.002-.007h.28a.24.24 0 0 0 .08.184c.054.05.123.074.207.074a.28.28 0 0 0 .21-.078.273.273 0 0 0 .077-.2c0-.1-.024-.173-.072-.222-.05-.048-.122-.073-.22-.073h-.193v-.228h.194zm11.89 2.973c-.227 0-.405-.073-.533-.216a.806.806 0 0 1-.192-.558V16.7c0-.23.064-.418.192-.566a.62.62 0 0 1 .496-.22c.21 0 .367.064.475.193.107.13.16.3.16.517v.19h-.962l-.003.006a.51.51 0 0 0 .1.31c.064.08.16.12.287.12a.704.704 0 0 0 .44-.134l.114.23a.74.74 0 0 1-.236.13.99.99 0 0 1-.338.053zm-.037-1.336a.27.27 0 0 0-.22.1.488.488 0 0 0-.1.255l.002.007h.608v-.028c0-.1-.023-.18-.07-.243-.046-.062-.12-.093-.22-.093zm2.062.558h.264v.282h-.265v.465h-.35v-.466h-.875l-.008-.214.874-1.416h.36v1.348zm-.892 0h.543v-.855h-.008l-.033.08-.502.775zM32.57 18.16c0 .58-.13 1.042-.387 1.388-.258.346-.63.52-1.118.52-.227 0-.424-.048-.593-.144a1.124 1.124 0 0 1-.213-.157.165.165 0 0 0-.278.09.165.165 0 0 1-.162.135h-.582a.165.165 0 0 1-.165-.165V14.94a.16.16 0 0 1 .102-.15l.713-.295a.165.165 0 0 1 .228.153v1.477c0 .137.155.212.265.13a1.127 1.127 0 0 1 .677-.212c.493 0 .868.186 1.126.557.258.372.387.867.387 1.486v.075zm-1.042-.074c0-.378-.056-.677-.167-.898-.11-.22-.3-.33-.567-.33-.163 0-.3.033-.412.1a.697.697 0 0 0-.244.254.164.164 0 0 0-.02.082v1.552c0 .03.007.06.023.086a.66.66 0 0 0 .243.23.86.86 0 0 0 .417.092c.27 0 .46-.095.566-.285.108-.19.162-.46.162-.81v-.074zm2.622 1.906h-.716a.165.165 0 0 1-.165-.165V14.94a.16.16 0 0 1 .102-.15l.716-.295a.165.165 0 0 1 .228.152v5.18c0 .09-.074.165-.165.165zm.865-1.974c0-.58.16-1.052.483-1.42.323-.37.77-.555 1.34-.555.574 0 1.023.184 1.348.552.325.368.488.842.488 1.423v.075c0 .583-.162 1.058-.486 1.424-.324.367-.77.55-1.342.55-.574 0-1.022-.183-1.346-.55s-.485-.84-.485-1.424v-.075zm1.042.075c0 .354.062.637.187.85.124.215.325.322.602.322.27 0 .468-.108.593-.323.124-.215.187-.498.187-.85v-.074c0-.344-.063-.625-.19-.843-.127-.217-.326-.326-.598-.326-.27 0-.47.11-.594.327-.126.22-.19.5-.19.84v.076zm4.645-.746h.02l.55-1.14a.165.165 0 0 1 .15-.092h.786c.128 0 .207.14.14.25l-.963 1.58a.165.165 0 0 0 0 .173l1 1.623a.165.165 0 0 1-.14.252h-.78a.165.165 0 0 1-.15-.092l-.44-.894a.165.165 0 0 0-.296 0l-.442.894a.165.165 0 0 1-.148.092h-.785a.165.165 0 0 1-.14-.25l1-1.624a.165.165 0 0 0 0-.172l-.966-1.58a.165.165 0 0 1 .14-.25h.777c.064 0 .122.036.15.093l.535 1.137z"/><path d="M25.525 18.965a.05.05 0 0 0-.067-.03c-.25.097-.26.104-.45.22a1.325 1.325 0 0 1-.705.185c-.45 0-.8-.152-1.053-.456-.253-.305-.38-.777-.38-1.417V15h1.146v2.2c0 .372.05.628.15.765.102.138.26.207.47.207.185 0 .342-.03.474-.09h.004a.542.542 0 0 0 .318-.495V15h1.15v2.49a4.526 4.526 0 1 0-1.008 1.612l-.05-.137zM21.385 15a.82.82 0 1 1 0-1.64.82.82 0 0 1 0 1.64z" fill="#c02432"/><path d="M23.505 45.29h-.29v-1.738h.29v1.738zm1.66-.568l.002.007a.536.536 0 0 1-.17.423c-.118.108-.276.162-.475.162a.638.638 0 0 1-.49-.205.742.742 0 0 1-.19-.523v-.33a.75.75 0 0 1 .186-.524.624.624 0 0 1 .486-.206c.205 0 .366.052.483.156a.53.53 0 0 1 .17.43v.006h-.282c0-.117-.03-.206-.094-.268-.062-.062-.154-.092-.276-.092a.33.33 0 0 0-.28.14.58.58 0 0 0-.103.354v.333c0 .144.036.263.106.356a.34.34 0 0 0 .286.14c.12 0 .21-.03.27-.093.062-.062.093-.15.093-.268h.28zm.57-.478h-.29v-.278h.29v.278zm0 1.046h-.29v-.278h.29v.278zM27.76 44a.395.395 0 0 1-.07.233.46.46 0 0 1-.192.156.525.525 0 0 1 .23.165.4.4 0 0 1 .084.253.457.457 0 0 1-.16.374.628.628 0 0 1-.413.133.677.677 0 0 1-.433-.133.45.45 0 0 1-.168-.374c0-.096.028-.18.087-.253a.537.537 0 0 1 .238-.166.47.47 0 0 1-.2-.157.386.386 0 0 1-.072-.232c0-.153.05-.27.15-.35a.597.597 0 0 1 .394-.123c.154 0 .28.04.377.122.097.08.146.198.146.35zm-.29.01a.255.255 0 0 0-.066-.18.22.22 0 0 0-.167-.07.254.254 0 0 0-.184.067.245.245 0 0 0-.07.184c0 .08.024.143.07.19a.25.25 0 0 0 .186.073.213.213 0 0 0 .165-.072.272.272 0 0 0 .065-.19zm.054.787a.283.283 0 0 0-.287-.29.31.31 0 0 0-.22.08.274.274 0 0 0-.088.21c0 .087.028.156.086.208a.32.32 0 0 0 .223.078.28.28 0 0 0 .202-.078.276.276 0 0 0 .082-.208zm.582-.277l.1-.968h.917v.25h-.675l-.053.443a.484.484 0 0 1 .28-.088.468.468 0 0 1 .377.152c.09.1.134.243.134.425a.61.61 0 0 1-.142.42c-.094.106-.236.16-.425.16a.61.61 0 0 1-.388-.124.407.407 0 0 1-.152-.35l.002-.007.272-.01a.25.25 0 0 0 .074.192.27.27 0 0 0 .19.068c.092 0 .16-.03.208-.092a.41.41 0 0 0 .07-.253.402.402 0 0 0-.072-.25.246.246 0 0 0-.208-.096c-.08 0-.14.014-.177.04a.216.216 0 0 0-.086.11l-.248-.02zm1.816.563c.1 0 .182-.035.244-.106s.094-.17.094-.298v-.127a.374.374 0 0 1-.32.162.494.494 0 0 1-.386-.157c-.094-.104-.14-.248-.14-.43a.61.61 0 0 1 .156-.432.515.515 0 0 1 .395-.17c.174 0 .315.058.423.17.108.115.162.274.162.48v.492c0 .2-.06.36-.176.474a.618.618 0 0 1-.452.173.964.964 0 0 1-.368-.075l.047-.22a.72.72 0 0 0 .322.063zm.046-.594a.34.34 0 0 0 .178-.045.303.303 0 0 0 .114-.114v-.205a.42.42 0 0 0-.077-.27.26.26 0 0 0-.213-.095.228.228 0 0 0-.192.104.436.436 0 0 0-.076.263c0 .11.023.197.07.263.045.066.11.1.196.1zm.917.031l.1-.968h.917v.25h-.675l-.053.443a.484.484 0 0 1 .28-.088.468.468 0 0 1 .377.152c.09.1.135.243.135.425a.61.61 0 0 1-.142.42c-.094.106-.236.16-.424.16a.61.61 0 0 1-.39-.124.407.407 0 0 1-.15-.35v-.007l.273-.01a.25.25 0 0 0 .074.192.27.27 0 0 0 .192.068c.09 0 .158-.03.205-.092a.41.41 0 0 0 .07-.253.402.402 0 0 0-.072-.25.246.246 0 0 0-.208-.096c-.08 0-.14.014-.177.04a.216.216 0 0 0-.085.11l-.248-.02zm2.289.364h-.616l-.134.406h-.3l.607-1.738h.277l.6 1.738h-.3l-.133-.406zm-.536-.242h.457l-.223-.685h-.008l-.226.685zm1.892.026h-.703v-.234h.704v.234zm1.293.175a.228.228 0 0 0-.077-.177.71.71 0 0 0-.273-.125 1.164 1.164 0 0 1-.433-.202.407.407 0 0 1-.152-.33c0-.14.056-.254.167-.345a.66.66 0 0 1 .43-.136.65.65 0 0 1 .45.15c.113.1.167.226.163.374l-.002.008h-.28a.278.278 0 0 0-.09-.218.352.352 0 0 0-.244-.082.334.334 0 0 0-.226.07.227.227 0 0 0-.08.18.2.2 0 0 0 .088.164.947.947 0 0 0 .29.123c.18.05.32.12.415.21.095.087.143.2.143.336a.41.41 0 0 1-.17.346.716.716 0 0 1-.445.13.773.773 0 0 1-.462-.142.446.446 0 0 1-.19-.397v-.008h.28c0 .104.037.182.11.235.07.053.158.08.262.08a.387.387 0 0 0 .24-.065.21.21 0 0 0 .085-.177zm1.492.041H36.7l-.135.406h-.3l.607-1.738h.276l.6 1.738h-.3l-.133-.406zm-.536-.242h.456l-.223-.685h-.007l-.227.685zm1.473-.072v.72h-.29v-1.738h.598c.193 0 .343.044.45.13a.46.46 0 0 1 .157.376c0 .09-.023.167-.07.232a.48.48 0 0 1-.203.156c.098.03.17.08.212.152.043.07.065.156.065.26v.144c0 .05.007.1.02.15a.215.215 0 0 0 .063.11v.028h-.298a.19.19 0 0 1-.06-.123A1.08 1.08 0 0 1 38.88 45v-.14a.29.29 0 0 0-.076-.212.28.28 0 0 0-.21-.08h-.342zm0-.234h.292c.116 0 .2-.022.255-.067.052-.045.08-.113.08-.205a.27.27 0 0 0-.08-.206c-.053-.05-.133-.075-.24-.075h-.308v.55zm2.17.548h-.616l-.134.406h-.3l.607-1.738h.275l.6 1.738h-.3l-.133-.406zm-.536-.242h.457l-.223-.685h-.007l-.227.685zm2.49-1.09v1.145a.568.568 0 0 1-.19.454.726.726 0 0 1-.49.165.702.702 0 0 1-.484-.164.574.574 0 0 1-.186-.453v-1.145h.29v1.145c0 .123.035.218.104.286.07.067.16.1.275.1.117 0 .212-.033.284-.1s.106-.163.106-.286v-1.145h.29zm1.437 1.738h-1.12v-.2l.543-.627c.088-.105.15-.19.184-.258a.432.432 0 0 0 .05-.195.262.262 0 0 0-.06-.18.23.23 0 0 0-.18-.07c-.09 0-.158.03-.206.087a.335.335 0 0 0-.07.22h-.282l-.002-.008a.496.496 0 0 1 .147-.38.557.557 0 0 1 .414-.153c.167 0 .297.044.39.133.094.09.14.207.14.35 0 .1-.025.19-.077.277-.052.086-.138.2-.257.345l-.367.42v.006h.753v.232zm.89-1.763a.957.957 0 0 1 .365.07l-.056.226a.75.75 0 0 0-.308-.06.307.307 0 0 0-.257.127.543.543 0 0 0-.097.337v.09a.5.5 0 0 1 .17-.11.566.566 0 0 1 .213-.038c.15 0 .266.05.35.153a.61.61 0 0 1 .13.403.6.6 0 0 1-.154.427.535.535 0 0 1-.408.162.544.544 0 0 1-.424-.185c-.11-.123-.166-.292-.166-.506v-.38c0-.212.06-.385.183-.518a.596.596 0 0 1 .458-.2zm-.065.868a.378.378 0 0 0-.176.037.275.275 0 0 0-.11.104v.103a.55.55 0 0 0 .084.325c.056.08.128.118.216.118a.233.233 0 0 0 .2-.1.428.428 0 0 0 .072-.257.363.363 0 0 0-.076-.242.26.26 0 0 0-.21-.09zm1.938.273c0 .2-.052.36-.155.474a.527.527 0 0 1-.412.173.532.532 0 0 1-.416-.174c-.104-.115-.156-.272-.156-.472v-.493c0-.2.052-.358.155-.474a.527.527 0 0 1 .415-.173.53.53 0 0 1 .415.174c.104.117.156.275.156.475v.493zm-.29-.537a.445.445 0 0 0-.074-.272.244.244 0 0 0-.207-.098.242.242 0 0 0-.206.098.45.45 0 0 0-.074.273v.58c0 .118.025.21.074.275.05.066.12.098.208.098a.24.24 0 0 0 .206-.097.457.457 0 0 0 .072-.276v-.58zm15.127.759h.008l.503-1.338h.37v1.738h-.29v-1.25h-.007l-.48 1.25h-.198l-.487-1.274-.006.003v1.27h-.29v-1.738h.38l.5 1.337zm1.995.4a1.058 1.058 0 0 1-.04-.19.47.47 0 0 1-.156.154.403.403 0 0 1-.218.06c-.134 0-.238-.034-.31-.103s-.108-.163-.108-.284a.34.34 0 0 1 .148-.292c.1-.07.238-.104.417-.104h.226v-.114a.21.21 0 0 0-.06-.16c-.038-.037-.095-.056-.17-.056a.244.244 0 0 0-.157.047.15.15 0 0 0-.06.123h-.28v-.006c-.006-.102.04-.193.136-.27a.58.58 0 0 1 .378-.12c.15 0 .272.04.364.115.092.075.14.185.14.33v.573a.818.818 0 0 0 .045.297h-.295zm-.354-.208a.363.363 0 0 0 .196-.055.277.277 0 0 0 .116-.125v-.19h-.23a.29.29 0 0 0-.198.062.19.19 0 0 0-.072.147c0 .05.016.09.05.12.03.028.077.042.138.042zm.852-.42c0-.206.044-.372.133-.498a.43.43 0 0 1 .37-.19.408.408 0 0 1 .333.164v-.71h.29v1.862h-.235l-.035-.164a.43.43 0 0 1-.15.14.42.42 0 0 1-.204.05.44.44 0 0 1-.37-.174.728.728 0 0 1-.134-.455v-.025zm.29.025c0 .12.023.215.07.285.045.07.117.107.217.107a.29.29 0 0 0 .155-.04.3.3 0 0 0 .105-.113v-.563a.284.284 0 0 0-.258-.152c-.1 0-.17.042-.218.125a.658.658 0 0 0-.07.325v.025zm1.697.628a.562.562 0 0 1-.443-.18.668.668 0 0 1-.16-.46v-.05a.69.69 0 0 1 .16-.467.515.515 0 0 1 .41-.184c.175 0 .306.054.395.16a.65.65 0 0 1 .134.43v.157h-.8l-.002.006c.003.106.03.192.084.258.052.066.13.1.237.1a.586.586 0 0 0 .365-.11l.094.188a.614.614 0 0 1-.197.11.82.82 0 0 1-.28.043zm-.032-1.108a.224.224 0 0 0-.18.082.405.405 0 0 0-.085.212l.003.006h.505v-.023c0-.082-.02-.15-.058-.2-.04-.052-.1-.078-.184-.078zm1.716 1.083h-.29v-1.738h.29v1.738zm.623-1.292l.016.186a.463.463 0 0 1 .16-.154.425.425 0 0 1 .216-.056.4.4 0 0 1 .314.125c.075.08.113.21.113.387v.803h-.29v-.8c0-.1-.02-.173-.06-.215s-.098-.063-.176-.063a.346.346 0 0 0-.162.035.282.282 0 0 0-.108.097v.946h-.29v-1.292h.265zm2.664.886h-.616l-.133.406h-.3l.607-1.738h.275l.6 1.738h-.3l-.133-.406zm-.536-.242h.458l-.224-.685h-.007l-.227.685zm1.946.458a.433.433 0 0 1-.153.16.414.414 0 0 1-.216.055.405.405 0 0 1-.324-.137c-.078-.09-.117-.232-.117-.424v-.756h.288v.758c0 .124.02.208.055.254.036.046.092.07.167.07.07 0 .13-.014.176-.04s.085-.06.112-.108v-.934h.29v1.292h-.25l-.026-.19zm1.306-.163a.132.132 0 0 0-.058-.11.587.587 0 0 0-.214-.08.87.87 0 0 1-.348-.136.29.29 0 0 1-.12-.243c0-.108.045-.2.136-.277a.544.544 0 0 1 .362-.116c.154 0 .28.04.373.12a.34.34 0 0 1 .136.285l-.002.006h-.278a.18.18 0 0 0-.062-.136.234.234 0 0 0-.166-.058.242.242 0 0 0-.16.047.15.15 0 0 0-.055.116c0 .044.017.08.05.105a.57.57 0 0 0 .213.072c.158.032.277.08.358.14.08.062.12.144.12.248 0 .116-.048.21-.143.285a.606.606 0 0 1-.378.11.578.578 0 0 1-.398-.13.364.364 0 0 1-.138-.295l.002-.007h.27c.003.075.03.13.08.163a.326.326 0 0 0 .187.052.292.292 0 0 0 .173-.044c.04-.03.06-.07.06-.117zm.916-1.253v.314h.23v.215h-.23v.714c0 .053.01.09.034.114a.125.125 0 0 0 .092.035.26.26 0 0 0 .09-.015l.03.212a.336.336 0 0 1-.087.032.485.485 0 0 1-.105.01.334.334 0 0 1-.252-.093c-.06-.06-.09-.16-.09-.293v-.714h-.198V44h.197v-.314h.29zm1.109.576l-.124-.005a.26.26 0 0 0-.14.036.236.236 0 0 0-.088.102v.898h-.29v-1.292h.264l.02.188a.406.406 0 0 1 .125-.155.295.295 0 0 1 .27-.04l-.035.27zm.525-.578h-.29v-.254h.29v.254zm0 1.608h-.29v-1.292h.29v1.292zm1.102 0a1.058 1.058 0 0 1-.04-.19.47.47 0 0 1-.156.154.403.403 0 0 1-.218.06c-.135 0-.238-.034-.31-.103a.377.377 0 0 1-.108-.284.34.34 0 0 1 .148-.292c.1-.07.238-.104.417-.104h.225v-.114a.21.21 0 0 0-.06-.16c-.038-.037-.095-.056-.17-.056a.244.244 0 0 0-.158.047.15.15 0 0 0-.058.123h-.28v-.006c-.006-.102.04-.193.136-.27a.58.58 0 0 1 .378-.12c.15 0 .27.04.364.115.092.075.138.185.138.33v.573a.814.814 0 0 0 .045.297h-.293zm-.355-.208a.363.363 0 0 0 .197-.055.277.277 0 0 0 .116-.125v-.19h-.23a.29.29 0 0 0-.198.062.19.19 0 0 0-.072.147c0 .05.016.09.048.12a.21.21 0 0 0 .14.042zm.556-22.932h.72v.72h-.72zm-1.438 0h.72v.72h-.72zm-1.438 0h.72v.72h-.72zm-1.437 0h.718v.72h-.72zm-1.44 0h.72v.72h-.72zm0 5.753h.72v.72h-.72zm-1.436-5.753h.72v.72h-.72zm0 5.034h.72v.72h-.72zm-.719-1.438h.72v.72h-.72zm-.719-3.596h.72v.72h-.72zm-1.438 0h.72v.72h-.72zm10.795 10.786h.72v.72h-.72z"/><path d="M75.995 32.936v.72h.72v.756H72.4v-.72h-.718v.72h-.72v-.72h-2.156v-.757h-.72v1.479H66.65v-.015h-.014V22.15h-.705v12.967h12.952v-.705h-1.45v-2.195h-.718v.72zm2.168-1.438h.72v.72h-.72z"/><path d="M77.433 31.498h.72v.72h-.72zm.73-1.438h.72v.72h-.72zm0-1.438h.72v.72h-.72zm-1.449 2.158h.72v-.72h.718v-.72h-1.438v-.718h-.72v-.7h-.718v.7h-.72v-.7h-.718v.7h-.72v1.438h1.44v-.72h-.72v-.7h.72v.7h1.437v1.44h-1.438v.718h1.438v.72h.72zm1.449-3.596h.72v.72h-.72zm-10.795 5.033v-.72h-.72v1.44h.72z"/><path d="M73.838 32.936v.72h.72v-.72h1.437v-.72H73.12v.72zm-5.032-4.314h.72v.72h-.72zm9.357-5.752h.72v.72h-.72zm-5.043 4.314h-.72v.72h1.438v-1.44h-.72zm-.72-4.304h.72v.72h-.72zm-2.875 0h-1.438v.72h.72v.718h1.437v.7h-.72v.72h2.158v-1.42h.718v-.72h-2.875zm-2.157 5.023h.72v.72h-.72z"/><path d="M68.087 27.184v.72h.72v-1.44h-1.44v.72z"/><path d="M67.368 25.037v.71h-.72v.718h.72v-.71h.72v-.718h.718v-.72h-1.438zm-.718 2.147h.718v.72h-.72zm1.437 3.596v.718h.72v1.438h.718v.72h2.157v-.72h-.72v-.72h-.718V31.5h.72v.72h.718v-.72h.718v.72h.72v-.72h.718v-.72h-2.156v-.718h.718v-.72h-1.438v.72h-1.437v.72h-.72v-1.44H67.37v1.44zm-1.437-2.158h.718v.72h-.72zm0-5.742h.718v.72h-.72zm11.502 1.43v-.72h-.72v-.71h-.718v.71h-.72v-.71h-.718v.72h-.72v.71h-.718v-.71h-.72v2.138h.72v-.71h.72v.71h.718v-1.42h.72v2.147h-1.44v1.438h1.44v-.72h.718v.72h.72v-.72h.73v-.718h.718v-.718h-.72v-.72h.72v-.718h-.73zm-.72 1.428h-.718v-.72h.72v.72zM57.392 39.43c0 1.22.99 2.21 2.21 2.21v-.686a1.524 1.524 0 0 1-.001-3.045v-.686a2.21 2.21 0 0 0-2.208 2.21zm6.212-1.522v-.686c-1.218 0-2.21.99-2.21 2.21 0 1.217.992 2.208 2.21 2.208v-.686a1.524 1.524 0 0 1-1.482-1.18h1.482v-.686h-1.482c.156-.675.76-1.18 1.482-1.18z"/><circle cx="18.891" cy="44.847" r="1.094"/><ellipse cx="77.303" cy="16.57" rx="2.989" ry="2.016" fill="none" stroke="#000" stroke-width=".241" stroke-miterlimit="10"/><path d="M69.98 16.856v.633h-.28v-1.67h.64c.185 0 .33.047.433.142.105.095.157.22.157.376a.484.484 0 0 1-.157.377c-.104.094-.248.14-.433.14h-.36zm0-.223h.36c.104 0 .18-.028.233-.083a.293.293 0 0 0 .078-.21.302.302 0 0 0-.077-.212c-.052-.057-.13-.085-.233-.085h-.36v.59zm2.277.277c0 .18-.042.327-.127.438a.424.424 0 0 1-.357.166.41.41 0 0 1-.203-.05.398.398 0 0 1-.143-.14l-.034.165h-.226V15.7h.28v.69a.402.402 0 0 1 .137-.122.394.394 0 0 1 .187-.043c.156 0 .276.06.36.18a.823.823 0 0 1 .127.48v.025zm-.28-.024a.64.64 0 0 0-.065-.313.224.224 0 0 0-.21-.12.276.276 0 0 0-.157.042.288.288 0 0 0-.1.115v.52c.025.05.058.09.1.116.042.027.095.04.158.04.096 0 .166-.033.21-.1a.503.503 0 0 0 .065-.276v-.024z"/><circle cx="70.886" cy="16.57" r="1.999" fill="none" stroke="#000" stroke-width=".241" stroke-miterlimit="10"/><path fill="none" stroke="#000" stroke-width=".241" stroke-miterlimit="10" d="M72.226 18.053l-2.7-2.955"/><circle cx="44.57" cy="13.457" r="1.412" fill="none" stroke="#000" stroke-width=".241" stroke-miterlimit="10"/><g fill="#cc9932"><path d="M3.93 52.544l-.345-1.605.344-.224.344.223zm-1.188-3.016l-.223.345-1.606-.345 1.605-.345zm4.203 0l-1.605.345-.223-.345.223-.345zm-2.671-1.41l-.345.223-.345-.222.344-1.606z"/><path d="M6.062 51.66L3.93 50.283l-2.133 1.38 1.38-2.134-1.38-2.132 2.133 1.378 2.132-1.378-1.378 2.132z"/></g><path fill="#CCC" d="M2.22 15.125h5.12v9.304H2.22zm5.123 3.528h1.933v2.078H7.343z"/><path d="M.963 22.926V16.46c0-.284.23-.513.512-.513h6.467c.283 0 .512.23.512.512v6.466c0 .283-.23.512-.512.512H1.475a.512.512 0 0 1-.512-.512z" fill="#e5e5e5" stroke="#929292" stroke-width=".241" stroke-miterlimit="10"/><circle cx="4.805" cy="19.692" r="2.32" fill="#7b7b7b"/><circle cx="4.805" cy="19.692" r="2.03" fill="#e5e5e5"/><circle cx="4.805" cy="19.692" r=".532" fill="#cc9932"/><path fill="#666" d="M9.037 7.883h1.18v3.063h-1.18zM88.685 20.19h1.18v3.064h-1.18zm0 5.14h1.18v3.063h-1.18zm12.008 0h1.18v3.063h-1.18zm0 8.618h1.18v3.063h-1.18zm11.247 2.262H115v1.18h-3.063zm-2.857 7.473h3.063v1.18h-3.063zm2.857-16.21H115v1.18h-3.063zm0-11.823h4.57v1.957h-4.57z"/><path fill="#CCC" d="M112.006 24.367h4.572v1.512h-4.572z"/><path fill="#666" d="M122.793 8.02h1.956v4.573h-1.957zm-35.64 40.932h3.063v1.18h-3.063zm14.407-8.786h3.062v1.18h-3.063zM5.594 28.26h3.063v1.18H5.594zm0 2.97h3.063v1.18H5.594zm0 5.546h3.063v1.18H5.594zm0 5.969h3.063v1.18H5.594zm.941-34.862h1.18v3.063h-1.18zm-2.502 0h1.18v3.063h-1.18zm-2.503 0h1.18v3.063H1.53z"/><path fill="#CCC" d="M92.276 10.307h1.56v11.778h-1.56zm4.456 0h1.56v11.778h-1.56z"/><path fill="#999" d="M90.96 11.075h8.627v10.242H90.96z"/><circle cx="95.327" cy="16.241" r="2.518"/><circle cx="95.327" cy="16.005" r="2.281" fill="#404040"/><path fill="none" stroke="#b8b8b8" stroke-width=".322" stroke-miterlimit="10" d="M99.587 21.182H90.96"/><path d="M97.61 16.005s.008.112-.004.31c-.01.197-.056.485-.207.797a2.322 2.322 0 0 1-.772.892 2.412 2.412 0 0 1-1.307.403 2.423 2.423 0 0 1-1.294-.403 2.315 2.315 0 0 1-.77-.89 2.088 2.088 0 0 1-.207-.8c-.014-.197-.004-.31-.004-.31s.005.114.043.305c.03.19.125.455.285.738.163.283.43.565.766.78.346.218.748.34 1.193.338a2.2 2.2 0 0 0 1.18-.337c.338-.216.603-.5.766-.78.16-.284.255-.55.285-.74.038-.192.044-.305.044-.305z" fill="#737373"/><path fill="#CCC" d="M92.276 35.427h1.56v11.778h-1.56zm4.456 0h1.56v11.778h-1.56z"/><path fill="#999" d="M90.96 36.195h8.627v10.242H90.96z"/><circle cx="95.327" cy="41.361" r="2.518"/><circle cx="95.327" cy="41.125" r="2.281" fill="#404040"/><path fill="none" stroke="#b8b8b8" stroke-width=".322" stroke-miterlimit="10" d="M99.587 46.302H90.96"/><path d="M97.61 41.125s.008.112-.004.31c-.01.196-.056.484-.207.797a2.323 2.323 0 0 1-.772.892 2.414 2.414 0 0 1-1.307.403 2.423 2.423 0 0 1-1.294-.403 2.315 2.315 0 0 1-.77-.892 2.088 2.088 0 0 1-.207-.798c-.014-.197-.004-.31-.004-.31s.005.114.043.305c.03.19.125.455.285.738.163.283.43.565.766.78.346.218.748.34 1.193.338.413.003.845-.12 1.18-.337.338-.217.603-.5.766-.782.16-.283.255-.548.285-.738.038-.192.044-.305.044-.305z" fill="#737373"/><path fill="#e6e6e6" d="M146.188 30.72h-15.17v5.577h.444v8.39h-.445v5.577h15.17z"/><path fill="#666" d="M129.32 36.297h1.696v1.007h-1.695zm0 1.845h1.696v1.007h-1.695zm0 1.846h1.696v1.007h-1.695zm0 1.846h1.696v1.007h-1.695zm0 1.846h1.696v1.007h-1.695z"/><path fill="none" stroke="#929292" stroke-width=".161" stroke-miterlimit="10" d="M131.017 37.303h-1.696m1.696 1.847h-1.696m1.696 1.845h-1.696m1.696 1.845h-1.696m1.696 1.847h-1.696"/><path fill="#b2b2b2" d="M145.856 50.25l1.405 1.06v-.44l-.408-.62z"/><path fill="#c3c3c3" d="M147.26 50.898v-.028l-.408-.62h-.68z"/><path fill="#b2b2b2" d="M145.856 30.715l1.405-1.06v.44l-.408.62z"/><path fill="#c3c3c3" d="M147.26 30.067v.028l-.408.62h-.68z"/><path fill="#b2b2b2" d="M145.387 31.753h.8V49.23h-.8z"/><path fill="#cfcfcf" d="M145.856 31.753h.332V49.23h-.332z"/><path fill="#b3b3b3" d="M131.017 34.105h1.475v1.644h-1.475zm5.959 0h7.105v1.644h-7.104z"/><path fill="#262626" d="M131.017 35.21h1.475v.54h-1.475z"/><ellipse cx="142.109" cy="34.928" rx="1.345" ry="1.521" fill="#b3b3b3"/><path fill="#b3b3b3" d="M131.017 45.234h1.475v1.644h-1.475zm5.959 0h7.105v1.644h-7.104z"/><path fill="#262626" d="M131.017 45.234h1.475v.54h-1.475z"/><path fill="#f2f2f2" d="M146.188 50.264v-.174l-14.718-1.276v1.45z"/><path fill="#999" d="M146.188 30.72v.174L131.47 32.17v-1.45z"/><path d="M142.11 36.448c.473 0 .89-.28 1.13-.698h.84v-.54h-7.103v.54h4.002c.238.42.654.698 1.13.698zm0 8.099c.473 0 .89.278 1.13.698h.84v.54h-7.103v-.54h4.002c.238-.42.654-.698 1.13-.698z" fill="#333"/><path fill="#666" d="M109.5 17.963l.74-.614v-4.642l-.74-.614v-1.076h-6.888v1.076l-.74.614v4.642l.74.613v1.076h6.888z"/><path fill="#bfbfbf" d="M95.943 25.298h2.105v6.71h-2.105zm-3.445 0h2.105v6.71h-2.105z"/><path d="M91.988 25.57h6.57v6.17h-6.57z"/><path fill="#e5e5e5" d="M95.273 31.183l2.225-.302.303-2.225-.302-2.226-2.225-.304-2.226.303-.303 2.225.303 2.226z"/><path d="M95.213 30.002l.002-1.21h-1.188v.024c0 .655.53 1.186 1.186 1.186z" fill="#00a637"/><path d="M94.006 28.655h1.21V27.47l-.024-.002c-.655 0-1.186.532-1.186 1.187z" fill="#1b5bb3"/><path d="M95.353 27.468h-.002v1.21h1.19v-.023c0-.655-.532-1.187-1.187-1.187z" fill="#b2b2b2"/><path d="M96.55 28.816l-1.21-.002V30l.023.002c.656 0 1.187-.53 1.187-1.186z" fill="#cc1314"/><path d="M113.227 12.36h3.715v1.008h-3.715zm0-3.577h3.715v1.01h-3.715zm0 1.787h3.715v1.01h-3.715z" fill="#CCC"/><path fill="#CCC" d="M115.085 8.06h3.715v6.033h-3.715z"/><path fill="#666" d="M114.29 8.29h5.304v5.57h-5.303z"/><path d="M114.234 43.536h5.103v.995h-5.103zm0-3.526h5.103v.994h-5.103zm0 1.763h5.103v.995h-5.103z" fill="#CCC"/><path fill="#666" d="M115.294 39.523h8.087v5.496h-8.086z"/><path fill="#CCC" d="M112.176 45.787h8.148v2.71h-8.148z"/><path fill="#666" d="M114.485 45.787h3.53v2.71h-3.53z"/><path fill="#CCC" d="M112.176 30.958h8.148v2.71h-8.148z"/><path fill="#666" d="M114.485 30.958h3.53v2.71h-3.53z"/><path d="M106.124 57.532v-12.78a2.4 2.4 0 0 0-1.25-2.108v.784h-2.3v-.784a2.4 2.4 0 0 0-1.25 2.107v12.7" fill="#00a9f3"/><path fill="#918c70" d="M131.092 11.345h10.313V24.33h-10.313z"/><path fill="#7f7a60" d="M131.092 11.345h7.283V24.33h-7.283z"/><path fill="#a09c85" d="M133.066 13.122h5.31v3.956h-5.31zm0 5.476h5.31v3.956h-5.31z"/><path fill="#7f7744" d="M140.248 16.43h3.343v2.832h-3.342z"/><path fill="#d6d4c8" d="M131.092 27.324v-1.086h3.773V24.33h-3.773V11.346h3.773V9.438h-3.772V8.352h1.8V6.817h-4.787V28.86h4.786v-1.536zm13.211-1.962h-1.007v-2.815h1.007V13.13h-1.007v-2.817h1.007V6.817h-4.697v1.535h1.8v1.086h-3.864v1.907h3.862v1.784h-1.157v3.3h3.343v2.816h-3.342v3.3h1.157v1.785h-3.862v1.908h3.863v1.086h-1.8v1.535h4.697z"/><path fill="#bab7a0" d="M134.316 17.078l.802-3.956h3.258v3.956zm0 5.476l.802-3.956h3.258v3.956z"/><circle cx="136.851" cy="15.278" r=".945" fill="#666"/><circle cx="136.851" cy="14.922" r=".945" fill="#CCC"/><circle cx="136.851" cy="20.662" r=".945" fill="#666"/><circle cx="136.851" cy="20.307" r=".945" fill="#CCC"/><path fill="#918c70" d="M138.376 16.43h5.232v2.816h-5.232z"/><path fill="#7f7a60" d="M136.25 11.345h5.23v1.784h-5.23zm0 11.202h5.23v1.784h-5.23z"/><path fill="#666" d="M121.265 14.084h6.22v2.682h-6.22z"/><path fill="#CCC" d="M122.312 14.535h5.175v1.78h-5.175z"/><path fill="#666" d="M121.265 18.91h6.22v2.682h-6.22z"/><path fill="#CCC" d="M122.312 19.36h5.175v1.78h-5.175z"/><path fill="#404040" d="M138.426 11.345h2.177v1.784h-2.177zm0 11.202h2.177v1.784h-2.177z"/><path d="M140.58 11.345h.998v1.784h-.997zm-1.156 1.785h.997v3.3h-.996zm1.156-4.778h.998v1.086h-.997zm-1.798-1.535h.997v1.535h-.998zm-2.062 2.621h.996v1.907h-.997zm2.704 9.808h.997v3.3h-.996zm1.156 6.992h.998v1.086h-.997zm-1.798 1.086h.997v1.535h-.998zm-2.062-2.994h.996v1.908h-.997zm3.86-1.783h.998v1.784h-.997zm-13.192-15.73h1.714v22.035h-1.714z" fill="#bab7a0"/><g fill="#666"><circle cx="125.781" cy="23.421" r=".724"/><circle cx="125.781" cy="26.323" r=".724"/><circle cx="125.781" cy="29.225" r=".724"/><circle cx="122.885" cy="23.421" r=".724"/><circle cx="122.885" cy="26.323" r=".724"/><circle cx="122.885" cy="29.225" r=".724"/><circle cx="128.805" cy="49.25" r=".724"/><circle cx="128.805" cy="46.354" r=".724"/><circle cx="128.966" cy="32.44" r=".724"/><circle cx="119.989" cy="23.421" r=".724"/><circle cx="119.989" cy="26.323" r=".724"/><circle cx="119.989" cy="29.225" r=".724"/><circle cx="121.142" cy="36.645" r=".724"/><circle cx="118.246" cy="36.645" r=".724"/><circle cx="108.866" cy="46.506" r=".724"/><circle cx="108.866" cy="40.918" r=".724"/><circle cx="108.866" cy="37.866" r=".724"/><circle cx="109.891" cy="33.931" r=".724"/><circle cx="108.866" cy="27.658" r=".724"/><circle cx="105.97" cy="27.658" r=".724"/><circle cx="108.866" cy="24.606" r=".724"/><circle cx="89.147" cy="34.655" r=".724"/><circle cx="89.147" cy="31.604" r=".724"/><circle cx="105.97" cy="24.606" r=".724"/><circle cx="108.866" cy="21.492" r=".724"/><circle cx="105.97" cy="21.492" r=".724"/></g><circle cx="103.78" cy="44.657" r="2.345" fill="#00a9f3"/><path fill="#CCC" d="M102.87 43.36h1.77v3.6h-1.77z"/><path d="M135.944 57.536v-5.58c0-.707.58-1.286 1.287-1.286h4.293c.708 0 1.287.58 1.287 1.287v5.58h-6.866z" fill="#00a9f3"/><path fill="#666" d="M125.793 47.72h1.18v3.062h-1.18z"/><g><path d="M103.316 31.56h1.01v2.17h-1.01zm3.574 0h1.01v2.17h-1.01zm-1.786 0h1.01v2.17h-1.01zm1.786 2.835h1.01v2.168h-1.01zm-3.534 0h1.01v2.168h-1.01z" fill="#CCC"/><path fill="#666" d="M102.822 32.558h5.572v3.094h-5.572z"/></g><g><circle cx="103.699" cy="54.385" r="2.235" fill="#b2b2b2"/><circle cx="132.492" cy="54.385" r="2.235" fill="#b2b2b2"/><path fill="#b2b2b2" d="M130.257 54.385h4.47v3.15h-4.47z"/><path d="M133.656 56.293a2.234 2.234 0 0 0-1.164-4.143 2.235 2.235 0 0 0-1.165 4.143" fill="#b2b2b2"/><path fill="#CCC" d="M131.722 53.615h1.54v1.54h-1.54z"/><path d="M132.355 54.385c1.253.656 2.126 2.388 2.372 3.15v-3.15c0-.762-.382-1.434-.964-1.838a3.463 3.463 0 0 1-1.408 1.838z" fill="#999"/><path d="M131.722 53.615v1.54h.066c.235-.3.52-.562.84-.77a3.52 3.52 0 0 1-.84-.77h-.066z" fill="#999"/><circle cx="132.492" cy="54.385" r=".363" fill="#cbcbcb" stroke="#999" stroke-width=".08" stroke-miterlimit="10"/><path d="M104.864 56.293a2.234 2.234 0 0 0-1.165-4.143 2.235 2.235 0 0 0-1.165 4.143" fill="#b2b2b2"/><path fill="#CCC" d="M102.93 53.615h1.54v1.54h-1.54z"/><path d="M102.93 53.615v1.54h.066c.235-.3.52-.562.84-.77a3.52 3.52 0 0 1-.84-.77h-.066z" fill="#999"/><circle cx="103.699" cy="54.385" r=".363" fill="#cbcbcb" stroke="#999" stroke-width=".08" stroke-miterlimit="10"/><circle cx="125.334" cy="54.418" r="2.235" fill="#b2b2b2"/><path fill="#b2b2b2" d="M123.1 54.418h4.47v3.15h-4.47z"/><path d="M126.498 56.326a2.234 2.234 0 0 0-1.164-4.143 2.235 2.235 0 0 0-1.165 4.143" fill="#b2b2b2"/><path fill="#CCC" d="M124.564 53.648h1.54v1.54h-1.54z"/><path d="M125.197 54.418c1.253.656 2.126 2.388 2.372 3.15v-3.15c0-.76-.383-1.434-.965-1.838a3.463 3.463 0 0 1-1.408 1.838z" fill="#999"/><path d="M124.564 53.648v1.54h.066c.236-.3.52-.562.84-.77a3.54 3.54 0 0 1-.84-.77h-.066z" fill="#999"/><circle cx="125.334" cy="54.418" r=".363" fill="#cbcbcb" stroke="#999" stroke-width=".08" stroke-miterlimit="10"/><circle cx="118.176" cy="54.385" r="2.235" fill="#b2b2b2"/><path fill="#b2b2b2" d="M115.94 54.385h4.47v3.15h-4.47z"/><path d="M119.34 56.293a2.234 2.234 0 0 0-1.164-4.143 2.235 2.235 0 0 0-1.165 4.143" fill="#b2b2b2"/><path fill="#CCC" d="M117.406 53.615h1.54v1.54h-1.54z"/><path d="M118.04 54.385c1.252.656 2.125 2.388 2.37 3.15v-3.15c0-.762-.38-1.434-.962-1.838a3.463 3.463 0 0 1-1.408 1.838z" fill="#999"/><path d="M117.406 53.615v1.54h.067c.235-.3.518-.562.84-.77a3.482 3.482 0 0 1-.84-.77h-.067z" fill="#999"/><circle cx="118.176" cy="54.385" r=".363" fill="#cbcbcb" stroke="#999" stroke-width=".08" stroke-miterlimit="10"/><circle cx="111.018" cy="54.385" r="2.235" fill="#b2b2b2"/><path fill="#b2b2b2" d="M108.783 54.385h4.47v3.15h-4.47z"/><path d="M112.183 56.293a2.234 2.234 0 0 0-1.165-4.143 2.235 2.235 0 0 0-1.165 4.143" fill="#b2b2b2"/><path fill="#CCC" d="M110.248 53.615h1.54v1.54h-1.54z"/><path d="M110.882 54.385c1.252.656 2.125 2.388 2.37 3.15v-3.15c0-.762-.38-1.434-.962-1.838a3.463 3.463 0 0 1-1.408 1.838z" fill="#999"/><path d="M110.25 53.615v1.54h.065c.235-.3.518-.562.84-.77a3.47 3.47 0 0 1-.84-.77h-.066z" fill="#999"/><circle cx="111.018" cy="54.385" r=".363" fill="#cbcbcb" stroke="#999" stroke-width=".08" stroke-miterlimit="10"/><circle cx="103.699" cy="54.385" r="2.235" fill="#b2b2b2"/><path fill="#b2b2b2" d="M101.464 54.385h4.47v3.15h-4.47z"/><path d="M104.864 56.293a2.234 2.234 0 0 0-1.165-4.143 2.235 2.235 0 0 0-1.165 4.143" fill="#b2b2b2"/><path fill="#CCC" d="M102.93 53.615h1.54v1.54h-1.54z"/><path d="M103.563 54.385c1.252.656 2.125 2.388 2.37 3.15v-3.15c0-.762-.38-1.434-.962-1.838a3.463 3.463 0 0 1-1.407 1.838z" fill="#999"/><path d="M102.93 53.615v1.54h.066c.235-.3.52-.562.84-.77a3.52 3.52 0 0 1-.84-.77h-.066z" fill="#999"/><circle cx="103.699" cy="54.385" r=".363" fill="#cbcbcb" stroke="#999" stroke-width=".08" stroke-miterlimit="10"/><circle cx="96.702" cy="54.39" r="2.235" fill="#b2b2b2"/><path fill="#b2b2b2" d="M94.467 54.39h4.47v3.15h-4.47z"/><path d="M97.867 56.298a2.234 2.234 0 0 0-1.165-4.143 2.235 2.235 0 0 0-1.164 4.143" fill="#b2b2b2"/><path fill="#CCC" d="M95.933 53.62h1.54v1.54h-1.54z"/><path d="M96.566 54.39c1.252.657 2.125 2.39 2.37 3.15v-3.15c0-.762-.38-1.434-.962-1.837a3.463 3.463 0 0 1-1.408 1.837z" fill="#999"/><path d="M95.933 53.62v1.54H96c.234-.3.518-.56.84-.77a3.424 3.424 0 0 1-.84-.77h-.067z" fill="#999"/><circle cx="96.702" cy="54.39" r=".363" fill="#cbcbcb" stroke="#999" stroke-width=".08" stroke-miterlimit="10"/><g><circle cx="89.544" cy="54.385" r="2.235" fill="#b2b2b2"/><path fill="#b2b2b2" d="M87.31 54.385h4.47v3.15h-4.47z"/><path d="M90.71 56.293a2.234 2.234 0 0 0-1.165-4.143 2.235 2.235 0 0 0-1.165 4.143" fill="#b2b2b2"/><path fill="#CCC" d="M88.775 53.615h1.54v1.54h-1.54z"/><path d="M89.408 54.385c1.253.656 2.125 2.388 2.372 3.15v-3.15c0-.762-.382-1.434-.964-1.838a3.463 3.463 0 0 1-1.408 1.838z" fill="#999"/><path d="M88.775 53.615v1.54h.066c.236-.3.52-.562.84-.77a3.47 3.47 0 0 1-.84-.77h-.065z" fill="#999"/><circle cx="89.544" cy="54.385" r=".363" fill="#cbcbcb" stroke="#999" stroke-width=".08" stroke-miterlimit="10"/></g><g><circle cx="82.387" cy="54.385" r="2.235" fill="#b2b2b2"/><path fill="#b2b2b2" d="M80.152 54.385h4.47v3.15h-4.47z"/><path d="M83.55 56.293a2.234 2.234 0 0 0-1.163-4.143 2.235 2.235 0 0 0-1.165 4.143" fill="#b2b2b2"/><path fill="#CCC" d="M81.617 53.615h1.54v1.54h-1.54z"/><path d="M82.25 54.385c1.253.656 2.126 2.388 2.372 3.15v-3.15c0-.762-.382-1.434-.964-1.838a3.463 3.463 0 0 1-1.408 1.838z" fill="#999"/><path d="M81.617 53.615v1.54h.066c.236-.3.52-.562.84-.77a3.54 3.54 0 0 1-.84-.77h-.066z" fill="#999"/><circle cx="82.387" cy="54.385" r=".363" fill="#cbcbcb" stroke="#999" stroke-width=".08" stroke-miterlimit="10"/></g><g><circle cx="68.071" cy="54.385" r="2.235" fill="#b2b2b2"/><path fill="#b2b2b2" d="M65.836 54.385h4.47v3.15h-4.47z"/><path d="M69.236 56.293a2.234 2.234 0 0 0-1.165-4.143 2.235 2.235 0 0 0-1.164 4.143" fill="#b2b2b2"/><path fill="#CCC" d="M67.3 53.615h1.54v1.54H67.3z"/><path d="M67.935 54.385c1.252.656 2.125 2.388 2.37 3.15v-3.15c0-.762-.38-1.434-.962-1.838a3.463 3.463 0 0 1-1.408 1.838z" fill="#999"/><path d="M67.3 53.615v1.54h.068c.235-.3.518-.562.84-.77a3.47 3.47 0 0 1-.84-.77H67.3z" fill="#999"/><circle cx="68.071" cy="54.385" r=".363" fill="#cbcbcb" stroke="#999" stroke-width=".08" stroke-miterlimit="10"/></g><g><circle cx="75.229" cy="54.385" r="2.235" fill="#b2b2b2"/><path fill="#b2b2b2" d="M72.994 54.385h4.47v3.15h-4.47z"/><path d="M76.393 56.293a2.234 2.234 0 0 0-1.164-4.143 2.235 2.235 0 0 0-1.166 4.143" fill="#b2b2b2"/><path fill="#CCC" d="M74.46 53.615h1.538v1.54h-1.54z"/><path d="M75.093 54.385c1.252.656 2.125 2.388 2.37 3.15v-3.15c0-.762-.38-1.434-.962-1.838a3.463 3.463 0 0 1-1.407 1.838z" fill="#999"/><path d="M74.46 53.615v1.54h.066c.235-.3.518-.562.84-.77a3.482 3.482 0 0 1-.84-.77h-.067z" fill="#999"/><circle cx="75.229" cy="54.385" r=".363" fill="#cbcbcb" stroke="#999" stroke-width=".08" stroke-miterlimit="10"/></g><g><circle cx="60.913" cy="54.385" r="2.235" fill="#b2b2b2"/><path fill="#b2b2b2" d="M58.678 54.385h4.47v3.15h-4.47z"/><path d="M62.078 56.293a2.234 2.234 0 0 0-1.165-4.143 2.235 2.235 0 0 0-1.164 4.143" fill="#b2b2b2"/><path fill="#CCC" d="M60.144 53.615h1.54v1.54h-1.54z"/><path d="M60.777 54.385c1.252.656 2.125 2.388 2.37 3.15v-3.15c0-.762-.38-1.434-.962-1.838a3.463 3.463 0 0 1-1.408 1.838z" fill="#999"/><path d="M60.144 53.615v1.54h.066c.235-.3.52-.562.84-.77a3.52 3.52 0 0 1-.84-.77h-.066z" fill="#999"/><circle cx="60.913" cy="54.385" r=".363" fill="#cbcbcb" stroke="#999" stroke-width=".08" stroke-miterlimit="10"/></g><g><circle cx="53.755" cy="54.385" r="2.235" fill="#b2b2b2"/><path fill="#b2b2b2" d="M51.52 54.385h4.47v3.15h-4.47z"/><path d="M54.92 56.293a2.234 2.234 0 0 0-1.165-4.143 2.235 2.235 0 0 0-1.164 4.143" fill="#b2b2b2"/><path fill="#CCC" d="M52.986 53.615h1.54v1.54h-1.54z"/><path d="M53.62 54.385c1.25.656 2.124 2.388 2.37 3.15v-3.15a2.23 2.23 0 0 0-.963-1.838 3.463 3.463 0 0 1-1.408 1.838z" fill="#999"/><path d="M52.986 53.615v1.54h.066c.235-.3.52-.562.84-.77a3.52 3.52 0 0 1-.84-.77h-.066z" fill="#999"/><circle cx="53.755" cy="54.385" r=".363" fill="#cbcbcb" stroke="#999" stroke-width=".08" stroke-miterlimit="10"/></g><g><circle cx="46.597" cy="54.404" r="2.235" fill="#b2b2b2"/><path fill="#b2b2b2" d="M44.362 54.404h4.47v3.15h-4.47z"/><path d="M47.762 56.312a2.234 2.234 0 0 0-1.165-4.143 2.235 2.235 0 0 0-1.164 4.142" fill="#b2b2b2"/><path fill="#CCC" d="M45.828 53.635h1.54v1.54h-1.54z"/><path d="M46.46 54.404c1.254.657 2.126 2.39 2.372 3.15v-3.15c0-.762-.38-1.434-.963-1.837a3.463 3.463 0 0 1-1.41 1.837z" fill="#999"/><path d="M45.828 53.635v1.54h.066a3.44 3.44 0 0 1 .84-.77 3.52 3.52 0 0 1-.84-.77h-.066z" fill="#999"/><circle cx="46.597" cy="54.404" r=".363" fill="#cbcbcb" stroke="#999" stroke-width=".08" stroke-miterlimit="10"/></g><g><circle cx="39.44" cy="54.385" r="2.235" fill="#b2b2b2"/><path fill="#b2b2b2" d="M37.205 54.385h4.47v3.15h-4.47z"/><path d="M40.604 56.293a2.234 2.234 0 0 0-1.164-4.143 2.235 2.235 0 0 0-1.165 4.143" fill="#b2b2b2"/><path fill="#CCC" d="M38.67 53.615h1.54v1.54h-1.54z"/><path d="M39.303 54.385c1.253.656 2.126 2.388 2.372 3.15v-3.15c0-.762-.382-1.434-.964-1.838a3.463 3.463 0 0 1-1.407 1.838z" fill="#999"/><path d="M38.67 53.615v1.54h.066c.236-.3.52-.562.84-.77a3.54 3.54 0 0 1-.84-.77h-.066z" fill="#999"/><circle cx="39.44" cy="54.385" r=".363" fill="#cbcbcb" stroke="#999" stroke-width=".08" stroke-miterlimit="10"/></g><g><circle cx="32.282" cy="54.385" r="2.235" fill="#b2b2b2"/><path fill="#b2b2b2" d="M30.047 54.385h4.47v3.15h-4.47z"/><path d="M33.446 56.293a2.234 2.234 0 0 0-1.164-4.143 2.235 2.235 0 0 0-1.165 4.143" fill="#b2b2b2"/><path fill="#CCC" d="M31.512 53.615h1.54v1.54h-1.54z"/><path d="M32.145 54.385c1.253.656 2.126 2.388 2.372 3.15v-3.15c0-.762-.382-1.434-.963-1.838a3.463 3.463 0 0 1-1.41 1.838z" fill="#999"/><path d="M31.512 53.615v1.54h.066c.236-.3.52-.562.84-.77a3.54 3.54 0 0 1-.84-.77h-.066z" fill="#999"/><circle cx="32.282" cy="54.385" r=".363" fill="#cbcbcb" stroke="#999" stroke-width=".08" stroke-miterlimit="10"/></g><g><circle cx="25.124" cy="54.385" r="2.235" fill="#b2b2b2"/><path fill="#b2b2b2" d="M22.89 54.385h4.47v3.15h-4.47z"/><path d="M26.29 56.293a2.234 2.234 0 0 0-1.166-4.143 2.235 2.235 0 0 0-1.165 4.143" fill="#b2b2b2"/><path fill="#CCC" d="M24.354 53.615h1.54v1.54h-1.54z"/><path d="M24.988 54.385c1.252.656 2.125 2.388 2.37 3.15v-3.15c0-.762-.38-1.434-.962-1.838a3.463 3.463 0 0 1-1.408 1.838z" fill="#999"/><path d="M24.354 53.615v1.54h.067c.236-.3.52-.562.84-.77a3.54 3.54 0 0 1-.84-.77h-.066z" fill="#999"/><circle cx="25.124" cy="54.385" r=".363" fill="#cbcbcb" stroke="#999" stroke-width=".08" stroke-miterlimit="10"/></g><g><circle cx="17.966" cy="54.385" r="2.235" fill="#b2b2b2"/><path fill="#b2b2b2" d="M15.73 54.385h4.47v3.15h-4.47z"/><path d="M19.13 56.293a2.234 2.234 0 0 0-1.164-4.143 2.235 2.235 0 0 0-1.164 4.143" fill="#b2b2b2"/><path fill="#CCC" d="M17.197 53.615h1.54v1.54h-1.54z"/><path d="M17.83 54.385c1.252.656 2.125 2.388 2.37 3.15v-3.15c0-.762-.38-1.434-.962-1.838a3.463 3.463 0 0 1-1.408 1.838z" fill="#999"/><path d="M17.197 53.615v1.54h.066c.235-.3.52-.562.84-.77a3.52 3.52 0 0 1-.84-.77h-.066z" fill="#999"/><circle cx="17.966" cy="54.385" r=".363" fill="#cbcbcb" stroke="#999" stroke-width=".08" stroke-miterlimit="10"/></g><g><circle cx="10.808" cy="54.404" r="2.235" fill="#b2b2b2"/><path fill="#b2b2b2" d="M8.573 54.404h4.47v3.15h-4.47z"/><path d="M11.973 56.312a2.234 2.234 0 0 0-1.165-4.143 2.235 2.235 0 0 0-1.164 4.142" fill="#b2b2b2"/><path fill="#CCC" d="M10.04 53.635h1.538v1.54h-1.54z"/><path d="M10.672 54.404c1.252.657 2.125 2.39 2.37 3.15v-3.15c0-.762-.38-1.434-.962-1.837a3.463 3.463 0 0 1-1.408 1.837z" fill="#999"/><path d="M10.04 53.635v1.54h.065a3.44 3.44 0 0 1 .84-.77 3.52 3.52 0 0 1-.84-.77h-.066z" fill="#999"/><circle cx="10.808" cy="54.404" r=".363" fill="#cbcbcb" stroke="#999" stroke-width=".08" stroke-miterlimit="10"/></g></g><g><circle cx="103.699" cy="3.268" r="2.235" fill="#b2b2b2"/><circle cx="132.492" cy="3.268" r="2.235" fill="#b2b2b2"/><path fill="#b2b2b2" d="M130.257.117h4.47v3.15h-4.47z"/><path d="M133.656 1.36a2.234 2.234 0 0 1-1.164 4.143 2.235 2.235 0 0 1-1.165-4.143" fill="#b2b2b2"/><path fill="#CCC" d="M131.722 2.498h1.54v1.54h-1.54z"/><path d="M132.355 3.268c1.253-.657 2.126-2.39 2.372-3.15v3.15a2.23 2.23 0 0 1-.964 1.837 3.463 3.463 0 0 0-1.408-1.837z" fill="#999"/><path d="M131.722 4.037v-1.54h.066c.235.3.52.562.84.77-.32.21-.605.47-.84.77h-.066z" fill="#999"/><circle cx="132.492" cy="3.268" r=".363" fill="#cbcbcb" stroke="#999" stroke-width=".08" stroke-miterlimit="10"/><path d="M104.864 1.36a2.234 2.234 0 0 1-1.165 4.143 2.235 2.235 0 0 1-1.165-4.143" fill="#b2b2b2"/><path fill="#CCC" d="M102.93 2.498h1.54v1.54h-1.54z"/><path d="M102.93 4.037v-1.54h.066c.235.3.52.562.84.77-.32.21-.605.47-.84.77h-.066z" fill="#999"/><circle cx="103.699" cy="3.268" r=".363" fill="#cbcbcb" stroke="#999" stroke-width=".08" stroke-miterlimit="10"/><circle cx="125.334" cy="3.235" r="2.235" fill="#b2b2b2"/><path fill="#b2b2b2" d="M123.1.084h4.47v3.15h-4.47z"/><path d="M126.498 1.327a2.234 2.234 0 0 1-1.164 4.143 2.235 2.235 0 0 1-1.165-4.143" fill="#b2b2b2"/><path fill="#CCC" d="M124.564 2.465h1.54v1.54h-1.54z"/><path d="M125.197 3.235c1.253-.657 2.126-2.39 2.372-3.15v3.15c0 .762-.383 1.434-.965 1.837a3.463 3.463 0 0 0-1.408-1.837z" fill="#999"/><path d="M124.564 4.004v-1.54h.066c.236.302.52.562.84.77-.32.21-.604.47-.84.77h-.066z" fill="#999"/><circle cx="125.334" cy="3.235" r=".363" fill="#cbcbcb" stroke="#999" stroke-width=".08" stroke-miterlimit="10"/><circle cx="118.176" cy="3.268" r="2.235" fill="#b2b2b2"/><path fill="#b2b2b2" d="M115.94.117h4.47v3.15h-4.47z"/><path d="M119.34 1.36a2.234 2.234 0 0 1-1.164 4.143 2.235 2.235 0 0 1-1.165-4.143" fill="#b2b2b2"/><path fill="#CCC" d="M117.406 2.498h1.54v1.54h-1.54z"/><path d="M118.04 3.268c1.252-.657 2.125-2.39 2.37-3.15v3.15c0 .762-.38 1.434-.962 1.837a3.463 3.463 0 0 0-1.408-1.837z" fill="#999"/><path d="M117.406 4.037v-1.54h.067c.235.3.518.562.84.77-.322.21-.605.47-.84.77h-.067z" fill="#999"/><circle cx="118.176" cy="3.268" r=".363" fill="#cbcbcb" stroke="#999" stroke-width=".08" stroke-miterlimit="10"/><circle cx="111.018" cy="3.268" r="2.235" fill="#b2b2b2"/><path fill="#b2b2b2" d="M108.783.117h4.47v3.15h-4.47z"/><path d="M112.183 1.36a2.234 2.234 0 0 1-1.165 4.143 2.235 2.235 0 0 1-1.165-4.143" fill="#b2b2b2"/><path fill="#CCC" d="M110.248 2.498h1.54v1.54h-1.54z"/><path d="M110.882 3.268c1.252-.657 2.125-2.39 2.37-3.15v3.15c0 .762-.38 1.434-.962 1.837a3.463 3.463 0 0 0-1.408-1.837z" fill="#999"/><path d="M110.25 4.037v-1.54h.065c.235.3.518.562.84.77-.322.21-.605.47-.84.77h-.066z" fill="#999"/><circle cx="111.018" cy="3.268" r=".363" fill="#cbcbcb" stroke="#999" stroke-width=".08" stroke-miterlimit="10"/><circle cx="103.699" cy="3.268" r="2.235" fill="#b2b2b2"/><path fill="#b2b2b2" d="M101.464.117h4.47v3.15h-4.47z"/><path d="M104.864 1.36a2.234 2.234 0 0 1-1.165 4.143 2.235 2.235 0 0 1-1.165-4.143" fill="#b2b2b2"/><path fill="#CCC" d="M102.93 2.498h1.54v1.54h-1.54z"/><path d="M103.563 3.268c1.252-.657 2.125-2.39 2.37-3.15v3.15c0 .762-.38 1.434-.962 1.837a3.463 3.463 0 0 0-1.407-1.837z" fill="#999"/><path d="M102.93 4.037v-1.54h.066c.235.3.52.562.84.77-.32.21-.605.47-.84.77h-.066z" fill="#999"/><circle cx="103.699" cy="3.268" r=".363" fill="#cbcbcb" stroke="#999" stroke-width=".08" stroke-miterlimit="10"/><circle cx="96.702" cy="3.262" r="2.235" fill="#b2b2b2"/><path fill="#b2b2b2" d="M94.467.11h4.47v3.152h-4.47z"/><path d="M97.867 1.354a2.234 2.234 0 0 1-1.165 4.143 2.235 2.235 0 0 1-1.164-4.143" fill="#b2b2b2"/><path fill="#CCC" d="M95.933 2.493h1.54v1.54h-1.54z"/><path d="M96.566 3.262c1.252-.657 2.125-2.388 2.37-3.15v3.15c0 .762-.38 1.434-.962 1.838a3.463 3.463 0 0 0-1.408-1.838z" fill="#999"/><path d="M95.933 4.032v-1.54H96c.234.3.518.562.84.77-.322.21-.606.47-.84.77h-.067z" fill="#999"/><circle cx="96.702" cy="3.262" r=".363" fill="#cbcbcb" stroke="#999" stroke-width=".08" stroke-miterlimit="10"/><g><circle cx="89.544" cy="3.268" r="2.235" fill="#b2b2b2"/><path fill="#b2b2b2" d="M87.31.117h4.47v3.15h-4.47z"/><path d="M90.71 1.36a2.234 2.234 0 0 1-1.165 4.143A2.235 2.235 0 0 1 88.38 1.36" fill="#b2b2b2"/><path fill="#CCC" d="M88.775 2.498h1.54v1.54h-1.54z"/><path d="M89.408 3.268C90.66 2.61 91.533.878 91.78.118v3.15a2.23 2.23 0 0 1-.964 1.837 3.463 3.463 0 0 0-1.408-1.837z" fill="#999"/><path d="M88.775 4.037v-1.54h.066c.236.3.52.562.84.77-.32.21-.604.47-.84.77h-.065z" fill="#999"/><circle cx="89.544" cy="3.268" r=".363" fill="#cbcbcb" stroke="#999" stroke-width=".08" stroke-miterlimit="10"/></g><g><circle cx="82.387" cy="3.268" r="2.235" fill="#b2b2b2"/><path fill="#b2b2b2" d="M80.152.117h4.47v3.15h-4.47z"/><path d="M83.55 1.36a2.234 2.234 0 0 1-1.163 4.143 2.235 2.235 0 0 1-1.165-4.143" fill="#b2b2b2"/><path fill="#CCC" d="M81.617 2.498h1.54v1.54h-1.54z"/><path d="M82.25 3.268c1.253-.657 2.126-2.39 2.372-3.15v3.15a2.23 2.23 0 0 1-.964 1.837 3.463 3.463 0 0 0-1.408-1.837z" fill="#999"/><path d="M81.617 4.037v-1.54h.066c.236.3.52.562.84.77-.32.21-.604.47-.84.77h-.066z" fill="#999"/><circle cx="82.387" cy="3.268" r=".363" fill="#cbcbcb" stroke="#999" stroke-width=".08" stroke-miterlimit="10"/></g><g><circle cx="68.071" cy="3.268" r="2.235" fill="#b2b2b2"/><path fill="#b2b2b2" d="M65.836.117h4.47v3.15h-4.47z"/><path d="M69.236 1.36a2.234 2.234 0 0 1-1.165 4.143 2.235 2.235 0 0 1-1.164-4.143" fill="#b2b2b2"/><path fill="#CCC" d="M67.3 2.498h1.54v1.54H67.3z"/><path d="M67.935 3.268c1.252-.657 2.125-2.39 2.37-3.15v3.15c0 .762-.38 1.434-.962 1.837a3.463 3.463 0 0 0-1.408-1.837z" fill="#999"/><path d="M67.3 4.037v-1.54h.068c.235.3.518.562.84.77-.322.21-.605.47-.84.77H67.3z" fill="#999"/><circle cx="68.071" cy="3.268" r=".363" fill="#cbcbcb" stroke="#999" stroke-width=".08" stroke-miterlimit="10"/></g><g><circle cx="75.229" cy="3.268" r="2.235" fill="#b2b2b2"/><path fill="#b2b2b2" d="M72.994.117h4.47v3.15h-4.47z"/><path d="M76.393 1.36a2.234 2.234 0 0 1-1.164 4.143 2.235 2.235 0 0 1-1.166-4.143" fill="#b2b2b2"/><path fill="#CCC" d="M74.46 2.498h1.538v1.54h-1.54z"/><path d="M75.093 3.268c1.252-.657 2.125-2.39 2.37-3.15v3.15c0 .762-.38 1.434-.962 1.837a3.463 3.463 0 0 0-1.407-1.837z" fill="#999"/><path d="M74.46 4.037v-1.54h.066c.235.3.518.562.84.77-.322.21-.605.47-.84.77h-.067z" fill="#999"/><circle cx="75.229" cy="3.268" r=".363" fill="#cbcbcb" stroke="#999" stroke-width=".08" stroke-miterlimit="10"/></g><g><circle cx="60.913" cy="3.268" r="2.235" fill="#b2b2b2"/><path fill="#b2b2b2" d="M58.678.117h4.47v3.15h-4.47z"/><path d="M62.078 1.36a2.234 2.234 0 0 1-1.165 4.143A2.235 2.235 0 0 1 59.75 1.36" fill="#b2b2b2"/><path fill="#CCC" d="M60.144 2.498h1.54v1.54h-1.54z"/><path d="M60.777 3.268c1.252-.657 2.125-2.39 2.37-3.15v3.15c0 .762-.38 1.434-.962 1.837a3.463 3.463 0 0 0-1.408-1.837z" fill="#999"/><path d="M60.144 4.037v-1.54h.066c.235.3.52.562.84.77-.32.21-.605.47-.84.77h-.066z" fill="#999"/><circle cx="60.913" cy="3.268" r=".363" fill="#cbcbcb" stroke="#999" stroke-width=".08" stroke-miterlimit="10"/></g><g><circle cx="53.755" cy="3.268" r="2.235" fill="#b2b2b2"/><path fill="#b2b2b2" d="M51.52.117h4.47v3.15h-4.47z"/><path d="M54.92 1.36a2.234 2.234 0 0 1-1.165 4.143A2.235 2.235 0 0 1 52.59 1.36" fill="#b2b2b2"/><path fill="#CCC" d="M52.986 2.498h1.54v1.54h-1.54z"/><path d="M53.62 3.268c1.25-.657 2.124-2.39 2.37-3.15v3.15c0 .762-.38 1.434-.963 1.837a3.463 3.463 0 0 0-1.408-1.837z" fill="#999"/><path d="M52.986 4.037v-1.54h.066c.235.3.52.562.84.77-.32.21-.605.47-.84.77h-.066z" fill="#999"/><circle cx="53.755" cy="3.268" r=".363" fill="#cbcbcb" stroke="#999" stroke-width=".08" stroke-miterlimit="10"/></g><g><circle cx="46.597" cy="3.249" r="2.235" fill="#b2b2b2"/><path fill="#b2b2b2" d="M44.362.098h4.47v3.15h-4.47z"/><path d="M47.762 1.34a2.234 2.234 0 0 1-1.165 4.143 2.235 2.235 0 0 1-1.164-4.142" fill="#b2b2b2"/><path fill="#CCC" d="M45.828 2.48h1.54v1.538h-1.54z"/><path d="M46.46 3.248c1.254-.656 2.126-2.388 2.372-3.15v3.15c0 .76-.38 1.435-.963 1.838a3.463 3.463 0 0 0-1.41-1.838z" fill="#999"/><path d="M45.828 4.018v-1.54h.066c.235.3.52.562.84.77-.32.21-.605.47-.84.77h-.066z" fill="#999"/><circle cx="46.597" cy="3.249" r=".363" fill="#cbcbcb" stroke="#999" stroke-width=".08" stroke-miterlimit="10"/></g><g><circle cx="39.44" cy="3.268" r="2.235" fill="#b2b2b2"/><path fill="#b2b2b2" d="M37.205.117h4.47v3.15h-4.47z"/><path d="M40.604 1.36a2.234 2.234 0 0 1-1.164 4.143 2.235 2.235 0 0 1-1.165-4.143" fill="#b2b2b2"/><path fill="#CCC" d="M38.67 2.498h1.54v1.54h-1.54z"/><path d="M39.303 3.268c1.253-.657 2.126-2.39 2.372-3.15v3.15a2.23 2.23 0 0 1-.964 1.837 3.463 3.463 0 0 0-1.407-1.837z" fill="#999"/><path d="M38.67 4.037v-1.54h.066c.236.3.52.562.84.77-.32.21-.604.47-.84.77h-.066z" fill="#999"/><circle cx="39.44" cy="3.268" r=".363" fill="#cbcbcb" stroke="#999" stroke-width=".08" stroke-miterlimit="10"/></g><g><circle cx="32.282" cy="3.268" r="2.235" fill="#b2b2b2"/><path fill="#b2b2b2" d="M30.047.117h4.47v3.15h-4.47z"/><path d="M33.446 1.36a2.234 2.234 0 0 1-1.164 4.143 2.235 2.235 0 0 1-1.165-4.143" fill="#b2b2b2"/><path fill="#CCC" d="M31.512 2.498h1.54v1.54h-1.54z"/><path d="M32.145 3.268c1.253-.657 2.126-2.39 2.372-3.15v3.15c0 .762-.382 1.434-.963 1.837a3.463 3.463 0 0 0-1.41-1.837z" fill="#999"/><path d="M31.512 4.037v-1.54h.066c.236.3.52.562.84.77-.32.21-.604.47-.84.77h-.066z" fill="#999"/><circle cx="32.282" cy="3.268" r=".363" fill="#cbcbcb" stroke="#999" stroke-width=".08" stroke-miterlimit="10"/></g><g><circle cx="25.124" cy="3.268" r="2.235" fill="#b2b2b2"/><path fill="#b2b2b2" d="M22.89.117h4.47v3.15h-4.47z"/><path d="M26.29 1.36a2.234 2.234 0 0 1-1.166 4.143A2.235 2.235 0 0 1 23.96 1.36" fill="#b2b2b2"/><path fill="#CCC" d="M24.354 2.498h1.54v1.54h-1.54z"/><path d="M24.988 3.268c1.252-.657 2.125-2.39 2.37-3.15v3.15c0 .762-.38 1.434-.962 1.837a3.463 3.463 0 0 0-1.408-1.837z" fill="#999"/><path d="M24.354 4.037v-1.54h.067c.236.3.52.562.84.77-.32.21-.604.47-.84.77h-.066z" fill="#999"/><circle cx="25.124" cy="3.268" r=".363" fill="#cbcbcb" stroke="#999" stroke-width=".08" stroke-miterlimit="10"/></g><g><circle cx="17.966" cy="3.268" r="2.235" fill="#b2b2b2"/><path fill="#b2b2b2" d="M15.73.117h4.47v3.15h-4.47z"/><path d="M19.13 1.36a2.234 2.234 0 0 1-1.164 4.143 2.235 2.235 0 0 1-1.164-4.143" fill="#b2b2b2"/><path fill="#CCC" d="M17.197 2.498h1.54v1.54h-1.54z"/><path d="M17.83 3.268c1.252-.657 2.125-2.39 2.37-3.15v3.15c0 .762-.38 1.434-.962 1.837a3.463 3.463 0 0 0-1.408-1.837z" fill="#999"/><path d="M17.197 4.037v-1.54h.066c.235.3.52.562.84.77-.32.21-.605.47-.84.77h-.066z" fill="#999"/><circle cx="17.966" cy="3.268" r=".363" fill="#cbcbcb" stroke="#999" stroke-width=".08" stroke-miterlimit="10"/></g><g><circle cx="10.808" cy="3.249" r="2.235" fill="#b2b2b2"/><path fill="#b2b2b2" d="M8.573.098h4.47v3.15h-4.47z"/><path d="M11.973 1.34a2.234 2.234 0 0 1-1.165 4.143A2.235 2.235 0 0 1 9.644 1.34" fill="#b2b2b2"/><path fill="#CCC" d="M10.04 2.48h1.538v1.538h-1.54z"/><path d="M10.672 3.248c1.252-.656 2.125-2.388 2.37-3.15v3.15c0 .76-.38 1.435-.962 1.838a3.463 3.463 0 0 0-1.408-1.838z" fill="#999"/><path d="M10.04 4.018v-1.54h.065c.235.3.52.562.84.77-.32.21-.605.47-.84.77h-.066z" fill="#999"/><circle cx="10.808" cy="3.249" r=".363" fill="#cbcbcb" stroke="#999" stroke-width=".08" stroke-miterlimit="10"/></g></g><g fill="#00a9f3"><path d="M128.363 52.2a.805.805 0 0 0-.112.395c0 .31.198.404.346.402.25-.003.355-.227.355-.46v-.134h.182v.134c0 .175.09.397.3.397.143 0 .27-.09.27-.312a.653.653 0 0 0-.12-.356l.176-.062a.845.845 0 0 1 .137.465c0 .35-.208.507-.424.507-.182 0-.338-.11-.418-.328h-.005c-.044.218-.208.396-.457.396-.284 0-.533-.222-.533-.65 0-.198.063-.373.12-.46l.186.065zm-.276 1.836l1.843-.602v.257l-.908.29a9.56 9.56 0 0 1-.69.196v.005c.214.053.447.13.688.212l.91.31v.256l-1.843-.66v-.262zm.276 1.094a.805.805 0 0 0-.112.394c0 .31.198.405.346.402.25-.003.355-.227.355-.46v-.133h.182v.134c0 .175.09.396.3.396.143 0 .27-.09.27-.312a.653.653 0 0 0-.12-.354l.176-.063a.845.845 0 0 1 .137.465c0 .35-.208.51-.424.51-.182 0-.338-.11-.418-.33h-.005c-.044.22-.208.397-.457.397-.284 0-.533-.222-.533-.648 0-.2.063-.375.12-.462l.186.065z"/></g><g fill="#00a9f3"><path d="M125.532 36.637c.017.11.03.243.03.388 0 .262-.06.448-.176.572-.116.126-.28.2-.508.2-.23 0-.42-.072-.55-.204-.13-.132-.202-.35-.202-.625 0-.13.006-.24.016-.33h1.39zm-1.25.182a1.15 1.15 0 0 0-.01.184c0 .39.218.6.6.6.333.003.545-.185.545-.57a.933.933 0 0 0-.02-.215h-1.114zm.972 1.747h-.493v.474h-.125v-.474h-.497v-.134h.497v-.474h.126v.474h.494v.134z"/></g><g fill="#00a9f3"><path d="M125.532 44.432c.017.11.03.243.03.388 0 .262-.06.448-.176.572-.116.126-.28.2-.508.2-.23 0-.42-.072-.55-.204-.13-.132-.202-.35-.202-.625 0-.13.006-.24.016-.33h1.39zm-1.25.182c-.008.046-.01.114-.01.185 0 .39.218.6.6.6.333.003.545-.186.545-.572a.935.935 0 0 0-.02-.214h-1.114zm.491 1.666h-.136v-.518h.136v.517z"/></g><g fill="#00a9f3"><path d="M122.727 52.38c.025.122.038.294.038.458 0 .254-.046.42-.15.533a.46.46 0 0 1-.35.146.484.484 0 0 1-.47-.347h-.01c-.048.14-.18.226-.37.27-.258.06-.436.104-.507.142v-.246c.052-.03.21-.07.44-.123.255-.055.35-.153.36-.37v-.224h-.8v-.24h1.82zm-.84.24v.243c0 .254.14.415.35.415.238 0 .342-.172.345-.424a.98.98 0 0 0-.022-.235h-.673zm-.689 1.2a.843.843 0 0 0-.12.427c0 .243.128.385.314.385.173 0 .27-.098.367-.347.105-.3.26-.487.52-.487.288 0 .502.238.502.596 0 .19-.044.326-.09.408l-.195-.066a.734.734 0 0 0 .088-.35c0-.25-.15-.347-.276-.347-.174 0-.26.11-.357.365-.12.312-.27.47-.542.47-.283 0-.53-.21-.53-.645 0-.177.053-.372.12-.47l.198.06zm1.352 1.73v-.56h.202v1.365h-.203v-.563h-1.642v-.24h1.64z"/></g><g fill="#00a9f3"><path d="M113.73 51.134l1.843-.602v.257l-.908.287c-.25.08-.473.147-.69.196v.006c.214.05.446.128.687.21l.91.31v.256l-1.842-.66v-.262zm1.818 1.122c.022.103.04.268.04.434 0 .238-.042.39-.135.506a.387.387 0 0 1-.326.154c-.178 0-.334-.118-.405-.312h-.005c-.044.175-.19.38-.462.38a.497.497 0 0 1-.37-.156c-.117-.13-.172-.336-.172-.637 0-.164.01-.29.022-.37h1.813zm-.755.237v.217c0 .25.132.4.31.4.216 0 .3-.165.3-.406 0-.11-.008-.172-.016-.21h-.594zm-.883 0a1.27 1.27 0 0 0-.01.2c0 .246.09.473.357.473.252 0 .356-.216.356-.476v-.197h-.703zm.4 1.543l-.58-.19v-.247l1.843.625v.287l-1.843.63v-.255l.58-.197v-.654zm.185.604l.53-.18c.12-.04.23-.068.337-.096v-.005a5.54 5.54 0 0 1-.333-.094l-.535-.18v.554zm.875.91v-.56h.203v1.365h-.203v-.563h-1.64v-.24h1.64z"/></g><g fill="#00a9f3"><path d="M106.633 52.575a1.717 1.717 0 0 1-.1-.566c0-.28.07-.51.242-.69.153-.16.4-.257.687-.257.55.003.95.38.95.998 0 .215-.045.38-.083.46l-.196-.057a.943.943 0 0 0 .08-.407c0-.45-.28-.74-.74-.74-.47 0-.745.28-.745.71 0 .156.02.262.048.317h.55v-.375h.19v.607h-.885zm-.083.365h1.844v.26l-.932.59a4.99 4.99 0 0 1-.6.33l.003.006c.246-.022.47-.027.758-.027h.77v.223h-1.842v-.24l.936-.586a5.86 5.86 0 0 1 .616-.344l-.003-.008c-.234.013-.455.02-.762.02h-.787v-.226zm1.82 1.8c.02.144.038.316.038.505 0 .342-.08.585-.23.747-.15.164-.364.26-.662.26-.3 0-.547-.093-.716-.266-.173-.172-.266-.457-.266-.815 0-.168.01-.31.022-.43h1.814zm-1.63.237c-.01.06-.014.148-.014.24 0 .51.284.786.782.786.435.002.71-.244.71-.747 0-.123-.01-.216-.023-.28h-1.455z"/></g><g fill="#00a9f3"><path d="M94.012 53.336c.022.145.038.317.038.506 0 .342-.08.585-.23.747-.15.163-.363.258-.66.258-.302 0-.548-.093-.718-.265-.172-.172-.265-.457-.265-.815 0-.17.008-.312.022-.432h1.812zm-1.63.238c-.01.06-.014.148-.014.24 0 .51.285.785.783.785.435.002.712-.244.712-.747 0-.123-.01-.216-.025-.28h-1.455zm1.42 2.513a.87.87 0 0 0-.01-.18.722.722 0 0 0-.633-.618v.007a.53.53 0 0 1 .204.43c0 .314-.227.535-.574.535-.326 0-.627-.22-.627-.59 0-.38.296-.63.758-.63.35 0 .627.127.802.302a.968.968 0 0 1 .263.568c.01.072.013.132.013.175h-.196zm-1.026-.068c.254 0 .407-.146.407-.367 0-.145-.09-.28-.218-.345a.205.205 0 0 0-.107-.027c-.293.006-.51.14-.51.392 0 .208.174.347.428.347z"/></g><g fill="#00a9f3"><path d="M86.833 53.336c.022.145.04.317.04.506 0 .342-.08.585-.23.747-.15.163-.365.258-.663.258-.3 0-.547-.093-.716-.265-.173-.172-.266-.457-.266-.815 0-.17.008-.312.022-.432h1.813zm-1.63.238a1.63 1.63 0 0 0-.013.24c0 .51.284.785.782.785.435.002.71-.244.71-.747 0-.123-.01-.216-.024-.28h-1.455zm1.387 2.56v-.678l-.457-.07c.006.042.01.08.01.146 0 .137-.03.274-.095.383a.507.507 0 0 1-.456.255c-.348 0-.607-.277-.607-.662a.87.87 0 0 1 .11-.443l.182.06a.796.796 0 0 0-.098.38c0 .227.146.42.384.42.23-.002.394-.155.394-.51 0-.102-.01-.18-.02-.246l.854.113v.85h-.202z"/></g><g fill="#00a9f3"><path d="M79.655 53.336c.022.145.038.317.038.506 0 .342-.08.585-.23.747-.15.163-.364.258-.662.258-.3 0-.546-.093-.715-.265-.172-.172-.265-.457-.265-.815 0-.17.008-.312.02-.432h1.815zm-1.63.238c-.01.06-.014.148-.014.24 0 .51.285.785.783.785.435.002.71-.244.71-.747 0-.123-.01-.216-.023-.28h-1.455zm-.189 2.243h.484v-.826h.16l1.134.794v.26H78.51v.25h-.19v-.25h-.484v-.227zm.673 0h.592c.093 0 .186.002.28.008v-.008a5.03 5.03 0 0 1-.263-.148l-.606-.436h-.005v.583z"/></g><g fill="#00a9f3"><path d="M72.476 53.336c.022.145.038.317.038.506 0 .342-.08.585-.23.747-.15.163-.363.258-.66.258-.302 0-.548-.093-.718-.265-.172-.172-.265-.457-.265-.815 0-.17.01-.312.023-.432h1.813zm-1.63.238c-.01.06-.014.148-.014.24 0 .51.285.785.783.785.434.002.71-.244.71-.747 0-.123-.01-.216-.024-.28h-1.454zm.088 1.556a.804.804 0 0 0-.113.394c0 .31.198.405.346.402.25-.003.356-.227.356-.46v-.133h.18v.134c0 .175.09.396.3.396.143 0 .27-.09.27-.312a.653.653 0 0 0-.12-.354l.176-.063a.845.845 0 0 1 .137.465c0 .35-.208.51-.424.51-.182 0-.338-.11-.417-.33h-.006c-.044.22-.208.397-.456.397-.284 0-.533-.222-.533-.648 0-.2.063-.375.12-.462l.187.065z"/></g><g fill="#00a9f3"><path d="M65.297 53.336c.022.145.04.317.04.506 0 .342-.08.585-.23.747-.152.163-.365.258-.663.258-.3 0-.547-.093-.717-.265-.172-.172-.265-.457-.265-.815 0-.17.008-.312.022-.432h1.813zm-1.63.238a1.63 1.63 0 0 0-.013.24c0 .51.284.785.782.785.435.002.71-.244.71-.747 0-.123-.01-.216-.024-.28h-1.455zm-.187 1.499h.146l.184.188c.432.456.66.66.93.663.18 0 .347-.087.347-.352a.605.605 0 0 0-.15-.377l.17-.076a.78.78 0 0 1 .18.503c0 .383-.263.544-.518.544-.33 0-.594-.238-.955-.613l-.13-.14h-.007v.798h-.2v-1.135z"/></g><g fill="#00a9f3"><path d="M58.12 53.336c.02.145.037.317.037.506 0 .342-.08.585-.23.747-.15.163-.364.258-.662.258-.3 0-.547-.093-.716-.265-.174-.172-.267-.457-.267-.815 0-.17.01-.312.022-.432h1.814zm-1.63.238a1.37 1.37 0 0 0-.015.24c0 .51.284.785.782.785.435.002.71-.244.71-.747 0-.123-.01-.216-.023-.28H56.49zm1.363 2.021v-.005l-.167-.31.184-.046.208.388v.206H56.3v-.233h1.553z"/></g><g fill="#00a9f3"><path d="M50.94 53.336c.022.145.038.317.038.506 0 .342-.08.585-.23.747-.15.163-.363.258-.66.258-.302 0-.548-.093-.718-.265-.172-.172-.265-.457-.265-.815 0-.17.008-.312.022-.432h1.813zm-1.63.238c-.01.06-.014.148-.014.24 0 .51.285.785.782.785.435.002.71-.244.71-.747 0-.123-.01-.216-.023-.28H49.31zm.72 2.68c-.605 0-.94-.224-.94-.618 0-.347.327-.582.915-.588.596 0 .924.257.924.618 0 .375-.335.588-.9.588zM50 55.29c-.462 0-.725.14-.725.36 0 .246.287.364.74.364.44 0 .726-.112.726-.36 0-.212-.257-.365-.74-.365z"/></g><g fill="#00a9f3"><path d="M42.003 54.86a1.18 1.18 0 0 1-.088-.487c0-.52.328-.91.933-.91.577 0 .968.39.968.96 0 .23-.05.376-.082.44l-.194-.058a.867.867 0 0 0 .076-.372c0-.432-.276-.72-.76-.72-.45 0-.74.26-.74.71 0 .144.03.29.075.387l-.187.05zm1.515 1.274v-.678l-.457-.07c.006.042.012.08.012.146a.75.75 0 0 1-.096.383.507.507 0 0 1-.456.255c-.348 0-.608-.277-.608-.662a.87.87 0 0 1 .11-.443l.183.06a.796.796 0 0 0-.098.38c0 .227.147.42.385.42.23-.002.394-.155.394-.51 0-.102-.01-.18-.02-.246l.854.113v.85h-.202z"/></g><g fill="#00a9f3"><path d="M34.824 54.86a1.18 1.18 0 0 1-.088-.487c0-.52.33-.91.933-.91.576 0 .967.39.967.96 0 .23-.05.376-.082.44l-.194-.058a.868.868 0 0 0 .077-.372c0-.432-.276-.72-.76-.72-.45 0-.74.26-.74.71 0 .144.03.29.076.387l-.19.05zm-.06.957h.484v-.826h.158l1.135.794v.26h-1.104v.25h-.188v-.25h-.484v-.227zm.672 0h.594c.093 0 .186.002.28.008v-.008a5.012 5.012 0 0 1-.264-.148l-.604-.436h-.006v.583z"/></g><g fill="#00a9f3"><path d="M27.645 54.86a1.18 1.18 0 0 1-.087-.487c0-.52.328-.91.932-.91.577 0 .968.39.968.96 0 .23-.05.376-.082.44l-.194-.058a.866.866 0 0 0 .077-.372c0-.432-.277-.72-.762-.72-.45 0-.74.26-.74.71 0 .144.03.29.076.387l-.19.05zm.215.27a.805.805 0 0 0-.11.394c0 .31.196.405.344.402.25-.003.355-.227.355-.46v-.133h.18v.134c0 .175.09.396.3.396.143 0 .27-.09.27-.312a.653.653 0 0 0-.12-.354l.176-.063a.844.844 0 0 1 .137.465c0 .35-.208.51-.424.51-.184 0-.34-.11-.42-.33h-.005c-.044.22-.208.397-.457.397-.284 0-.533-.222-.533-.648 0-.2.063-.375.12-.462l.186.065z"/></g><g fill="#00a9f3"><path d="M20.466 54.86a1.18 1.18 0 0 1-.087-.487c0-.52.327-.91.932-.91.577 0 .968.39.968.96 0 .23-.05.376-.082.44l-.194-.058a.868.868 0 0 0 .076-.372c0-.432-.276-.72-.76-.72-.452 0-.74.26-.74.71 0 .144.03.29.075.387l-.19.05zm-.06.213h.148l.183.188c.432.456.662.66.93.663.18 0 .347-.087.347-.352a.605.605 0 0 0-.15-.377l.17-.076a.78.78 0 0 1 .18.503c0 .383-.263.544-.517.544-.328 0-.593-.238-.954-.613l-.132-.14h-.004v.798h-.2v-1.135z"/></g><g fill="#00a9f3"><path d="M13.288 54.86a1.18 1.18 0 0 1-.088-.487c0-.52.328-.91.933-.91.577 0 .968.39.968.96 0 .23-.048.376-.08.44l-.195-.058a.866.866 0 0 0 .076-.372c0-.432-.275-.72-.76-.72-.45 0-.74.26-.74.71 0 .144.03.29.076.387l-.188.05zm1.492.735v-.005l-.166-.31.183-.046.208.388v.206h-1.777v-.233h1.553z"/></g><g fill="#00a9f3"><path d="M6.11 54.86a1.18 1.18 0 0 1-.088-.487c0-.52.328-.91.932-.91.577 0 .968.39.968.96 0 .23-.05.376-.082.44l-.194-.058a.868.868 0 0 0 .077-.372c0-.432-.277-.72-.76-.72-.452 0-.742.26-.742.71 0 .144.03.29.078.387l-.19.05zm.847 1.394c-.605 0-.938-.224-.938-.618 0-.347.324-.582.912-.588.596 0 .925.257.925.618 0 .375-.334.588-.9.588zm-.028-.965c-.463 0-.725.14-.725.36 0 .246.287.364.74.364.44 0 .726-.112.726-.36 0-.212-.256-.365-.74-.365z"/></g><g fill="#00a9f3"><path d="M128.087 1.553L129.93.95v.258l-.908.287c-.25.08-.473.148-.69.197v.006c.214.052.447.128.688.21l.91.312v.255l-1.843-.66v-.262zm1.843 1.359h-1.843v-.238h1.843v.238zm-1.843.416h1.843v.26l-.932.59c-.216.137-.41.244-.6.332l.003.005c.248-.022.472-.027.76-.027h.77v.224h-1.843v-.24l.935-.586c.205-.13.416-.252.616-.345l-.003-.007c-.233.014-.454.02-.76.02h-.788v-.225z"/></g><g fill="#00a9f3"><path d="M120.99 2.55a1.717 1.717 0 0 1-.1-.565c0-.28.07-.51.242-.69.154-.158.4-.256.687-.256.55 0 .95.38.95.997 0 .213-.046.38-.084.46l-.194-.058a.955.955 0 0 0 .08-.41c0-.447-.28-.74-.742-.74-.468 0-.744.282-.744.71 0 .157.022.264.05.32h.55v-.376h.19v.607h-.886zm-.082.365h1.844v.26l-.933.59c-.217.137-.41.244-.6.332l.003.005a8.18 8.18 0 0 1 .757-.027h.772V4.3h-1.844v-.242l.936-.585a5.56 5.56 0 0 1 .615-.345l-.004-.008c-.232.014-.454.02-.76.02h-.788v-.225zm1.819 1.8c.022.145.038.317.038.506 0 .343-.08.586-.23.747-.15.164-.363.26-.66.26-.302 0-.548-.093-.718-.265-.172-.172-.265-.457-.265-.815 0-.17.008-.312.022-.432h1.813zm-1.63.238c-.01.06-.014.147-.014.24 0 .51.285.785.782.785.435.003.712-.243.712-.746 0-.123-.01-.216-.025-.28h-1.455z"/></g><g fill="#00a9f3"><path d="M115.37 1.498v-.56h.203v1.364h-.203V1.74h-1.64v-.242h1.64zm-1.64 2.079l.407-.235c.156-.096.257-.156.364-.214v-.005a4.694 4.694 0 0 1-.366-.2l-.404-.22v-.275l.932.564.91-.542v.276l-.43.244c-.122.068-.215.12-.313.17v.007c.108.052.193.1.31.167l.433.252v.273l-.897-.56-.946.573v-.276z"/></g><g fill="#00a9f3"><path d="M108.37 1.148c.024.12.038.293.038.457 0 .254-.047.418-.15.533a.46.46 0 0 1-.35.145.484.484 0 0 1-.47-.347h-.01c-.05.142-.18.227-.37.27-.258.06-.436.104-.507.143v-.247c.053-.03.21-.072.44-.123.256-.055.35-.154.36-.37v-.224h-.8v-.238h1.82zm-.84.238v.243c0 .254.14.415.35.415.238 0 .342-.172.345-.424a.98.98 0 0 0-.022-.234h-.673zm-.98 2.256l.408-.235a7.24 7.24 0 0 1 .364-.213v-.006a4.64 4.64 0 0 1-.366-.2l-.405-.22v-.274l.933.563.91-.54v.275l-.43.243c-.12.07-.214.12-.313.17v.008c.11.052.194.1.312.167l.432.252v.273l-.897-.56-.946.574V3.64z"/></g><g fill="#00a9f3"><path d="M99.372 1.45l1.843-.47v.253l-.932.22c-.23.053-.46.103-.637.135v.006c.183.03.402.087.64.15l.93.246v.25l-.936.224c-.22.052-.437.1-.632.128v.006c.203.038.408.09.638.147l.93.244v.242L99.37 2.71v-.25l.96-.232a5.74 5.74 0 0 1 .602-.12v-.005a5.753 5.753 0 0 1-.602-.143l-.96-.262v-.25zm1.843 2.012V3.7h-.888v.008c.07.05.136.1.197.145l.69.564v.295l-.78-.667-1.062.72V4.48l.905-.607-.202-.175h-.703V3.46h1.843zm-.021 1.483c.02.114.035.265.035.456 0 .237-.056.41-.154.518a.496.496 0 0 1-.386.162.543.543 0 0 1-.393-.143c-.134-.125-.203-.33-.203-.563a.82.82 0 0 1 .017-.19h-.738v-.24h1.822zm-.89.238a.798.798 0 0 0-.018.196c0 .287.14.462.393.462.243 0 .36-.173.36-.435a1 1 0 0 0-.02-.224h-.715z"/></g><g fill="#00a9f3"><path d="M94.012 1.148c.022.145.038.317.038.506 0 .342-.08.585-.23.747-.15.165-.363.26-.66.26-.302 0-.548-.092-.718-.265-.172-.172-.265-.456-.265-.815 0-.17.008-.312.022-.432h1.812zm-1.63.238c-.01.06-.014.148-.014.24 0 .51.285.786.783.786.435.002.712-.244.712-.747 0-.123-.01-.216-.025-.28h-1.455zm.391 1.844l-.58-.192v-.246l1.844.626v.287l-1.844.63V4.08l.58-.197V3.23zm.186.604l.53-.18c.12-.042.23-.07.336-.096v-.006a5.598 5.598 0 0 1-.333-.093l-.534-.18v.554zm-.705 2.019a1.18 1.18 0 0 1-.088-.487c0-.52.328-.91.933-.91.576 0 .967.39.967.962 0 .23-.05.374-.082.437l-.194-.057a.866.866 0 0 0 .077-.372c0-.432-.276-.72-.76-.72-.45 0-.74.26-.74.71 0 .144.03.292.075.387l-.188.05z"/></g><g fill="#00a9f3"><path d="M85.594 1.446l-.58-.19v-.247l1.844.625v.287l-1.843.63v-.255l.58-.197v-.654zm.186.605l.53-.18c.12-.04.23-.068.337-.096V1.77a5.597 5.597 0 0 1-.333-.094l-.534-.18v.555zm.81 1.747V3.12l-.457-.068a.9.9 0 0 1 .01.145c0 .136-.03.273-.095.383a.507.507 0 0 1-.456.254c-.348 0-.607-.276-.607-.662a.87.87 0 0 1 .11-.443l.182.06a.796.796 0 0 0-.098.38c0 .226.146.42.384.42.23-.002.394-.155.394-.51 0-.102-.01-.18-.02-.247l.854.115v.85h-.202z"/></g><g fill="#00a9f3"><path d="M87.678 11.587c.333-.018.733-.04 1.03-.036v-.01c-.28-.08-.577-.18-.906-.3l-1.158-.422v-.233l1.137-.386c.337-.114.645-.21.928-.277v-.007a32.476 32.476 0 0 1-1.055-.046l-1.023-.064v-.294l2.386.166v.393l-1.154.41c-.294.098-.556.18-.803.24v.01c.24.06.5.145.802.25l1.154.426v.393l-2.386.148v-.3l1.048-.06zm.17 2.873c-.82 0-1.257-.498-1.257-1.107 0-.63.49-1.073 1.212-1.073.758 0 1.253.47 1.253 1.108 0 .652-.5 1.073-1.207 1.073zm-.04-1.85c-.51 0-.965.275-.965.76 0 .49.45.765.99.765.475 0 .97-.248.97-.76 0-.51-.47-.766-.994-.766zm1.176 2.25c.03.188.05.41.05.655 0 .443-.103.758-.297.967-.195.212-.47.336-.857.336-.39 0-.708-.12-.928-.343-.223-.223-.343-.59-.343-1.055 0-.22.01-.404.027-.56h2.347zm-2.11.31c-.014.076-.017.19-.017.31 0 .66.368 1.016 1.012 1.016.562.004.92-.315.92-.966a1.7 1.7 0 0 0-.032-.36h-1.884zm.876 3.283v-.927h-.86v1.034h-.26v-1.342h2.386v1.288h-.258v-.98h-.754v.927h-.255z"/></g><g fill="#00a9f3"><path d="M88.984 39.202c.032.156.05.38.05.59 0 .33-.06.543-.195.692a.594.594 0 0 1-.454.187c-.315 0-.524-.197-.61-.448h-.01c-.063.184-.233.293-.48.35-.334.078-.564.135-.656.184v-.318c.067-.04.273-.092.57-.16.33-.07.453-.198.464-.478v-.29H86.63v-.308h2.354zm-1.086.308v.315c0 .33.18.538.453.538.31 0 .443-.223.447-.548 0-.15-.014-.255-.03-.305h-.87zm-.148 2.832v-.928h-.86v1.034h-.26v-1.342h2.386v1.29h-.258v-.982h-.754v.928h-.255zm-.745.463c-.085.138-.155.34-.155.553 0 .315.166.5.407.5.223 0 .35-.13.474-.45.14-.39.34-.63.677-.63.372 0 .648.307.648.77 0 .245-.056.422-.117.528l-.25-.085a.95.95 0 0 0 .112-.452c0-.326-.194-.45-.357-.45-.223 0-.333.146-.46.475-.156.403-.35.61-.7.61-.37 0-.688-.274-.688-.837 0-.23.067-.48.152-.61l.258.08zm.745 3.023V44.9h-.86v1.035h-.26v-1.342h2.386v1.288h-.258v-.98h-.754v.928h-.255zm1.004 1.016v-.726h.262v1.767h-.262v-.73H86.63v-.31h2.124z"/></g><g fill="#00a9f3"><path d="M78.416 1.446l-.58-.19v-.247l1.843.625v.287l-1.844.63v-.255l.58-.197v-.654zm.186.605l.53-.18c.12-.04.23-.068.337-.096V1.77a5.598 5.598 0 0 1-.335-.094l-.533-.18v.555zm-.766 1.429h.484v-.825h.16l1.134.793v.26H78.51v.25h-.19v-.25h-.484V3.48zm.673 0h.592c.093 0 .186.004.28.01v-.01a5.028 5.028 0 0 1-.263-.147l-.606-.434h-.005v.58z"/></g><g fill="#00a9f3"><path d="M71.237 1.446l-.58-.19v-.247l1.844.625v.287l-1.843.63v-.255l.58-.197v-.654zm.186.605l.53-.18c.12-.04.23-.068.337-.096V1.77a5.597 5.597 0 0 1-.334-.094l-.533-.18v.555zm-.489.744a.805.805 0 0 0-.113.394c0 .308.198.403.346.4.25-.002.356-.226.356-.46v-.133h.18v.134c0 .176.09.398.3.398.143 0 .27-.09.27-.312a.653.653 0 0 0-.12-.356l.176-.063a.845.845 0 0 1 .137.465c0 .35-.208.51-.424.51-.182 0-.338-.11-.417-.33h-.006c-.044.22-.208.397-.456.397-.284 0-.533-.222-.533-.65 0-.198.063-.373.12-.46l.187.065z"/></g><g fill="#00a9f3"><path d="M64.058 1.446l-.58-.19v-.247l1.844.625v.287l-1.843.63v-.255l.578-.197v-.654zm.186.605l.53-.18c.12-.04.23-.068.337-.096V1.77a5.597 5.597 0 0 1-.332-.094l-.534-.18v.555zm-.764.686h.146l.184.19c.432.453.66.658.93.66.18 0 .347-.087.347-.352a.605.605 0 0 0-.15-.377l.17-.077a.78.78 0 0 1 .18.504c0 .383-.263.544-.518.544-.33 0-.594-.237-.955-.612l-.13-.142h-.007v.798h-.2V2.737z"/></g><g fill="#00a9f3"><path d="M56.88 1.446l-.58-.19v-.247l1.843.625v.287l-1.843.63v-.255l.58-.197v-.654zm.186.605l.53-.18c.12-.04.23-.068.337-.096V1.77a5.606 5.606 0 0 1-.334-.094l-.534-.18v.555zm.787 1.209v-.006l-.167-.31.184-.045.208.387v.205H56.3V3.26h1.553z"/></g><g fill="#00a9f3"><path d="M49.7 1.446l-.58-.19v-.247l1.844.625v.287l-1.843.63v-.255l.58-.197v-.654zm.187.605l.53-.18c.12-.04.23-.068.337-.096V1.77a5.605 5.605 0 0 1-.334-.094l-.533-.18v.555zm.143 1.869c-.605 0-.94-.225-.94-.62 0-.347.327-.582.915-.587.596 0 .924.257.924.618 0 .375-.335.59-.9.59zM50 2.952c-.462 0-.725.143-.725.36 0 .248.287.365.74.365.44 0 .726-.112.726-.36 0-.21-.257-.365-.74-.365z"/></g><g fill="#00a9f3"><path d="M43.76 1.148a2.2 2.2 0 0 1 .04.435c0 .238-.042.39-.135.506a.386.386 0 0 1-.325.152c-.178 0-.334-.118-.405-.312h-.005c-.044.175-.19.38-.462.38a.497.497 0 0 1-.37-.155c-.117-.13-.172-.337-.172-.638 0-.164.01-.29.022-.37h1.813zm-.754.238v.216c0 .252.132.4.31.4.215 0 .3-.165.3-.405 0-.11-.008-.173-.016-.21h-.594zm-.883 0c-.008.047-.01.115-.01.2 0 .246.09.473.357.473.252 0 .356-.217.356-.477v-.197h-.703zm1.395 2.221V2.93l-.457-.07c.006.04.012.08.012.145a.75.75 0 0 1-.096.383.507.507 0 0 1-.456.255c-.348 0-.608-.277-.608-.662a.87.87 0 0 1 .11-.442l.183.06a.796.796 0 0 0-.098.38c0 .227.147.42.385.42.23-.002.394-.155.394-.51 0-.102-.01-.18-.02-.246l.854.114v.85h-.202z"/></g><g fill="#00a9f3"><path d="M36.582 1.148c.022.104.04.268.04.435 0 .238-.042.39-.135.506a.386.386 0 0 1-.326.152c-.176 0-.332-.118-.404-.312h-.005c-.043.175-.188.38-.46.38a.497.497 0 0 1-.37-.155c-.118-.13-.173-.337-.173-.638 0-.164.01-.29.022-.37h1.812zm-.754.238v.216c0 .252.13.4.31.4.215 0 .3-.165.3-.405 0-.11-.01-.173-.017-.21h-.592zm-.884 0c-.008.047-.01.115-.01.2 0 .246.09.473.358.473.25 0 .355-.217.355-.477v-.197h-.703zm-.18 1.904h.484v-.826h.158l1.135.793v.26h-1.104v.25h-.188v-.25h-.484V3.29zm.672 0h.594c.093 0 .186.002.28.008V3.29a5.01 5.01 0 0 1-.264-.148l-.604-.435h-.006v.583z"/></g><g fill="#00a9f3"><path d="M29.404 1.148a2.3 2.3 0 0 1 .038.435c0 .238-.04.39-.134.506a.386.386 0 0 1-.325.152c-.178 0-.334-.118-.405-.312h-.006c-.043.175-.188.38-.462.38a.497.497 0 0 1-.37-.155c-.117-.13-.17-.337-.17-.638 0-.164.01-.29.02-.37h1.814zm-.755.238v.216c0 .252.13.4.308.4.216 0 .3-.165.3-.405a.954.954 0 0 0-.016-.21h-.593zm-.884 0c-.01.047-.01.115-.01.2 0 .246.09.473.357.473.25 0 .355-.217.355-.477v-.197h-.702zm.095 1.217a.804.804 0 0 0-.11.394c0 .31.196.405.344.402.25-.004.355-.228.355-.46v-.134h.18v.134c0 .175.09.396.3.396.143 0 .27-.09.27-.312a.653.653 0 0 0-.12-.355l.176-.064a.844.844 0 0 1 .137.465c0 .35-.208.51-.424.51-.184 0-.34-.11-.42-.33h-.005c-.044.22-.208.398-.457.398-.284 0-.533-.222-.533-.648 0-.2.063-.375.12-.462l.186.065z"/></g><g fill="#00a9f3"><path d="M22.225 1.148a2.3 2.3 0 0 1 .038.435c0 .238-.04.39-.134.506a.386.386 0 0 1-.326.152c-.178 0-.334-.118-.405-.312h-.006c-.044.175-.19.38-.463.38a.497.497 0 0 1-.368-.155c-.117-.13-.172-.337-.172-.638 0-.164.01-.29.022-.37h1.813zm-.755.238v.216c0 .252.13.4.31.4.215 0 .3-.165.3-.405 0-.11-.008-.173-.016-.21h-.594zm-.883 0c-.008.047-.01.115-.01.2 0 .246.09.473.357.473.252 0 .356-.217.356-.477v-.197h-.703zm-.181 1.16h.148l.183.19c.432.453.662.658.93.66.18 0 .347-.087.347-.352a.605.605 0 0 0-.15-.378l.17-.076a.78.78 0 0 1 .18.503c0 .383-.263.544-.517.544-.328 0-.593-.238-.954-.613l-.132-.142h-.004v.8h-.2V2.545z"/></g><g fill="#00a9f3"><path d="M15.046 1.148c.022.104.04.268.04.435 0 .238-.042.39-.135.506a.386.386 0 0 1-.325.152c-.178 0-.334-.118-.405-.312h-.005c-.044.175-.19.38-.462.38a.497.497 0 0 1-.37-.155c-.117-.13-.172-.337-.172-.638 0-.164.012-.29.023-.37h1.813zm-.755.238v.216c0 .252.133.4.31.4.217 0 .3-.165.3-.405 0-.11-.007-.173-.015-.21h-.594zm-.882 0c-.008.047-.01.115-.01.2 0 .246.09.473.357.473.252 0 .356-.217.356-.477v-.197h-.702zm1.371 1.682v-.005l-.166-.31.183-.046.208.39V3.3h-1.777v-.23h1.553z"/></g><g fill="#00a9f3"><path d="M7.868 1.148c.02.104.038.268.038.435 0 .238-.04.39-.134.506a.386.386 0 0 1-.326.152c-.177 0-.333-.118-.404-.312h-.006c-.044.175-.19.38-.462.38a.497.497 0 0 1-.37-.155c-.117-.13-.172-.337-.172-.638 0-.164.01-.29.022-.37h1.814zm-.755.238v.216c0 .252.13.4.31.4.215 0 .3-.165.3-.405 0-.11-.01-.173-.017-.21h-.593zm-.884 0c-.01.047-.012.115-.012.2 0 .246.09.473.36.473.25 0 .354-.217.354-.477v-.197H6.23zm.728 2.341c-.605 0-.938-.224-.938-.618 0-.348.324-.583.912-.59.596 0 .925.258.925.62 0 .374-.334.587-.9.587zm-.028-.965c-.463 0-.725.142-.725.36 0 .247.287.365.74.365.44 0 .726-.113.726-.36 0-.212-.256-.365-.74-.365z"/></g><g fill="#404040"><path d="M105.197 50.048a3.408 3.408 0 0 1-.506.04c-.34 0-.584-.08-.745-.23-.164-.152-.26-.365-.26-.663 0-.3.093-.547.265-.717.173-.172.457-.265.815-.265.17 0 .312.008.432.022v1.813zm-.238-1.63a1.505 1.505 0 0 0-.24-.013c-.51 0-.786.284-.786.782-.003.435.243.71.746.71.124 0 .217-.01.28-.024v-1.455zm-2.653 1.589v-.158l.774-1.62h.25l-.772 1.572v.006h.87v.2h-1.122z"/></g><text transform="rotate(90 42.11 93.78)" fill="#404040" font-family="Gotham-Medium" font-size="1.886">VUSB</text><circle cx="140.181" cy="54.344" r="1.834" fill="#f2f2f2"/><g><path d="M140.18 52.963c.763 0 1.383.62 1.383 1.38s-.62 1.382-1.382 1.382a1.381 1.381 0 0 1 0-2.762m0-.692a2.073 2.073 0 1 0 0 4.147 2.073 2.073 0 0 0 0-4.146z" fill="#fbae17"/></g><path d="M142.81.002v5.38a1.27 1.27 0 0 1-1.267 1.267h-4.333a1.27 1.27 0 0 1-1.266-1.267V.003h6.866z" fill="#00a9f3"/><circle cx="140.181" cy="3.216" r="1.834" fill="#f2f2f2"/><g><path d="M140.18 1.835c.763 0 1.383.62 1.383 1.38s-.62 1.383-1.382 1.383a1.382 1.382 0 0 1 0-2.762m0-.693a2.073 2.073 0 1 0 0 4.146 2.073 2.073 0 0 0 0-4.147z" fill="#fbae17"/></g><g><path d="M137.624 1.606v.21h-1.45v.695h-.176v-.904h1.626zm-.13 1.369c-.073.002-.13-.05-.13-.135 0-.075.057-.128.13-.128a.13.13 0 0 1 .133.132c0 .08-.058.13-.133.13zm-1.496-.237h1.168v.213h-1.168V2.74zm1.284 1.32h-.568v.546h-.144v-.546h-.572v-.154h.572v-.546h.144v.546h.568v.154z" fill="#404040"/></g><g><path d="M126.803 42.142a.9.9 0 0 1 0 1.8.9.9 0 0 1 0-1.8m0-.45a1.35 1.35 0 1 0 0 2.7 1.35 1.35 0 0 0 0-2.7z" fill="#fbae17"/></g><g><path d="M126.803 38.623a.9.9 0 0 1 0 1.8.9.9 0 0 1 0-1.8m0-.45a1.35 1.35 0 1 0 0 2.7 1.35 1.35 0 0 0 0-2.7z" fill="#fbae17"/></g><path fill="#F03" d="M112.736 24.145h3.097V26.1h-3.097z"/></svg>