<svg xmlns="http://www.w3.org/2000/svg" viewBox="0 0 57.5999985 147.2610168"><path d="M0 4.2v136.062l3.62 7h50.12l3.86-7V4.2H0zm43.06 17.57a1.297 1.297 0 1 1 0-2.596 1.297 1.297 0 0 1 0 2.595zM53.817 9.73a2.095 2.095 0 1 1 0-4.19 2.095 2.095 0 0 1 0 4.19zm-50.01 0a2.095 2.095 0 1 1 0-4.19 2.095 2.095 0 0 1 0 4.19zm35.715 12.04a1.297 1.297 0 1 1 0-2.596 1.297 1.297 0 0 1 0 2.595z" fill="#404040"/><path fill="#666" d="M49.542 22.12h1.18v3.063h-1.18z"/><text transform="translate(14.333 28.292)" fill="#00a9f3" font-family="MyriadPro-Bold" font-size="3.475">+</text><path fill="#006900" d="M6.286 61.72H51.02v73.34H6.287z"/><path fill="#b2b2b2" d="M7.024 62.74h4.147v6.39H7.025z"/><path fill="#CCC" d="M7.024 129.148h4.147v5.277H7.025z"/><path fill="#d29a33" d="M15.028 63.026h6.88v6.39h-6.88z"/><path fill="#a8916f" d="M16.384 130.096h5.524v3.595h-5.524zM46.792 125.3h3.44v4.25h-3.44zM46.792 118.955h3.44v4.252h-3.44zM46.792 112.61h3.44v4.253h-3.44zM46.792 106.268h3.44v4.252h-3.44zM46.792 99.924h3.44v4.252h-3.44zM46.792 93.58h3.44v4.252h-3.44zM46.792 87.237h3.44v4.252h-3.44zM46.792 80.893h3.44v4.252h-3.44zM46.792 74.55h3.44v4.25h-3.44zM46.792 68.206h3.44v4.252h-3.44zM7.024 125.3h3.44v4.25h-3.44zM7.024 118.955h3.44v4.252h-3.44zM7.024 112.61h3.44v4.253h-3.44zM7.024 106.268h3.44v4.252h-3.44zM7.024 99.924h3.44v4.252h-3.44zM7.024 93.58h3.44v4.252h-3.44zM7.024 87.237h3.44v4.252h-3.44zM7.024 80.893h3.44v4.252h-3.44zM7.024 74.55h3.44v4.25h-3.44zM7.024 68.206h3.44v4.252h-3.44z"/><path fill="#b2b2b2" d="M44.45 62.74h5.78v3.93h-5.78z"/><path fill="#CCC" d="M45.377 130.496h4.854v3.93h-4.853zM32.715 130.496h9.302v3.93h-9.302z"/><path fill="#b2b2b2" d="M24.788 62.74h4.147v6.39h-4.147zM38.514 62.74h4.147v6.39h-4.146z"/><path fill="#b2b2b2" d="M7.685 63.52H49.62v69.74H7.686z"/><path opacity=".35" fill="#e6e6e6" d="M49.62 133.26L38.903 92.63 7.685 63.52H49.62z"/><path d="M47.27 67.537v61.706a2.178 2.178 0 0 1-2.177 2.178h-32.88a2.178 2.178 0 0 1-2.177-2.177V67.537c0-1.203.975-2.178 2.178-2.178h32.88c1.202 0 2.177.974 2.177 2.177z" fill="#f2f2f2"/><path d="M33.562 112.987l-1.312-.135v-1.242h.34v.915l.6.07a.652.652 0 0 1-.12-.377c-.003-.22.065-.39.204-.51.14-.122.332-.183.577-.183.234 0 .423.064.57.192.144.128.217.32.217.576a.826.826 0 0 1-.167.524c-.112.143-.27.21-.478.206l-.008-.003-.01-.37c.11 0 .194-.032.256-.098a.364.364 0 0 0 .093-.26c0-.122-.04-.216-.124-.28a.554.554 0 0 0-.345-.094.544.544 0 0 0-.34.098.333.333 0 0 0-.13.28c0 .11.018.19.053.24.034.054.085.092.152.115l-.028.337zM33.562 114.757l-1.312-.135v-1.242h.34v.915l.6.07a.652.652 0 0 1-.12-.377c-.003-.22.065-.39.204-.51.14-.122.332-.183.577-.183.234 0 .423.064.57.192.144.128.217.32.217.575a.826.826 0 0 1-.167.525c-.112.143-.27.21-.478.206l-.008-.003-.01-.37c.11 0 .194-.032.256-.098a.364.364 0 0 0 .093-.26c0-.122-.04-.216-.124-.28a.554.554 0 0 0-.345-.095.544.544 0 0 0-.34.1.333.333 0 0 0-.13.28c0 .108.018.188.053.24.034.053.085.09.152.114l-.028.337zM33.562 116.527l-1.312-.135v-1.242h.34v.915l.6.07a.652.652 0 0 1-.12-.377c-.003-.22.065-.39.204-.51.14-.122.332-.183.577-.183.234 0 .423.064.57.192.144.128.217.32.217.575a.826.826 0 0 1-.167.525c-.112.143-.27.21-.478.206l-.008-.003-.01-.37c.11 0 .194-.032.256-.098a.364.364 0 0 0 .093-.26c0-.122-.04-.216-.124-.28a.554.554 0 0 0-.345-.095.544.544 0 0 0-.34.1.333.333 0 0 0-.13.28c0 .108.018.188.053.24.034.053.085.09.152.114l-.028.337zM33.562 118.297l-1.312-.135v-1.242h.34v.915l.6.07a.652.652 0 0 1-.12-.377c-.003-.22.065-.39.204-.51.14-.122.332-.183.577-.183.234 0 .423.064.57.192.144.128.217.32.217.575a.826.826 0 0 1-.167.525c-.112.143-.27.21-.478.206l-.008-.003-.01-.37c.11 0 .194-.032.256-.098a.364.364 0 0 0 .093-.26c0-.123-.04-.216-.124-.28a.554.554 0 0 0-.345-.095.544.544 0 0 0-.34.1.333.333 0 0 0-.13.28c0 .108.018.188.053.24.034.052.085.09.152.114l-.028.337zM41.59 123.08v.7h.74v.29h-1.738v-1.113h.233v.823h.53v-.7h.234zM41.762 121.446l.007-.003a.536.536 0 0 1 .423.17c.108.118.162.276.162.475a.638.638 0 0 1-.205.492.742.742 0 0 1-.523.188h-.33a.75.75 0 0 1-.524-.186.624.624 0 0 1-.206-.486c0-.204.052-.365.156-.483a.53.53 0 0 1 .43-.17l.006.002v.28c-.117 0-.206.032-.268.094-.062.062-.092.155-.092.276 0 .118.046.21.14.28a.58.58 0 0 0 .354.104h.333a.578.578 0 0 0 .356-.106.34.34 0 0 0 .14-.286c0-.12-.03-.21-.093-.27-.062-.062-.15-.093-.268-.093v-.28zM41.762 119.894l.007-.003a.536.536 0 0 1 .423.172c.108.117.162.275.162.474a.638.638 0 0 1-.205.492.742.742 0 0 1-.523.19h-.33a.75.75 0 0 1-.524-.188.624.624 0 0 1-.206-.486c0-.204.052-.365.156-.482a.53.53 0 0 1 .43-.172l.006.003v.28c-.117 0-.206.032-.268.095-.062.062-.092.155-.092.276 0 .118.046.212.14.28a.58.58 0 0 0 .354.104h.333a.578.578 0 0 0 .356-.105.34.34 0 0 0 .14-.287c0-.118-.03-.21-.093-.27-.062-.062-.15-.093-.268-.093v-.28zM42.33 118.69v.29h-1.738v-.29h1.738zM42.33 118.3h-1.738v-.574c0-.22.07-.4.206-.538a.718.718 0 0 1 .53-.207h.265c.218 0 .395.07.532.208a.73.73 0 0 1 .205.538v.574zm-1.505-.29h1.273v-.284c0-.14-.047-.25-.14-.332a.534.534 0 0 0-.365-.123h-.266a.53.53 0 0 0-.36.124.417.417 0 0 0-.142.332v.284zM41.284 115.765v.288h-.278v-.288h.278zm1.046 0v.288h-.278v-.288h.278zM41.234 114.196l-.642-.366v-.344l.862.535.876-.554v.348l-.653.377.653.38v.342l-.876-.546-.862.534v-.34l.642-.364zM41.67 112.947h.66v.29h-1.738v-.666c0-.19.05-.34.148-.45.1-.108.23-.162.39-.162.165 0 .295.054.394.163.098.11.147.26.147.45v.377zm-.232 0v-.376c0-.106-.03-.187-.086-.24a.305.305 0 0 0-.218-.082.314.314 0 0 0-.22.08c-.06.055-.09.136-.09.243v.377h.614zM41.437 111.09l-.845-.42v-.323l1.13.603h.608v.29h-.626l-1.112.592v-.323l.845-.42zM41.883 109.232a.228.228 0 0 0-.177.077.71.71 0 0 0-.125.272c-.05.187-.118.33-.202.433a.407.407 0 0 1-.33.152.427.427 0 0 1-.345-.167.66.66 0 0 1-.136-.43.65.65 0 0 1 .15-.45.463.463 0 0 1 .374-.163l.008.002v.278a.278.278 0 0 0-.22.092.352.352 0 0 0-.08.243c0 .098.023.173.07.226.046.052.105.078.18.078.065 0 .12-.03.164-.087a.947.947 0 0 0 .123-.288c.05-.182.12-.32.21-.416a.438.438 0 0 1 .336-.144.41.41 0 0 1 .346.17c.086.113.13.26.13.445 0 .177-.048.33-.142.462a.446.446 0 0 1-.397.19l-.008-.002v-.28c.104 0 .182-.036.235-.108a.432.432 0 0 0 .08-.263.387.387 0 0 0-.066-.24.21.21 0 0 0-.177-.085zM41.924 107.74v.616l.406.134v.3l-1.738-.607v-.276l1.738-.6v.3l-.406.133zm-.242.536v-.457l-.686.222v.007l.686.226zM41.61 106.803h.72v.29h-1.738v-.598c0-.193.044-.343.13-.45a.46.46 0 0 1 .376-.158c.09 0 .167.024.232.07s.117.115.156.204a.367.367 0 0 1 .152-.21.486.486 0 0 1 .26-.066h.144c.05 0 .1-.006.15-.02a.214.214 0 0 0 .11-.062h.028v.298a.19.19 0 0 1-.123.06 1.08 1.08 0 0 1-.167.014h-.14a.29.29 0 0 0-.212.077.28.28 0 0 0-.08.21v.343zm-.234 0v-.292c0-.116-.022-.2-.067-.254-.045-.053-.113-.08-.205-.08a.27.27 0 0 0-.206.08c-.05.052-.075.132-.075.24v.307h.55zM41.924 104.633v.616l.406.133v.3l-1.738-.607v-.276l1.738-.6v.3l-.406.133zm-.242.536v-.458l-.686.223v.007l.686.227zM40.592 102.68h1.145c.193 0 .344.062.454.19.11.126.165.29.165.49a.702.702 0 0 1-.164.483.574.574 0 0 1-.453.186h-1.145v-.29h1.145c.123 0 .218-.036.285-.105.068-.07.1-.16.1-.275 0-.118-.032-.212-.1-.284s-.162-.107-.285-.107h-1.145v-.29zM42.33 101.24v1.122h-.2l-.627-.543a1.443 1.443 0 0 0-.258-.185.432.432 0 0 0-.195-.05.262.262 0 0 0-.18.06c-.047.043-.07.102-.07.18 0 .09.03.158.087.206.058.048.13.072.22.072v.28l-.008.003a.496.496 0 0 1-.38-.147.557.557 0 0 1-.153-.414c0-.166.044-.296.133-.39a.462.462 0 0 1 .35-.14c.1 0 .19.026.277.078.086.052.2.138.345.257l.42.366.006-.002v-.753h.232zM40.567 100.352a.957.957 0 0 1 .07-.365l.226.056a.75.75 0 0 0-.06.308c0 .106.04.19.127.256a.543.543 0 0 0 .337.097h.09a.5.5 0 0 1-.11-.167.566.566 0 0 1-.038-.215c0-.15.05-.266.153-.35a.61.61 0 0 1 .403-.13c.176 0 .318.052.427.154a.535.535 0 0 1 .162.407c0 .172-.062.313-.185.424-.123.11-.292.166-.506.166h-.38a.737.737 0 0 1-.518-.183.596.596 0 0 1-.2-.458zm.868.065c0 .07.012.127.037.176.025.048.06.085.103.11h.104a.55.55 0 0 0 .325-.084.256.256 0 0 0 .118-.217.233.233 0 0 0-.1-.2.428.428 0 0 0-.257-.072.363.363 0 0 0-.242.077.26.26 0 0 0-.09.21zM41.708 98.48c.2 0 .358.05.474.154s.173.24.173.413-.058.31-.174.416c-.115.104-.272.156-.472.156h-.493c-.2 0-.358-.053-.474-.156a.527.527 0 0 1-.173-.414c0-.173.058-.31.174-.415s.275-.156.475-.156h.493zm-.537.29a.445.445 0 0 0-.272.073.244.244 0 0 0-.098.207c0 .09.032.158.098.206a.45.45 0 0 0 .273.073h.58a.45.45 0 0 0 .275-.075.245.245 0 0 0 .098-.208.24.24 0 0 0-.098-.206.457.457 0 0 0-.275-.07h-.58zM34.603 126.726v.392H32.25v-.392h2.353zM34.06 125.008v-.01l-1.81-.68v-.5h2.353v.39h-1.69l-.002.01 1.693.65v.27l-1.725.658.004.01h1.72v.393H32.25v-.517l1.81-.675zM33.544 122.006v.922h.745v-1.086h.313v1.478H32.25v-1.467h.315v1.075h.664v-.922h.314zM34.603 121.063v.392H32.25v-.392h2.353zM33.187 120.145v.39h-.376v-.39h.377zm1.416 0v.39h-.377v-.39h.377zM33.562 100.437l-1.312-.136v-1.24h.34v.915l.6.07a.652.652 0 0 1-.12-.377c-.003-.22.065-.39.204-.51.14-.123.332-.184.577-.184.234 0 .423.064.57.193.144.128.217.32.217.575a.826.826 0 0 1-.167.524c-.112.143-.27.212-.478.206l-.008-.003-.01-.37c.11 0 .194-.032.256-.1a.364.364 0 0 0 .093-.258c0-.123-.04-.216-.124-.28a.554.554 0 0 0-.345-.095.544.544 0 0 0-.34.1.333.333 0 0 0-.13.28c0 .108.018.188.053.24.034.052.085.09.152.114l-.028.337zM33.562 102.207l-1.312-.136v-1.24h.34v.915l.6.07a.652.652 0 0 1-.12-.377c-.003-.22.065-.39.204-.51.14-.123.332-.184.577-.184.234 0 .423.064.57.193.144.128.217.32.217.575a.826.826 0 0 1-.167.524c-.112.143-.27.212-.478.206l-.008-.003-.01-.37c.11 0 .194-.032.256-.1a.364.364 0 0 0 .093-.258c0-.123-.04-.216-.124-.28a.554.554 0 0 0-.345-.095.544.544 0 0 0-.34.1.333.333 0 0 0-.13.28c0 .108.018.188.053.24.034.052.085.09.152.114l-.028.337zM33.562 103.977l-1.312-.136v-1.24h.34v.915l.6.07a.652.652 0 0 1-.12-.378c-.003-.218.065-.388.204-.51.14-.122.332-.183.577-.183.234 0 .423.064.57.193.144.128.217.32.217.575a.826.826 0 0 1-.167.524c-.112.143-.27.212-.478.206l-.008-.003-.01-.37c.11 0 .194-.032.256-.1a.364.364 0 0 0 .093-.258c0-.123-.04-.216-.124-.28a.554.554 0 0 0-.345-.095.544.544 0 0 0-.34.1.333.333 0 0 0-.13.28c0 .107.018.187.053.24.034.052.085.09.152.114l-.028.337zM33.562 105.747l-1.312-.136v-1.24h.34v.915l.6.07a.652.652 0 0 1-.12-.378c-.003-.218.065-.39.204-.51.14-.122.332-.183.577-.183.234 0 .423.064.57.192.144.13.217.32.217.576a.826.826 0 0 1-.167.524c-.112.143-.27.212-.478.206l-.008-.003-.01-.37c.11 0 .194-.033.256-.1a.364.364 0 0 0 .093-.258c0-.123-.04-.216-.124-.28a.554.554 0 0 0-.345-.095.544.544 0 0 0-.34.098.333.333 0 0 0-.13.282c0 .107.018.187.053.24.034.052.085.09.152.114l-.028.337zM33.562 107.597l-1.312-.136v-1.24h.34v.915l.6.07a.652.652 0 0 1-.12-.377c-.003-.22.065-.39.204-.51.14-.123.332-.183.577-.183.234 0 .423.064.57.192.144.128.217.32.217.575a.826.826 0 0 1-.167.525c-.112.142-.27.21-.478.206l-.008-.004-.01-.37c.11 0 .194-.032.256-.098a.364.364 0 0 0 .093-.26c0-.123-.04-.216-.124-.28a.554.554 0 0 0-.345-.095.544.544 0 0 0-.34.1.333.333 0 0 0-.13.28c0 .108.018.188.053.24.034.052.085.09.152.114l-.028.337zM33.562 109.367l-1.312-.136v-1.24h.34v.915l.6.07a.652.652 0 0 1-.12-.377c-.003-.22.065-.39.204-.51.14-.123.332-.184.577-.184.234 0 .423.065.57.193.144.128.217.32.217.575a.826.826 0 0 1-.167.525c-.112.142-.27.21-.478.206l-.008-.004-.01-.37c.11 0 .194-.032.256-.098a.364.364 0 0 0 .093-.26c0-.123-.04-.216-.124-.28a.554.554 0 0 0-.345-.095.544.544 0 0 0-.34.1.333.333 0 0 0-.13.28c0 .108.018.188.053.24.034.052.085.09.152.114l-.028.337zM33.562 111.137L32.25 111v-1.24h.34v.915l.6.07a.652.652 0 0 1-.12-.377c-.003-.22.065-.39.204-.51.14-.123.332-.184.577-.184.234 0 .423.065.57.193.144.128.217.32.217.575a.826.826 0 0 1-.167.525c-.112.142-.27.21-.478.206l-.008-.004-.01-.37c.11 0 .194-.032.256-.1a.364.364 0 0 0 .093-.258c0-.123-.04-.216-.124-.28a.554.554 0 0 0-.345-.095.544.544 0 0 0-.34.1.333.333 0 0 0-.13.28c0 .108.018.188.053.24.034.052.085.09.152.114l-.028.337zM28.948 125.73c.118 0 .223.032.314.096.09.063.16.15.21.258a.71.71 0 0 1 .226-.31.543.543 0 0 1 .342-.115c.22 0 .388.072.508.218a.85.85 0 0 1 .18.557c0 .24-.06.434-.18.586-.12.152-.29.228-.508.228a.533.533 0 0 1-.342-.12.727.727 0 0 1-.225-.32.637.637 0 0 1-.21.268.523.523 0 0 1-.315.1c-.208 0-.367-.07-.477-.205-.11-.134-.164-.312-.164-.532 0-.208.055-.378.166-.51.11-.132.27-.198.476-.198zm.014.393c-.1 0-.183.03-.246.09a.297.297 0 0 0-.095.225c0 .104.032.187.093.25.06.063.144.094.25.094s.19-.032.255-.097a.337.337 0 0 0 .098-.25.288.288 0 0 0-.098-.224.368.368 0 0 0-.256-.087zm1.064-.073a.383.383 0 0 0-.395.388c0 .12.038.22.112.3.074.078.168.117.284.117a.36.36 0 0 0 .282-.117.435.435 0 0 0 .106-.303.38.38 0 0 0-.106-.275.373.373 0 0 0-.282-.11zM29.85 123.805c.273 0 .487.07.643.21.156.14.234.326.234.56a.72.72 0 0 1-.235.562c-.157.14-.37.212-.64.212h-.668c-.27 0-.485-.07-.642-.21a.714.714 0 0 1-.236-.562c0-.234.08-.42.236-.562.157-.14.37-.21.642-.21h.667zm-.726.393a.602.602 0 0 0-.37.1.33.33 0 0 0-.133.28c0 .12.046.214.135.28.088.065.212.098.37.098h.783a.61.61 0 0 0 .372-.1.33.33 0 0 0 .134-.28.326.326 0 0 0-.133-.28c-.087-.065-.212-.098-.372-.098h-.784zM29.33 122.698c0-.127-.033-.218-.096-.275a.39.39 0 0 0-.267-.084.35.35 0 0 0-.25.09c-.064.06-.096.148-.096.262a.38.38 0 0 0 .096.263c.063.07.142.105.237.105v.377l-.01.003a.545.545 0 0 1-.454-.206.808.808 0 0 1-.184-.542c0-.23.056-.41.17-.544.112-.133.276-.2.49-.2a.53.53 0 0 1 .298.088c.09.06.16.14.21.245.048-.118.12-.21.215-.274a.608.608 0 0 1 .344-.095.63.63 0 0 1 .51.22.842.842 0 0 1 .183.562.884.884 0 0 1-.175.544.547.547 0 0 1-.48.227l-.01-.004v-.38c.1 0 .183-.035.25-.108a.396.396 0 0 0 .102-.28.38.38 0 0 0-.106-.283.37.37 0 0 0-.273-.106c-.133 0-.233.033-.3.098-.064.065-.097.164-.097.296v.262h-.31v-.262zM29.85 120.043c.273 0 .487.07.643.21.156.14.234.325.234.56a.72.72 0 0 1-.235.562c-.157.14-.37.21-.64.21h-.668c-.27 0-.485-.07-.642-.21a.714.714 0 0 1-.236-.56c0-.233.08-.42.236-.56.157-.142.37-.212.642-.212h.667zm-.726.393a.602.602 0 0 0-.37.1.33.33 0 0 0-.133.28c0 .12.046.213.135.28.088.065.212.098.37.098h.783a.61.61 0 0 0 .372-.1.33.33 0 0 0 .134-.282.326.326 0 0 0-.133-.28c-.087-.064-.212-.096-.372-.096h-.784zM29.85 118.162c.273 0 .487.07.643.21.156.138.234.325.234.56a.72.72 0 0 1-.235.56c-.157.142-.37.213-.64.213h-.668c-.27 0-.485-.07-.642-.21a.714.714 0 0 1-.236-.56c0-.235.08-.422.236-.562.157-.14.37-.21.642-.21h.667zm-.726.392a.602.602 0 0 0-.37.1.33.33 0 0 0-.133.28c0 .12.046.214.135.28.088.065.212.098.37.098h.783a.61.61 0 0 0 .372-.1.33.33 0 0 0 .134-.28.326.326 0 0 0-.133-.28c-.087-.065-.212-.098-.372-.098h-.784zM29.85 116.28c.273 0 .487.07.643.21.156.14.234.326.234.56a.72.72 0 0 1-.235.562c-.157.14-.37.212-.64.212h-.668c-.27 0-.485-.07-.642-.21a.714.714 0 0 1-.236-.56c0-.235.08-.422.236-.563.157-.14.37-.21.642-.21h.667zm-.726.393a.602.602 0 0 0-.37.1.33.33 0 0 0-.133.28c0 .12.046.214.135.28.088.065.212.098.37.098h.783a.61.61 0 0 0 .372-.1.33.33 0 0 0 .134-.28.326.326 0 0 0-.133-.28c-.087-.064-.212-.097-.372-.097h-.784zM29.85 114.4c.273 0 .487.07.643.208.156.14.234.327.234.56a.72.72 0 0 1-.235.563c-.157.142-.37.213-.64.213h-.668c-.27 0-.485-.07-.642-.21-.157-.14-.236-.327-.236-.56s.08-.422.236-.563c.157-.14.37-.21.642-.21h.667zm-.726.392a.602.602 0 0 0-.37.1.33.33 0 0 0-.133.28c0 .12.046.214.135.28.088.065.212.098.37.098h.783a.61.61 0 0 0 .372-.1.33.33 0 0 0 .134-.282.326.326 0 0 0-.133-.278c-.087-.066-.212-.098-.372-.098h-.784zM30.693 113.59v.392h-.376v-.39h.376zM29.85 111.593c.273 0 .487.07.643.21.156.14.234.326.234.56a.72.72 0 0 1-.235.562c-.157.14-.37.212-.64.212h-.668c-.27 0-.485-.07-.642-.21a.714.714 0 0 1-.236-.56c0-.235.08-.422.236-.563.157-.14.37-.21.642-.21h.667zm-.726.393a.602.602 0 0 0-.37.1.33.33 0 0 0-.133.28c0 .12.046.214.135.28.088.065.212.098.37.098h.783a.61.61 0 0 0 .372-.1.33.33 0 0 0 .134-.28.326.326 0 0 0-.133-.28c-.087-.065-.212-.098-.372-.098h-.784zM29.854 109.934v-.298h.317v.298h.523v.39h-.522v.985l-.24.01-1.59-.984v-.402h1.514zm0 1.002v-.61h-.96v.008l.09.038.87.564zM29.85 107.83c.273 0 .487.07.643.21.156.14.234.327.234.56a.72.72 0 0 1-.235.563c-.157.14-.37.21-.64.21h-.668c-.27 0-.485-.07-.642-.21a.714.714 0 0 1-.236-.56c0-.233.08-.42.236-.56.157-.142.37-.212.642-.212h.667zm-.726.394a.602.602 0 0 0-.37.1.33.33 0 0 0-.133.28c0 .12.046.213.135.28.088.065.212.098.37.098h.783a.61.61 0 0 0 .372-.1.33.33 0 0 0 .134-.282.326.326 0 0 0-.133-.278c-.087-.066-.212-.098-.372-.098h-.784zM29.854 106.17v-.296h.317v.297h.523v.392h-.522v.985l-.24.01-1.59-.983v-.403h1.514zm0 1.003v-.61h-.96v.01l.09.036.87.563zM30.693 105.142v.39h-.376v-.39h.376zM29.85 103.144c.273 0 .487.07.643.21.156.14.234.326.234.56a.72.72 0 0 1-.235.562c-.157.14-.37.21-.64.21h-.668c-.27 0-.485-.07-.642-.21a.714.714 0 0 1-.236-.56c0-.233.08-.42.236-.56.157-.142.37-.212.642-.212h.667zm-.726.393a.602.602 0 0 0-.37.1.33.33 0 0 0-.133.28c0 .12.046.213.135.28.088.065.212.098.37.098h.783a.61.61 0 0 0 .372-.1.33.33 0 0 0 .134-.282.326.326 0 0 0-.133-.278c-.087-.066-.212-.098-.372-.098h-.784zM29.85 101.263c.273 0 .487.07.643.21.156.14.234.325.234.56a.72.72 0 0 1-.235.562c-.157.14-.37.21-.64.21h-.668c-.27 0-.485-.07-.642-.21a.714.714 0 0 1-.236-.56c0-.233.08-.42.236-.56.157-.142.37-.212.642-.212h.667zm-.726.393a.602.602 0 0 0-.37.1.33.33 0 0 0-.133.28c0 .12.046.213.135.28.088.065.212.097.37.097h.783a.61.61 0 0 0 .372-.1.33.33 0 0 0 .134-.28.326.326 0 0 0-.133-.28c-.087-.065-.212-.097-.372-.097h-.784zM26.065 125.62v-.01l-2.237-.842v-.62h2.908v.486h-2.09v.012l2.09.8v.335l-2.13.815.003.012h2.126v.486h-2.908v-.637l2.237-.835zM25.635 123.676c-.322 0-.586-.088-.792-.265-.205-.175-.308-.417-.308-.723 0-.31.103-.553.308-.73.206-.176.47-.264.792-.264h.042c.325 0 .59.088.794.264.205.177.307.42.307.726 0 .31-.102.552-.307.728-.205.178-.47.266-.793.266h-.042zm.042-.486c.212 0 .384-.04.515-.123.132-.083.198-.21.198-.384a.42.42 0 0 0-.2-.38.942.942 0 0 0-.513-.127h-.042a.94.94 0 0 0-.51.127.424.424 0 0 0-.2.384c0 .17.066.295.2.38a.952.952 0 0 0 .51.123h.042zM25.685 121.36c-.345 0-.623-.075-.834-.222s-.315-.356-.315-.624c0-.117.024-.222.07-.314a.713.713 0 0 1 .203-.24H23.62v-.486h3.116v.393l-.274.058a.72.72 0 0 1 .235.252.7.7 0 0 1 .08.34c0 .266-.096.473-.29.62s-.446.222-.76.222h-.042zm.042-.486c.2 0 .36-.038.477-.115.12-.078.178-.2.178-.365a.488.488 0 0 0-.066-.26.502.502 0 0 0-.188-.176h-.942a.475.475 0 0 0-.254.43c0 .166.07.288.208.366.14.08.32.118.545.118h.042zM26.777 118.036c0 .316-.1.562-.298.74-.2.178-.458.267-.775.267h-.08c-.317 0-.578-.09-.784-.267a.86.86 0 0 1-.305-.688c0-.29.09-.51.268-.66s.42-.223.718-.223h.263v1.336l.01.005a.708.708 0 0 0 .43-.14c.112-.087.167-.22.167-.397a.976.976 0 0 0-.186-.61l.318-.16c.072.084.132.193.182.33.05.135.073.29.073.468zm-1.853.052c0 .127.046.228.137.304s.21.123.357.14l.01-.003v-.845h-.037a.545.545 0 0 0-.337.097c-.086.064-.13.166-.13.306zM26.736 116.295v.485H23.62v-.485h3.116zM24.986 115.218v.484h-.465v-.484h.466zm1.75 0v.484h-.466v-.484h.466zM25.99 112.055c-.123 0-.222.043-.3.13-.076.085-.145.237-.207.455-.086.313-.2.554-.34.724a.68.68 0 0 1-.55.255.715.715 0 0 1-.58-.28c-.15-.187-.227-.427-.227-.72 0-.314.084-.565.253-.754a.774.774 0 0 1 .623-.272l.012.004v.467a.464.464 0 0 0-.366.153.59.59 0 0 0-.137.406c0 .164.04.29.116.38s.176.132.3.132c.11 0 .203-.05.275-.146.073-.097.142-.258.207-.483.085-.305.2-.538.348-.697a.733.733 0 0 1 .565-.24.69.69 0 0 1 .577.284c.144.19.215.437.215.744 0 .296-.078.554-.235.773a.746.746 0 0 1-.665.32l-.012-.003v-.468c.174 0 .306-.06.394-.18a.723.723 0 0 0 .132-.442c0-.17-.036-.305-.11-.4a.35.35 0 0 0-.293-.143zM26.057 109.56v1.03l.68.223v.5l-2.91-1.013v-.46l2.91-1.004v.5l-.68.223zm-.406.896v-.765l-1.145.374v.012l1.146.38zM25.53 107.99h1.206v.487h-2.908v-1c0-.324.073-.575.22-.752s.355-.265.627-.265c.15 0 .28.04.388.116a.8.8 0 0 1 .26.34.615.615 0 0 1 .254-.354.813.813 0 0 1 .436-.108h.24a.98.98 0 0 0 .25-.032.357.357 0 0 0 .187-.106h.046v.5a.32.32 0 0 1-.206.1 1.793 1.793 0 0 1-.28.023h-.233a.487.487 0 0 0-.356.128.468.468 0 0 0-.13.35v.573zm-.39 0v-.488c0-.194-.037-.336-.112-.425-.074-.09-.188-.134-.34-.134a.452.452 0 0 0-.346.132c-.083.088-.125.22-.125.4v.516h.923zM26.057 104.36v1.03l.68.225v.5l-2.91-1.013v-.462l2.91-1.002v.5l-.68.223zm-.406.897v-.765l-1.145.374v.012l1.146.38zM25.695 102.09v1.178h-.39v-1.178h.39zM23.828 99.24h1.915c.323 0 .577.107.76.32.183.21.274.485.274.82 0 .33-.09.6-.274.807-.183.208-.437.312-.76.312h-1.915v-.486h1.915c.206 0 .366-.058.478-.174a.63.63 0 0 0 .17-.46.666.666 0 0 0-.17-.475c-.11-.12-.27-.18-.477-.18h-1.915v-.485zM26.736 96.836v1.875h-.334l-1.05-.907a2.41 2.41 0 0 0-.432-.308.722.722 0 0 0-.325-.086.44.44 0 0 0-.303.103c-.078.07-.117.17-.117.298 0 .15.05.266.146.346.098.08.22.12.37.12v.47l-.013.003a.83.83 0 0 1-.632-.247c-.173-.17-.26-.402-.26-.692 0-.278.076-.495.225-.65a.774.774 0 0 1 .587-.236c.163 0 .317.044.46.13.145.088.337.23.578.43l.703.614.01-.004v-1.258h.388zM23.786 95.348a1.596 1.596 0 0 1 .12-.61l.375.093a1.246 1.246 0 0 0-.102.515c0 .178.073.32.215.43.142.108.33.162.565.162h.152a.834.834 0 0 1-.184-.28.947.947 0 0 1-.066-.36c0-.248.086-.444.258-.587.172-.143.397-.214.675-.214.294 0 .532.085.713.257.18.172.27.4.27.68a.91.91 0 0 1-.308.71c-.206.185-.49.278-.847.278h-.632c-.357 0-.646-.1-.87-.306a.997.997 0 0 1-.332-.766zm1.452.108c0 .116.02.214.063.295s.1.143.173.187h.174c.232 0 .414-.047.545-.14a.428.428 0 0 0 .198-.363.39.39 0 0 0-.168-.334.717.717 0 0 0-.43-.12.607.607 0 0 0-.404.126c-.1.084-.15.2-.15.35zM25.695 92.215c.336 0 .6.086.793.26.193.17.29.402.29.69 0 .29-.097.52-.29.696-.195.175-.46.262-.793.262h-.825c-.334 0-.598-.086-.792-.26s-.292-.403-.292-.692c0-.29.097-.52.292-.694.194-.174.458-.26.792-.26h.825zm-.9.485c-.193 0-.345.042-.455.124a.407.407 0 0 0-.165.346c0 .15.055.264.165.345.11.08.262.122.456.122h.97c.196 0 .35-.04.46-.124a.41.41 0 0 0 .164-.347.402.402 0 0 0-.164-.345c-.11-.08-.263-.12-.46-.12h-.97zM18.412 91.283c.272 0 .485.07.642.21.156.14.234.325.234.56a.72.72 0 0 1-.235.562c-.157.14-.37.21-.64.21h-.668c-.27 0-.485-.07-.642-.21a.714.714 0 0 1-.236-.56c0-.233.08-.42.236-.56.157-.142.37-.212.642-.212h.667zm-.727.392a.603.603 0 0 0-.37.1.33.33 0 0 0-.133.28c0 .12.045.214.133.28.09.066.212.098.37.098h.784a.61.61 0 0 0 .37-.1.33.33 0 0 0 .135-.28.326.326 0 0 0-.133-.28c-.088-.065-.213-.098-.373-.098h-.785zM18.412 89.402c.272 0 .485.07.642.21.156.138.234.325.234.56a.72.72 0 0 1-.235.56c-.157.142-.37.213-.64.213h-.668c-.27 0-.485-.07-.642-.21a.714.714 0 0 1-.236-.56c0-.235.08-.422.236-.563.157-.14.37-.21.642-.21h.667zm-.727.392a.603.603 0 0 0-.37.1.33.33 0 0 0-.133.28c0 .12.045.214.133.28.09.065.212.098.37.098h.784a.61.61 0 0 0 .37-.1.33.33 0 0 0 .135-.28.326.326 0 0 0-.133-.28c-.088-.065-.213-.098-.373-.098h-.785zM18.65 87.745a.31.31 0 0 0-.24.104c-.064.07-.12.192-.17.368-.07.254-.16.45-.275.586a.55.55 0 0 1-.445.206.578.578 0 0 1-.47-.226c-.122-.15-.183-.345-.183-.582 0-.254.068-.457.204-.61a.627.627 0 0 1 .507-.22l.01.003v.378a.376.376 0 0 0-.297.124.477.477 0 0 0-.11.33c0 .13.032.233.094.305s.144.107.243.107c.09 0 .165-.04.224-.12.06-.077.115-.208.168-.39.07-.247.163-.435.282-.564.12-.13.27-.194.456-.194.195 0 .35.077.467.23s.175.354.175.603c0 .24-.064.447-.19.625a.604.604 0 0 1-.54.26l-.01-.005v-.378c.143 0 .25-.05.32-.146a.585.585 0 0 0 .108-.355c0-.14-.03-.247-.088-.324a.284.284 0 0 0-.238-.115zM18.412 85.988v.954h-.317v-.954h.317zM18.412 84.015c.272 0 .485.07.642.21.156.14.234.325.234.56a.72.72 0 0 1-.235.562c-.157.14-.37.21-.64.21h-.668c-.27 0-.485-.07-.642-.21a.714.714 0 0 1-.236-.56c0-.233.08-.42.236-.56.157-.142.37-.212.642-.212h.667zm-.727.392a.603.603 0 0 0-.37.1.33.33 0 0 0-.133.28c0 .12.045.214.133.28.09.066.212.098.37.098h.784a.61.61 0 0 0 .37-.1.33.33 0 0 0 .135-.28.326.326 0 0 0-.133-.28c-.088-.065-.213-.098-.373-.098h-.785zM18.412 82.134c.272 0 .485.07.642.21.156.138.234.325.234.56a.72.72 0 0 1-.235.56c-.157.142-.37.213-.64.213h-.668c-.27 0-.485-.07-.642-.21a.714.714 0 0 1-.236-.56c0-.235.08-.422.236-.563.157-.14.37-.21.642-.21h.667zm-.727.392a.603.603 0 0 0-.37.1.33.33 0 0 0-.133.28c0 .12.045.214.133.28.09.065.212.098.37.098h.784a.61.61 0 0 0 .37-.1.33.33 0 0 0 .135-.28.326.326 0 0 0-.133-.28c-.088-.065-.213-.098-.373-.098h-.785zM15.565 92.872v1.12h-.2l-.627-.543a1.442 1.442 0 0 0-.258-.184.432.432 0 0 0-.195-.052.262.262 0 0 0-.18.062c-.047.042-.07.1-.07.178 0 .09.03.16.087.207.058.048.13.072.22.072v.28l-.008.003a.496.496 0 0 1-.378-.147.557.557 0 0 1-.154-.414c0-.166.044-.296.133-.39a.462.462 0 0 1 .35-.14c.1 0 .19.026.277.078.086.053.2.138.345.258l.42.366.006-.002v-.752h.232zM14.943 91.5c.2 0 .358.05.474.153.115.104.173.24.173.414 0 .173-.058.31-.174.416-.115.104-.273.156-.473.156h-.493c-.2 0-.358-.053-.474-.156-.116-.104-.174-.242-.174-.414s.058-.31.174-.415c.116-.104.274-.156.474-.156h.493zm-.537.29a.445.445 0 0 0-.273.073.244.244 0 0 0-.1.207c0 .09.034.158.1.206a.45.45 0 0 0 .273.073h.58a.45.45 0 0 0 .274-.075.245.245 0 0 0 .098-.208.24.24 0 0 0-.098-.206.457.457 0 0 0-.275-.07h-.58zM12.588 103.212v-.528c0-.18.015-.257.04-.323.065-.175.24-.29.466-.29.22 0 .406.123.467.31h.006s.022-.02.078-.05l.67-.367v.274l-.687.364v.37h.687v.242h-1.726zm.83-.59c0-.187-.12-.305-.314-.305-.127 0-.218.05-.266.137-.025.047-.04.103-.04.237v.28h.62v-.347zM15.565 87.636v.29h-1.47v.37h-.23l-.063-.66h1.763zM14.796 86.955l-.97-.1v-.917h.25v.675l.444.053a.487.487 0 0 1-.088-.28.468.468 0 0 1 .152-.377c.102-.09.244-.135.426-.135a.61.61 0 0 1 .42.142c.106.094.16.236.16.425a.61.61 0 0 1-.124.387.407.407 0 0 1-.352.15h-.006l-.01-.273c.082 0 .146-.025.192-.074a.27.27 0 0 0 .068-.19c0-.092-.03-.16-.092-.208a.41.41 0 0 0-.254-.07.402.402 0 0 0-.25.072.246.246 0 0 0-.096.208c0 .08.013.14.038.177.026.04.063.067.112.085l-.02.248zM15.714 85.485v.267l-1.887-.684V84.8l1.887.685zM15.565 83.856v.29h-1.47v.37h-.23l-.063-.66h1.763zM14.557 82.67c0-.093-.023-.16-.07-.202a.288.288 0 0 0-.197-.063.258.258 0 0 0-.184.067c-.048.045-.072.11-.072.194a.28.28 0 0 0 .07.194.226.226 0 0 0 .175.078v.278l-.008.002a.402.402 0 0 1-.335-.152.597.597 0 0 1-.135-.4c0-.17.04-.304.124-.402.084-.098.205-.147.364-.147.08 0 .153.02.22.065a.44.44 0 0 1 .155.18.424.424 0 0 1 .158-.202.45.45 0 0 1 .255-.07c.16 0 .285.053.376.16.09.108.136.246.136.416a.653.653 0 0 1-.13.402.404.404 0 0 1-.354.167l-.007-.002v-.28a.24.24 0 0 0 .184-.08.293.293 0 0 0 .074-.207.28.28 0 0 0-.078-.21.273.273 0 0 0-.2-.077c-.1 0-.173.023-.222.07-.048.05-.073.123-.073.22v.194h-.228v-.194zM17.53 70.78c0 .228-.073.406-.216.534a.806.806 0 0 1-.558.192H16.7a.833.833 0 0 1-.566-.192.62.62 0 0 1-.22-.496c0-.21.064-.367.193-.475.13-.107.3-.16.517-.16h.19v.962l.006.003a.51.51 0 0 0 .31-.1c.08-.064.12-.16.12-.287a.704.704 0 0 0-.134-.44l.23-.113a.74.74 0 0 1 .13.236.99.99 0 0 1 .053.338zm-1.336.038c0 .09.033.164.1.22.064.054.15.088.255.1l.007-.002v-.608h-.028c-.1 0-.18.023-.243.07-.062.046-.093.12-.093.22zM16.752 68.756v-.264h.282v.264h.465v.35h-.466v.875l-.214.01-1.416-.875v-.36h1.348zm0 .892v-.543h-.855v.008l.08.033.775.502zM18.16 114.69c.58 0 1.042.13 1.388.388.346.258.52.63.52 1.118 0 .227-.048.424-.144.593a1.123 1.123 0 0 1-.157.212.165.165 0 0 0 .09.277c.078.013.135.08.135.16v.584c0 .09-.074.164-.165.164H14.94a.165.165 0 0 1-.15-.102l-.295-.713a.165.165 0 0 1 .153-.228h1.477c.137 0 .212-.155.13-.265a1.127 1.127 0 0 1-.212-.677c0-.492.186-.867.557-1.125.372-.258.867-.387 1.486-.387h.075zm-.074 1.043c-.378 0-.677.056-.898.167-.22.11-.33.3-.33.568 0 .163.033.3.1.412.062.1.146.182.254.245.025.014.054.02.082.02h1.552a.16.16 0 0 0 .086-.023.66.66 0 0 0 .23-.244.86.86 0 0 0 .092-.417c0-.27-.095-.458-.285-.565-.19-.108-.46-.162-.81-.162h-.074zM19.992 113.11v.717c0 .09-.074.165-.165.165H14.94a.165.165 0 0 1-.15-.102l-.295-.717a.165.165 0 0 1 .152-.228h5.18c.09 0 .165.074.165.165zM18.018 112.246c-.58 0-1.052-.16-1.42-.483-.37-.323-.555-.77-.555-1.34 0-.574.184-1.023.552-1.348.368-.325.842-.487 1.423-.487h.075c.583 0 1.058.16 1.424.485.367.324.55.77.55 1.342 0 .574-.183 1.022-.55 1.346-.366.325-.84.486-1.424.486h-.075zm.075-1.042c.354 0 .637-.062.85-.187.215-.124.322-.325.322-.602 0-.27-.108-.467-.323-.593-.215-.125-.498-.188-.85-.188h-.074c-.344 0-.625.063-.843.19-.217.127-.326.326-.326.598 0 .27.11.468.327.593.22.126.5.19.84.19h.076zM17.347 106.56v-.022l-1.14-.55a.165.165 0 0 1-.092-.15v-.785c0-.128.14-.207.25-.14l1.58.963c.054.032.12.032.173 0l1.623-1c.11-.068.252.01.252.14v.78c0 .064-.035.12-.092.15l-.894.44a.165.165 0 0 0 0 .296l.894.44a.165.165 0 0 1 .092.15v.784c0 .13-.14.208-.25.14l-1.624-1a.165.165 0 0 0-.172 0l-1.58.966a.165.165 0 0 1-.25-.14v-.778c0-.064.036-.122.093-.15l1.137-.535z"/><path d="M18.965 121.736a.05.05 0 0 0-.03.067c.097.25.104.26.22.45.123.203.185.438.185.705 0 .45-.152.8-.456 1.053-.305.254-.777.38-1.417.38H15v-1.145h2.2c.372 0 .628-.05.765-.15.138-.102.207-.26.207-.47 0-.185-.03-.342-.09-.474v-.003a.542.542 0 0 0-.495-.318H15v-1.15h2.49a4.526 4.526 0 1 0 1.612 1.008l-.137.048zM15 125.876a.82.82 0 1 1-1.64 0 .82.82 0 0 1 1.64 0z" fill="#c02432"/><path d="M45.29 123.756v.29h-1.738v-.29h1.738zM44.722 122.096l.007-.002a.536.536 0 0 1 .423.17c.108.118.162.276.162.475a.638.638 0 0 1-.205.49.742.742 0 0 1-.523.19h-.33a.75.75 0 0 1-.524-.187.624.624 0 0 1-.206-.486c0-.205.052-.366.156-.483a.53.53 0 0 1 .43-.17h.006v.282c-.117 0-.206.03-.268.094-.062.063-.092.155-.092.277 0 .118.046.21.14.28a.58.58 0 0 0 .354.103h.333a.578.578 0 0 0 .356-.105.34.34 0 0 0 .14-.286c0-.12-.03-.21-.093-.272-.062-.06-.15-.092-.268-.092v-.28zM44.244 121.526v.29h-.278v-.29h.278zm1.046 0v.29h-.278v-.29h.278zM44 119.5c.088 0 .166.025.233.072a.46.46 0 0 1 .156.19.525.525 0 0 1 .165-.228.4.4 0 0 1 .253-.085c.16 0 .286.053.374.16a.628.628 0 0 1 .133.412c0 .176-.044.32-.133.432a.45.45 0 0 1-.374.168.394.394 0 0 1-.253-.088.537.537 0 0 1-.166-.238.47.47 0 0 1-.157.2.386.386 0 0 1-.232.072c-.153 0-.27-.05-.35-.15a.606.606 0 0 1-.123-.394c0-.154.04-.28.122-.377.08-.097.198-.146.35-.146zm.01.29a.255.255 0 0 0-.18.067.22.22 0 0 0-.07.167c0 .076.022.138.067.184.045.047.106.07.184.07.08 0 .143-.024.19-.07a.25.25 0 0 0 .073-.186.213.213 0 0 0-.072-.166.272.272 0 0 0-.19-.065zm.787-.053a.283.283 0 0 0-.29.287c0 .09.026.163.08.22a.274.274 0 0 0 .21.088c.087 0 .156-.03.208-.087a.32.32 0 0 0 .078-.223.28.28 0 0 0-.078-.203.276.276 0 0 0-.208-.083zM44.52 119.155l-.968-.1v-.917h.25v.675l.443.053a.484.484 0 0 1-.088-.28.468.468 0 0 1 .152-.377c.1-.09.243-.135.425-.135a.61.61 0 0 1 .42.142c.106.094.16.236.16.425a.61.61 0 0 1-.124.387.407.407 0 0 1-.35.15h-.007l-.01-.273c.083 0 .146-.025.192-.074a.27.27 0 0 0 .068-.19c0-.092-.03-.16-.092-.208a.41.41 0 0 0-.253-.07.402.402 0 0 0-.25.072.246.246 0 0 0-.096.208c0 .08.014.14.04.177.025.04.062.067.11.085l-.02.248zM45.083 117.34c0-.1-.035-.182-.106-.245s-.17-.094-.298-.094h-.127a.374.374 0 0 1 .162.32.494.494 0 0 1-.157.387c-.104.094-.248.14-.43.14a.61.61 0 0 1-.432-.156.515.515 0 0 1-.17-.394c0-.174.058-.315.17-.423.115-.108.274-.162.48-.162h.492c.2 0 .36.06.474.177a.618.618 0 0 1 .173.452.964.964 0 0 1-.075.367l-.22-.047a.72.72 0 0 0 .063-.32zm-.594-.047c0-.07-.016-.13-.045-.178a.303.303 0 0 0-.114-.114h-.205a.42.42 0 0 0-.27.078.26.26 0 0 0-.095.213c0 .08.034.142.104.193.07.05.157.076.263.076.11 0 .197-.024.263-.07a.226.226 0 0 0 .1-.197zM44.52 116.376l-.968-.1v-.917h.25v.674l.443.053a.484.484 0 0 1-.088-.28.468.468 0 0 1 .152-.377c.1-.09.243-.134.425-.134a.61.61 0 0 1 .42.142c.106.094.16.236.16.425a.61.61 0 0 1-.124.387.407.407 0 0 1-.35.152l-.007-.002-.01-.272c.083 0 .146-.025.192-.074a.27.27 0 0 0 .068-.19c0-.092-.03-.16-.092-.208a.41.41 0 0 0-.253-.07.402.402 0 0 0-.25.072.246.246 0 0 0-.096.208c0 .08.014.14.04.177.025.04.062.067.11.085l-.02.248zM44.884 114.087v.616l.406.134v.3l-1.738-.607v-.275l1.738-.6v.3l-.406.132zm-.242.536v-.457l-.685.223v.007l.685.226zM44.668 112.73v.704h-.234v-.704h.234zM44.843 111.438a.228.228 0 0 0-.177.077.71.71 0 0 0-.125.273c-.05.187-.118.33-.202.433a.407.407 0 0 1-.33.153.427.427 0 0 1-.345-.167.66.66 0 0 1-.136-.43.65.65 0 0 1 .15-.45.463.463 0 0 1 .374-.163l.008.002v.28a.278.278 0 0 0-.218.09.352.352 0 0 0-.082.244c0 .097.023.172.07.225.046.053.105.08.18.08.065 0 .12-.03.164-.088a.947.947 0 0 0 .123-.29c.05-.18.12-.32.21-.415a.438.438 0 0 1 .336-.144.41.41 0 0 1 .346.17c.086.113.13.26.13.445 0 .177-.048.33-.142.462a.446.446 0 0 1-.397.19h-.008v-.28c.104 0 .182-.037.235-.11a.432.432 0 0 0 .08-.262.387.387 0 0 0-.065-.24.21.21 0 0 0-.177-.085zM44.884 109.946v.616l.406.134v.3l-1.738-.607v-.277l1.738-.6v.3l-.406.133zm-.242.536v-.457l-.685.223v.008l.685.226zM44.57 109.01h.72v.29h-1.738v-.6c0-.192.044-.342.13-.448a.46.46 0 0 1 .376-.158c.09 0 .167.023.232.07s.117.114.156.203a.367.367 0 0 1 .152-.212.486.486 0 0 1 .26-.065h.144c.05 0 .1-.006.15-.02a.214.214 0 0 0 .11-.062h.028v.298a.19.19 0 0 1-.123.06 1.08 1.08 0 0 1-.167.014h-.14c-.09 0-.16.026-.212.077s-.08.12-.08.21v.342zm-.234 0v-.293c0-.116-.022-.2-.067-.255-.045-.053-.113-.08-.205-.08a.27.27 0 0 0-.206.08c-.05.052-.075.132-.075.24v.307h.55zM44.884 106.84v.615l.406.134v.298l-1.738-.606v-.276l1.738-.6v.3l-.406.133zm-.242.535v-.457l-.685.223v.008l.685.227zM43.552 104.885h1.145c.193 0 .344.063.454.19.11.127.165.29.165.49a.702.702 0 0 1-.164.484.574.574 0 0 1-.453.185h-1.145v-.29h1.145c.123 0 .218-.035.286-.104.067-.068.1-.16.1-.274 0-.117-.033-.212-.1-.284s-.163-.107-.286-.107h-1.145v-.29zM45.29 103.448v1.12h-.2l-.627-.543a1.443 1.443 0 0 0-.258-.184.432.432 0 0 0-.195-.05.262.262 0 0 0-.18.062c-.047.042-.07.1-.07.178 0 .09.03.16.087.207.058.047.13.07.22.07v.282h-.008a.496.496 0 0 1-.38-.146.557.557 0 0 1-.153-.414c0-.166.044-.296.133-.39a.462.462 0 0 1 .35-.14c.1 0 .19.026.277.078.086.052.2.138.345.257l.42.367.006-.002v-.752h.232zM43.527 102.558a.957.957 0 0 1 .07-.365l.226.056a.75.75 0 0 0-.06.308c0 .105.04.19.127.255a.543.543 0 0 0 .337.097h.09a.5.5 0 0 1-.11-.167.567.567 0 0 1-.038-.215c0-.15.05-.266.153-.35a.61.61 0 0 1 .403-.13c.176 0 .318.052.427.154a.535.535 0 0 1 .162.407c0 .17-.062.312-.185.423-.123.11-.292.166-.506.166h-.38a.737.737 0 0 1-.518-.184.596.596 0 0 1-.2-.458zm.868.065c0 .07.012.127.037.176.025.047.06.084.104.11h.103a.55.55 0 0 0 .325-.085.256.256 0 0 0 .118-.216c0-.086-.033-.152-.1-.2s-.152-.073-.257-.073a.363.363 0 0 0-.242.076.26.26 0 0 0-.09.21zM44.668 100.685c.2 0 .36.052.474.155.115.103.173.24.173.413s-.058.31-.174.416c-.115.103-.272.155-.472.155h-.493c-.2 0-.358-.052-.474-.155a.527.527 0 0 1-.173-.414c0-.173.058-.31.174-.415s.275-.155.475-.155h.493zm-.537.29a.445.445 0 0 0-.272.074.244.244 0 0 0-.098.206c0 .09.032.158.098.206a.45.45 0 0 0 .273.073h.58a.45.45 0 0 0 .275-.074.245.245 0 0 0 .098-.207.24.24 0 0 0-.097-.206.457.457 0 0 0-.276-.072h-.58z"/><g><path d="M44.89 85.848v-.008l-1.338-.502v-.37h1.738v.29h-1.25v.007l1.25.48v.198l-1.274.487.003.007h1.27v.29h-1.738v-.38l1.337-.5zM45.29 83.853a1.06 1.06 0 0 1-.19.04c.062.038.113.09.154.156.04.064.06.137.06.217 0 .135-.034.238-.103.31s-.163.108-.284.108a.337.337 0 0 1-.292-.148c-.07-.1-.104-.238-.104-.417v-.225h-.114a.21.21 0 0 0-.16.06c-.037.038-.056.095-.056.17 0 .066.016.12.047.158.032.038.072.058.123.058v.28h-.006c-.102.007-.193-.038-.27-.135a.58.58 0 0 1-.12-.378c0-.15.04-.272.115-.364.075-.092.185-.14.33-.14h.573a.818.818 0 0 0 .297-.045v.295zm-.208.354a.363.363 0 0 0-.055-.196.277.277 0 0 0-.125-.115h-.19v.23c0 .084.02.15.062.198a.19.19 0 0 0 .147.072.15.15 0 0 0 .12-.05c.028-.03.042-.077.042-.138zM44.662 83.355c-.206 0-.372-.044-.498-.133a.43.43 0 0 1-.19-.372.408.408 0 0 1 .164-.332h-.71v-.29h1.862v.235l-.164.035a.43.43 0 0 1 .14.15.42.42 0 0 1 .05.204.44.44 0 0 1-.174.37.728.728 0 0 1-.455.133h-.025zm.025-.29a.52.52 0 0 0 .285-.07c.07-.045.107-.117.107-.217a.29.29 0 0 0-.04-.155.3.3 0 0 0-.113-.105h-.563a.284.284 0 0 0-.152.258c0 .1.042.172.125.218.083.047.19.07.325.07h.025zM45.315 81.368c0 .19-.06.337-.18.443a.668.668 0 0 1-.46.16h-.05a.69.69 0 0 1-.467-.16.515.515 0 0 1-.184-.41c0-.174.054-.305.16-.394a.65.65 0 0 1 .43-.134h.157v.8h.006a.423.423 0 0 0 .258-.083c.066-.053.1-.132.1-.238a.586.586 0 0 0-.11-.365l.188-.095c.043.05.08.115.11.196a.82.82 0 0 1 .043.28zm-1.108.032c0 .075.027.136.082.18a.405.405 0 0 0 .212.086l.006-.003v-.505h-.023c-.082 0-.15.02-.2.058-.052.04-.078.1-.078.184zM45.29 79.684v.29h-1.738v-.29h1.738zM43.998 79.062l.186-.016a.463.463 0 0 1-.154-.16.425.425 0 0 1-.056-.216c0-.135.042-.24.125-.315.08-.075.21-.113.387-.113h.803v.29h-.8c-.1 0-.173.02-.215.06s-.063.097-.063.175c0 .062.012.116.035.162a.282.282 0 0 0 .097.107h.946v.29h-1.292v-.265zM44.884 76.397v.616l.406.133v.3l-1.738-.607v-.276l1.738-.6v.3l-.406.133zm-.242.536v-.458l-.685.224v.006l.685.227zM45.1 74.987c.068.04.122.09.16.153a.414.414 0 0 1 .055.217.405.405 0 0 1-.137.325c-.09.078-.232.116-.424.116h-.756v-.288h.758c.124 0 .208-.018.254-.054.046-.036.07-.092.07-.167 0-.07-.014-.13-.04-.177s-.06-.085-.108-.112h-.934v-.29h1.292v.25l-.19.027zM44.937 73.682c-.045 0-.082.02-.11.057a.587.587 0 0 0-.08.213.87.87 0 0 1-.136.348.29.29 0 0 1-.243.122.35.35 0 0 1-.277-.137.544.544 0 0 1-.116-.362c0-.154.04-.28.12-.373a.344.344 0 0 1 .285-.135l.006.002v.278a.18.18 0 0 0-.136.062.234.234 0 0 0-.058.166c0 .07.016.123.047.16a.15.15 0 0 0 .116.055c.044 0 .08-.017.105-.05a.563.563 0 0 0 .072-.213.876.876 0 0 1 .14-.358.297.297 0 0 1 .248-.12c.116 0 .21.048.285.143.073.096.11.223.11.38 0 .167-.043.3-.13.397a.364.364 0 0 1-.295.14l-.007-.004v-.27c.075-.003.13-.03.163-.08a.326.326 0 0 0 .052-.187.292.292 0 0 0-.044-.173.137.137 0 0 0-.117-.06zM43.684 72.765h.314v-.23h.215v.23h.714c.053 0 .09-.01.114-.034a.125.125 0 0 0 .035-.09.26.26 0 0 0-.015-.09l.212-.032a.336.336 0 0 1 .032.088c.007.034.01.07.01.105 0 .108-.03.192-.093.253-.06.06-.16.09-.293.09h-.714v.198h-.215v-.196h-.314v-.29zM44.26 71.656l-.005.124a.26.26 0 0 0 .036.142.236.236 0 0 0 .102.088h.898v.29h-1.292v-.265l.188-.02a.414.414 0 0 1-.155-.125.293.293 0 0 1-.05-.227.38.38 0 0 1 .01-.04l.27.033zM43.682 71.132v.29h-.254v-.29h.254zm1.608 0v.29h-1.292v-.29h1.292zM45.29 70.03a1.058 1.058 0 0 1-.19.038c.062.04.113.092.154.157.04.065.06.138.06.218 0 .135-.034.238-.103.31a.377.377 0 0 1-.284.108.337.337 0 0 1-.292-.147c-.07-.1-.104-.237-.104-.417v-.225h-.114a.21.21 0 0 0-.16.06c-.037.04-.056.096-.056.17 0 .067.016.12.047.16a.15.15 0 0 0 .123.057v.28h-.006c-.102.006-.193-.04-.27-.136a.58.58 0 0 1-.12-.377c0-.15.04-.27.115-.364.075-.093.185-.14.33-.14h.573a.814.814 0 0 0 .297-.045v.294zm-.208.354a.363.363 0 0 0-.055-.197.277.277 0 0 0-.125-.116h-.19v.23c0 .086.02.152.062.2a.19.19 0 0 0 .147.07.15.15 0 0 0 .12-.047c.028-.033.042-.08.042-.14z"/></g><g><path d="M22.15 69.11h.72v.718h-.72zM22.15 70.547h.72v.72h-.72zM22.15 71.985h.72v.72h-.72zM22.15 73.423h.72v.72h-.72zM22.15 74.86h.72v.72h-.72zM27.903 74.86h.72v.72h-.72zM22.15 76.298h.72v.72h-.72zM27.184 76.298h.72v.72h-.72zM25.746 77.017h.72v.72h-.72zM22.15 77.736h.72v.72h-.72zM22.15 79.174h.72v.72h-.72zM32.936 68.38h.72v.718h-.72z"/><path d="M32.936 71.266h.72v-.72h.756v4.315h-.72v.72h.72v.718h-.72v2.157h-.757v.72H34.414v1.436h-.015v.015H22.15v.705H35.117V68.38h-.705v1.448h-2.195v.72h.72zM31.498 68.38h.72v.718h-.72z"/><path d="M31.498 69.11h.72v.718h-.72zM30.06 68.38h.72v.718h-.72zM28.622 68.38h.72v.718h-.72zM30.78 70.547v-.72h-.72v-.718h-.72v1.438h-.718v.718h-.7v.72h.7v.718h-.7v.72h.7v.718h1.438v-1.438h-.72v.72h-.7v-.72h.7v-1.438h1.44v1.438h.718v-1.438h.72v-.72zM27.184 68.38h.72v.718h-.72zM32.217 79.893h-.72v.72h1.44v-.72z"/><path d="M32.936 73.423h.72v-.72h-.72v-1.437h-.72v2.876h.72zM28.622 77.736h.72v.72h-.72zM22.87 68.38h.72v.718h-.72zM27.184 74.142v.72h.72v-1.44h-1.44v.72zM22.88 74.142h.72v.72h-.72z"/><path d="M22.88 77.736v1.438h.72v-.72h.718v-1.437h.7v.72h.72V75.58h-1.42v-.72h-.72v2.876zM27.903 79.174h.72v.72h-.72z"/><path d="M27.184 79.174h.72v-.72h-1.44v1.44h.72z"/><path d="M25.037 79.893h.71v.72h.718v-.72h-.71v-.72h-.718v-.718h-.72v1.438zM27.184 79.893h.72v.72h-.72zM30.78 79.174h.718v-.72h1.438v-.718h.72V75.58h-.72v.718h-.72v.72H31.5v-.72h.72v-.718h-.72v-.72h.72v-.718h-.72v-.72h-.72v2.158h-.718v-.72h-.72V76.3h.72v1.438h.72v.72h-1.44v1.437h1.44zM28.622 79.893h.72v.72h-.72zM22.88 79.893h.72v.72h-.72zM24.31 69.11h-.72v.718h-.71v.72h.71v.718h-.71v.72h.72v.718h.71v.72h-.71v.718h2.138v-.72h-.71v-.718h.71v-.72h-1.42v-.718h2.147v1.438h1.438v-1.438h-.72v-.72h.72v-.718h-.72v-.73h-.718v-.72h-.718v.72h-.72v-.72h-.718v.73zm1.428.718v.72h-.72v-.72h.72z"/></g><g><path d="M39.43 89.87c1.22 0 2.21-.992 2.21-2.21h-.686c0 .84-.683 1.523-1.523 1.523-.84 0-1.522-.683-1.522-1.523h-.686c0 1.218.99 2.21 2.21 2.21zM37.908 83.657h-.686c0 1.218.99 2.21 2.21 2.21 1.217 0 2.208-.992 2.208-2.21h-.686c0 .72-.505 1.326-1.18 1.482v-1.483h-.686v1.482a1.525 1.525 0 0 1-1.18-1.483z"/></g><circle cx="44.847" cy="128.37" r="1.094"/><ellipse cx="16.57" cy="69.958" rx="2.016" ry="2.989" fill="none" stroke="#000" stroke-width=".241" stroke-miterlimit="10"/><g><path d="M16.856 77.282h.633v.28h-1.67v-.64c0-.186.047-.33.142-.434a.484.484 0 0 1 .376-.157c.156 0 .282.053.377.158.094.104.14.248.14.433v.362zm-.223 0v-.36c0-.104-.028-.182-.083-.234a.293.293 0 0 0-.21-.078.302.302 0 0 0-.212.078c-.057.052-.085.13-.085.233v.362h.59zM16.91 75.004c.18 0 .327.042.438.127.11.085.166.204.166.358a.41.41 0 0 1-.05.203.398.398 0 0 1-.14.144l.165.034v.226H15.7v-.28h.69a.402.402 0 0 1-.122-.137.394.394 0 0 1-.043-.187c0-.155.06-.275.18-.36.122-.084.282-.126.48-.126h.025zm-.024.28a.64.64 0 0 0-.313.065.224.224 0 0 0-.12.21c0 .062.014.114.042.156a.288.288 0 0 0 .115.1h.52a.273.273 0 0 0 .116-.1.286.286 0 0 0 .04-.158c0-.096-.033-.166-.1-.21a.503.503 0 0 0-.276-.065h-.024z"/><circle cx="16.57" cy="76.375" r="1.999" fill="none" stroke="#000" stroke-width=".241" stroke-miterlimit="10"/><path fill="none" stroke="#000" stroke-width=".241" stroke-miterlimit="10" d="M18.053 75.035l-2.955 2.7"/></g><circle cx="13.457" cy="102.691" r="1.412" fill="none" stroke="#000" stroke-width=".241" stroke-miterlimit="10"/><g fill="#cc9932"><path d="M52.544 143.332l-1.605.344-.224-.344.223-.345zM49.528 144.52l.345.222-.345 1.605-.345-1.605zM49.528 140.316l.345 1.605-.345.224-.345-.223zM48.118 142.987l.223.345-.222.344-1.606-.344z"/><path d="M51.66 141.2l-1.378 2.13 1.38 2.134-2.134-1.38-2.132 1.38 1.378-2.133-1.378-2.13 2.132 1.378z"/></g><g><path fill="#CCC" d="M15.125 139.92h9.304v5.122h-9.305zM18.653 137.985h2.078v1.933h-2.077z"/><path d="M22.926 146.298H16.46a.512.512 0 0 1-.513-.512v-6.467c0-.284.23-.513.512-.513h6.466c.283 0 .512.23.512.512v6.466c0 .283-.23.512-.512.512z" fill="#e5e5e5" stroke="#929292" stroke-width=".241" stroke-miterlimit="10"/><circle cx="19.693" cy="142.456" r="2.32" fill="#7b7b7b"/><circle cx="19.693" cy="142.456" r="2.03" fill="#e5e5e5"/><circle cx="19.693" cy="142.456" r=".532" fill="#cc9932"/></g><path fill="#666" d="M7.883 137.044h3.063v1.18H7.883zM20.19 57.397h3.064v1.18H20.19zM25.33 57.397h3.063v1.18H25.33zM25.33 45.388h3.063v1.18H25.33zM33.948 45.388h3.063v1.18H33.95zM36.21 32.26h1.18v3.062h-1.18zM43.683 35.115h1.18v3.063h-1.18zM27.473 32.26h1.18v3.062h-1.18zM15.65 30.75h1.957v4.572H15.65z"/><path fill="#CCC" d="M24.367 30.684h1.512v4.572h-1.513z"/><path fill="#666" d="M8.02 22.512h4.573v1.956H8.02zM48.952 57.045h1.18v3.063h-1.18zM40.166 42.64h1.18V45.7h-1.18zM28.26 138.604h1.18v3.063h-1.18zM31.23 138.604h1.18v3.063h-1.18zM36.776 138.604h1.18v3.063h-1.18zM42.745 138.604h1.18v3.063h-1.18zM7.883 139.546h3.063v1.18H7.883zM7.883 142.048h3.063v1.18H7.883zM7.883 144.55h3.063v1.18H7.883z"/><g><path fill="#CCC" d="M10.307 53.424h11.778v1.56H10.307zM10.307 48.968h11.778v1.56H10.307z"/><path fill="#999" d="M11.075 47.674h10.242v8.628H11.075z"/><circle cx="16.241" cy="51.934" r="2.518"/><circle cx="16.005" cy="51.934" r="2.281" fill="#404040"/><path fill="none" stroke="#b8b8b8" stroke-width=".322" stroke-miterlimit="10" d="M21.182 47.674v8.628"/><path d="M16.005 49.653s.112-.01.31.002c.197.01.485.056.797.207.308.154.647.405.892.77.247.368.396.823.403 1.308a2.423 2.423 0 0 1-.403 1.295 2.315 2.315 0 0 1-.89.77 2.09 2.09 0 0 1-.8.208c-.197.012-.31.002-.31.002s.114-.005.305-.043a2.37 2.37 0 0 0 .738-.286 2.35 2.35 0 0 0 .78-.766c.218-.345.34-.747.338-1.192a2.2 2.2 0 0 0-.337-1.18 2.345 2.345 0 0 0-.78-.766 2.37 2.37 0 0 0-.74-.287c-.192-.037-.305-.042-.305-.042z" fill="#737373"/></g><g><path fill="#CCC" d="M35.427 53.424h11.778v1.56H35.427zM35.427 48.968h11.778v1.56H35.427z"/><path fill="#999" d="M36.195 47.674h10.242v8.628H36.195z"/><circle cx="41.361" cy="51.934" r="2.518"/><circle cx="41.125" cy="51.934" r="2.281" fill="#404040"/><path fill="none" stroke="#b8b8b8" stroke-width=".322" stroke-miterlimit="10" d="M46.302 47.674v8.628"/><path d="M41.125 49.653s.112-.01.31.002c.196.01.484.056.797.207.308.154.646.405.892.77.246.368.396.823.403 1.308a2.423 2.423 0 0 1-.403 1.295 2.316 2.316 0 0 1-.892.77 2.088 2.088 0 0 1-.798.208c-.197.012-.31.002-.31.002s.114-.005.305-.043a2.37 2.37 0 0 0 .738-.286 2.35 2.35 0 0 0 .78-.766c.218-.345.34-.747.338-1.192a2.198 2.198 0 0 0-.337-1.18 2.344 2.344 0 0 0-.782-.766 2.37 2.37 0 0 0-.34 4.73 2.37 2.37 0 0 0-.703-5.06z" fill="#737373"/></g><g><path fill="#e6e6e6" d="M30.72 1.074v15.17h5.577V15.8h8.39v.444h5.577V1.074z"/><path fill="#666" d="M36.297 16.244h1.007v1.695h-1.007zM38.142 16.244h1.007v1.695H38.14zM39.988 16.244h1.007v1.695h-1.007zM41.834 16.244h1.007v1.695h-1.006zM43.68 16.244h1.007v1.695H43.68z"/><path fill="none" stroke="#929292" stroke-width=".161" stroke-miterlimit="10" d="M37.303 16.244v1.696M39.15 16.244v1.696M40.995 16.244v1.696M42.84 16.244v1.696M44.687 16.244v1.696"/><path fill="#b2b2b2" d="M50.25 1.405L51.31 0h-.44l-.62.41z"/><path fill="#c3c3c3" d="M50.898 0h-.028l-.62.41v.68z"/><path fill="#b2b2b2" d="M30.715 1.405L29.655 0h.44l.62.41z"/><path fill="#c3c3c3" d="M30.067 0h.028l.62.41v.68z"/><path fill="#b2b2b2" d="M31.753 1.074H49.23v.8H31.754z"/><path fill="#cfcfcf" d="M31.753 1.073H49.23v.332H31.754z"/><path fill="#b3b3b3" d="M34.105 14.77h1.644v1.475h-1.645zM34.105 3.18h1.644v7.105h-1.645z"/><path fill="#262626" d="M35.21 14.77h.54v1.475h-.54z"/><ellipse cx="34.928" cy="5.152" rx="1.521" ry="1.345" fill="#b3b3b3"/><path fill="#b3b3b3" d="M45.234 14.77h1.644v1.475h-1.644zM45.234 3.18h1.644v7.105h-1.644z"/><path fill="#262626" d="M45.234 14.77h.54v1.475h-.54z"/><path fill="#f2f2f2" d="M50.264 1.074h-.174L48.814 15.79h1.45z"/><path fill="#999" d="M30.72 1.074h.174L32.17 15.79h-1.45z"/><path d="M36.448 5.152c0-.474-.28-.89-.698-1.13V3.18h-.54v7.104h.54v-4c.42-.24.698-.657.698-1.132zM44.547 5.152c0-.474.278-.89.698-1.13V3.18h.54v7.104h-.54v-4c-.42-.24-.698-.657-.698-1.132z" fill="#333"/></g><path fill="#666" d="M17.963 37.76l-.614-.738H12.707l-.614.74h-1.076v6.887h1.076l.614.738h4.642l.613-.74h1.076v-6.887z"/><g><path fill="#bfbfbf" d="M25.298 49.214h6.71v2.105h-6.71zM25.298 52.658h6.71v2.105h-6.71z"/><path d="M25.57 48.704h6.17v6.57h-6.17z"/><path fill="#e5e5e5" d="M31.183 51.988l-.302-2.225-2.225-.303-2.226.303-.304 2.225.303 2.226 2.225.303 2.226-.303z"/><path d="M30.002 52.048h-1.21v1.186h.024c.655 0 1.186-.53 1.186-1.186z" fill="#00a637"/><path d="M28.655 53.255v-1.208H27.47l-.002.022c0 .654.532 1.185 1.187 1.185z" fill="#1b5bb3"/><path d="M27.468 51.908v.002h1.21v-1.188h-.023c-.655 0-1.187.53-1.187 1.186z" fill="#b2b2b2"/><path d="M28.816 50.71l-.002 1.21H30l.002-.022c0-.656-.53-1.187-1.186-1.187z" fill="#cc1314"/></g><g><g fill="#CCC"><path d="M12.36 30.318h1.008v3.715h-1.01zM8.783 30.318h1.01v3.715h-1.01zM10.57 30.318h1.01v3.715h-1.01z"/></g><path fill="#CCC" d="M8.06 28.46h6.033v3.716H8.06z"/><path fill="#666" d="M8.29 27.667h5.57v5.303H8.29z"/></g><g><g fill="#CCC"><path d="M43.536 27.924h.995v5.103h-.994zM40.01 27.924h.994v5.103h-.995zM41.773 27.924h.995v5.103h-.995z"/></g><path fill="#666" d="M39.523 23.88h5.496v8.087h-5.497z"/></g><g><path fill="#CCC" d="M45.787 26.936h2.71v8.148h-2.71z"/><path fill="#666" d="M45.787 29.245h2.71v3.53h-2.71z"/></g><g><path fill="#CCC" d="M30.958 26.936h2.71v8.148h-2.71z"/><path fill="#666" d="M30.958 29.245h2.71v3.53h-2.71z"/></g><path d="M57.532 41.137h-12.78a2.4 2.4 0 0 0-2.108 1.25h.784v2.3h-.784a2.4 2.4 0 0 0 2.107 1.25h12.7" fill="#00a9f3"/><g><path fill="#918c70" d="M11.345 5.856H24.33V16.17H11.346z"/><path fill="#7f7a60" d="M11.345 8.885H24.33v7.283H11.346z"/><path fill="#a09c85" d="M13.122 8.885h3.956v5.31h-3.956zM18.598 8.885h3.956v5.31h-3.956z"/><path fill="#7f7744" d="M16.43 3.67h2.832v3.343H16.43z"/><path fill="#d6d4c8" d="M27.324 16.17h-1.086v-3.774H24.33v3.773H11.346v-3.774H9.438v3.774H8.352v-1.8H6.817v4.786H28.86V14.37h-1.536zM25.362 2.96v1.005h-2.815V2.96H13.13v1.005h-2.817V2.96H6.817v4.695h1.535v-1.8h1.086V9.72h1.907V5.856h1.784v1.157h3.3V3.67h2.816v3.343h3.3V5.856h1.785v3.862h1.908V5.855h1.086v1.8h1.535V2.96z"/><path fill="#bab7a0" d="M17.078 12.945l-3.956-.802V8.885h3.956zM22.554 12.945l-3.956-.802V8.885h3.956z"/><circle cx="15.278" cy="10.41" r=".945" fill="#666"/><circle cx="14.922" cy="10.41" r=".945" fill="#CCC"/><circle cx="20.662" cy="10.41" r=".945" fill="#666"/><circle cx="20.307" cy="10.41" r=".945" fill="#CCC"/><path fill="#918c70" d="M16.43 3.653h2.816v5.232H16.43z"/><path fill="#7f7a60" d="M11.345 5.78h1.784v5.232h-1.785zM22.547 5.78h1.784v5.232h-1.783z"/><path fill="#666" d="M14.084 19.774h2.682v6.22h-2.682z"/><path fill="#CCC" d="M14.535 19.774h1.78v5.175h-1.78z"/><path fill="#666" d="M18.91 19.774h2.683v6.22H18.91z"/><path fill="#CCC" d="M19.362 19.774h1.78v5.175h-1.78z"/><path fill="#404040" d="M11.345 6.658h1.784v2.177h-1.785zM22.547 6.658h1.784v2.177h-1.783z"/><g fill="#bab7a0"><path d="M11.345 5.683h1.784v.997h-1.785zM13.13 6.84h3.3v.997h-3.3zM8.352 5.683h1.086v.997H8.352zM6.817 7.482h1.535v.997H6.817zM9.438 9.545h1.907v.997H9.438zM19.246 6.84h3.3v.997h-3.3zM26.238 5.683h1.086v.997h-1.086zM27.324 7.482h1.535v.997h-1.536zM24.33 9.545h1.908v.997H24.33zM22.547 5.683h1.784v.997h-1.783z"/></g><path fill="#bab7a0" d="M6.817 18.16h22.035v1.713H6.817z"/></g><g fill="#666"><circle cx="23.421" cy="21.48" r=".724"/><circle cx="26.323" cy="21.48" r=".724"/><circle cx="29.225" cy="21.48" r=".724"/><circle cx="23.421" cy="24.376" r=".724"/><circle cx="26.323" cy="24.376" r=".724"/><circle cx="29.225" cy="24.376" r=".724"/><circle cx="49.25" cy="18.456" r=".724"/><circle cx="46.354" cy="18.456" r=".724"/><circle cx="32.44" cy="18.295" r=".724"/><circle cx="23.421" cy="27.272" r=".724"/><circle cx="26.323" cy="27.272" r=".724"/><circle cx="29.225" cy="27.272" r=".724"/><circle cx="36.645" cy="26.119" r=".724"/><circle cx="36.645" cy="29.015" r=".724"/><circle cx="46.506" cy="38.395" r=".724"/><circle cx="40.918" cy="38.395" r=".724"/><circle cx="37.866" cy="38.395" r=".724"/><circle cx="33.931" cy="37.371" r=".724"/><circle cx="27.658" cy="38.395" r=".724"/><circle cx="27.658" cy="41.291" r=".724"/><circle cx="24.606" cy="38.395" r=".724"/><circle cx="34.655" cy="58.114" r=".724"/><circle cx="31.604" cy="58.114" r=".724"/><circle cx="24.606" cy="41.291" r=".724"/><circle cx="21.492" cy="38.395" r=".724"/><circle cx="21.492" cy="41.291" r=".724"/></g><circle cx="44.657" cy="43.481" r="2.345" fill="#00a9f3"/><path fill="#CCC" d="M43.36 42.62h3.6v1.772h-3.6z"/><path d="M57.536 11.317h-5.58a1.29 1.29 0 0 1-1.286-1.287V5.738c0-.708.58-1.287 1.287-1.287h5.58v6.867z" fill="#00a9f3"/><path fill="#666" d="M47.72 20.288h3.062v1.18H47.72z"/><g><g fill="#CCC"><path d="M31.56 42.936h2.17v1.01h-2.17zM31.56 39.36h2.17v1.01h-2.17zM31.56 41.148h2.17v1.01h-2.17zM34.395 39.36h2.168v1.01h-2.168zM34.395 42.896h2.168v1.01h-2.168z"/></g><path fill="#666" d="M32.558 38.867h3.094v5.572h-3.094z"/></g><g><circle cx="54.385" cy="43.562" r="2.235" fill="#b2b2b2"/><circle cx="54.385" cy="14.769" r="2.235" fill="#b2b2b2"/><path fill="#b2b2b2" d="M54.385 12.534h3.15v4.47h-3.15z"/><path d="M56.293 13.605a2.234 2.234 0 0 0-4.143 1.164 2.235 2.235 0 0 0 4.143 1.164" fill="#b2b2b2"/><path fill="#CCC" d="M53.615 14h1.54v1.54h-1.54z"/><path d="M54.385 14.906c.656-1.253 2.388-2.125 3.15-2.372h-3.15c-.762 0-1.434.382-1.838.964.763.246 1.41.75 1.838 1.408z" fill="#999"/><path d="M53.615 15.54h1.54v-.067a3.47 3.47 0 0 1-.77-.84c-.21.32-.47.605-.77.84v.066z" fill="#999"/><circle cx="54.385" cy="14.769" r=".363" fill="#cbcbcb" stroke="#999" stroke-width=".08" stroke-miterlimit="10"/><path d="M56.293 42.397a2.234 2.234 0 0 0-4.143 1.165 2.235 2.235 0 0 0 4.143 1.164" fill="#b2b2b2"/><path fill="#CCC" d="M53.615 42.792h1.54v1.54h-1.54z"/><path d="M53.615 44.33h1.54v-.065a3.47 3.47 0 0 1-.77-.84c-.21.32-.47.605-.77.84v.066z" fill="#999"/><circle cx="54.385" cy="43.562" r=".363" fill="#cbcbcb" stroke="#999" stroke-width=".08" stroke-miterlimit="10"/><circle cx="54.418" cy="21.927" r="2.235" fill="#b2b2b2"/><path fill="#b2b2b2" d="M54.418 19.692h3.15v4.47h-3.15z"/><path d="M56.326 20.763a2.234 2.234 0 0 0-4.143 1.164 2.235 2.235 0 0 0 4.143 1.165" fill="#b2b2b2"/><path fill="#CCC" d="M53.648 21.158h1.54v1.54h-1.54z"/><path d="M54.418 22.064c.656-1.253 2.388-2.126 3.15-2.372h-3.15c-.76 0-1.434.382-1.838.964.763.246 1.41.75 1.838 1.408z" fill="#999"/><path d="M53.648 22.697h1.54v-.066a3.47 3.47 0 0 1-.77-.84c-.21.322-.47.605-.77.84v.067z" fill="#999"/><circle cx="54.418" cy="21.927" r=".363" fill="#cbcbcb" stroke="#999" stroke-width=".08" stroke-miterlimit="10"/><circle cx="54.385" cy="29.085" r="2.235" fill="#b2b2b2"/><path fill="#b2b2b2" d="M54.385 26.85h3.15v4.47h-3.15z"/><path d="M56.293 27.92a2.234 2.234 0 0 0-4.143 1.165 2.235 2.235 0 0 0 4.143 1.165" fill="#b2b2b2"/><path fill="#CCC" d="M53.615 28.316h1.54v1.54h-1.54z"/><path d="M54.385 29.22c.656-1.25 2.388-2.124 3.15-2.37h-3.15c-.762 0-1.434.382-1.838.963.763.246 1.41.75 1.838 1.408z" fill="#999"/><path d="M53.615 29.855h1.54v-.067a3.47 3.47 0 0 1-.77-.84c-.21.322-.47.605-.77.84v.067z" fill="#999"/><circle cx="54.385" cy="29.085" r=".363" fill="#cbcbcb" stroke="#999" stroke-width=".08" stroke-miterlimit="10"/><g><circle cx="54.385" cy="36.243" r="2.235" fill="#b2b2b2"/><path fill="#b2b2b2" d="M54.385 34.008h3.15v4.47h-3.15z"/><path d="M56.293 35.078a2.234 2.234 0 0 0-4.143 1.165 2.235 2.235 0 0 0 4.143 1.165" fill="#b2b2b2"/><path fill="#CCC" d="M53.615 35.473h1.54v1.54h-1.54z"/><path d="M54.385 36.38c.656-1.253 2.388-2.126 3.15-2.372h-3.15c-.762 0-1.434.38-1.838.963.763.247 1.41.75 1.838 1.41z" fill="#999"/><path d="M53.615 37.013h1.54v-.067a3.47 3.47 0 0 1-.77-.84c-.21.322-.47.605-.77.84v.067z" fill="#999"/><circle cx="54.385" cy="36.243" r=".363" fill="#cbcbcb" stroke="#999" stroke-width=".08" stroke-miterlimit="10"/></g><g><circle cx="54.385" cy="43.562" r="2.235" fill="#b2b2b2"/><path fill="#b2b2b2" d="M54.385 41.327h3.15v4.47h-3.15z"/><path d="M56.293 42.397a2.234 2.234 0 0 0-4.143 1.165 2.235 2.235 0 0 0 4.143 1.164" fill="#b2b2b2"/><path fill="#CCC" d="M53.615 42.792h1.54v1.54h-1.54z"/><path d="M54.385 43.698c.656-1.252 2.388-2.125 3.15-2.37h-3.15c-.762 0-1.434.38-1.838.962.763.246 1.41.75 1.838 1.408z" fill="#999"/><path d="M53.615 44.33h1.54v-.065a3.47 3.47 0 0 1-.77-.84c-.21.32-.47.605-.77.84v.066z" fill="#999"/><circle cx="54.385" cy="43.562" r=".363" fill="#cbcbcb" stroke="#999" stroke-width=".08" stroke-miterlimit="10"/></g><g><circle cx="54.39" cy="50.559" r="2.235" fill="#b2b2b2"/><path fill="#b2b2b2" d="M54.39 48.324h3.15v4.47h-3.15z"/><path d="M56.298 49.394a2.234 2.234 0 0 0-4.143 1.165 2.235 2.235 0 0 0 4.143 1.163" fill="#b2b2b2"/><path fill="#CCC" d="M53.62 49.79h1.54v1.538h-1.54z"/><path d="M54.39 50.695c.657-1.252 2.39-2.125 3.15-2.37h-3.15c-.762 0-1.434.38-1.837.962.762.246 1.41.75 1.837 1.408z" fill="#999"/><path d="M53.62 51.328h1.54v-.066a3.47 3.47 0 0 1-.77-.84c-.208.32-.47.605-.77.84v.066z" fill="#999"/><circle cx="54.39" cy="50.559" r=".363" fill="#cbcbcb" stroke="#999" stroke-width=".08" stroke-miterlimit="10"/></g><g><circle cx="54.385" cy="57.716" r="2.235" fill="#b2b2b2"/><path fill="#b2b2b2" d="M54.385 55.48h3.15v4.47h-3.15z"/><path d="M56.293 56.552a2.234 2.234 0 0 0-4.143 1.165 2.235 2.235 0 0 0 4.143 1.164" fill="#b2b2b2"/><path fill="#CCC" d="M53.615 56.947h1.54v1.54h-1.54z"/><path d="M54.385 57.853c.656-1.253 2.388-2.125 3.15-2.37h-3.15c-.762 0-1.434.38-1.838.962.763.246 1.41.75 1.838 1.408z" fill="#999"/><path d="M53.615 58.486h1.54v-.066a3.47 3.47 0 0 1-.77-.84c-.21.32-.47.605-.77.84v.066z" fill="#999"/><circle cx="54.385" cy="57.716" r=".363" fill="#cbcbcb" stroke="#999" stroke-width=".08" stroke-miterlimit="10"/></g><g><circle cx="54.385" cy="64.874" r="2.235" fill="#b2b2b2"/><path fill="#b2b2b2" d="M54.385 62.64h3.15v4.47h-3.15z"/><path d="M56.293 63.71a2.234 2.234 0 0 0-4.143 1.164 2.235 2.235 0 0 0 4.143 1.165" fill="#b2b2b2"/><path fill="#CCC" d="M53.615 64.105h1.54v1.54h-1.54z"/><path d="M54.385 65.01c.656-1.252 2.388-2.125 3.15-2.37h-3.15c-.762 0-1.434.38-1.838.963.763.246 1.41.75 1.838 1.408z" fill="#999"/><path d="M53.615 65.644h1.54v-.066a3.47 3.47 0 0 1-.77-.84c-.21.32-.47.604-.77.84v.066z" fill="#999"/><circle cx="54.385" cy="64.874" r=".363" fill="#cbcbcb" stroke="#999" stroke-width=".08" stroke-miterlimit="10"/></g><g><circle cx="54.385" cy="79.19" r="2.235" fill="#b2b2b2"/><path fill="#b2b2b2" d="M54.385 76.955h3.15v4.47h-3.15z"/><path d="M56.293 78.025a2.234 2.234 0 0 0-4.143 1.165 2.235 2.235 0 0 0 4.143 1.165" fill="#b2b2b2"/><path fill="#CCC" d="M53.615 78.42h1.54v1.54h-1.54z"/><path d="M54.385 79.326c.656-1.252 2.388-2.125 3.15-2.37h-3.15c-.762 0-1.434.38-1.838.962.763.246 1.41.75 1.838 1.408z" fill="#999"/><path d="M53.615 79.96h1.54v-.067a3.47 3.47 0 0 1-.77-.84c-.21.322-.47.605-.77.84v.067z" fill="#999"/><circle cx="54.385" cy="79.19" r=".363" fill="#cbcbcb" stroke="#999" stroke-width=".08" stroke-miterlimit="10"/></g><g><circle cx="54.385" cy="72.032" r="2.235" fill="#b2b2b2"/><path fill="#b2b2b2" d="M54.385 69.797h3.15v4.47h-3.15z"/><path d="M56.293 70.868a2.234 2.234 0 0 0-4.143 1.164 2.235 2.235 0 0 0 4.143 1.165" fill="#b2b2b2"/><path fill="#CCC" d="M53.615 71.263h1.54v1.54h-1.54z"/><path d="M54.385 72.17c.656-1.254 2.388-2.127 3.15-2.373h-3.15c-.762 0-1.434.382-1.838.963.763.246 1.41.75 1.838 1.41z" fill="#999"/><path d="M53.615 72.802h1.54v-.066a3.47 3.47 0 0 1-.77-.84c-.21.32-.47.604-.77.84v.066z" fill="#999"/><circle cx="54.385" cy="72.032" r=".363" fill="#cbcbcb" stroke="#999" stroke-width=".08" stroke-miterlimit="10"/></g><g><circle cx="54.385" cy="86.348" r="2.235" fill="#b2b2b2"/><path fill="#b2b2b2" d="M54.385 84.113h3.15v4.47h-3.15z"/><path d="M56.293 85.183a2.234 2.234 0 0 0-4.143 1.165 2.235 2.235 0 0 0 4.143 1.164" fill="#b2b2b2"/><path fill="#CCC" d="M53.615 85.578h1.54v1.54h-1.54z"/><path d="M54.385 86.484c.656-1.252 2.388-2.125 3.15-2.37h-3.15c-.762 0-1.434.38-1.838.962.763.246 1.41.75 1.838 1.408z" fill="#999"/><path d="M53.615 87.117h1.54v-.066a3.47 3.47 0 0 1-.77-.838c-.21.32-.47.604-.77.84v.065z" fill="#999"/><circle cx="54.385" cy="86.348" r=".363" fill="#cbcbcb" stroke="#999" stroke-width=".08" stroke-miterlimit="10"/></g><g><circle cx="54.385" cy="93.506" r="2.235" fill="#b2b2b2"/><path fill="#b2b2b2" d="M54.385 91.27h3.15v4.47h-3.15z"/><path d="M56.293 92.34a2.234 2.234 0 0 0-4.143 1.166 2.235 2.235 0 0 0 4.143 1.164" fill="#b2b2b2"/><path fill="#CCC" d="M53.615 92.736h1.54v1.54h-1.54z"/><path d="M54.385 93.642c.656-1.252 2.388-2.125 3.15-2.37h-3.15c-.762 0-1.434.38-1.838.962.763.246 1.41.75 1.838 1.408z" fill="#999"/><path d="M53.615 94.275h1.54v-.066a3.47 3.47 0 0 1-.77-.84c-.21.32-.47.604-.77.84v.065z" fill="#999"/><circle cx="54.385" cy="93.506" r=".363" fill="#cbcbcb" stroke="#999" stroke-width=".08" stroke-miterlimit="10"/></g><g><circle cx="54.404" cy="100.663" r="2.235" fill="#b2b2b2"/><path fill="#b2b2b2" d="M54.404 98.43h3.15v4.47h-3.15z"/><path d="M56.312 99.5a2.234 2.234 0 0 0-4.143 1.164 2.235 2.235 0 0 0 4.142 1.164" fill="#b2b2b2"/><path fill="#CCC" d="M53.635 99.894h1.54v1.54h-1.54z"/><path d="M54.404 100.8c.657-1.252 2.39-2.125 3.15-2.37h-3.15c-.762 0-1.434.38-1.837.962.762.246 1.41.75 1.837 1.408z" fill="#999"/><path d="M53.635 101.433h1.54v-.066a3.47 3.47 0 0 1-.77-.84c-.21.32-.47.605-.77.84v.066z" fill="#999"/><circle cx="54.404" cy="100.663" r=".363" fill="#cbcbcb" stroke="#999" stroke-width=".08" stroke-miterlimit="10"/></g><g><circle cx="54.385" cy="107.821" r="2.235" fill="#b2b2b2"/><path fill="#b2b2b2" d="M54.385 105.586h3.15v4.47h-3.15z"/><path d="M56.293 106.657a2.234 2.234 0 0 0-4.143 1.164 2.235 2.235 0 0 0 4.143 1.166" fill="#b2b2b2"/><path fill="#CCC" d="M53.615 107.052h1.54v1.54h-1.54z"/><path d="M54.385 107.958c.656-1.253 2.388-2.126 3.15-2.372h-3.15c-.762 0-1.434.382-1.838.964.763.246 1.41.75 1.838 1.408z" fill="#999"/><path d="M53.615 108.59h1.54v-.065a3.47 3.47 0 0 1-.77-.84c-.21.32-.47.604-.77.84v.066z" fill="#999"/><circle cx="54.385" cy="107.821" r=".363" fill="#cbcbcb" stroke="#999" stroke-width=".08" stroke-miterlimit="10"/></g><g><circle cx="54.385" cy="114.979" r="2.235" fill="#b2b2b2"/><path fill="#b2b2b2" d="M54.385 112.744h3.15v4.47h-3.15z"/><path d="M56.293 113.815a2.234 2.234 0 0 0-4.143 1.164 2.235 2.235 0 0 0 4.143 1.164" fill="#b2b2b2"/><path fill="#CCC" d="M53.615 114.21h1.54v1.54h-1.54z"/><path d="M54.385 115.116c.656-1.253 2.388-2.126 3.15-2.372h-3.15c-.762 0-1.434.382-1.838.964.763.246 1.41.75 1.838 1.408z" fill="#999"/><path d="M53.615 115.75h1.54v-.067a3.47 3.47 0 0 1-.77-.84c-.21.32-.47.604-.77.84v.066z" fill="#999"/><circle cx="54.385" cy="114.979" r=".363" fill="#cbcbcb" stroke="#999" stroke-width=".08" stroke-miterlimit="10"/></g><g><circle cx="54.385" cy="122.137" r="2.235" fill="#b2b2b2"/><path fill="#b2b2b2" d="M54.385 119.902h3.15v4.47h-3.15z"/><path d="M56.293 120.972a2.234 2.234 0 0 0-4.143 1.165 2.235 2.235 0 0 0 4.143 1.165" fill="#b2b2b2"/><path fill="#CCC" d="M53.615 121.368h1.54v1.54h-1.54z"/><path d="M54.385 122.273c.656-1.252 2.388-2.125 3.15-2.37h-3.15c-.762 0-1.434.38-1.838.962.763.246 1.41.75 1.838 1.408z" fill="#999"/><path d="M53.615 122.907h1.54v-.067a3.47 3.47 0 0 1-.77-.84c-.21.322-.47.605-.77.84v.067z" fill="#999"/><circle cx="54.385" cy="122.137" r=".363" fill="#cbcbcb" stroke="#999" stroke-width=".08" stroke-miterlimit="10"/></g><g><circle cx="54.385" cy="129.295" r="2.235" fill="#b2b2b2"/><path fill="#b2b2b2" d="M54.385 127.06h3.15v4.47h-3.15z"/><path d="M56.293 128.13a2.234 2.234 0 0 0-4.143 1.165 2.235 2.235 0 0 0 4.143 1.165" fill="#b2b2b2"/><path fill="#CCC" d="M53.615 128.525h1.54v1.54h-1.54z"/><path d="M54.385 129.43c.656-1.25 2.388-2.124 3.15-2.37h-3.15c-.762 0-1.434.38-1.838.963.763.246 1.41.75 1.838 1.408z" fill="#999"/><path d="M53.615 130.064h1.54v-.066a3.47 3.47 0 0 1-.77-.84c-.21.32-.47.605-.77.84v.066z" fill="#999"/><circle cx="54.385" cy="129.295" r=".363" fill="#cbcbcb" stroke="#999" stroke-width=".08" stroke-miterlimit="10"/></g><g><circle cx="54.404" cy="136.453" r="2.235" fill="#b2b2b2"/><path fill="#b2b2b2" d="M54.404 134.218h3.15v4.47h-3.15z"/><path d="M56.312 135.288a2.234 2.234 0 0 0-4.143 1.165 2.235 2.235 0 0 0 4.142 1.164" fill="#b2b2b2"/><path fill="#CCC" d="M53.635 135.683h1.54v1.54h-1.54z"/><path d="M54.404 136.59c.657-1.253 2.39-2.126 3.15-2.372h-3.15c-.762 0-1.434.38-1.837.963.762.247 1.41.75 1.837 1.41z" fill="#999"/><path d="M53.635 137.222h1.54v-.066a3.47 3.47 0 0 1-.77-.84c-.21.32-.47.605-.77.84v.066z" fill="#999"/><circle cx="54.404" cy="136.453" r=".363" fill="#cbcbcb" stroke="#999" stroke-width=".08" stroke-miterlimit="10"/></g></g><g><circle cx="3.268" cy="43.562" r="2.235" fill="#b2b2b2"/><circle cx="3.268" cy="14.769" r="2.235" fill="#b2b2b2"/><path fill="#b2b2b2" d="M.117 12.534h3.15v4.47H.118z"/><path d="M1.36 13.605a2.234 2.234 0 0 1 4.143 1.164 2.235 2.235 0 0 1-4.143 1.164" fill="#b2b2b2"/><path fill="#CCC" d="M2.498 14h1.54v1.54h-1.54z"/><path d="M3.268 14.906C2.61 13.653.878 12.78.118 12.534h3.15c.762 0 1.434.382 1.837.964-.762.246-1.41.75-1.837 1.408z" fill="#999"/><path d="M4.037 15.54h-1.54v-.067c.3-.235.562-.52.77-.84.21.32.47.605.77.84v.066z" fill="#999"/><circle cx="3.268" cy="14.769" r=".363" fill="#cbcbcb" stroke="#999" stroke-width=".08" stroke-miterlimit="10"/><path d="M1.36 42.397a2.234 2.234 0 0 1 4.143 1.165 2.235 2.235 0 0 1-4.143 1.164" fill="#b2b2b2"/><path fill="#CCC" d="M2.498 42.792h1.54v1.54h-1.54z"/><path d="M4.037 44.33h-1.54v-.065c.3-.235.562-.52.77-.84.21.32.47.605.77.84v.066z" fill="#999"/><circle cx="3.268" cy="43.562" r=".363" fill="#cbcbcb" stroke="#999" stroke-width=".08" stroke-miterlimit="10"/><circle cx="3.235" cy="21.927" r="2.235" fill="#b2b2b2"/><path fill="#b2b2b2" d="M.084 19.692h3.15v4.47H.085z"/><path d="M1.327 20.763a2.234 2.234 0 0 1 4.143 1.164 2.235 2.235 0 0 1-4.143 1.165" fill="#b2b2b2"/><path fill="#CCC" d="M2.465 21.158h1.54v1.54h-1.54z"/><path d="M3.235 22.064c-.657-1.253-2.39-2.126-3.15-2.372h3.15c.762 0 1.434.382 1.837.964-.762.246-1.41.75-1.837 1.408z" fill="#999"/><path d="M4.004 22.697h-1.54v-.066c.302-.235.562-.518.77-.84.21.322.47.605.77.84v.067z" fill="#999"/><circle cx="3.235" cy="21.927" r=".363" fill="#cbcbcb" stroke="#999" stroke-width=".08" stroke-miterlimit="10"/><circle cx="3.268" cy="29.085" r="2.235" fill="#b2b2b2"/><path fill="#b2b2b2" d="M.117 26.85h3.15v4.47H.118z"/><path d="M1.36 27.92a2.234 2.234 0 0 1 4.143 1.165A2.235 2.235 0 0 1 1.36 30.25" fill="#b2b2b2"/><path fill="#CCC" d="M2.498 28.316h1.54v1.54h-1.54z"/><path d="M3.268 29.22c-.657-1.25-2.39-2.124-3.15-2.37h3.15c.762 0 1.434.382 1.837.963-.762.246-1.41.75-1.837 1.408z" fill="#999"/><path d="M4.037 29.855h-1.54v-.067c.3-.235.562-.518.77-.84.21.322.47.605.77.84v.067z" fill="#999"/><circle cx="3.268" cy="29.085" r=".363" fill="#cbcbcb" stroke="#999" stroke-width=".08" stroke-miterlimit="10"/><g><circle cx="3.268" cy="36.243" r="2.235" fill="#b2b2b2"/><path fill="#b2b2b2" d="M.117 34.008h3.15v4.47H.118z"/><path d="M1.36 35.078a2.234 2.234 0 0 1 4.143 1.165 2.235 2.235 0 0 1-4.143 1.165" fill="#b2b2b2"/><path fill="#CCC" d="M2.498 35.473h1.54v1.54h-1.54z"/><path d="M3.268 36.38c-.657-1.253-2.39-2.126-3.15-2.372h3.15c.762 0 1.434.38 1.837.963-.762.247-1.41.75-1.837 1.41z" fill="#999"/><path d="M4.037 37.013h-1.54v-.067c.3-.235.562-.518.77-.84.21.322.47.605.77.84v.067z" fill="#999"/><circle cx="3.268" cy="36.243" r=".363" fill="#cbcbcb" stroke="#999" stroke-width=".08" stroke-miterlimit="10"/></g><g><circle cx="3.268" cy="43.562" r="2.235" fill="#b2b2b2"/><path fill="#b2b2b2" d="M.117 41.327h3.15v4.47H.118z"/><path d="M1.36 42.397a2.234 2.234 0 0 1 4.143 1.165 2.235 2.235 0 0 1-4.143 1.164" fill="#b2b2b2"/><path fill="#CCC" d="M2.498 42.792h1.54v1.54h-1.54z"/><path d="M3.268 43.698c-.657-1.252-2.39-2.125-3.15-2.37h3.15c.762 0 1.434.38 1.837.962-.762.246-1.41.75-1.837 1.408z" fill="#999"/><path d="M4.037 44.33h-1.54v-.065c.3-.235.562-.52.77-.84.21.32.47.605.77.84v.066z" fill="#999"/><circle cx="3.268" cy="43.562" r=".363" fill="#cbcbcb" stroke="#999" stroke-width=".08" stroke-miterlimit="10"/></g><g><circle cx="3.262" cy="50.559" r="2.235" fill="#b2b2b2"/><path fill="#b2b2b2" d="M.11 48.324h3.152v4.47H.112z"/><path d="M1.354 49.394a2.234 2.234 0 0 1 4.143 1.165 2.235 2.235 0 0 1-4.143 1.163" fill="#b2b2b2"/><path fill="#CCC" d="M2.493 49.79h1.54v1.538h-1.54z"/><path d="M3.262 50.695c-.657-1.252-2.388-2.125-3.15-2.37h3.15c.762 0 1.434.38 1.838.962-.763.246-1.41.75-1.838 1.408z" fill="#999"/><path d="M4.032 51.328h-1.54v-.066c.3-.235.562-.52.77-.84.21.32.47.605.77.84v.066z" fill="#999"/><circle cx="3.262" cy="50.559" r=".363" fill="#cbcbcb" stroke="#999" stroke-width=".08" stroke-miterlimit="10"/></g><g><circle cx="3.268" cy="57.716" r="2.235" fill="#b2b2b2"/><path fill="#b2b2b2" d="M.117 55.48h3.15v4.47H.118z"/><path d="M1.36 56.552a2.234 2.234 0 0 1 4.143 1.165A2.235 2.235 0 0 1 1.36 58.88" fill="#b2b2b2"/><path fill="#CCC" d="M2.498 56.947h1.54v1.54h-1.54z"/><path d="M3.268 57.853C2.61 56.6.878 55.728.118 55.483h3.15c.762 0 1.434.38 1.837.962-.762.246-1.41.75-1.837 1.408z" fill="#999"/><path d="M4.037 58.486h-1.54v-.066c.3-.235.562-.52.77-.84.21.32.47.605.77.84v.066z" fill="#999"/><circle cx="3.268" cy="57.716" r=".363" fill="#cbcbcb" stroke="#999" stroke-width=".08" stroke-miterlimit="10"/></g><g><circle cx="3.268" cy="64.874" r="2.235" fill="#b2b2b2"/><path fill="#b2b2b2" d="M.117 62.64h3.15v4.47H.118z"/><path d="M1.36 63.71a2.234 2.234 0 0 1 4.143 1.164A2.235 2.235 0 0 1 1.36 66.04" fill="#b2b2b2"/><path fill="#CCC" d="M2.498 64.105h1.54v1.54h-1.54z"/><path d="M3.268 65.01C2.61 63.76.878 62.886.118 62.64h3.15c.762 0 1.434.38 1.837.963-.762.246-1.41.75-1.837 1.408z" fill="#999"/><path d="M4.037 65.644h-1.54v-.066c.3-.236.562-.52.77-.84.21.32.47.604.77.84v.066z" fill="#999"/><circle cx="3.268" cy="64.874" r=".363" fill="#cbcbcb" stroke="#999" stroke-width=".08" stroke-miterlimit="10"/></g><g><circle cx="3.268" cy="79.19" r="2.235" fill="#b2b2b2"/><path fill="#b2b2b2" d="M.117 76.955h3.15v4.47H.118z"/><path d="M1.36 78.025a2.234 2.234 0 0 1 4.143 1.165 2.235 2.235 0 0 1-4.143 1.165" fill="#b2b2b2"/><path fill="#CCC" d="M2.498 78.42h1.54v1.54h-1.54z"/><path d="M3.268 79.326C2.61 78.074.878 77.2.118 76.956h3.15c.762 0 1.434.38 1.837.962-.762.246-1.41.75-1.837 1.408z" fill="#999"/><path d="M4.037 79.96h-1.54v-.067c.3-.235.562-.518.77-.84.21.322.47.605.77.84v.067z" fill="#999"/><circle cx="3.268" cy="79.19" r=".363" fill="#cbcbcb" stroke="#999" stroke-width=".08" stroke-miterlimit="10"/></g><g><circle cx="3.268" cy="72.032" r="2.235" fill="#b2b2b2"/><path fill="#b2b2b2" d="M.117 69.797h3.15v4.47H.118z"/><path d="M1.36 70.868a2.234 2.234 0 0 1 4.143 1.164 2.235 2.235 0 0 1-4.143 1.165" fill="#b2b2b2"/><path fill="#CCC" d="M2.498 71.263h1.54v1.54h-1.54z"/><path d="M3.268 72.17c-.657-1.254-2.39-2.127-3.15-2.373h3.15c.762 0 1.434.382 1.837.963-.762.246-1.41.75-1.837 1.41z" fill="#999"/><path d="M4.037 72.802h-1.54v-.066c.3-.236.562-.52.77-.84.21.32.47.604.77.84v.066z" fill="#999"/><circle cx="3.268" cy="72.032" r=".363" fill="#cbcbcb" stroke="#999" stroke-width=".08" stroke-miterlimit="10"/></g><g><circle cx="3.268" cy="86.348" r="2.235" fill="#b2b2b2"/><path fill="#b2b2b2" d="M.117 84.113h3.15v4.47H.118z"/><path d="M1.36 85.183a2.234 2.234 0 0 1 4.143 1.165 2.235 2.235 0 0 1-4.143 1.164" fill="#b2b2b2"/><path fill="#CCC" d="M2.498 85.578h1.54v1.54h-1.54z"/><path d="M3.268 86.484c-.657-1.252-2.39-2.125-3.15-2.37h3.15c.762 0 1.434.38 1.837.962-.762.246-1.41.75-1.837 1.408z" fill="#999"/><path d="M4.037 87.117h-1.54v-.066c.3-.234.562-.518.77-.838.21.32.47.604.77.84v.065z" fill="#999"/><circle cx="3.268" cy="86.348" r=".363" fill="#cbcbcb" stroke="#999" stroke-width=".08" stroke-miterlimit="10"/></g><g><circle cx="3.268" cy="93.506" r="2.235" fill="#b2b2b2"/><path fill="#b2b2b2" d="M.117 91.27h3.15v4.47H.118z"/><path d="M1.36 92.34a2.234 2.234 0 0 1 4.143 1.166A2.235 2.235 0 0 1 1.36 94.67" fill="#b2b2b2"/><path fill="#CCC" d="M2.498 92.736h1.54v1.54h-1.54z"/><path d="M3.268 93.642c-.657-1.252-2.39-2.125-3.15-2.37h3.15c.762 0 1.434.38 1.837.962-.762.246-1.41.75-1.837 1.408z" fill="#999"/><path d="M4.037 94.275h-1.54v-.066c.3-.236.562-.52.77-.84.21.32.47.604.77.84v.065z" fill="#999"/><circle cx="3.268" cy="93.506" r=".363" fill="#cbcbcb" stroke="#999" stroke-width=".08" stroke-miterlimit="10"/></g><g><circle cx="3.249" cy="100.663" r="2.235" fill="#b2b2b2"/><path fill="#b2b2b2" d="M.098 98.43h3.15v4.47H.1z"/><path d="M1.34 99.5a2.234 2.234 0 0 1 4.143 1.164 2.235 2.235 0 0 1-4.142 1.164" fill="#b2b2b2"/><path fill="#CCC" d="M2.48 99.894h1.538v1.54h-1.54z"/><path d="M3.248 100.8C2.592 99.548.86 98.675.098 98.43h3.15c.76 0 1.435.38 1.838.962-.762.246-1.41.75-1.838 1.408z" fill="#999"/><path d="M4.018 101.433h-1.54v-.066c.3-.235.562-.52.77-.84.21.32.47.605.77.84v.066z" fill="#999"/><circle cx="3.249" cy="100.663" r=".363" fill="#cbcbcb" stroke="#999" stroke-width=".08" stroke-miterlimit="10"/></g><g><circle cx="3.268" cy="107.821" r="2.235" fill="#b2b2b2"/><path fill="#b2b2b2" d="M.117 105.586h3.15v4.47H.118z"/><path d="M1.36 106.657a2.234 2.234 0 0 1 4.143 1.164 2.235 2.235 0 0 1-4.143 1.166" fill="#b2b2b2"/><path fill="#CCC" d="M2.498 107.052h1.54v1.54h-1.54z"/><path d="M3.268 107.958c-.657-1.253-2.39-2.126-3.15-2.372h3.15c.762 0 1.434.382 1.837.964-.762.246-1.41.75-1.837 1.408z" fill="#999"/><path d="M4.037 108.59h-1.54v-.065c.3-.236.562-.52.77-.84.21.32.47.604.77.84v.066z" fill="#999"/><circle cx="3.268" cy="107.821" r=".363" fill="#cbcbcb" stroke="#999" stroke-width=".08" stroke-miterlimit="10"/></g><g><circle cx="3.268" cy="114.979" r="2.235" fill="#b2b2b2"/><path fill="#b2b2b2" d="M.117 112.744h3.15v4.47H.118z"/><path d="M1.36 113.815a2.234 2.234 0 0 1 4.143 1.164 2.235 2.235 0 0 1-4.143 1.164" fill="#b2b2b2"/><path fill="#CCC" d="M2.498 114.21h1.54v1.54h-1.54z"/><path d="M3.268 115.116c-.657-1.253-2.39-2.126-3.15-2.372h3.15c.762 0 1.434.382 1.837.964-.762.246-1.41.75-1.837 1.408z" fill="#999"/><path d="M4.037 115.75h-1.54v-.067c.3-.236.562-.52.77-.84.21.32.47.604.77.84v.066z" fill="#999"/><circle cx="3.268" cy="114.979" r=".363" fill="#cbcbcb" stroke="#999" stroke-width=".08" stroke-miterlimit="10"/></g><g><circle cx="3.268" cy="122.137" r="2.235" fill="#b2b2b2"/><path fill="#b2b2b2" d="M.117 119.902h3.15v4.47H.118z"/><path d="M1.36 120.972a2.234 2.234 0 0 1 4.143 1.165 2.235 2.235 0 0 1-4.143 1.165" fill="#b2b2b2"/><path fill="#CCC" d="M2.498 121.368h1.54v1.54h-1.54z"/><path d="M3.268 122.273c-.657-1.252-2.39-2.125-3.15-2.37h3.15c.762 0 1.434.38 1.837.962-.762.246-1.41.75-1.837 1.408z" fill="#999"/><path d="M4.037 122.907h-1.54v-.067c.3-.235.562-.518.77-.84.21.322.47.605.77.84v.067z" fill="#999"/><circle cx="3.268" cy="122.137" r=".363" fill="#cbcbcb" stroke="#999" stroke-width=".08" stroke-miterlimit="10"/></g><g><circle cx="3.268" cy="129.295" r="2.235" fill="#b2b2b2"/><path fill="#b2b2b2" d="M.117 127.06h3.15v4.47H.118z"/><path d="M1.36 128.13a2.234 2.234 0 0 1 4.143 1.165 2.235 2.235 0 0 1-4.143 1.165" fill="#b2b2b2"/><path fill="#CCC" d="M2.498 128.525h1.54v1.54h-1.54z"/><path d="M3.268 129.43c-.657-1.25-2.39-2.124-3.15-2.37h3.15c.762 0 1.434.38 1.837.963-.762.246-1.41.75-1.837 1.408z" fill="#999"/><path d="M4.037 130.064h-1.54v-.066c.3-.235.562-.52.77-.84.21.32.47.605.77.84v.066z" fill="#999"/><circle cx="3.268" cy="129.295" r=".363" fill="#cbcbcb" stroke="#999" stroke-width=".08" stroke-miterlimit="10"/></g><g><circle cx="3.249" cy="136.453" r="2.235" fill="#b2b2b2"/><path fill="#b2b2b2" d="M.098 134.218h3.15v4.47H.1z"/><path d="M1.34 135.288a2.234 2.234 0 0 1 4.143 1.165 2.235 2.235 0 0 1-4.142 1.164" fill="#b2b2b2"/><path fill="#CCC" d="M2.48 135.683h1.538v1.54h-1.54z"/><path d="M3.248 136.59c-.656-1.253-2.388-2.126-3.15-2.372h3.15c.76 0 1.435.38 1.838.963-.762.247-1.41.75-1.838 1.41z" fill="#999"/><path d="M4.018 137.222h-1.54v-.066c.3-.235.562-.52.77-.84.21.32.47.605.77.84v.066z" fill="#999"/><circle cx="3.249" cy="136.453" r=".363" fill="#cbcbcb" stroke="#999" stroke-width=".08" stroke-miterlimit="10"/></g></g><g fill="#00a9f3"><path d="M52.2 18.898a.805.805 0 0 0 .395.112c.31 0 .404-.197.402-.345-.003-.25-.227-.355-.46-.355h-.134v-.18h.134c.175 0 .397-.09.397-.302 0-.142-.09-.268-.312-.268a.653.653 0 0 0-.356.118l-.062-.175a.845.845 0 0 1 .465-.137c.35 0 .507.208.507.424 0 .183-.11.34-.328.42v.004c.218.044.396.208.396.457 0 .285-.222.534-.65.534a.904.904 0 0 1-.46-.12l.065-.186zM54.036 19.174l-.602-1.843h.257l.29.91c.078.248.146.472.196.688h.005c.053-.213.13-.446.212-.687l.31-.91h.256l-.66 1.844h-.262zM55.13 18.898a.805.805 0 0 0 .394.112c.31 0 .405-.197.402-.345-.003-.25-.227-.355-.46-.355h-.133v-.18h.134c.175 0 .396-.09.396-.302 0-.142-.09-.268-.312-.268a.653.653 0 0 0-.354.118l-.063-.175a.845.845 0 0 1 .465-.137c.35 0 .51.208.51.424 0 .183-.11.34-.33.42v.004c.22.044.397.208.397.457 0 .285-.222.534-.648.534a.904.904 0 0 1-.462-.12l.065-.186z"/></g><g fill="#00a9f3"><path d="M36.637 21.73c.11-.018.243-.03.388-.03.262 0 .448.06.572.175.126.116.2.28.2.508 0 .23-.072.42-.204.55-.132.13-.35.202-.625.202-.13 0-.24-.006-.33-.016v-1.39zm.182 1.248c.045.01.112.01.184.01.39 0 .6-.217.6-.6.003-.332-.185-.544-.57-.544-.095 0-.167.008-.215.02v1.114zM38.566 22.007v.493h.474v.126h-.474v.497h-.134v-.497h-.474V22.5h.474v-.493h.134z"/></g><g fill="#00a9f3"><path d="M44.432 21.73c.11-.018.243-.03.388-.03.262 0 .448.06.572.175.126.116.2.28.2.508 0 .23-.072.42-.204.55-.132.13-.35.202-.625.202-.13 0-.24-.006-.33-.016v-1.39zm.182 1.248c.046.01.114.01.185.01.39 0 .6-.217.6-.6.003-.332-.186-.544-.572-.544-.094 0-.165.008-.214.02v1.114zM46.28 22.488v.136h-.518v-.136h.517z"/></g><g fill="#00a9f3"><path d="M52.38 24.534a2.48 2.48 0 0 1 .458-.038c.254 0 .42.046.533.15a.46.46 0 0 1 .146.35.484.484 0 0 1-.347.47v.01c.14.048.226.18.27.37.06.258.104.436.142.507h-.246c-.03-.052-.07-.21-.123-.44-.055-.255-.153-.35-.37-.36h-.224v.8h-.24v-1.82zm.24.84h.243c.254 0 .415-.14.415-.35 0-.238-.172-.342-.424-.345a.98.98 0 0 0-.235.02v.674zM53.82 26.063c.107.066.263.12.427.12.243 0 .385-.128.385-.314 0-.174-.098-.272-.347-.368-.3-.106-.487-.262-.487-.522 0-.287.238-.5.596-.5.19 0 .326.043.408.09l-.066.194a.734.734 0 0 0-.35-.088c-.25 0-.347.15-.347.276 0 .173.11.258.365.356.312.12.47.27.47.542 0 .284-.21.53-.645.53a.953.953 0 0 1-.47-.117l.06-.2zM55.55 24.712h-.56v-.203h1.365v.202h-.563v1.64h-.24v-1.64z"/></g><g fill="#00a9f3"><path d="M51.134 33.53l-.602-1.842h.257l.287.908c.08.25.147.473.196.69h.006c.05-.214.128-.446.21-.687l.31-.912h.256l-.66 1.843h-.262zM52.256 31.713c.103-.022.268-.04.434-.04.238 0 .39.042.506.135.096.072.154.18.154.326 0 .178-.118.334-.312.405v.004c.175.044.38.19.38.462 0 .16-.063.28-.156.37-.13.117-.336.172-.637.172-.164 0-.29-.01-.37-.022v-1.813zm.237.755h.217c.25 0 .4-.132.4-.31 0-.215-.165-.3-.406-.3-.11 0-.172.008-.21.016v.594zm0 .883c.047.01.115.012.2.012.246 0 .473-.09.473-.358 0-.252-.216-.356-.476-.356h-.197v.703zM54.036 32.952l-.19.58h-.247l.625-1.844h.287l.63 1.843h-.255l-.197-.578h-.654zm.604-.186l-.18-.53c-.04-.12-.068-.23-.096-.337h-.005a5.54 5.54 0 0 1-.094.332l-.18.534h.554zM55.55 31.89h-.56v-.202h1.365v.203h-.563v1.64h-.24v-1.64z"/></g><g fill="#00a9f3"><path d="M52.575 40.628c-.106.038-.317.1-.566.1-.28 0-.51-.07-.69-.242-.16-.153-.257-.4-.257-.687.003-.55.38-.952.998-.952.215 0 .38.046.46.085l-.057.194a.956.956 0 0 0-.407-.08c-.45 0-.74.28-.74.742 0 .466.28.742.71.742a.776.776 0 0 0 .317-.05v-.55h-.375v-.19h.607v.886zM52.94 40.71v-1.843h.26l.59.932c.137.216.243.41.33.598l.006-.002a8.183 8.183 0 0 1-.027-.758v-.77h.223v1.842h-.24l-.586-.935a5.86 5.86 0 0 1-.344-.615l-.008.002c.013.233.02.454.02.76v.788h-.226zM54.74 38.89c.144-.02.316-.037.505-.037.342 0 .585.08.747.23.164.15.26.364.26.662 0 .3-.093.547-.266.716-.172.174-.457.267-.815.267a3.84 3.84 0 0 1-.43-.022V38.89zm.237 1.63c.06.012.148.015.24.015.51 0 .786-.284.786-.782.002-.435-.244-.71-.747-.71-.123 0-.216.01-.28.023v1.455z"/></g><g fill="#00a9f3"><path d="M53.336 53.25c.145-.023.317-.04.506-.04.342 0 .585.08.747.23.163.15.258.364.258.662 0 .3-.093.547-.265.717-.172.17-.457.264-.815.264a3.84 3.84 0 0 1-.432-.022V53.25zm.238 1.63c.06.01.148.013.24.013.51 0 .785-.285.785-.783.002-.434-.244-.71-.747-.71-.123 0-.216.01-.28.024v1.455zM56.087 53.46a.87.87 0 0 0-.18.01.722.722 0 0 0-.618.632h.007a.53.53 0 0 1 .43-.205c.314 0 .535.227.535.574 0 .327-.22.628-.59.628-.38 0-.63-.296-.63-.758 0-.35.127-.626.302-.8a.968.968 0 0 1 .568-.264c.072-.01.132-.013.175-.013v.196zm-.068 1.025c0-.254-.146-.407-.367-.407-.145 0-.28.09-.345.218a.205.205 0 0 0-.027.107c.006.293.14.51.392.51.208 0 .347-.174.347-.428z"/></g><g fill="#00a9f3"><path d="M53.336 60.428c.145-.022.317-.04.506-.04.342 0 .585.08.747.23.163.15.258.365.258.663 0 .302-.093.548-.265.717-.172.173-.457.266-.815.266a3.84 3.84 0 0 1-.432-.022V60.43zm.238 1.63c.06.01.148.013.24.013.51 0 .785-.283.785-.78.002-.436-.244-.712-.747-.712-.123 0-.216.01-.28.025v1.455zM56.134 60.67h-.678l-.07.458c.042-.006.08-.01.146-.01.137 0 .274.03.383.095.14.08.255.232.255.456 0 .347-.277.606-.662.606a.87.87 0 0 1-.443-.11l.06-.182c.074.044.22.098.38.098.227 0 .42-.147.42-.385-.002-.23-.155-.394-.51-.394-.102 0-.18.01-.246.02l.113-.854h.85v.2z"/></g><g fill="#00a9f3"><path d="M53.336 67.606c.145-.022.317-.038.506-.038.342 0 .585.08.747.23.163.15.258.364.258.662 0 .3-.093.547-.265.716-.172.172-.457.265-.815.265-.17 0-.312-.007-.432-.02v-1.814zm.238 1.63c.06.01.148.014.24.014.51 0 .785-.284.785-.782.002-.435-.244-.71-.747-.71-.123 0-.216.01-.28.023v1.456zM55.817 69.425v-.484h-.826v-.158l.794-1.135h.26v1.105h.25v.19h-.25v.483h-.227zm0-.673v-.593c0-.094.002-.187.008-.28h-.008a5.03 5.03 0 0 1-.148.262l-.436.605v.005h.583z"/></g><g fill="#00a9f3"><path d="M53.336 74.785c.145-.022.317-.038.506-.038.342 0 .585.08.747.23.163.15.258.363.258.66 0 .302-.093.548-.265.718-.172.172-.457.265-.815.265a3.84 3.84 0 0 1-.432-.022v-1.813zm.238 1.63c.06.01.148.014.24.014.51 0 .785-.286.785-.783.002-.435-.244-.712-.747-.712-.123 0-.216.01-.28.025v1.455zM55.13 76.328a.804.804 0 0 0 .394.112c.31 0 .405-.197.402-.345-.003-.25-.227-.356-.46-.356h-.133v-.18h.134c.175 0 .396-.09.396-.302 0-.142-.09-.268-.312-.268a.653.653 0 0 0-.354.118l-.063-.175a.845.845 0 0 1 .465-.137c.35 0 .51.208.51.424 0 .183-.11.34-.33.418v.006c.22.044.397.208.397.457 0 .285-.222.534-.648.534a.904.904 0 0 1-.462-.12l.065-.186z"/></g><g fill="#00a9f3"><path d="M53.336 81.964c.145-.022.317-.04.506-.04.342 0 .585.08.747.23.163.152.258.365.258.663 0 .3-.093.547-.265.717-.172.172-.457.265-.815.265a3.84 3.84 0 0 1-.432-.023v-1.813zm.238 1.63c.06.01.148.013.24.013.51 0 .785-.284.785-.782.002-.435-.244-.71-.747-.71-.123 0-.216.01-.28.024v1.454zM55.073 83.782v-.147l.188-.183c.456-.433.66-.662.663-.93 0-.18-.087-.348-.352-.348a.605.605 0 0 0-.377.15l-.076-.17a.78.78 0 0 1 .503-.18c.383 0 .544.263.544.518 0 .328-.238.593-.613.954l-.14.13v.007h.798v.2h-1.135z"/></g><g fill="#00a9f3"><path d="M53.336 89.142c.145-.02.317-.038.506-.038.342 0 .585.08.747.23.163.15.258.364.258.662 0 .3-.093.547-.265.716-.172.173-.457.266-.815.266a3.84 3.84 0 0 1-.432-.022v-1.814zm.238 1.63c.06.01.148.014.24.014.51 0 .785-.284.785-.782.002-.435-.244-.71-.747-.71-.123 0-.216.01-.28.023v1.455zM55.595 89.408h-.005l-.31.167-.046-.184.388-.206h.206v1.777h-.233V89.41z"/></g><g fill="#00a9f3"><path d="M53.336 96.32c.145-.02.317-.037.506-.037.342 0 .585.08.747.23.163.15.258.363.258.66 0 .302-.093.548-.265.718-.172.173-.457.266-.815.266a3.84 3.84 0 0 1-.432-.022V96.32zm.238 1.63c.06.012.148.015.24.015.51 0 .785-.285.785-.782.002-.435-.244-.71-.747-.71-.123 0-.216.01-.28.023v1.455zM56.254 97.232c0 .604-.224.938-.618.938-.347 0-.582-.325-.588-.914 0-.596.257-.924.618-.924.375 0 .588.334.588.9zm-.965.027c0 .46.14.724.36.724.246 0 .364-.287.364-.74 0-.44-.112-.726-.36-.726-.212 0-.365.257-.365.74z"/></g><g fill="#00a9f3"><path d="M54.86 105.258a1.18 1.18 0 0 1-.487.088c-.52 0-.91-.328-.91-.933 0-.577.39-.968.96-.968.23 0 .376.05.44.082l-.058.194a.867.867 0 0 0-.372-.075c-.432 0-.72.276-.72.76 0 .45.26.74.71.74.144 0 .29-.03.387-.075l.05.188zM56.134 103.743h-.678l-.07.457c.042-.005.08-.01.146-.01a.75.75 0 0 1 .383.095c.14.08.255.232.255.457 0 .347-.277.607-.662.607a.87.87 0 0 1-.443-.11l.06-.184c.074.044.22.1.38.1.227 0 .42-.15.42-.387-.002-.23-.155-.395-.51-.395-.102 0-.18.01-.246.02l.113-.854h.85v.203z"/></g><g fill="#00a9f3"><path d="M54.86 112.437a1.18 1.18 0 0 1-.487.088c-.52 0-.91-.328-.91-.933 0-.577.39-.968.96-.968.23 0 .376.05.44.082l-.058.194a.868.868 0 0 0-.372-.076c-.432 0-.72.276-.72.76 0 .45.26.74.71.74.144 0 .29-.03.387-.076l.05.19zM55.817 112.497v-.484h-.826v-.158l.794-1.135h.26v1.105h.25v.188h-.25v.484h-.227zm0-.672v-.594c0-.092.002-.185.008-.278h-.008c-.055.104-.1.18-.148.263l-.436.604v.005h.583z"/></g><g fill="#00a9f3"><path d="M54.86 119.616a1.18 1.18 0 0 1-.487.087c-.52 0-.91-.328-.91-.932 0-.576.39-.967.96-.967.23 0 .376.05.44.082l-.058.194a.866.866 0 0 0-.372-.078c-.432 0-.72.277-.72.76 0 .452.26.742.71.742.144 0 .29-.03.387-.077l.05.19zM55.13 119.4a.804.804 0 0 0 .394.112c.31 0 .405-.197.402-.345-.003-.25-.227-.355-.46-.355h-.133v-.18h.134c.175 0 .396-.09.396-.302 0-.142-.09-.268-.312-.268a.653.653 0 0 0-.354.118l-.063-.175a.844.844 0 0 1 .465-.137c.35 0 .51.208.51.424 0 .183-.11.34-.33.42v.004c.22.044.397.208.397.457 0 .284-.222.533-.648.533a.904.904 0 0 1-.462-.12l.065-.186z"/></g><g fill="#00a9f3"><path d="M54.86 126.795a1.18 1.18 0 0 1-.487.087c-.52 0-.91-.328-.91-.933 0-.578.39-.97.96-.97.23 0 .376.05.44.083l-.058.195a.868.868 0 0 0-.372-.077c-.432 0-.72.277-.72.76 0 .453.26.742.71.742.144 0 .29-.03.387-.076l.05.19zM55.073 126.855v-.148l.188-.183c.456-.432.66-.662.663-.93 0-.18-.087-.347-.352-.347a.605.605 0 0 0-.377.15l-.076-.17a.78.78 0 0 1 .503-.18c.383 0 .544.263.544.517 0 .328-.238.593-.613.954l-.14.132v.005h.798v.2h-1.135z"/></g><g fill="#00a9f3"><path d="M54.86 133.973a1.18 1.18 0 0 1-.487.088c-.52 0-.91-.327-.91-.932 0-.577.39-.968.96-.968.23 0 .376.05.44.082l-.058.194a.866.866 0 0 0-.372-.076c-.432 0-.72.276-.72.76 0 .45.26.74.71.74.144 0 .29-.03.387-.075l.05.188zM55.595 132.48h-.005l-.31.167-.046-.183.388-.208h.206v1.777h-.233v-1.553z"/></g><g fill="#00a9f3"><path d="M54.86 141.152a1.18 1.18 0 0 1-.487.088c-.52 0-.91-.33-.91-.933 0-.577.39-.968.96-.968.23 0 .376.048.44.08l-.058.195a.868.868 0 0 0-.372-.077c-.432 0-.72.277-.72.76 0 .452.26.742.71.742.144 0 .29-.03.387-.077l.05.19zM56.254 140.304c0 .605-.224.938-.618.938-.347 0-.582-.325-.588-.913 0-.597.257-.926.618-.926.375 0 .588.334.588.9zm-.965.028c0 .462.14.724.36.724.246 0 .364-.287.364-.74 0-.44-.112-.726-.36-.726-.212 0-.365.257-.365.742z"/></g><g fill="#00a9f3"><path d="M1.553 19.174L.95 17.33h.258l.287.91c.08.248.148.472.197.688h.006c.052-.213.128-.446.21-.687l.312-.91h.255l-.66 1.844h-.262zM2.912 17.33v1.844h-.238V17.33h.238zM3.328 19.174V17.33h.26l.59.933c.137.216.244.41.332.6l.005-.003a8.18 8.18 0 0 1-.027-.758v-.77h.224v1.842h-.24l-.586-.935a5.862 5.862 0 0 1-.345-.617l-.007.003c.014.233.02.454.02.76v.788h-.225z"/></g><g fill="#00a9f3"><path d="M2.55 26.27c-.106.04-.316.102-.565.102-.28 0-.51-.07-.69-.243-.158-.155-.256-.4-.256-.688 0-.55.38-.952.997-.952.213 0 .38.047.46.085l-.058.194a.955.955 0 0 0-.41-.08c-.447 0-.74.28-.74.74 0 .47.282.745.71.745a.777.777 0 0 0 .32-.05v-.55h-.376v-.19h.607v.886zM2.915 26.353V24.51h.26l.59.932c.137.216.244.41.332.6l.005-.004a8.18 8.18 0 0 1-.027-.757v-.77H4.3v1.843h-.242l-.585-.936a5.862 5.862 0 0 1-.345-.615l-.008.003c.014.232.02.454.02.76v.788h-.225zM4.715 24.534a3.41 3.41 0 0 1 .506-.038c.343 0 .586.08.747.23.164.15.26.363.26.66 0 .302-.093.548-.265.718-.172.172-.457.265-.815.265-.17 0-.312-.01-.432-.023v-1.813zm.238 1.63c.06.01.147.014.24.014.51 0 .785-.285.785-.782.003-.435-.243-.712-.746-.712-.123 0-.216.01-.28.025v1.454z"/></g><g fill="#00a9f3"><path d="M1.498 31.89h-.56v-.202h1.364v.203H1.74v1.64h-.242v-1.64zM3.577 33.53l-.235-.406a7.182 7.182 0 0 1-.214-.364h-.005a4.694 4.694 0 0 1-.2.367l-.22.404h-.275l.564-.93-.542-.912h.276l.244.432c.068.12.12.214.17.312h.007c.052-.11.1-.194.167-.312l.252-.432h.273l-.56.897.573.946h-.276z"/></g><g fill="#00a9f3"><path d="M1.148 38.89a2.48 2.48 0 0 1 .457-.037c.254 0 .418.047.533.15a.46.46 0 0 1 .145.35.484.484 0 0 1-.347.47v.01c.142.05.227.18.27.37.06.258.104.436.143.507h-.247c-.03-.052-.072-.21-.123-.44-.055-.254-.154-.35-.37-.358h-.224v.798h-.238v-1.82zm.238.84h.243c.254 0 .415-.138.415-.35 0-.237-.172-.34-.424-.344a.98.98 0 0 0-.234.022v.673zM3.642 40.71l-.235-.407a7.24 7.24 0 0 1-.213-.364h-.006a4.64 4.64 0 0 1-.2.365l-.22.405h-.274l.563-.932-.54-.91h.275l.243.43c.07.12.12.214.17.313h.008a3.92 3.92 0 0 1 .167-.31l.252-.433h.273l-.56.897.574.946H3.64z"/></g><g fill="#00a9f3"><path d="M1.45 47.89l-.47-1.844h.253l.22.932c.053.23.103.46.135.637h.006c.03-.183.087-.402.15-.64l.246-.93h.25l.224.936c.052.22.1.438.128.633h.006c.038-.203.09-.408.147-.638l.244-.93h.242L2.71 47.89h-.25l-.232-.96a5.546 5.546 0 0 1-.12-.603h-.005a5.753 5.753 0 0 1-.143.602l-.262.96h-.25zM3.462 46.046H3.7v.888h.008c.05-.07.1-.136.145-.196l.564-.692h.295l-.667.782.72 1.06H4.48l-.607-.904-.175.202v.703h-.238v-1.844zM4.945 46.067c.114-.02.265-.035.456-.035.237 0 .41.055.518.153.1.088.162.222.162.386 0 .168-.05.3-.143.395-.125.133-.33.202-.563.202a.82.82 0 0 1-.19-.017v.74h-.24v-1.823zm.238.89c.05.013.117.018.196.018.287 0 .462-.14.462-.393 0-.244-.173-.36-.435-.36a1 1 0 0 0-.224.018v.716z"/></g><g fill="#00a9f3"><path d="M1.148 53.25c.145-.023.317-.04.506-.04.342 0 .585.08.747.23.165.15.26.364.26.662 0 .3-.092.547-.265.717-.172.17-.456.264-.815.264-.17 0-.312-.008-.432-.022V53.25zm.238 1.63c.06.01.148.013.24.013.51 0 .786-.285.786-.783.002-.434-.244-.71-.747-.71-.123 0-.216.01-.28.024v1.455zM3.23 54.488l-.192.58h-.246l.626-1.844h.287l.63 1.844H4.08l-.197-.58H3.23zm.604-.186l-.18-.53c-.042-.12-.07-.23-.096-.337h-.006c-.027.11-.057.22-.093.334l-.18.532h.554zM5.853 55.007a1.18 1.18 0 0 1-.487.088c-.52 0-.91-.328-.91-.933 0-.577.39-.968.962-.968.23 0 .374.05.437.082l-.057.194a.866.866 0 0 0-.372-.076c-.432 0-.72.276-.72.76 0 .45.26.74.71.74.144 0 .292-.03.387-.075l.05.187z"/></g><g fill="#00a9f3"><path d="M1.446 61.667l-.19.58h-.247l.625-1.844h.287l.63 1.843h-.255l-.197-.58h-.654zm.605-.186l-.18-.53c-.04-.12-.068-.23-.096-.336H1.77c-.028.11-.06.22-.094.333l-.18.534h.555zM3.798 60.67H3.12l-.068.458c.04-.006.08-.01.145-.01.136 0 .273.03.383.095.14.08.254.232.254.456 0 .347-.276.606-.662.606a.87.87 0 0 1-.443-.11l.06-.182c.073.044.218.098.38.098.226 0 .42-.147.42-.385-.002-.23-.155-.394-.51-.394-.102 0-.18.01-.247.02l.115-.854h.85v.2z"/></g><g fill="#00a9f3"><path d="M11.587 59.583c-.018-.333-.04-.733-.036-1.03h-.01c-.08.28-.18.577-.3.906l-.422 1.157h-.233L10.2 59.48c-.114-.336-.21-.644-.277-.927h-.007c-.007.297-.025.697-.046 1.055l-.064 1.023h-.294l.166-2.385h.393l.41 1.154c.098.293.18.555.24.803h.01c.06-.24.145-.503.25-.804l.426-1.155h.393l.148 2.386h-.3l-.06-1.047zM14.46 59.413c0 .82-.498 1.257-1.107 1.257-.63 0-1.073-.49-1.073-1.21 0-.76.47-1.254 1.108-1.254.652 0 1.073.5 1.073 1.207zm-1.85.04c0 .51.275.965.76.965.49 0 .765-.45.765-.99 0-.475-.248-.97-.76-.97-.51 0-.766.47-.766.994zM14.86 58.277c.188-.03.41-.05.655-.05.443 0 .758.103.967.297.212.195.336.47.336.857 0 .39-.12.71-.343.93-.223.222-.59.342-1.055.342-.22 0-.404-.01-.56-.028v-2.347zm.31 2.11c.076.014.19.017.31.017.66 0 1.016-.368 1.016-1.012.004-.563-.315-.92-.966-.92-.16 0-.28.014-.36.03v1.885zM18.453 59.512h-.927v.86h1.034v.26h-1.342v-2.387h1.288v.258h-.98v.754h.927v.255z"/></g><g fill="#00a9f3"><path d="M39.202 58.277c.156-.032.38-.05.59-.05.33 0 .543.06.692.195.12.106.187.27.187.453 0 .315-.197.524-.448.61v.01c.184.063.293.233.35.48.078.334.135.564.184.656h-.318c-.04-.066-.092-.272-.16-.57-.07-.328-.198-.452-.478-.463h-.29v1.034h-.308v-2.353zm.308 1.086h.315c.33 0 .538-.18.538-.453 0-.308-.223-.442-.548-.446-.15 0-.255.014-.305.03v.87zM42.342 59.512h-.928v.86h1.034v.26h-1.342v-2.387h1.29v.258h-.982v.754h.928v.255zM42.805 60.256c.138.085.34.155.553.155.315 0 .5-.165.5-.406 0-.223-.13-.35-.45-.474-.39-.138-.63-.34-.63-.676 0-.372.307-.648.77-.648.245 0 .422.056.528.117l-.085.25a.95.95 0 0 0-.452-.112c-.326 0-.45.195-.45.358 0 .223.146.333.475.46.403.156.61.35.61.7 0 .37-.274.688-.837.688-.23 0-.48-.067-.61-.152l.08-.258zM45.828 59.512H44.9v.86h1.035v.26h-1.342v-2.387h1.288v.258h-.98v.754h.928v.255zM46.844 58.507h-.726v-.262h1.767v.262h-.73v2.124h-.31v-2.123z"/></g><g fill="#00a9f3"><path d="M1.446 68.845l-.19.58h-.247l.625-1.843h.287l.63 1.843h-.255l-.197-.58h-.654zm.605-.186l-.18-.53c-.04-.122-.068-.23-.096-.338H1.77c-.028.11-.06.222-.094.334l-.18.533h.555zM3.48 69.425v-.484h-.825v-.158l.793-1.135h.26v1.105h.25v.19h-.25v.483H3.48zm0-.673v-.593c0-.094.004-.187.01-.28h-.01c-.054.104-.097.18-.147.262l-.434.605v.005h.58z"/></g><g fill="#00a9f3"><path d="M1.446 76.024l-.19.58h-.247l.625-1.844h.287l.63 1.844h-.255l-.197-.58h-.654zm.605-.186l-.18-.53c-.04-.12-.068-.23-.096-.337H1.77c-.028.11-.06.223-.094.335l-.18.533h.555zM2.795 76.328a.805.805 0 0 0 .394.112c.308 0 .403-.197.4-.345-.002-.25-.226-.356-.46-.356h-.133v-.18h.134c.176 0 .398-.09.398-.302 0-.142-.09-.268-.312-.268a.653.653 0 0 0-.356.118l-.063-.175a.845.845 0 0 1 .465-.137c.35 0 .51.208.51.424 0 .183-.11.34-.33.418v.006c.22.044.397.208.397.457 0 .285-.222.534-.65.534a.904.904 0 0 1-.46-.12l.065-.186z"/></g><g fill="#00a9f3"><path d="M1.446 83.203l-.19.58h-.247l.625-1.844h.287l.63 1.842h-.255l-.197-.58h-.654zm.605-.186l-.18-.53c-.04-.12-.068-.23-.096-.337H1.77c-.028.11-.06.22-.094.333l-.18.534h.555zM2.737 83.782v-.147l.19-.183c.453-.433.658-.662.66-.93 0-.18-.087-.348-.352-.348a.605.605 0 0 0-.377.15l-.077-.17a.78.78 0 0 1 .504-.18c.383 0 .544.263.544.518 0 .328-.237.593-.612.954l-.142.13v.007h.798v.2H2.737z"/></g><g fill="#00a9f3"><path d="M1.446 90.38l-.19.58h-.247l.625-1.842h.287l.63 1.843h-.255l-.197-.58h-.654zm.605-.185l-.18-.53c-.04-.12-.068-.23-.096-.337H1.77c-.028.11-.06.222-.094.334l-.18.533h.555zM3.26 89.408h-.006l-.31.167-.045-.184.387-.206h.205v1.777H3.26V89.41z"/></g><g fill="#00a9f3"><path d="M1.446 97.56l-.19.58h-.247l.625-1.843h.287l.63 1.843h-.255l-.197-.58h-.654zm.605-.186l-.18-.53c-.04-.12-.068-.23-.096-.337H1.77c-.028.11-.06.222-.094.334l-.18.534h.555zM3.92 97.232c0 .604-.225.938-.62.938-.347 0-.582-.325-.587-.914 0-.596.257-.924.618-.924.375 0 .59.334.59.9zm-.967.027c0 .46.143.724.36.724.248 0 .365-.287.365-.74 0-.44-.112-.726-.36-.726-.21 0-.365.257-.365.74z"/></g><g fill="#00a9f3"><path d="M1.148 103.5a2.31 2.31 0 0 1 .435-.038c.238 0 .39.04.506.134.095.07.152.18.152.325 0 .18-.118.335-.312.406v.005c.175.045.38.19.38.464 0 .158-.062.278-.155.37-.13.116-.337.17-.638.17-.164 0-.29-.01-.37-.02V103.5zm.238.755h.216c.252 0 .4-.132.4-.31 0-.215-.165-.3-.405-.3-.11 0-.173.008-.21.016v.595zm0 .883c.047.008.115.01.2.01.246 0 .473-.09.473-.357 0-.25-.217-.355-.477-.355h-.197v.703zM3.607 103.743H2.93l-.07.457c.04-.005.08-.01.145-.01a.75.75 0 0 1 .383.095c.14.08.255.232.255.457 0 .347-.277.607-.662.607a.87.87 0 0 1-.442-.11l.06-.184c.074.044.22.1.38.1.227 0 .42-.15.42-.387-.002-.23-.155-.395-.51-.395-.102 0-.18.01-.246.02l.114-.854h.85v.203z"/></g><g fill="#00a9f3"><path d="M1.148 110.68a2.31 2.31 0 0 1 .435-.04c.238 0 .39.04.506.134.095.07.152.18.152.326 0 .178-.118.333-.312.405v.005c.175.044.38.19.38.462 0 .16-.062.28-.155.37-.13.117-.337.172-.638.172a2.8 2.8 0 0 1-.37-.022v-1.813zm.238.753h.216c.252 0 .4-.13.4-.31 0-.215-.165-.3-.405-.3-.11 0-.173.01-.21.017v.593zm0 .884c.047.008.115.01.2.01.246 0 .473-.09.473-.358 0-.252-.217-.356-.477-.356h-.197v.703zM3.29 112.497v-.484h-.826v-.158l.793-1.135h.26v1.105h.25v.188h-.25v.484H3.29zm0-.672v-.594c0-.092.002-.185.008-.278H3.29a5.01 5.01 0 0 1-.148.263l-.435.604v.005h.583z"/></g><g fill="#00a9f3"><path d="M1.148 117.857c.104-.022.268-.038.435-.038.238 0 .39.04.506.133.095.07.152.18.152.326 0 .176-.118.332-.312.403v.006c.175.043.38.187.38.46 0 .16-.062.28-.155.37-.13.118-.337.172-.638.172-.164 0-.29-.01-.37-.02v-1.815zm.238.755h.216c.252 0 .4-.13.4-.31 0-.215-.165-.3-.405-.3-.11 0-.173.008-.21.017v.592zm0 .884c.047.008.115.01.2.01.246 0 .473-.09.473-.358 0-.25-.217-.355-.477-.355h-.197v.703zM2.603 119.4a.804.804 0 0 0 .394.112c.31 0 .405-.197.402-.345-.004-.25-.228-.355-.46-.355h-.134v-.18h.134c.175 0 .396-.09.396-.302 0-.142-.09-.268-.312-.268a.653.653 0 0 0-.355.118l-.064-.175a.844.844 0 0 1 .465-.137c.35 0 .51.208.51.424 0 .183-.11.34-.33.42v.004c.22.044.398.208.398.457 0 .284-.222.533-.648.533a.904.904 0 0 1-.462-.12l.065-.186z"/></g><g fill="#00a9f3"><path d="M1.148 125.036a2.31 2.31 0 0 1 .435-.038c.238 0 .39.04.506.134.095.07.152.18.152.325 0 .178-.118.334-.312.405v.005c.175.044.38.19.38.463 0 .158-.062.28-.155.37-.13.116-.337.17-.638.17a2.8 2.8 0 0 1-.37-.02v-1.814zm.238.755h.216c.252 0 .4-.13.4-.308 0-.216-.165-.3-.405-.3-.11 0-.173.007-.21.015v.594zm0 .884c.047.008.115.01.2.01.246 0 .473-.09.473-.357 0-.252-.217-.356-.477-.356h-.197v.704zM2.546 126.855v-.148l.19-.183c.453-.432.658-.662.66-.93 0-.18-.087-.347-.352-.347a.605.605 0 0 0-.378.15l-.076-.17a.78.78 0 0 1 .503-.18c.383 0 .544.263.544.517 0 .328-.238.593-.613.954l-.142.132v.005h.8v.2H2.545z"/></g><g fill="#00a9f3"><path d="M1.148 132.215a2.3 2.3 0 0 1 .435-.04c.238 0 .39.042.506.135.095.072.152.18.152.326 0 .178-.118.334-.312.405v.006c.175.044.38.19.38.462 0 .16-.062.28-.155.37-.13.117-.337.172-.638.172-.164 0-.29-.01-.37-.022v-1.813zm.238.755h.216c.252 0 .4-.132.4-.31 0-.216-.165-.3-.405-.3-.11 0-.173.008-.21.016v.594zm0 .883c.047.008.115.01.2.01.246 0 .473-.09.473-.357 0-.252-.217-.356-.477-.356h-.197v.703zM3.068 132.48h-.005l-.31.167-.046-.183.39-.208H3.3v1.777H3.07v-1.553z"/></g><g fill="#00a9f3"><path d="M1.148 139.393a2.31 2.31 0 0 1 .435-.038c.238 0 .39.04.506.134.095.07.152.18.152.325 0 .177-.118.333-.312.404v.005c.175.044.38.19.38.462 0 .16-.062.28-.155.37-.13.117-.337.172-.638.172-.164 0-.29-.012-.37-.023v-1.814zm.238.755h.216c.252 0 .4-.13.4-.31 0-.215-.165-.3-.405-.3-.11 0-.173.01-.21.017v.593zm0 .884c.047.008.115.01.2.01.246 0 .473-.09.473-.358 0-.25-.217-.355-.477-.355h-.197v.702zM3.727 140.304c0 .605-.224.938-.618.938-.348 0-.583-.325-.59-.913 0-.597.258-.926.62-.926.374 0 .587.334.587.9zm-.965.028c0 .462.142.724.36.724.247 0 .365-.287.365-.74 0-.44-.113-.726-.36-.726-.212 0-.365.257-.365.742z"/></g><g fill="#404040"><path d="M50.048 42.064c.022.145.04.317.04.506 0 .34-.08.585-.23.746-.152.164-.365.26-.663.26-.3 0-.547-.093-.717-.265-.172-.172-.265-.456-.265-.814 0-.17.008-.312.022-.432h1.813zm-1.63.238c-.01.06-.013.147-.013.24 0 .51.284.785.782.785.435.003.71-.243.71-.746 0-.123-.01-.216-.024-.278h-1.455zM50.007 44.955h-.158l-1.62-.774v-.248l1.572.77h.006v-.87h.2v1.123z"/></g><text transform="translate(51.67 11.37)" fill="#404040" font-family="Gotham-Medium" font-size="1.886">VUSB</text><circle cx="54.344" cy="7.08" r="1.834" fill="#f2f2f2"/><g><path d="M54.344 5.698a1.383 1.383 0 0 1 0 2.763c-.762 0-1.382-.62-1.382-1.38s.62-1.382 1.382-1.382m0-.69a2.073 2.073 0 1 0 0 4.145 2.073 2.073 0 0 0 0-4.146z" fill="#fbae17"/></g><path d="M.002 4.45h5.38c.697 0 1.267.57 1.267 1.268v4.333a1.27 1.27 0 0 1-1.267 1.267H.003V4.45z" fill="#00a9f3"/><circle cx="3.216" cy="7.08" r="1.834" fill="#f2f2f2"/><g><path d="M3.216 5.698a1.383 1.383 0 0 1 0 2.763c-.76 0-1.38-.62-1.38-1.38s.62-1.382 1.38-1.382m0-.69a2.073 2.073 0 1 0 0 4.145 2.073 2.073 0 0 0 0-4.146z" fill="#fbae17"/></g><g><g fill="#404040"><path d="M1.606 9.637h.21v1.45h.695v.176h-.904V9.637zM2.975 9.767c.002.073-.05.13-.135.13a.126.126 0 0 1-.128-.13.13.13 0 0 1 .132-.133c.08 0 .13.058.13.133zm-.237 1.496v-1.168h.213v1.168H2.74zM4.058 9.98v.567h.546v.144h-.546v.573h-.154v-.572h-.546v-.143h.546V9.98h.154z"/></g></g><g><path d="M43.042 19.56a.9.9 0 0 1 0 1.797.9.9 0 0 1 0-1.798m0-.45a1.35 1.35 0 1 0 0 2.697 1.35 1.35 0 0 0 0-2.698z" fill="#fbae17"/></g><g><path d="M39.523 19.56a.9.9 0 0 1 0 1.797.9.9 0 0 1 0-1.798m0-.45a1.35 1.35 0 1 0 0 2.697 1.35 1.35 0 0 0 0-2.698z" fill="#fbae17"/></g><path fill="#F03" d="M24.145 31.427H26.1v3.097h-1.955z"/></svg>