<?xml version="1.0" encoding="UTF-8" standalone="no"?>
<!DOCTYPE svg PUBLIC "-//W3C//DTD SVG 1.1//EN" "http://www.w3.org/Graphics/SVG/1.1/DTD/svg11.dtd">
<svg width="104" height="818" viewBox="0 0 104 818" version="1.1" xmlns="http://www.w3.org/2000/svg" xmlns:xlink="http://www.w3.org/1999/xlink" xml:space="preserve" xmlns:serif="http://www.serif.com/" style="fill-rule:evenodd;clip-rule:evenodd;stroke-linejoin:round;stroke-miterlimit:2;">
    <g id="Artboard1" transform="matrix(1,0,0,1,-588.324,-149.81)">
        <rect x="588.324" y="149.81" width="103.856" height="817.716" style="fill:none;"/>
        <g transform="matrix(1,0,0,1,0.324466,0.809705)">
            <g>
                <rect x="600.738" y="159.511" width="40.009" height="40.009" style="fill:rgb(45,22,22);"/>
                <g transform="matrix(1,0,0,1,-0.0571045,0.380536)">
                    <rect x="605.654" y="164.256" width="30.29" height="29.76" style="fill:rgb(81,65,65);"/>
                </g>
            </g>
            <g transform="matrix(1,0,0,1,40.0093,2.84217e-14)">
                <rect x="600.738" y="159.511" width="40.009" height="40.009" style="fill:rgb(45,22,22);"/>
                <g transform="matrix(1,0,0,1,-0.0571045,0.380536)">
                    <rect x="605.654" y="164.256" width="30.29" height="29.76" style="fill:rgb(81,65,65);"/>
                </g>
            </g>
        </g>
        <g transform="matrix(1,0,0,1,0.324466,40.819)">
            <g>
                <rect x="600.738" y="159.511" width="40.009" height="40.009" style="fill:rgb(45,22,22);"/>
                <g transform="matrix(1,0,0,1,-0.0571045,0.380536)">
                    <rect x="605.654" y="164.256" width="30.29" height="29.76" style="fill:rgb(81,65,65);"/>
                </g>
            </g>
            <g transform="matrix(1,0,0,1,40.0093,2.84217e-14)">
                <rect x="600.738" y="159.511" width="40.009" height="40.009" style="fill:rgb(45,22,22);"/>
                <g transform="matrix(1,0,0,1,-0.0571045,0.380536)">
                    <rect x="605.654" y="164.256" width="30.29" height="29.76" style="fill:rgb(81,65,65);"/>
                </g>
            </g>
        </g>
        <g transform="matrix(1,0,0,1,0.324466,80.8283)">
            <g>
                <rect x="600.738" y="159.511" width="40.009" height="40.009" style="fill:rgb(45,22,22);"/>
                <g transform="matrix(1,0,0,1,-0.0571045,0.380536)">
                    <rect x="605.654" y="164.256" width="30.29" height="29.76" style="fill:rgb(81,65,65);"/>
                </g>
            </g>
            <g transform="matrix(1,0,0,1,40.0093,2.84217e-14)">
                <rect x="600.738" y="159.511" width="40.009" height="40.009" style="fill:rgb(45,22,22);"/>
                <g transform="matrix(1,0,0,1,-0.0571045,0.380536)">
                    <rect x="605.654" y="164.256" width="30.29" height="29.76" style="fill:rgb(81,65,65);"/>
                </g>
            </g>
        </g>
        <g transform="matrix(1,0,0,1,0.324466,120.838)">
            <g>
                <rect x="600.738" y="159.511" width="40.009" height="40.009" style="fill:rgb(45,22,22);"/>
                <g transform="matrix(1,0,0,1,-0.0571045,0.380536)">
                    <rect x="605.654" y="164.256" width="30.29" height="29.76" style="fill:rgb(81,65,65);"/>
                </g>
            </g>
            <g transform="matrix(1,0,0,1,40.0093,2.84217e-14)">
                <rect x="600.738" y="159.511" width="40.009" height="40.009" style="fill:rgb(45,22,22);"/>
                <g transform="matrix(1,0,0,1,-0.0571045,0.380536)">
                    <rect x="605.654" y="164.256" width="30.29" height="29.76" style="fill:rgb(81,65,65);"/>
                </g>
            </g>
        </g>
        <g transform="matrix(1,0,0,1,0.324466,160.847)">
            <g>
                <rect x="600.738" y="159.511" width="40.009" height="40.009" style="fill:rgb(45,22,22);"/>
                <g transform="matrix(1,0,0,1,-0.0571045,0.380536)">
                    <rect x="605.654" y="164.256" width="30.29" height="29.76" style="fill:rgb(81,65,65);"/>
                </g>
            </g>
            <g transform="matrix(1,0,0,1,40.0093,2.84217e-14)">
                <rect x="600.738" y="159.511" width="40.009" height="40.009" style="fill:rgb(45,22,22);"/>
                <g transform="matrix(1,0,0,1,-0.0571045,0.380536)">
                    <rect x="605.654" y="164.256" width="30.29" height="29.76" style="fill:rgb(81,65,65);"/>
                </g>
            </g>
        </g>
        <g transform="matrix(1,0,0,1,0.324466,200.856)">
            <g>
                <rect x="600.738" y="159.511" width="40.009" height="40.009" style="fill:rgb(45,22,22);"/>
                <g transform="matrix(1,0,0,1,-0.0571045,0.380536)">
                    <rect x="605.654" y="164.256" width="30.29" height="29.76" style="fill:rgb(81,65,65);"/>
                </g>
            </g>
            <g transform="matrix(1,0,0,1,40.0093,2.84217e-14)">
                <rect x="600.738" y="159.511" width="40.009" height="40.009" style="fill:rgb(45,22,22);"/>
                <g transform="matrix(1,0,0,1,-0.0571045,0.380536)">
                    <rect x="605.654" y="164.256" width="30.29" height="29.76" style="fill:rgb(81,65,65);"/>
                </g>
            </g>
        </g>
        <g transform="matrix(1,0,0,1,0.324466,240.866)">
            <g>
                <rect x="600.738" y="159.511" width="40.009" height="40.009" style="fill:rgb(45,22,22);"/>
                <g transform="matrix(1,0,0,1,-0.0571045,0.380536)">
                    <rect x="605.654" y="164.256" width="30.29" height="29.76" style="fill:rgb(81,65,65);"/>
                </g>
            </g>
            <g transform="matrix(1,0,0,1,40.0093,2.84217e-14)">
                <rect x="600.738" y="159.511" width="40.009" height="40.009" style="fill:rgb(45,22,22);"/>
                <g transform="matrix(1,0,0,1,-0.0571045,0.380536)">
                    <rect x="605.654" y="164.256" width="30.29" height="29.76" style="fill:rgb(81,65,65);"/>
                </g>
            </g>
        </g>
        <g transform="matrix(1,0,0,1,0.324466,280.875)">
            <g>
                <rect x="600.738" y="159.511" width="40.009" height="40.009" style="fill:rgb(45,22,22);"/>
                <g transform="matrix(1,0,0,1,-0.0571045,0.380536)">
                    <rect x="605.654" y="164.256" width="30.29" height="29.76" style="fill:rgb(81,65,65);"/>
                </g>
            </g>
            <g transform="matrix(1,0,0,1,40.0093,2.84217e-14)">
                <rect x="600.738" y="159.511" width="40.009" height="40.009" style="fill:rgb(45,22,22);"/>
                <g transform="matrix(1,0,0,1,-0.0571045,0.380536)">
                    <rect x="605.654" y="164.256" width="30.29" height="29.76" style="fill:rgb(81,65,65);"/>
                </g>
            </g>
        </g>
        <g transform="matrix(1,0,0,1,0.324466,320.884)">
            <g>
                <rect x="600.738" y="159.511" width="40.009" height="40.009" style="fill:rgb(45,22,22);"/>
                <g transform="matrix(1,0,0,1,-0.0571045,0.380536)">
                    <rect x="605.654" y="164.256" width="30.29" height="29.76" style="fill:rgb(81,65,65);"/>
                </g>
            </g>
            <g transform="matrix(1,0,0,1,40.0093,2.84217e-14)">
                <rect x="600.738" y="159.511" width="40.009" height="40.009" style="fill:rgb(45,22,22);"/>
                <g transform="matrix(1,0,0,1,-0.0571045,0.380536)">
                    <rect x="605.654" y="164.256" width="30.29" height="29.76" style="fill:rgb(81,65,65);"/>
                </g>
            </g>
        </g>
        <g transform="matrix(1,0,0,1,0.324466,360.893)">
            <g>
                <rect x="600.738" y="159.511" width="40.009" height="40.009" style="fill:rgb(45,22,22);"/>
                <g transform="matrix(1,0,0,1,-0.0571045,0.380536)">
                    <rect x="605.654" y="164.256" width="30.29" height="29.76" style="fill:rgb(81,65,65);"/>
                </g>
            </g>
            <g transform="matrix(1,0,0,1,40.0093,2.84217e-14)">
                <rect x="600.738" y="159.511" width="40.009" height="40.009" style="fill:rgb(45,22,22);"/>
                <g transform="matrix(1,0,0,1,-0.0571045,0.380536)">
                    <rect x="605.654" y="164.256" width="30.29" height="29.76" style="fill:rgb(81,65,65);"/>
                </g>
            </g>
        </g>
        <g transform="matrix(1,0,0,1,0.324466,400.903)">
            <g>
                <rect x="600.738" y="159.511" width="40.009" height="40.009" style="fill:rgb(45,22,22);"/>
                <g transform="matrix(1,0,0,1,-0.0571045,0.380536)">
                    <rect x="605.654" y="164.256" width="30.29" height="29.76" style="fill:rgb(81,65,65);"/>
                </g>
            </g>
            <g transform="matrix(1,0,0,1,40.0093,2.84217e-14)">
                <rect x="600.738" y="159.511" width="40.009" height="40.009" style="fill:rgb(45,22,22);"/>
                <g transform="matrix(1,0,0,1,-0.0571045,0.380536)">
                    <rect x="605.654" y="164.256" width="30.29" height="29.76" style="fill:rgb(81,65,65);"/>
                </g>
            </g>
        </g>
        <g transform="matrix(1,0,0,1,0.324466,440.912)">
            <g>
                <rect x="600.738" y="159.511" width="40.009" height="40.009" style="fill:rgb(45,22,22);"/>
                <g transform="matrix(1,0,0,1,-0.0571045,0.380536)">
                    <rect x="605.654" y="164.256" width="30.29" height="29.76" style="fill:rgb(81,65,65);"/>
                </g>
            </g>
            <g transform="matrix(1,0,0,1,40.0093,2.84217e-14)">
                <rect x="600.738" y="159.511" width="40.009" height="40.009" style="fill:rgb(45,22,22);"/>
                <g transform="matrix(1,0,0,1,-0.0571045,0.380536)">
                    <rect x="605.654" y="164.256" width="30.29" height="29.76" style="fill:rgb(81,65,65);"/>
                </g>
            </g>
        </g>
        <g transform="matrix(1,0,0,1,0.324466,480.921)">
            <g>
                <rect x="600.738" y="159.511" width="40.009" height="40.009" style="fill:rgb(45,22,22);"/>
                <g transform="matrix(1,0,0,1,-0.0571045,0.380536)">
                    <rect x="605.654" y="164.256" width="30.29" height="29.76" style="fill:rgb(81,65,65);"/>
                </g>
            </g>
            <g transform="matrix(1,0,0,1,40.0093,2.84217e-14)">
                <rect x="600.738" y="159.511" width="40.009" height="40.009" style="fill:rgb(45,22,22);"/>
                <g transform="matrix(1,0,0,1,-0.0571045,0.380536)">
                    <rect x="605.654" y="164.256" width="30.29" height="29.76" style="fill:rgb(81,65,65);"/>
                </g>
            </g>
        </g>
        <g transform="matrix(1,0,0,1,0.324466,520.931)">
            <g>
                <rect x="600.738" y="159.511" width="40.009" height="40.009" style="fill:rgb(45,22,22);"/>
                <g transform="matrix(1,0,0,1,-0.0571045,0.380536)">
                    <rect x="605.654" y="164.256" width="30.29" height="29.76" style="fill:rgb(81,65,65);"/>
                </g>
            </g>
            <g transform="matrix(1,0,0,1,40.0093,2.84217e-14)">
                <rect x="600.738" y="159.511" width="40.009" height="40.009" style="fill:rgb(45,22,22);"/>
                <g transform="matrix(1,0,0,1,-0.0571045,0.380536)">
                    <rect x="605.654" y="164.256" width="30.29" height="29.76" style="fill:rgb(81,65,65);"/>
                </g>
            </g>
        </g>
        <g transform="matrix(1,0,0,1,0.324466,560.94)">
            <g>
                <rect x="600.738" y="159.511" width="40.009" height="40.009" style="fill:rgb(45,22,22);"/>
                <g transform="matrix(1,0,0,1,-0.0571045,0.380536)">
                    <rect x="605.654" y="164.256" width="30.29" height="29.76" style="fill:rgb(81,65,65);"/>
                </g>
            </g>
            <g transform="matrix(1,0,0,1,40.0093,2.84217e-14)">
                <rect x="600.738" y="159.511" width="40.009" height="40.009" style="fill:rgb(45,22,22);"/>
                <g transform="matrix(1,0,0,1,-0.0571045,0.380536)">
                    <rect x="605.654" y="164.256" width="30.29" height="29.76" style="fill:rgb(81,65,65);"/>
                </g>
            </g>
        </g>
        <g transform="matrix(1,0,0,1,0.324466,600.949)">
            <g>
                <rect x="600.738" y="159.511" width="40.009" height="40.009" style="fill:rgb(45,22,22);"/>
                <g transform="matrix(1,0,0,1,-0.0571045,0.380536)">
                    <rect x="605.654" y="164.256" width="30.29" height="29.76" style="fill:rgb(81,65,65);"/>
                </g>
            </g>
            <g transform="matrix(1,0,0,1,40.0093,2.84217e-14)">
                <rect x="600.738" y="159.511" width="40.009" height="40.009" style="fill:rgb(45,22,22);"/>
                <g transform="matrix(1,0,0,1,-0.0571045,0.380536)">
                    <rect x="605.654" y="164.256" width="30.29" height="29.76" style="fill:rgb(81,65,65);"/>
                </g>
            </g>
        </g>
        <g transform="matrix(1,0,0,1,0.324466,640.959)">
            <g>
                <rect x="600.738" y="159.511" width="40.009" height="40.009" style="fill:rgb(45,22,22);"/>
                <g transform="matrix(1,0,0,1,-0.0571045,0.380536)">
                    <rect x="605.654" y="164.256" width="30.29" height="29.76" style="fill:rgb(81,65,65);"/>
                </g>
            </g>
            <g transform="matrix(1,0,0,1,40.0093,2.84217e-14)">
                <rect x="600.738" y="159.511" width="40.009" height="40.009" style="fill:rgb(45,22,22);"/>
                <g transform="matrix(1,0,0,1,-0.0571045,0.380536)">
                    <rect x="605.654" y="164.256" width="30.29" height="29.76" style="fill:rgb(81,65,65);"/>
                </g>
            </g>
        </g>
        <g transform="matrix(1,0,0,1,0.324466,680.968)">
            <g>
                <rect x="600.738" y="159.511" width="40.009" height="40.009" style="fill:rgb(45,22,22);"/>
                <g transform="matrix(1,0,0,1,-0.0571045,0.380536)">
                    <rect x="605.654" y="164.256" width="30.29" height="29.76" style="fill:rgb(81,65,65);"/>
                </g>
            </g>
            <g transform="matrix(1,0,0,1,40.0093,2.84217e-14)">
                <rect x="600.738" y="159.511" width="40.009" height="40.009" style="fill:rgb(45,22,22);"/>
                <g transform="matrix(1,0,0,1,-0.0571045,0.380536)">
                    <rect x="605.654" y="164.256" width="30.29" height="29.76" style="fill:rgb(81,65,65);"/>
                </g>
            </g>
        </g>
        <g transform="matrix(1,0,0,1,0.324466,720.977)">
            <g>
                <rect x="600.738" y="159.511" width="40.009" height="40.009" style="fill:rgb(45,22,22);"/>
                <g transform="matrix(1,0,0,1,-0.0571045,0.380536)">
                    <rect x="605.654" y="164.256" width="30.29" height="29.76" style="fill:rgb(81,65,65);"/>
                </g>
            </g>
            <g transform="matrix(1,0,0,1,40.0093,2.84217e-14)">
                <rect x="600.738" y="159.511" width="40.009" height="40.009" style="fill:rgb(45,22,22);"/>
                <g transform="matrix(1,0,0,1,-0.0571045,0.380536)">
                    <rect x="605.654" y="164.256" width="30.29" height="29.76" style="fill:rgb(81,65,65);"/>
                </g>
            </g>
        </g>
        <g transform="matrix(1,0,0,1,0.324466,760.986)">
            <g>
                <rect x="600.738" y="159.511" width="40.009" height="40.009" style="fill:rgb(45,22,22);"/>
                <g transform="matrix(1,0,0,1,-0.0571045,0.380536)">
                    <rect x="605.654" y="164.256" width="30.29" height="29.76" style="fill:rgb(81,65,65);"/>
                </g>
            </g>
            <g transform="matrix(1,0,0,1,40.0093,2.84217e-14)">
                <rect x="600.738" y="159.511" width="40.009" height="40.009" style="fill:rgb(45,22,22);"/>
                <g transform="matrix(1,0,0,1,-0.0571045,0.380536)">
                    <rect x="605.654" y="164.256" width="30.29" height="29.76" style="fill:rgb(81,65,65);"/>
                </g>
            </g>
        </g>
    </g>
</svg>
