<?xml version="1.0" encoding="UTF-8" standalone="no"?>
<!DOCTYPE svg PUBLIC "-//W3C//DTD SVG 1.1//EN" "http://www.w3.org/Graphics/SVG/1.1/DTD/svg11.dtd">
<svg width="100%" height="100%" viewBox="0 0 470 435" version="1.1" xmlns="http://www.w3.org/2000/svg" xmlns:xlink="http://www.w3.org/1999/xlink" xml:space="preserve" xmlns:serif="http://www.serif.com/" style="fill-rule:evenodd;clip-rule:evenodd;stroke-linecap:round;stroke-linejoin:round;stroke-miterlimit:1.5;">
    <g id="Artboard1" transform="matrix(1,0,0,1,-165.416,-143.475)">
        <rect x="165.416" y="143.475" width="469.912" height="434.836" style="fill:none;"/>
        <g transform="matrix(1,0,0,1,0.416496,0.475075)">
            <path d="M202.296,174.841L202.296,548.594" style="fill:none;stroke:rgb(0,225,255);stroke-width:14px;"/>
        </g>
        <g transform="matrix(9.82714e-17,-1,0.234357,-4.55174e-17,161.737,471.05)">
            <path d="M202.296,174.841L202.296,548.594" style="fill:none;stroke:rgb(0,225,255);stroke-width:11.7px;"/>
        </g>
        <g transform="matrix(9.82714e-17,-1,0.234357,-4.55174e-17,250.819,471.05)">
            <path d="M202.296,174.841L202.296,548.594" style="fill:none;stroke:rgb(0,225,255);stroke-width:11.7px;"/>
        </g>
        <g transform="matrix(9.82714e-17,-1,0.234357,-4.55174e-17,338.41,471.05)">
            <path d="M202.296,174.841L202.296,548.594" style="fill:none;stroke:rgb(0,225,255);stroke-width:11.7px;"/>
        </g>
        <g transform="matrix(9.82714e-17,-1,0.234357,-4.55174e-17,426.225,471.05)">
            <path d="M202.296,174.841L202.296,548.594" style="fill:none;stroke:rgb(0,225,255);stroke-width:11.7px;"/>
        </g>
        <g transform="matrix(9.82714e-17,-1,0.234357,-4.55174e-17,163.227,564.488)">
            <path d="M202.296,174.841L202.296,548.594" style="fill:none;stroke:rgb(0,225,255);stroke-width:11.7px;"/>
        </g>
        <g transform="matrix(9.82714e-17,-1,0.234357,-4.55174e-17,250.819,564.488)">
            <path d="M202.296,174.841L202.296,548.594" style="fill:none;stroke:rgb(0,225,255);stroke-width:11.7px;"/>
        </g>
        <g transform="matrix(9.82714e-17,-1,0.234357,-4.55174e-17,161.124,657.926)">
            <path d="M202.296,174.841L202.296,548.594" style="fill:none;stroke:rgb(0,225,255);stroke-width:11.7px;"/>
        </g>
        <g transform="matrix(0.56932,-0.550832,0.550832,0.56932,-179.164,231.125)">
            <rect x="386.216" y="439.899" width="16.036" height="15.257" style="fill:rgb(0,225,255);stroke:rgb(0,225,255);stroke-width:1.26px;"/>
        </g>
        <g transform="matrix(0.56932,-0.550832,0.550832,0.56932,-91.5727,231.125)">
            <rect x="386.216" y="439.899" width="16.036" height="15.257" style="fill:rgb(0,225,255);stroke:rgb(0,225,255);stroke-width:1.26px;"/>
        </g>
        <g transform="matrix(0.56932,-0.550832,0.550832,0.56932,-3.98134,231.125)">
            <rect x="386.216" y="439.899" width="16.036" height="15.257" style="fill:rgb(0,225,255);stroke:rgb(0,225,255);stroke-width:1.26px;"/>
        </g>
        <g transform="matrix(0.56932,-0.550832,0.550832,0.56932,-179.164,324.564)">
            <rect x="386.216" y="439.899" width="16.036" height="15.257" style="fill:rgb(0,225,255);stroke:rgb(0,225,255);stroke-width:1.26px;"/>
        </g>
        <g transform="matrix(0.56932,-0.550832,0.550832,0.56932,-91.5727,324.564)">
            <rect x="386.216" y="439.899" width="16.036" height="15.257" style="fill:rgb(0,225,255);stroke:rgb(0,225,255);stroke-width:1.26px;"/>
        </g>
        <g transform="matrix(0.56932,-0.550832,0.550832,0.56932,83.8336,231.125)">
            <rect x="386.216" y="439.899" width="16.036" height="15.257" style="fill:rgb(0,225,255);stroke:rgb(0,225,255);stroke-width:1.26px;"/>
        </g>
        <g transform="matrix(0.56932,-0.550832,0.550832,0.56932,-181.267,418.002)">
            <rect x="386.216" y="439.899" width="16.036" height="15.257" style="fill:rgb(0,225,255);stroke:rgb(0,225,255);stroke-width:1.26px;"/>
        </g>
        <g transform="matrix(1,0,0,1,73.5068,-32.48)">
            <g transform="matrix(14,0,0,14,321.494,321.659)">
            </g>
            <text x="290.356px" y="321.659px" style="font-family:'Arial-BoldMT', 'Arial', sans-serif;font-weight:700;font-size:14px;fill:rgb(0,225,255);">6.4.1</text>
        </g>
        <g transform="matrix(1,0,0,1,-14.0767,-32.48)">
            <g transform="matrix(14,0,0,14,321.494,321.659)">
            </g>
            <text x="290.356px" y="321.659px" style="font-family:'Arial-BoldMT', 'Arial', sans-serif;font-weight:700;font-size:14px;fill:rgb(0,225,255);">6.4.0</text>
        </g>
        <g transform="matrix(1,0,0,1,161.33,-32.48)">
            <g transform="matrix(14,0,0,14,321.494,321.659)">
            </g>
            <text x="290.356px" y="321.659px" style="font-family:'Arial-BoldMT', 'Arial', sans-serif;font-weight:700;font-size:14px;fill:rgb(0,225,255);">6.4.2</text>
        </g>
        <g transform="matrix(1,0,0,1,248.921,-32.48)">
            <g transform="matrix(14,0,0,14,321.494,321.659)">
            </g>
            <text x="290.356px" y="321.659px" style="font-family:'Arial-BoldMT', 'Arial', sans-serif;font-weight:700;font-size:14px;fill:rgb(0,225,255);">6.4.3</text>
        </g>
        <g transform="matrix(1,0,0,1,161.08,-65.2911)">
            <g transform="matrix(14,0,0,14,318.626,321.659)">
            </g>
            <text x="293.224px" y="321.659px" style="font-family:'Arial-BoldMT', 'Arial', sans-serif;font-weight:700;font-size:14px;fill:rgb(0,225,255);">L<tspan x="300.737px 309.289px " y="321.659px 321.659px ">TS</tspan></text>
        </g>
        <g transform="matrix(1,0,0,1,-16.1801,59.356)">
            <g transform="matrix(14,0,0,14,321.494,321.659)">
            </g>
            <text x="290.356px" y="321.659px" style="font-family:'Arial-BoldMT', 'Arial', sans-serif;font-weight:700;font-size:14px;fill:rgb(0,225,255);">6.5.0</text>
        </g>
        <g transform="matrix(1,0,0,1,73.5068,59.356)">
            <g transform="matrix(14,0,0,14,321.494,321.659)">
            </g>
            <text x="290.356px" y="321.659px" style="font-family:'Arial-BoldMT', 'Arial', sans-serif;font-weight:700;font-size:14px;fill:rgb(0,225,255);">6.5.1</text>
        </g>
        <g transform="matrix(1,0,0,1,-16.1801,152.794)">
            <g transform="matrix(14,0,0,14,321.494,321.659)">
            </g>
            <text x="290.356px" y="321.659px" style="font-family:'Arial-BoldMT', 'Arial', sans-serif;font-weight:700;font-size:14px;fill:rgb(0,225,255);">6.6.0</text>
        </g>
    </g>
</svg>
