<?xml version="1.0" encoding="UTF-8" standalone="no"?>
<!DOCTYPE svg PUBLIC "-//W3C//DTD SVG 1.1//EN" "http://www.w3.org/Graphics/SVG/1.1/DTD/svg11.dtd">
<svg width="100%" height="100%" viewBox="0 0 348 435" version="1.1" xmlns="http://www.w3.org/2000/svg" xmlns:xlink="http://www.w3.org/1999/xlink" xml:space="preserve" xmlns:serif="http://www.serif.com/" style="fill-rule:evenodd;clip-rule:evenodd;stroke-linecap:round;stroke-linejoin:round;stroke-miterlimit:1.5;">
    <g id="Artboard1" transform="matrix(0.739869,0,0,1,-122.387,-143.475)">
        <rect x="165.416" y="143.475" width="469.912" height="434.836" style="fill:none;"/>
        <g transform="matrix(1.35159,0,0,1,-57.596,0.475075)">
            <path d="M202.296,174.841L202.296,548.594" style="fill:none;stroke:rgb(0,225,255);stroke-width:14px;"/>
        </g>
        <g transform="matrix(1.32823e-16,-1,0.316754,-4.55174e-17,160.443,471.05)">
            <path d="M202.296,174.841L202.296,548.594" style="fill:none;stroke:rgb(0,225,255);stroke-width:11.7px;"/>
        </g>
        <g transform="matrix(1.32823e-16,-1,0.316754,-4.55174e-17,280.845,471.05)">
            <path d="M202.296,174.841L202.296,548.594" style="fill:none;stroke:rgb(0,225,255);stroke-width:11.7px;"/>
        </g>
        <g transform="matrix(1.32823e-16,-1,0.316754,-4.55174e-17,162.458,564.488)">
            <path d="M202.296,174.841L202.296,548.594" style="fill:none;stroke:rgb(0,225,255);stroke-width:11.7px;"/>
        </g>
        <g transform="matrix(1.32823e-16,-1,0.316754,-4.55174e-17,280.845,564.488)">
            <path d="M202.296,174.841L202.296,548.594" style="fill:none;stroke:rgb(0,225,255);stroke-width:11.7px;"/>
        </g>
        <g transform="matrix(1.32823e-16,-1,0.316754,-4.55174e-17,399.233,564.488)">
            <path d="M202.296,174.841L202.296,548.594" style="fill:none;"/>
            <path d="M198.046,174.841C198.046,164.833 199.95,156.707 202.296,156.707C204.641,156.707 206.546,164.833 206.546,174.841L206.546,193.529C206.546,203.538 204.641,211.664 202.296,211.664C199.95,211.664 198.046,203.538 198.046,193.529L198.046,174.841ZM198.046,230.904C198.046,220.896 199.95,212.77 202.296,212.77C204.641,212.77 206.546,220.896 206.546,230.904L206.546,268.28C206.546,278.289 204.641,286.414 202.296,286.414C199.95,286.414 198.046,278.289 198.046,268.28L198.046,230.904ZM198.046,305.655C198.046,295.646 199.95,287.52 202.296,287.52C204.641,287.52 206.546,295.646 206.546,305.655L206.546,343.03C206.546,353.038 204.641,361.164 202.296,361.164C199.95,361.164 198.046,353.038 198.046,343.03L198.046,305.655ZM198.046,380.405C198.046,370.397 199.95,362.271 202.296,362.271C204.641,362.271 206.546,370.397 206.546,380.405L206.546,417.781C206.546,427.79 204.641,435.916 202.296,435.916C199.95,435.916 198.046,427.79 198.046,417.781L198.046,380.405ZM198.046,455.156C198.046,445.147 199.95,437.021 202.296,437.021C204.641,437.021 206.546,445.147 206.546,455.156L206.546,492.531C206.546,502.54 204.641,510.665 202.296,510.665C199.95,510.665 198.046,502.54 198.046,492.531L198.046,455.156ZM198.046,529.906C198.046,519.897 199.95,511.771 202.296,511.771C204.641,511.771 206.546,519.897 206.546,529.906L206.546,548.594C206.546,558.603 204.641,566.729 202.296,566.729C199.95,566.729 198.046,558.603 198.046,548.594L198.046,529.906Z" style="fill:rgb(0,225,255);"/>
        </g>
        <g transform="matrix(1.32823e-16,-1,0.316754,-4.55174e-17,159.615,657.926)">
            <path d="M202.296,174.841L202.296,548.594" style="fill:none;stroke:rgb(0,225,255);stroke-width:11.7px;"/>
        </g>
        <g transform="matrix(0.769487,-0.550832,0.7445,0.56932,-300.315,231.125)">
            <rect x="386.216" y="439.899" width="16.036" height="15.257" style="fill:rgb(0,225,255);stroke:rgb(0,225,255);stroke-width:1.26px;"/>
        </g>
        <g transform="matrix(0.769487,-0.550832,0.7445,0.56932,-181.928,231.125)">
            <rect x="386.216" y="439.899" width="16.036" height="15.257" style="fill:rgb(0,225,255);stroke:rgb(0,225,255);stroke-width:1.26px;"/>
        </g>
        <g transform="matrix(0.769487,-0.550832,0.7445,0.56932,-300.315,324.564)">
            <rect x="386.216" y="439.899" width="16.036" height="15.257" style="fill:rgb(0,225,255);stroke:rgb(0,225,255);stroke-width:1.26px;"/>
        </g>
        <g transform="matrix(0.769487,-0.550832,0.7445,0.56932,-181.928,324.564)">
            <rect x="386.216" y="439.899" width="16.036" height="15.257" style="fill:rgb(0,225,255);stroke:rgb(0,225,255);stroke-width:1.26px;"/>
        </g>
        <g transform="matrix(0.769487,-0.550832,0.7445,0.56932,-63.5401,324.564)">
            <rect x="386.216" y="439.899" width="16.036" height="15.257" style="fill:rgb(0,225,255);stroke:rgb(0,225,255);stroke-width:1.26px;"/>
        </g>
        <g transform="matrix(0.769487,-0.550832,0.7445,0.56932,-303.158,418.002)">
            <rect x="386.216" y="439.899" width="16.036" height="15.257" style="fill:rgb(0,225,255);stroke:rgb(0,225,255);stroke-width:1.26px;"/>
        </g>
        <g transform="matrix(1.35159,0,0,1,41.1922,-32.48)">
            <g transform="matrix(14,0,0,14,321.494,321.659)">
            </g>
            <text x="290.356px" y="321.659px" style="font-family:'Arial-BoldMT', 'Arial', sans-serif;font-weight:700;font-size:14px;fill:rgb(0,225,255);">6.4.1</text>
        </g>
        <g transform="matrix(1.35159,0,0,1,-77.1849,-32.48)">
            <g transform="matrix(14,0,0,14,321.494,321.659)">
            </g>
            <text x="290.356px" y="321.659px" style="font-family:'Arial-BoldMT', 'Arial', sans-serif;font-weight:700;font-size:14px;fill:rgb(0,225,255);">6.4.0</text>
        </g>
        <g transform="matrix(1.35159,0,0,1,40.8656,27.3466)">
            <g transform="matrix(14,0,0,14,318.626,321.659)">
            </g>
            <text x="293.224px" y="321.659px" style="font-family:'Arial-BoldMT', 'Arial', sans-serif;font-weight:700;font-size:14px;fill:rgb(0,225,255);">L<tspan x="300.737px 309.289px " y="321.659px 321.659px ">TS</tspan></text>
        </g>
        <g transform="matrix(1.35159,0,0,1,40.8656,-65.5822)">
            <g transform="matrix(14,0,0,14,316.425,321.659)">
            </g>
            <text x="295.425px" y="321.659px" style="font-family:'Arial-BoldMT', 'Arial', sans-serif;font-weight:700;font-size:14px;fill:rgb(0,225,255);">GA</text>
        </g>
        <g transform="matrix(1.35159,0,0,1,-77.6653,-65.5822)">
            <g transform="matrix(14,0,0,14,316.425,321.659)">
            </g>
            <text x="295.425px" y="321.659px" style="font-family:'Arial-BoldMT', 'Arial', sans-serif;font-weight:700;font-size:14px;fill:rgb(0,225,255);">GA</text>
        </g>
        <g transform="matrix(1.35159,0,0,1,-80.0278,61.356)">
            <g transform="matrix(14,0,0,14,321.494,321.659)">
            </g>
            <text x="290.356px" y="321.659px" style="font-family:'Arial-BoldMT', 'Arial', sans-serif;font-weight:700;font-size:14px;fill:rgb(0,225,255);">6.5.0</text>
        </g>
        <g transform="matrix(1.35159,0,0,1,42.2653,61.356)">
            <g transform="matrix(14,0,0,14,321.494,321.659)">
            </g>
            <text x="290.356px" y="321.659px" style="font-family:'Arial-BoldMT', 'Arial', sans-serif;font-weight:700;font-size:14px;fill:rgb(0,225,255);">6.5.1</text>
        </g>
        <g transform="matrix(1.35159,0,0,1,160.653,61.356)">
            <g transform="matrix(14,0,0,14,321.494,321.659)">
            </g>
            <text x="290.356px" y="321.659px" style="font-family:'Arial-BoldMT', 'Arial', sans-serif;font-weight:700;font-size:14px;fill:rgb(0,225,255);">6.5.2</text>
        </g>
        <g transform="matrix(1.35159,0,0,1,-80.0278,154.794)">
            <g transform="matrix(14,0,0,14,321.494,321.659)">
            </g>
            <text x="290.356px" y="321.659px" style="font-family:'Arial-BoldMT', 'Arial', sans-serif;font-weight:700;font-size:14px;fill:rgb(0,225,255);">6.6.0</text>
        </g>
    </g>
</svg>
