<?xml version="1.0" encoding="UTF-8" standalone="no"?>
<!DOCTYPE svg PUBLIC "-//W3C//DTD SVG 1.1//EN" "http://www.w3.org/Graphics/SVG/1.1/DTD/svg11.dtd">
<svg width="4186" height="2997" viewBox="0 0 4186 2997" version="1.1" xmlns="http://www.w3.org/2000/svg" xmlns:xlink="http://www.w3.org/1999/xlink" xml:space="preserve" xmlns:serif="http://www.serif.com/" style="fill-rule:evenodd;clip-rule:evenodd;stroke-linecap:round;stroke-linejoin:round;stroke-miterlimit:1.5;">
    <g transform="matrix(4.16667,0,0,4.16667,0,0)">
        <g id="Artboard1" transform="matrix(1.00458,0,0,0.98726,0,6.85072)">
            <rect x="0" y="-6.939" width="1000" height="728.439" style="fill:none;"/>
            <g transform="matrix(0.994442,0,0,1.02054,2.38422,-10.2618)">
                <rect x="0" y="5.343" width="1000" height="709.069" style="fill:none;stroke:black;stroke-width:1.99px;"/>
            </g>
            <g transform="matrix(0.995437,0,0,1.0129,1.38879,-5.82168)">
                <rect x="436.821" y="675.987" width="19.926" height="27.506" style="fill:rgb(230,171,0);"/>
                <g transform="matrix(1,0,0,1,35.9873,0)">
                    <rect x="436.821" y="675.987" width="19.926" height="27.506" style="fill:rgb(230,171,0);"/>
                </g>
                <g transform="matrix(1,0,0,1,71.364,0)">
                    <rect x="436.821" y="675.987" width="19.926" height="27.506" style="fill:rgb(230,171,0);"/>
                </g>
                <g transform="matrix(1,0,0,1,107.715,0)">
                    <rect x="436.821" y="675.987" width="19.926" height="27.506" style="fill:rgb(230,171,0);"/>
                </g>
                <g transform="matrix(1,0,0,1,141.995,0)">
                    <rect x="436.821" y="675.987" width="19.926" height="27.506" style="fill:rgb(230,171,0);"/>
                </g>
                <g transform="matrix(1,0,0,1,177.665,0)">
                    <rect x="436.821" y="675.987" width="19.926" height="27.506" style="fill:rgb(230,171,0);"/>
                </g>
                <g transform="matrix(1,0,0,1,213.336,0)">
                    <rect x="436.821" y="675.987" width="19.926" height="27.506" style="fill:rgb(230,171,0);"/>
                </g>
                <g transform="matrix(1,0,0,1,249.006,0)">
                    <rect x="436.821" y="675.987" width="19.926" height="27.506" style="fill:rgb(230,171,0);"/>
                </g>
                <g transform="matrix(1,0,0,1,284.676,0)">
                    <rect x="436.821" y="675.987" width="19.926" height="27.506" style="fill:rgb(230,171,0);"/>
                </g>
                <g transform="matrix(1,0,0,1,320.347,0)">
                    <rect x="436.821" y="675.987" width="19.926" height="27.506" style="fill:rgb(230,171,0);"/>
                </g>
                <g transform="matrix(1,0,0,1,356.017,0)">
                    <rect x="436.821" y="675.987" width="19.926" height="27.506" style="fill:rgb(230,171,0);"/>
                </g>
                <g transform="matrix(1,0,0,1,391.687,0)">
                    <rect x="436.821" y="675.987" width="19.926" height="27.506" style="fill:rgb(230,171,0);"/>
                </g>
                <g transform="matrix(1,0,0,1,427.357,0)">
                    <rect x="436.821" y="675.987" width="19.926" height="27.506" style="fill:rgb(230,171,0);"/>
                </g>
                <g transform="matrix(1,0,0,1,463.028,0)">
                    <rect x="436.821" y="675.987" width="19.926" height="27.506" style="fill:rgb(230,171,0);"/>
                </g>
                <g transform="matrix(1,0,0,1,498.698,0)">
                    <rect x="436.821" y="675.987" width="19.926" height="27.506" style="fill:rgb(230,171,0);"/>
                </g>
            </g>
            <g transform="matrix(0.995437,0,0,1.0129,1.38879,-676.293)">
                <rect x="436.821" y="675.987" width="19.926" height="27.506" style="fill:rgb(230,171,0);"/>
                <g transform="matrix(1,0,0,1,35.9873,0)">
                    <rect x="436.821" y="675.987" width="19.926" height="27.506" style="fill:rgb(230,171,0);"/>
                </g>
                <g transform="matrix(1,0,0,1,71.364,0)">
                    <rect x="436.821" y="675.987" width="19.926" height="27.506" style="fill:rgb(230,171,0);"/>
                </g>
                <g transform="matrix(1,0,0,1,107.715,0)">
                    <rect x="436.821" y="675.987" width="19.926" height="27.506" style="fill:rgb(230,171,0);"/>
                </g>
                <g transform="matrix(1,0,0,1,141.995,0)">
                    <rect x="436.821" y="675.987" width="19.926" height="27.506" style="fill:rgb(230,171,0);"/>
                </g>
                <g transform="matrix(1,0,0,1,177.665,0)">
                    <rect x="436.821" y="675.987" width="19.926" height="27.506" style="fill:rgb(230,171,0);"/>
                </g>
                <g transform="matrix(1,0,0,1,213.336,0)">
                    <rect x="436.821" y="675.987" width="19.926" height="27.506" style="fill:rgb(230,171,0);"/>
                </g>
                <g transform="matrix(1,0,0,1,249.006,0)">
                    <rect x="436.821" y="675.987" width="19.926" height="27.506" style="fill:rgb(230,171,0);"/>
                </g>
                <g transform="matrix(1,0,0,1,284.676,0)">
                    <rect x="436.821" y="675.987" width="19.926" height="27.506" style="fill:rgb(230,171,0);"/>
                </g>
                <g transform="matrix(1,0,0,1,320.347,0)">
                    <rect x="436.821" y="675.987" width="19.926" height="27.506" style="fill:rgb(230,171,0);"/>
                </g>
                <g transform="matrix(1,0,0,1,356.017,0)">
                    <rect x="436.821" y="675.987" width="19.926" height="27.506" style="fill:rgb(230,171,0);"/>
                </g>
                <g transform="matrix(1,0,0,1,391.687,0)">
                    <rect x="436.821" y="675.987" width="19.926" height="27.506" style="fill:rgb(230,171,0);"/>
                </g>
                <g transform="matrix(1,0,0,1,427.357,0)">
                    <rect x="436.821" y="675.987" width="19.926" height="27.506" style="fill:rgb(230,171,0);"/>
                </g>
                <g transform="matrix(1,0,0,1,463.028,0)">
                    <rect x="436.821" y="675.987" width="19.926" height="27.506" style="fill:rgb(230,171,0);"/>
                </g>
                <g transform="matrix(1,0,0,1,498.698,0)">
                    <rect x="436.821" y="675.987" width="19.926" height="27.506" style="fill:rgb(230,171,0);"/>
                </g>
            </g>
            <g transform="matrix(0.995437,0,0,1.0129,1.38879,-5.82168)">
                <g transform="matrix(6.12323e-17,-1,1,6.12323e-17,-266.672,1019.17)">
                    <rect x="436.821" y="675.987" width="19.926" height="27.506" style="fill:rgb(230,171,0);"/>
                </g>
                <g transform="matrix(6.12323e-17,-1,1,6.12323e-17,-266.672,1053.88)">
                    <rect x="436.821" y="675.987" width="19.926" height="27.506" style="fill:rgb(230,171,0);"/>
                </g>
                <g transform="matrix(6.12323e-17,-1,1,6.12323e-17,-266.672,1090.58)">
                    <rect x="436.821" y="675.987" width="19.926" height="27.506" style="fill:rgb(230,171,0);"/>
                </g>
                <g transform="matrix(6.12323e-17,-1,1,6.12323e-17,-266.672,983.182)">
                    <rect x="436.821" y="675.987" width="19.926" height="27.506" style="fill:rgb(230,171,0);"/>
                </g>
                <g transform="matrix(6.12323e-17,-1,1,6.12323e-17,-266.672,947.805)">
                    <rect x="436.821" y="675.987" width="19.926" height="27.506" style="fill:rgb(230,171,0);"/>
                </g>
                <g transform="matrix(6.12323e-17,-1,1,6.12323e-17,-266.672,911.454)">
                    <rect x="436.821" y="675.987" width="19.926" height="27.506" style="fill:rgb(230,171,0);"/>
                </g>
                <g transform="matrix(6.12323e-17,-1,1,6.12323e-17,-266.672,877.174)">
                    <rect x="436.821" y="675.987" width="19.926" height="27.506" style="fill:rgb(230,171,0);"/>
                </g>
                <g transform="matrix(6.12323e-17,-1,1,6.12323e-17,-266.672,841.504)">
                    <rect x="436.821" y="675.987" width="19.926" height="27.506" style="fill:rgb(230,171,0);"/>
                </g>
                <g transform="matrix(6.12323e-17,-1,1,6.12323e-17,-266.672,805.833)">
                    <rect x="436.821" y="675.987" width="19.926" height="27.506" style="fill:rgb(230,171,0);"/>
                </g>
                <g transform="matrix(6.12323e-17,-1,1,6.12323e-17,-266.672,770.163)">
                    <rect x="436.821" y="675.987" width="19.926" height="27.506" style="fill:rgb(230,171,0);"/>
                </g>
                <g transform="matrix(6.12323e-17,-1,1,6.12323e-17,-266.672,734.493)">
                    <rect x="436.821" y="675.987" width="19.926" height="27.506" style="fill:rgb(230,171,0);"/>
                </g>
                <g transform="matrix(6.12323e-17,-1,1,6.12323e-17,-266.672,698.822)">
                    <rect x="436.821" y="675.987" width="19.926" height="27.506" style="fill:rgb(230,171,0);"/>
                </g>
                <g transform="matrix(6.12323e-17,-1,1,6.12323e-17,-266.672,663.152)">
                    <rect x="436.821" y="675.987" width="19.926" height="27.506" style="fill:rgb(230,171,0);"/>
                </g>
                <g transform="matrix(6.12323e-17,-1,1,6.12323e-17,-266.672,627.482)">
                    <rect x="436.821" y="675.987" width="19.926" height="27.506" style="fill:rgb(230,171,0);"/>
                </g>
                <g transform="matrix(6.12323e-17,-1,1,6.12323e-17,-266.672,591.812)">
                    <rect x="436.821" y="675.987" width="19.926" height="27.506" style="fill:rgb(230,171,0);"/>
                </g>
                <g transform="matrix(6.12323e-17,-1,1,6.12323e-17,-266.672,556.141)">
                    <rect x="436.821" y="675.987" width="19.926" height="27.506" style="fill:rgb(230,171,0);"/>
                </g>
                <g transform="matrix(6.12323e-17,-1,1,6.12323e-17,-266.672,520.471)">
                    <rect x="436.821" y="675.987" width="19.926" height="27.506" style="fill:rgb(230,171,0);"/>
                </g>
            </g>
            <g transform="matrix(0.995437,0,0,1.0129,550.554,-5.82168)">
                <g transform="matrix(6.12323e-17,-1,1,6.12323e-17,-266.672,1019.17)">
                    <rect x="436.821" y="675.987" width="19.926" height="27.506" style="fill:rgb(230,171,0);"/>
                </g>
                <g transform="matrix(6.12323e-17,-1,1,6.12323e-17,-266.672,1053.88)">
                    <rect x="436.821" y="675.987" width="19.926" height="27.506" style="fill:rgb(230,171,0);"/>
                </g>
                <g transform="matrix(6.12323e-17,-1,1,6.12323e-17,-266.672,1090.58)">
                    <rect x="436.821" y="675.987" width="19.926" height="27.506" style="fill:rgb(230,171,0);"/>
                </g>
                <g transform="matrix(6.12323e-17,-1,1,6.12323e-17,-266.672,983.182)">
                    <rect x="436.821" y="675.987" width="19.926" height="27.506" style="fill:rgb(230,171,0);"/>
                </g>
                <g transform="matrix(6.12323e-17,-1,1,6.12323e-17,-266.672,947.805)">
                    <rect x="436.821" y="675.987" width="19.926" height="27.506" style="fill:rgb(230,171,0);"/>
                </g>
                <g transform="matrix(6.12323e-17,-1,1,6.12323e-17,-266.672,911.454)">
                    <rect x="436.821" y="675.987" width="19.926" height="27.506" style="fill:rgb(230,171,0);"/>
                </g>
                <g transform="matrix(6.12323e-17,-1,1,6.12323e-17,-266.672,877.174)">
                    <rect x="436.821" y="675.987" width="19.926" height="27.506" style="fill:rgb(230,171,0);"/>
                </g>
                <g transform="matrix(6.12323e-17,-1,1,6.12323e-17,-266.672,841.504)">
                    <rect x="436.821" y="675.987" width="19.926" height="27.506" style="fill:rgb(230,171,0);"/>
                </g>
                <g transform="matrix(6.12323e-17,-1,1,6.12323e-17,-266.672,805.833)">
                    <rect x="436.821" y="675.987" width="19.926" height="27.506" style="fill:rgb(230,171,0);"/>
                </g>
                <g transform="matrix(6.12323e-17,-1,1,6.12323e-17,-266.672,770.163)">
                    <rect x="436.821" y="675.987" width="19.926" height="27.506" style="fill:rgb(230,171,0);"/>
                </g>
                <g transform="matrix(6.12323e-17,-1,1,6.12323e-17,-266.672,734.493)">
                    <rect x="436.821" y="675.987" width="19.926" height="27.506" style="fill:rgb(230,171,0);"/>
                </g>
                <g transform="matrix(6.12323e-17,-1,1,6.12323e-17,-266.672,698.822)">
                    <rect x="436.821" y="675.987" width="19.926" height="27.506" style="fill:rgb(230,171,0);"/>
                </g>
                <g transform="matrix(6.12323e-17,-1,1,6.12323e-17,-266.672,663.152)">
                    <rect x="436.821" y="675.987" width="19.926" height="27.506" style="fill:rgb(230,171,0);"/>
                </g>
                <g transform="matrix(6.12323e-17,-1,1,6.12323e-17,-266.672,627.482)">
                    <rect x="436.821" y="675.987" width="19.926" height="27.506" style="fill:rgb(230,171,0);"/>
                </g>
                <g transform="matrix(6.12323e-17,-1,1,6.12323e-17,-266.672,591.812)">
                    <rect x="436.821" y="675.987" width="19.926" height="27.506" style="fill:rgb(230,171,0);"/>
                </g>
                <g transform="matrix(6.12323e-17,-1,1,6.12323e-17,-266.672,556.141)">
                    <rect x="436.821" y="675.987" width="19.926" height="27.506" style="fill:rgb(230,171,0);"/>
                </g>
                <g transform="matrix(6.12323e-17,-1,1,6.12323e-17,-266.672,520.471)">
                    <rect x="436.821" y="675.987" width="19.926" height="27.506" style="fill:rgb(230,171,0);"/>
                </g>
            </g>
            <g transform="matrix(0.995437,0,0,1.0129,1.38879,-5.82168)">
                <rect x="571.76" y="216.503" width="34.76" height="34.979" style="fill:rgb(230,171,0);"/>
                <g transform="matrix(1,0,0,1,106.432,0)">
                    <rect x="571.76" y="216.503" width="34.76" height="34.979" style="fill:rgb(230,171,0);"/>
                </g>
                <g transform="matrix(1,0,0,1,213.865,0)">
                    <rect x="571.76" y="216.503" width="34.76" height="34.979" style="fill:rgb(230,171,0);"/>
                </g>
            </g>
            <g transform="matrix(0.995437,0,0,1.0129,1.38879,120.539)">
                <rect x="571.76" y="216.503" width="34.76" height="34.979" style="fill:rgb(230,171,0);"/>
                <g transform="matrix(1,0,0,1,106.432,0)">
                    <rect x="571.76" y="216.503" width="34.76" height="34.979" style="fill:rgb(230,171,0);"/>
                </g>
                <g transform="matrix(1,0,0,1,213.865,0)">
                    <rect x="571.76" y="216.503" width="34.76" height="34.979" style="fill:rgb(230,171,0);"/>
                </g>
            </g>
            <g transform="matrix(0.995437,0,0,1.0129,1.38879,246.9)">
                <rect x="571.76" y="216.503" width="34.76" height="34.979" style="fill:rgb(230,171,0);"/>
                <g transform="matrix(1,0,0,1,106.432,0)">
                    <rect x="571.76" y="216.503" width="34.76" height="34.979" style="fill:rgb(230,171,0);"/>
                </g>
                <g transform="matrix(1,0,0,1,213.865,0)">
                    <rect x="571.76" y="216.503" width="34.76" height="34.979" style="fill:rgb(230,171,0);"/>
                </g>
            </g>
            <g transform="matrix(0.995437,0,0,1.0129,1.38879,-5.82168)">
                <rect x="15.737" y="16.276" width="33.669" height="33.743" style="fill:rgb(230,171,0);"/>
            </g>
            <g transform="matrix(0.995437,0,0,1.0129,1.38879,-5.82168)">
                <rect x="15.737" y="665.421" width="33.669" height="35.653" style="fill:rgb(230,171,0);"/>
            </g>
            <g transform="matrix(0.995437,0,0,1.0129,1.38879,-5.82168)">
                <ellipse cx="464.607" cy="643.75" rx="9.021" ry="9.004" style="fill:rgb(230,171,0);"/>
            </g>
        </g>
    </g>
</svg>
