<?xml version="1.0" encoding="utf-8"?>
<!-- Generator: Adobe Illustrator 22.1.0, SVG Export Plug-In . SVG Version: 6.00 Build 0)  -->
<svg version="1.1" id="Layer_1" xmlns="http://www.w3.org/2000/svg" xmlns:xlink="http://www.w3.org/1999/xlink" x="0px" y="0px"
	 viewBox="0 0 1000 700" style="enable-background:new 0 0 1000 700;" xml:space="preserve">
<style type="text/css">
	.st0{fill:#FFFFFF;stroke:#000000;stroke-miterlimit:10;}
	.st1{fill:#FC60A8;}
</style>
<path class="st0" d="M258.2,490.2c4,0,7.3,1.4,10.1,4.2c2.8,2.8,4.2,6.2,4.2,10.1v49.6h-50.7c-4,0-7.3-1.4-10.1-4.2
	s-4.2-6.2-4.2-10.1v-23.6h53.1v-11.7c0-0.7-0.2-1.2-0.7-1.7s-1-0.7-1.7-0.7h-50.7v-11.9L258.2,490.2L258.2,490.2z M260.6,542.2
	v-14.1h-41.2v11.7c0,0.7,0.2,1.2,0.7,1.7s1,0.7,1.7,0.7L260.6,542.2L260.6,542.2z M375.3,490.2H388l-24,63.9h-9.7l-21.5-47.5
	l-20.3,47.5l-0.2-0.1l0.1,0.1h-9.6l-25.1-63.9h12.6l17.3,42.4l18.4-42.4h13.6l19.5,42.4L375.3,490.2z M442.5,490.2
	c4,0,7.3,1.4,10.1,4.2c2.8,2.8,4.2,6.2,4.2,10.1v23.6h-53.1v11.7c0,0.7,0.2,1.2,0.7,1.7s1,0.7,1.7,0.7h50.7v11.9h-50.7
	c-4,0-7.3-1.4-10.1-4.2c-2.8-2.8-4.2-6.2-4.2-10.1v-35.3c0-4,1.4-7.3,4.2-10.1c2.8-2.8,6.2-4.2,10.1-4.2L442.5,490.2L442.5,490.2z
	 M403.7,516.2h41.2v-11.7c0-0.7-0.2-1.2-0.7-1.7s-1-0.7-1.7-0.7h-36.4c-0.7,0-1.2,0.2-1.7,0.7s-0.7,1-0.7,1.7L403.7,516.2
	L403.7,516.2z M532.7,504.6v2.4h-11.9v-2.4c0-0.7-0.2-1.2-0.7-1.7s-1-0.7-1.7-0.7H482c-0.7,0-1.2,0.2-1.7,0.7s-0.7,1-0.7,1.7v9.3
	c0,0.7,0.2,1.2,0.7,1.7s1,0.7,1.7,0.7h36.4c4,0,7.3,1.4,10.1,4.2s4.2,6.2,4.2,10.1v9.3c0,4-1.4,7.3-4.2,10.1s-6.2,4.2-10.1,4.2H482
	c-4,0-7.3-1.4-10.1-4.2s-4.2-6.2-4.2-10.1v-2.4h11.9v2.4c0,0.7,0.2,1.2,0.7,1.7s1,0.7,1.7,0.7h36.4c0.7,0,1.2-0.2,1.7-0.7
	s0.7-1,0.7-1.7v-9.3c0-0.7-0.2-1.2-0.7-1.7s-1-0.7-1.7-0.7H482c-4,0-7.3-1.4-10.1-4.2c-2.8-2.8-4.2-6.2-4.2-10.1v-9.3
	c0-4,1.4-7.3,4.2-10.1c2.8-2.8,6.2-4.2,10.1-4.2h36.4c4,0,7.3,1.4,10.1,4.2C531.3,497.2,532.7,500.6,532.7,504.6z M557.9,490.2h36.4
	c4,0,7.3,1.4,10.1,4.2c2.8,2.8,4.2,6.2,4.2,10.1v35.3c0,4-1.4,7.3-4.2,10.1s-6.2,4.2-10.1,4.2h-36.4c-4,0-7.3-1.4-10.1-4.2
	s-4.2-6.2-4.2-10.1v-35.3c0-4,1.4-7.3,4.2-10.1C550.6,491.6,554,490.2,557.9,490.2L557.9,490.2z M594.3,502.1h-36.4
	c-0.7,0-1.2,0.2-1.7,0.7s-0.7,1-0.7,1.7v35.3c0,0.7,0.2,1.2,0.7,1.7s1,0.7,1.7,0.7h36.4c0.7,0,1.2-0.2,1.7-0.7s0.7-1,0.7-1.7v-35.3
	c0-0.7-0.2-1.2-0.7-1.7C595.5,502.4,595,502.1,594.3,502.1z M701.8,490.2c4,0,7.3,1.4,10.1,4.2c2.8,2.8,4.2,6.2,4.2,10.1v49.6h-11.8
	v-49.6c0-0.7-0.2-1.2-0.7-1.7s-1.1-0.7-1.8-0.7h-25.2c-0.7,0-1.2,0.2-1.7,0.7s-0.7,1-0.7,1.7v49.6h-11.9v-49.6
	c0-0.7-0.2-1.2-0.7-1.7s-1-0.7-1.7-0.7h-25.3c-0.7,0-1.2,0.2-1.7,0.7s-0.7,1-0.7,1.7v49.6h-11.9v-63.9L701.8,490.2L701.8,490.2z
	 M778.3,490.2c4,0,7.3,1.4,10.1,4.2c2.8,2.8,4.2,6.2,4.2,10.1v23.6h-53.1v11.7c0,0.7,0.2,1.2,0.7,1.7s1,0.7,1.7,0.7h50.7v11.9h-50.7
	c-4,0-7.3-1.4-10.1-4.2s-4.2-6.2-4.2-10.1v-35.3c0-4,1.4-7.3,4.2-10.1c2.8-2.8,6.2-4.2,10.1-4.2L778.3,490.2L778.3,490.2z
	 M739.5,516.2h41.2v-11.7c0-0.7-0.2-1.2-0.7-1.7s-1-0.7-1.7-0.7h-36.4c-0.7,0-1.2,0.2-1.7,0.7s-0.7,1-0.7,1.7L739.5,516.2
	L739.5,516.2z"/>
<path class="st1" d="M792.5,258.1l-150-137.6l-21.1,23l125,114.6H253.7l125-114.7l-21.1-23l-150,137.7h-0.1v90.7
	c0,41,39.5,74.4,88,74.4H388c48.5,0,88-33.4,88-74.4v-59.6h48v59.6c0,41,39.5,74.4,88,74.4h92.5c48.5,0,88-33.4,88-74.4V258.1z"/>
</svg>
