<svg xmlns="http://www.w3.org/2000/svg" width="76.8" height="1.503in" shape-rendering="geometricPrecision" text-rendering="geometricPrecision" image-rendering="optimizeQuality" fill-rule="evenodd" clip-rule="evenodd" viewBox="0 0 800 1503"><path fill="#404040" d="M0 63h794l6 2v154c-5 0-9 6-9 13s4 13 9 13v74c-5 0-9 6-9 13s4 13 9 13v74c-5 0-9 6-9 13s4 13 9 13v74c-5 0-9 6-9 13s4 13 9 13v74c-5 0-9 6-9 13s4 13 9 13v74c-5 0-9 6-9 13s4 13 9 13v73c-5 0-9 6-9 13s4 13 9 13v74c-5 0-9 6-9 13s4 13 9 13v74c-5 0-9 6-9 13s4 13 9 13v74c-5 0-9 6-9 13s4 13 9 13v74c-5 0-9 6-9 13s4 13 9 13v74c-5 0-9 6-9 13s4 13 9 13v38l-59 121H61L0 1382v-38c7 0 12-6 12-13s-5-13-12-13v-74c7 0 12-6 12-13s-5-13-12-13v-74c7 0 12-6 12-13s-5-13-12-13v-74c7 0 12-6 12-13s-5-13-12-13v-74c7 0 12-6 12-13s-5-13-12-13v-74c7 0 12-6 12-13s-5-13-12-13v-73c7 0 12-6 12-13s-5-13-12-13v-74c7 0 12-6 12-13s-5-13-12-13v-74c7 0 12-6 12-13s-5-13-12-13v-74c7 0 12-6 12-13s-5-13-12-13v-74c7 0 12-6 12-13s-5-13-12-13v-74c7 0 12-6 12-13s-5-13-12-13V63z"/><path fill="#666" d="M800 1344v38l-59 121h-7l60-121v-42c1 2 4 4 6 4zM794 63l6 2v154h-1v1h-3v1h-1v1h-1v1V63zm6 182v74h-1v1h-3v1h-1v1h-1v1-82 1h1v1h1l1 1h2v1h1zm0 100v74h-1v1h-3v1h-1v1h-1v1-82 1h1v1h1l1 1h2v1h1zm0 100v74h-1v1h-3v1h-1v1h-1v1-82 1h1v1h1l1 1h2v1h1zm0 100v74h-1v1h-3v1h-1v1h-1v1-82 1h1v1h1l1 1h2v1h1zm0 100v74h-1v1h-3v1h-1v1h-1v1-82 1h1v1h1l1 1h2v1h1zm0 100v73h-1v1h-3v1h-1v1h-1v1-81 1h1v1h1l1 1h2v1h1zm0 99v74h-1v1h-3v1h-1v1h-1v1-82 1h1v1h1l1 1h2v1h1zm0 100v74h-1v1h-3v1h-1v1h-1v1-82 1h1v1h1l1 1h2v1h1zm0 100v74h-1v1h-3v1h-1v1h-1v1-82 1h1v1h1l1 1h2v1h1zm0 100v74h-1v1h-3v1h-1v1h-1v1-82 1h1v1h1l1 1h2v1h1zm0 100v74h-1v1h-3v1h-1v1h-1v1-82 1h1v1h1l1 1h2v1h1z"/><path fill="#8C8C8C" d="M800 1382l-59 121h-7l60-121z"/><path fill="#00A0E3" d="M794 671v-22c-8-2-14-10-14-18 0-9 6-16 14-19v-18H579c-41 5-39 73 0 77h215z"/><g fill="#666"><path d="M214 1260h39v39h-39zM398 1241h63v30h-63zM60 94h142v86H60zM329 1210h43v22h-43zM150 203h63v31h-63zM496 379v-64h30v64zM437 386v-43h22v43zM453 665v-42h22v42zM359 665v-43h22v43zM307 665v-42h22v42zM269 665v-42h22v42zM157 665v-42h22v42zM402 659v-63h30v63zM499 664v-63h30v63zM145 254h43v22h-43zM610 402h43v22h-43zM610 322h43v22h-43zM610 282h43v21h-43z"/><path d="M329 1210h43v22h-43zM294 1307h43v22h-43zM313 1248h43v22h-43zM289 1389v-43h21v43zM288 1456v-42h22v42zM139 1242h43v22h-43zM155 1299h24v15h-24zM248 1350v-24h14v24zM228 1234v-24h14v24zM528 1263v-42h22v42zM644 1262v-42h22v42zM601 1287v-64h30v64zM314 309h97v13l10 9v51l-10 10v12h-97v-13l-9-9v-51l9-8zM646 731v-42h22v42z"/></g><path fill="#CCC" d="M134 1386v65H99v-65z"/><path fill="#E5E5E5" d="M134 1449v2H99v-2z"/><path fill="#CCC" d="M216 1387v65h-35v-65z"/><path fill="#E5E5E5" d="M216 1449v3h-35v-3z"/><path fill="#CCC" d="M170 1363v23h-25v-23z"/><path fill="#E5E5E5" stroke="#8C8C8C" stroke-width="3" d="M117 1372h80c4 0 7 3 7 8v78c0 4-3 8-7 8h-80c-4 0-7-4-7-8v-78c0-5 3-8 7-8z"/><path fill="#E5E5E5" stroke="#8C8C8C" stroke-width="3" d="M157 1392c15 0 28 12 28 27s-13 28-28 28-27-13-27-28 12-27 27-27z"/><path fill="#C93" d="M157 1412c4 0 7 3 7 7s-3 7-7 7-7-3-7-7 3-7 7-7z"/><path fill="#CCC" d="M388 1383h316v80H388z"/><path fill="#999" d="M388 1383h18v80h-18zM684 1383h20v80h-20z"/><path fill="#C93" d="M435 1383h41v80h-41z"/><g><path fill="#666" d="M443 247v17h14v-17z"/><path fill="#999" d="M455 249v15h2v-15z"/><path fill="#666" d="M418 247v17h13v-17z"/><path fill="#999" d="M430 249v15h1v-15z"/><path fill="#666" d="M392 247v17h14v-17z"/><path fill="#999" d="M405 249v15h1v-15z"/><path fill="#666" d="M367 247v17h13v-17z"/><path fill="#999" d="M379 249v15h1v-15z"/><path fill="#666" d="M341 247v17h14v-17z"/><path fill="#999" d="M354 249v15h1v-15z"/><path fill="#B3B3B3" d="M269 16h260v235H269z"/><path fill="#CCC" d="M269 249v2h260v-2z"/><path fill="#333" d="M328 35v216h142V35z"/><path fill="#B3B3B3" d="M532 21v-6l9-15h5z"/><path fill="#CCC" d="M532 15V7l9-7z"/><path fill="#B3B3B3" d="M252 0h5l9 15v6z"/><path fill="#CCC" d="M257 0l9 7v8zM532 243l-3 8h-35s32-2 33-4c1-3-2-4-2-4h7zM266 243l3 8h35s-32-2-33-4c-1-3 2-4 2-4h-7z"/><path fill="#E6E6E6" d="M313 251v-23h22v23h6v-8h116v8h7v-23h22v23h46V16H266v235h47zM464 60V48h22v12c6 4 10 11 10 18 0 9-3 16-10 19v62h-22V97c-7-3-11-10-11-19 0-8 4-15 11-18zm-150 0V48h22v12c6 4 9 11 9 18 0 9-2 16-9 19v62h-22V97c-7-3-12-10-12-19 0-8 5-15 12-18z"/><path fill="#F2F2F2" d="M526 16h6v227h-21z"/><path fill="#999" d="M266 16l8 151 8 76h-16z"/><path fill="#CCC" d="M464 157v2h22v-2zM314 157v2h22v-2z"/><path fill="#B3B3B3" d="M279 19v9h240v-9z"/><path fill="#CCC" d="M279 16v4h240v-4z"/></g><g><path fill="#C93" d="M724 173l-18-30 18-28-29 18-28-18 18 28-18 28 28-18z"/><path fill="#C93" d="M700 162l-5-3-4 3 4 21zM679 143l-2 4-21-4 21-5zM714 148l-3-5 3-5 21 5zM700 124l-5-21-4 21 4 3z"/><path fill="#E6AB00" d="M724 173l-18-30 18-28-19 28zM700 162l-5-3 4 3-4 21zM677 147l1-4-1-5 2 5z"/><path fill="#E6AB00" d="M714 148l18-5-18-5 21 5zM700 124l-5-21 4 21-4 3zM695 133l-28-18 28 19zM695 152l-28 19 28-18z"/></g><g><path fill="#CCC" d="M583 615h63v35h-63z"/><path fill="#E5E5E5" d="M595 618h39v28h-39z"/><path fill="#1B5BB3" d="M607 627h15v11h-15z"/></g><g><path fill="#CCC" d="M179 461v22h-35v-22z"/><path fill="#E5E5E5" d="M179 481v2h-35v-2z"/><path fill="#CCC" d="M179 522v22h-35v-22z"/><path fill="#E5E5E5" d="M179 542v2h-35v-2z"/><path fill="#CCC" d="M306 522v22h-35v-22z"/><path fill="#E5E5E5" d="M306 542v2h-35v-2z"/><path fill="#CCC" d="M306 461v22h-35v-22z"/><path fill="#E5E5E5" d="M306 481v2h-35v-2z"/><path fill="#999" d="M296 444v118H155V444z"/><path fill="#B2B2B2" d="M296 562h-3V444h3z"/><path fill="#8C8C8C" d="M158 562h-3V444h3z"/><path d="M225 469c20 0 35 15 35 34s-15 35-35 35c-19 0-34-16-34-35s15-34 34-34z"/><path fill="#404040" d="M224 472c17 0 31 14 31 31 0 18-14 32-31 32-18 0-32-14-32-32 0-17 14-31 32-31z"/><path fill="#999" d="M224 472c17 0 31 14 31 31 0 18-14 32-31 32 40-6 40-58 0-63z"/></g><g fill-rule="nonzero"><path fill="#00A0E3" d="M174 429c0 1-1 3-1 4-1 1-1 2-2 2-1 1-2 2-4 2-1 1-2 1-4 1s-3 0-5-1c-1 0-2 0-3-1v-4c0 1 1 1 2 1 0 0 1 1 2 1h4c2 0 4 0 5-1s2-2 2-4c0-1 0-1-1-2 0 0 0-1-1-1 0-1-1-1-2-2-1 0-2-1-3-1-2-1-3-1-4-2l-2-2c-1-1-1-2-1-3-1-1-1-2-1-3s1-2 1-3 1-2 2-3c1 0 2-1 3-1 1-1 2-1 4-1s3 0 4 1c2 0 3 0 4 1l-1 3c-1 0-2-1-4-1h-3c-2 0-3 0-4 1s-2 2-2 3 0 2 1 2c0 1 0 2 1 2 0 0 1 1 2 1 1 1 2 1 3 2 1 0 2 1 3 1 1 1 2 2 3 2 0 1 1 2 1 3s1 2 1 3zm22 8h-16v-31h16v3h-12v10h12v4h-12v11h12v3zm17 0h-4v-28h-9v-3h22v3h-9v28zm36-31v25l-3 3-3 3c-2 0-3 1-5 1s-4-1-5-1c-2-1-3-1-4-2s-2-3-2-4c-1-2-1-3-1-5v-20h4v20c0 3 1 5 2 6 1 2 3 2 6 2h3c1-1 2-1 2-2 1-1 1-2 2-3v-23h4zm28 9c0 1-1 2-1 4 0 1-1 2-2 3s-2 2-4 2c-1 1-3 1-5 1h-3v12h-4v-31h12c2 1 3 1 4 2s1 2 2 3c0 1 1 2 1 4zm-15 7h2c2 0 3-1 4-1s2 0 2-1c1 0 1-1 2-2v-3c0-2 0-3-1-4-2-1-3-2-6-2h-3v13zM474 425v13h-4v-32h8c4 0 7 1 9 2 1 2 2 4 2 7v3c-1 1-1 2-2 3 0 0-1 1-2 1 0 1-1 1-2 1l9 15h-5l-8-13h-5zm0-4h7c1 0 2-1 2-1l2-2v-3-2c-1-1-1-2-2-2 0-1-1-1-2-1h-7v11zm39 17h-17v-32h17v4h-13v9h12v4h-12v11h13v4zm23-9v4l-3 3c-1 0-2 1-3 1-1 1-3 1-4 1h-5c-1-1-2-1-3-1v-4h1c1 1 2 1 2 1h2c1 1 2 1 3 1 2 0 4-1 5-2s1-2 1-3v-2c0-1-1-2-1-2-1-1-1-1-2-1-1-1-2-1-4-2-1 0-2-1-3-2-1 0-2-1-2-2-1 0-1-1-2-2v-3c0-2 0-3 1-4 0-1 1-2 2-2 1-1 1-1 3-2h8c1 0 3 1 4 1l-2 4c-1-1-2-1-3-1-1-1-2-1-3-1-2 0-4 1-5 1 0 1-1 2-1 4v2c1 0 1 1 1 1 1 1 2 1 2 2 1 0 2 1 3 1 2 1 3 1 4 2 1 0 2 1 2 2 1 0 1 1 2 2v3zm23 9h-16v-32h16v4h-12v9h11v4h-11v11h12v4zm16 0h-4v-28h-9v-4h22v4h-9v28zM681 248c2 0 3 0 4 1 1 0 1 0 2 1s1 2 2 3c0 0 1 1 1 3 0-3 1-5 3-7 1-1 3-2 5-2s3 0 4 1c2 0 3 1 4 2s1 2 2 4c0 2 1 4 1 6 0 1-1 3-1 5 0 1-1 3-1 4h-4c0-1 1-3 1-5 1-1 1-3 1-4 0-2 0-3-1-4 0-1 0-2-1-3-1 0-1-1-2-1s-2-1-3-1-2 1-3 1l-2 2c0 1 0 2-1 3v7h-4v-4-3c0-1-1-2-1-2-1-1-2-2-3-2 0 0-1-1-2-1s-2 1-2 1c-1 0-2 1-2 1-1 1-1 1-1 2v7c1 1 2 2 2 4l-3 2c0-1-1-1-1-2s-1-2-1-3c0 0-1-1-1-2v-4c0-1 0-3 1-4 0-1 1-2 1-3 1-1 2-2 3-2 1-1 2-1 3-1zm-8-27v-5l35 12v5l-35 11v-5l22-7c2 0 3 0 5-1 1 0 2 0 3-1-1 0-2 0-3-1-2 0-3 0-5-1l-22-7zm8-27h4l2 2c1 0 1 1 2 2 0 1 1 2 1 3 0-3 1-5 3-6 1-2 3-2 5-2h4c2 1 3 2 4 3s1 2 2 4c0 1 1 3 1 5s-1 4-1 5c0 2-1 3-1 5h-4c0-2 1-3 1-5 1-2 1-3 1-5 0-1 0-2-1-3 0-1 0-2-1-3s-1-1-2-1c-1-1-2-1-3-1s-2 0-3 1c0 0-1 1-2 1 0 1 0 2-1 3v7h-4v-3-3c0-1-1-2-1-3-1-1-2-1-3-1 0-1-1-1-2-1s-2 0-2 1c-1 0-2 0-2 1-1 0-1 1-1 2v7c1 1 2 2 2 3l-3 2s-1-1-1-2c0 0-1-1-1-2s-1-2-1-3v-3c0-2 0-3 1-4 0-2 1-3 1-4 1-1 2-1 3-2h3zM694 351h14v5h-34v-9c0-4 0-7 2-9s4-3 8-3h3c1 1 2 1 3 2l2 2c0 1 1 2 1 3l15-10v5l-14 9v5zm-4 0v-4-3c0-1-1-2-1-3-1 0-2-1-2-1h-6c-1 0-2 1-2 1-1 1-1 2-1 3s-1 2-1 3v4h13zm9-42c2 0 3 0 4 1 1 0 2 1 3 2s2 2 2 4c1 1 1 3 1 5 0 1 0 3-1 4 0 2 0 3-1 4h-4s1-1 1-2v-2c1 0 1-1 1-2v-2c0-3 0-5-1-6s-3-2-4-2h-3c0 1-1 1-1 2-1 0-1 1-2 2 0 1-1 2-2 4 0 1-1 2-1 3l-3 3c0 1-1 1-2 1-1 1-3 1-4 1s-3 0-4-1c-1 0-2-1-2-2-1-1-2-2-2-3-1-2-1-3-1-5 0-1 0-3 1-5 0-1 1-3 1-4l4 2c-1 1-1 2-1 3-1 2-1 3-1 4 0 2 1 4 1 5 1 1 3 1 4 1h2c1 0 2-1 2-1l2-2c0-1 1-2 1-4 1-1 1-2 2-3 0-1 1-2 2-3s2-1 3-2h3zm9-17v4h-30v10h-4v-24h4v10h30zM674 458v-5l35 12v4l-35 12v-5l22-7c1-1 3-1 4-1 1-1 3-1 4-1-1 0-3-1-4-1s-3-1-4-1l-22-7zm0-10v-9-6c1-1 1-2 2-3l3-3c1 0 2-1 4-1 1 0 2 1 3 1 0 0 1 1 2 1 0 1 1 2 1 2 1 1 1 2 1 3h1v-3c1-1 1-2 2-2 0-1 1-2 2-2s2-1 4-1c1 0 3 1 4 1 1 1 2 2 3 2 1 1 1 3 2 4 0 1 1 3 1 5v11h-35zm15-4v-6c0-1 0-2-1-3 0-1 0-2-1-3 0 0-1-1-2-1h-2c-2 0-3 0-4 2-1 1-1 3-1 6v5h11zm3 0h13v-6c0-2 0-3-1-4 0-1 0-2-1-2 0-1-1-1-2-1-1-1-2-1-3-1 0 0-1 0-2 1-1 0-1 0-2 1 0 0-1 1-1 2s-1 2-1 4v6zm17-46l-11 4v13l11 3v5l-35-13v-4l35-13v5zm-15 5l-10 3c0 1-1 1-1 1h-1c-1 0-1 1-2 1h-1 1c1 1 1 1 2 1h1l1 1 10 3v-10zm15-25v5h-31v10h-4v-24h4v9h31zM690 573v-12h17c0 1 0 2 1 3v3s0 1 1 2v4c0 2-1 4-2 6 0 2-2 4-3 5-2 2-4 3-6 3-2 1-4 1-7 1s-5 0-8-1c-2-1-4-2-5-3-2-2-3-3-4-5-1-3-1-5-1-8v-5c1-1 1-3 2-4l4 1c0 1-1 2-1 2 0 1 0 2-1 2v5c0 2 0 3 1 5 0 1 1 3 3 4 1 1 2 1 4 2 2 0 4 1 6 1s4-1 5-1c2 0 4-1 5-2s2-2 3-4c0-1 1-3 1-5v-2-2c-1 0-1-1-1-1v-1h-10v7h-4zm18-46v5l-29 17h29v4h-35v-5l29-17h-4-3-22v-4h35zm-18-35c3 0 6 0 8 1l6 3 3 6c1 2 1 4 1 7v9h-35v-10c0-3 1-5 2-7 0-2 1-3 3-5 1-1 3-2 5-3s5-1 7-1zm1 5h-6c-2 1-3 2-5 3-1 1-1 2-2 3-1 2-1 3-1 5v5h27v-4c0-4-1-7-3-9s-6-3-10-3z"/><path fill="#404040" d="M691 633c3 0 5 0 7 1 3 1 5 2 6 3 1 2 3 4 3 6 1 2 1 4 1 7v8h-34v-9c0-3 0-5 1-7s2-3 3-5c1-1 3-2 5-3 3-1 5-1 8-1zm0 5h-6c-2 1-3 2-4 3l-3 3c0 2-1 3-1 5v5h28v-4c0-4-2-7-4-9s-6-3-10-3zm17-15l-30-13v18h-4v-22h3l31 13v4z"/><path fill="#00A0E3" d="M690 732c3 0 6 0 8 1 2 0 4 2 6 3 1 1 2 3 3 5s1 5 1 7v9h-35v-10c0-2 1-4 1-6 1-2 2-4 4-5 1-2 3-3 5-3 2-1 5-1 7-1zm1 4c-3 0-5 0-6 1-2 1-4 1-5 2s-2 3-2 4c-1 1-1 3-1 5v5h27v-4c0-4-1-7-3-10-2-2-6-3-10-3zm2-10h-5c-1 0-3-1-4-1-2-1-3-1-5-2l-3-3c-1-1-2-2-2-4-1-1-1-3-1-5v-1-1-1-1h4v7c0 1 1 2 1 3 1 1 2 2 3 2 0 1 1 1 2 1 1 1 3 1 4 1h3l-1-1c-1 0-1-1-2-2v-2c-1 0-1-1-1-2 0-2 1-3 1-4 1-1 1-2 2-3s2-2 3-2c2-1 3-1 5-1s3 0 5 1c1 0 2 1 3 2l3 3c0 2 1 3 1 5 0 1-1 3-1 4-1 1-2 3-3 4s-3 1-5 2-4 1-7 1zm12-11c0-1 0-2-1-3 0-1 0-1-1-2s-2-1-3-1c-1-1-2-1-3-1s-2 0-3 1c-1 0-2 0-2 1-1 0-1 1-2 2v5c1 1 1 2 2 3 0 0 1 1 2 1s1 1 2 1 2-1 3-1 2-1 3-1l2-2c1-1 1-2 1-3zM690 830c3 0 5 0 8 1 2 1 4 2 5 4 2 1 3 3 3 5 1 2 2 4 2 7v9h-35v-10c0-2 0-5 1-7s2-3 3-5c2-1 3-2 6-3 2-1 4-1 7-1zm0 5c-2 0-4 0-6 1-2 0-3 1-4 2s-2 2-3 4v9h27v-4c0-4-1-7-4-9-2-2-5-3-10-3zm-4-21c0-1 0-3 1-4 0-2 1-3 2-4s2-2 3-2c1-1 3-1 4-1 2 0 4 0 5 1 2 0 3 1 4 2s2 3 2 4c1 2 1 4 1 6v4c-1 1-1 2-1 2 0 1-1 1-1 2h-4c0-1 1-1 1-2s1-1 1-2v-2-3-3c0-1-1-2-1-2-1-1-2-2-3-2s-2-1-3-1c-2 0-4 1-5 3-1 1-2 3-2 6v4l1 1-2 2-16-1v-16h4v12l10 1s0-1-1-2v-3zM691 932c2 0 5 0 7 1l6 3c1 2 2 3 3 6 1 2 1 4 1 7v8h-34v-9c0-3 0-5 1-7 0-2 1-3 3-5 1-1 3-2 5-3s5-1 8-1zm0 4c-3 0-5 1-6 1-2 1-3 2-4 3-2 1-2 2-3 3 0 2-1 3-1 5v5h27v-4c0-4-1-7-3-9s-6-4-10-4zm9-33v5h8v4h-8v16h-3l-24-15v-5h24v-5h3zm-3 9h-19l1 1h1l1 1h1l15 10v-12zM690 1030c3 0 6 0 8 1l6 3 3 6c1 2 1 4 1 7v8h-35v-9c0-3 1-5 1-7 1-2 2-3 4-5 1-1 3-2 5-3s5-1 7-1zm1 5h-6c-2 1-4 2-5 3s-2 2-2 3c-1 2-1 3-1 5v5h27v-4c0-4-1-7-3-9s-6-3-10-3zm-9-31c1 0 2 0 3 1 1 0 1 1 2 1 1 1 1 2 2 3 0 0 1 2 1 3 0-3 1-5 3-7 1-1 3-2 5-2s3 0 4 1c2 0 3 1 4 2s1 3 2 4c0 2 1 4 1 6s-1 3-1 5c0 1-1 3-1 4h-4c0-1 1-3 1-5 1-1 1-3 1-4 0-2 0-3-1-4 0-1 0-2-1-3-1 0-1-1-2-1s-2-1-3-1-2 1-3 1c0 1-1 1-2 2 0 1 0 2-1 3v7h-4v-3-4c0-1-1-2-1-2-1-1-2-2-3-2h-4c-1 0-2 1-2 1-1 1-1 1-1 2v7c1 1 2 2 2 4l-3 2c0-1-1-1-1-2s-1-2-1-3c0 0-1-1-1-2v-4c0-1 0-3 1-4 0-1 1-2 1-3 1-1 2-2 3-2 1-1 2-1 4-1zM691 1130c3 0 5 0 8 1 2 1 4 2 5 3 2 2 3 4 3 6 1 2 2 4 2 7v9h-35v-10c0-3 0-5 1-7s2-3 3-5c2-1 3-2 6-3 2-1 4-1 7-1zm0 5h-6c-2 1-3 2-4 3l-3 3v10h27v-4c0-4-1-7-4-9-2-2-5-3-10-3zm18-32v22h-4l-9-9c-1-1-3-2-4-3s-2-2-3-2c-1-1-2-1-3-2h-6l-1 1-2 2v2c0 2 0 3 1 4 1 2 1 3 2 4l-3 2s-1-1-1-2c-1 0-1-1-1-2-1-1-1-2-1-3-1-1-1-2-1-3s1-3 1-4 1-2 2-3 2-1 3-2c1 0 2-1 4-1 1 0 2 1 3 1 2 0 3 1 4 2s2 1 4 2c1 1 2 3 3 4l7 6h1v-16h4zM690 1223c3 0 6 0 8 1l6 3 3 6c1 2 1 4 1 7v8h-35v-9c0-3 1-5 1-7 1-2 2-3 4-5 1-1 3-2 5-3s5-1 7-1zm1 5h-6c-2 1-4 2-5 3s-2 2-2 3c-1 2-1 3-1 5v5h27v-4c0-4-1-7-3-9-3-2-6-3-10-3zm17-25v4h-22-8s0 1 1 1c0 1 1 1 1 1v1l3 3-3 3-7-9v-4h35zM690 1331c3 0 6 0 8 1 2 0 4 2 6 3 1 1 2 3 3 5s1 5 1 7v9h-35v-10c0-2 1-4 2-6 0-2 1-4 3-5 1-2 3-3 5-3 2-1 5-1 7-1zm1 4c-3 0-5 0-6 1-2 0-3 1-5 2-1 1-1 2-2 4-1 1-1 3-1 5v5h27v-4c0-4-1-8-3-10s-6-3-10-3zm0-32c3 0 5 0 7 1 2 0 4 1 6 2 1 0 3 2 3 3 1 1 2 3 2 5s-1 4-2 5c0 1-2 3-3 3l-6 3h-15c-2-1-4-1-5-2-2-1-3-2-4-4-1-1-1-3-1-5s0-3 1-5c1-1 2-2 4-3 1-1 3-2 5-2 2-1 5-1 8-1zm0 18c2 0 4 0 6-1 2 0 3 0 4-1 2 0 2-1 3-2s1-2 1-3 0-2-1-3-1-1-3-2c-1-1-2-1-4-1s-4-1-6-1c-3 0-5 1-7 1-1 0-3 0-4 1s-2 1-3 2v6c1 1 2 2 3 2 1 1 3 1 4 1 2 1 4 1 7 1zM128 1335l-11 4v13l11 4v4l-35-13v-4l35-12v4zm-15 5l-10 4h-1s-1 0-1 1h-2-1c0 1 1 1 1 1h2l1 1h1l10 3v-10zm-2-34c2 0 5 0 7 1 2 0 4 1 6 2 1 1 3 2 3 3 1 2 2 3 2 5s-1 4-2 5c0 2-2 3-3 4-2 1-4 1-6 2h-15c-2-1-4-1-5-2-2-1-3-2-4-4-1-1-1-3-1-5s0-3 1-5l3-3c2-1 4-2 6-2 2-1 5-1 8-1zm0 18h6c2-1 3-1 4-2 1 0 2-1 3-2 1 0 1-1 1-3 0-1 0-2-1-3s-2-1-3-2c-1 0-2-1-4-1h-13c-1 0-3 1-4 1-1 1-2 1-3 2 0 1-1 2-1 3 0 2 1 3 1 3 1 1 2 2 3 2 1 1 3 1 4 2h7zM128 1235l-11 4v13l11 4v4l-35-13v-4l35-12v4zm-15 5l-10 4h-1s-1 0-1 1h-2-1c0 1 1 1 1 1h2l1 1h1l10 3v-10zm15-26v4h-22-8 1v1l1 1v1l3 3-3 2-7-9v-3h35zM128 1135l-11 4v13l11 4v4l-35-13v-4l35-12v4zm-15 5l-10 4h-1s-1 0-1 1h-2-1c0 1 1 1 1 1h2l1 1h1l10 3v-10zm15-33v21h-4l-9-8-3-3c-1-1-2-2-3-2-1-1-2-2-3-2s-3-1-4-1-1 1-2 1-1 1-2 1c0 1-1 1-1 2v6c1 1 2 3 3 4l-3 2-2-2c0-1-1-2-1-2 0-1-1-2-1-3v-3-4c1-1 2-2 2-3 1-1 2-2 3-2 1-1 3-1 4-1s3 0 4 1c1 0 2 1 4 1l3 3c1 1 3 2 4 3l7 7v-16h4zM128 1035l-11 4v13l11 4v4l-35-13v-4l35-12v4zm-15 5l-10 4h-1s-1 0-1 1h-2-1c0 1 1 1 1 1h2l1 1h1l10 3v-10zm-12-32h4l2 2 2 2c0 1 1 2 1 3 0-2 1-5 3-6 1-1 3-2 5-2s3 0 4 1c2 0 3 1 4 2s1 2 2 4c0 1 1 3 1 6 0 1-1 3-1 4 0 2-1 3-1 5h-4c0-2 1-3 1-5 1-1 1-3 1-4 0-2 0-3-1-4 0-1 0-2-1-3s-1-1-2-1c-1-1-2-1-3-1s-2 0-3 1l-2 2s0 1-1 2v7h-4v-3-3c0-1-1-2-2-3 0 0-1-1-2-1 0-1-1-1-2-1s-2 0-2 1c-1 0-2 0-2 1-1 0-1 1-1 2v7c1 1 2 2 2 3l-3 3c0-1-1-2-1-2 0-1-1-2-1-3s-1-2-1-3v-3-4c1-2 2-3 2-4 1 0 2-1 3-1 1-1 2-1 3-1zM128 935l-11 4v13l11 4v4l-35-13v-4l35-12v4zm-15 5l-10 4h-1s-1 0-1 1h-2-1c0 1 1 1 1 1h2l1 1h1l10 3v-10zm7-35v5h8v4h-8v16h-4l-23-16v-4h23v-5h4zm-4 9H98h1c0 1 0 1 1 1 0 0 1 0 1 1h1l14 10v-12zM128 835l-11 4v13l11 4v4l-35-13v-4l35-12v4zm-15 5l-10 4h-1s-1 0-1 1h-2-1c0 1 1 1 1 1h2l1 1h1l10 3v-10zm-6-22v-5c1-1 1-2 2-3s2-2 4-3h9l3 3c1 1 2 2 3 4 0 1 1 3 1 5 0 1-1 2-1 2v3s0 1-1 2v2h-4c0-1 0-2 1-2v-3s1-1 1-2v-2c0-1 0-2-1-3 0-1 0-2-1-3s-1-1-2-1c-1-1-2-1-4-1s-4 1-5 2-2 4-2 6v2c1 0 1 1 1 1v3l-1 2-17-1v-17h4v13l10 1v-2-3zM110 753c3 0 5 1 8 1 2 1 4 2 5 4 2 1 3 3 3 5 1 2 2 4 2 7v9H93v-10c0-2 0-4 1-6s2-4 3-5c2-2 3-3 6-4 2 0 4-1 7-1zm0 5c-2 0-4 0-6 1-2 0-3 1-4 2s-2 2-3 4v9h27v-3c0-5-1-8-4-10-2-2-5-3-10-3zm18-33l-11 4v13l11 4v4l-35-12v-4l35-13v4zm-15 5l-10 4h-1c-1 0-1 1-2 1h-1c-1 0-1 0-2 1h3c1 1 1 1 2 1h1l10 4v-11zm-17-28c0 2 1 3 1 5l3 3c1 1 3 2 4 2 2 1 4 1 6 1s4 0 6-1c2 0 3-1 5-2 1-1 2-2 2-3 1-2 1-3 1-5v-4c-1-1-1-3-1-4h4v2c0 1 1 1 1 2v5c0 2 0 5-1 6-1 2-2 4-4 5-1 1-3 2-6 3-2 1-4 1-7 1-2 0-5-1-7-1l-6-3c-1-2-2-3-3-5s-2-4-2-7c0-2 1-3 1-5 0-1 1-3 1-4l4 2c0 1-1 2-1 3-1 1-1 2-1 4zM93 654v-4l21-6h2c1-1 2-1 3-1s1 0 2-1h0s-1 0-2-1h-5l-21-5v-5l35 9v4l-22 6c-1 1-2 1-3 1s-1 0-2 1h-3c1 0 2 0 3 1h2c1 0 2 1 3 1l22 6v4l-35 9v-5l21-5h3c0-1 1-1 2-1h4c0-1-1-1-2-1h-2c-1 0-2 0-3-1h-2l-21-6zm35-52v5l-17 11 3 4h14v4H93v-4h18l-4-3-14-11v-5l15 12 20-13zm-25-25c2 0 3 0 5 1 1 0 2 1 3 2s2 2 3 4c0 1 1 3 1 6v3h13v5H93v-9c0-2 1-4 1-5 0-2 1-3 2-4s2-2 3-2c1-1 3-1 4-1zm8 16v-3c0-1 0-2-1-3 0-2 0-2-1-3 0-1-1-1-2-2h-3c-3 0-4 0-5 2-1 1-2 3-2 6v3h14zM114 551h14v4H93v-8c0-4 1-7 3-9 1-2 4-3 7-3h4c1 1 2 1 2 2 1 0 2 1 2 2 1 1 1 2 1 2l16-9v5l-14 9v5zm-4 0v-4-3c-1-1-1-2-2-3 0-1-1-1-2-1-1-1-2-1-3-1s-2 0-3 1l-1 1c-1 1-1 2-2 3v7h13zm18-46v5l-15 8 15 9v4l-18-10-17 10v-5l14-8-14-8v-4l17 10 18-11zM128 443v5H97v10h-4v-25h4v10h31zm0-37v5l-15 9 15 8v5l-18-11-17 10v-5l14-8-14-8v-4l17 10 18-11zM110 366v-11h17s0 1 1 2v6c1 1 1 2 1 3 0 3-1 5-2 7 0 2-2 3-3 5l-6 3c-2 0-5 1-7 1-3 0-5-1-8-2-2 0-4-1-5-3-2-1-3-3-4-5s-1-5-1-7v-5c1-2 1-4 2-5l4 2s-1 1-1 2c0 0 0 1-1 2v4c0 2 0 4 1 5 0 2 1 3 3 4 1 1 2 2 4 2 2 1 4 1 6 1s4 0 5-1c2 0 4-1 5-2l3-3c0-2 1-4 1-6v-2s0-1-1-1v-2-1h-10v7h-4zm18-46v6l-29 16h29v4H93v-5l29-16v-1c-1 0-2 0-4 1h-3-22v-5h35zm-18-35c3 0 6 1 8 1 2 1 4 2 6 4 1 1 2 3 3 5s1 5 1 7v9H93v-10c0-2 1-4 1-6 1-2 2-4 4-5 1-2 3-3 5-4 2 0 5-1 7-1zm1 5c-3 0-5 0-6 1-2 0-3 1-5 2-1 1-1 2-2 4-1 1-1 3-1 5v4h27v-3c0-5-1-8-3-10s-6-3-10-3zM93 244v-5l35 12v4l-35 12v-5l22-7c2 0 3-1 4-1 2 0 3-1 4-1-1 0-2 0-4-1-1 0-2 0-4-1l-22-7zm35-19v12h-3l-1-4H97l-1 4h-3v-12h3l1 4h27l1-4h3zm0-33v6l-29 16h29v4H93v-5l29-17h-4s-1 0-1 1h-2-22v-5h35z"/></g><g><path fill="#CCC" d="M530 461v22h-35v-22z"/><path fill="#E5E5E5" d="M530 481v2h-35v-2z"/><path fill="#CCC" d="M530 522v23h-35v-23z"/><path fill="#E5E5E5" d="M530 542v3h-35v-3z"/><path fill="#CCC" d="M656 522v23h-35v-23z"/><path fill="#E5E5E5" d="M656 542v3h-35v-3z"/><path fill="#CCC" d="M656 461v22h-35v-22z"/><path fill="#E5E5E5" d="M656 481v2h-35v-2z"/><path fill="#999" d="M646 444v118H506V444z"/><path fill="#B2B2B2" d="M646 562h-2V444h2z"/><path fill="#8C8C8C" d="M508 562h-2V444h2z"/><path d="M576 469c19 0 35 15 35 34s-16 35-35 35-35-16-35-35 16-34 35-34z"/><path fill="#404040" d="M574 472c18 0 32 14 32 32 0 17-14 31-32 31-17 0-31-14-31-31 0-18 14-32 31-32z"/><path fill="#999" d="M574 472c18 0 32 14 32 32 0 17-14 31-32 31 41-6 41-58 0-63z"/></g><g><path fill="#CCC" d="M188 370v23h-35v-23z"/><path fill="#E5E5E5" d="M188 390v3h-35v-3z"/><path fill="#CCC" d="M188 295v23h-35v-23z"/><path fill="#E5E5E5" d="M188 316v2h-35v-2z"/><path fill="#CCC" d="M272 296v22h-35v-22z"/><path fill="#E5E5E5" d="M272 316v2h-35v-2z"/><path fill="#CCC" d="M272 333v22h-35v-22z"/><path fill="#E5E5E5" d="M272 353v2h-35v-2z"/><path fill="#CCC" d="M272 370v23h-35v-23z"/><path fill="#E5E5E5" d="M272 390v3h-35v-3z"/><path fill="#666" d="M177 285h70v117h-70z"/></g><g><path fill="#006900" d="M183 712h432v472H183z"/><path fill="#CCC" d="M190 1121h45v55h-45z"/><path fill="#B2B2B2" d="M190 723h45v67h-45zM548 723h61v42h-61z"/><path fill="#CCC" d="M558 1133h51v43h-51zM418 1133h101v43H418z"/><path fill="#B2B2B2" d="M476 723h48v42h-48zM377 723h42v42h-42z"/><path fill="#9A916C" d="M287 1137h60v31h-60z"/><path fill="#C93" d="M272 726h74v35h-74zM605 1125h-25v-44h25z"/><path fill="#B2B2B2" d="M197 731h405v434H197z"/><path fill="#CCC" d="M197 844V731h405v345c-77-202-304-26-405-232z"/><g fill="#666"><path fill-rule="nonzero" d="M432 1021h3c0 1 1 1 2 1 0 1 1 1 1 2s1 1 1 2-1 1-1 2c0 0 0 1-1 1 0 1 0 1-1 1 0 1-1 1-2 1 1 1 2 1 2 1l2 2 1 1v4c-1 1-1 2-2 2 0 1-1 1-2 1-1 1-2 1-3 1s-2 0-3-1c-1 0-2 0-2-1-1 0-1-1-2-2v-2-2l1-1c0-1 1-1 1-2 1 0 2 0 2-1 0 0-1 0-1-1-1 0-1 0-1-1-1 0-1-1-1-1 0-1-1-1-1-2s1-1 1-2 1-1 1-2c1 0 2 0 3-1h2zm-4 16v2l1 1h1c1 0 1 1 2 1s1-1 2-1h1c1-1 1-1 1-2v-1-1c0-1 0-1-1-1 0-1-1-1-1-1-1-1-1-1-2-1v-1c-2 1-3 2-3 2-1 1-1 2-1 3zm4-14c-1 0-2 1-3 1 0 1-1 1-1 2s0 1 1 2v1c1 0 1 0 2 1h2c1-1 1-1 2-1v-1c1-1 1-1 1-2s-1-1-1-2c-1 0-2-1-3-1zm18 7h3s1 1 2 1c1 1 1 1 1 2 1 1 1 2 1 3s0 2-1 3c0 1 0 1-1 2s-2 1-3 1c-1 1-2 1-3 1h-2s-1 0-1-1h-2-1v-3l1 1h3c1 1 1 1 2 1s1-1 2-1 1 0 2-1l1-1v-2c0-1 0-2-1-3s-3-1-4-1h-4l-2-1 1-10h11v3h-8l-1 6h4zm25 2v5c0 1-1 2-2 3 0 1-1 2-2 2-1 1-2 1-3 1s-3 0-3-1c-1 0-2-1-3-2 0-1-1-2-1-3 0-2-1-3-1-5s1-3 1-5c0-1 0-2 1-3s1-2 2-2c1-1 2-1 4-1 1 0 2 0 3 1 1 0 2 1 2 2 1 1 1 2 2 3v5zm-12 0c0 1 0 3 1 4v2c1 1 1 2 2 2 0 0 1 1 2 1s1-1 2-1c0 0 1-1 1-2 1 0 1-1 1-2v-4-4c0-1 0-2-1-3l-1-1c-1 0-1-1-2-1s-2 1-2 1c-1 0-1 1-2 1v3c-1 1-1 3-1 4zm25 10h-3v-13-1-1-2-1 1h-1s0 1-1 1l-2 2-1-2 6-5h2v21zm23-10v5c-1 1-1 2-2 3 0 1-1 2-2 2-1 1-2 1-3 1-2 0-3 0-4-1-1 0-1-1-2-2s-1-2-1-3c-1-2-1-3-1-5s0-3 1-5c0-1 0-2 1-3 0-1 1-2 2-2 1-1 2-1 4-1 1 0 2 0 3 1 1 0 2 1 2 2 1 1 1 2 2 3v5zm-12 0v4c1 1 1 2 1 2 0 1 1 2 1 2 1 0 2 1 3 1 0 0 1-1 2-1 0 0 1-1 1-2 0 0 1-1 1-2v-4-4c0-1-1-2-1-3l-1-1c-1 0-2-1-2-1-1 0-2 1-3 1l-1 1c0 1 0 2-1 3v4zm31 6h-4v4h-2v-4h-11v-3l10-14h3v14h4v3zm-6-3v-5-1-2-2-1s-1 0-1 1v1c-1 0-1 0-1 1l-6 8h8zm-98 21h10c1 0 2 0 3 1 0 0 1 1 1 2 1 0 1 1 1 2s0 1-1 2v1c-1 0-1 1-2 1 0 0-1 1-2 1h2c1 0 1 1 2 1 0 1 1 1 1 2v4c0 1-1 2-2 2 0 1-1 1-2 1-1 1-2 1-3 1h-8v-21zm3 9h4c1 0 2 0 2-1h2s0-1 1-1v-2c0-1-1-2-1-2-1-1-3-1-4-1h-4v7zm0 2v7h7s1 0 1-1c1 0 1 0 1-1v-1-2s0-1-1-1l-1-1h-7zm27 10l-7-19v19h-3v-21h5l6 17 7-17h4v21h-3v-13-2-2c1 0 1-1 1-2h-1l-7 19h-2zm17-7v-2h8v2h-8zm25-4v5c0 1-1 2-1 3-1 1-2 2-3 2-1 1-2 1-3 1s-2 0-3-1c-1 0-2-1-3-2 0-1-1-2-1-3v-5-4c0-2 1-3 1-4 1-1 2-1 2-2 1 0 3-1 4-1s2 1 3 1c1 1 2 1 2 2 1 1 2 2 2 4v4zm-12 0c0 2 1 3 1 4v3c1 0 1 1 2 1 0 1 1 1 2 1s1 0 2-1c1 0 1-1 1-1 1-1 1-2 1-3v-4-4c0-1 0-2-1-2 0-1 0-1-1-2h-4l-2 2v2c0 2-1 3-1 4zm30-1v3c0 1 0 2-1 3 0 0 0 1-1 2 0 1-1 2-2 2 0 1-1 1-2 2h-4-2-1v-2h3c1 0 3 0 3-1 1 0 2-1 3-2 0 0 1-1 1-2v-4c0 1 0 1-1 1 0 1 0 1-1 1l-1 1h-2c-1 0-2 0-3-1 0 0-1 0-2-1 0 0-1-1-1-2v-3-2c0-1 1-2 1-3 1 0 2-1 3-1s2-1 3-1 2 1 3 1l2 2c1 0 1 1 2 3v4zm-7-7h-2c-1 0-1 0-1 1-1 0-1 1-1 1-1 1-1 2-1 3 0 0 0 1 1 1v2c1 0 1 0 2 1h2s1 0 1-1h2c0-1 1-1 1-2v-1-2c0-1-1-1-1-2l-1-1h-2zm10 12v-2h8v2h-8zm25 1c0 1-1 2-1 3 0 0-1 1-2 1 0 1-1 1-2 2h-7c-1 0-1-1-2-1v-3c0 1 1 1 1 1h2l1 1h2c1 0 3-1 3-1 1-1 2-2 2-3 0 0 0-1-1-1v-1c-1 0-1-1-2-1s-1-1-2-1-2-1-3-1-1-1-2-1c0-1 0-1-1-2v-2c0-1 0-2 1-2 0-1 0-2 1-2 1-1 1-1 2-1s2-1 3-1 2 1 3 1 2 0 3 1l-1 2c-1 0-1-1-2-1h-3c-1 0-2 0-3 1-1 0-1 1-1 2v1c0 1 1 1 1 1 0 1 1 1 2 1 0 0 1 1 2 1s2 1 2 1c1 1 2 1 2 1 1 1 1 1 1 2s1 1 1 2zm-112 27c1 0 2 0 3 1 1 0 1 0 2 1 1 0 1 1 2 2v5c-1 1-1 2-2 2-1 1-2 1-3 2h-5-3l-1-1v-2h1c1 0 1 1 2 1h5c1 0 1-1 2-1l1-1v-2c0-2 0-3-1-4-1 0-3-1-4-1h-2c-1 0-1 1-1 1h-1l-1-1v-10h11v2h-8l-1 6h4zm13 13l9-19h-12v-2h15v2l-9 19h-3zm29-16v2c-1 0-1 1-1 1-1 1-1 1-2 1-1 1-1 1-2 1 2 0 3 1 4 2s2 2 2 3 0 2-1 3c0 0-1 1-1 2-1 0-2 1-3 1h-7c-1 0-2 0-3-1v-2c1 0 2 0 3 1h6s1-1 2-1c0 0 0-1 1-1v-2c0-1 0-1-1-2 0 0 0-1-1-1 0 0-1 0-2-1h-4v-2h4c1 0 1-1 2-1l1-1v-2-1c0-1-1-1-1-1 0-1-1-1-1-1h-5c-1 1-2 1-2 2l-2-2c1 0 1-1 2-1 0 0 1 0 1-1h7c1 0 2 1 2 1l2 2v2z"/><path d="M451 898l-29-45 27-43-43 27-45-27 29 43-28 43 44-27z"/><path d="M413 882l-7-5-7 5 7 33zM381 853l-4 6-33-6 33-7 4 6zM434 860l-4-7 5-8 32 8zM413 824l-7-32-7 32 7 4z"/><path d="M451 898l-29-45 27-43-29 43z"/><path fill-rule="nonzero" d="M403 933c0 2 0 3-1 4 0 1-1 2-2 3s-2 1-3 2h-10v12h-4v-29h8c2 0 4 0 6 1 1 0 2 1 3 1 1 1 2 2 2 3 1 1 1 2 1 3zm-16 6h7c1 0 2 0 2-1 1 0 2-1 2-2 0 0 1-1 1-2 0-2-1-4-2-5-2 0-4-1-6-1h-4v11zm42 0v6c-1 2-1 4-2 5s-2 2-4 3c-1 1-3 1-5 1-1 0-3 0-4-1-2-1-3-2-4-3 0-1-1-3-2-5v-6-6c1-2 1-3 2-5 1-1 2-2 4-2 1-1 3-1 4-1 2 0 4 0 5 1 2 0 3 1 4 2 0 2 1 3 2 5v6zm-17 0v5c1 2 1 3 1 4l2 2c1 1 2 1 3 1 2 0 3 0 3-1 1 0 2-1 2-2 1-1 1-2 2-4v-5-5c-1-1-1-3-2-3 0-1-1-2-2-3h-6c0 1-1 2-2 3 0 0 0 2-1 3v5z"/><path d="M260 1109V973h7v8h8v-8h7v8h8v-8h8v15h30v-7h-8v-8h8v8h7v-8h8v8h-8v7h8v8h7v-8h8v-7h-8v-8h8v8h8v-8h7v8h-7v7h7v38h-7v15h7v38h-7v8h7v7h-7v-7h-16v7h-7v-7h-8v-8h-7v-7h-8v7h-7v8h7v7h8v8h45v-23h8v-7h15v7h-15v23h15v7H260zm136-121h-8v8h8v8h-8v7h8v8h-8v7h8v8h-8v-8h-7v8h-8v-23h8v-7h-8v-23h8v-8h7v8h8v7zm-8 0v-7h-7v7h7zm8 61h-8v7h8v8h-8v-8h-7v8h-8v-15h15v-8h8v8zm0 45h-8v-7h8v7zm-30-98h-8v15h-8v-7h-7v7h-8v-23h-7v8h-8v15h-15v8h-7v-15h7v-8h-15v8h-8v7h-7v8h-8v7h8v-7h15v15h-8v7h-7v8h15v-8h8v8h-8v15h8v-8h15v-7h15v7h-8v8h23v8h-8v7h31v-7h-16v-8h16v-15h-16v7h-15v-15h8v8h7v-8h-7v-7h-15v7h-8v-7h8v-8h7v-7h8v15h7v-15h16v-23zm-8 45v-7h-8v7h8zm-38 53h-7v8h7v-8zm-7-22h-8v7h8v-7zm-8-91v-8h8v8h-8zm0 53v-8h8v8h-8zm-7 53h-8v7h8v-7zm-8-99h-8v-7h-7v7h-8v23h8v-15h15v-8zm0 84h-8v-8h-7v-15h-8v23h8v15h-8v15h15v-15h8v-15zm-8-46h-7v8h7v-8zm-7 8h-8v7h8v-7z"/><g><path d="M423 964h44l22 31h52v6h-55l-22-32h-37l-4-5zm19 15h16l11 16h-16l-11-16zm39 22h-31l-20-28h31l20 28zm60 4v6h-83l-5-6h88z"/><path fill-rule="nonzero" d="M488 963h5v20c1 1 1 2 2 2 1 1 2 1 3 1s2 0 3-1c1 0 1-1 1-2 1-1 1-2 1-5v-15h5v15c0 3-1 5-1 7 0 1-1 2-1 3-1 1-2 2-3 2-1 1-3 1-5 1s-4 0-5-1c-1 0-2-1-3-2s-1-2-1-3c-1-2-1-4-1-7v-15zm25 19h5v2c0 2 2 3 4 3 1 0 2-1 3-2 1 0 1-1 1-2v-2s-1-1-2-1c0 0-2-1-4-1-2-1-4-2-5-3-2-2-3-3-3-6 0-1 1-2 1-4 1-1 2-2 4-2 1-1 2-1 4-1 3 0 6 0 7 2 2 2 3 3 3 6h-6c0-1 0-2-1-3 0 0-1-1-3-1-1 0-2 1-3 1-1 1-1 1-1 2s0 1 1 2l4 2c3 0 5 1 6 2 1 0 2 1 2 2 1 2 1 3 1 5 0 1 0 3-1 4-1 2-2 3-3 3-2 1-3 1-5 1-4 0-6-1-8-2-2-2-1-4-1-7zm22 9v-28h5v28h-5z"/><path d="M548 963c1 0 2 0 3 1 0 0 1 1 1 2 1 0 1 1 1 2s0 1-1 2c0 1-1 1-1 2h-3-2l-2-2v-2-2c1-1 1-2 2-2 1-1 2-1 2-1zm0 1h-2c0 1-1 1-1 2v4l1 1h4c1 0 1-1 2-1v-2-2l-2-2h-2zm-2 6v-5h2c1 0 1 0 1 1h1v2h-1c0 1 1 1 1 1v1h-1v-1l-1-1h-1v2h-1zm1-2h1c1 0 1-1 1-1v-1h-2v2z"/></g></g><path fill="#404040" d="M245 804c-6-6-6-16 0-22 6-7 16-7 23 0 6 6 6 16 0 22-7 7-17 7-23 0z"/><path fill="#fff" d="M245 804c-6-6-6-16 0-22 6-7 16-7 23 0-17-13-36 6-23 22z"/></g><g><path fill="#CCC" d="M380 512v22h-20v-22z"/><path fill="#E5E5E5" d="M380 532v2h-20v-2z"/><path fill="#CCC" d="M380 474v23h-20v-23z"/><path fill="#E5E5E5" d="M380 494v3h-20v-3z"/><path fill="#CCC" d="M436 512v23h-21v-23z"/><path fill="#E5E5E5" d="M436 532v3h-21v-3z"/><path fill="#CCC" d="M436 474v23h-21v-23z"/><path fill="#E5E5E5" d="M436 494v3h-21v-3z"/><path d="M363 541v-75h70v75z"/><path fill="#404040" d="M363 482v-1l11-15h1z"/><path fill="#E5E5E5" d="M373 531l-4-28 4-25 25-4 26 4 3 25-3 28-26 3z"/><path fill="#B2B2B2" d="M385 503c0-7 6-12 12-12v12h-12z"/><path fill="#1B5BB3" d="M385 504c0 6 6 12 12 12v-12h-12z"/><path fill="#00A63D" d="M410 504c0 6-5 12-12 12v-12h12z"/><path fill="#CC1414" d="M410 503c0-7-5-12-12-12v12h12z"/><path fill="#fff" d="M373 531l-4-28 4-25 25-4 26 4-26-2-25 2-2 25z"/><path fill="#B2B2B2" d="M424 478l3 25-3 28-26 3-25-3 25 1 26-1 1-28z"/></g><g><path fill="#C93" d="M134 1072v-33h33v33zM134 1023v-33h33v33zM134 975v-34h33v34z"/><path fill="#E6AB00" d="M134 1072v-1h33v1zM134 1023v-1h33v1zM134 975v-1h33v1z"/></g><g><path fill="#B2B2B2" d="M84 1331c0 19-15 35-34 35-20 0-35-16-35-35s15-35 35-35c19 0 34 16 34 35z"/><path fill="#999" d="M78 1312c-5 0-17 4-28 19-13-15-23-19-29-20 8-11 19-15 29-15 9 0 21 4 28 16zM37 1343l13-12 12 12c-8-1-16-2-25 0z"/><path fill="#CCC" d="M50 1331l12-13c-2 9-2 17 0 25l-12-12z"/><path fill="#999" d="M50 1331l-13-13c8 2 16 3 25 0l-12 13z"/><path fill="#CCC" d="M50 1331l-13 12c2-8 2-16 0-25l13 13z"/><path fill="#CCC" d="M55 1331c0 3-2 5-5 5-4 0-6-2-6-5s2-6 6-6 5 3 5 6z"/><path fill="#E5E5E5" d="M55 1331c0 3-2 5-5 5-2 0-4 0-5-1 1 1 3 1 4 1 4 0 6-2 6-5 0-2-1-3-1-4 1 1 1 2 1 4z"/><path fill="#666" d="M46 1335c-1-1-2-2-2-4 0-3 2-6 6-6 2 0 3 1 4 2-1-1-2-1-4-1-4 0-6 2-6 5 0 2 1 3 2 4z"/><path fill="#B2B2B2" d="M84 1231c0 19-15 35-34 35-20 0-35-16-35-35s15-35 35-35c19 0 34 16 34 35z"/><path fill="#999" d="M78 1212c-5 0-17 4-28 19-13-15-23-19-29-20 8-11 19-15 29-15 9 0 21 4 28 16zM37 1243l13-12 12 12c-8-1-16-2-25 0z"/><path fill="#CCC" d="M50 1231l12-13c-2 9-2 17 0 25l-12-12z"/><path fill="#999" d="M50 1231l-13-13c8 2 16 3 25 0l-12 13z"/><path fill="#CCC" d="M50 1231l-13 12c2-8 2-16 0-25l13 13z"/><path fill="#CCC" d="M55 1231c0 3-2 5-5 5-4 0-6-2-6-5s2-6 6-6 5 3 5 6z"/><path fill="#E5E5E5" d="M55 1231c0 3-2 5-5 5-2 0-4 0-5-1 1 1 3 1 4 1 4 0 6-2 6-5 0-2-1-3-1-4 1 1 1 2 1 4z"/><path fill="#666" d="M46 1235c-1-1-2-2-2-4 0-3 2-6 6-6 2 0 3 1 4 2-1-1-2-1-4-1-4 0-6 2-6 5 0 2 1 3 2 4z"/><path fill="#B2B2B2" d="M84 1131c0 19-15 35-34 35-20 0-35-16-35-35s15-35 35-35c19 0 34 16 34 35z"/><path fill="#999" d="M78 1112c-5 0-17 4-28 19-13-15-23-19-29-20 8-11 19-15 29-15 9 0 21 4 28 16zM37 1143l13-12 12 12c-8-1-16-2-25 0z"/><path fill="#CCC" d="M50 1131l12-13c-2 9-2 17 0 25l-12-12z"/><path fill="#999" d="M50 1131l-13-13c8 2 16 3 25 0l-12 13z"/><path fill="#CCC" d="M50 1131l-13 12c2-8 2-16 0-25l13 13z"/><path fill="#CCC" d="M55 1131c0 3-2 5-5 5-4 0-6-2-6-5s2-6 6-6 5 3 5 6z"/><path fill="#E5E5E5" d="M55 1131c0 3-2 5-5 5-2 0-4 0-5-1 1 1 3 1 4 1 4 0 6-2 6-5 0-2-1-3-1-4 1 1 1 2 1 4z"/><path fill="#666" d="M46 1135c-1-1-2-2-2-4 0-3 2-6 6-6 2 0 3 1 4 2-1-1-2-1-4-1-4 0-6 2-6 5 0 2 1 3 2 4z"/><path fill="#B2B2B2" d="M84 1031c0 19-15 35-34 35-20 0-35-16-35-35s15-35 35-35c19 0 34 16 34 35z"/><path fill="#999" d="M78 1012c-5 0-17 4-28 19-13-15-23-19-29-20 8-11 19-15 29-15 9 0 21 4 28 16zM37 1043l13-12 12 12c-8-1-16-2-25 0z"/><path fill="#CCC" d="M50 1031l12-13c-2 9-2 17 0 25l-12-12z"/><path fill="#999" d="M50 1031l-13-13c8 2 16 3 25 0l-12 13z"/><path fill="#CCC" d="M50 1031l-13 12c2-8 2-16 0-25l13 13z"/><path fill="#CCC" d="M55 1031c0 3-2 5-5 5-4 0-6-2-6-5s2-6 6-6 5 3 5 6z"/><path fill="#E5E5E5" d="M55 1031c0 3-2 5-5 5-2 0-4 0-5-1 1 1 3 1 4 1 4 0 6-2 6-5 0-2-1-3-1-4 1 1 1 2 1 4z"/><path fill="#666" d="M46 1035c-1-1-2-2-2-4 0-3 2-6 6-6 2 0 3 1 4 2-1-1-2-1-4-1-4 0-6 2-6 5 0 2 1 3 2 4z"/><path fill="#B2B2B2" d="M84 931c0 19-15 35-34 35-20 0-35-16-35-35s15-35 35-35c19 0 34 16 34 35z"/><path fill="#999" d="M78 912c-5 0-17 4-28 19-13-15-23-19-29-20 8-11 19-15 29-15 9 0 21 4 28 16zM37 943l13-12 12 12c-8-1-16-2-25 0z"/><path fill="#CCC" d="M50 931l12-13c-2 9-2 17 0 25l-12-12z"/><path fill="#999" d="M50 931l-13-13c8 2 16 3 25 0l-12 13z"/><path fill="#CCC" d="M50 931l-13 12c2-8 2-16 0-25l13 13z"/><path fill="#CCC" d="M55 931c0 3-2 5-5 5-4 0-6-2-6-5s2-6 6-6 5 3 5 6z"/><path fill="#E5E5E5" d="M55 931c0 3-2 5-5 5-2 0-4 0-5-1 1 1 3 1 4 1 4 0 6-2 6-5 0-2-1-3-1-4 1 1 1 2 1 4z"/><path fill="#666" d="M46 935c-1-1-2-2-2-4 0-3 2-6 6-6 2 0 3 1 4 2-1-1-2-1-4-1-4 0-6 2-6 5 0 2 1 3 2 4z"/><g><path fill="#B2B2B2" d="M84 831c0 19-15 35-34 35-20 0-35-16-35-35s15-35 35-35c19 0 34 16 34 35z"/><path fill="#999" d="M78 812c-5 0-17 4-28 19-13-15-23-19-29-20 8-11 19-15 29-15 9 0 21 4 28 16zM37 843l13-12 12 12c-8-1-16-2-25 0z"/><path fill="#CCC" d="M50 831l12-13c-2 9-2 17 0 25l-12-12z"/><path fill="#999" d="M50 831l-13-13c8 2 16 3 25 0l-12 13z"/><path fill="#CCC" d="M50 831l-13 12c2-8 2-16 0-25l13 13z"/><path fill="#CCC" d="M55 831c0 3-2 5-5 5-4 0-6-2-6-5s2-6 6-6 5 3 5 6z"/><path fill="#E5E5E5" d="M55 831c0 3-2 5-5 5-2 0-4 0-5-1 1 1 3 1 4 1 4 0 6-2 6-5 0-2-1-3-1-4 1 1 1 2 1 4z"/><path fill="#666" d="M46 835c-1-1-2-2-2-4 0-3 2-6 6-6 2 0 3 1 4 2-1-1-2-1-4-1-4 0-6 2-6 5 0 2 1 3 2 4z"/></g><g><path fill="#B2B2B2" d="M84 732c0 19-15 35-34 35-20 0-35-16-35-35s15-35 35-35c19 0 34 16 34 35z"/><path fill="#999" d="M78 713c-5 0-17 4-28 19-13-15-23-19-29-20 8-11 19-15 29-15 9 0 21 4 28 16zM37 744l13-12 12 12c-8-1-16-2-25 0z"/><path fill="#CCC" d="M50 732l12-13c-2 9-2 17 0 25l-12-12z"/><path fill="#999" d="M50 732l-13-13c8 2 16 3 25 0l-12 13z"/><path fill="#CCC" d="M50 732l-13 12c2-8 2-16 0-25l13 13z"/><path fill="#CCC" d="M55 732c0 3-2 5-5 5-4 0-6-2-6-5s2-6 6-6 5 3 5 6z"/><path fill="#E5E5E5" d="M55 732c0 3-2 5-5 5-2 0-4 0-5-1 1 1 3 1 4 1 4 0 6-2 6-5 0-2-1-3-1-4 1 1 1 2 1 4z"/><path fill="#666" d="M46 736c-1-1-2-2-2-4 0-3 2-6 6-6 2 0 3 1 4 2-1-1-2-1-4-1-4 0-6 2-6 5 0 2 1 3 2 4z"/></g><g><path fill="#B2B2B2" d="M84 632c0 19-15 35-34 35-20 0-35-16-35-35s15-35 35-35c19 0 34 16 34 35z"/><path fill="#999" d="M78 613c-5 0-17 4-28 19-13-15-23-19-29-20 8-11 19-15 29-15 9 0 21 4 28 16zM37 644l13-12 12 12c-8-1-16-2-25 0z"/><path fill="#CCC" d="M50 632l12-13c-2 9-2 17 0 25l-12-12z"/><path fill="#999" d="M50 632l-13-13c8 2 16 3 25 0l-12 13z"/><path fill="#CCC" d="M50 632l-13 12c2-8 2-16 0-25l13 13z"/><path fill="#CCC" d="M55 632c0 3-2 5-5 5-4 0-6-2-6-5s2-6 6-6 5 3 5 6z"/><path fill="#E5E5E5" d="M55 632c0 3-2 5-5 5-2 0-4 0-5-1 1 1 3 1 4 1 4 0 6-2 6-5 0-2-1-3-1-4 1 1 1 2 1 4z"/><path fill="#666" d="M46 636c-1-1-2-2-2-4 0-3 2-6 6-6 2 0 3 1 4 2-1-1-2-1-4-1-4 0-6 2-6 5 0 2 1 3 2 4z"/></g><g><path fill="#B2B2B2" d="M84 532c0 19-15 35-34 35-20 0-35-16-35-35s15-35 35-35c19 0 34 16 34 35z"/><path fill="#999" d="M78 513c-5 0-17 4-28 19-13-15-23-19-29-20 8-11 19-15 29-15 9 0 21 4 28 16zM37 544l13-12 12 12c-8-1-16-2-25 0z"/><path fill="#CCC" d="M50 532l12-13c-2 9-2 17 0 25l-12-12z"/><path fill="#999" d="M50 532l-13-13c8 2 16 3 25 0l-12 13z"/><path fill="#CCC" d="M50 532l-13 12c2-8 2-16 0-25l13 13z"/><path fill="#CCC" d="M55 532c0 3-2 5-5 5-4 0-6-2-6-5s2-6 6-6 5 3 5 6z"/><path fill="#E5E5E5" d="M55 532c0 3-2 5-5 5-2 0-4 0-5-1 1 1 3 1 4 1 4 0 6-2 6-5 0-2-1-3-1-4 1 1 1 2 1 4z"/><path fill="#666" d="M46 536c-1-1-2-2-2-4 0-3 2-6 6-6 2 0 3 1 4 2-1-1-2-1-4-1-4 0-6 2-6 5 0 2 1 3 2 4z"/></g><g><path fill="#B2B2B2" d="M84 432c0 19-15 35-34 35-20 0-35-16-35-35s15-35 35-35c19 0 34 16 34 35z"/><path fill="#999" d="M78 413c-5 0-17 4-28 19-13-15-23-19-29-20 8-11 19-15 29-15 9 0 21 4 28 16zM37 444l13-12 12 12c-8-1-16-2-25 0z"/><path fill="#CCC" d="M50 432l12-13c-2 9-2 17 0 25l-12-12z"/><path fill="#999" d="M50 432l-13-13c8 2 16 3 25 0l-12 13z"/><path fill="#CCC" d="M50 432l-13 12c2-8 2-16 0-25l13 13z"/><path fill="#CCC" d="M55 432c0 3-2 5-5 5-4 0-6-2-6-5s2-6 6-6 5 3 5 6z"/><path fill="#E5E5E5" d="M55 432c0 3-2 5-5 5-2 0-4 0-5-1 1 1 3 1 4 1 4 0 6-2 6-5 0-2-1-3-1-4 1 1 1 2 1 4z"/><path fill="#666" d="M46 436c-1-1-2-2-2-4 0-3 2-6 6-6 2 0 3 1 4 2-1-1-2-1-4-1-4 0-6 2-6 5 0 2 1 3 2 4z"/></g><g><path fill="#B2B2B2" d="M84 332c0 19-15 35-34 35-20 0-35-16-35-35s15-35 35-35c19 0 34 16 34 35z"/><path fill="#999" d="M78 313c-5 0-17 4-28 19-13-15-23-19-29-20 8-11 19-15 29-15 9 0 21 4 28 16zM37 344l13-12 12 12c-8-1-16-2-25 0z"/><path fill="#CCC" d="M50 332l12-13c-2 9-2 17 0 25l-12-12z"/><path fill="#999" d="M50 332l-13-13c8 2 16 3 25 0l-12 13z"/><path fill="#CCC" d="M50 332l-13 12c2-8 2-16 0-25l13 13z"/><path fill="#CCC" d="M55 332c0 3-2 5-5 5-4 0-6-2-6-5s2-6 6-6 5 3 5 6z"/><path fill="#E5E5E5" d="M55 332c0 3-2 5-5 5-2 0-4 0-5-1 1 1 3 1 4 1 4 0 6-2 6-5 0-2-1-3-1-4 1 1 1 2 1 4z"/><path fill="#666" d="M46 336c-1-1-2-2-2-4 0-3 2-6 6-6 2 0 3 1 4 2-1-1-2-1-4-1-4 0-6 2-6 5 0 2 1 3 2 4z"/></g><g><path fill="#B2B2B2" d="M84 232c0 19-15 35-34 35-20 0-35-16-35-35s15-35 35-35c19 0 34 16 34 35z"/><path fill="#999" d="M78 213c-5 0-17 4-28 19-13-15-23-19-29-20 8-11 19-15 29-15 9 0 21 4 28 16zM37 244l13-12 12 12c-8-1-16-2-25 0z"/><path fill="#CCC" d="M50 232l12-13c-2 9-2 17 0 25l-12-12z"/><path fill="#999" d="M50 232l-13-13c8 2 16 3 25 0l-12 13z"/><path fill="#CCC" d="M50 232l-13 12c2-8 2-16 0-25l13 13z"/><path fill="#CCC" d="M55 232c0 3-2 5-5 5-4 0-6-2-6-5s2-6 6-6 5 3 5 6z"/><path fill="#E5E5E5" d="M55 232c0 3-2 5-5 5-2 0-4 0-5-1 1 1 3 1 4 1 4 0 6-2 6-5 0-2-1-3-1-4 1 1 1 2 1 4z"/><path fill="#666" d="M46 236c-1-1-2-2-2-4 0-3 2-6 6-6 2 0 3 1 4 2-1-1-2-1-4-1-4 0-6 2-6 5 0 2 1 3 2 4z"/></g><g><path fill="#B2B2B2" d="M784 1331c0 19-15 35-34 35-20 0-35-16-35-35s15-35 35-35c19 0 34 16 34 35z"/><path fill="#999" d="M778 1312c-5 0-17 4-28 19-13-15-23-19-29-20 8-11 19-15 29-15 9 0 21 4 28 16zM737 1343l13-12 12 12c-8-1-17-2-25 0z"/><path fill="#CCC" d="M750 1331l12-13c-2 9-2 17 0 25l-12-12z"/><path fill="#999" d="M750 1331l-13-13c8 2 16 3 25 0l-12 13z"/><path fill="#CCC" d="M750 1331l-13 12c2-8 2-16 0-25l13 13z"/><path fill="#CCC" d="M755 1331c0 3-2 5-5 5-4 0-6-2-6-5s2-6 6-6c3 0 5 3 5 6z"/><path fill="#E5E5E5" d="M755 1331c0 3-2 5-5 5-2 0-4 0-5-1 1 1 2 1 4 1 4 0 6-2 6-5 0-2-1-3-2-4 2 1 2 2 2 4z"/><path fill="#666" d="M746 1335c-1-1-2-2-2-4 0-3 2-6 6-6 1 0 3 1 4 2-1-1-2-1-4-1-4 0-6 2-6 5 0 2 1 3 2 4z"/></g><g><path fill="#B2B2B2" d="M784 1231c0 19-15 35-34 35-20 0-35-16-35-35s15-35 35-35c19 0 34 16 34 35z"/><path fill="#999" d="M778 1212c-5 0-17 4-28 19-13-15-23-19-29-20 8-11 19-15 29-15 9 0 21 4 28 16zM737 1243l13-12 12 12c-8-1-17-2-25 0z"/><path fill="#CCC" d="M750 1231l12-13c-2 9-2 17 0 25l-12-12z"/><path fill="#999" d="M750 1231l-13-13c8 2 16 3 25 0l-12 13z"/><path fill="#CCC" d="M750 1231l-13 12c2-8 2-16 0-25l13 13z"/><path fill="#CCC" d="M755 1231c0 3-2 5-5 5-4 0-6-2-6-5s2-6 6-6c3 0 5 3 5 6z"/><path fill="#E5E5E5" d="M755 1231c0 3-2 5-5 5-2 0-4 0-5-1 1 1 2 1 4 1 4 0 6-2 6-5 0-2-1-3-2-4 2 1 2 2 2 4z"/><path fill="#666" d="M746 1235c-1-1-2-2-2-4 0-3 2-6 6-6 1 0 3 1 4 2-1-1-2-1-4-1-4 0-6 2-6 5 0 2 1 3 2 4z"/></g><g><path fill="#B2B2B2" d="M784 1131c0 19-15 35-34 35-20 0-35-16-35-35s15-35 35-35c19 0 34 16 34 35z"/><path fill="#999" d="M778 1112c-5 0-17 4-28 19-13-15-23-19-29-20 8-11 19-15 29-15 9 0 21 4 28 16zM737 1143l13-12 12 12c-8-1-17-2-25 0z"/><path fill="#CCC" d="M750 1131l12-13c-2 9-2 17 0 25l-12-12z"/><path fill="#999" d="M750 1131l-13-13c8 2 16 3 25 0l-12 13z"/><path fill="#CCC" d="M750 1131l-13 12c2-8 2-16 0-25l13 13z"/><path fill="#CCC" d="M755 1131c0 3-2 5-5 5-4 0-6-2-6-5s2-6 6-6c3 0 5 3 5 6z"/><path fill="#E5E5E5" d="M755 1131c0 3-2 5-5 5-2 0-4 0-5-1 1 1 2 1 4 1 4 0 6-2 6-5 0-2-1-3-2-4 2 1 2 2 2 4z"/><path fill="#666" d="M746 1135c-1-1-2-2-2-4 0-3 2-6 6-6 1 0 3 1 4 2-1-1-2-1-4-1-4 0-6 2-6 5 0 2 1 3 2 4z"/></g><g><path fill="#B2B2B2" d="M784 1031c0 19-15 35-34 35-20 0-35-16-35-35s15-35 35-35c19 0 34 16 34 35z"/><path fill="#999" d="M778 1012c-5 0-17 4-28 19-13-15-23-19-29-20 8-11 19-15 29-15 9 0 21 4 28 16zM737 1043l13-12 12 12c-8-1-17-2-25 0z"/><path fill="#CCC" d="M750 1031l12-13c-2 9-2 17 0 25l-12-12z"/><path fill="#999" d="M750 1031l-13-13c8 2 16 3 25 0l-12 13z"/><path fill="#CCC" d="M750 1031l-13 12c2-8 2-16 0-25l13 13z"/><path fill="#CCC" d="M755 1031c0 3-2 5-5 5-4 0-6-2-6-5s2-6 6-6c3 0 5 3 5 6z"/><path fill="#E5E5E5" d="M755 1031c0 3-2 5-5 5-2 0-4 0-5-1 1 1 2 1 4 1 4 0 6-2 6-5 0-2-1-3-2-4 2 1 2 2 2 4z"/><path fill="#666" d="M746 1035c-1-1-2-2-2-4 0-3 2-6 6-6 1 0 3 1 4 2-1-1-2-1-4-1-4 0-6 2-6 5 0 2 1 3 2 4z"/></g><g><path fill="#B2B2B2" d="M784 931c0 19-15 35-34 35-20 0-35-16-35-35s15-35 35-35c19 0 34 16 34 35z"/><path fill="#999" d="M778 912c-5 0-17 4-28 19-13-15-23-19-29-20 8-11 19-15 29-15 9 0 21 4 28 16zM737 943l13-12 12 12c-8-1-17-2-25 0z"/><path fill="#CCC" d="M750 931l12-13c-2 9-2 17 0 25l-12-12z"/><path fill="#999" d="M750 931l-13-13c8 2 16 3 25 0l-12 13z"/><path fill="#CCC" d="M750 931l-13 12c2-8 2-16 0-25l13 13z"/><path fill="#CCC" d="M755 931c0 3-2 5-5 5-4 0-6-2-6-5s2-6 6-6c3 0 5 3 5 6z"/><path fill="#E5E5E5" d="M755 931c0 3-2 5-5 5-2 0-4 0-5-1 1 1 2 1 4 1 4 0 6-2 6-5 0-2-1-3-2-4 2 1 2 2 2 4z"/><path fill="#666" d="M746 935c-1-1-2-2-2-4 0-3 2-6 6-6 1 0 3 1 4 2-1-1-2-1-4-1-4 0-6 2-6 5 0 2 1 3 2 4z"/></g><g><path fill="#B2B2B2" d="M784 831c0 19-15 35-34 35-20 0-35-16-35-35s15-35 35-35c19 0 34 16 34 35z"/><path fill="#999" d="M778 812c-5 0-17 4-28 19-13-15-23-19-29-20 8-11 19-15 29-15 9 0 21 4 28 16zM737 843l13-12 12 12c-8-1-17-2-25 0z"/><path fill="#CCC" d="M750 831l12-13c-2 9-2 17 0 25l-12-12z"/><path fill="#999" d="M750 831l-13-13c8 2 16 3 25 0l-12 13z"/><path fill="#CCC" d="M750 831l-13 12c2-8 2-16 0-25l13 13z"/><path fill="#CCC" d="M755 831c0 3-2 5-5 5-4 0-6-2-6-5s2-6 6-6c3 0 5 3 5 6z"/><path fill="#E5E5E5" d="M755 831c0 3-2 5-5 5-2 0-4 0-5-1 1 1 2 1 4 1 4 0 6-2 6-5 0-2-1-3-2-4 2 1 2 2 2 4z"/><path fill="#666" d="M746 835c-1-1-2-2-2-4 0-3 2-6 6-6 1 0 3 1 4 2-1-1-2-1-4-1-4 0-6 2-6 5 0 2 1 3 2 4z"/></g><g><path fill="#B2B2B2" d="M784 732c0 19-15 35-34 35-20 0-35-16-35-35s15-35 35-35c19 0 34 16 34 35z"/><path fill="#999" d="M778 713c-5 0-17 4-28 19-13-15-23-19-29-20 8-11 19-15 29-15 9 0 21 4 28 16zM737 744l13-12 12 12c-8-1-17-2-25 0z"/><path fill="#CCC" d="M750 732l12-13c-2 9-2 17 0 25l-12-12z"/><path fill="#999" d="M750 732l-13-13c8 2 16 3 25 0l-12 13z"/><path fill="#CCC" d="M750 732l-13 12c2-8 2-16 0-25l13 13z"/><path fill="#CCC" d="M755 732c0 3-2 5-5 5-4 0-6-2-6-5s2-6 6-6c3 0 5 3 5 6z"/><path fill="#E5E5E5" d="M755 732c0 3-2 5-5 5-2 0-4 0-5-1 1 1 2 1 4 1 4 0 6-2 6-5 0-2-1-3-2-4 2 1 2 2 2 4z"/><path fill="#666" d="M746 736c-1-1-2-2-2-4 0-3 2-6 6-6 1 0 3 1 4 2-1-1-2-1-4-1-4 0-6 2-6 5 0 2 1 3 2 4z"/></g><g><path fill="#B2B2B2" d="M784 632c0 19-15 35-34 35-20 0-35-16-35-35s15-35 35-35c19 0 34 16 34 35z"/><path fill="#999" d="M778 613c-5 0-17 4-28 19-13-15-23-19-29-20 8-11 19-15 29-15 9 0 21 4 28 16zM737 644l13-12 12 12c-8-1-17-2-25 0z"/><path fill="#CCC" d="M750 632l12-13c-2 9-2 17 0 25l-12-12z"/><path fill="#999" d="M750 632l-13-13c8 2 16 3 25 0l-12 13z"/><path fill="#CCC" d="M750 632l-13 12c2-8 2-16 0-25l13 13z"/><path fill="#CCC" d="M755 632c0 3-2 5-5 5-4 0-6-2-6-5s2-6 6-6c3 0 5 3 5 6z"/><path fill="#E5E5E5" d="M755 632c0 3-2 5-5 5-2 0-4 0-5-1 1 1 2 1 4 1 4 0 6-2 6-5 0-2-1-3-2-4 2 1 2 2 2 4z"/><path fill="#666" d="M746 636c-1-1-2-2-2-4 0-3 2-6 6-6 1 0 3 1 4 2-1-1-2-1-4-1-4 0-6 2-6 5 0 2 1 3 2 4z"/></g><g><path fill="#B2B2B2" d="M784 532c0 19-15 35-34 35-20 0-35-16-35-35s15-35 35-35c19 0 34 16 34 35z"/><path fill="#999" d="M778 513c-5 0-17 4-28 19-13-15-23-19-29-20 8-11 19-15 29-15 9 0 21 4 28 16zM737 544l13-12 12 12c-8-1-17-2-25 0z"/><path fill="#CCC" d="M750 532l12-13c-2 9-2 17 0 25l-12-12z"/><path fill="#999" d="M750 532l-13-13c8 2 16 3 25 0l-12 13z"/><path fill="#CCC" d="M750 532l-13 12c2-8 2-16 0-25l13 13z"/><path fill="#CCC" d="M755 532c0 3-2 5-5 5-4 0-6-2-6-5s2-6 6-6c3 0 5 3 5 6z"/><path fill="#E5E5E5" d="M755 532c0 3-2 5-5 5-2 0-4 0-5-1 1 1 2 1 4 1 4 0 6-2 6-5 0-2-1-3-2-4 2 1 2 2 2 4z"/><path fill="#666" d="M746 536c-1-1-2-2-2-4 0-3 2-6 6-6 1 0 3 1 4 2-1-1-2-1-4-1-4 0-6 2-6 5 0 2 1 3 2 4z"/></g><g><path fill="#B2B2B2" d="M784 432c0 19-15 35-34 35-20 0-35-16-35-35s15-35 35-35c19 0 34 16 34 35z"/><path fill="#999" d="M778 413c-5 0-17 4-28 19-13-15-23-19-29-20 8-11 19-15 29-15 9 0 21 4 28 16zM737 444l13-12 12 12c-8-1-17-2-25 0z"/><path fill="#CCC" d="M750 432l12-13c-2 9-2 17 0 25l-12-12z"/><path fill="#999" d="M750 432l-13-13c8 2 16 3 25 0l-12 13z"/><path fill="#CCC" d="M750 432l-13 12c2-8 2-16 0-25l13 13z"/><path fill="#CCC" d="M755 432c0 3-2 5-5 5-4 0-6-2-6-5s2-6 6-6c3 0 5 3 5 6z"/><path fill="#E5E5E5" d="M755 432c0 3-2 5-5 5-2 0-4 0-5-1 1 1 2 1 4 1 4 0 6-2 6-5 0-2-1-3-2-4 2 1 2 2 2 4z"/><path fill="#666" d="M746 436c-1-1-2-2-2-4 0-3 2-6 6-6 1 0 3 1 4 2-1-1-2-1-4-1-4 0-6 2-6 5 0 2 1 3 2 4z"/></g><g><path fill="#B2B2B2" d="M784 332c0 19-15 35-34 35-20 0-35-16-35-35s15-35 35-35c19 0 34 16 34 35z"/><path fill="#999" d="M778 313c-5 0-17 4-28 19-13-15-23-19-29-20 8-11 19-15 29-15 9 0 21 4 28 16zM737 344l13-12 12 12c-8-1-17-2-25 0z"/><path fill="#CCC" d="M750 332l12-13c-2 9-2 17 0 25l-12-12z"/><path fill="#999" d="M750 332l-13-13c8 2 16 3 25 0l-12 13z"/><path fill="#CCC" d="M750 332l-13 12c2-8 2-16 0-25l13 13z"/><path fill="#CCC" d="M755 332c0 3-2 5-5 5-4 0-6-2-6-5s2-6 6-6c3 0 5 3 5 6z"/><path fill="#E5E5E5" d="M755 332c0 3-2 5-5 5-2 0-4 0-5-1 1 1 2 1 4 1 4 0 6-2 6-5 0-2-1-3-2-4 2 1 2 2 2 4z"/><path fill="#666" d="M746 336c-1-1-2-2-2-4 0-3 2-6 6-6 1 0 3 1 4 2-1-1-2-1-4-1-4 0-6 2-6 5 0 2 1 3 2 4z"/></g><g><path fill="#B2B2B2" d="M784 232c0 19-15 35-34 35-20 0-35-16-35-35s15-35 35-35c19 0 34 16 34 35z"/><path fill="#999" d="M778 213c-5 0-17 4-28 19-13-15-23-19-29-20 8-11 19-15 29-15 9 0 21 4 28 16zM737 244l13-12 12 12c-8-1-17-2-25 0z"/><path fill="#CCC" d="M750 232l12-13c-2 9-2 17 0 25l-12-12z"/><path fill="#999" d="M750 232l-13-13c8 2 16 3 25 0l-12 13z"/><path fill="#CCC" d="M750 232l-13 12c2-8 2-16 0-25l13 13z"/><path fill="#CCC" d="M755 232c0 3-2 5-5 5-4 0-6-2-6-5s2-6 6-6c3 0 5 3 5 6z"/><path fill="#E5E5E5" d="M755 232c0 3-2 5-5 5-2 0-4 0-5-1 1 1 2 1 4 1 4 0 6-2 6-5 0-2-1-3-2-4 2 1 2 2 2 4z"/><path fill="#666" d="M746 236c-1-1-2-2-2-4 0-3 2-6 6-6 1 0 3 1 4 2-1-1-2-1-4-1-4 0-6 2-6 5 0 2 1 3 2 4z"/></g><g fill="#B2B2B2"><path d="M0 1306c13 0 25 11 25 25s-12 25-25 25v-12c7 0 12-6 12-13s-5-13-12-13v-12zM0 1206c13 0 25 11 25 25s-12 25-25 25v-12c7 0 12-6 12-13s-5-13-12-13v-12zM0 1106c13 0 25 11 25 25s-12 25-25 25v-12c7 0 12-6 12-13s-5-13-12-13v-12zM0 1006c13 0 25 11 25 25s-12 25-25 25v-12c7 0 12-6 12-13s-5-13-12-13v-12zM0 906c13 0 25 11 25 25s-12 25-25 25v-12c7 0 12-6 12-13s-5-13-12-13v-12zM0 807c13 0 25 11 25 25s-12 25-25 25v-12c7 0 12-6 12-13s-5-13-12-13v-12zM0 707c13 0 25 11 25 25s-12 25-25 25v-12c7 0 12-6 12-13s-5-13-12-13v-12zM0 607c13 0 25 11 25 25s-12 25-25 25v-12c7 0 12-6 12-13s-5-13-12-13v-12zM0 507c13 0 25 11 25 25s-12 25-25 25v-12c7 0 12-6 12-13s-5-13-12-13v-12zM0 407c13 0 25 11 25 25s-12 25-25 25v-12c7 0 12-6 12-13s-5-13-12-13v-12zM0 307c13 0 25 11 25 25s-12 25-25 25v-12c7 0 12-6 12-13s-5-13-12-13v-12zM0 207c13 0 25 11 25 25s-12 25-25 25v-12c7 0 12-6 12-13s-5-13-12-13v-12z"/></g><g><path fill="#B2B2B2" d="M794 257c-10 0-19-11-19-25s9-25 19-25v12c-6 0-10 6-10 13s4 13 10 13v12z"/><path fill="#CCC" d="M794 245v12h6v-12zM794 207v12h6v-12z"/><path fill="#666" d="M800 219h-6c-6 0-10 6-10 13s4 13 10 13h6c-5-1-9-6-9-13s4-13 9-13z"/></g><g><path fill="#B2B2B2" d="M794 357c-10 0-19-11-19-25s9-25 19-25v12c-6 0-10 6-10 13s4 13 10 13v12z"/><path fill="#CCC" d="M794 345v12h6v-12zM794 307v12h6v-12z"/><path fill="#666" d="M800 319h-6c-6 0-10 6-10 13s4 13 10 13h6c-5-1-9-6-9-13s4-13 9-13z"/></g><g><path fill="#B2B2B2" d="M794 457c-10 0-19-11-19-25s9-25 19-25v12c-6 0-10 6-10 13s4 13 10 13v12z"/><path fill="#CCC" d="M794 445v12h6v-12zM794 407v12h6v-12z"/><path fill="#666" d="M800 419h-6c-6 0-10 6-10 13s4 13 10 13h6c-5-1-9-6-9-13s4-13 9-13z"/></g><g><path fill="#B2B2B2" d="M794 856c-10 0-19-11-19-25s9-25 19-25v12c-6 0-10 6-10 13s4 13 10 13v12z"/><path fill="#CCC" d="M794 844v12h6v-12zM794 807v11h6v-11z"/><path fill="#666" d="M800 818h-6c-6 0-10 6-10 13s4 13 10 13h6c-5-1-9-6-9-13s4-13 9-13z"/></g><g><path fill="#B2B2B2" d="M794 757c-10 0-19-11-19-25s9-25 19-25v12c-6 0-10 6-10 13s4 13 10 13v12z"/><path fill="#CCC" d="M794 745v12h6v-12zM794 707v12h6v-12z"/><path fill="#666" d="M800 719h-6c-6 0-10 6-10 13s4 13 10 13h6c-5-1-9-6-9-13s4-13 9-13z"/></g><g><path fill="#B2B2B2" d="M794 657c-10 0-19-11-19-25s9-25 19-25v12c-6 0-10 6-10 13s4 13 10 13v12z"/><path fill="#CCC" d="M794 645v12h6v-12zM794 607v12h6v-12z"/><path fill="#666" d="M800 619h-6c-6 0-10 6-10 13s4 13 10 13h6c-5-1-9-6-9-13s4-13 9-13z"/></g><g><path fill="#B2B2B2" d="M794 557c-10 0-19-11-19-25s9-25 19-25v12c-6 0-10 6-10 13s4 13 10 13v12z"/><path fill="#CCC" d="M794 545v12h6v-12zM794 507v12h6v-12z"/><path fill="#666" d="M800 519h-6c-6 0-10 6-10 13s4 13 10 13h6c-5-1-9-6-9-13s4-13 9-13z"/></g><g><path fill="#B2B2B2" d="M794 1356c-10 0-19-11-19-25s9-25 19-25v12c-6 0-10 6-10 13s4 13 10 13v12z"/><path fill="#CCC" d="M794 1344v12h6v-12zM794 1306v12h6v-12z"/><path fill="#666" d="M800 1318h-6c-6 0-10 6-10 13s4 13 10 13h6c-5-1-9-6-9-13s4-13 9-13z"/></g><g><path fill="#B2B2B2" d="M794 1256c-10 0-19-11-19-25s9-25 19-25v12c-6 0-10 6-10 13s4 13 10 13v12z"/><path fill="#CCC" d="M794 1244v12h6v-12zM794 1206v12h6v-12z"/><path fill="#666" d="M800 1218h-6c-6 0-10 6-10 13s4 13 10 13h6c-5-1-9-6-9-13s4-13 9-13z"/></g><g><path fill="#B2B2B2" d="M794 1156c-10 0-19-11-19-25s9-25 19-25v12c-6 0-10 6-10 13s4 13 10 13v12z"/><path fill="#CCC" d="M794 1144v12h6v-12zM794 1106v12h6v-12z"/><path fill="#666" d="M800 1118h-6c-6 0-10 6-10 13s4 13 10 13h6c-5-1-9-6-9-13s4-13 9-13z"/></g><g><path fill="#B2B2B2" d="M794 1056c-10 0-19-11-19-25s9-25 19-25v12c-6 0-10 6-10 13s4 13 10 13v12z"/><path fill="#CCC" d="M794 1044v12h6v-12zM794 1006v12h6v-12z"/><path fill="#666" d="M800 1018h-6c-6 0-10 6-10 13s4 13 10 13h6c-5-1-9-6-9-13s4-13 9-13z"/></g><g><path fill="#B2B2B2" d="M794 956c-10 0-19-11-19-25s9-25 19-25v12c-6 0-10 6-10 13s4 13 10 13v12z"/><path fill="#CCC" d="M794 944v12h6v-12zM794 906v12h6v-12z"/><path fill="#666" d="M800 918h-6c-6 0-10 6-10 13s4 13 10 13h6c-5-1-9-6-9-13s4-13 9-13z"/></g></g></svg>