<svg xmlns="http://www.w3.org/2000/svg" width="144" height="76.896" shape-rendering="geometricPrecision" text-rendering="geometricPrecision" image-rendering="optimizeQuality" fill-rule="evenodd" clip-rule="evenodd" viewBox="0 0 1500 801"><path fill="#404040" d="M1417 0v794l-2 6h-154c0-5-6-9-13-9s-13 4-13 9h-74c0-5-6-9-13-9s-13 4-13 9h-74c0-5-6-9-13-9s-13 4-13 9h-74c0-5-6-9-13-9s-13 4-13 9h-74c0-5-6-9-13-9s-13 4-13 9h-74c0-5-6-9-13-9s-13 4-13 9h-74c0-5-6-9-13-9s-13 4-13 9h-74c0-5-6-9-13-9s-13 4-13 9h-74c0-5-6-9-13-9s-13 4-13 9h-74c0-5-6-9-13-9s-13 4-13 9h-74c0-5-6-9-13-9s-13 4-13 9h-74c0-5-6-9-13-9s-13 4-13 9H97l-121-59V61L97 0h38c0 7 6 12 13 12s13-5 13-12h74c0 7 6 12 13 12s13-5 13-12h74c0 7 6 12 13 12s13-5 13-12h74c0 7 6 12 13 12s13-5 13-12h74c0 7 6 12 13 12s13-5 13-12h74c0 7 6 12 13 12s13-5 13-12h74c0 7 6 12 13 12s13-5 13-12h74c0 7 6 12 13 12s13-5 13-12h74c0 7 6 12 13 12s13-5 13-12h74c0 7 6 12 13 12s13-5 13-12h74c0 7 6 12 13 12s13-5 13-12h74c0 7 6 12 13 12s13-5 13-12h156z"/><path fill="#666" d="M135 800H97l-121-59v-7l121 60h42c-2 1-4 4-4 6zm1282-6l-2 6h-154v-1h-1v-3h-1v-1h-1v-1h-1 160zm-182 6h-74v-1h-1v-3h-1v-1h-1v-1h-1 82-1v1h-1v1l-1 1v2h-1v1zm-100 0h-74v-1h-1v-3h-1v-1h-1v-1h-1 82-1v1h-1v1l-1 1v2h-1v1zm-100 0h-74v-1h-1v-3h-1v-1h-1v-1h-1 82-1v1h-1v1l-1 1v2h-1v1zm-100 0h-74v-1h-1v-3h-1v-1h-1v-1h-1 82-1v1h-1v1l-1 1v2h-1v1zm-100 0h-74v-1h-1v-3h-1v-1h-1v-1h-1 82-1v1h-1v1l-1 1v2h-1v1zm-100 0h-74v-1h-1v-3h-1v-1h-1v-1h-1 82-1v1h-1v1l-1 1v2h-1v1zm-100 0h-74v-1h-1v-3h-1v-1h-1v-1h-1 82-1v1h-1v1l-1 1v2h-1v1zm-100 0h-74v-1h-1v-3h-1v-1h-1v-1h-1 82-1v1h-1v1l-1 1v2h-1v1zm-100 0h-74v-1h-1v-3h-1v-1h-1v-1h-1 82-1v1h-1v1l-1 1v2h-1v1zm-100 0h-74v-1h-1v-3h-1v-1h-1v-1h-1 82-1v1h-1v1l-1 1v2h-1v1zm-100 0h-74v-1h-1v-3h-1v-1h-1v-1h-1 82-1v1h-1v1l-1 1v2h-1v1z"/><path fill="#8C8C8C" d="M97 800l-121-59v-7l121 60z"/><path fill="#00A0E3" d="M809 794h22c2-8 10-14 18-14 9 0 16 6 19 14h18V579c-5-41-73-39-77 0v215z"/><g fill="#666"><path d="M219 214v39h-39v-39zm19 184v63h-30v-63zM1386 60v142h-86V60zM269 329v43h-22v-43zm1008-179v63h-31v-63zm-176 346h64v30h-64zm-7-59h43v22h-43zm-279 16h42v22h-42zm0-94h43v22h-43zm0-52h42v22h-42zm0-38h42v22h-42zm0-112h42v22h-42zm6 245h63v30h-63zm-5 97h63v30h-63zm410-354v43h-22v-43zm-148 465v43h-22v-43zm80 0v43h-22v-43zm40 0v43h-21v-43z"/><path d="M269 329v43h-22v-43zm-97-35v43h-22v-43zm59 19v43h-22v-43zM90 289h43v21H90zm-67-1h42v22H23zm214-149v43h-22v-43zm-57 16v24h-15v-24zm-51 93h24v14h-24zm116-20h24v14h-24zm-29 300h42v22h-42zm1 116h42v22h-42zm-25-43h64v30h-64zm979-287v97h-13l-9 10h-51l-10-10h-12v-97h13l9-9h51l8 9zM749 646h42v22h-42z"/></g><path fill="#CCC" d="M93 134H28V99h65z"/><path fill="#E5E5E5" d="M30 134h-2V99h2z"/><path fill="#CCC" d="M92 216H27v-35h65z"/><path fill="#E5E5E5" d="M30 216h-3v-35h3z"/><path fill="#CCC" d="M116 170H93v-25h23z"/><path fill="#E5E5E5" stroke="#8C8C8C" stroke-width="3" d="M107 117v80c0 4-3 7-8 7H21c-4 0-8-3-8-7v-80c0-4 4-7 8-7h78c5 0 8 3 8 7z"/><path fill="#E5E5E5" stroke="#8C8C8C" stroke-width="3" d="M87 157c0 15-12 28-27 28s-28-13-28-28 13-27 28-27 27 12 27 27z"/><path fill="#C93" d="M67 157c0 4-3 7-7 7s-7-3-7-7 3-7 7-7 7 3 7 7z"/><path fill="#CCC" d="M96 388v316H16V388z"/><path fill="#999" d="M96 388v18H16v-18zm0 296v20H16v-20z"/><path fill="#C93" d="M96 435v41H16v-41z"/><path fill="#666" d="M1233 443h-17v14h17z"/><path fill="#999" d="M1231 455h-15v2h15z"/><path fill="#666" d="M1233 418h-17v13h17z"/><path fill="#999" d="M1231 430h-15v1h15z"/><path fill="#666" d="M1233 392h-17v14h17z"/><path fill="#999" d="M1231 405h-15v1h15z"/><path fill="#666" d="M1233 367h-17v13h17z"/><path fill="#999" d="M1231 379h-15v1h15z"/><path fill="#666" d="M1233 341h-17v14h17z"/><path fill="#999" d="M1231 354h-15v1h15z"/><path fill="#B3B3B3" d="M1464 269v260h-235V269z"/><path fill="#CCC" d="M1231 269h-2v260h2z"/><path fill="#333" d="M1445 328h-216v142h216z"/><path fill="#B3B3B3" d="M1459 532h6l15 9v5z"/><path fill="#CCC" d="M1465 532h8l7 9z"/><path fill="#B3B3B3" d="M1480 252v5l-15 9h-6z"/><path fill="#CCC" d="M1480 257l-7 9h-8zm-243 275l-8-3v-35s2 32 4 33c3 1 4-2 4-2v7zm0-266l-8 3v35s2-32 4-33c3-1 4 2 4 2v-7z"/><path fill="#E6E6E6" d="M1229 313h23v22h-23v6h8v116h-8v7h23v22h-23v46h235V266h-235v47zm191 151h12v22h-12c-4 6-11 10-18 10-9 0-16-3-19-10h-62v-22h62c3-7 10-11 19-11 8 0 15 4 18 11zm0-150h12v22h-12c-4 6-11 9-18 9-9 0-16-2-19-9h-62v-22h62c3-7 10-12 19-12 8 0 15 5 18 12z"/><path fill="#F2F2F2" d="M1464 526v6h-227v-21z"/><path fill="#999" d="M1464 266l-151 8-76 8v-16z"/><path fill="#CCC" d="M1323 464h-2v22h2zm0-150h-2v22h2z"/><path fill="#B3B3B3" d="M1461 279h-9v240h9z"/><path fill="#CCC" d="M1464 279h-4v240h4z"/><g><path fill="#C93" d="M1307 724l30-18 28 18-18-29 18-28-28 18-28-18 18 28z"/><path fill="#C93" d="M1318 700l3-5-3-4-21 4zm19-21l-4-2 4-21 5 21-5 2zm-5 35l5-3 5 3-5 21zm24-14l21-5-21-4-3 4z"/><path fill="#E6AB00" d="M1307 724l30-18 28 18-28-19zm11-24l3-5-3 4-21-4zm15-23l4 1 5-1-5 2z"/><path fill="#E6AB00" d="M1332 714l5 18 5-18-5 21zm24-14l21-5-21 4-3-4zm-9-5l18-28-19 28zm-19 0l-19-28 18 28z"/></g><g><path fill="#CCC" d="M865 583v63h-35v-63z"/><path fill="#E5E5E5" d="M862 595v39h-28v-39z"/><path fill="#1B5BB3" d="M853 607v15h-11v-15z"/></g><g><path fill="#CCC" d="M1019 179h-22v-35h22z"/><path fill="#E5E5E5" d="M999 179h-2v-35h2z"/><path fill="#CCC" d="M958 179h-22v-35h22z"/><path fill="#E5E5E5" d="M938 179h-2v-35h2z"/><path fill="#CCC" d="M958 306h-22v-35h22z"/><path fill="#E5E5E5" d="M938 306h-2v-35h2z"/><path fill="#CCC" d="M1019 306h-22v-35h22z"/><path fill="#E5E5E5" d="M999 306h-2v-35h2z"/><path fill="#999" d="M1036 296H918V155h118z"/><path fill="#B2B2B2" d="M918 296v-3h118v3z"/><path fill="#8C8C8C" d="M918 158v-3h118v3z"/><path d="M1011 225c0 20-15 35-34 35s-35-15-35-35c0-19 16-34 35-34s34 15 34 34z"/><path fill="#404040" d="M1008 224c0 17-14 31-31 31-18 0-32-14-32-31 0-18 14-32 32-32 17 0 31 14 31 32z"/><path fill="#999" d="M1008 224c0 17-14 31-31 31-18 0-32-14-32-31 6 40 58 40 63 0z"/></g><g fill-rule="nonzero"><path fill="#00A0E3" d="M1051 174c-1 0-3-1-4-1-1-1-2-1-2-2-1-1-2-2-2-4-1-1-1-2-1-4s0-3 1-5c0-1 0-2 1-3h4c-1 0-1 1-1 2 0 0-1 1-1 2v4c0 2 0 4 1 5s2 2 4 2c1 0 1 0 2-1 0 0 1 0 1-1 1 0 1-1 2-2 0-1 1-2 1-3 1-2 1-3 2-4l2-2c1-1 2-1 3-1 1-1 2-1 3-1s2 1 3 1 2 1 3 2c0 1 1 2 1 3 1 1 1 2 1 4s0 3-1 4c0 2 0 3-1 4l-3-1c0-1 1-2 1-4v-3c0-2 0-3-1-4s-2-2-3-2-2 0-2 1c-1 0-2 0-2 1 0 0-1 1-1 2-1 1-1 2-2 3 0 1-1 2-1 3-1 1-2 2-2 3-1 0-2 1-3 1s-2 1-3 1zm-8 22v-16h31v16h-3v-12h-10v12h-4v-12h-11v12h-3zm0 17v-4h28v-9h3v22h-3v-9h-28zm31 36h-25l-3-3-3-3c0-2-1-3-1-5s1-4 1-5c1-2 1-3 2-4s3-2 4-2c2-1 3-1 5-1h20v4h-20c-3 0-5 1-6 2-2 1-2 3-2 6v3c1 1 1 2 2 2 1 1 2 1 3 2h23v4zm-9 28c-1 0-2-1-4-1-1 0-2-1-3-2s-2-2-2-4c-1-1-1-3-1-5v-3h-12v-4h31v12c-1 2-1 3-2 4s-2 1-3 2c-1 0-2 1-4 1zm-7-15v2c0 2 1 3 1 4s0 2 1 2c0 1 1 1 2 2h3c2 0 3 0 4-1 1-2 2-3 2-6v-3h-13zm-3 212h-13v-4h32v8c0 4-1 7-2 9-2 1-4 2-7 2h-3c-1-1-2-1-3-2 0 0-1-1-1-2-1 0-1-1-1-2l-15 9v-5l13-8v-5zm4 0v7c0 1 1 2 1 2l2 2h5c1-1 2-1 2-2 1 0 1-1 1-2v-7h-11zm-17 39v-17h32v17h-4v-13h-9v12h-4v-12h-11v13h-4zm9 23h-4l-3-3c0-1-1-2-1-3-1-1-1-3-1-4v-5c1-1 1-2 1-3h4v1c-1 1-1 2-1 2v2c-1 1-1 2-1 3 0 2 1 4 2 5s2 1 3 1h2c1 0 2-1 2-1 1-1 1-1 1-2 1-1 1-2 2-4 0-1 1-2 2-3 0-1 1-2 2-2 0-1 1-1 2-2h3c2 0 3 0 4 1 1 0 2 1 2 2 1 1 1 1 2 3v8c0 1-1 3-1 4l-4-2c1-1 1-2 1-3 1-1 1-2 1-3 0-2-1-4-1-5-1 0-2-1-4-1h-2c0 1-1 1-1 1-1 1-1 2-2 2 0 1-1 2-1 3-1 2-1 3-2 4 0 1-1 2-2 2 0 1-1 1-2 2h-3zm-9 23v-16h32v16h-4v-12h-9v11h-4v-11h-11v12h-4zm0 16v-4h28v-9h4v22h-4v-9h-28zm190 106c0 2 0 3-1 4 0 1 0 1-1 2s-2 1-3 2c0 0-1 1-3 1 3 0 5 1 7 3 1 1 2 3 2 5s0 3-1 4c0 2-1 3-2 4s-2 1-4 2c-2 0-4 1-6 1-1 0-3-1-5-1-1 0-3-1-4-1v-4c1 0 3 1 5 1 1 1 3 1 4 1 2 0 3 0 4-1 1 0 2 0 3-1 0-1 1-1 1-2s1-2 1-3-1-2-1-3l-2-2c-1 0-2 0-3-1h-7v-4h7c1 0 2-1 2-1 1-1 2-2 2-3 0 0 1-1 1-2s-1-2-1-2c0-1-1-2-1-2-1-1-1-1-2-1h-7c-1 1-2 2-4 2l-2-3c1 0 1-1 2-1s2-1 3-1c0 0 1-1 2-1h4c1 0 3 0 4 1 1 0 2 1 3 1 1 1 2 2 2 3 1 1 1 2 1 3zm27-8h5l-12 35h-5l-11-35h5l7 22c0 2 0 3 1 5 0 1 0 2 1 3 0-1 0-2 1-3 0-2 0-3 1-5l7-22zm27 8v4l-2 2c0 1-1 1-2 2-1 0-2 1-3 1 3 0 5 1 6 3 2 1 2 3 2 5v4c-1 2-2 3-3 4s-2 1-4 2c-1 0-3 1-5 1s-4-1-5-1c-2 0-3-1-5-1v-4c2 0 3 1 5 1 2 1 3 1 5 1 1 0 2 0 3-1 1 0 2 0 3-1s1-1 1-2c1-1 1-2 1-3s0-2-1-3c0 0-1-1-1-2-1 0-2 0-3-1h-7v-4h6c1 0 2-1 3-1 1-1 1-2 1-3 1 0 1-1 1-2s0-2-1-2c0-1 0-2-1-2 0-1-1-1-2-1h-7c-1 1-2 2-3 2l-2-3s1-1 2-1c0 0 1-1 2-1s2-1 3-1h3c2 0 3 0 4 1 2 0 3 1 4 1 1 1 1 2 2 3v3zm-157 13v14h-5v-34h9c4 0 7 0 9 2s3 4 3 8v3c-1 1-1 2-2 3l-2 2c-1 0-2 1-3 1l10 15h-5l-9-14h-5zm0-4h7c1 0 2-1 3-1 0-1 1-2 1-2v-6c0-1-1-2-1-2-1-1-2-1-3-1s-2-1-3-1h-4v13zm42 9c0 2 0 3-1 4 0 1-1 2-2 3s-2 2-4 2c-1 1-3 1-5 1-1 0-3 0-4-1-2 0-3 0-4-1v-4s1 1 2 1h2c0 1 1 1 2 1h2c3 0 5 0 6-1s2-3 2-4v-3c-1 0-1-1-2-1 0-1-1-1-2-2-1 0-2-1-4-2-1 0-2-1-3-1l-3-3c-1 0-1-1-1-2-1-1-1-3-1-4s0-3 1-4c0-1 1-2 2-2 1-1 2-2 3-2 2-1 3-1 5-1 1 0 3 0 5 1 1 0 3 1 4 1l-2 4c-1-1-2-1-3-1-2-1-3-1-4-1-2 0-4 1-5 1-1 1-1 3-1 4v2c0 1 1 2 1 2l2 2c1 0 2 1 4 1 1 1 2 1 3 2 1 0 2 1 3 2s1 2 2 3v3zm17 9h-4v-30h-10v-4h24v4h-10v30zm-166-34h5l-12 35h-4l-12-35h5l7 22c1 1 1 3 1 4 1 1 1 3 1 4 0-1 1-3 1-4s1-3 1-4l7-22zm10 0h15c1 1 2 1 3 2l3 3c0 1 1 2 1 4 0 1-1 2-1 3 0 0-1 1-1 2-1 0-2 1-2 1-1 1-2 1-3 1v1h3c1 1 2 1 2 2 1 0 2 1 2 2s1 2 1 4c0 1-1 3-1 4-1 1-2 2-2 3-1 1-3 1-4 2-1 0-3 1-5 1h-11v-35zm4 15h6c1 0 2 0 3-1 1 0 2 0 3-1 0 0 1-1 1-2v-2c0-2 0-3-2-4-1-1-3-1-6-1h-5v11zm0 3v13h6c2 0 3 0 4-1 1 0 2 0 2-1 1 0 1-1 1-2 1-1 1-2 1-3 0 0 0-1-1-2 0-1 0-1-1-2 0 0-1-1-2-1s-2-1-4-1h-6zm46 17l-4-11h-13l-3 11h-5l13-35h4l13 35h-5zm-5-15l-3-10c-1 0-1-1-1-1v-1c0-1-1-1-1-2v-1 1c-1 1-1 1-1 2v1l-1 1-3 10h10zm25 15h-5v-31h-10v-4h24v4h-9v31zm-195-19h12v17c-1 0-2 0-3 1h-3s-1 0-2 1h-4c-2 0-4-1-6-2-2 0-4-2-5-3-2-2-3-4-3-6-1-2-1-4-1-7s0-5 1-8c1-2 2-4 3-5 2-2 3-3 5-4 3-1 5-1 8-1h5c1 1 3 1 4 2l-1 4c-1 0-2-1-2-1-1 0-2 0-2-1h-5c-2 0-3 0-5 1-1 0-3 1-4 3-1 1-1 2-2 4 0 2-1 4-1 6s1 4 1 5c0 2 1 4 2 5s2 2 4 3c1 0 3 1 5 1h4c0-1 1-1 1-1h1v-10h-7v-4zm46 18h-5l-17-29v29h-4v-35h5l17 29v-29h4v35zm35-18c0 3 0 6-1 8l-3 6-6 3c-2 1-4 1-7 1h-9v-35h10c3 0 5 1 7 2 2 0 3 1 5 3 1 1 2 3 3 5s1 5 1 7zm-5 1v-6c-1-2-2-3-3-5-1-1-2-1-3-2-2-1-3-1-5-1h-5v27h4c4 0 7-1 9-3s3-6 3-10z"/><path fill="#404040" d="M847 691c0 3 0 5-1 7-1 3-2 5-3 6-2 1-4 3-6 3-2 1-4 1-7 1h-8v-34h9c3 0 5 0 7 1s3 2 5 3c1 1 2 3 3 5 1 3 1 5 1 8zm-5 0v-6c-1-2-2-3-3-4l-3-3c-2 0-3-1-5-1h-5v28h4c4 0 7-2 9-4s3-6 3-10zm15 17l13-30h-18v-4h22v3l-13 31h-4z"/><path fill="#00A0E3" d="M748 690c0 3 0 6-1 8 0 2-2 4-3 6-1 1-3 2-5 3s-5 1-7 1h-9v-35h10c2 0 4 1 6 1 2 1 4 2 5 4 2 1 3 3 3 5 1 2 1 5 1 7zm-4 1c0-3 0-5-1-6-1-2-1-4-2-5s-3-2-4-2c-1-1-3-1-5-1h-5v27h4c4 0 7-1 10-3 2-2 3-6 3-10zm10 2v-5c0-1 1-3 1-4 1-2 1-3 2-5l3-3c1-1 2-2 4-2 1-1 3-1 5-1h4v4h-7c-1 0-2 1-3 1-1 1-2 2-2 3-1 0-1 1-1 2-1 1-1 3-1 4v3l1-1c0-1 1-1 2-2h2c0-1 1-1 2-1 2 0 3 1 4 1 1 1 2 1 3 2s2 2 2 3c1 2 1 3 1 5s0 3-1 5c0 1-1 2-2 3l-3 3c-2 0-3 1-5 1-1 0-3-1-4-1-1-1-3-2-4-3s-1-3-2-5-1-4-1-7zm11 12c1 0 2 0 3-1 1 0 1 0 2-1s1-2 1-3c1-1 1-2 1-3s0-2-1-3c0-1 0-2-1-2 0-1-1-1-2-2h-5c-1 1-2 1-3 2 0 0-1 1-1 2s-1 1-1 2 1 2 1 3 1 2 1 3l2 2c1 1 2 1 3 1zm-116-15c0 3 0 5-1 8-1 2-2 4-4 5-1 2-3 3-5 3-2 1-4 2-7 2h-9v-35h10c2 0 5 0 7 1s3 2 5 3c1 2 2 3 3 6 1 2 1 4 1 7zm-5 0c0-2 0-4-1-6 0-2-1-3-2-4s-2-2-4-3h-9v27h4c4 0 7-1 9-4 2-2 3-5 3-10zm21-4c1 0 3 0 4 1 2 0 3 1 4 2s2 2 2 3c1 1 1 3 1 4 0 2 0 4-1 5 0 2-1 3-2 4s-3 2-4 2c-2 1-4 1-6 1h-4c-1-1-2-1-2-1-1 0-1-1-2-1v-4c1 0 1 1 2 1s1 1 2 1h8c1 0 2-1 2-1 1-1 2-2 2-3s1-2 1-3c0-2-1-4-3-5-1-1-3-2-6-2h-4l-1 1-2-2 1-16h16v4h-12l-1 10s1 0 2-1h3zm-118 5c0 2 0 5-1 7l-3 6c-2 1-3 2-6 3-2 1-4 1-7 1h-8v-34h9c3 0 5 0 7 1 2 0 3 1 5 3 1 1 2 3 3 5s1 5 1 8zm-4 0c0-3-1-5-1-6-1-2-2-3-3-4-1-2-2-2-3-3-2 0-3-1-5-1h-5v27h4c4 0 7-1 9-3s4-6 4-10zm33 9h-5v8h-4v-8h-16v-3l15-24h5v24h5v3zm-9-3v-19l-1 1v1l-1 1v1l-10 15h12zm-118-7c0 3 0 6-1 8l-3 6-6 3c-2 1-4 1-7 1h-8v-35h9c3 0 5 1 7 1 2 1 3 2 5 4 1 1 2 3 3 5s1 5 1 7zm-5 1v-6c-1-2-2-4-3-5s-2-2-3-2c-2-1-3-1-5-1h-5v27h4c4 0 7-1 9-3s3-6 3-10zm31-9c0 1 0 2-1 3 0 1-1 1-1 2-1 1-2 1-3 2 0 0-2 1-3 1 3 0 5 1 7 3 1 1 2 3 2 5s0 3-1 4c0 2-1 3-2 4s-3 1-4 2c-2 0-4 1-6 1s-3-1-5-1c-1 0-3-1-4-1v-4c1 0 3 1 5 1 1 1 3 1 4 1 2 0 3 0 4-1 1 0 2 0 3-1 0-1 1-1 1-2s1-2 1-3-1-2-1-3c-1 0-1-1-2-2-1 0-2 0-3-1h-7v-4h7c1 0 2-1 2-1 1-1 2-2 2-3v-4c0-1-1-2-1-2-1-1-1-1-2-1h-7c-1 1-2 2-4 2l-2-3c1 0 1-1 2-1s2-1 3-1c0 0 1-1 2-1h4c1 0 3 0 4 1 1 0 2 1 3 1 1 1 2 2 2 3 1 1 1 2 1 4zm-126 9c0 3 0 5-1 8-1 2-2 4-3 5-2 2-4 3-6 3-2 1-4 2-7 2h-9v-35h10c3 0 5 0 7 1s3 2 5 3c1 2 2 3 3 6 1 2 1 4 1 7zm-5 0v-6c-1-2-2-3-3-4l-3-3h-10v27h4c4 0 7-1 9-4 2-2 3-5 3-10zm32 18h-22v-4l9-9c1-1 2-3 3-4s2-2 2-3c1-1 1-2 2-3v-6l-1-1-2-2h-2c-2 0-3 0-4 1-2 1-3 1-4 2l-2-3s1-1 2-1c0-1 1-1 2-1 1-1 2-1 3-1 1-1 2-1 3-1s3 1 4 1 2 1 3 2 1 2 2 3c0 1 1 2 1 4 0 1-1 2-1 3 0 2-1 3-2 4s-1 2-2 4c-1 1-3 2-4 3l-6 7v1h16v4zm-120-19c0 3 0 6-1 8l-3 6-6 3c-2 1-4 1-7 1h-8v-35h9c3 0 5 1 7 1 2 1 3 2 5 4 1 1 2 3 3 5s1 5 1 7zm-5 1v-6c-1-2-2-4-3-5s-2-2-3-2c-2-1-3-1-5-1h-5v27h4c4 0 7-1 9-3 2-3 3-6 3-10zm25 17h-4v-30s-1 0-1 1c-1 0-1 1-1 1h-1l-3 3-3-3 9-7h4v35zm-128-18c0 3 0 6-1 8 0 2-2 4-3 6-1 1-3 2-5 3s-5 1-7 1h-9v-35h10c2 0 4 1 6 2 2 0 4 1 5 3 2 1 3 3 3 5 1 2 1 5 1 7zm-4 1c0-3 0-5-1-6 0-2-1-3-2-5-1-1-2-1-4-2-1-1-3-1-5-1h-5v27h4c4 0 8-1 10-3s3-6 3-10zm32 0c0 3 0 5-1 7 0 2-1 4-2 6 0 1-2 3-3 3-1 1-3 2-5 2s-4-1-5-2c-1 0-3-2-3-3l-3-6v-15c1-2 1-4 2-5 1-2 2-3 4-4 1-1 3-1 5-1s3 0 5 1c1 1 2 2 3 4 1 1 2 3 2 5 1 2 1 5 1 8zm-18 0c0 2 0 4 1 6 0 2 0 3 1 4 0 2 1 2 2 3s2 1 3 1 2 0 3-1 1-1 2-3c1-1 1-2 1-4s1-4 1-6c0-3-1-5-1-7 0-1 0-3-1-4s-1-2-2-3h-6c-1 1-2 2-2 3-1 1-1 3-1 4-1 2-1 4-1 7zm-14-563l-4-11h-13l-4 11h-4l13-35h4l12 35h-4zm-5-15l-4-10v-1s0-1-1-1v-3c-1 0-1 1-1 1v2l-1 1v1l-3 10h10zm34-2c0 2 0 5-1 7 0 2-1 4-2 6-1 1-2 3-3 3-2 1-3 2-5 2s-4-1-5-2c-2 0-3-2-4-3-1-2-1-4-2-6v-15c1-2 1-4 2-5 1-2 2-3 4-4 1-1 3-1 5-1s3 0 5 1l3 3c1 2 2 4 2 6 1 2 1 5 1 8zm-18 0v6c1 2 1 3 2 4 0 1 1 2 2 3 0 1 1 1 3 1 1 0 2 0 3-1s1-2 2-3c0-1 1-2 1-4v-13c0-1-1-3-1-4-1-1-1-2-2-3-1 0-2-1-3-1-2 0-3 1-3 1-1 1-2 2-2 3-1 1-1 3-2 4v7zm89 17l-4-11h-13l-4 11h-4l13-35h4l12 35h-4zm-5-15l-4-10v-1s0-1-1-1v-3c-1 0-1 1-1 1v2l-1 1v1l-3 10h10zm26 15h-4V98v1h-1l-1 1h-1l-3 3-2-3 9-7h3v35zm79 0l-4-11h-13l-4 11h-4l13-35h4l12 35h-4zm-5-15l-4-10v-1s0-1-1-1v-3c-1 0-1 1-1 1v2l-1 1v1l-3 10h10zm33 15h-21v-4l8-9 3-3c1-1 2-2 2-3 1-1 2-2 2-3s1-3 1-4-1-1-1-2-1-1-1-2c-1 0-1-1-2-1h-6c-1 1-3 2-4 3l-2-3 2-2c1 0 2-1 2-1 1 0 2-1 3-1h7c1 1 2 2 3 2 1 1 2 2 2 3 1 1 1 3 1 4s0 3-1 4c0 1-1 2-1 4l-3 3c-1 1-2 3-3 4l-7 7h16v4zm72 0l-4-11h-13l-4 11h-4l13-35h4l12 35h-4zm-5-15l-4-10v-1s0-1-1-1v-3c-1 0-1 1-1 1v2l-1 1v1l-3 10h10zm32-12v4l-2 2-2 2c-1 0-2 1-3 1 2 0 5 1 6 3 1 1 2 3 2 5s0 3-1 4c0 2-1 3-2 4s-2 1-4 2c-1 0-3 1-6 1-1 0-3-1-4-1-2 0-3-1-5-1v-4c2 0 3 1 5 1 1 1 3 1 4 1 2 0 3 0 4-1 1 0 2 0 3-1s1-1 1-2c1-1 1-2 1-3s0-2-1-3l-2-2s-1 0-2-1h-7v-4h6c1 0 2-1 3-2 0 0 1-1 1-2 1 0 1-1 1-2s0-2-1-2c0-1 0-2-1-2 0-1-1-1-2-1h-7c-1 1-2 2-3 2l-3-3c1 0 2-1 2-1 1 0 2-1 3-1s2-1 3-1h7c2 1 3 2 4 2 0 1 1 2 1 3 1 1 1 2 1 3zm73 27l-4-11h-13l-4 11h-4l13-35h4l12 35h-4zm-5-15l-4-10v-1s0-1-1-1v-3c-1 0-1 1-1 1v2l-1 1v1l-3 10h10zm35 7h-5v8h-4v-8h-16v-4l16-23h4v23h5v4zm-9-4V98v1c-1 0-1 0-1 1 0 0 0 1-1 1v1l-10 14h12zm79 12l-4-11h-13l-4 11h-4l13-35h4l12 35h-4zm-5-15l-4-10v-1s0-1-1-1v-3c-1 0-1 1-1 1v2l-1 1v1l-3 10h10zm22-6h5c1 1 2 1 3 2s2 2 3 4v9l-3 3c-1 1-2 2-4 3-1 0-3 1-5 1-1 0-2-1-2-1h-3s-1 0-2-1h-2v-4c1 0 2 0 2 1h3s1 1 2 1h2c1 0 2 0 3-1 1 0 2 0 3-1s1-1 1-2c1-1 1-2 1-4s-1-4-2-5-4-2-6-2h-2c0 1-1 1-1 1h-3l-2-1 1-17h17v4h-13l-1 10h5zm66 3c0 3-1 5-1 8-1 2-2 4-4 5-1 2-3 3-5 3-2 1-4 2-7 2h-9V93h10c2 0 4 0 6 1s4 2 5 3c2 2 3 3 4 6 0 2 1 4 1 7zm-5 0c0-2 0-4-1-6 0-2-1-3-2-4s-2-2-4-3h-9v27h3c5 0 8-1 10-4 2-2 3-5 3-10zm33 18l-4-11h-13l-4 11h-4l12-35h4l13 35h-4zm-5-15l-4-10v-1c0-1-1-1-1-2v-1c0-1 0-1-1-2v3c-1 1-1 1-1 2v1l-4 10h11zm28-17c-2 0-3 1-5 1l-3 3c-1 1-2 3-2 4-1 2-1 4-1 6s0 4 1 6c0 2 1 3 2 5 1 1 2 2 3 2 2 1 3 1 5 1h4c1-1 3-1 4-1v4h-2c-1 0-1 1-2 1h-5c-2 0-5 0-6-1-2-1-4-2-5-4-1-1-2-3-3-6-1-2-1-4-1-7 0-2 1-5 1-7l3-6c2-1 3-2 5-3s4-2 7-2c2 0 3 1 5 1 1 0 3 1 4 1l-2 4c-1 0-2-1-3-1-1-1-2-1-4-1zm48-3h4l6 21v2c1 1 1 2 1 3s0 1 1 2 0-1 1-2v-5l5-21h5l-9 35h-4l-6-22c-1-1-1-2-1-3s0-1-1-2v-3c0 1 0 2-1 3v2c0 1-1 2-1 3l-6 22h-4l-9-35h5l5 21v3c1 0 1 1 1 2v4c1 0 1-1 1-2v-2c0-1 0-2 1-3v-2l6-21zm52 35h-5l-11-17-4 3v14h-4V93h4v18l3-4 11-14h5l-12 15 13 20zm25-25c0 2 0 3-1 5 0 1-1 2-2 3s-2 2-4 3c-1 0-3 1-6 1h-3v13h-5V93h9c2 0 4 1 5 1 2 0 3 1 4 2s2 2 2 3c1 1 1 3 1 4zm-16 8h3c1 0 2 0 3-1 2 0 2 0 3-1 1 0 1-1 2-2v-3c0-3 0-4-2-5-1-1-3-2-6-2h-3v14zm42 3v14h-4V93h8c4 0 7 1 9 3 2 1 3 4 3 7v4c-1 1-1 2-2 2 0 1-1 2-2 2-1 1-2 1-2 1l9 16h-5l-9-14h-5zm0-4h7c1-1 2-1 3-2 1 0 1-1 1-2 1-1 1-2 1-3s0-2-1-3l-1-1c-1-1-2-1-3-2h-7v13zm46 18h-5l-8-15-9 15h-4l10-18-10-17h5l8 14 8-14h4l-10 17 11 18zm62 0h-5V97h-10v-4h25v4h-10v31zm37 0h-5l-9-15-8 15h-5l11-18-10-17h5l8 14 8-14h4l-10 17 11 18zm40-18h11v17s-1 0-2 1h-6c-1 1-2 1-3 1-3 0-5-1-7-2-2 0-3-2-5-3l-3-6c0-2-1-5-1-7 0-3 1-5 2-8 0-2 1-4 3-5 1-2 3-3 5-4s5-1 7-1h5c2 1 4 1 5 2l-2 4s-1-1-2-1c0 0-1 0-2-1h-4c-2 0-4 0-5 1-2 0-3 1-4 3-1 1-2 2-2 4-1 2-1 4-1 6s0 4 1 5c0 2 1 4 2 5l3 3c2 0 4 1 6 1h2s1 0 1-1h3v-10h-7v-4zm46 18h-6l-16-29v29h-4V93h5l16 29h1c0-1 0-2-1-4V93h5v35zm35-18c0 3-1 6-1 8-1 2-2 4-4 6-1 1-3 2-5 3s-5 1-7 1h-9V93h10c2 0 4 1 6 1 2 1 4 2 5 4 2 1 3 3 4 5 0 2 1 5 1 7zm-5 1c0-3 0-5-1-6 0-2-1-3-2-5-1-1-2-1-4-2-1-1-3-1-5-1h-4v27h3c5 0 8-1 10-3s3-6 3-10zm46-18h5l-12 35h-4l-12-35h5l7 22c0 2 1 3 1 4 0 2 1 3 1 4 0-1 0-2 1-4 0-1 0-2 1-4l7-22zm19 35h-12v-3l4-1V97l-4-1v-3h12v3l-4 1v27l4 1v3zm33 0h-6l-16-29v29h-4V93h5l17 29v-4s0-1-1-1V93h5v35z"/></g><g><path fill="#CCC" d="M1019 530h-22v-35h22z"/><path fill="#E5E5E5" d="M999 530h-2v-35h2z"/><path fill="#CCC" d="M958 530h-23v-35h23z"/><path fill="#E5E5E5" d="M938 530h-3v-35h3z"/><path fill="#CCC" d="M958 656h-23v-35h23z"/><path fill="#E5E5E5" d="M938 656h-3v-35h3z"/><path fill="#CCC" d="M1019 656h-22v-35h22z"/><path fill="#E5E5E5" d="M999 656h-2v-35h2z"/><path fill="#999" d="M1036 646H918V506h118z"/><path fill="#B2B2B2" d="M918 646v-2h118v2z"/><path fill="#8C8C8C" d="M918 508v-2h118v2z"/><path d="M1011 576c0 19-15 35-34 35s-35-16-35-35 16-35 35-35 34 16 34 35z"/><path fill="#404040" d="M1008 574c0 18-14 32-32 32-17 0-31-14-31-32 0-17 14-31 31-31 18 0 32 14 32 31z"/><path fill="#999" d="M1008 574c0 18-14 32-32 32-17 0-31-14-31-32 6 41 58 41 63 0z"/></g><g><path fill="#CCC" d="M1110 188h-23v-35h23z"/><path fill="#E5E5E5" d="M1090 188h-3v-35h3z"/><path fill="#CCC" d="M1185 188h-23v-35h23z"/><path fill="#E5E5E5" d="M1164 188h-2v-35h2z"/><path fill="#CCC" d="M1184 272h-22v-35h22z"/><path fill="#E5E5E5" d="M1164 272h-2v-35h2z"/><path fill="#CCC" d="M1147 272h-22v-35h22z"/><path fill="#E5E5E5" d="M1127 272h-2v-35h2z"/><path fill="#CCC" d="M1110 272h-23v-35h23z"/><path fill="#E5E5E5" d="M1090 272h-3v-35h3z"/><path fill="#666" d="M1195 177v70h-117v-70z"/></g><g><path fill="#006900" d="M768 183v432H295V183z"/><path fill="#CCC" d="M358 190v45h-55v-45z"/><path fill="#B2B2B2" d="M757 190v45h-67v-45zm0 358v61h-42v-61z"/><path fill="#CCC" d="M346 558v51h-43v-51zm0-140v101h-43V418z"/><path fill="#B2B2B2" d="M757 476v48h-42v-48zm0-99v42h-42v-42z"/><path fill="#9A916C" d="M342 287v60h-31v-60z"/><path fill="#C93" d="M754 272v74h-35v-74zM354 605v-25h44v25z"/><path fill="#B2B2B2" d="M749 197v405H314V197z"/><path fill="#CCC" d="M635 197h114v405H403c202-77 26-304 232-405z"/><g fill="#666"><path fill-rule="nonzero" d="M458 432v3c-1 0-1 1-1 2-1 0-1 1-2 1s-1 1-2 1-1-1-2-1c0 0-1 0-1-1-1 0-1 0-1-1-1 0-1-1-1-2-1 1-1 2-1 2l-2 2-1 1h-4c-1-1-2-1-2-2-1 0-1-1-1-2-1-1-1-2-1-3s0-2 1-3c0-1 0-2 1-2 0-1 1-1 2-2h4l1 1c1 0 1 1 2 1 0 1 0 2 1 2 0 0 0-1 1-1 0-1 0-1 1-1 0-1 1-1 1-1 1 0 1-1 2-1s1 1 2 1 1 1 2 1c0 1 0 2 1 3v2zm-16-4h-2l-1 1v1c0 1-1 1-1 2s1 1 1 2v1c1 1 1 1 2 1h2c1 0 1 0 1-1 1 0 1-1 1-1 1-1 1-1 1-2h1c-1-2-2-3-2-3-1-1-2-1-3-1zm14 4c0-1-1-2-1-3-1 0-1-1-2-1s-1 0-2 1h-1c0 1 0 1-1 2v2c1 1 1 1 1 2h1c1 1 1 1 2 1s1-1 2-1c0-1 1-2 1-3zm-7 18v3s-1 1-1 2c-1 1-1 1-2 1-1 1-2 1-3 1s-2 0-3-1c-1 0-1 0-2-1s-1-2-1-3c-1-1-1-2-1-3v-2s0-1 1-1v-3h3l-1 1v3c-1 1-1 1-1 2s1 1 1 2 0 1 1 2l1 1h2c1 0 2 0 3-1s1-3 1-4v-4l1-2 10 1v11h-3v-8l-6-1v4zm-2 25h-5c-1 0-2-1-3-2-1 0-2-1-2-2-1-1-1-2-1-3s0-3 1-3c0-1 1-2 2-3 1 0 2-1 3-1 2 0 3-1 5-1s3 1 5 1c1 0 2 0 3 1s2 1 2 2c1 1 1 2 1 4 0 1 0 2-1 3 0 1-1 2-2 2-1 1-2 1-3 2h-5zm0-12c-1 0-3 0-4 1h-2c-1 1-2 1-2 2 0 0-1 1-1 2s1 1 1 2c0 0 1 1 2 1 0 1 1 1 2 1h8c1 0 2 0 3-1l1-1c0-1 1-1 1-2s-1-2-1-2c0-1-1-1-1-2h-3c-1-1-3-1-4-1zm-10 25v-3h17v-1s-1 0-1-1l-2-2 2-1 5 6v2h-21zm10 23h-5c-1-1-2-1-3-2-1 0-2-1-2-2-1-1-1-2-1-3 0-2 0-3 1-4 0-1 1-1 2-2s2-1 3-1c2-1 3-1 5-1s3 0 5 1c1 0 2 0 3 1 1 0 2 1 2 2 1 1 1 2 1 4 0 1 0 2-1 3 0 1-1 2-2 2-1 1-2 1-3 2h-5zm0-12h-4c-1 1-2 1-2 1-1 0-2 1-2 1 0 1-1 2-1 3 0 0 1 1 1 2 0 0 1 1 2 1 0 0 1 1 2 1h8c1 0 2-1 3-1l1-1c0-1 1-2 1-2 0-1-1-2-1-3l-1-1c-1 0-2 0-3-1h-4zm-6 31v-4h-4v-2h4v-11h3l14 10v3h-14v4h-3zm3-6h11s0-1-1-1h-1c0-1 0-1-1-1l-8-6v8zm-21-98v10c0 1 0 2-1 3 0 0-1 1-2 1 0 1-1 1-2 1s-1 0-2-1h-1c0-1-1-1-1-2 0 0-1-1-1-2v2c0 1-1 1-1 2-1 0-1 1-2 1h-4c-1 0-2-1-2-2-1 0-1-1-1-2-1-1-1-2-1-3v-8h21zm-9 3v4c0 1 0 2 1 2v2s1 0 1 1h2c1 0 2-1 2-1 1-1 1-3 1-4v-4h-7zm-2 0h-7v7s0 1 1 1c0 1 0 1 1 1h3s1 0 1-1l1-1v-7zm-10 27l19-7h-19v-3h21v5l-17 6 17 7v4h-21v-3h17c0 1 1 1 2 1v-1l-19-7v-2zm7 17h2v8h-2v-8zm4 25h-5c-1 0-2-1-3-1-1-1-2-2-2-3-1-1-1-2-1-3s0-2 1-3c0-1 1-2 2-3 1 0 2-1 3-1h9c2 0 3 1 4 1 1 1 1 2 2 2 0 1 1 3 1 4s-1 2-1 3c-1 1-1 2-2 2-1 1-2 2-4 2h-4zm0-12c-2 0-3 1-4 1h-3c0 1-1 1-1 2-1 0-1 1-1 2s0 1 1 2c0 1 1 1 1 1 1 1 2 1 3 1h8c1 0 2 0 2-1 1 0 1 0 2-1v-4l-2-2h-2c-2 0-3-1-4-1zm1 30h-3c-1 0-2 0-3-1 0 0-1 0-2-1-1 0-2-1-2-2-1 0-1-1-2-2v-7h2v3c0 1 0 3 1 3 0 1 1 2 2 3 0 0 1 1 2 1h4c-1 0-1 0-1-1-1 0-1 0-1-1l-1-1v-2c0-1 0-2 1-3 0 0 0-1 1-2 0 0 1-1 2-1h5c1 0 2 1 3 1 0 1 1 2 1 3s1 2 1 3-1 2-1 3l-2 2c0 1-1 1-3 2h-4zm7-7v-2c0-1 0-1-1-1 0-1-1-1-1-1-1-1-2-1-3-1 0 0-1 0-1 1h-2c0 1 0 1-1 2v2s0 1 1 1v2c1 0 1 1 2 1h3c1 0 1-1 2-1l1-1v-2zm-12 10h2v8h-2v-8zm-1 25c-1 0-2-1-3-1 0 0-1-1-1-2-1 0-1-1-2-2v-7c0-1 1-1 1-2h3c-1 0-1 1-1 1v2l-1 1v2c0 1 1 3 1 3 1 1 2 2 3 2 0 0 1 0 1-1h1c0-1 1-1 1-2s1-1 1-2 1-2 1-3 1-1 1-2c1 0 1 0 2-1h2c1 0 2 0 2 1 1 0 2 0 2 1 1 1 1 1 1 2s1 2 1 3-1 2-1 3 0 2-1 3l-2-1c0-1 1-1 1-2v-3c0-1 0-2-1-3 0-1-1-1-2-1h-1c-1 0-1 1-1 1-1 0-1 1-1 2 0 0-1 1-1 2s-1 2-1 2c-1 1-1 2-1 2-1 1-1 1-2 1s-1 1-2 1zm-27-112c0 1 0 2-1 3 0 1 0 1-1 2 0 1-1 1-2 2h-5c-1-1-2-1-2-2-1-1-1-2-2-3v-8l1-1h2v1c0 1-1 1-1 2v5c0 1 1 1 1 2l1 1h2c2 0 3 0 4-1 0-1 1-3 1-4v-2c0-1-1-1-1-1v-1l1-1h10v11h-2v-8l-6-1v4zm-13 13l19 9v-12h2v15h-2l-19-9v-3zm16 29h-2c0-1-1-1-1-1-1-1-1-1-1-2-1-1-1-1-1-2 0 2-1 3-2 4s-2 2-3 2-2 0-3-1c0 0-1-1-2-1 0-1-1-2-1-3v-7c0-1 0-2 1-3h2c0 1 0 2-1 3v6s1 1 1 2c0 0 1 0 1 1h2c1 0 1 0 2-1 0 0 1 0 1-1 0 0 0-1 1-2v-4h2v4c0 1 1 1 1 2l1 1h3c1 0 1-1 1-1 1 0 1-1 1-1v-5c-1-1-1-2-2-2l2-2c0 1 1 1 1 2 0 0 0 1 1 1v7c0 1-1 2-1 2l-2 2h-2z"/><path d="M581 451l45-29 44 27-28-43 28-45-44 29-43-28 27 44z"/><path d="M597 413l5-7-5-7-33 7zm29-32l-6-4 6-33 7 33-6 4zm-7 53l7-4 8 5-8 32zm36-21l33-7-33-7-4 7z"/><path d="M581 451l45-29 44 27-44-29z"/><path fill-rule="nonzero" d="M546 403c-2 0-3 0-4-1-1 0-2-1-3-2s-1-2-2-3v-10h-12v-4h29v8c0 2 0 4-1 6 0 1-1 2-1 3-1 1-2 2-3 2-1 1-2 1-3 1zm-6-16v7c0 1 0 2 1 2 0 1 1 2 2 2 0 0 1 1 2 1 2 0 4-1 5-2 0-2 1-4 1-6v-4h-11zm0 42h-6c-2-1-4-1-5-2s-2-2-3-4c-1-1-1-3-1-5 0-1 0-3 1-4 1-2 2-3 3-4 1 0 3-1 5-2h12c2 1 3 1 5 2 1 1 2 2 2 4 1 1 1 3 1 4 0 2 0 4-1 5 0 2-1 3-2 4-2 0-3 1-5 2h-6zm0-17h-5c-2 1-3 1-4 1l-2 2c-1 1-1 2-1 3 0 2 0 3 1 3 0 1 1 2 2 2 1 1 2 1 4 2h10c1-1 3-1 3-2 1 0 2-1 3-2v-6c-1 0-2-1-3-2 0 0-2 0-3-1h-5z"/><path d="M370 260h136v7h-8v8h8v7h-8v8h8v8h-15v30h7v-8h8v8h-8v7h8v8h-8v-8h-7v8h-8v7h8v8h7v-8h8v8h-8v8h8v7h-8v-7h-7v7h-38v-7h-15v7h-38v-7h-8v7h-7v-7h7v-16h-7v-7h7v-8h8v-7h7v-8h-7v-7h-8v7h-7v8h-8v45h23v8h7v15h-7v-15h-23v15h-7V260zm121 136v-8h-8v8h-8v-8h-7v8h-8v-8h-7v8h-8v-8h8v-7h-8v-8h23v8h7v-8h23v8h8v7h-8v8h-7zm0-8h7v-7h-7v7zm-61 8v-8h-7v8h-8v-8h8v-7h-8v-8h15v15h8v8h-8zm-45 0v-8h7v8h-7zm98-30v-8h-15v-8h7v-7h-7v-8h23v-7h-8v-8h-15v-15h-8v-7h15v7h8v-15h-8v-8h-7v-7h-8v-8h-7v8h7v15h-15v-8h-7v-7h-8v15h8v8h-8v-8h-15v8h8v15h7v15h-7v-8h-8v23h-8v-8h-7v31h7v-16h8v16h15v-16h-7v-15h15v8h-8v7h8v-7h7v-15h-7v-8h7v8h8v7h7v8h-15v7h15v16h23zm-45-8h7v-8h-7v8zm-53-38v-7h-8v7h8zm22-7v-8h-7v8h7zm91-8h8v8h-8v-8zm-53 0h8v8h-8v-8zm-53-7v-8h-7v8h7zm99-8v-8h7v-7h-7v-8h-23v8h15v15h8zm-84 0v-8h8v-7h15v-8h-23v8h-15v-8h-15v15h15v8h15zm46-8v-7h-8v7h8zm-8-7v-8h-7v8h7zm70 148v44l-31 22v52h-6v-55l32-22v-37l5-4zm-15 19v16l-16 11v-16l16-11zm-22 39v-31l28-20v31l-28 20zm-4 60h-6v-83l6-5v88z"/><path fill-rule="nonzero" d="M516 488v5h-20c-1 1-2 1-2 2-1 1-1 2-1 3s0 2 1 3c0 1 1 1 2 1 1 1 2 1 5 1h15v5h-15c-3 0-5-1-7-1-1 0-2-1-3-1-1-1-2-2-2-3-1-1-1-3-1-5s0-4 1-5c0-1 1-2 2-3s2-1 3-1c2-1 4-1 7-1h15zm-19 25v5h-2c-2 0-3 2-3 4 0 1 1 2 2 3 0 1 1 1 2 1h2s1-1 1-2c0 0 1-2 1-4 1-2 2-4 3-5 2-2 3-3 6-3 1 0 2 1 4 1 1 1 2 2 2 4 1 1 1 2 1 4 0 3 0 6-2 7-2 2-3 3-6 3v-6c1 0 2 0 3-1 0 0 1-1 1-3 0-1-1-2-1-3-1-1-1-1-2-1s-1 0-2 1l-2 4c0 3-1 5-2 6 0 1-1 2-2 2-2 1-3 1-5 1-1 0-3 0-4-1-2-1-3-2-3-3-1-2-1-3-1-5 0-4 1-6 2-8 2-2 4-1 7-1zm-9 22h28v5h-28v-5z"/><path d="M516 548c0 1 0 2-1 3 0 0-1 1-2 1 0 1-1 1-2 1s-1 0-2-1c-1 0-1-1-2-1v-5l2-2h4c1 1 2 1 2 2 1 1 1 2 1 2zm-1 0v-2c-1 0-1-1-2-1h-4l-1 1v4c0 1 1 1 1 2h4l2-2v-2zm-6-2h5v2c0 1 0 1-1 1v1h-2v-1c-1 0-1 1-1 1h-1v-1h1l1-1v-1h-2v-1zm2 1v1c0 1 1 1 1 1h1v-2h-2z"/></g><path fill="#404040" d="M676 245c6-6 16-6 22 0 7 6 7 16 0 23-6 6-16 6-22 0-7-7-7-17 0-23z"/><path fill="#fff" d="M676 245c6-6 16-6 22 0 7 6 7 16 0 23 13-17-6-36-22-23z"/></g><g><path fill="#CCC" d="M968 380h-22v-20h22z"/><path fill="#E5E5E5" d="M948 380h-2v-20h2z"/><path fill="#CCC" d="M1006 380h-23v-20h23z"/><path fill="#E5E5E5" d="M986 380h-3v-20h3z"/><path fill="#CCC" d="M968 436h-23v-21h23z"/><path fill="#E5E5E5" d="M948 436h-3v-21h3z"/><path fill="#CCC" d="M1006 436h-23v-21h23z"/><path fill="#E5E5E5" d="M986 436h-3v-21h3z"/><path d="M939 363h75v70h-75z"/><path fill="#404040" d="M998 363h1l15 11v1z"/><path fill="#E5E5E5" d="M949 373l28-4 25 4 4 25-4 26-25 3-28-3-3-26z"/><path fill="#B2B2B2" d="M977 385c7 0 12 6 12 12h-12v-12z"/><path fill="#1B5BB3" d="M976 385c-6 0-12 6-12 12h12v-12z"/><path fill="#00A63D" d="M976 410c-6 0-12-5-12-12h12v12z"/><path fill="#CC1414" d="M977 410c7 0 12-5 12-12h-12v12z"/><path fill="#fff" d="M949 373l28-4 25 4 4 25-4 26 2-26-2-25-25-2z"/><path fill="#B2B2B2" d="M1002 424l-25 3-28-3-3-26 3-25-1 25 1 26 28 1z"/></g><g><path fill="#C93" d="M407 134h33v33h-33zm49 0h33v33h-33zm48 0h34v33h-34z"/><path fill="#E6AB00" d="M407 134h1v33h-1zm49 0h1v33h-1zm48 0h1v33h-1z"/></g><g><path fill="#B2B2B2" d="M148 84c-19 0-35-15-35-34 0-20 16-35 35-35s35 15 35 35c0 19-16 34-35 34z"/><path fill="#999" d="M167 78c0-5-4-17-19-28 15-13 19-23 20-29 11 8 15 19 15 29 0 9-4 21-16 28zm-31-41l12 13-12 12c1-8 2-16 0-25z"/><path fill="#CCC" d="M148 50l13 12c-9-2-17-2-25 0l12-12z"/><path fill="#999" d="M148 50l13-13c-2 8-3 16 0 25l-13-12z"/><path fill="#CCC" d="M148 50l-12-13c8 2 16 2 25 0l-13 13z"/><path fill="#CCC" d="M148 55c-3 0-5-2-5-5 0-4 2-6 5-6s6 2 6 6-3 5-6 5z"/><path fill="#E5E5E5" d="M148 55c-3 0-5-2-5-5 0-2 0-4 1-5-1 1-1 3-1 4 0 4 2 6 5 6 2 0 3-1 4-1-1 1-2 1-4 1z"/><path fill="#666" d="M144 46c1-1 2-2 4-2 3 0 6 2 6 6 0 2-1 3-2 4 1-1 1-2 1-4 0-4-2-6-5-6-2 0-3 1-4 2z"/><path fill="#B2B2B2" d="M248 84c-19 0-35-15-35-34 0-20 16-35 35-35s35 15 35 35c0 19-16 34-35 34z"/><path fill="#999" d="M267 78c0-5-4-17-19-28 15-13 19-23 20-29 11 8 15 19 15 29 0 9-4 21-16 28zm-31-41l12 13-12 12c1-8 2-16 0-25z"/><path fill="#CCC" d="M248 50l13 12c-9-2-17-2-25 0l12-12z"/><path fill="#999" d="M248 50l13-13c-2 8-3 16 0 25l-13-12z"/><path fill="#CCC" d="M248 50l-12-13c8 2 16 2 25 0l-13 13z"/><path fill="#CCC" d="M248 55c-3 0-5-2-5-5 0-4 2-6 5-6s6 2 6 6-3 5-6 5z"/><path fill="#E5E5E5" d="M248 55c-3 0-5-2-5-5 0-2 0-4 1-5-1 1-1 3-1 4 0 4 2 6 5 6 2 0 3-1 4-1-1 1-2 1-4 1z"/><path fill="#666" d="M244 46c1-1 2-2 4-2 3 0 6 2 6 6 0 2-1 3-2 4 1-1 1-2 1-4 0-4-2-6-5-6-2 0-3 1-4 2z"/><path fill="#B2B2B2" d="M348 84c-19 0-35-15-35-34 0-20 16-35 35-35s35 15 35 35c0 19-16 34-35 34z"/><path fill="#999" d="M367 78c0-5-4-17-19-28 15-13 19-23 20-29 11 8 15 19 15 29 0 9-4 21-16 28zm-31-41l12 13-12 12c1-8 2-16 0-25z"/><path fill="#CCC" d="M348 50l13 12c-9-2-17-2-25 0l12-12z"/><path fill="#999" d="M348 50l13-13c-2 8-3 16 0 25l-13-12z"/><path fill="#CCC" d="M348 50l-12-13c8 2 16 2 25 0l-13 13z"/><path fill="#CCC" d="M348 55c-3 0-5-2-5-5 0-4 2-6 5-6s6 2 6 6-3 5-6 5z"/><path fill="#E5E5E5" d="M348 55c-3 0-5-2-5-5 0-2 0-4 1-5-1 1-1 3-1 4 0 4 2 6 5 6 2 0 3-1 4-1-1 1-2 1-4 1z"/><path fill="#666" d="M344 46c1-1 2-2 4-2 3 0 6 2 6 6 0 2-1 3-2 4 1-1 1-2 1-4 0-4-2-6-5-6-2 0-3 1-4 2z"/><path fill="#B2B2B2" d="M448 84c-19 0-35-15-35-34 0-20 16-35 35-35s35 15 35 35c0 19-16 34-35 34z"/><path fill="#999" d="M467 78c0-5-4-17-19-28 15-13 19-23 20-29 11 8 15 19 15 29 0 9-4 21-16 28zm-31-41l12 13-12 12c1-8 2-16 0-25z"/><path fill="#CCC" d="M448 50l13 12c-9-2-17-2-25 0l12-12z"/><path fill="#999" d="M448 50l13-13c-2 8-3 16 0 25l-13-12z"/><path fill="#CCC" d="M448 50l-12-13c8 2 16 2 25 0l-13 13z"/><path fill="#CCC" d="M448 55c-3 0-5-2-5-5 0-4 2-6 5-6s6 2 6 6-3 5-6 5z"/><path fill="#E5E5E5" d="M448 55c-3 0-5-2-5-5 0-2 0-4 1-5-1 1-1 3-1 4 0 4 2 6 5 6 2 0 3-1 4-1-1 1-2 1-4 1z"/><path fill="#666" d="M444 46c1-1 2-2 4-2 3 0 6 2 6 6 0 2-1 3-2 4 1-1 1-2 1-4 0-4-2-6-5-6-2 0-3 1-4 2z"/><path fill="#B2B2B2" d="M548 84c-19 0-35-15-35-34 0-20 16-35 35-35s35 15 35 35c0 19-16 34-35 34z"/><path fill="#999" d="M567 78c0-5-4-17-19-28 15-13 19-23 20-29 11 8 15 19 15 29 0 9-4 21-16 28zm-31-41l12 13-12 12c1-8 2-16 0-25z"/><path fill="#CCC" d="M548 50l13 12c-9-2-17-2-25 0l12-12z"/><path fill="#999" d="M548 50l13-13c-2 8-3 16 0 25l-13-12z"/><path fill="#CCC" d="M548 50l-12-13c8 2 16 2 25 0l-13 13z"/><path fill="#CCC" d="M548 55c-3 0-5-2-5-5 0-4 2-6 5-6s6 2 6 6-3 5-6 5z"/><path fill="#E5E5E5" d="M548 55c-3 0-5-2-5-5 0-2 0-4 1-5-1 1-1 3-1 4 0 4 2 6 5 6 2 0 3-1 4-1-1 1-2 1-4 1z"/><path fill="#666" d="M544 46c1-1 2-2 4-2 3 0 6 2 6 6 0 2-1 3-2 4 1-1 1-2 1-4 0-4-2-6-5-6-2 0-3 1-4 2z"/><path fill="#B2B2B2" d="M648 84c-19 0-35-15-35-34 0-20 16-35 35-35s35 15 35 35c0 19-16 34-35 34z"/><path fill="#999" d="M667 78c0-5-4-17-19-28 15-13 19-23 20-29 11 8 15 19 15 29 0 9-4 21-16 28zm-31-41l12 13-12 12c1-8 2-16 0-25z"/><path fill="#CCC" d="M648 50l13 12c-9-2-17-2-25 0l12-12z"/><path fill="#999" d="M648 50l13-13c-2 8-3 16 0 25l-13-12z"/><path fill="#CCC" d="M648 50l-12-13c8 2 16 2 25 0l-13 13z"/><path fill="#CCC" d="M648 55c-3 0-5-2-5-5 0-4 2-6 5-6s6 2 6 6-3 5-6 5z"/><path fill="#E5E5E5" d="M648 55c-3 0-5-2-5-5 0-2 0-4 1-5-1 1-1 3-1 4 0 4 2 6 5 6 2 0 3-1 4-1-1 1-2 1-4 1z"/><path fill="#666" d="M644 46c1-1 2-2 4-2 3 0 6 2 6 6 0 2-1 3-2 4 1-1 1-2 1-4 0-4-2-6-5-6-2 0-3 1-4 2z"/><path fill="#B2B2B2" d="M748 84c-19 0-35-15-35-34 0-20 16-35 35-35s35 15 35 35c0 19-16 34-35 34z"/><path fill="#999" d="M767 78c0-5-4-17-19-28 15-13 19-23 20-29 11 8 15 19 15 29 0 9-4 21-16 28zm-31-41l12 13-12 12c1-8 2-16 0-25z"/><path fill="#CCC" d="M748 50l13 12c-9-2-17-2-25 0l12-12z"/><path fill="#999" d="M748 50l13-13c-2 8-3 16 0 25l-13-12z"/><path fill="#CCC" d="M748 50l-12-13c8 2 16 2 25 0l-13 13z"/><path fill="#CCC" d="M748 55c-3 0-5-2-5-5 0-4 2-6 5-6s6 2 6 6-3 5-6 5z"/><path fill="#E5E5E5" d="M748 55c-3 0-5-2-5-5 0-2 0-4 1-5-1 1-1 3-1 4 0 4 2 6 5 6 2 0 3-1 4-1-1 1-2 1-4 1z"/><path fill="#666" d="M744 46c1-1 2-2 4-2 3 0 6 2 6 6 0 2-1 3-2 4 1-1 1-2 1-4 0-4-2-6-5-6-2 0-3 1-4 2z"/><path fill="#B2B2B2" d="M848 84c-19 0-35-15-35-34 0-20 16-35 35-35s35 15 35 35c0 19-16 34-35 34z"/><path fill="#999" d="M867 78c0-5-4-17-19-28 15-13 19-23 20-29 11 8 15 19 15 29 0 9-4 21-16 28zm-31-41l12 13-12 12c1-8 2-16 0-25z"/><path fill="#CCC" d="M848 50l13 12c-9-2-17-2-25 0l12-12z"/><path fill="#999" d="M848 50l13-13c-2 8-3 16 0 25l-13-12z"/><path fill="#CCC" d="M848 50l-12-13c8 2 16 2 25 0l-13 13z"/><path fill="#CCC" d="M848 55c-3 0-5-2-5-5 0-4 2-6 5-6s6 2 6 6-3 5-6 5z"/><path fill="#E5E5E5" d="M848 55c-3 0-5-2-5-5 0-2 0-4 1-5-1 1-1 3-1 4 0 4 2 6 5 6 2 0 3-1 4-1-1 1-2 1-4 1z"/><path fill="#666" d="M844 46c1-1 2-2 4-2 3 0 6 2 6 6 0 2-1 3-2 4 1-1 1-2 1-4 0-4-2-6-5-6-2 0-3 1-4 2z"/><path fill="#B2B2B2" d="M948 84c-19 0-35-15-35-34 0-20 16-35 35-35s35 15 35 35c0 19-16 34-35 34z"/><path fill="#999" d="M967 78c0-5-4-17-19-28 15-13 19-23 20-29 11 8 15 19 15 29 0 9-4 21-16 28zm-31-41l12 13-12 12c1-8 2-16 0-25z"/><path fill="#CCC" d="M948 50l13 12c-9-2-17-2-25 0l12-12z"/><path fill="#999" d="M948 50l13-13c-2 8-3 16 0 25l-13-12z"/><path fill="#CCC" d="M948 50l-12-13c8 2 16 2 25 0l-13 13z"/><path fill="#CCC" d="M948 55c-3 0-5-2-5-5 0-4 2-6 5-6s6 2 6 6-3 5-6 5z"/><path fill="#E5E5E5" d="M948 55c-3 0-5-2-5-5 0-2 0-4 1-5-1 1-1 3-1 4 0 4 2 6 5 6 2 0 3-1 4-1-1 1-2 1-4 1z"/><path fill="#666" d="M944 46c1-1 2-2 4-2 3 0 6 2 6 6 0 2-1 3-2 4 1-1 1-2 1-4 0-4-2-6-5-6-2 0-3 1-4 2z"/><g><path fill="#B2B2B2" d="M1048 84c-19 0-35-15-35-34 0-20 16-35 35-35s35 15 35 35c0 19-16 34-35 34z"/><path fill="#999" d="M1067 78c0-5-4-17-19-28 15-13 19-23 20-29 11 8 15 19 15 29 0 9-4 21-16 28zm-31-41l12 13-12 12c1-8 2-16 0-25z"/><path fill="#CCC" d="M1048 50l13 12c-9-2-17-2-25 0l12-12z"/><path fill="#999" d="M1048 50l13-13c-2 8-3 16 0 25l-13-12z"/><path fill="#CCC" d="M1048 50l-12-13c8 2 16 2 25 0l-13 13z"/><path fill="#CCC" d="M1048 55c-3 0-5-2-5-5 0-4 2-6 5-6s6 2 6 6-3 5-6 5z"/><path fill="#E5E5E5" d="M1048 55c-3 0-5-2-5-5 0-2 0-4 1-5-1 1-1 3-1 4 0 4 2 6 5 6 2 0 3-1 4-1-1 1-2 1-4 1z"/><path fill="#666" d="M1044 46c1-1 2-2 4-2 3 0 6 2 6 6 0 2-1 3-2 4 1-1 1-2 1-4 0-4-2-6-5-6-2 0-3 1-4 2z"/></g><g><path fill="#B2B2B2" d="M1148 84c-19 0-35-15-35-34 0-20 16-35 35-35s35 15 35 35c0 19-16 34-35 34z"/><path fill="#999" d="M1167 78c0-5-4-17-19-28 15-13 19-23 20-29 11 8 15 19 15 29 0 9-4 21-16 28zm-31-41l12 13-12 12c1-8 2-16 0-25z"/><path fill="#CCC" d="M1148 50l13 12c-9-2-17-2-25 0l12-12z"/><path fill="#999" d="M1148 50l13-13c-2 8-3 16 0 25l-13-12z"/><path fill="#CCC" d="M1148 50l-12-13c8 2 16 2 25 0l-13 13z"/><path fill="#CCC" d="M1148 55c-3 0-5-2-5-5 0-4 2-6 5-6s6 2 6 6-3 5-6 5z"/><path fill="#E5E5E5" d="M1148 55c-3 0-5-2-5-5 0-2 0-4 1-5-1 1-1 3-1 4 0 4 2 6 5 6 2 0 3-1 4-1-1 1-2 1-4 1z"/><path fill="#666" d="M1144 46c1-1 2-2 4-2 3 0 6 2 6 6 0 2-1 3-2 4 1-1 1-2 1-4 0-4-2-6-5-6-2 0-3 1-4 2z"/></g><g><path fill="#B2B2B2" d="M1248 84c-19 0-35-15-35-34 0-20 16-35 35-35s35 15 35 35c0 19-16 34-35 34z"/><path fill="#999" d="M1267 78c0-5-4-17-19-28 15-13 19-23 20-29 11 8 15 19 15 29 0 9-4 21-16 28zm-31-41l12 13-12 12c1-8 2-16 0-25z"/><path fill="#CCC" d="M1248 50l13 12c-9-2-17-2-25 0l12-12z"/><path fill="#999" d="M1248 50l13-13c-2 8-3 16 0 25l-13-12z"/><path fill="#CCC" d="M1248 50l-12-13c8 2 16 2 25 0l-13 13z"/><path fill="#CCC" d="M1248 55c-3 0-5-2-5-5 0-4 2-6 5-6s6 2 6 6-3 5-6 5z"/><path fill="#E5E5E5" d="M1248 55c-3 0-5-2-5-5 0-2 0-4 1-5-1 1-1 3-1 4 0 4 2 6 5 6 2 0 3-1 4-1-1 1-2 1-4 1z"/><path fill="#666" d="M1244 46c1-1 2-2 4-2 3 0 6 2 6 6 0 2-1 3-2 4 1-1 1-2 1-4 0-4-2-6-5-6-2 0-3 1-4 2z"/></g><g><path fill="#B2B2B2" d="M148 784c-19 0-35-15-35-34 0-20 16-35 35-35s35 15 35 35c0 19-16 34-35 34z"/><path fill="#999" d="M167 778c0-5-4-17-19-28 15-13 19-23 20-29 11 8 15 19 15 29 0 9-4 21-16 28zm-31-41l12 13-12 12c1-8 2-17 0-25z"/><path fill="#CCC" d="M148 750l13 12c-9-2-17-2-25 0l12-12z"/><path fill="#999" d="M148 750l13-13c-2 8-3 16 0 25l-13-12z"/><path fill="#CCC" d="M148 750l-12-13c8 2 16 2 25 0l-13 13z"/><path fill="#CCC" d="M148 755c-3 0-5-2-5-5 0-4 2-6 5-6s6 2 6 6c0 3-3 5-6 5z"/><path fill="#E5E5E5" d="M148 755c-3 0-5-2-5-5 0-2 0-4 1-5-1 1-1 2-1 4 0 4 2 6 5 6 2 0 3-1 4-2-1 2-2 2-4 2z"/><path fill="#666" d="M144 746c1-1 2-2 4-2 3 0 6 2 6 6 0 1-1 3-2 4 1-1 1-2 1-4 0-4-2-6-5-6-2 0-3 1-4 2z"/></g><g><path fill="#B2B2B2" d="M248 784c-19 0-35-15-35-34 0-20 16-35 35-35s35 15 35 35c0 19-16 34-35 34z"/><path fill="#999" d="M267 778c0-5-4-17-19-28 15-13 19-23 20-29 11 8 15 19 15 29 0 9-4 21-16 28zm-31-41l12 13-12 12c1-8 2-17 0-25z"/><path fill="#CCC" d="M248 750l13 12c-9-2-17-2-25 0l12-12z"/><path fill="#999" d="M248 750l13-13c-2 8-3 16 0 25l-13-12z"/><path fill="#CCC" d="M248 750l-12-13c8 2 16 2 25 0l-13 13z"/><path fill="#CCC" d="M248 755c-3 0-5-2-5-5 0-4 2-6 5-6s6 2 6 6c0 3-3 5-6 5z"/><path fill="#E5E5E5" d="M248 755c-3 0-5-2-5-5 0-2 0-4 1-5-1 1-1 2-1 4 0 4 2 6 5 6 2 0 3-1 4-2-1 2-2 2-4 2z"/><path fill="#666" d="M244 746c1-1 2-2 4-2 3 0 6 2 6 6 0 1-1 3-2 4 1-1 1-2 1-4 0-4-2-6-5-6-2 0-3 1-4 2z"/></g><g><path fill="#B2B2B2" d="M348 784c-19 0-35-15-35-34 0-20 16-35 35-35s35 15 35 35c0 19-16 34-35 34z"/><path fill="#999" d="M367 778c0-5-4-17-19-28 15-13 19-23 20-29 11 8 15 19 15 29 0 9-4 21-16 28zm-31-41l12 13-12 12c1-8 2-17 0-25z"/><path fill="#CCC" d="M348 750l13 12c-9-2-17-2-25 0l12-12z"/><path fill="#999" d="M348 750l13-13c-2 8-3 16 0 25l-13-12z"/><path fill="#CCC" d="M348 750l-12-13c8 2 16 2 25 0l-13 13z"/><path fill="#CCC" d="M348 755c-3 0-5-2-5-5 0-4 2-6 5-6s6 2 6 6c0 3-3 5-6 5z"/><path fill="#E5E5E5" d="M348 755c-3 0-5-2-5-5 0-2 0-4 1-5-1 1-1 2-1 4 0 4 2 6 5 6 2 0 3-1 4-2-1 2-2 2-4 2z"/><path fill="#666" d="M344 746c1-1 2-2 4-2 3 0 6 2 6 6 0 1-1 3-2 4 1-1 1-2 1-4 0-4-2-6-5-6-2 0-3 1-4 2z"/></g><g><path fill="#B2B2B2" d="M448 784c-19 0-35-15-35-34 0-20 16-35 35-35s35 15 35 35c0 19-16 34-35 34z"/><path fill="#999" d="M467 778c0-5-4-17-19-28 15-13 19-23 20-29 11 8 15 19 15 29 0 9-4 21-16 28zm-31-41l12 13-12 12c1-8 2-17 0-25z"/><path fill="#CCC" d="M448 750l13 12c-9-2-17-2-25 0l12-12z"/><path fill="#999" d="M448 750l13-13c-2 8-3 16 0 25l-13-12z"/><path fill="#CCC" d="M448 750l-12-13c8 2 16 2 25 0l-13 13z"/><path fill="#CCC" d="M448 755c-3 0-5-2-5-5 0-4 2-6 5-6s6 2 6 6c0 3-3 5-6 5z"/><path fill="#E5E5E5" d="M448 755c-3 0-5-2-5-5 0-2 0-4 1-5-1 1-1 2-1 4 0 4 2 6 5 6 2 0 3-1 4-2-1 2-2 2-4 2z"/><path fill="#666" d="M444 746c1-1 2-2 4-2 3 0 6 2 6 6 0 1-1 3-2 4 1-1 1-2 1-4 0-4-2-6-5-6-2 0-3 1-4 2z"/></g><g><path fill="#B2B2B2" d="M548 784c-19 0-35-15-35-34 0-20 16-35 35-35s35 15 35 35c0 19-16 34-35 34z"/><path fill="#999" d="M567 778c0-5-4-17-19-28 15-13 19-23 20-29 11 8 15 19 15 29 0 9-4 21-16 28zm-31-41l12 13-12 12c1-8 2-17 0-25z"/><path fill="#CCC" d="M548 750l13 12c-9-2-17-2-25 0l12-12z"/><path fill="#999" d="M548 750l13-13c-2 8-3 16 0 25l-13-12z"/><path fill="#CCC" d="M548 750l-12-13c8 2 16 2 25 0l-13 13z"/><path fill="#CCC" d="M548 755c-3 0-5-2-5-5 0-4 2-6 5-6s6 2 6 6c0 3-3 5-6 5z"/><path fill="#E5E5E5" d="M548 755c-3 0-5-2-5-5 0-2 0-4 1-5-1 1-1 2-1 4 0 4 2 6 5 6 2 0 3-1 4-2-1 2-2 2-4 2z"/><path fill="#666" d="M544 746c1-1 2-2 4-2 3 0 6 2 6 6 0 1-1 3-2 4 1-1 1-2 1-4 0-4-2-6-5-6-2 0-3 1-4 2z"/></g><g><path fill="#B2B2B2" d="M648 784c-19 0-35-15-35-34 0-20 16-35 35-35s35 15 35 35c0 19-16 34-35 34z"/><path fill="#999" d="M667 778c0-5-4-17-19-28 15-13 19-23 20-29 11 8 15 19 15 29 0 9-4 21-16 28zm-31-41l12 13-12 12c1-8 2-17 0-25z"/><path fill="#CCC" d="M648 750l13 12c-9-2-17-2-25 0l12-12z"/><path fill="#999" d="M648 750l13-13c-2 8-3 16 0 25l-13-12z"/><path fill="#CCC" d="M648 750l-12-13c8 2 16 2 25 0l-13 13z"/><path fill="#CCC" d="M648 755c-3 0-5-2-5-5 0-4 2-6 5-6s6 2 6 6c0 3-3 5-6 5z"/><path fill="#E5E5E5" d="M648 755c-3 0-5-2-5-5 0-2 0-4 1-5-1 1-1 2-1 4 0 4 2 6 5 6 2 0 3-1 4-2-1 2-2 2-4 2z"/><path fill="#666" d="M644 746c1-1 2-2 4-2 3 0 6 2 6 6 0 1-1 3-2 4 1-1 1-2 1-4 0-4-2-6-5-6-2 0-3 1-4 2z"/></g><g><path fill="#B2B2B2" d="M748 784c-19 0-35-15-35-34 0-20 16-35 35-35s35 15 35 35c0 19-16 34-35 34z"/><path fill="#999" d="M767 778c0-5-4-17-19-28 15-13 19-23 20-29 11 8 15 19 15 29 0 9-4 21-16 28zm-31-41l12 13-12 12c1-8 2-17 0-25z"/><path fill="#CCC" d="M748 750l13 12c-9-2-17-2-25 0l12-12z"/><path fill="#999" d="M748 750l13-13c-2 8-3 16 0 25l-13-12z"/><path fill="#CCC" d="M748 750l-12-13c8 2 16 2 25 0l-13 13z"/><path fill="#CCC" d="M748 755c-3 0-5-2-5-5 0-4 2-6 5-6s6 2 6 6c0 3-3 5-6 5z"/><path fill="#E5E5E5" d="M748 755c-3 0-5-2-5-5 0-2 0-4 1-5-1 1-1 2-1 4 0 4 2 6 5 6 2 0 3-1 4-2-1 2-2 2-4 2z"/><path fill="#666" d="M744 746c1-1 2-2 4-2 3 0 6 2 6 6 0 1-1 3-2 4 1-1 1-2 1-4 0-4-2-6-5-6-2 0-3 1-4 2z"/></g><g><path fill="#B2B2B2" d="M848 784c-19 0-35-15-35-34 0-20 16-35 35-35s35 15 35 35c0 19-16 34-35 34z"/><path fill="#999" d="M867 778c0-5-4-17-19-28 15-13 19-23 20-29 11 8 15 19 15 29 0 9-4 21-16 28zm-31-41l12 13-12 12c1-8 2-17 0-25z"/><path fill="#CCC" d="M848 750l13 12c-9-2-17-2-25 0l12-12z"/><path fill="#999" d="M848 750l13-13c-2 8-3 16 0 25l-13-12z"/><path fill="#CCC" d="M848 750l-12-13c8 2 16 2 25 0l-13 13z"/><path fill="#CCC" d="M848 755c-3 0-5-2-5-5 0-4 2-6 5-6s6 2 6 6c0 3-3 5-6 5z"/><path fill="#E5E5E5" d="M848 755c-3 0-5-2-5-5 0-2 0-4 1-5-1 1-1 2-1 4 0 4 2 6 5 6 2 0 3-1 4-2-1 2-2 2-4 2z"/><path fill="#666" d="M844 746c1-1 2-2 4-2 3 0 6 2 6 6 0 1-1 3-2 4 1-1 1-2 1-4 0-4-2-6-5-6-2 0-3 1-4 2z"/></g><g><path fill="#B2B2B2" d="M948 784c-19 0-35-15-35-34 0-20 16-35 35-35s35 15 35 35c0 19-16 34-35 34z"/><path fill="#999" d="M967 778c0-5-4-17-19-28 15-13 19-23 20-29 11 8 15 19 15 29 0 9-4 21-16 28zm-31-41l12 13-12 12c1-8 2-17 0-25z"/><path fill="#CCC" d="M948 750l13 12c-9-2-17-2-25 0l12-12z"/><path fill="#999" d="M948 750l13-13c-2 8-3 16 0 25l-13-12z"/><path fill="#CCC" d="M948 750l-12-13c8 2 16 2 25 0l-13 13z"/><path fill="#CCC" d="M948 755c-3 0-5-2-5-5 0-4 2-6 5-6s6 2 6 6c0 3-3 5-6 5z"/><path fill="#E5E5E5" d="M948 755c-3 0-5-2-5-5 0-2 0-4 1-5-1 1-1 2-1 4 0 4 2 6 5 6 2 0 3-1 4-2-1 2-2 2-4 2z"/><path fill="#666" d="M944 746c1-1 2-2 4-2 3 0 6 2 6 6 0 1-1 3-2 4 1-1 1-2 1-4 0-4-2-6-5-6-2 0-3 1-4 2z"/></g><g><path fill="#B2B2B2" d="M1048 784c-19 0-35-15-35-34 0-20 16-35 35-35s35 15 35 35c0 19-16 34-35 34z"/><path fill="#999" d="M1067 778c0-5-4-17-19-28 15-13 19-23 20-29 11 8 15 19 15 29 0 9-4 21-16 28zm-31-41l12 13-12 12c1-8 2-17 0-25z"/><path fill="#CCC" d="M1048 750l13 12c-9-2-17-2-25 0l12-12z"/><path fill="#999" d="M1048 750l13-13c-2 8-3 16 0 25l-13-12z"/><path fill="#CCC" d="M1048 750l-12-13c8 2 16 2 25 0l-13 13z"/><path fill="#CCC" d="M1048 755c-3 0-5-2-5-5 0-4 2-6 5-6s6 2 6 6c0 3-3 5-6 5z"/><path fill="#E5E5E5" d="M1048 755c-3 0-5-2-5-5 0-2 0-4 1-5-1 1-1 2-1 4 0 4 2 6 5 6 2 0 3-1 4-2-1 2-2 2-4 2z"/><path fill="#666" d="M1044 746c1-1 2-2 4-2 3 0 6 2 6 6 0 1-1 3-2 4 1-1 1-2 1-4 0-4-2-6-5-6-2 0-3 1-4 2z"/></g><g><path fill="#B2B2B2" d="M1148 784c-19 0-35-15-35-34 0-20 16-35 35-35s35 15 35 35c0 19-16 34-35 34z"/><path fill="#999" d="M1167 778c0-5-4-17-19-28 15-13 19-23 20-29 11 8 15 19 15 29 0 9-4 21-16 28zm-31-41l12 13-12 12c1-8 2-17 0-25z"/><path fill="#CCC" d="M1148 750l13 12c-9-2-17-2-25 0l12-12z"/><path fill="#999" d="M1148 750l13-13c-2 8-3 16 0 25l-13-12z"/><path fill="#CCC" d="M1148 750l-12-13c8 2 16 2 25 0l-13 13z"/><path fill="#CCC" d="M1148 755c-3 0-5-2-5-5 0-4 2-6 5-6s6 2 6 6c0 3-3 5-6 5z"/><path fill="#E5E5E5" d="M1148 755c-3 0-5-2-5-5 0-2 0-4 1-5-1 1-1 2-1 4 0 4 2 6 5 6 2 0 3-1 4-2-1 2-2 2-4 2z"/><path fill="#666" d="M1144 746c1-1 2-2 4-2 3 0 6 2 6 6 0 1-1 3-2 4 1-1 1-2 1-4 0-4-2-6-5-6-2 0-3 1-4 2z"/></g><g><path fill="#B2B2B2" d="M1248 784c-19 0-35-15-35-34 0-20 16-35 35-35s35 15 35 35c0 19-16 34-35 34z"/><path fill="#999" d="M1267 778c0-5-4-17-19-28 15-13 19-23 20-29 11 8 15 19 15 29 0 9-4 21-16 28zm-31-41l12 13-12 12c1-8 2-17 0-25z"/><path fill="#CCC" d="M1248 750l13 12c-9-2-17-2-25 0l12-12z"/><path fill="#999" d="M1248 750l13-13c-2 8-3 16 0 25l-13-12z"/><path fill="#CCC" d="M1248 750l-12-13c8 2 16 2 25 0l-13 13z"/><path fill="#CCC" d="M1248 755c-3 0-5-2-5-5 0-4 2-6 5-6s6 2 6 6c0 3-3 5-6 5z"/><path fill="#E5E5E5" d="M1248 755c-3 0-5-2-5-5 0-2 0-4 1-5-1 1-1 2-1 4 0 4 2 6 5 6 2 0 3-1 4-2-1 2-2 2-4 2z"/><path fill="#666" d="M1244 746c1-1 2-2 4-2 3 0 6 2 6 6 0 1-1 3-2 4 1-1 1-2 1-4 0-4-2-6-5-6-2 0-3 1-4 2z"/></g><g fill="#B2B2B2"><path d="M173 0c0 13-11 25-25 25s-25-12-25-25h12c0 7 6 12 13 12s13-5 13-12h12zm100 0c0 13-11 25-25 25s-25-12-25-25h12c0 7 6 12 13 12s13-5 13-12h12zm100 0c0 13-11 25-25 25s-25-12-25-25h12c0 7 6 12 13 12s13-5 13-12h12zm100 0c0 13-11 25-25 25s-25-12-25-25h12c0 7 6 12 13 12s13-5 13-12h12zm100 0c0 13-11 25-25 25s-25-12-25-25h12c0 7 6 12 13 12s13-5 13-12h12zm100 0c0 13-11 25-25 25s-25-12-25-25h12c0 7 6 12 13 12s13-5 13-12h12zm100 0c0 13-11 25-25 25s-25-12-25-25h12c0 7 6 12 13 12s13-5 13-12h12zm100 0c0 13-11 25-25 25s-25-12-25-25h12c0 7 6 12 13 12s13-5 13-12h12zm100 0c0 13-11 25-25 25s-25-12-25-25h12c0 7 6 12 13 12s13-5 13-12h12zm100 0c0 13-11 25-25 25s-25-12-25-25h12c0 7 6 12 13 12s13-5 13-12h12zm100 0c0 13-11 25-25 25s-25-12-25-25h12c0 7 6 12 13 12s13-5 13-12h12zm100 0c0 13-11 25-25 25s-25-12-25-25h12c0 7 6 12 13 12s13-5 13-12h12z"/></g><g><path fill="#B2B2B2" d="M1223 794c0-10 11-19 25-19s25 9 25 19h-12c0-6-6-10-13-10s-13 4-13 10h-12z"/><path fill="#CCC" d="M1235 794h-12v6h12zm38 0h-12v6h12z"/><path fill="#666" d="M1261 800v-6c0-6-6-10-13-10s-13 4-13 10v6c1-5 6-9 13-9s13 4 13 9z"/></g><g><path fill="#B2B2B2" d="M1123 794c0-10 11-19 25-19s25 9 25 19h-12c0-6-6-10-13-10s-13 4-13 10h-12z"/><path fill="#CCC" d="M1135 794h-12v6h12zm38 0h-12v6h12z"/><path fill="#666" d="M1161 800v-6c0-6-6-10-13-10s-13 4-13 10v6c1-5 6-9 13-9s13 4 13 9z"/></g><g><path fill="#B2B2B2" d="M1023 794c0-10 11-19 25-19s25 9 25 19h-12c0-6-6-10-13-10s-13 4-13 10h-12z"/><path fill="#CCC" d="M1035 794h-12v6h12zm38 0h-12v6h12z"/><path fill="#666" d="M1061 800v-6c0-6-6-10-13-10s-13 4-13 10v6c1-5 6-9 13-9s13 4 13 9z"/></g><g><path fill="#B2B2B2" d="M623 794c0-10 11-19 25-19s25 9 25 19h-12c0-6-6-10-13-10s-13 4-13 10h-12z"/><path fill="#CCC" d="M635 794h-12v6h12zm38 0h-12v6h12z"/><path fill="#666" d="M661 800v-6c0-6-6-10-13-10s-13 4-13 10v6c1-5 6-9 13-9s13 4 13 9z"/></g><g><path fill="#B2B2B2" d="M723 794c0-10 11-19 25-19s25 9 25 19h-12c0-6-6-10-13-10s-13 4-13 10h-12z"/><path fill="#CCC" d="M735 794h-12v6h12zm38 0h-12v6h12z"/><path fill="#666" d="M761 800v-6c0-6-6-10-13-10s-13 4-13 10v6c1-5 6-9 13-9s13 4 13 9z"/></g><g><path fill="#B2B2B2" d="M823 794c0-10 11-19 25-19s25 9 25 19h-12c0-6-6-10-13-10s-13 4-13 10h-12z"/><path fill="#CCC" d="M835 794h-12v6h12zm38 0h-12v6h12z"/><path fill="#666" d="M861 800v-6c0-6-6-10-13-10s-13 4-13 10v6c1-5 6-9 13-9s13 4 13 9z"/></g><g><path fill="#B2B2B2" d="M923 794c0-10 11-19 25-19s25 9 25 19h-12c0-6-6-10-13-10s-13 4-13 10h-12z"/><path fill="#CCC" d="M935 794h-12v6h12zm38 0h-12v6h12z"/><path fill="#666" d="M961 800v-6c0-6-6-10-13-10s-13 4-13 10v6c1-5 6-9 13-9s13 4 13 9z"/></g><g><path fill="#B2B2B2" d="M123 794c0-10 11-19 25-19s25 9 25 19h-12c0-6-6-10-13-10s-13 4-13 10h-12z"/><path fill="#CCC" d="M135 794h-12v6h12zm38 0h-12v6h12z"/><path fill="#666" d="M161 800v-6c0-6-6-10-13-10s-13 4-13 10v6c1-5 6-9 13-9s13 4 13 9z"/></g><g><path fill="#B2B2B2" d="M223 794c0-10 11-19 25-19s25 9 25 19h-12c0-6-6-10-13-10s-13 4-13 10h-12z"/><path fill="#CCC" d="M235 794h-12v6h12zm38 0h-12v6h12z"/><path fill="#666" d="M261 800v-6c0-6-6-10-13-10s-13 4-13 10v6c1-5 6-9 13-9s13 4 13 9z"/></g><g><path fill="#B2B2B2" d="M323 794c0-10 11-19 25-19s25 9 25 19h-12c0-6-6-10-13-10s-13 4-13 10h-12z"/><path fill="#CCC" d="M335 794h-12v6h12zm38 0h-12v6h12z"/><path fill="#666" d="M361 800v-6c0-6-6-10-13-10s-13 4-13 10v6c1-5 6-9 13-9s13 4 13 9z"/></g><g><path fill="#B2B2B2" d="M423 794c0-10 11-19 25-19s25 9 25 19h-12c0-6-6-10-13-10s-13 4-13 10h-12z"/><path fill="#CCC" d="M435 794h-12v6h12zm38 0h-12v6h12z"/><path fill="#666" d="M461 800v-6c0-6-6-10-13-10s-13 4-13 10v6c1-5 6-9 13-9s13 4 13 9z"/></g><g><path fill="#B2B2B2" d="M523 794c0-10 11-19 25-19s25 9 25 19h-12c0-6-6-10-13-10s-13 4-13 10h-12z"/><path fill="#CCC" d="M535 794h-12v6h12zm38 0h-12v6h12z"/><path fill="#666" d="M561 800v-6c0-6-6-10-13-10s-13 4-13 10v6c1-5 6-9 13-9s13 4 13 9z"/></g></g></svg>