<?xml version="1.0" encoding="UTF-8"?>
<!DOCTYPE svg PUBLIC "-//W3C//DTD SVG 1.1//EN" "http://www.w3.org/Graphics/SVG/1.1/DTD/svg11.dtd">
<!-- Creator: CorelDRAW X6 -->
<svg xmlns="http://www.w3.org/2000/svg" xml:space="preserve" width="0.8in" height="1.504in" version="1.1" shape-rendering="geometricPrecision" text-rendering="geometricPrecision" image-rendering="optimizeQuality" fill-rule="evenodd" clip-rule="evenodd"
viewBox="0 0 800 1504"
 xmlns:xlink="http://www.w3.org/1999/xlink">
 <g id="SPARKCORE">
  <metadata id="CorelCorpID_0Corel-Layer"/>
  <g id="PCB">
   <path fill="#404040" d="M-22 63l794 0 6 2 0 154 0 0c-5,0 -9,6 -9,13 0,7 4,13 9,13l0 0 0 74 0 0c-5,0 -9,6 -9,13 0,7 4,13 9,13l0 0 0 74 0 0c-5,0 -9,6 -9,13 0,7 4,13 9,13l0 0 0 74 0 0c-5,0 -9,6 -9,13 0,7 4,13 9,13l0 0 0 74 0 0c-5,0 -9,6 -9,13 0,7 4,13 9,13l0 0 0 74 0 0c-5,0 -9,6 -9,13 0,7 4,13 9,13l0 0 0 73 0 0c-5,0 -9,6 -9,13 0,7 4,13 9,13l0 0 0 74 0 0c-5,0 -9,6 -9,13 0,7 4,13 9,13l0 0 0 74 0 0c-5,0 -9,6 -9,13 0,7 4,13 9,13l0 0 0 74 0 0c-5,0 -9,6 -9,13 0,7 4,13 9,13l0 0 0 74 0 0c-5,0 -9,6 -9,13 0,7 4,13 9,13l0 0 0 74c-5,0 -9,6 -9,13 0,7 4,13 9,13l0 38 -59 121 -680 0 -61 -121 0 -38c7,0 12,-6 12,-13 0,-7 -5,-13 -12,-13l0 -74c7,0 12,-6 12,-13 0,-7 -5,-13 -12,-13l0 -74c7,0 12,-6 12,-13 0,-7 -5,-13 -12,-13l0 -74c7,0 12,-6 12,-13 0,-7 -5,-13 -12,-13l0 -74c7,0 12,-6 12,-13 0,-7 -5,-13 -12,-13l0 -74c7,0 12,-6 12,-13 0,-7 -5,-13 -12,-13l0 -73c7,0 12,-6 12,-13 0,-7 -5,-13 -12,-13l0 -74c7,0 12,-6 12,-13 0,-7 -5,-13 -12,-13l0 -74c7,0 12,-6 12,-13 0,-7 -5,-13 -12,-13l0 -74c7,0 12,-6 12,-13 0,-7 -5,-13 -12,-13l0 -74c7,0 12,-6 12,-13 0,-7 -5,-13 -12,-13l0 -74c7,0 12,-6 12,-13 0,-7 -5,-13 -12,-13l0 -156 0 0z"/>
   <path fill="#666666" d="M778 1344l0 38 -59 121 -7 0 60 -121 0 -42c1,2 4,4 6,4zm-6 -1281l6 2 0 154 0 0 0 0 0 0 0 0 0 0 0 0 0 0 0 0 0 0 0 0 -1 0 0 0 0 0 0 0 0 0 0 0 0 0 0 0 0 0 0 1 0 0 -1 0 0 0 0 0 0 0 0 0 0 0 0 0 0 0 0 0 0 0 0 0 0 0 0 0 -1 0 0 0 0 0 0 0 0 0 0 0 0 0 0 0 0 0 0 0 0 0 0 0 0 0 -1 0 0 0 0 0 0 1 0 0 0 0 0 0 0 0 0 0 0 0 0 0 0 0 0 0 0 0 -1 0 0 0 0 0 0 0 0 0 0 0 0 0 0 1 0 0 0 0 0 0 0 0 0 0 0 0 0 0 0 0 -1 0 0 0 0 0 0 0 0 0 0 0 0 1 0 0 0 0 0 0 0 0 0 0 0 0 0 0 0 0 0 -160zm6 182l0 74 0 0 0 0 0 0 0 0 0 0 0 0 0 0 0 0 0 0 0 0 -1 0 0 0 0 0 0 0 0 0 0 0 0 0 0 0 0 0 0 1 0 0 0 0 -1 0 0 0 0 0 0 0 0 0 0 0 0 0 0 0 0 0 0 0 0 0 0 0 0 0 -1 0 0 0 0 0 0 0 0 0 0 0 0 0 0 0 0 0 0 0 0 0 0 0 0 0 0 0 -1 0 0 0 0 0 0 1 0 0 0 0 0 0 0 0 0 0 0 0 0 0 0 0 0 0 0 0 -1 0 0 0 0 0 0 0 0 0 0 0 0 0 0 1 0 0 0 0 0 0 0 0 0 0 0 0 0 0 0 0 -1 0 0 0 0 0 0 0 0 0 0 0 0 1 0 0 0 0 0 0 0 0 0 0 0 0 0 0 0 0 0 -82 0 0 0 0 0 0 0 1 0 0 0 0 1 0 0 0 0 0 0 0 0 1 0 0 0 0 0 0 0 0 1 0 0 0 0 0 0 0 0 0 0 0 0 0 0 0 0 0 1 1 0 0 0 0 0 0 0 0 0 0 0 0 1 0 0 0 0 0 0 0 0 0 0 0 0 0 0 0 0 0 0 0 0 0 0 0 0 0 1 0 0 0 0 0 0 0 0 0 0 0 0 0 0 0 0 0 0 1 0 0 1 0 0 0 0 0 0 0 0 0 0 0 0 0 0 0 0 0 0 0 0 0zm0 100l0 74 0 0 0 0 0 0 0 0 0 0 0 0 0 0 0 0 0 0 0 0 -1 0 0 0 0 0 0 0 0 0 0 0 0 0 0 0 0 0 0 1 0 0 0 0 -1 0 0 0 0 0 0 0 0 0 0 0 0 0 0 0 0 0 0 0 0 0 0 0 0 0 0 0 -1 0 0 0 0 0 0 0 0 0 0 0 0 0 0 0 0 0 0 0 0 0 0 0 -1 0 0 1 0 0 0 0 0 0 0 0 0 0 0 0 0 0 0 0 0 0 0 0 0 0 0 0 -1 0 0 0 0 0 0 0 0 0 0 0 0 0 0 1 0 0 0 0 0 0 0 0 0 0 0 0 -1 0 0 0 0 0 0 0 0 0 0 0 0 1 0 0 0 0 0 0 0 0 0 0 0 0 0 -82 0 0 0 0 0 0 0 0 0 0 0 0 0 0 0 0 0 0 0 0 0 1 0 0 0 0 0 0 1 0 0 0 0 0 0 0 0 0 0 0 0 0 0 0 0 0 0 0 0 0 0 1 0 0 0 0 0 0 0 0 1 0 0 0 0 0 0 0 0 0 0 0 0 0 0 0 0 0 0 0 0 0 0 0 0 0 0 0 1 1 0 0 0 0 0 0 0 0 0 0 0 0 0 0 0 0 0 0 0 0 0 0 0 0 0 0 1 0 0 0 0 0 0 0 0 0 0 0 0 0 0 0 0 0 0 0 0 0 0 0 0 0 1 0 0 0 0 0 0 0 0 0 0 0 0 0 0 0 0 0 0 1 0 0 0 0 1 0 0 0 0 0 0 0 0 0 0 0 0 0 0 0 0 0 0 0 0 0zm0 100l0 74 0 0 0 0 0 0 0 0 0 0 0 0 0 0 0 0 0 0 0 0 -1 0 0 0 0 0 0 0 0 0 0 0 0 0 0 0 0 0 0 1 0 0 0 0 -1 0 0 0 0 0 0 0 0 0 0 0 0 0 0 0 0 0 0 0 0 0 0 0 0 0 0 0 -1 0 0 0 0 0 0 0 0 0 0 0 0 0 0 0 0 0 0 0 0 0 0 0 0 0 -1 0 0 1 0 0 0 0 0 0 0 0 0 0 0 0 0 0 0 0 0 0 0 0 0 0 0 0 -1 0 0 0 0 0 0 0 0 0 0 0 0 0 0 1 0 0 0 0 0 0 0 0 0 0 0 0 0 0 0 0 0 0 -1 0 0 0 0 0 0 0 0 0 0 0 0 1 0 0 0 0 0 0 0 0 0 0 0 0 0 0 0 0 0 -82 0 0 0 0 0 0 0 0 0 0 0 0 0 0 0 0 0 1 0 0 0 0 0 0 1 0 0 0 0 0 0 0 0 0 0 0 0 0 0 0 0 0 0 1 0 0 0 0 0 0 0 0 1 0 0 0 0 0 0 0 0 0 0 0 0 0 0 0 0 0 0 0 0 0 0 0 0 0 0 0 1 1 0 0 0 0 0 0 0 0 0 0 0 0 0 0 0 0 0 0 0 0 0 0 1 0 0 0 0 0 0 0 0 0 0 0 0 0 0 0 0 0 0 0 0 0 0 0 0 0 0 0 1 0 0 0 0 0 0 0 0 0 0 0 0 0 0 0 0 0 0 1 0 0 0 0 1 0 0 0 0 0 0 0 0 0 0 0 0 0 0 0 0 0 0 0 0 0zm0 100l0 74 0 0 0 0 0 0 0 0 0 0 0 0 0 0 0 0 0 0 0 0 -1 0 0 0 0 0 0 0 0 0 0 0 0 0 0 0 0 0 0 1 0 0 0 0 -1 0 0 0 0 0 0 0 0 0 0 0 0 0 0 0 0 0 0 0 0 0 0 0 0 0 0 0 -1 0 0 0 0 0 0 0 0 0 0 0 0 0 0 0 0 0 0 0 0 0 0 0 -1 0 0 0 0 1 0 0 0 0 0 0 0 0 0 0 0 0 0 0 0 0 0 0 0 0 0 0 0 0 -1 0 0 0 0 0 0 0 0 0 0 0 0 0 0 1 0 0 0 0 0 0 0 0 0 0 0 0 0 0 0 0 0 0 -1 0 0 0 0 0 0 0 0 0 0 0 0 1 0 0 0 0 0 0 0 0 0 0 0 0 0 0 0 0 0 -82 0 0 0 0 0 0 0 0 0 0 0 0 0 0 0 0 0 0 0 1 0 0 0 0 0 0 0 0 1 0 0 0 0 0 0 0 0 0 0 0 0 0 0 0 0 0 0 0 0 0 0 0 0 1 0 0 0 0 0 0 0 0 1 0 0 0 0 0 0 0 0 0 0 0 0 0 0 0 0 0 0 0 0 0 0 0 0 0 0 0 1 1 0 0 0 0 0 0 0 0 0 0 0 0 0 0 0 0 0 0 0 0 0 0 0 0 1 0 0 0 0 0 0 0 0 0 0 0 0 0 0 0 0 0 0 0 0 0 0 0 0 0 0 0 1 0 0 0 0 0 0 0 0 0 0 0 0 0 0 0 0 0 0 1 0 0 0 0 1 0 0 0 0 0 0 0 0 0 0 0 0 0 0 0 0 0 0 0 0 0zm0 100l0 74 0 0 0 0 0 0 0 0 0 0 0 0 0 0 0 0 0 0 0 0 -1 0 0 0 0 0 0 0 0 0 0 0 0 0 0 0 0 0 0 1 0 0 0 0 -1 0 0 0 0 0 0 0 0 0 0 0 0 0 0 0 0 0 0 0 0 0 0 0 0 0 0 0 -1 0 0 0 0 0 0 0 0 0 0 0 0 0 0 0 0 0 0 0 0 0 0 0 -1 0 0 0 0 1 0 0 0 0 0 0 0 0 0 0 0 0 0 0 0 0 0 0 0 0 0 0 0 0 -1 0 0 0 0 0 0 0 0 0 0 0 0 0 0 1 0 0 0 0 0 0 0 0 0 0 0 0 0 0 0 0 -1 0 0 0 0 0 0 0 0 0 0 0 0 1 0 0 0 0 0 0 0 0 0 0 0 0 0 0 0 0 0 0 0 -82 0 0 0 0 0 0 0 0 0 0 0 0 0 0 0 0 0 0 0 1 0 0 0 0 0 0 0 0 1 0 0 0 0 0 0 0 0 0 0 0 0 0 0 0 0 0 0 0 0 0 0 1 0 0 0 0 0 0 0 0 1 0 0 0 0 0 0 0 0 0 0 0 0 0 0 0 0 0 0 0 0 0 0 0 0 0 0 0 0 0 1 1 0 0 0 0 0 0 0 0 0 0 0 0 0 0 0 0 0 0 0 0 0 0 1 0 0 0 0 0 0 0 0 0 0 0 0 0 0 0 0 0 0 0 0 0 0 0 0 0 0 0 1 0 0 0 0 0 0 0 0 0 0 0 0 0 0 0 0 0 0 1 0 0 0 0 1 0 0 0 0 0 0 0 0 0 0 0 0 0 0 0 0 0 0 0 0 0zm0 100l0 73 0 0 0 0 0 0 0 0 0 0 0 0 0 0 0 0 0 0 0 0 -1 0 0 0 0 0 0 0 0 0 0 0 0 0 0 0 0 0 0 1 0 0 0 0 -1 0 0 0 0 0 0 0 0 0 0 0 0 0 0 0 0 0 0 0 0 0 0 0 0 0 0 0 -1 0 0 0 0 0 0 0 0 0 0 0 0 0 0 0 0 0 0 0 0 0 0 0 0 0 -1 0 0 0 0 1 0 0 0 0 0 0 0 0 0 0 0 0 0 0 0 0 0 0 0 0 0 0 0 0 -1 0 0 0 0 0 0 0 0 0 0 0 0 0 0 1 0 0 0 0 0 0 0 0 0 0 0 0 0 0 -1 0 0 0 0 0 0 0 0 0 0 1 0 0 0 0 0 0 0 0 0 0 0 0 0 0 0 0 0 0 0 0 0 -81 0 0 0 0 0 0 0 0 0 0 0 1 0 0 0 0 0 0 1 0 0 0 0 0 0 0 0 0 0 0 0 0 0 0 0 1 0 0 0 0 0 0 0 0 1 0 0 0 0 0 0 0 0 0 0 0 0 0 0 0 0 0 0 0 0 0 1 1 0 0 0 0 0 0 0 0 0 0 0 0 0 0 0 0 0 0 0 0 0 0 1 0 0 0 0 0 0 0 0 0 0 0 0 0 0 0 0 0 0 0 0 0 0 0 0 0 0 0 1 0 0 0 0 0 0 0 0 0 0 0 0 0 0 0 0 1 0 0 0 0 0 0 1 0 0 0 0 0 0 0 0 0 0 0 0 0 0 0 0 0 0 0 0 0zm0 99l0 74 0 0 0 0 0 0 0 0 0 0 0 0 0 0 0 0 0 0 0 0 -1 0 0 0 0 0 0 0 0 0 0 0 0 0 0 0 0 0 0 1 0 0 0 0 -1 0 0 0 0 0 0 0 0 0 0 0 0 0 0 0 0 0 0 0 0 0 0 0 0 0 0 0 -1 0 0 0 0 0 0 0 0 0 0 0 0 0 0 0 0 0 0 0 0 0 0 0 -1 0 0 0 0 1 0 0 0 0 0 0 0 0 0 0 0 0 0 0 0 0 0 0 0 0 0 0 0 0 -1 0 0 0 0 0 0 0 0 0 0 0 0 1 0 0 0 0 0 0 0 0 0 0 0 0 0 0 0 0 0 0 0 0 -1 0 0 0 0 0 0 0 0 0 0 1 0 0 0 0 0 0 0 0 0 0 0 0 0 0 0 0 0 0 0 0 0 0 0 -82 0 0 0 0 0 0 0 0 0 0 0 0 0 0 0 0 0 0 0 0 0 1 0 0 0 0 0 0 0 0 1 0 0 0 0 0 0 0 0 0 0 0 0 0 0 0 0 0 0 0 0 1 0 0 0 0 0 0 0 0 1 0 0 0 0 0 0 0 0 0 0 0 0 0 0 0 0 0 0 0 0 0 0 0 0 0 0 0 0 0 1 1 0 0 0 0 0 0 0 0 0 0 0 0 0 0 0 0 0 0 0 0 0 0 0 0 1 0 0 0 0 0 0 0 0 0 0 0 0 0 0 0 0 0 0 0 0 0 0 0 0 0 0 0 1 0 0 0 0 0 0 0 0 0 0 0 0 0 0 0 0 1 0 0 0 0 0 0 1 0 0 0 0 0 0 0 0 0 0 0 0 0 0 0 0 0 0 0 0 0zm0 100l0 74 0 0 0 0 0 0 0 0 0 0 0 0 0 0 0 0 0 0 0 0 -1 0 0 0 0 0 0 0 0 0 0 0 0 0 0 0 0 1 0 0 0 0 0 0 -1 0 0 0 0 0 0 0 0 0 0 0 0 0 0 0 0 0 0 0 0 0 0 0 0 0 0 0 -1 0 0 0 0 0 0 0 0 0 0 0 0 0 0 0 0 0 0 0 0 0 0 0 0 0 -1 0 0 0 0 1 0 0 0 0 0 0 0 0 0 0 0 0 0 0 0 0 0 0 0 0 0 0 0 0 -1 0 0 0 0 0 0 0 0 0 0 0 0 1 0 0 0 0 0 0 0 0 0 0 0 0 0 0 0 0 0 0 0 0 -1 0 0 0 0 0 0 0 0 0 0 1 0 0 0 0 0 0 0 0 0 0 0 0 0 0 0 0 0 0 0 0 0 -82 0 0 0 0 0 0 0 0 0 0 0 0 0 0 0 1 0 0 0 0 0 0 0 0 1 0 0 0 0 0 0 0 0 0 0 0 0 0 0 0 0 0 0 0 0 1 0 0 0 0 0 0 0 0 1 0 0 0 0 0 0 0 0 0 0 0 0 0 0 0 0 0 0 0 0 0 0 0 0 0 0 0 0 0 1 1 0 0 0 0 0 0 0 0 0 0 0 0 0 0 0 0 0 0 0 0 0 0 1 0 0 0 0 0 0 0 0 0 0 0 0 0 0 0 0 0 0 0 0 0 0 0 0 0 0 0 1 0 0 0 0 0 0 0 0 0 0 0 0 0 0 0 0 1 0 0 0 0 0 0 1 0 0 0 0 0 0 0 0 0 0 0 0 0 0 0 0 0 0 0 0 0zm0 100l0 74 0 0 0 0 0 0 0 0 0 0 0 0 0 0 0 0 0 0 0 0 -1 0 0 0 0 0 0 0 0 0 0 0 0 0 0 0 0 1 0 0 0 0 0 0 -1 0 0 0 0 0 0 0 0 0 0 0 0 0 0 0 0 0 0 0 0 0 0 0 0 0 0 0 -1 0 0 0 0 0 0 0 0 0 0 0 0 0 0 0 0 0 0 0 0 0 0 0 0 0 -1 0 0 0 0 1 0 0 0 0 0 0 0 0 0 0 0 0 0 0 0 0 0 0 0 0 0 0 0 0 -1 0 0 0 0 0 0 0 0 0 0 0 0 1 0 0 0 0 0 0 0 0 0 0 0 0 0 0 0 0 0 0 0 0 -1 0 0 0 0 0 0 0 0 1 0 0 0 0 0 0 0 0 0 0 0 0 0 0 0 0 0 0 0 0 0 0 0 -82 0 0 0 0 0 0 0 0 0 0 0 0 0 0 0 0 0 0 0 0 0 1 0 0 0 0 0 0 0 0 1 0 0 0 0 0 0 0 0 0 0 0 0 0 0 0 0 0 0 0 0 0 0 0 0 1 0 0 0 0 0 0 0 0 1 0 0 0 0 0 0 0 0 0 0 0 0 0 0 0 0 0 0 0 0 0 0 0 0 0 0 0 0 0 1 1 0 0 0 0 0 0 0 0 0 0 0 0 0 0 0 0 0 0 0 0 0 0 0 0 1 0 0 0 0 0 0 0 0 0 0 0 0 0 0 0 0 0 0 0 0 0 0 0 0 0 0 0 1 0 0 0 0 0 0 0 0 0 0 0 0 0 0 0 0 1 0 0 0 0 0 0 1 0 0 0 0 0 0 0 0 0 0 0 0 0 0 0 0 0 0 0 0 0zm0 100l0 74 0 0 0 0 0 0 0 0 0 0 0 0 0 0 0 0 0 0 0 0 -1 0 0 0 0 0 0 0 0 0 0 0 0 0 0 1 0 0 0 0 0 0 0 0 -1 0 0 0 0 0 0 0 0 0 0 0 0 0 0 0 0 0 0 0 0 0 0 0 0 0 0 0 -1 0 0 0 0 0 0 0 0 0 0 0 0 0 0 0 0 0 0 0 0 0 0 0 0 0 -1 0 0 0 0 1 0 0 0 0 0 0 0 0 0 0 0 0 0 0 0 0 0 0 0 0 0 0 0 0 -1 0 0 0 0 0 0 0 0 0 0 0 0 1 0 0 0 0 0 0 0 0 0 0 0 0 0 0 0 0 0 0 0 0 -1 0 0 0 0 0 0 0 0 0 0 1 0 0 0 0 0 0 0 0 0 0 0 0 0 0 0 0 0 0 0 0 0 -82 0 0 0 0 0 0 0 0 0 0 0 0 0 1 0 0 0 0 0 0 0 0 1 0 0 0 0 0 0 0 0 0 0 0 0 0 0 0 0 0 0 0 0 0 0 1 0 0 0 0 0 0 0 0 1 0 0 0 0 0 0 0 0 0 0 0 0 0 0 0 0 0 0 0 0 0 0 0 0 0 0 0 0 0 1 1 0 0 0 0 0 0 0 0 0 0 0 0 0 0 0 0 0 0 0 0 0 0 0 0 1 0 0 0 0 0 0 0 0 0 0 0 0 0 0 0 0 0 0 0 0 0 0 0 0 0 0 0 1 0 0 0 0 0 0 0 0 0 0 0 0 0 0 1 0 0 0 0 0 0 0 0 1 0 0 0 0 0 0 0 0 0 0 0 0 0 0 0 0 0 0 0 0 0zm0 100l0 74 0 0 0 0 0 0 0 0 0 0 0 0 0 0 0 0 0 0 -1 0 0 0 0 0 0 0 0 0 0 0 0 0 0 1 0 0 0 0 0 0 0 0 -1 0 0 0 0 0 0 0 0 0 0 0 0 0 0 0 0 0 0 0 0 0 0 0 0 0 0 0 -1 0 0 0 0 0 0 0 0 0 0 0 0 0 0 0 0 0 0 0 0 0 0 0 -1 0 0 0 0 1 0 0 0 0 0 0 0 0 0 0 0 0 0 0 0 0 0 0 0 0 0 0 0 0 -1 0 0 0 0 0 0 0 0 0 0 0 0 1 0 0 0 0 0 0 0 0 0 0 0 0 0 0 0 0 0 0 0 0 -1 0 0 0 0 0 0 0 0 1 0 0 0 0 0 0 0 0 0 0 0 0 0 0 0 0 0 0 0 0 0 0 0 -82 0 0 0 0 0 0 0 0 0 0 0 0 0 0 0 0 0 0 0 0 0 1 0 0 0 0 0 0 0 0 1 0 0 0 0 0 0 0 0 0 0 0 0 0 0 0 0 0 0 0 0 0 0 0 0 1 0 0 0 0 0 0 0 0 1 0 0 0 0 0 0 0 0 0 0 0 0 0 0 0 0 0 0 0 0 0 0 0 0 0 0 0 0 0 1 1 0 0 0 0 0 0 0 0 0 0 0 0 0 0 0 0 0 0 0 0 0 0 0 0 1 0 0 0 0 0 0 0 0 0 0 0 0 0 0 0 0 0 0 0 0 0 0 0 0 0 0 0 1 0 0 0 0 0 0 0 0 0 0 0 0 0 0 1 0 0 0 0 0 0 0 0 1 0 0 0 0 0 0 0 0 0 0 0 0 0 0 0 0 0 0 0 0 0z"/>
   <polygon fill="#8C8C8C" points="778,1382 719,1503 712,1503 772,1382 "/>
   <path fill="#00A0E3" d="M772 671l0 -22c-8,-2 -14,-10 -14,-18 0,-9 6,-16 14,-19l0 -18 -215 0c-41,5 -39,73 0,77l215 0 0 0z"/>
  </g>
  <g id="MISC_x0020_COMPS">
   <polygon fill="#666666" points="192,1260 231,1260 231,1299 192,1299 "/>
   <polygon fill="#666666" points="376,1241 439,1241 439,1271 376,1271 "/>
   <polygon fill="#666666" points="38,94 180,94 180,180 38,180 "/>
   <polygon fill="#666666" points="307,1210 350,1210 350,1232 307,1232 "/>
   <polygon fill="#666666" points="128,203 191,203 191,234 128,234 "/>
   <polygon fill="#666666" points="474,379 474,315 504,315 504,379 "/>
   <polygon fill="#666666" points="415,386 415,343 437,343 437,386 "/>
   <polygon fill="#666666" points="431,665 431,623 453,623 453,665 "/>
   <polygon fill="#666666" points="337,665 337,622 359,622 359,665 "/>
   <polygon fill="#666666" points="285,665 285,623 307,623 307,665 "/>
   <polygon fill="#666666" points="247,665 247,623 269,623 269,665 "/>
   <polygon fill="#666666" points="135,665 135,623 157,623 157,665 "/>
   <polygon fill="#666666" points="380,659 380,596 410,596 410,659 "/>
   <polygon fill="#666666" points="477,664 477,601 507,601 507,664 "/>
   <polygon fill="#666666" points="123,254 166,254 166,276 123,276 "/>
   <polygon fill="#666666" points="588,402 631,402 631,424 588,424 "/>
   <polygon fill="#666666" points="588,322 631,322 631,344 588,344 "/>
   <polygon fill="#666666" points="588,282 631,282 631,303 588,303 "/>
   <polygon fill="#666666" points="307,1210 350,1210 350,1232 307,1232 "/>
   <polygon fill="#666666" points="272,1307 315,1307 315,1329 272,1329 "/>
   <polygon fill="#666666" points="291,1248 334,1248 334,1270 291,1270 "/>
   <polygon fill="#666666" points="267,1389 267,1346 288,1346 288,1389 "/>
   <polygon fill="#666666" points="266,1456 266,1414 288,1414 288,1456 "/>
   <polygon fill="#666666" points="117,1242 160,1242 160,1264 117,1264 "/>
   <polygon fill="#666666" points="133,1299 157,1299 157,1314 133,1314 "/>
   <polygon fill="#666666" points="226,1350 226,1326 240,1326 240,1350 "/>
   <polygon fill="#666666" points="206,1234 206,1210 220,1210 220,1234 "/>
   <polygon fill="#666666" points="506,1263 506,1221 528,1221 528,1263 "/>
   <polygon fill="#666666" points="622,1262 622,1220 644,1220 644,1262 "/>
   <polygon fill="#666666" points="579,1287 579,1223 609,1223 609,1287 "/>
   <polygon fill="#666666" points="292,309 389,309 389,322 399,331 399,382 389,392 389,404 292,404 292,391 283,382 283,331 292,323 "/>
   <polygon fill="#666666" points="624,731 624,689 646,689 646,731 "/>
  </g>
  <g id="UFL">
   <polygon fill="#CCCCCC" points="112,1386 112,1451 77,1451 77,1386 "/>
   <polygon fill="#E5E5E5" points="112,1449 112,1451 77,1451 77,1449 "/>
   <polygon fill="#CCCCCC" points="194,1387 194,1452 159,1452 159,1387 "/>
   <polygon fill="#E5E5E5" points="194,1449 194,1452 159,1452 159,1449 "/>
   <polygon fill="#CCCCCC" points="148,1363 148,1386 123,1386 123,1363 "/>
   <path fill="#E5E5E5" stroke="#8C8C8C" stroke-width="3" d="M95 1372l80 0c4,0 7,3 7,8l0 78c0,4 -3,8 -7,8l-80 0c-4,0 -7,-4 -7,-8l0 -78c0,-5 3,-8 7,-8z"/>
   <path fill="#E5E5E5" stroke="#8C8C8C" stroke-width="3" d="M135 1392c15,0 28,12 28,27 0,15 -13,28 -28,28 -15,0 -27,-13 -27,-28 0,-15 12,-27 27,-27z"/>
   <path fill="#CC9933" d="M135 1412c4,0 7,3 7,7 0,4 -3,7 -7,7 -4,0 -7,-3 -7,-7 0,-4 3,-7 7,-7z"/>
  </g>
  <g id="ANT">
   <polygon fill="#CCCCCC" points="366,1383 682,1383 682,1463 366,1463 "/>
   <polygon fill="#999999" points="366,1383 384,1383 384,1463 366,1463 "/>
   <polygon fill="#999999" points="662,1383 682,1383 682,1463 662,1463 "/>
   <polygon fill="#CC9933" points="413,1383 454,1383 454,1463 413,1463 "/>
  </g>
  <g id="USB_x0020_MICRO">
   <g id="PINS">
    <polygon fill="#666666" points="421,247 421,264 435,264 435,247 "/>
    <polygon fill="#999999" points="433,249 433,264 435,264 435,249 "/>
    <polygon fill="#666666" points="396,247 396,264 409,264 409,247 "/>
    <polygon fill="#999999" points="408,249 408,264 409,264 409,249 "/>
    <polygon fill="#666666" points="370,247 370,264 384,264 384,247 "/>
    <polygon fill="#999999" points="383,249 383,264 384,264 384,249 "/>
    <polygon fill="#666666" points="345,247 345,264 358,264 358,247 "/>
    <polygon fill="#999999" points="357,249 357,264 358,264 358,249 "/>
    <polygon fill="#666666" points="319,247 319,264 333,264 333,247 "/>
    <polygon fill="#999999" points="332,249 332,264 333,264 333,249 "/>
   </g>
   <polygon fill="#B3B3B3" points="247,16 507,16 507,251 247,251 "/>
   <polygon fill="#CCCCCC" points="247,249 247,251 507,251 507,249 "/>
   <polygon fill="#333333" points="306,35 306,251 448,251 448,35 "/>
   <polygon fill="#B3B3B3" points="510,21 510,15 519,0 524,0 "/>
   <polygon fill="#CCCCCC" points="510,15 510,15 510,7 519,0 "/>
   <polygon fill="#B3B3B3" points="230,0 235,0 244,15 244,21 "/>
   <polygon fill="#CCCCCC" points="235,0 244,7 244,15 244,15 "/>
   <path fill="#CCCCCC" d="M510 243l-3 8 -35 0c0,0 32,-2 33,-4 1,-3 -2,-4 -2,-4l7 0z"/>
   <path fill="#CCCCCC" d="M244 243l3 8 35 0c0,0 -32,-2 -33,-4 -1,-3 2,-4 2,-4l-7 0z"/>
   <path fill="#E6E6E6" d="M291 251l0 -23 22 0 0 23 6 0 0 -8 116 0 0 8 7 0 0 -23 22 0 0 23 46 0 0 -235 -266 0 0 235 47 0 0 0zm151 -191l0 -12 22 0 0 12c6,4 10,11 10,18 0,9 -3,16 -10,19l0 0 0 62 -22 0 0 -62c-7,-3 -11,-10 -11,-19 0,-8 4,-15 11,-18zm-150 0l0 -12 22 0 0 12c6,4 9,11 9,18 0,9 -2,16 -9,19l0 0 0 62 -22 0 0 -62c-7,-3 -12,-10 -12,-19 0,-8 5,-15 12,-18z"/>
   <polygon fill="#F2F2F2" points="504,16 510,16 510,243 489,243 "/>
   <polygon fill="#999999" points="244,16 252,167 260,243 244,243 "/>
   <polygon fill="#CCCCCC" points="442,157 442,159 464,159 464,157 "/>
   <polygon fill="#CCCCCC" points="292,157 292,159 314,159 314,157 "/>
   <polygon fill="#B3B3B3" points="257,19 257,28 497,28 497,19 "/>
   <polygon fill="#CCCCCC" points="257,16 257,20 497,20 497,16 "/>
  </g>
  <g id="SPARK_x0020_LOGO">
   <polygon fill="#CC9933" points="702,173 684,143 702,115 673,133 645,115 663,143 645,171 673,153 "/>
   <polygon fill="#CC9933" points="678,162 673,159 669,162 673,183 "/>
   <polygon fill="#CC9933" points="657,143 655,147 634,143 655,138 "/>
   <polygon fill="#CC9933" points="692,148 689,143 692,138 713,143 "/>
   <polygon fill="#CC9933" points="678,124 673,103 669,124 673,127 "/>
   <polygon fill="#E6AB00" points="702,173 684,143 702,115 702,115 683,143 "/>
   <polygon fill="#E6AB00" points="678,162 673,159 677,162 673,183 "/>
   <polygon fill="#E6AB00" points="655,147 656,143 655,138 657,143 "/>
   <polygon fill="#E6AB00" points="692,148 710,143 692,138 713,143 "/>
   <polygon fill="#E6AB00" points="678,124 673,103 677,124 673,127 "/>
   <polygon fill="#E6AB00" points="673,133 645,115 673,134 "/>
   <polygon fill="#E6AB00" points="673,152 645,171 673,153 "/>
  </g>
  <g id="BLUE_x0020_LED">
   <polygon fill="#CCCCCC" points="561,615 624,615 624,650 561,650 "/>
   <polygon fill="#E5E5E5" points="573,618 612,618 612,646 573,646 "/>
   <polygon fill="#1B5BB3" points="585,627 600,627 600,638 585,638 "/>
  </g>
  <g id="BUTTON">
   <polygon fill="#CCCCCC" points="157,461 157,483 122,483 122,461 "/>
   <polygon fill="#E5E5E5" points="157,481 157,483 122,483 122,481 "/>
   <polygon fill="#CCCCCC" points="157,522 157,544 122,544 122,522 "/>
   <polygon fill="#E5E5E5" points="157,542 157,544 122,544 122,542 "/>
   <polygon fill="#CCCCCC" points="284,522 284,544 249,544 249,522 "/>
   <polygon fill="#E5E5E5" points="284,542 284,544 249,544 249,542 "/>
   <polygon fill="#CCCCCC" points="284,461 284,483 249,483 249,461 "/>
   <polygon fill="#E5E5E5" points="284,481 284,483 249,483 249,481 "/>
   <polygon fill="#999999" points="274,444 274,562 133,562 133,444 "/>
   <polygon fill="#B2B2B2" points="274,562 271,562 271,444 274,444 "/>
   <polygon fill="#8C8C8C" points="136,562 133,562 133,444 136,444 "/>
   <path fill="black" d="M203 469c20,0 35,15 35,34 0,19 -15,35 -35,35 -19,0 -34,-16 -34,-35 0,-19 15,-34 34,-34z"/>
   <g>
    <path fill="#404040" d="M202 472c17,0 31,14 31,31 0,18 -14,32 -31,32 -18,0 -32,-14 -32,-32 0,-17 14,-31 32,-31z"/>
    <path fill="#999999" d="M202 472c17,0 31,14 31,31 0,18 -14,32 -31,32 40,-6 40,-58 0,-63l0 0z"/>
   </g>
  </g>
  <g id="TEXT">
   <path fill="#00A0E3" fill-rule="nonzero" d="M152 429c0,1 -1,3 -1,4 -1,1 -1,2 -2,2 -1,1 -2,2 -4,2 -1,1 -2,1 -4,1 -2,0 -3,0 -5,-1 -1,0 -2,0 -3,-1l0 -4c0,1 1,1 2,1 0,0 1,1 2,1 0,0 1,0 2,0 0,0 1,0 2,0 2,0 4,0 5,-1 1,-1 2,-2 2,-4 0,-1 0,-1 -1,-2 0,0 0,-1 -1,-1 0,-1 -1,-1 -2,-2 -1,0 -2,-1 -3,-1 -2,-1 -3,-1 -4,-2 -1,-1 -1,-1 -2,-2 -1,-1 -1,-2 -1,-3 -1,-1 -1,-2 -1,-3 0,-1 1,-2 1,-3 0,-1 1,-2 2,-3 1,0 2,-1 3,-1 1,-1 2,-1 4,-1 2,0 3,0 4,1 2,0 3,0 4,1l-1 3c-1,0 -2,-1 -4,-1 -1,0 -2,0 -3,0 -2,0 -3,0 -4,1 -1,1 -2,2 -2,3 0,1 0,2 1,2 0,1 0,2 1,2 0,0 1,1 2,1 1,1 2,1 3,2 1,0 2,1 3,1 1,1 2,2 3,2 0,1 1,2 1,3 0,1 1,2 1,3zm22 8l-16 0 0 -31 16 0 0 3 -12 0 0 10 12 0 0 4 -12 0 0 11 12 0 0 3zm17 0l-4 0 0 -28 -9 0 0 -3 22 0 0 3 -9 0 0 28zm36 -31l0 20c0,2 0,3 0,5 -1,1 -2,2 -3,3 -1,1 -2,2 -3,3 -2,0 -3,1 -5,1 -2,0 -4,-1 -5,-1 -2,-1 -3,-1 -4,-2 -1,-1 -2,-3 -2,-4 -1,-2 -1,-3 -1,-5l0 -20 4 0 0 20c0,3 1,5 2,6 1,2 3,2 6,2 1,0 2,0 3,0 1,-1 2,-1 2,-2 1,-1 1,-2 2,-3 0,-1 0,-2 0,-3l0 -20 4 0zm28 9c0,1 -1,2 -1,4 0,1 -1,2 -2,3 -1,1 -2,2 -4,2 -1,1 -3,1 -5,1l-3 0 0 12 -4 0 0 -31 7 0c2,0 4,0 5,0 2,1 3,1 4,2 1,1 1,2 2,3 0,1 1,2 1,4zm-15 7l2 0c2,0 3,-1 4,-1 1,0 2,0 2,-1 1,0 1,-1 2,-2 0,-1 0,-2 0,-3 0,-2 0,-3 -1,-4 -2,-1 -3,-2 -6,-2l-3 0 0 13z"/>
   <path fill="#00A0E3" fill-rule="nonzero" d="M452 425l0 13 -4 0 0 -32 8 0c4,0 7,1 9,2 1,2 2,4 2,7 0,1 0,2 0,3 -1,1 -1,2 -2,3 0,0 -1,1 -2,1 0,1 -1,1 -2,1l9 15 -5 0 -8 -13 -5 0zm0 -4l4 0c1,0 2,0 3,0 1,0 2,-1 2,-1 1,-1 1,-1 2,-2 0,-1 0,-2 0,-3 0,-1 0,-2 0,-2 -1,-1 -1,-2 -2,-2 0,-1 -1,-1 -2,-1 -1,0 -2,0 -3,0l-4 0 0 11zm39 17l-17 0 0 -32 17 0 0 4 -13 0 0 9 12 0 0 4 -12 0 0 11 13 0 0 4zm23 -9c0,2 0,3 0,4 -1,1 -2,2 -3,3 -1,0 -2,1 -3,1 -1,1 -3,1 -4,1 -2,0 -4,0 -5,0 -1,-1 -2,-1 -3,-1l0 -4c0,0 1,0 1,0 1,1 2,1 2,1 1,0 2,0 2,0 1,1 2,1 3,1 2,0 4,-1 5,-2 1,-1 1,-2 1,-3 0,-1 0,-2 0,-2 0,-1 -1,-2 -1,-2 -1,-1 -1,-1 -2,-1 -1,-1 -2,-1 -4,-2 -1,0 -2,-1 -3,-2 -1,0 -2,-1 -2,-2 -1,0 -1,-1 -2,-2 0,-1 0,-2 0,-3 0,-2 0,-3 1,-4 0,-1 1,-2 2,-2 1,-1 1,-1 3,-2 1,0 2,0 3,0 2,0 4,0 5,0 1,0 3,1 4,1l-2 4c-1,-1 -2,-1 -3,-1 -1,-1 -2,-1 -3,-1 -2,0 -4,1 -5,1 0,1 -1,2 -1,4 0,1 0,1 0,2 1,0 1,1 1,1 1,1 2,1 2,2 1,0 2,1 3,1 2,1 3,1 4,2 1,0 2,1 2,2 1,0 1,1 2,2 0,1 0,2 0,3zm23 9l-16 0 0 -32 16 0 0 4 -12 0 0 9 11 0 0 4 -11 0 0 11 12 0 0 4zm16 0l-4 0 0 -28 -9 0 0 -4 22 0 0 4 -9 0 0 28z"/>
   <path fill="#00A0E3" fill-rule="nonzero" d="M659 248c2,0 3,0 4,1 1,0 1,0 2,1 1,1 1,2 2,3 0,0 1,1 1,3l0 0c0,-3 1,-5 3,-7 1,-1 3,-2 5,-2 2,0 3,0 4,1 2,0 3,1 4,2 1,1 1,2 2,4 0,2 1,4 1,6 0,1 -1,3 -1,5 0,1 -1,3 -1,4l-4 0c0,-1 1,-3 1,-5 1,-1 1,-3 1,-4 0,-2 0,-3 -1,-4 0,-1 0,-2 -1,-3 -1,0 -1,-1 -2,-1 -1,0 -2,-1 -3,-1 -1,0 -2,1 -3,1 0,0 -1,1 -2,2 0,1 0,2 -1,3 0,1 0,2 0,3l0 4 -4 0 0 -4c0,-1 0,-2 0,-3 0,-1 -1,-2 -1,-2 -1,-1 -2,-2 -3,-2 0,0 -1,-1 -2,-1 -1,0 -2,1 -2,1 -1,0 -2,1 -2,1 -1,1 -1,1 -1,2 0,1 0,2 0,2 0,2 0,4 0,5 1,1 2,2 2,4l-3 2c0,-1 -1,-1 -1,-2 0,-1 -1,-2 -1,-3 0,0 -1,-1 -1,-2 0,-1 0,-2 0,-4 0,-1 0,-3 1,-4 0,-1 1,-2 1,-3 1,-1 2,-2 3,-2 1,-1 2,-1 3,-1zm-8 -27l0 -5 35 12 0 5 -35 11 0 -5 22 -7c2,0 3,0 5,-1 1,0 2,0 3,-1 -1,0 -2,0 -3,-1 -2,0 -3,0 -5,-1l-22 -7zm8 -27c2,0 3,0 4,0 1,1 1,1 2,2 1,0 1,1 2,2 0,1 1,2 1,3l0 0c0,-3 1,-5 3,-6 1,-2 3,-2 5,-2 2,0 3,0 4,0 2,1 3,2 4,3 1,1 1,2 2,4 0,1 1,3 1,5 0,2 -1,4 -1,5 0,2 -1,3 -1,5l-4 0c0,-2 1,-3 1,-5 1,-2 1,-3 1,-5 0,-1 0,-2 -1,-3 0,-1 0,-2 -1,-3 -1,-1 -1,-1 -2,-1 -1,-1 -2,-1 -3,-1 -1,0 -2,0 -3,1 0,0 -1,1 -2,1 0,1 0,2 -1,3 0,1 0,3 0,4l0 3 -4 0 0 -3c0,-1 0,-2 0,-3 0,-1 -1,-2 -1,-3 -1,-1 -2,-1 -3,-1 0,-1 -1,-1 -2,-1 -1,0 -2,0 -2,1 -1,0 -2,0 -2,1 -1,0 -1,1 -1,2 0,0 0,1 0,2 0,2 0,3 0,5 1,1 2,2 2,3l-3 2c0,0 -1,-1 -1,-2 0,0 -1,-1 -1,-2 0,-1 -1,-2 -1,-3 0,-1 0,-2 0,-3 0,-2 0,-3 1,-4 0,-2 1,-3 1,-4 1,-1 2,-1 3,-2 1,0 2,0 3,0z"/>
   <path fill="#00A0E3" fill-rule="nonzero" d="M672 351l14 0 0 5 -34 0 0 -9c0,-4 0,-7 2,-9 2,-2 4,-3 8,-3 1,0 2,0 3,0 1,1 2,1 3,2 1,1 1,1 2,2 0,1 1,2 1,3l15 -10 0 5 -14 9 0 5zm-4 0l0 -4c0,-1 0,-2 0,-3 0,-1 -1,-2 -1,-3 -1,0 -2,-1 -2,-1 -1,0 -2,0 -3,0 -1,0 -2,0 -3,0 -1,0 -2,1 -2,1 -1,1 -1,2 -1,3 0,1 -1,2 -1,3l0 4 13 0zm9 -42c2,0 3,0 4,1 1,0 2,1 3,2 1,1 2,2 2,4 1,1 1,3 1,5 0,1 0,3 -1,4 0,2 0,3 -1,4l-4 0c0,0 1,-1 1,-2 0,0 0,-1 0,-2 1,0 1,-1 1,-2 0,-1 0,-2 0,-2 0,-3 0,-5 -1,-6 -1,-1 -3,-2 -4,-2 -1,0 -2,0 -3,0 0,1 -1,1 -1,2 -1,0 -1,1 -2,2 0,1 -1,2 -2,4 0,1 -1,2 -1,3 -1,1 -2,2 -3,3 0,1 -1,1 -2,1 -1,1 -3,1 -4,1 -1,0 -3,0 -4,-1 -1,0 -2,-1 -2,-2 -1,-1 -2,-2 -2,-3 -1,-2 -1,-3 -1,-5 0,-1 0,-3 1,-5 0,-1 1,-3 1,-4l4 2c-1,1 -1,2 -1,3 -1,2 -1,3 -1,4 0,2 1,4 1,5 1,1 3,1 4,1 1,0 2,0 2,0 1,0 2,-1 2,-1 1,-1 1,-1 2,-2 0,-1 1,-2 1,-4 1,-1 1,-2 2,-3 0,-1 1,-2 2,-3 1,-1 2,-1 3,-2 1,0 2,0 3,0zm9 -17l0 4 -30 0 0 10 -4 0 0 -24 4 0 0 10 30 0z"/>
   <path fill="#00A0E3" fill-rule="nonzero" d="M652 458l0 -5 35 12 0 4 -35 12 0 -5 22 -7c1,-1 3,-1 4,-1 1,-1 3,-1 4,-1 -1,0 -3,-1 -4,-1 -1,0 -3,-1 -4,-1l-22 -7zm0 -10l0 -9c0,-2 0,-4 0,-6 1,-1 1,-2 2,-3 1,-1 2,-2 3,-3 1,0 2,-1 4,-1 1,0 2,1 3,1 0,0 1,1 2,1 0,1 1,2 1,2 1,1 1,2 1,3l1 0c0,-1 0,-2 0,-3 1,-1 1,-2 2,-2 0,-1 1,-2 2,-2 1,0 2,-1 4,-1 1,0 3,1 4,1 1,1 2,2 3,2 1,1 1,3 2,4 0,1 1,3 1,5l0 11 -35 0zm15 -4l0 -6c0,-1 0,-2 -1,-3 0,-1 0,-2 -1,-3 0,0 -1,-1 -2,-1 0,0 -1,0 -2,0 -2,0 -3,0 -4,2 -1,1 -1,3 -1,6l0 5 11 0zm3 0l13 0 0 -6c0,-2 0,-3 -1,-4 0,-1 0,-2 -1,-2 0,-1 -1,-1 -2,-1 -1,-1 -2,-1 -3,-1 0,0 -1,0 -2,1 -1,0 -1,0 -2,1 0,0 -1,1 -1,2 0,1 -1,2 -1,4l0 6zm17 -46l-11 4 0 13 11 3 0 5 -35 -13 0 -4 35 -13 0 5zm-15 5l-10 3c0,1 -1,1 -1,1 -1,0 -1,0 -1,0 -1,0 -1,1 -2,1 0,0 -1,0 -1,0 0,0 1,0 1,0 1,1 1,1 2,1 0,0 1,0 1,0 0,0 1,1 1,1l10 3 0 -10zm15 -25l0 5 -31 0 0 10 -4 0 0 -24 4 0 0 9 31 0z"/>
   <path fill="#00A0E3" fill-rule="nonzero" d="M668 573l0 -12 17 0c0,1 0,2 1,3 0,1 0,2 0,3 0,0 0,1 1,2 0,2 0,3 0,4 0,2 -1,4 -2,6 0,2 -2,4 -3,5 -2,2 -4,3 -6,3 -2,1 -4,1 -7,1 -3,0 -5,0 -8,-1 -2,-1 -4,-2 -5,-3 -2,-2 -3,-3 -4,-5 -1,-3 -1,-5 -1,-8 0,-1 0,-3 0,-5 1,-1 1,-3 2,-4l4 1c0,1 -1,2 -1,2 0,1 0,2 -1,2 0,1 0,2 0,2 0,1 0,2 0,3 0,2 0,3 1,5 0,1 1,3 3,4 1,1 2,1 4,2 2,0 4,1 6,1 2,0 4,-1 5,-1 2,0 4,-1 5,-2 1,-1 2,-2 3,-4 0,-1 1,-3 1,-5 0,-1 0,-2 0,-2 0,-1 0,-1 0,-2 -1,0 -1,-1 -1,-1 0,-1 0,-1 0,-1l-10 0 0 7 -4 0zm18 -46l0 5 -29 17 0 0c2,0 3,0 4,0 1,0 2,0 3,0 1,0 2,0 3,0l19 0 0 4 -35 0 0 -5 29 -17 0 0c-1,0 -2,0 -4,0 0,0 -1,0 -1,0 -1,0 -1,0 -2,0 0,0 -1,0 -1,0 -1,0 -1,0 -2,0l-19 0 0 -4 35 0zm-18 -35c3,0 6,0 8,1 2,1 4,2 6,3 1,2 2,4 3,6 1,2 1,4 1,7l0 9 -35 0 0 -10c0,-3 1,-5 2,-7 0,-2 1,-3 3,-5 1,-1 3,-2 5,-3 2,-1 5,-1 7,-1zm1 5c-3,0 -5,0 -6,0 -2,1 -3,2 -5,3 -1,1 -1,2 -2,3 -1,2 -1,3 -1,5l0 5 27 0 0 -4c0,-4 -1,-7 -3,-9 -2,-2 -6,-3 -10,-3z"/>
   <path fill="#404040" fill-rule="nonzero" d="M669 633c3,0 5,0 7,1 3,1 5,2 6,3 1,2 3,4 3,6 1,2 1,4 1,7l0 8 -34 0 0 -9c0,-3 0,-5 1,-7 1,-2 2,-3 3,-5 1,-1 3,-2 5,-3 3,-1 5,-1 8,-1zm0 5c-2,0 -4,0 -6,0 -2,1 -3,2 -4,3 -1,1 -2,2 -3,3 0,2 -1,3 -1,5l0 5 28 0 0 -4c0,-4 -2,-7 -4,-9 -2,-2 -6,-3 -10,-3zm17 -15l-30 -13 0 18 -4 0 0 -22 3 0 31 13 0 4z"/>
   <path fill="#00A0E3" fill-rule="nonzero" d="M668 732c3,0 6,0 8,1 2,0 4,2 6,3 1,1 2,3 3,5 1,2 1,5 1,7l0 9 -35 0 0 -10c0,-2 1,-4 1,-6 1,-2 2,-4 4,-5 1,-2 3,-3 5,-3 2,-1 5,-1 7,-1zm1 4c-3,0 -5,0 -6,1 -2,1 -4,1 -5,2 -1,1 -2,3 -2,4 -1,1 -1,3 -1,5l0 5 27 0 0 -4c0,-4 -1,-7 -3,-10 -2,-2 -6,-3 -10,-3zm2 -10c-1,0 -3,0 -5,0 -1,0 -3,-1 -4,-1 -2,-1 -3,-1 -5,-2 -1,-1 -2,-2 -3,-3 -1,-1 -2,-2 -2,-4 -1,-1 -1,-3 -1,-5 0,-1 0,-1 0,-1 0,-1 0,-1 0,-1 0,-1 0,-1 0,-1 0,-1 0,-1 0,-1l4 0c0,0 0,1 0,2 0,0 0,1 0,2 0,1 0,2 0,3 0,1 1,2 1,3 1,1 2,2 3,2 0,1 1,1 2,1 1,1 3,1 4,1 1,0 2,0 3,0l0 0c0,0 -1,-1 -1,-1 -1,0 -1,-1 -2,-2 0,0 0,-1 0,-2 -1,0 -1,-1 -1,-2 0,-2 1,-3 1,-4 1,-1 1,-2 2,-3 1,-1 2,-2 3,-2 2,-1 3,-1 5,-1 2,0 3,0 5,1 1,0 2,1 3,2 1,1 2,2 3,3 0,2 1,3 1,5 0,1 -1,3 -1,4 -1,1 -2,3 -3,4 -1,1 -3,1 -5,2 -2,1 -4,1 -7,1zm12 -11c0,-1 0,-2 -1,-3 0,-1 0,-1 -1,-2 -1,-1 -2,-1 -3,-1 -1,-1 -2,-1 -3,-1 -1,0 -2,0 -3,1 -1,0 -2,0 -2,1 -1,0 -1,1 -2,2 0,1 0,1 0,2 0,2 0,2 0,3 1,1 1,2 2,3 0,0 1,1 2,1 1,0 1,1 2,1 1,0 2,-1 3,-1 1,0 2,-1 3,-1 1,-1 2,-2 2,-2 1,-1 1,-2 1,-3z"/>
   <path fill="#00A0E3" fill-rule="nonzero" d="M668 830c3,0 5,0 8,1 2,1 4,2 5,4 2,1 3,3 3,5 1,2 2,4 2,7l0 9 -35 0 0 -10c0,-2 0,-5 1,-7 1,-2 2,-3 3,-5 2,-1 3,-2 6,-3 2,-1 4,-1 7,-1zm0 5c-2,0 -4,0 -6,1 -2,0 -3,1 -4,2 -1,1 -2,2 -3,4 0,1 0,3 0,4l0 5 27 0 0 -4c0,-4 -1,-7 -4,-9 -2,-2 -5,-3 -10,-3zm-4 -21c0,-1 0,-3 1,-4 0,-2 1,-3 2,-4 1,-1 2,-2 3,-2 1,-1 3,-1 4,-1 2,0 4,0 5,1 2,0 3,1 4,2 1,1 2,3 2,4 1,2 1,4 1,6 0,0 0,1 0,2 0,1 0,1 0,2 -1,1 -1,2 -1,2 0,1 -1,1 -1,2l-4 0c0,-1 1,-1 1,-2 0,-1 1,-1 1,-2 0,-1 0,-2 0,-2 0,-1 0,-2 0,-3 0,-1 0,-2 0,-3 0,-1 -1,-2 -1,-2 -1,-1 -2,-2 -3,-2 -1,0 -2,-1 -3,-1 -2,0 -4,1 -5,3 -1,1 -2,3 -2,6 0,0 0,1 0,1 0,1 0,1 0,2 0,0 0,1 0,1 0,0 1,1 1,1l-2 2 -16 -1 0 -16 4 0 0 12 10 1c0,0 0,-1 -1,-2 0,-1 0,-2 0,-3z"/>
   <path fill="#00A0E3" fill-rule="nonzero" d="M669 932c2,0 5,0 7,1 2,1 4,2 6,3 1,2 2,3 3,6 1,2 1,4 1,7l0 8 -34 0 0 -9c0,-3 0,-5 1,-7 0,-2 1,-3 3,-5 1,-1 3,-2 5,-3 2,-1 5,-1 8,-1zm0 4c-3,0 -5,1 -6,1 -2,1 -3,2 -4,3 -2,1 -2,2 -3,3 0,2 -1,3 -1,5l0 5 27 0 0 -4c0,-4 -1,-7 -3,-9 -2,-2 -6,-4 -10,-4zm9 -33l0 5 8 0 0 4 -8 0 0 16 -3 0 -24 -15 0 -5 24 0 0 -5 3 0zm-3 9l-9 0c-1,0 -2,0 -3,0 -1,0 -2,0 -3,0 -1,0 -1,0 -2,0 -1,0 -2,0 -2,0l0 0c0,0 0,0 1,1 0,0 1,0 1,0 0,0 1,1 1,1 1,0 1,0 1,0l15 10 0 -12z"/>
   <path fill="#00A0E3" fill-rule="nonzero" d="M668 1030c3,0 6,0 8,1 2,1 4,2 6,3 1,2 2,4 3,6 1,2 1,4 1,7l0 8 -35 0 0 -9c0,-3 1,-5 1,-7 1,-2 2,-3 4,-5 1,-1 3,-2 5,-3 2,-1 5,-1 7,-1zm1 5c-3,0 -5,0 -6,0 -2,1 -4,2 -5,3 -1,1 -2,2 -2,3 -1,2 -1,3 -1,5l0 5 27 0 0 -4c0,-4 -1,-7 -3,-9 -2,-2 -6,-3 -10,-3zm-9 -31c1,0 2,0 3,1 1,0 1,1 2,1 1,1 1,2 2,3 0,0 1,2 1,3l0 0c0,-3 1,-5 3,-7 1,-1 3,-2 5,-2 2,0 3,0 4,1 2,0 3,1 4,2 1,1 1,3 2,4 0,2 1,4 1,6 0,2 -1,3 -1,5 0,1 -1,3 -1,4l-4 0c0,-1 1,-3 1,-5 1,-1 1,-3 1,-4 0,-2 0,-3 -1,-4 0,-1 0,-2 -1,-3 -1,0 -1,-1 -2,-1 -1,0 -2,-1 -3,-1 -1,0 -2,1 -3,1 0,1 -1,1 -2,2 0,1 0,2 -1,3 0,1 0,2 0,4l0 3 -4 0 0 -3c0,-2 0,-3 0,-4 0,-1 -1,-2 -1,-2 -1,-1 -2,-2 -3,-2 0,0 -1,0 -2,0 -1,0 -2,0 -2,0 -1,0 -2,1 -2,1 -1,1 -1,1 -1,2 0,1 0,2 0,2 0,2 0,4 0,5 1,1 2,2 2,4l-3 2c0,-1 -1,-1 -1,-2 0,-1 -1,-2 -1,-3 0,0 -1,-1 -1,-2 0,-1 0,-2 0,-4 0,-1 0,-3 1,-4 0,-1 1,-2 1,-3 1,-1 2,-2 3,-2 1,-1 2,-1 4,-1z"/>
   <path fill="#00A0E3" fill-rule="nonzero" d="M669 1130c3,0 5,0 8,1 2,1 4,2 5,3 2,2 3,4 3,6 1,2 2,4 2,7l0 9 -35 0 0 -10c0,-3 0,-5 1,-7 1,-2 2,-3 3,-5 2,-1 3,-2 6,-3 2,-1 4,-1 7,-1zm0 5c-2,0 -4,0 -6,0 -2,1 -3,2 -4,3 -1,1 -2,2 -3,3 0,2 0,3 0,5l0 5 27 0 0 -4c0,-4 -1,-7 -4,-9 -2,-2 -5,-3 -10,-3zm18 -32l0 22 -4 0 -9 -9c-1,-1 -3,-2 -4,-3 -1,-1 -2,-2 -3,-2 -1,-1 -2,-1 -3,-2 -1,0 -2,0 -3,0 -1,0 -2,0 -3,0 0,0 -1,1 -1,1 -1,1 -1,1 -2,2 0,1 0,2 0,2 0,2 0,3 1,4 1,2 1,3 2,4l-3 2c0,0 -1,-1 -1,-2 -1,0 -1,-1 -1,-2 -1,-1 -1,-2 -1,-3 -1,-1 -1,-2 -1,-3 0,-1 1,-3 1,-4 0,-1 1,-2 2,-3 1,-1 2,-1 3,-2 1,0 2,-1 4,-1 1,0 2,1 3,1 2,0 3,1 4,2 1,1 2,1 4,2 1,1 2,3 3,4l7 6 1 0 0 -16 4 0z"/>
   <path fill="#00A0E3" fill-rule="nonzero" d="M668 1223c3,0 6,0 8,1 2,1 4,2 6,3 1,2 2,4 3,6 1,2 1,4 1,7l0 8 -35 0 0 -9c0,-3 1,-5 1,-7 1,-2 2,-3 4,-5 1,-1 3,-2 5,-3 2,-1 5,-1 7,-1zm1 5c-3,0 -5,0 -6,0 -2,1 -4,2 -5,3 -1,1 -2,2 -2,3 -1,2 -1,3 -1,5l0 5 27 0 0 -4c0,-4 -1,-7 -3,-9 -3,-2 -6,-3 -10,-3zm17 -25l0 4 -22 0c0,0 -1,0 -2,0 -1,0 -1,0 -2,0 -1,0 -2,0 -2,0 -1,0 -2,0 -2,0 0,0 0,1 1,1 0,0 0,0 0,0 0,1 1,1 1,1 0,0 0,1 0,1l3 3 -3 3 -7 -9 0 -4 35 0z"/>
   <path fill="#00A0E3" fill-rule="nonzero" d="M668 1331c3,0 6,0 8,1 2,0 4,2 6,3 1,1 2,3 3,5 1,2 1,5 1,7l0 9 -35 0 0 -10c0,-2 1,-4 2,-6 0,-2 1,-4 3,-5 1,-2 3,-3 5,-3 2,-1 5,-1 7,-1zm1 4c-3,0 -5,0 -6,1 -2,0 -3,1 -5,2 -1,1 -1,2 -2,4 -1,1 -1,3 -1,5l0 5 27 0 0 -4c0,-4 -1,-8 -3,-10 -2,-2 -6,-3 -10,-3zm0 -32c3,0 5,0 7,1 2,0 4,1 6,2 1,0 3,2 3,3 1,1 2,3 2,5 0,2 -1,4 -2,5 0,1 -2,3 -3,3 -2,1 -4,2 -6,3 -2,0 -4,0 -7,0 -3,0 -6,0 -8,0 -2,-1 -4,-1 -5,-2 -2,-1 -3,-2 -4,-4 -1,-1 -1,-3 -1,-5 0,-2 0,-3 1,-5 1,-1 2,-2 4,-3 1,-1 3,-2 5,-2 2,-1 5,-1 8,-1zm0 18c2,0 4,0 6,-1 2,0 3,0 4,-1 2,0 2,-1 3,-2 1,-1 1,-2 1,-3 0,-1 0,-2 -1,-3 -1,-1 -1,-1 -3,-2 -1,-1 -2,-1 -4,-1 -2,0 -4,-1 -6,-1 -3,0 -5,1 -7,1 -1,0 -3,0 -4,1 -1,1 -2,1 -3,2 0,1 0,2 0,3 0,1 0,2 0,3 1,1 2,2 3,2 1,1 3,1 4,1 2,1 4,1 7,1z"/>
   <path fill="#00A0E3" fill-rule="nonzero" d="M106 1335l-11 4 0 13 11 4 0 4 -35 -13 0 -4 35 -12 0 4zm-15 5l-10 4c0,0 0,0 -1,0 0,0 -1,0 -1,1 -1,0 -1,0 -2,0 0,0 -1,0 -1,0 0,1 1,1 1,1 1,0 1,0 2,0 0,0 1,1 1,1 1,0 1,0 1,0l10 3 0 -10zm-2 -34c2,0 5,0 7,1 2,0 4,1 6,2 1,1 3,2 3,3 1,2 2,3 2,5 0,2 -1,4 -2,5 0,2 -2,3 -3,4 -2,1 -4,1 -6,2 -2,0 -5,0 -7,0 -3,0 -6,0 -8,0 -2,-1 -4,-1 -5,-2 -2,-1 -3,-2 -4,-4 -1,-1 -1,-3 -1,-5 0,-2 0,-3 1,-5 1,-1 2,-2 3,-3 2,-1 4,-2 6,-2 2,-1 5,-1 8,-1zm0 18c2,0 4,0 6,0 2,-1 3,-1 4,-2 1,0 2,-1 3,-2 1,0 1,-1 1,-3 0,-1 0,-2 -1,-3 -1,-1 -2,-1 -3,-2 -1,0 -2,-1 -4,-1 -2,0 -4,0 -6,0 -3,0 -5,0 -7,0 -1,0 -3,1 -4,1 -1,1 -2,1 -3,2 0,1 -1,2 -1,3 0,2 1,3 1,3 1,1 2,2 3,2 1,1 3,1 4,2 2,0 4,0 7,0z"/>
   <path fill="#00A0E3" fill-rule="nonzero" d="M106 1235l-11 4 0 13 11 4 0 4 -35 -13 0 -4 35 -12 0 4zm-15 5l-10 4c0,0 0,0 -1,0 0,0 -1,0 -1,1 -1,0 -1,0 -2,0 0,0 -1,0 -1,0 0,1 1,1 1,1 1,0 1,0 2,0 0,0 1,1 1,1 1,0 1,0 1,0l10 3 0 -10zm15 -26l0 4 -22 0c0,0 -1,0 -2,0 -1,0 -1,0 -2,0 -1,0 -2,0 -2,0 -1,0 -2,0 -2,0 0,0 0,0 1,0 0,1 0,1 0,1 0,0 1,1 1,1 0,0 0,0 0,1l3 3 -3 2 -7 -9 0 -3 35 0z"/>
   <path fill="#00A0E3" fill-rule="nonzero" d="M106 1135l-11 4 0 13 11 4 0 4 -35 -13 0 -4 35 -12 0 4zm-15 5l-10 4c0,0 0,0 -1,0 0,0 -1,0 -1,1 -1,0 -1,0 -2,0 0,0 -1,0 -1,0 0,1 1,1 1,1 1,0 1,0 2,0 0,0 1,1 1,1 1,0 1,0 1,0l10 3 0 -10zm15 -33l0 21 -4 0 -9 -8c-1,-1 -2,-2 -3,-3 -1,-1 -2,-2 -3,-2 -1,-1 -2,-2 -3,-2 -1,0 -3,-1 -4,-1 -1,0 -1,1 -2,1 -1,0 -1,1 -2,1 0,1 -1,1 -1,2 0,0 0,1 0,2 0,2 0,3 0,4 1,1 2,3 3,4l-3 2c-1,-1 -1,-1 -2,-2 0,-1 -1,-2 -1,-2 0,-1 -1,-2 -1,-3 0,-1 0,-2 0,-3 0,-1 0,-3 0,-4 1,-1 2,-2 2,-3 1,-1 2,-2 3,-2 1,-1 3,-1 4,-1 1,0 3,0 4,1 1,0 2,1 4,1 1,1 2,2 3,3 1,1 3,2 4,3l7 7 0 0 0 -16 4 0z"/>
   <path fill="#00A0E3" fill-rule="nonzero" d="M106 1035l-11 4 0 13 11 4 0 4 -35 -13 0 -4 35 -12 0 4zm-15 5l-10 4c0,0 0,0 -1,0 0,0 -1,0 -1,1 -1,0 -1,0 -2,0 0,0 -1,0 -1,0 0,1 1,1 1,1 1,0 1,0 2,0 0,0 1,1 1,1 1,0 1,0 1,0l10 3 0 -10zm-12 -32c2,0 3,0 4,0 1,1 1,1 2,2 1,1 1,1 2,2 0,1 1,2 1,3l0 0c0,-2 1,-5 3,-6 1,-1 3,-2 5,-2 2,0 3,0 4,1 2,0 3,1 4,2 1,1 1,2 2,4 0,1 1,3 1,6 0,1 -1,3 -1,4 0,2 -1,3 -1,5l-4 0c0,-2 1,-3 1,-5 1,-1 1,-3 1,-4 0,-2 0,-3 -1,-4 0,-1 0,-2 -1,-3 -1,-1 -1,-1 -2,-1 -1,-1 -2,-1 -3,-1 -1,0 -2,0 -3,1 0,0 -1,1 -2,2 0,0 0,1 -1,2 0,2 0,3 0,4l0 3 -4 0 0 -3c0,-1 0,-2 0,-3 0,-1 -1,-2 -2,-3 0,0 -1,-1 -2,-1 0,-1 -1,-1 -2,-1 -1,0 -2,0 -2,1 -1,0 -2,0 -2,1 -1,0 -1,1 -1,2 0,0 0,1 0,2 0,2 0,3 0,5 1,1 2,2 2,3l-3 3c0,-1 -1,-2 -1,-2 0,-1 -1,-2 -1,-3 0,-1 -1,-2 -1,-3 0,-1 0,-2 0,-3 0,-1 0,-3 0,-4 1,-2 2,-3 2,-4 1,0 2,-1 3,-1 1,-1 2,-1 3,-1z"/>
   <path fill="#00A0E3" fill-rule="nonzero" d="M106 935l-11 4 0 13 11 4 0 4 -35 -13 0 -4 35 -12 0 4zm-15 5l-10 4c0,0 0,0 -1,0 0,0 -1,0 -1,1 -1,0 -1,0 -2,0 0,0 -1,0 -1,0 0,1 1,1 1,1 1,0 1,0 2,0 0,0 1,1 1,1 1,0 1,0 1,0l10 3 0 -10zm7 -35l0 5 8 0 0 4 -8 0 0 16 -4 0 -23 -16 0 -4 23 0 0 -5 4 0zm-4 9l-8 0c-1,0 -2,0 -3,0 -1,0 -2,0 -3,0 -1,0 -2,0 -2,0 -1,0 -2,0 -2,0l0 0c0,0 0,0 1,0 0,1 0,1 1,1 0,0 1,0 1,1 0,0 1,0 1,0l14 10 0 -12z"/>
   <path fill="#00A0E3" fill-rule="nonzero" d="M106 835l-11 4 0 13 11 4 0 4 -35 -13 0 -4 35 -12 0 4zm-15 5l-10 4c0,0 0,0 -1,0 0,0 -1,0 -1,1 -1,0 -1,0 -2,0 0,0 -1,0 -1,0 0,1 1,1 1,1 1,0 1,0 2,0 0,0 1,1 1,1 1,0 1,0 1,0l10 3 0 -10zm-6 -22c0,-2 0,-3 0,-5 1,-1 1,-2 2,-3 1,-1 2,-2 4,-3 1,0 2,0 4,0 2,0 3,0 5,0 1,1 2,2 3,3 1,1 2,2 3,4 0,1 1,3 1,5 0,1 -1,2 -1,2 0,1 0,2 0,3 0,0 0,1 -1,2 0,0 0,1 0,2l-4 0c0,-1 0,-2 1,-2 0,-1 0,-2 0,-3 0,0 1,-1 1,-2 0,-1 0,-1 0,-2 0,-1 0,-2 -1,-3 0,-1 0,-2 -1,-3 -1,-1 -1,-1 -2,-1 -1,-1 -2,-1 -4,-1 -2,0 -4,1 -5,2 -1,1 -2,4 -2,6 0,1 0,1 0,2 1,0 1,1 1,1 0,1 0,1 0,1 0,1 0,1 0,2l-1 2 -17 -1 0 -17 4 0 0 13 10 1c0,-1 0,-1 0,-2 0,-1 0,-2 0,-3z"/>
   <path fill="#00A0E3" fill-rule="nonzero" d="M88 753c3,0 5,1 8,1 2,1 4,2 5,4 2,1 3,3 3,5 1,2 2,4 2,7l0 9 -35 0 0 -10c0,-2 0,-4 1,-6 1,-2 2,-4 3,-5 2,-2 3,-3 6,-4 2,0 4,-1 7,-1zm0 5c-2,0 -4,0 -6,1 -2,0 -3,1 -4,2 -1,1 -2,2 -3,4 0,1 0,3 0,5l0 4 27 0 0 -3c0,-5 -1,-8 -4,-10 -2,-2 -5,-3 -10,-3zm18 -33l-11 4 0 13 11 4 0 4 -35 -12 0 -4 35 -13 0 4zm-15 5l-10 4c0,0 -1,0 -1,0 -1,0 -1,1 -2,1 0,0 -1,0 -1,0 -1,0 -1,0 -2,1 1,0 1,0 2,0 0,0 1,0 1,0 1,1 1,1 2,1 0,0 1,0 1,0l10 4 0 -11zm-17 -28c0,2 1,3 1,5 1,1 2,2 3,3 1,1 3,2 4,2 2,1 4,1 6,1 2,0 4,0 6,-1 2,0 3,-1 5,-2 1,-1 2,-2 2,-3 1,-2 1,-3 1,-5 0,-1 0,-3 0,-4 -1,-1 -1,-3 -1,-4l4 0c0,1 0,1 0,2 0,1 1,1 1,2 0,1 0,1 0,2 0,1 0,2 0,3 0,2 0,5 -1,6 -1,2 -2,4 -4,5 -1,1 -3,2 -6,3 -2,1 -4,1 -7,1 -2,0 -5,-1 -7,-1 -2,-1 -4,-2 -6,-3 -1,-2 -2,-3 -3,-5 -1,-2 -2,-4 -2,-7 0,-2 1,-3 1,-5 0,-1 1,-3 1,-4l4 2c0,1 -1,2 -1,3 -1,1 -1,2 -1,4z"/>
   <path fill="#00A0E3" fill-rule="nonzero" d="M71 654l0 -4 21 -6c1,0 1,0 2,0 1,-1 2,-1 3,-1 1,0 1,0 2,-1 1,0 2,0 2,0 0,0 -1,0 -2,0 0,0 -1,0 -2,-1 -1,0 -2,0 -2,0 -1,0 -2,0 -3,0l-21 -5 0 -5 35 9 0 4 -22 6c-1,1 -2,1 -3,1 -1,0 -1,0 -2,1 -1,0 -2,0 -3,0 1,0 2,0 3,1 1,0 1,0 2,0 1,0 2,1 3,1l22 6 0 4 -35 9 0 -5 21 -5c1,0 2,0 3,0 0,-1 1,-1 2,-1 1,0 2,0 2,0 1,0 2,0 2,0 0,-1 -1,-1 -2,-1 -1,0 -1,0 -2,0 -1,0 -2,0 -3,-1 -1,0 -2,0 -2,0l-21 -6zm35 -52l0 5 -17 11 3 4 14 0 0 4 -35 0 0 -4 18 0 -4 -3 -14 -11 0 -5 15 12 20 -13zm-25 -25c2,0 3,0 5,1 1,0 2,1 3,2 1,1 2,2 3,4 0,1 1,3 1,6l0 3 13 0 0 5 -35 0 0 -9c0,-2 1,-4 1,-5 0,-2 1,-3 2,-4 1,-1 2,-2 3,-2 1,-1 3,-1 4,-1zm8 16l0 -3c0,-1 0,-2 -1,-3 0,-2 0,-2 -1,-3 0,-1 -1,-1 -2,-2 -1,0 -2,0 -3,0 -3,0 -4,0 -5,2 -1,1 -2,3 -2,6l0 3 14 0z"/>
   <path fill="#00A0E3" fill-rule="nonzero" d="M92 551l14 0 0 4 -35 0 0 -8c0,-4 1,-7 3,-9 1,-2 4,-3 7,-3 2,0 3,0 4,0 1,1 2,1 2,2 1,0 2,1 2,2 1,1 1,2 1,2l16 -9 0 5 -14 9 0 5zm-4 0l0 -4c0,-1 0,-2 0,-3 -1,-1 -1,-2 -2,-3 0,-1 -1,-1 -2,-1 -1,-1 -2,-1 -3,-1 -1,0 -2,0 -3,1 0,0 -1,1 -1,1 -1,1 -1,2 -2,3 0,1 0,2 0,3l0 4 13 0zm18 -46l0 5 -15 8 15 9 0 4 -18 -10 -17 10 0 -5 14 -8 -14 -8 0 -4 17 10 18 -11z"/>
   <path fill="#00A0E3" fill-rule="nonzero" d="M106 443l0 5 -31 0 0 10 -4 0 0 -25 4 0 0 10 31 0zm0 -37l0 5 -15 9 15 8 0 5 -18 -11 -17 10 0 -5 14 -8 -14 -8 0 -4 17 10 18 -11z"/>
   <path fill="#00A0E3" fill-rule="nonzero" d="M88 366l0 -11 17 0c0,0 0,1 1,2 0,1 0,2 0,3 0,1 0,2 0,3 1,1 1,2 1,3 0,3 -1,5 -2,7 0,2 -2,3 -3,5 -2,1 -4,2 -6,3 -2,0 -5,1 -7,1 -3,0 -5,-1 -8,-2 -2,0 -4,-1 -5,-3 -2,-1 -3,-3 -4,-5 -1,-2 -1,-5 -1,-7 0,-2 0,-4 0,-5 1,-2 1,-4 2,-5l4 2c0,0 -1,1 -1,2 0,0 0,1 -1,2 0,0 0,1 0,2 0,1 0,1 0,2 0,2 0,4 1,5 0,2 1,3 3,4 1,1 2,2 4,2 2,1 4,1 6,1 2,0 4,0 5,-1 2,0 4,-1 5,-2 1,-1 2,-2 3,-3 0,-2 1,-4 1,-6 0,-1 0,-1 0,-2 0,0 0,-1 -1,-1 0,-1 0,-1 0,-2 0,0 0,-1 0,-1l-10 0 0 7 -4 0zm18 -46l0 6 -29 16 0 0c2,0 3,0 4,0 1,0 2,0 3,0 1,0 2,0 3,0l19 0 0 4 -35 0 0 -5 29 -16 0 -1c-1,0 -2,0 -4,1 0,0 -1,0 -1,0 -1,0 -1,0 -2,0 0,0 -1,0 -1,0 -1,0 -1,0 -2,0l-19 0 0 -5 35 0zm-18 -35c3,0 6,1 8,1 2,1 4,2 6,4 1,1 2,3 3,5 1,2 1,5 1,7l0 9 -35 0 0 -10c0,-2 1,-4 1,-6 1,-2 2,-4 4,-5 1,-2 3,-3 5,-4 2,0 5,-1 7,-1zm1 5c-3,0 -5,0 -6,1 -2,0 -3,1 -5,2 -1,1 -1,2 -2,4 -1,1 -1,3 -1,5l0 4 27 0 0 -3c0,-5 -1,-8 -3,-10 -2,-2 -6,-3 -10,-3z"/>
   <path fill="#00A0E3" fill-rule="nonzero" d="M71 244l0 -5 35 12 0 4 -35 12 0 -5 22 -7c2,0 3,-1 4,-1 2,0 3,-1 4,-1 -1,0 -2,0 -4,-1 -1,0 -2,0 -4,-1l-22 -7zm35 -19l0 12 -3 0 -1 -4 -27 0 -1 4 -3 0 0 -12 3 0 1 4 27 0 1 -4 3 0zm0 -33l0 6 -29 16 0 0c1,0 3,0 4,0 1,0 2,0 3,0 1,0 2,0 3,0l19 0 0 4 -35 0 0 -5 29 -17 0 0c-1,0 -3,0 -4,0 0,0 -1,0 -1,1 -1,0 -1,0 -2,0 0,0 -1,0 -1,0 -1,0 -1,0 -2,0l-19 0 0 -5 35 0z"/>
  </g>
  <g id="BUTTON_0">
   <polygon fill="#CCCCCC" points="508,461 508,483 473,483 473,461 "/>
   <polygon fill="#E5E5E5" points="508,481 508,483 473,483 473,481 "/>
   <polygon fill="#CCCCCC" points="508,522 508,545 473,545 473,522 "/>
   <polygon fill="#E5E5E5" points="508,542 508,545 473,545 473,542 "/>
   <polygon fill="#CCCCCC" points="634,522 634,545 599,545 599,522 "/>
   <polygon fill="#E5E5E5" points="634,542 634,545 599,545 599,542 "/>
   <polygon fill="#CCCCCC" points="634,461 634,483 599,483 599,461 "/>
   <polygon fill="#E5E5E5" points="634,481 634,483 599,483 599,481 "/>
   <polygon fill="#999999" points="624,444 624,562 484,562 484,444 "/>
   <polygon fill="#B2B2B2" points="624,562 622,562 622,444 624,444 "/>
   <polygon fill="#8C8C8C" points="486,562 484,562 484,444 486,444 "/>
   <path fill="black" d="M554 469c19,0 35,15 35,34 0,19 -16,35 -35,35 -19,0 -35,-16 -35,-35 0,-19 16,-34 35,-34z"/>
   <g>
    <path fill="#404040" d="M552 472c18,0 32,14 32,32 0,17 -14,31 -32,31 -17,0 -31,-14 -31,-31 0,-18 14,-32 31,-32z"/>
    <path fill="#999999" d="M552 472c18,0 32,14 32,32 0,17 -14,31 -32,31 41,-6 41,-58 0,-63l0 0z"/>
   </g>
  </g>
  <g id="SMPS">
   <polygon fill="#CCCCCC" points="166,370 166,393 131,393 131,370 "/>
   <polygon fill="#E5E5E5" points="166,390 166,393 131,393 131,390 "/>
   <polygon fill="#CCCCCC" points="166,295 166,318 131,318 131,295 "/>
   <polygon fill="#E5E5E5" points="166,316 166,318 131,318 131,316 "/>
   <polygon fill="#CCCCCC" points="250,296 250,318 215,318 215,296 "/>
   <polygon fill="#E5E5E5" points="250,316 250,318 215,318 215,316 "/>
   <polygon fill="#CCCCCC" points="250,333 250,355 215,355 215,333 "/>
   <polygon fill="#E5E5E5" points="250,353 250,355 215,355 215,353 "/>
   <polygon fill="#CCCCCC" points="250,370 250,393 215,393 215,370 "/>
   <polygon fill="#E5E5E5" points="250,390 250,393 215,393 215,390 "/>
   <polygon fill="#666666" points="155,285 225,285 225,402 155,402 "/>
  </g>
  <g id="P0_x0020_MODULE">
   <polygon fill="#006900" points="161,712 593,712 593,1184 161,1184 "/>
   <polygon fill="#CCCCCC" points="168,1121 213,1121 213,1176 168,1176 "/>
   <polygon fill="#B2B2B2" points="168,723 213,723 213,790 168,790 "/>
   <polygon fill="#B2B2B2" points="526,723 587,723 587,765 526,765 "/>
   <polygon fill="#CCCCCC" points="536,1133 587,1133 587,1176 536,1176 "/>
   <polygon fill="#CCCCCC" points="396,1133 497,1133 497,1176 396,1176 "/>
   <polygon fill="#B2B2B2" points="454,723 502,723 502,765 454,765 "/>
   <polygon fill="#B2B2B2" points="355,723 397,723 397,765 355,765 "/>
   <polygon fill="#9A916C" points="265,1137 325,1137 325,1168 265,1168 "/>
   <polygon fill="#CC9933" points="250,726 324,726 324,761 250,761 "/>
   <polygon fill="#CC9933" points="583,1125 558,1125 558,1081 583,1081 "/>
   <polygon fill="#B2B2B2" points="175,731 580,731 580,1165 175,1165 "/>
   <path fill="#CCCCCC" d="M175 844l0 -113 405 0 0 345c-77,-202 -304,-26 -405,-232z"/>
   <g id="MARKINGS">
    <path fill="#666666" fill-rule="nonzero" d="M410 1021c1,0 2,0 3,0 0,1 1,1 2,1 0,1 1,1 1,2 0,1 1,1 1,2 0,1 -1,1 -1,2 0,0 0,1 -1,1 0,1 0,1 -1,1 0,1 -1,1 -2,1 1,1 2,1 2,1 1,1 1,1 2,2 0,0 1,1 1,1 0,1 0,1 0,2 0,1 0,2 0,2 -1,1 -1,2 -2,2 0,1 -1,1 -2,1 -1,1 -2,1 -3,1 -1,0 -2,0 -3,-1 -1,0 -2,0 -2,-1 -1,0 -1,-1 -2,-2 0,0 0,-1 0,-2 0,-1 0,-1 0,-2 0,0 1,-1 1,-1 0,-1 1,-1 1,-2 1,0 2,0 2,-1 0,0 -1,0 -1,-1 -1,0 -1,0 -1,-1 -1,0 -1,-1 -1,-1 0,-1 -1,-1 -1,-2 0,-1 1,-1 1,-2 0,-1 1,-1 1,-2 1,0 2,0 3,-1 0,0 1,0 2,0zm-4 16c0,1 0,1 0,2 0,0 0,0 1,1 0,0 0,0 1,0 1,0 1,1 2,1 1,0 1,-1 2,-1 0,0 1,0 1,0 1,-1 1,-1 1,-2 0,0 0,0 0,-1 0,-1 0,-1 0,-1 0,-1 0,-1 -1,-1 0,-1 -1,-1 -1,-1 -1,-1 -1,-1 -2,-1l0 -1c-2,1 -3,2 -3,2 -1,1 -1,2 -1,3zm4 -14c-1,0 -2,1 -3,1 0,1 -1,1 -1,2 0,1 0,1 1,2 0,0 0,0 0,1 1,0 1,0 2,1 0,0 0,0 1,0 1,0 1,0 1,0 1,-1 1,-1 2,-1 0,-1 0,-1 0,-1 1,-1 1,-1 1,-2 0,-1 -1,-1 -1,-2 -1,0 -2,-1 -3,-1zm18 7c1,0 2,0 3,0 0,0 1,1 2,1 1,1 1,1 1,2 1,1 1,2 1,3 0,1 0,2 -1,3 0,1 0,1 -1,2 -1,1 -2,1 -3,1 -1,1 -2,1 -3,1 -1,0 -1,0 -2,0 0,0 -1,0 -1,-1 -1,0 -1,0 -2,0 0,0 -1,0 -1,0l0 -3c0,0 1,1 1,1 1,0 1,0 2,0 0,0 1,0 1,0 1,1 1,1 2,1 1,0 1,-1 2,-1 1,0 1,0 2,-1 0,0 0,0 1,-1 0,-1 0,-1 0,-2 0,-1 0,-2 -1,-3 -1,-1 -3,-1 -4,-1 -1,0 -1,0 -1,0 -1,0 -1,0 -1,0 -1,0 -1,0 -1,0 -1,0 -1,0 -1,0l-2 -1 1 -10 11 0 0 3 -8 0 -1 6c1,0 1,0 2,0 0,0 1,0 2,0zm25 2c0,2 0,3 0,5 0,1 -1,2 -2,3 0,1 -1,2 -2,2 -1,1 -2,1 -3,1 -1,0 -3,0 -3,-1 -1,0 -2,-1 -3,-2 0,-1 -1,-2 -1,-3 0,-2 -1,-3 -1,-5 0,-2 1,-3 1,-5 0,-1 0,-2 1,-3 1,-1 1,-2 2,-2 1,-1 2,-1 4,-1 1,0 2,0 3,1 1,0 2,1 2,2 1,1 1,2 2,3 0,2 0,3 0,5zm-12 0c0,1 0,3 1,4 0,1 0,2 0,2 1,1 1,2 2,2 0,0 1,1 2,1 1,0 1,-1 2,-1 0,0 1,-1 1,-2 1,0 1,-1 1,-2 0,-1 0,-3 0,-4 0,-1 0,-3 0,-4 0,-1 0,-2 -1,-3 0,0 -1,-1 -1,-1 -1,0 -1,-1 -2,-1 -1,0 -2,1 -2,1 -1,0 -1,1 -2,1 0,1 0,2 0,3 -1,1 -1,3 -1,4zm25 10l-3 0 0 -13c0,0 0,-1 0,-1 0,0 0,-1 0,-1 0,-1 0,-1 0,-2 0,0 0,-1 0,-1 0,0 0,0 0,1 0,0 0,0 -1,0 0,0 0,0 0,0 0,0 0,1 -1,1l-2 2 -1 -2 6 -5 2 0 0 21zm23 -10c0,2 0,3 0,5 -1,1 -1,2 -2,3 0,1 -1,2 -2,2 -1,1 -2,1 -3,1 -2,0 -3,0 -4,-1 -1,0 -1,-1 -2,-2 -1,-1 -1,-2 -1,-3 -1,-2 -1,-3 -1,-5 0,-2 0,-3 1,-5 0,-1 0,-2 1,-3 0,-1 1,-2 2,-2 1,-1 2,-1 4,-1 1,0 2,0 3,1 1,0 2,1 2,2 1,1 1,2 2,3 0,2 0,3 0,5zm-12 0c0,1 0,3 0,4 1,1 1,2 1,2 0,1 1,2 1,2 1,0 2,1 3,1 0,0 1,-1 2,-1 0,0 1,-1 1,-2 0,0 1,-1 1,-2 0,-1 0,-3 0,-4 0,-1 0,-3 0,-4 0,-1 -1,-2 -1,-3 0,0 -1,-1 -1,-1 -1,0 -2,-1 -2,-1 -1,0 -2,1 -3,1 0,0 -1,1 -1,1 0,1 0,2 -1,3 0,1 0,3 0,4zm31 6l-4 0 0 4 -2 0 0 -4 -11 0 0 -3 10 -14 3 0 0 14 4 0 0 3zm-6 -3l0 -5c0,0 0,-1 0,-1 0,-1 0,-2 0,-2 0,-1 0,-1 0,-2 0,0 0,-1 0,-1l0 0c0,0 -1,0 -1,1 0,0 0,0 0,0 0,1 0,1 0,1 -1,0 -1,0 -1,1l-6 8 8 0zm-98 21l7 0c1,0 2,0 3,0 1,0 2,0 3,1 0,0 1,1 1,2 1,0 1,1 1,2 0,1 0,1 -1,2 0,0 0,1 0,1 -1,0 -1,1 -2,1 0,0 -1,1 -2,1l0 0c1,0 2,0 2,0 1,0 1,1 2,1 0,1 1,1 1,2 0,0 0,1 0,2 0,1 0,1 0,2 0,1 -1,2 -2,2 0,1 -1,1 -2,1 -1,1 -2,1 -3,1l-8 0 0 -21zm3 9l4 0c1,0 2,0 2,-1 1,0 1,0 2,0 0,0 0,-1 1,-1 0,-1 0,-1 0,-2 0,-1 -1,-2 -1,-2 -1,-1 -3,-1 -4,-1l-4 0 0 7zm0 2l0 7 4 0c1,0 2,0 3,0 0,0 1,0 1,-1 1,0 1,0 1,-1 0,0 0,-1 0,-1 0,-1 0,-1 0,-2 0,0 0,-1 -1,-1 0,0 -1,-1 -1,-1 -1,0 -2,0 -3,0l-4 0zm27 10l-7 -19 0 0c0,1 0,2 0,2 0,1 0,2 0,2 0,1 0,2 0,2l0 13 -3 0 0 -21 5 0 6 17 0 0 7 -17 4 0 0 21 -3 0 0 -13c0,-1 0,-1 0,-2 0,0 0,-1 0,-2 1,0 1,-1 1,-2l-1 0 -7 19 -2 0zm17 -7l0 -2 8 0 0 2 -8 0zm25 -4c0,2 0,3 0,5 0,1 -1,2 -1,3 -1,1 -2,2 -3,2 -1,1 -2,1 -3,1 -1,0 -2,0 -3,-1 -1,0 -2,-1 -3,-2 0,-1 -1,-2 -1,-3 0,-2 0,-3 0,-5 0,-1 0,-3 0,-4 0,-2 1,-3 1,-4 1,-1 2,-1 2,-2 1,0 3,-1 4,-1 1,0 2,1 3,1 1,1 2,1 2,2 1,1 2,2 2,4 0,1 0,3 0,4zm-12 0c0,2 1,3 1,4 0,1 0,2 0,3 1,0 1,1 2,1 0,1 1,1 2,1 1,0 1,0 2,-1 1,0 1,-1 1,-1 1,-1 1,-2 1,-3 0,-1 0,-2 0,-4 0,-1 0,-2 0,-4 0,-1 0,-2 -1,-2 0,-1 0,-1 -1,-2 -1,0 -1,0 -2,0 -1,0 -2,0 -2,0 -1,1 -1,1 -2,2 0,0 0,1 0,2 0,2 -1,3 -1,4zm30 -1c0,1 0,2 0,3 0,1 0,2 -1,3 0,0 0,1 -1,2 0,1 -1,2 -2,2 0,1 -1,1 -2,2 -1,0 -3,0 -4,0 0,0 0,0 -1,0 0,0 0,0 0,0 -1,0 -1,0 -1,0 0,0 -1,0 -1,0l0 -2c1,0 1,0 2,0 0,0 0,0 1,0 1,0 3,0 3,-1 1,0 2,-1 3,-2 0,0 1,-1 1,-2 0,-1 0,-2 0,-4l0 0c0,1 0,1 -1,1 0,1 0,1 -1,1 0,0 -1,1 -1,1 -1,0 -1,0 -2,0 -1,0 -2,0 -3,-1 0,0 -1,0 -2,-1 0,0 -1,-1 -1,-2 0,-1 0,-1 0,-3 0,-1 0,-2 0,-2 0,-1 1,-2 1,-3 1,0 2,-1 3,-1 1,0 2,-1 3,-1 1,0 2,1 3,1 0,0 1,1 2,2 1,0 1,1 2,3 0,1 0,2 0,4zm-7 -7c-1,0 -2,0 -2,0 -1,0 -1,0 -1,1 -1,0 -1,1 -1,1 -1,1 -1,2 -1,3 0,0 0,1 1,1 0,1 0,1 0,2 1,0 1,0 2,1 0,0 1,0 2,0 0,0 1,0 1,-1 1,0 2,0 2,0 0,-1 1,-1 1,-2 0,0 0,-1 0,-1 0,-1 0,-1 0,-2 0,-1 -1,-1 -1,-2 0,0 -1,-1 -1,-1 -1,0 -2,0 -2,0zm10 12l0 -2 8 0 0 2 -8 0zm25 1c0,1 -1,2 -1,3 0,0 -1,1 -2,1 0,1 -1,1 -2,2 -1,0 -2,0 -3,0 -1,0 -3,0 -4,0 -1,0 -1,-1 -2,-1l0 -3c0,1 1,1 1,1 1,0 1,0 2,0 0,0 1,1 1,1 1,0 1,0 2,0 1,0 3,-1 3,-1 1,-1 2,-2 2,-3 0,0 0,-1 -1,-1 0,0 0,-1 0,-1 -1,0 -1,-1 -2,-1 -1,0 -1,-1 -2,-1 -1,0 -2,-1 -3,-1 -1,0 -1,-1 -2,-1 0,-1 0,-1 -1,-2 0,-1 0,-1 0,-2 0,-1 0,-2 1,-2 0,-1 0,-2 1,-2 1,-1 1,-1 2,-1 1,0 2,-1 3,-1 1,0 2,1 3,1 1,0 2,0 3,1l-1 2c-1,0 -1,-1 -2,-1 -1,0 -2,0 -3,0 -1,0 -2,0 -3,1 -1,0 -1,1 -1,2 0,0 0,1 0,1 0,1 1,1 1,1 0,1 1,1 2,1 0,0 1,1 2,1 1,0 2,1 2,1 1,1 2,1 2,1 1,1 1,1 1,2 0,1 1,1 1,2zm-112 27c1,0 2,0 3,1 1,0 1,0 2,1 1,0 1,1 2,2 0,0 0,1 0,2 0,1 0,2 0,3 -1,1 -1,2 -2,2 -1,1 -2,1 -3,2 -1,0 -2,0 -3,0 -1,0 -1,0 -2,0 0,0 -1,0 -1,0 -1,0 -1,0 -2,0 0,0 -1,-1 -1,-1l0 -2c0,0 1,0 1,0 1,0 1,1 2,1 0,0 1,0 1,0 1,0 1,0 2,0 1,0 1,0 2,0 1,0 1,-1 2,-1 0,0 1,-1 1,-1 0,-1 0,-2 0,-2 0,-2 0,-3 -1,-4 -1,0 -3,-1 -4,-1 -1,0 -1,0 -1,0 -1,0 -1,0 -1,0 -1,0 -1,1 -1,1 0,0 -1,0 -1,0l-1 -1 0 -10 11 0 0 2 -8 0 -1 6c1,0 1,0 2,0 0,0 1,0 2,0zm13 13l9 -19 -12 0 0 -2 15 0 0 2 -9 19 -3 0zm29 -16c0,1 0,1 0,2 -1,0 -1,1 -1,1 -1,1 -1,1 -2,1 -1,1 -1,1 -2,1l0 0c2,0 3,1 4,2 1,1 2,2 2,3 0,1 0,2 -1,3 0,0 -1,1 -1,2 -1,0 -2,1 -3,1 -1,0 -2,0 -4,0 -1,0 -2,0 -3,0 -1,0 -2,0 -3,-1l0 -2c1,0 2,0 3,1 1,0 2,0 3,0 1,0 2,0 3,0 0,0 1,-1 2,-1 0,0 0,-1 1,-1 0,-1 0,-1 0,-2 0,-1 0,-1 -1,-2 0,0 0,-1 -1,-1 0,0 -1,0 -2,-1 0,0 -1,0 -2,0l-2 0 0 -2 2 0c1,0 1,0 2,0 1,0 1,-1 2,-1 0,0 1,-1 1,-1 0,-1 0,-1 0,-2 0,0 0,-1 0,-1 0,-1 -1,-1 -1,-1 0,-1 -1,-1 -1,-1 -1,0 -1,0 -2,0 -1,0 -2,0 -3,0 -1,1 -2,1 -2,2l-2 -2c1,0 1,-1 2,-1 0,0 1,0 1,-1 1,0 1,0 2,0 1,0 1,0 2,0 1,0 2,0 3,0 1,0 2,1 2,1 1,1 1,1 2,2 0,0 0,1 0,2z"/>
    <g id="SPARK_x0020_LOGO_1">
     <polygon fill="#666666" points="429,898 400,853 427,810 384,837 339,810 368,853 340,896 384,869 "/>
     <polygon fill="#666666" points="391,882 384,877 377,882 384,915 "/>
     <polygon fill="#666666" points="359,853 355,859 322,853 355,846 359,852 "/>
     <polygon fill="#666666" points="412,860 408,853 413,845 445,853 "/>
     <polygon fill="#666666" points="391,824 384,792 377,824 384,828 "/>
     <polygon fill="#666666" points="429,898 400,853 427,810 427,810 398,853 "/>
    </g>
    <path fill="#666666" fill-rule="nonzero" d="M381 933c0,2 0,3 -1,4 0,1 -1,2 -2,3 -1,1 -2,1 -3,2 -2,0 -4,0 -6,0l-4 0 0 12 -4 0 0 -29 8 0c2,0 4,0 6,1 1,0 2,1 3,1 1,1 2,2 2,3 1,1 1,2 1,3zm-16 6l3 0c2,0 3,0 4,0 1,0 2,0 2,-1 1,0 2,-1 2,-2 0,0 1,-1 1,-2 0,-2 -1,-4 -2,-5 -2,0 -4,-1 -6,-1l-4 0 0 11zm42 0c0,3 0,5 0,6 -1,2 -1,4 -2,5 -1,1 -2,2 -4,3 -1,1 -3,1 -5,1 -1,0 -3,0 -4,-1 -2,-1 -3,-2 -4,-3 0,-1 -1,-3 -2,-5 0,-1 0,-3 0,-6 0,-2 0,-4 0,-6 1,-2 1,-3 2,-5 1,-1 2,-2 4,-2 1,-1 3,-1 4,-1 2,0 4,0 5,1 2,0 3,1 4,2 0,2 1,3 2,5 0,2 0,4 0,6zm-17 0c0,2 0,4 0,5 1,2 1,3 1,4 1,1 2,2 2,2 1,1 2,1 3,1 2,0 3,0 3,-1 1,0 2,-1 2,-2 1,-1 1,-2 2,-4 0,-1 0,-3 0,-5 0,-2 0,-3 0,-5 -1,-1 -1,-3 -2,-3 0,-1 -1,-2 -2,-3 0,0 -1,0 -3,0 -1,0 -2,0 -3,0 0,1 -1,2 -2,3 0,0 0,2 -1,3 0,2 0,3 0,5z"/>
    <path id="QRCODE" fill="#666666" d="M238 1109l0 -7 0 -8 0 -7 0 -8 0 -7 0 -8 0 -8 0 -7 0 -8 0 -7 0 -8 0 -7 0 -8 0 -7 0 -8 0 -8 0 -7 0 -8 7 0 0 8 8 0 0 -8 7 0 0 8 8 0 0 -8 8 0 0 8 0 7 7 0 8 0 7 0 8 0 0 -7 -8 0 0 -8 8 0 0 8 7 0 0 -8 8 0 0 8 -8 0 0 7 8 0 0 8 7 0 0 -8 8 0 0 -7 -8 0 0 -8 8 0 0 8 8 0 0 -8 7 0 0 8 -7 0 0 7 7 0 0 8 0 8 0 7 0 8 0 7 -7 0 0 8 0 7 7 0 0 8 0 7 0 8 0 8 0 7 -7 0 0 8 7 0 0 7 -7 0 0 -7 -8 0 -8 0 0 7 -7 0 0 -7 -8 0 0 -8 -7 0 0 -7 -8 0 0 7 -7 0 0 8 7 0 0 7 8 0 0 8 0 0 7 0 8 0 7 0 8 0 8 0 7 0 0 -8 0 -7 0 -8 8 0 0 -7 7 0 8 0 0 7 -8 0 0 0 -7 0 0 8 0 7 0 8 0 0 7 0 8 0 0 7 -8 0 -7 0 -8 0 -7 0 -8 0 -8 0 -7 0 -8 0 -7 0 -8 0 -7 0 -8 0 -7 0 -8 0 -8 0 -7 0 -8 0 -7 0zm136 -121l-8 0 0 8 0 0 8 0 0 8 -8 0 0 7 0 0 8 0 0 8 -8 0 0 7 8 0 0 8 -8 0 0 -8 -7 0 0 8 -8 0 0 -8 0 -7 0 -8 8 0 0 -7 -8 0 0 -8 0 -8 0 -7 8 0 0 -8 7 0 0 8 8 0 0 7zm-8 0l0 -7 -7 0 0 7 7 0zm8 61l-8 0 0 7 8 0 0 8 -8 0 0 -8 -7 0 0 8 -8 0 0 -8 0 -7 8 0 7 0 0 -8 8 0 0 8zm0 45l-8 0 0 -7 8 0 0 7zm-30 -98l-8 0 0 8 0 7 -8 0 0 -7 -7 0 0 0 0 7 -8 0 0 -7 0 -8 0 -8 -7 0 0 8 -8 0 0 8 0 7 -7 0 -8 0 0 8 -7 0 0 -8 0 -7 7 0 0 -8 -7 0 -8 0 0 8 -8 0 0 7 -7 0 0 8 -8 0 0 7 8 0 0 -7 7 0 0 0 8 0 0 7 0 8 -8 0 0 7 -7 0 0 8 7 0 8 0 0 -8 8 0 0 8 -8 0 0 7 0 8 8 0 0 -8 7 0 8 0 0 -7 7 0 8 0 0 7 -8 0 0 8 8 0 7 0 8 0 0 8 -8 0 0 7 8 0 7 0 8 0 8 0 0 -7 -8 0 -8 0 0 -8 8 0 8 0 0 -8 0 -7 -8 0 -8 0 0 7 -7 0 0 0 -8 0 0 -7 0 -8 8 0 0 8 7 0 0 -8 -7 0 0 -7 -8 0 -7 0 0 7 -8 0 0 -7 8 0 0 -8 7 0 0 -7 8 0 0 7 0 8 7 0 0 -8 0 -7 8 0 8 0 0 -8 0 -7 0 -8zm-8 45l0 -7 -8 0 0 7 8 0zm-38 53l-7 0 0 8 7 0 0 -8zm-7 -22l-8 0 0 7 8 0 0 -7zm-8 -91l0 -8 8 0 0 8 -8 0zm0 53l0 -8 8 0 0 8 -8 0zm-7 53l-8 0 0 7 8 0 0 -7zm-8 -99l-8 0 0 -7 -7 0 0 7 -8 0 0 8 0 8 0 7 8 0 0 -7 0 -8 7 0 8 0 0 -8zm0 84l-8 0 0 -8 -7 0 0 -8 0 -7 -8 0 0 7 0 8 0 8 8 0 0 7 0 8 -8 0 0 7 0 8 8 0 7 0 0 -8 0 -7 8 0 0 -8 0 -7zm-8 -46l-7 0 0 8 7 0 0 -8zm-7 8l-8 0 0 7 8 0 0 -7z"/>
    <g id="USI_x0020_LOGO">
     <path fill="#666666" d="M401 964l44 0 22 31 52 0 0 6 -55 0 -22 -32 -37 0 -4 -5zm19 15l16 0 11 16 -16 0 -11 -16zm39 22l-31 0 -20 -28 31 0 20 28zm60 4l0 6 -83 0 -5 -6 88 0z"/>
     <path fill="#666666" fill-rule="nonzero" d="M466 963l5 0 0 15c0,2 0,4 0,5 1,1 1,2 2,2 1,1 2,1 3,1 1,0 2,0 3,-1 1,0 1,-1 1,-2 1,-1 1,-2 1,-5l0 -15 5 0 0 15c0,3 -1,5 -1,7 0,1 -1,2 -1,3 -1,1 -2,2 -3,2 -1,1 -3,1 -5,1 -2,0 -4,0 -5,-1 -1,0 -2,-1 -3,-2 -1,-1 -1,-2 -1,-3 -1,-2 -1,-4 -1,-7l0 -15zm25 19l5 0c0,2 0,2 0,2 0,2 2,3 4,3 1,0 2,-1 3,-2 1,0 1,-1 1,-2 0,-1 0,-1 0,-2 0,0 -1,-1 -2,-1 0,0 -2,-1 -4,-1 -2,-1 -4,-2 -5,-3 -2,-2 -3,-3 -3,-6 0,-1 1,-2 1,-4 1,-1 2,-2 4,-2 1,-1 2,-1 4,-1 3,0 6,0 7,2 2,2 3,3 3,6l-6 0c0,-1 0,-2 -1,-3 0,0 -1,-1 -3,-1 -1,0 -2,1 -3,1 -1,1 -1,1 -1,2 0,1 0,1 1,2 0,0 2,1 4,2 3,0 5,1 6,2 1,0 2,1 2,2 1,2 1,3 1,5 0,1 0,3 -1,4 -1,2 -2,3 -3,3 -2,1 -3,1 -5,1 -4,0 -6,-1 -8,-2 -2,-2 -1,-4 -1,-7zm22 9l0 -28 5 0 0 28 -5 0z"/>
     <path fill="#666666" d="M526 963c1,0 2,0 3,1 0,0 1,1 1,2 1,0 1,1 1,2 0,1 0,1 -1,2 0,1 -1,1 -1,2 -1,0 -2,0 -3,0 0,0 -1,0 -2,0 -1,-1 -1,-1 -2,-2 0,-1 0,-1 0,-2 0,-1 0,-2 0,-2 1,-1 1,-2 2,-2 1,-1 2,-1 2,-1zm0 1c0,0 -1,0 -2,0 0,1 -1,1 -1,2 0,0 0,1 0,2 0,0 0,1 0,2 0,0 1,1 1,1 1,0 2,0 2,0 1,0 2,0 2,0 1,0 1,-1 2,-1 0,-1 0,-2 0,-2 0,-1 0,-2 0,-2 -1,-1 -1,-1 -2,-2 0,0 -1,0 -2,0zm-2 6l0 -5 2 0c1,0 1,0 1,1 1,0 1,0 1,0 0,0 0,0 0,1 0,0 0,0 0,1 -1,0 -1,0 -1,0 0,0 0,0 0,0 0,1 1,1 1,1l0 1 -1 0 0 -1c0,0 -1,-1 -1,-1 0,0 0,0 0,0l-1 0 0 2 -1 0zm1 -2l1 0c1,0 1,-1 1,-1 0,0 0,0 0,0 0,0 0,0 0,-1 0,0 0,0 0,0 0,0 -1,0 -1,0l-1 0 0 2z"/>
    </g>
   </g>
   <g id="PIN1">
    <path fill="#404040" d="M223 804c-6,-6 -6,-16 0,-22 6,-7 16,-7 23,0 6,6 6,16 0,22 -7,7 -17,7 -23,0z"/>
    <path fill="white" d="M223 804c-6,-6 -6,-16 0,-22 6,-7 16,-7 23,0 -17,-13 -36,6 -23,22z"/>
   </g>
  </g>
  <g id="RGB_x0020_LED">
   <g>
    <polygon fill="#CCCCCC" points="358,512 358,534 338,534 338,512 "/>
    <polygon fill="#E5E5E5" points="358,532 358,534 338,534 338,532 "/>
   </g>
   <g>
    <polygon fill="#CCCCCC" points="358,474 358,497 338,497 338,474 "/>
    <polygon fill="#E5E5E5" points="358,494 358,497 338,497 338,494 "/>
   </g>
   <g>
    <polygon fill="#CCCCCC" points="414,512 414,535 393,535 393,512 "/>
    <polygon fill="#E5E5E5" points="414,532 414,535 393,535 393,532 "/>
   </g>
   <g>
    <polygon fill="#CCCCCC" points="414,474 414,497 393,497 393,474 "/>
    <polygon fill="#E5E5E5" points="414,494 414,497 393,497 393,494 "/>
   </g>
   <polygon fill="black" points="341,541 341,466 353,466 411,466 411,541 "/>
   <polygon fill="#404040" points="341,482 341,481 352,466 353,466 "/>
   <polygon fill="#E5E5E5" points="351,531 347,503 351,478 376,474 402,478 405,503 402,531 376,534 "/>
   <path fill="#B2B2B2" d="M363 503c0,-7 6,-12 12,-12l0 12 -12 0z"/>
   <path fill="#1B5BB3" d="M363 504c0,6 6,12 12,12l0 -12 -12 0z"/>
   <path fill="#00A63D" d="M388 504c0,6 -5,12 -12,12l0 -12 12 0z"/>
   <path fill="#CC1414" d="M388 503c0,-7 -5,-12 -12,-12l0 12 12 0z"/>
   <polygon fill="white" points="351,531 347,503 351,478 376,474 402,478 376,476 351,478 349,503 "/>
   <polygon fill="#B2B2B2" points="402,478 405,503 402,531 376,534 351,531 376,532 402,531 403,503 "/>
  </g>
  <g id="BTCOEX_x0020_PADS">
   <polygon fill="#CC9933" points="112,1072 112,1039 145,1039 145,1072 "/>
   <polygon fill="#CC9933" points="112,1023 112,990 145,990 145,1023 "/>
   <polygon fill="#CC9933" points="112,975 112,941 145,941 145,975 "/>
   <polygon fill="#E6AB00" points="112,1072 112,1071 145,1071 145,1072 "/>
   <polygon fill="#E6AB00" points="112,1023 112,1022 145,1022 145,1023 "/>
   <polygon fill="#E6AB00" points="112,975 112,974 145,974 145,975 "/>
  </g>
  <g id="PINS_2">
   <g id="PIN">
    <path fill="#B2B2B2" d="M62 1331c0,19 -15,35 -34,35 -20,0 -35,-16 -35,-35 0,-19 15,-35 35,-35 19,0 34,16 34,35z"/>
    <path fill="#999999" d="M56 1312c-5,0 -17,4 -28,19 -13,-15 -23,-19 -29,-20 8,-11 19,-15 29,-15 9,0 21,4 28,16z"/>
    <path fill="#999999" d="M15 1343l13 -12 12 12c-8,-1 -16,-2 -25,0z"/>
    <path fill="#CCCCCC" d="M28 1331l12 -13c-2,9 -2,17 0,25l-12 -12z"/>
    <path fill="#999999" d="M28 1331l-13 -13c8,2 16,3 25,0l-12 13z"/>
    <path fill="#CCCCCC" d="M28 1331l-13 12c2,-8 2,-16 0,-25l13 13z"/>
    <path fill="#CCCCCC" d="M33 1331c0,3 -2,5 -5,5 -4,0 -6,-2 -6,-5 0,-3 2,-6 6,-6 4,0 5,3 5,6z"/>
    <path fill="#E5E5E5" d="M33 1331c0,3 -2,5 -5,5 -2,0 -4,0 -5,-1 1,1 3,1 4,1 4,0 6,-2 6,-5 0,-2 -1,-3 -1,-4 1,1 1,2 1,4z"/>
    <path fill="#666666" d="M24 1335c-1,-1 -2,-2 -2,-4 0,-3 2,-6 6,-6 2,0 3,1 4,2 -1,-1 -2,-1 -4,-1 -4,0 -6,2 -6,5 0,2 1,3 2,4z"/>
   </g>
   <g id="PIN_3">
    <path fill="#B2B2B2" d="M62 1231c0,19 -15,35 -34,35 -20,0 -35,-16 -35,-35 0,-19 15,-35 35,-35 19,0 34,16 34,35z"/>
    <path fill="#999999" d="M56 1212c-5,0 -17,4 -28,19 -13,-15 -23,-19 -29,-20 8,-11 19,-15 29,-15 9,0 21,4 28,16z"/>
    <path fill="#999999" d="M15 1243l13 -12 12 12c-8,-1 -16,-2 -25,0z"/>
    <path fill="#CCCCCC" d="M28 1231l12 -13c-2,9 -2,17 0,25l-12 -12z"/>
    <path fill="#999999" d="M28 1231l-13 -13c8,2 16,3 25,0l-12 13z"/>
    <path fill="#CCCCCC" d="M28 1231l-13 12c2,-8 2,-16 0,-25l13 13z"/>
    <path fill="#CCCCCC" d="M33 1231c0,3 -2,5 -5,5 -4,0 -6,-2 -6,-5 0,-3 2,-6 6,-6 4,0 5,3 5,6z"/>
    <path fill="#E5E5E5" d="M33 1231c0,3 -2,5 -5,5 -2,0 -4,0 -5,-1 1,1 3,1 4,1 4,0 6,-2 6,-5 0,-2 -1,-3 -1,-4 1,1 1,2 1,4z"/>
    <path fill="#666666" d="M24 1235c-1,-1 -2,-2 -2,-4 0,-3 2,-6 6,-6 2,0 3,1 4,2 -1,-1 -2,-1 -4,-1 -4,0 -6,2 -6,5 0,2 1,3 2,4z"/>
   </g>
   <g id="PIN_4">
    <path fill="#B2B2B2" d="M62 1131c0,19 -15,35 -34,35 -20,0 -35,-16 -35,-35 0,-19 15,-35 35,-35 19,0 34,16 34,35z"/>
    <path fill="#999999" d="M56 1112c-5,0 -17,4 -28,19 -13,-15 -23,-19 -29,-20 8,-11 19,-15 29,-15 9,0 21,4 28,16z"/>
    <path fill="#999999" d="M15 1143l13 -12 12 12c-8,-1 -16,-2 -25,0z"/>
    <path fill="#CCCCCC" d="M28 1131l12 -13c-2,9 -2,17 0,25l-12 -12z"/>
    <path fill="#999999" d="M28 1131l-13 -13c8,2 16,3 25,0l-12 13z"/>
    <path fill="#CCCCCC" d="M28 1131l-13 12c2,-8 2,-16 0,-25l13 13z"/>
    <path fill="#CCCCCC" d="M33 1131c0,3 -2,5 -5,5 -4,0 -6,-2 -6,-5 0,-3 2,-6 6,-6 4,0 5,3 5,6z"/>
    <path fill="#E5E5E5" d="M33 1131c0,3 -2,5 -5,5 -2,0 -4,0 -5,-1 1,1 3,1 4,1 4,0 6,-2 6,-5 0,-2 -1,-3 -1,-4 1,1 1,2 1,4z"/>
    <path fill="#666666" d="M24 1135c-1,-1 -2,-2 -2,-4 0,-3 2,-6 6,-6 2,0 3,1 4,2 -1,-1 -2,-1 -4,-1 -4,0 -6,2 -6,5 0,2 1,3 2,4z"/>
   </g>
   <g id="PIN_5">
    <path fill="#B2B2B2" d="M62 1031c0,19 -15,35 -34,35 -20,0 -35,-16 -35,-35 0,-19 15,-35 35,-35 19,0 34,16 34,35z"/>
    <path fill="#999999" d="M56 1012c-5,0 -17,4 -28,19 -13,-15 -23,-19 -29,-20 8,-11 19,-15 29,-15 9,0 21,4 28,16z"/>
    <path fill="#999999" d="M15 1043l13 -12 12 12c-8,-1 -16,-2 -25,0z"/>
    <path fill="#CCCCCC" d="M28 1031l12 -13c-2,9 -2,17 0,25l-12 -12z"/>
    <path fill="#999999" d="M28 1031l-13 -13c8,2 16,3 25,0l-12 13z"/>
    <path fill="#CCCCCC" d="M28 1031l-13 12c2,-8 2,-16 0,-25l13 13z"/>
    <path fill="#CCCCCC" d="M33 1031c0,3 -2,5 -5,5 -4,0 -6,-2 -6,-5 0,-3 2,-6 6,-6 4,0 5,3 5,6z"/>
    <path fill="#E5E5E5" d="M33 1031c0,3 -2,5 -5,5 -2,0 -4,0 -5,-1 1,1 3,1 4,1 4,0 6,-2 6,-5 0,-2 -1,-3 -1,-4 1,1 1,2 1,4z"/>
    <path fill="#666666" d="M24 1035c-1,-1 -2,-2 -2,-4 0,-3 2,-6 6,-6 2,0 3,1 4,2 -1,-1 -2,-1 -4,-1 -4,0 -6,2 -6,5 0,2 1,3 2,4z"/>
   </g>
   <g id="PIN_6">
    <path fill="#B2B2B2" d="M62 931c0,19 -15,35 -34,35 -20,0 -35,-16 -35,-35 0,-19 15,-35 35,-35 19,0 34,16 34,35z"/>
    <path fill="#999999" d="M56 912c-5,0 -17,4 -28,19 -13,-15 -23,-19 -29,-20 8,-11 19,-15 29,-15 9,0 21,4 28,16z"/>
    <path fill="#999999" d="M15 943l13 -12 12 12c-8,-1 -16,-2 -25,0z"/>
    <path fill="#CCCCCC" d="M28 931l12 -13c-2,9 -2,17 0,25l-12 -12z"/>
    <path fill="#999999" d="M28 931l-13 -13c8,2 16,3 25,0l-12 13z"/>
    <path fill="#CCCCCC" d="M28 931l-13 12c2,-8 2,-16 0,-25l13 13z"/>
    <path fill="#CCCCCC" d="M33 931c0,3 -2,5 -5,5 -4,0 -6,-2 -6,-5 0,-3 2,-6 6,-6 4,0 5,3 5,6z"/>
    <path fill="#E5E5E5" d="M33 931c0,3 -2,5 -5,5 -2,0 -4,0 -5,-1 1,1 3,1 4,1 4,0 6,-2 6,-5 0,-2 -1,-3 -1,-4 1,1 1,2 1,4z"/>
    <path fill="#666666" d="M24 935c-1,-1 -2,-2 -2,-4 0,-3 2,-6 6,-6 2,0 3,1 4,2 -1,-1 -2,-1 -4,-1 -4,0 -6,2 -6,5 0,2 1,3 2,4z"/>
   </g>
   <g id="PIN_7">
    <path fill="#B2B2B2" d="M62 831c0,19 -15,35 -34,35 -20,0 -35,-16 -35,-35 0,-19 15,-35 35,-35 19,0 34,16 34,35z"/>
    <path fill="#999999" d="M56 812c-5,0 -17,4 -28,19 -13,-15 -23,-19 -29,-20 8,-11 19,-15 29,-15 9,0 21,4 28,16z"/>
    <path fill="#999999" d="M15 843l13 -12 12 12c-8,-1 -16,-2 -25,0z"/>
    <path fill="#CCCCCC" d="M28 831l12 -13c-2,9 -2,17 0,25l-12 -12z"/>
    <path fill="#999999" d="M28 831l-13 -13c8,2 16,3 25,0l-12 13z"/>
    <path fill="#CCCCCC" d="M28 831l-13 12c2,-8 2,-16 0,-25l13 13z"/>
    <path fill="#CCCCCC" d="M33 831c0,3 -2,5 -5,5 -4,0 -6,-2 -6,-5 0,-3 2,-6 6,-6 4,0 5,3 5,6z"/>
    <path fill="#E5E5E5" d="M33 831c0,3 -2,5 -5,5 -2,0 -4,0 -5,-1 1,1 3,1 4,1 4,0 6,-2 6,-5 0,-2 -1,-3 -1,-4 1,1 1,2 1,4z"/>
    <path fill="#666666" d="M24 835c-1,-1 -2,-2 -2,-4 0,-3 2,-6 6,-6 2,0 3,1 4,2 -1,-1 -2,-1 -4,-1 -4,0 -6,2 -6,5 0,2 1,3 2,4z"/>
   </g>
   <g id="PIN_8">
    <path fill="#B2B2B2" d="M62 732c0,19 -15,35 -34,35 -20,0 -35,-16 -35,-35 0,-19 15,-35 35,-35 19,0 34,16 34,35z"/>
    <path fill="#999999" d="M56 713c-5,0 -17,4 -28,19 -13,-15 -23,-19 -29,-20 8,-11 19,-15 29,-15 9,0 21,4 28,16z"/>
    <path fill="#999999" d="M15 744l13 -12 12 12c-8,-1 -16,-2 -25,0z"/>
    <path fill="#CCCCCC" d="M28 732l12 -13c-2,9 -2,17 0,25l-12 -12z"/>
    <path fill="#999999" d="M28 732l-13 -13c8,2 16,3 25,0l-12 13z"/>
    <path fill="#CCCCCC" d="M28 732l-13 12c2,-8 2,-16 0,-25l13 13z"/>
    <path fill="#CCCCCC" d="M33 732c0,3 -2,5 -5,5 -4,0 -6,-2 -6,-5 0,-3 2,-6 6,-6 4,0 5,3 5,6z"/>
    <path fill="#E5E5E5" d="M33 732c0,3 -2,5 -5,5 -2,0 -4,0 -5,-1 1,1 3,1 4,1 4,0 6,-2 6,-5 0,-2 -1,-3 -1,-4 1,1 1,2 1,4z"/>
    <path fill="#666666" d="M24 736c-1,-1 -2,-2 -2,-4 0,-3 2,-6 6,-6 2,0 3,1 4,2 -1,-1 -2,-1 -4,-1 -4,0 -6,2 -6,5 0,2 1,3 2,4z"/>
   </g>
   <g id="PIN_9">
    <path fill="#B2B2B2" d="M62 632c0,19 -15,35 -34,35 -20,0 -35,-16 -35,-35 0,-19 15,-35 35,-35 19,0 34,16 34,35z"/>
    <path fill="#999999" d="M56 613c-5,0 -17,4 -28,19 -13,-15 -23,-19 -29,-20 8,-11 19,-15 29,-15 9,0 21,4 28,16z"/>
    <path fill="#999999" d="M15 644l13 -12 12 12c-8,-1 -16,-2 -25,0z"/>
    <path fill="#CCCCCC" d="M28 632l12 -13c-2,9 -2,17 0,25l-12 -12z"/>
    <path fill="#999999" d="M28 632l-13 -13c8,2 16,3 25,0l-12 13z"/>
    <path fill="#CCCCCC" d="M28 632l-13 12c2,-8 2,-16 0,-25l13 13z"/>
    <path fill="#CCCCCC" d="M33 632c0,3 -2,5 -5,5 -4,0 -6,-2 -6,-5 0,-3 2,-6 6,-6 4,0 5,3 5,6z"/>
    <path fill="#E5E5E5" d="M33 632c0,3 -2,5 -5,5 -2,0 -4,0 -5,-1 1,1 3,1 4,1 4,0 6,-2 6,-5 0,-2 -1,-3 -1,-4 1,1 1,2 1,4z"/>
    <path fill="#666666" d="M24 636c-1,-1 -2,-2 -2,-4 0,-3 2,-6 6,-6 2,0 3,1 4,2 -1,-1 -2,-1 -4,-1 -4,0 -6,2 -6,5 0,2 1,3 2,4z"/>
   </g>
   <g id="PIN_10">
    <path fill="#B2B2B2" d="M62 532c0,19 -15,35 -34,35 -20,0 -35,-16 -35,-35 0,-19 15,-35 35,-35 19,0 34,16 34,35z"/>
    <path fill="#999999" d="M56 513c-5,0 -17,4 -28,19 -13,-15 -23,-19 -29,-20 8,-11 19,-15 29,-15 9,0 21,4 28,16z"/>
    <path fill="#999999" d="M15 544l13 -12 12 12c-8,-1 -16,-2 -25,0z"/>
    <path fill="#CCCCCC" d="M28 532l12 -13c-2,9 -2,17 0,25l-12 -12z"/>
    <path fill="#999999" d="M28 532l-13 -13c8,2 16,3 25,0l-12 13z"/>
    <path fill="#CCCCCC" d="M28 532l-13 12c2,-8 2,-16 0,-25l13 13z"/>
    <path fill="#CCCCCC" d="M33 532c0,3 -2,5 -5,5 -4,0 -6,-2 -6,-5 0,-3 2,-6 6,-6 4,0 5,3 5,6z"/>
    <path fill="#E5E5E5" d="M33 532c0,3 -2,5 -5,5 -2,0 -4,0 -5,-1 1,1 3,1 4,1 4,0 6,-2 6,-5 0,-2 -1,-3 -1,-4 1,1 1,2 1,4z"/>
    <path fill="#666666" d="M24 536c-1,-1 -2,-2 -2,-4 0,-3 2,-6 6,-6 2,0 3,1 4,2 -1,-1 -2,-1 -4,-1 -4,0 -6,2 -6,5 0,2 1,3 2,4z"/>
   </g>
   <g id="PIN_11">
    <path fill="#B2B2B2" d="M62 432c0,19 -15,35 -34,35 -20,0 -35,-16 -35,-35 0,-19 15,-35 35,-35 19,0 34,16 34,35z"/>
    <path fill="#999999" d="M56 413c-5,0 -17,4 -28,19 -13,-15 -23,-19 -29,-20 8,-11 19,-15 29,-15 9,0 21,4 28,16z"/>
    <path fill="#999999" d="M15 444l13 -12 12 12c-8,-1 -16,-2 -25,0z"/>
    <path fill="#CCCCCC" d="M28 432l12 -13c-2,9 -2,17 0,25l-12 -12z"/>
    <path fill="#999999" d="M28 432l-13 -13c8,2 16,3 25,0l-12 13z"/>
    <path fill="#CCCCCC" d="M28 432l-13 12c2,-8 2,-16 0,-25l13 13z"/>
    <path fill="#CCCCCC" d="M33 432c0,3 -2,5 -5,5 -4,0 -6,-2 -6,-5 0,-3 2,-6 6,-6 4,0 5,3 5,6z"/>
    <path fill="#E5E5E5" d="M33 432c0,3 -2,5 -5,5 -2,0 -4,0 -5,-1 1,1 3,1 4,1 4,0 6,-2 6,-5 0,-2 -1,-3 -1,-4 1,1 1,2 1,4z"/>
    <path fill="#666666" d="M24 436c-1,-1 -2,-2 -2,-4 0,-3 2,-6 6,-6 2,0 3,1 4,2 -1,-1 -2,-1 -4,-1 -4,0 -6,2 -6,5 0,2 1,3 2,4z"/>
   </g>
   <g id="PIN_12">
    <path fill="#B2B2B2" d="M62 332c0,19 -15,35 -34,35 -20,0 -35,-16 -35,-35 0,-19 15,-35 35,-35 19,0 34,16 34,35z"/>
    <path fill="#999999" d="M56 313c-5,0 -17,4 -28,19 -13,-15 -23,-19 -29,-20 8,-11 19,-15 29,-15 9,0 21,4 28,16z"/>
    <path fill="#999999" d="M15 344l13 -12 12 12c-8,-1 -16,-2 -25,0z"/>
    <path fill="#CCCCCC" d="M28 332l12 -13c-2,9 -2,17 0,25l-12 -12z"/>
    <path fill="#999999" d="M28 332l-13 -13c8,2 16,3 25,0l-12 13z"/>
    <path fill="#CCCCCC" d="M28 332l-13 12c2,-8 2,-16 0,-25l13 13z"/>
    <path fill="#CCCCCC" d="M33 332c0,3 -2,5 -5,5 -4,0 -6,-2 -6,-5 0,-3 2,-6 6,-6 4,0 5,3 5,6z"/>
    <path fill="#E5E5E5" d="M33 332c0,3 -2,5 -5,5 -2,0 -4,0 -5,-1 1,1 3,1 4,1 4,0 6,-2 6,-5 0,-2 -1,-3 -1,-4 1,1 1,2 1,4z"/>
    <path fill="#666666" d="M24 336c-1,-1 -2,-2 -2,-4 0,-3 2,-6 6,-6 2,0 3,1 4,2 -1,-1 -2,-1 -4,-1 -4,0 -6,2 -6,5 0,2 1,3 2,4z"/>
   </g>
   <g id="PIN_13">
    <path fill="#B2B2B2" d="M62 232c0,19 -15,35 -34,35 -20,0 -35,-16 -35,-35 0,-19 15,-35 35,-35 19,0 34,16 34,35z"/>
    <path fill="#999999" d="M56 213c-5,0 -17,4 -28,19 -13,-15 -23,-19 -29,-20 8,-11 19,-15 29,-15 9,0 21,4 28,16z"/>
    <path fill="#999999" d="M15 244l13 -12 12 12c-8,-1 -16,-2 -25,0z"/>
    <path fill="#CCCCCC" d="M28 232l12 -13c-2,9 -2,17 0,25l-12 -12z"/>
    <path fill="#999999" d="M28 232l-13 -13c8,2 16,3 25,0l-12 13z"/>
    <path fill="#CCCCCC" d="M28 232l-13 12c2,-8 2,-16 0,-25l13 13z"/>
    <path fill="#CCCCCC" d="M33 232c0,3 -2,5 -5,5 -4,0 -6,-2 -6,-5 0,-3 2,-6 6,-6 4,0 5,3 5,6z"/>
    <path fill="#E5E5E5" d="M33 232c0,3 -2,5 -5,5 -2,0 -4,0 -5,-1 1,1 3,1 4,1 4,0 6,-2 6,-5 0,-2 -1,-3 -1,-4 1,1 1,2 1,4z"/>
    <path fill="#666666" d="M24 236c-1,-1 -2,-2 -2,-4 0,-3 2,-6 6,-6 2,0 3,1 4,2 -1,-1 -2,-1 -4,-1 -4,0 -6,2 -6,5 0,2 1,3 2,4z"/>
   </g>
   <g id="PIN_14">
    <path fill="#B2B2B2" d="M762 1331c0,19 -15,35 -34,35 -20,0 -35,-16 -35,-35 0,-19 15,-35 35,-35 19,0 34,16 34,35z"/>
    <path fill="#999999" d="M756 1312c-5,0 -17,4 -28,19 -13,-15 -23,-19 -29,-20 8,-11 19,-15 29,-15 9,0 21,4 28,16z"/>
    <path fill="#999999" d="M715 1343l13 -12 12 12c-8,-1 -17,-2 -25,0z"/>
    <path fill="#CCCCCC" d="M728 1331l12 -13c-2,9 -2,17 0,25l-12 -12z"/>
    <path fill="#999999" d="M728 1331l-13 -13c8,2 16,3 25,0l-12 13z"/>
    <path fill="#CCCCCC" d="M728 1331l-13 12c2,-8 2,-16 0,-25l13 13z"/>
    <path fill="#CCCCCC" d="M733 1331c0,3 -2,5 -5,5 -4,0 -6,-2 -6,-5 0,-3 2,-6 6,-6 3,0 5,3 5,6z"/>
    <path fill="#E5E5E5" d="M733 1331c0,3 -2,5 -5,5 -2,0 -4,0 -5,-1 1,1 2,1 4,1 4,0 6,-2 6,-5 0,-2 -1,-3 -2,-4 2,1 2,2 2,4z"/>
    <path fill="#666666" d="M724 1335c-1,-1 -2,-2 -2,-4 0,-3 2,-6 6,-6 1,0 3,1 4,2 -1,-1 -2,-1 -4,-1 -4,0 -6,2 -6,5 0,2 1,3 2,4z"/>
   </g>
   <g id="PIN_15">
    <path fill="#B2B2B2" d="M762 1231c0,19 -15,35 -34,35 -20,0 -35,-16 -35,-35 0,-19 15,-35 35,-35 19,0 34,16 34,35z"/>
    <path fill="#999999" d="M756 1212c-5,0 -17,4 -28,19 -13,-15 -23,-19 -29,-20 8,-11 19,-15 29,-15 9,0 21,4 28,16z"/>
    <path fill="#999999" d="M715 1243l13 -12 12 12c-8,-1 -17,-2 -25,0z"/>
    <path fill="#CCCCCC" d="M728 1231l12 -13c-2,9 -2,17 0,25l-12 -12z"/>
    <path fill="#999999" d="M728 1231l-13 -13c8,2 16,3 25,0l-12 13z"/>
    <path fill="#CCCCCC" d="M728 1231l-13 12c2,-8 2,-16 0,-25l13 13z"/>
    <path fill="#CCCCCC" d="M733 1231c0,3 -2,5 -5,5 -4,0 -6,-2 -6,-5 0,-3 2,-6 6,-6 3,0 5,3 5,6z"/>
    <path fill="#E5E5E5" d="M733 1231c0,3 -2,5 -5,5 -2,0 -4,0 -5,-1 1,1 2,1 4,1 4,0 6,-2 6,-5 0,-2 -1,-3 -2,-4 2,1 2,2 2,4z"/>
    <path fill="#666666" d="M724 1235c-1,-1 -2,-2 -2,-4 0,-3 2,-6 6,-6 1,0 3,1 4,2 -1,-1 -2,-1 -4,-1 -4,0 -6,2 -6,5 0,2 1,3 2,4z"/>
   </g>
   <g id="PIN_16">
    <path fill="#B2B2B2" d="M762 1131c0,19 -15,35 -34,35 -20,0 -35,-16 -35,-35 0,-19 15,-35 35,-35 19,0 34,16 34,35z"/>
    <path fill="#999999" d="M756 1112c-5,0 -17,4 -28,19 -13,-15 -23,-19 -29,-20 8,-11 19,-15 29,-15 9,0 21,4 28,16z"/>
    <path fill="#999999" d="M715 1143l13 -12 12 12c-8,-1 -17,-2 -25,0z"/>
    <path fill="#CCCCCC" d="M728 1131l12 -13c-2,9 -2,17 0,25l-12 -12z"/>
    <path fill="#999999" d="M728 1131l-13 -13c8,2 16,3 25,0l-12 13z"/>
    <path fill="#CCCCCC" d="M728 1131l-13 12c2,-8 2,-16 0,-25l13 13z"/>
    <path fill="#CCCCCC" d="M733 1131c0,3 -2,5 -5,5 -4,0 -6,-2 -6,-5 0,-3 2,-6 6,-6 3,0 5,3 5,6z"/>
    <path fill="#E5E5E5" d="M733 1131c0,3 -2,5 -5,5 -2,0 -4,0 -5,-1 1,1 2,1 4,1 4,0 6,-2 6,-5 0,-2 -1,-3 -2,-4 2,1 2,2 2,4z"/>
    <path fill="#666666" d="M724 1135c-1,-1 -2,-2 -2,-4 0,-3 2,-6 6,-6 1,0 3,1 4,2 -1,-1 -2,-1 -4,-1 -4,0 -6,2 -6,5 0,2 1,3 2,4z"/>
   </g>
   <g id="PIN_17">
    <path fill="#B2B2B2" d="M762 1031c0,19 -15,35 -34,35 -20,0 -35,-16 -35,-35 0,-19 15,-35 35,-35 19,0 34,16 34,35z"/>
    <path fill="#999999" d="M756 1012c-5,0 -17,4 -28,19 -13,-15 -23,-19 -29,-20 8,-11 19,-15 29,-15 9,0 21,4 28,16z"/>
    <path fill="#999999" d="M715 1043l13 -12 12 12c-8,-1 -17,-2 -25,0z"/>
    <path fill="#CCCCCC" d="M728 1031l12 -13c-2,9 -2,17 0,25l-12 -12z"/>
    <path fill="#999999" d="M728 1031l-13 -13c8,2 16,3 25,0l-12 13z"/>
    <path fill="#CCCCCC" d="M728 1031l-13 12c2,-8 2,-16 0,-25l13 13z"/>
    <path fill="#CCCCCC" d="M733 1031c0,3 -2,5 -5,5 -4,0 -6,-2 -6,-5 0,-3 2,-6 6,-6 3,0 5,3 5,6z"/>
    <path fill="#E5E5E5" d="M733 1031c0,3 -2,5 -5,5 -2,0 -4,0 -5,-1 1,1 2,1 4,1 4,0 6,-2 6,-5 0,-2 -1,-3 -2,-4 2,1 2,2 2,4z"/>
    <path fill="#666666" d="M724 1035c-1,-1 -2,-2 -2,-4 0,-3 2,-6 6,-6 1,0 3,1 4,2 -1,-1 -2,-1 -4,-1 -4,0 -6,2 -6,5 0,2 1,3 2,4z"/>
   </g>
   <g id="PIN_18">
    <path fill="#B2B2B2" d="M762 931c0,19 -15,35 -34,35 -20,0 -35,-16 -35,-35 0,-19 15,-35 35,-35 19,0 34,16 34,35z"/>
    <path fill="#999999" d="M756 912c-5,0 -17,4 -28,19 -13,-15 -23,-19 -29,-20 8,-11 19,-15 29,-15 9,0 21,4 28,16z"/>
    <path fill="#999999" d="M715 943l13 -12 12 12c-8,-1 -17,-2 -25,0z"/>
    <path fill="#CCCCCC" d="M728 931l12 -13c-2,9 -2,17 0,25l-12 -12z"/>
    <path fill="#999999" d="M728 931l-13 -13c8,2 16,3 25,0l-12 13z"/>
    <path fill="#CCCCCC" d="M728 931l-13 12c2,-8 2,-16 0,-25l13 13z"/>
    <path fill="#CCCCCC" d="M733 931c0,3 -2,5 -5,5 -4,0 -6,-2 -6,-5 0,-3 2,-6 6,-6 3,0 5,3 5,6z"/>
    <path fill="#E5E5E5" d="M733 931c0,3 -2,5 -5,5 -2,0 -4,0 -5,-1 1,1 2,1 4,1 4,0 6,-2 6,-5 0,-2 -1,-3 -2,-4 2,1 2,2 2,4z"/>
    <path fill="#666666" d="M724 935c-1,-1 -2,-2 -2,-4 0,-3 2,-6 6,-6 1,0 3,1 4,2 -1,-1 -2,-1 -4,-1 -4,0 -6,2 -6,5 0,2 1,3 2,4z"/>
   </g>
   <g id="PIN_19">
    <path fill="#B2B2B2" d="M762 831c0,19 -15,35 -34,35 -20,0 -35,-16 -35,-35 0,-19 15,-35 35,-35 19,0 34,16 34,35z"/>
    <path fill="#999999" d="M756 812c-5,0 -17,4 -28,19 -13,-15 -23,-19 -29,-20 8,-11 19,-15 29,-15 9,0 21,4 28,16z"/>
    <path fill="#999999" d="M715 843l13 -12 12 12c-8,-1 -17,-2 -25,0z"/>
    <path fill="#CCCCCC" d="M728 831l12 -13c-2,9 -2,17 0,25l-12 -12z"/>
    <path fill="#999999" d="M728 831l-13 -13c8,2 16,3 25,0l-12 13z"/>
    <path fill="#CCCCCC" d="M728 831l-13 12c2,-8 2,-16 0,-25l13 13z"/>
    <path fill="#CCCCCC" d="M733 831c0,3 -2,5 -5,5 -4,0 -6,-2 -6,-5 0,-3 2,-6 6,-6 3,0 5,3 5,6z"/>
    <path fill="#E5E5E5" d="M733 831c0,3 -2,5 -5,5 -2,0 -4,0 -5,-1 1,1 2,1 4,1 4,0 6,-2 6,-5 0,-2 -1,-3 -2,-4 2,1 2,2 2,4z"/>
    <path fill="#666666" d="M724 835c-1,-1 -2,-2 -2,-4 0,-3 2,-6 6,-6 1,0 3,1 4,2 -1,-1 -2,-1 -4,-1 -4,0 -6,2 -6,5 0,2 1,3 2,4z"/>
   </g>
   <g id="PIN_20">
    <path fill="#B2B2B2" d="M762 732c0,19 -15,35 -34,35 -20,0 -35,-16 -35,-35 0,-19 15,-35 35,-35 19,0 34,16 34,35z"/>
    <path fill="#999999" d="M756 713c-5,0 -17,4 -28,19 -13,-15 -23,-19 -29,-20 8,-11 19,-15 29,-15 9,0 21,4 28,16z"/>
    <path fill="#999999" d="M715 744l13 -12 12 12c-8,-1 -17,-2 -25,0z"/>
    <path fill="#CCCCCC" d="M728 732l12 -13c-2,9 -2,17 0,25l-12 -12z"/>
    <path fill="#999999" d="M728 732l-13 -13c8,2 16,3 25,0l-12 13z"/>
    <path fill="#CCCCCC" d="M728 732l-13 12c2,-8 2,-16 0,-25l13 13z"/>
    <path fill="#CCCCCC" d="M733 732c0,3 -2,5 -5,5 -4,0 -6,-2 -6,-5 0,-3 2,-6 6,-6 3,0 5,3 5,6z"/>
    <path fill="#E5E5E5" d="M733 732c0,3 -2,5 -5,5 -2,0 -4,0 -5,-1 1,1 2,1 4,1 4,0 6,-2 6,-5 0,-2 -1,-3 -2,-4 2,1 2,2 2,4z"/>
    <path fill="#666666" d="M724 736c-1,-1 -2,-2 -2,-4 0,-3 2,-6 6,-6 1,0 3,1 4,2 -1,-1 -2,-1 -4,-1 -4,0 -6,2 -6,5 0,2 1,3 2,4z"/>
   </g>
   <g id="PIN_21">
    <path fill="#B2B2B2" d="M762 632c0,19 -15,35 -34,35 -20,0 -35,-16 -35,-35 0,-19 15,-35 35,-35 19,0 34,16 34,35z"/>
    <path fill="#999999" d="M756 613c-5,0 -17,4 -28,19 -13,-15 -23,-19 -29,-20 8,-11 19,-15 29,-15 9,0 21,4 28,16z"/>
    <path fill="#999999" d="M715 644l13 -12 12 12c-8,-1 -17,-2 -25,0z"/>
    <path fill="#CCCCCC" d="M728 632l12 -13c-2,9 -2,17 0,25l-12 -12z"/>
    <path fill="#999999" d="M728 632l-13 -13c8,2 16,3 25,0l-12 13z"/>
    <path fill="#CCCCCC" d="M728 632l-13 12c2,-8 2,-16 0,-25l13 13z"/>
    <path fill="#CCCCCC" d="M733 632c0,3 -2,5 -5,5 -4,0 -6,-2 -6,-5 0,-3 2,-6 6,-6 3,0 5,3 5,6z"/>
    <path fill="#E5E5E5" d="M733 632c0,3 -2,5 -5,5 -2,0 -4,0 -5,-1 1,1 2,1 4,1 4,0 6,-2 6,-5 0,-2 -1,-3 -2,-4 2,1 2,2 2,4z"/>
    <path fill="#666666" d="M724 636c-1,-1 -2,-2 -2,-4 0,-3 2,-6 6,-6 1,0 3,1 4,2 -1,-1 -2,-1 -4,-1 -4,0 -6,2 -6,5 0,2 1,3 2,4z"/>
   </g>
   <g id="PIN_22">
    <path fill="#B2B2B2" d="M762 532c0,19 -15,35 -34,35 -20,0 -35,-16 -35,-35 0,-19 15,-35 35,-35 19,0 34,16 34,35z"/>
    <path fill="#999999" d="M756 513c-5,0 -17,4 -28,19 -13,-15 -23,-19 -29,-20 8,-11 19,-15 29,-15 9,0 21,4 28,16z"/>
    <path fill="#999999" d="M715 544l13 -12 12 12c-8,-1 -17,-2 -25,0z"/>
    <path fill="#CCCCCC" d="M728 532l12 -13c-2,9 -2,17 0,25l-12 -12z"/>
    <path fill="#999999" d="M728 532l-13 -13c8,2 16,3 25,0l-12 13z"/>
    <path fill="#CCCCCC" d="M728 532l-13 12c2,-8 2,-16 0,-25l13 13z"/>
    <path fill="#CCCCCC" d="M733 532c0,3 -2,5 -5,5 -4,0 -6,-2 -6,-5 0,-3 2,-6 6,-6 3,0 5,3 5,6z"/>
    <path fill="#E5E5E5" d="M733 532c0,3 -2,5 -5,5 -2,0 -4,0 -5,-1 1,1 2,1 4,1 4,0 6,-2 6,-5 0,-2 -1,-3 -2,-4 2,1 2,2 2,4z"/>
    <path fill="#666666" d="M724 536c-1,-1 -2,-2 -2,-4 0,-3 2,-6 6,-6 1,0 3,1 4,2 -1,-1 -2,-1 -4,-1 -4,0 -6,2 -6,5 0,2 1,3 2,4z"/>
   </g>
   <g id="PIN_23">
    <path fill="#B2B2B2" d="M762 432c0,19 -15,35 -34,35 -20,0 -35,-16 -35,-35 0,-19 15,-35 35,-35 19,0 34,16 34,35z"/>
    <path fill="#999999" d="M756 413c-5,0 -17,4 -28,19 -13,-15 -23,-19 -29,-20 8,-11 19,-15 29,-15 9,0 21,4 28,16z"/>
    <path fill="#999999" d="M715 444l13 -12 12 12c-8,-1 -17,-2 -25,0z"/>
    <path fill="#CCCCCC" d="M728 432l12 -13c-2,9 -2,17 0,25l-12 -12z"/>
    <path fill="#999999" d="M728 432l-13 -13c8,2 16,3 25,0l-12 13z"/>
    <path fill="#CCCCCC" d="M728 432l-13 12c2,-8 2,-16 0,-25l13 13z"/>
    <path fill="#CCCCCC" d="M733 432c0,3 -2,5 -5,5 -4,0 -6,-2 -6,-5 0,-3 2,-6 6,-6 3,0 5,3 5,6z"/>
    <path fill="#E5E5E5" d="M733 432c0,3 -2,5 -5,5 -2,0 -4,0 -5,-1 1,1 2,1 4,1 4,0 6,-2 6,-5 0,-2 -1,-3 -2,-4 2,1 2,2 2,4z"/>
    <path fill="#666666" d="M724 436c-1,-1 -2,-2 -2,-4 0,-3 2,-6 6,-6 1,0 3,1 4,2 -1,-1 -2,-1 -4,-1 -4,0 -6,2 -6,5 0,2 1,3 2,4z"/>
   </g>
   <g id="PIN_24">
    <path fill="#B2B2B2" d="M762 332c0,19 -15,35 -34,35 -20,0 -35,-16 -35,-35 0,-19 15,-35 35,-35 19,0 34,16 34,35z"/>
    <path fill="#999999" d="M756 313c-5,0 -17,4 -28,19 -13,-15 -23,-19 -29,-20 8,-11 19,-15 29,-15 9,0 21,4 28,16z"/>
    <path fill="#999999" d="M715 344l13 -12 12 12c-8,-1 -17,-2 -25,0z"/>
    <path fill="#CCCCCC" d="M728 332l12 -13c-2,9 -2,17 0,25l-12 -12z"/>
    <path fill="#999999" d="M728 332l-13 -13c8,2 16,3 25,0l-12 13z"/>
    <path fill="#CCCCCC" d="M728 332l-13 12c2,-8 2,-16 0,-25l13 13z"/>
    <path fill="#CCCCCC" d="M733 332c0,3 -2,5 -5,5 -4,0 -6,-2 -6,-5 0,-3 2,-6 6,-6 3,0 5,3 5,6z"/>
    <path fill="#E5E5E5" d="M733 332c0,3 -2,5 -5,5 -2,0 -4,0 -5,-1 1,1 2,1 4,1 4,0 6,-2 6,-5 0,-2 -1,-3 -2,-4 2,1 2,2 2,4z"/>
    <path fill="#666666" d="M724 336c-1,-1 -2,-2 -2,-4 0,-3 2,-6 6,-6 1,0 3,1 4,2 -1,-1 -2,-1 -4,-1 -4,0 -6,2 -6,5 0,2 1,3 2,4z"/>
   </g>
   <g id="PIN_25">
    <path fill="#B2B2B2" d="M762 232c0,19 -15,35 -34,35 -20,0 -35,-16 -35,-35 0,-19 15,-35 35,-35 19,0 34,16 34,35z"/>
    <path fill="#999999" d="M756 213c-5,0 -17,4 -28,19 -13,-15 -23,-19 -29,-20 8,-11 19,-15 29,-15 9,0 21,4 28,16z"/>
    <path fill="#999999" d="M715 244l13 -12 12 12c-8,-1 -17,-2 -25,0z"/>
    <path fill="#CCCCCC" d="M728 232l12 -13c-2,9 -2,17 0,25l-12 -12z"/>
    <path fill="#999999" d="M728 232l-13 -13c8,2 16,3 25,0l-12 13z"/>
    <path fill="#CCCCCC" d="M728 232l-13 12c2,-8 2,-16 0,-25l13 13z"/>
    <path fill="#CCCCCC" d="M733 232c0,3 -2,5 -5,5 -4,0 -6,-2 -6,-5 0,-3 2,-6 6,-6 3,0 5,3 5,6z"/>
    <path fill="#E5E5E5" d="M733 232c0,3 -2,5 -5,5 -2,0 -4,0 -5,-1 1,1 2,1 4,1 4,0 6,-2 6,-5 0,-2 -1,-3 -2,-4 2,1 2,2 2,4z"/>
    <path fill="#666666" d="M724 236c-1,-1 -2,-2 -2,-4 0,-3 2,-6 6,-6 1,0 3,1 4,2 -1,-1 -2,-1 -4,-1 -4,0 -6,2 -6,5 0,2 1,3 2,4z"/>
   </g>
   <g id="castellated_top">
    <path fill="#B2B2B2" d="M-22 1306c13,0 25,11 25,25 0,14 -12,25 -25,25l0 -12c7,0 12,-6 12,-13 0,-7 -5,-13 -12,-13l0 -12z"/>
    <path fill="#B2B2B2" d="M-22 1206c13,0 25,11 25,25 0,14 -12,25 -25,25l0 -12c7,0 12,-6 12,-13 0,-7 -5,-13 -12,-13l0 -12z"/>
    <path fill="#B2B2B2" d="M-22 1106c13,0 25,11 25,25 0,14 -12,25 -25,25l0 -12c7,0 12,-6 12,-13 0,-7 -5,-13 -12,-13l0 -12z"/>
    <path fill="#B2B2B2" d="M-22 1006c13,0 25,11 25,25 0,14 -12,25 -25,25l0 -12c7,0 12,-6 12,-13 0,-7 -5,-13 -12,-13l0 -12z"/>
    <path fill="#B2B2B2" d="M-22 906c13,0 25,11 25,25 0,14 -12,25 -25,25l0 -12c7,0 12,-6 12,-13 0,-7 -5,-13 -12,-13l0 -12z"/>
    <path fill="#B2B2B2" d="M-22 807c13,0 25,11 25,25 0,14 -12,25 -25,25l0 -12c7,0 12,-6 12,-13 0,-7 -5,-13 -12,-13l0 -12z"/>
    <path fill="#B2B2B2" d="M-22 707c13,0 25,11 25,25 0,14 -12,25 -25,25l0 -12c7,0 12,-6 12,-13 0,-7 -5,-13 -12,-13l0 -12z"/>
    <path fill="#B2B2B2" d="M-22 607c13,0 25,11 25,25 0,14 -12,25 -25,25l0 -12c7,0 12,-6 12,-13 0,-7 -5,-13 -12,-13l0 -12z"/>
    <path fill="#B2B2B2" d="M-22 507c13,0 25,11 25,25 0,14 -12,25 -25,25l0 -12c7,0 12,-6 12,-13 0,-7 -5,-13 -12,-13l0 -12z"/>
    <path fill="#B2B2B2" d="M-22 407c13,0 25,11 25,25 0,14 -12,25 -25,25l0 -12c7,0 12,-6 12,-13 0,-7 -5,-13 -12,-13l0 -12z"/>
    <path fill="#B2B2B2" d="M-22 307c13,0 25,11 25,25 0,14 -12,25 -25,25l0 -12c7,0 12,-6 12,-13 0,-7 -5,-13 -12,-13l0 -12z"/>
    <path fill="#B2B2B2" d="M-22 207c13,0 25,11 25,25 0,14 -12,25 -25,25l0 -12c7,0 12,-6 12,-13 0,-7 -5,-13 -12,-13l0 -12z"/>
   </g>
   <g id="castellated_pin">
    <path fill="#B2B2B2" d="M772 257c-10,0 -19,-11 -19,-25 0,-14 9,-25 19,-25l0 12c-6,0 -10,6 -10,13 0,7 4,13 10,13l0 12z"/>
    <polygon fill="#CCCCCC" points="772,245 772,257 778,257 778,245 "/>
    <polygon fill="#CCCCCC" points="772,207 772,219 778,219 778,207 "/>
    <path fill="#666666" d="M778 219l-6 0 0 0c-6,0 -10,6 -10,13 0,7 4,13 10,13l6 0c-5,-1 -9,-6 -9,-13 0,-7 4,-13 9,-13z"/>
   </g>
   <g id="castellated_pin_26">
    <path fill="#B2B2B2" d="M772 357c-10,0 -19,-11 -19,-25 0,-14 9,-25 19,-25l0 12c-6,0 -10,6 -10,13 0,7 4,13 10,13l0 12z"/>
    <polygon fill="#CCCCCC" points="772,345 772,357 778,357 778,345 "/>
    <polygon fill="#CCCCCC" points="772,307 772,319 778,319 778,307 "/>
    <path fill="#666666" d="M778 319l-6 0 0 0c-6,0 -10,6 -10,13 0,7 4,13 10,13l6 0c-5,-1 -9,-6 -9,-13 0,-7 4,-13 9,-13z"/>
   </g>
   <g id="castellated_pin_27">
    <path fill="#B2B2B2" d="M772 457c-10,0 -19,-11 -19,-25 0,-14 9,-25 19,-25l0 12c-6,0 -10,6 -10,13 0,7 4,13 10,13l0 12z"/>
    <polygon fill="#CCCCCC" points="772,445 772,457 778,457 778,445 "/>
    <polygon fill="#CCCCCC" points="772,407 772,419 778,419 778,407 "/>
    <path fill="#666666" d="M778 419l-6 0 0 0c-6,0 -10,6 -10,13 0,7 4,13 10,13l6 0c-5,-1 -9,-6 -9,-13 0,-7 4,-13 9,-13z"/>
   </g>
   <g id="castellated_pin_28">
    <path fill="#B2B2B2" d="M772 856c-10,0 -19,-11 -19,-25 0,-14 9,-25 19,-25l0 12c-6,0 -10,6 -10,13 0,7 4,13 10,13l0 12z"/>
    <polygon fill="#CCCCCC" points="772,844 772,856 778,856 778,844 "/>
    <polygon fill="#CCCCCC" points="772,807 772,818 778,818 778,807 "/>
    <path fill="#666666" d="M778 818l-6 0 0 0c-6,0 -10,6 -10,13 0,7 4,13 10,13l6 0c-5,-1 -9,-6 -9,-13 0,-7 4,-13 9,-13z"/>
   </g>
   <g id="castellated_pin_29">
    <path fill="#B2B2B2" d="M772 757c-10,0 -19,-11 -19,-25 0,-14 9,-25 19,-25l0 12c-6,0 -10,6 -10,13 0,7 4,13 10,13l0 12z"/>
    <polygon fill="#CCCCCC" points="772,745 772,757 778,757 778,745 "/>
    <polygon fill="#CCCCCC" points="772,707 772,719 778,719 778,707 "/>
    <path fill="#666666" d="M778 719l-6 0 0 0c-6,0 -10,6 -10,13 0,7 4,13 10,13l6 0c-5,-1 -9,-6 -9,-13 0,-7 4,-13 9,-13z"/>
   </g>
   <g id="castellated_pin_30">
    <path fill="#B2B2B2" d="M772 657c-10,0 -19,-11 -19,-25 0,-14 9,-25 19,-25l0 12c-6,0 -10,6 -10,13 0,7 4,13 10,13l0 12z"/>
    <polygon fill="#CCCCCC" points="772,645 772,657 778,657 778,645 "/>
    <polygon fill="#CCCCCC" points="772,607 772,619 778,619 778,607 "/>
    <path fill="#666666" d="M778 619l-6 0 0 0c-6,0 -10,6 -10,13 0,7 4,13 10,13l6 0c-5,-1 -9,-6 -9,-13 0,-7 4,-13 9,-13z"/>
   </g>
   <g id="castellated_pin_31">
    <path fill="#B2B2B2" d="M772 557c-10,0 -19,-11 -19,-25 0,-14 9,-25 19,-25l0 12c-6,0 -10,6 -10,13 0,7 4,13 10,13l0 12z"/>
    <polygon fill="#CCCCCC" points="772,545 772,557 778,557 778,545 "/>
    <polygon fill="#CCCCCC" points="772,507 772,519 778,519 778,507 "/>
    <path fill="#666666" d="M778 519l-6 0 0 0c-6,0 -10,6 -10,13 0,7 4,13 10,13l6 0c-5,-1 -9,-6 -9,-13 0,-7 4,-13 9,-13z"/>
   </g>
   <g id="castellated_pin_32">
    <path fill="#B2B2B2" d="M772 1356c-10,0 -19,-11 -19,-25 0,-14 9,-25 19,-25l0 12c-6,0 -10,6 -10,13 0,7 4,13 10,13l0 12z"/>
    <polygon fill="#CCCCCC" points="772,1344 772,1356 778,1356 778,1344 "/>
    <polygon fill="#CCCCCC" points="772,1306 772,1318 778,1318 778,1306 "/>
    <path fill="#666666" d="M778 1318l-6 0 0 0c-6,0 -10,6 -10,13 0,7 4,13 10,13l6 0c-5,-1 -9,-6 -9,-13 0,-7 4,-13 9,-13z"/>
   </g>
   <g id="castellated_pin_33">
    <path fill="#B2B2B2" d="M772 1256c-10,0 -19,-11 -19,-25 0,-14 9,-25 19,-25l0 12c-6,0 -10,6 -10,13 0,7 4,13 10,13l0 12z"/>
    <polygon fill="#CCCCCC" points="772,1244 772,1256 778,1256 778,1244 "/>
    <polygon fill="#CCCCCC" points="772,1206 772,1218 778,1218 778,1206 "/>
    <path fill="#666666" d="M778 1218l-6 0 0 0c-6,0 -10,6 -10,13 0,7 4,13 10,13l6 0c-5,-1 -9,-6 -9,-13 0,-7 4,-13 9,-13z"/>
   </g>
   <g id="castellated_pin_34">
    <path fill="#B2B2B2" d="M772 1156c-10,0 -19,-11 -19,-25 0,-14 9,-25 19,-25l0 12c-6,0 -10,6 -10,13 0,7 4,13 10,13l0 12z"/>
    <polygon fill="#CCCCCC" points="772,1144 772,1156 778,1156 778,1144 "/>
    <polygon fill="#CCCCCC" points="772,1106 772,1118 778,1118 778,1106 "/>
    <path fill="#666666" d="M778 1118l-6 0 0 0c-6,0 -10,6 -10,13 0,7 4,13 10,13l6 0c-5,-1 -9,-6 -9,-13 0,-7 4,-13 9,-13z"/>
   </g>
   <g id="castellated_pin_35">
    <path fill="#B2B2B2" d="M772 1056c-10,0 -19,-11 -19,-25 0,-14 9,-25 19,-25l0 12c-6,0 -10,6 -10,13 0,7 4,13 10,13l0 12z"/>
    <polygon fill="#CCCCCC" points="772,1044 772,1056 778,1056 778,1044 "/>
    <polygon fill="#CCCCCC" points="772,1006 772,1018 778,1018 778,1006 "/>
    <path fill="#666666" d="M778 1018l-6 0 0 0c-6,0 -10,6 -10,13 0,7 4,13 10,13l6 0c-5,-1 -9,-6 -9,-13 0,-7 4,-13 9,-13z"/>
   </g>
   <g id="castellated_pin_36">
    <path fill="#B2B2B2" d="M772 956c-10,0 -19,-11 -19,-25 0,-14 9,-25 19,-25l0 12c-6,0 -10,6 -10,13 0,7 4,13 10,13l0 12z"/>
    <polygon fill="#CCCCCC" points="772,944 772,956 778,956 778,944 "/>
    <polygon fill="#CCCCCC" points="772,906 772,918 778,918 778,906 "/>
    <path fill="#666666" d="M778 918l-6 0 0 0c-6,0 -10,6 -10,13 0,7 4,13 10,13l6 0c-5,-1 -9,-6 -9,-13 0,-7 4,-13 9,-13z"/>
   </g>
  </g>
 </g>
</svg>
