<?xml version="1.0" encoding="UTF-8"?>
<svg width="23px" height="24px" viewBox="0 0 23 24" version="1.1" xmlns="http://www.w3.org/2000/svg" xmlns:xlink="http://www.w3.org/1999/xlink">
    <!-- Generator: Sketch 52.2 (67145) - http://www.bohemiancoding.com/sketch -->
    <title>sales</title>
    <desc>Created with Sketch.</desc>
    <g id="Page-1—New" stroke="none" stroke-width="1" fill="none" fill-rule="evenodd">
        <g id="sales">
            <g id="Duotone">
                <g id="Group" fill="#FFFFFF">
                    <polygon id="Path" points="21.5 19.5 11.5 17.5 1.5 19.5 0.5 23.5 22.5 23.5"></polygon>
                    <polygon id="Path" points="20.5 7.5 17.5 7.5 17.5 3 11.5 0.5 5.5 3.1 5.5 8.5 3.5 8.5 3.5 11 5.5 12 5.5 14 11.5 16.5 17.5 14 17.5 11.5 20.5 11.5 21.5 9.5"></polygon>
                </g>
                <polygon id="Path" fill="#B2C0DB" points="13 23.5 11.5 21.5 10 23.5"></polygon>
                <polygon id="Path" fill="#B2C0DB" points="17.5 9.5 17.5 11.5 20.5 11.5 21.5 9.5"></polygon>
                <polygon id="Path" fill="#B2C0DB" points="5.5 5.1 5.5 8.5 8 6.5 11 7.5 17.5 7.5 17.5 5 11.5 2.5"></polygon>
                <polygon id="Path" fill="#B2C0DB" points="11.5 21.5 10 19.5 11.5 17.5 13 19.5"></polygon>
                <polyline id="Path" stroke="#002F87" stroke-linecap="round" stroke-linejoin="round" points="11.5 14.5 17.5 14.5 19.5 11.5"></polyline>
                <polygon id="Path" stroke="#002F87" stroke-linecap="round" stroke-linejoin="round" points="11.5 21.5 10 19.5 11.5 17.5 13 19.5"></polygon>
                <polyline id="Path" stroke="#002F87" stroke-linecap="round" stroke-linejoin="round" points="13 23.5 11.5 21.5 10 23.5"></polyline>
                <path d="M15.5,22.5 L18.5,22.5" id="Path" stroke="#002F87" stroke-linecap="round" stroke-linejoin="round"></path>
                <polyline id="Path" stroke="#002F87" stroke-linecap="round" stroke-linejoin="round" points="12.7 16 11.5 16.5 5.5 14 5.5 8.5"></polyline>
                <polyline id="Path" stroke="#002F87" stroke-linecap="round" stroke-linejoin="round" points="5.5 8.5 3.5 8.5 3.5 11 5.5 12"></polyline>
                <path d="M9.5,9.5 L9.5,10.5" id="Path" stroke="#002F87" stroke-linecap="round" stroke-linejoin="round"></path>
                <path d="M13.5,9.5 L13.5,10.5" id="Path" stroke="#002F87" stroke-linecap="round" stroke-linejoin="round"></path>
                <polyline id="Path" stroke="#002F87" stroke-linecap="round" stroke-linejoin="round" points="22.5 23.5 21.5 19.5 11.5 17.5 1.5 19.5 0.5 23.5"></polyline>
                <polygon id="Path" stroke="#002F87" stroke-linecap="round" stroke-linejoin="round" points="8 6.5 5.5 8.5 5.5 3.1 11.5 0.5 17.5 3 17.5 7.5 11 7.5"></polygon>
                <polygon id="Path" stroke="#002F87" stroke-linecap="round" stroke-linejoin="round" points="17.5 7.5 20.5 7.5 21.5 9.5 20.5 11.5 17.5 11.5"></polygon>
            </g>
            <g id="Frames-24px">
                <rect id="Rectangle" x="0" y="0" width="24" height="24"></rect>
            </g>
        </g>
    </g>
</svg>