<?xml version="1.0" encoding="UTF-8"?>
<svg width="35px" height="36px" viewBox="0 0 35 36" version="1.1" xmlns="http://www.w3.org/2000/svg" xmlns:xlink="http://www.w3.org/1999/xlink">
    <!-- Generator: Sketch 57.1 (83088) - https://sketch.com -->
    <title>businessman</title>
    <desc>Created with Sketch.</desc>
    <g id="Docs" stroke="none" stroke-width="1" fill="none" fill-rule="evenodd">
        <g id="Desktop" transform="translate(-1127.000000, -602.000000)">
            <g id="businessman" transform="translate(1127.000000, 602.000000)">
                <g id="Duotone">
                    <g id="Group" fill="#FFFFFF" fill-rule="nonzero">
                        <polygon id="Path" points="8.25 21 17.25 24.75 26.25 21 26.25 18 29.25 16.5 29.25 12.75 26.25 12.75 26.25 11.25 26.25 4.5 17.25 0.75 8.25 4.65 8.25 12.75 5.25 12.75 5.25 16.5 8.25 18"></polygon>
                        <polygon id="Path" points="32.25 29.25 17.25 26.25 2.25 29.25 0.75 35.25 33.75 35.25"></polygon>
                    </g>
                    <polygon id="Path" fill="#B2C0DB" fill-rule="nonzero" points="8.25 7.65 8.25 12.75 12 9.75 16.5 11.25 26.25 11.25 26.25 7.5 17.25 3.75"></polygon>
                    <polygon id="Path" fill="#B2C0DB" fill-rule="nonzero" points="17.25 32.25 15 29.25 17.25 26.25 19.5 29.25"></polygon>
                    <polyline id="Path" fill="#B2C0DB" fill-rule="nonzero" points="19.5 35.25 17.25 32.25 15 35.25"></polyline>
                    <polyline id="Path" stroke="#002F87" stroke-width="1.5" stroke-linecap="round" stroke-linejoin="round" points="26.25 12.75 29.25 12.75 29.25 16.5 26.25 18"></polyline>
                    <polygon id="Path" stroke="#002F87" stroke-width="1.5" stroke-linecap="round" stroke-linejoin="round" points="17.25 32.25 15 29.25 17.25 26.25 19.5 29.25"></polygon>
                    <polyline id="Path" stroke="#002F87" stroke-width="1.5" stroke-linecap="round" stroke-linejoin="round" points="19.5 35.25 17.25 32.25 15 35.25"></polyline>
                    <path d="M23.25,33.75 L27.75,33.75" id="Path" stroke="#002F87" stroke-width="1.5" stroke-linecap="round" stroke-linejoin="round"></path>
                    <polyline id="Path" stroke="#002F87" stroke-width="1.5" stroke-linecap="round" stroke-linejoin="round" points="26.25 11.25 26.25 21 17.25 24.75 8.25 21 8.25 12.75"></polyline>
                    <polyline id="Path" stroke="#002F87" stroke-width="1.5" stroke-linecap="round" stroke-linejoin="round" points="8.25 12.75 5.25 12.75 5.25 16.5 8.25 18"></polyline>
                    <path d="M14.25,14.25 L14.25,15.75" id="Path" stroke="#002F87" stroke-width="1.5" stroke-linecap="round" stroke-linejoin="round"></path>
                    <path d="M20.25,14.25 L20.25,15.75" id="Path" stroke="#002F87" stroke-width="1.5" stroke-linecap="round" stroke-linejoin="round"></path>
                    <polyline id="Path" stroke="#002F87" stroke-width="1.5" stroke-linecap="round" stroke-linejoin="round" points="15 19.5 17.25 20.25 19.5 19.5"></polyline>
                    <polyline id="Path" stroke="#002F87" stroke-width="1.5" stroke-linecap="round" stroke-linejoin="round" points="33.75 35.25 32.25 29.25 17.25 26.25 2.25 29.25 0.75 35.25"></polyline>
                    <polygon id="Path" stroke="#002F87" stroke-width="1.5" stroke-linecap="round" stroke-linejoin="round" points="12 9.75 8.25 12.75 8.25 4.65 17.25 0.75 26.25 4.5 26.25 11.25 16.5 11.25"></polygon>
                </g>
                <g id="Frames-24px">
                    <rect id="Rectangle" x="0" y="0" width="36" height="36"></rect>
                </g>
            </g>
        </g>
    </g>
</svg>