<?xml version="1.0" encoding="UTF-8"?>
<svg width="23px" height="23px" viewBox="0 0 23 23" version="1.1" xmlns="http://www.w3.org/2000/svg" xmlns:xlink="http://www.w3.org/1999/xlink">
    <!-- Generator: Sketch 52.2 (67145) - http://www.bohemiancoding.com/sketch -->
    <title>troubleshoot</title>
    <desc>Created with Sketch.</desc>
    <g id="Page-1—New" stroke="none" stroke-width="1" fill="none" fill-rule="evenodd">
        <g id="troubleshoot" transform="translate(0.000000, -1.000000)">
            <g id="Duotone" transform="translate(0.000000, 1.000000)">
                <polygon id="Path" fill="#FFFFFF" points="13.582 11.5 16.735 8.347 19.377 9.173 22.5 6.051 21.741 3.34 18.857 6.224 16.776 4.143 19.659 1.259 16.949 0.5 13.827 3.622 14.653 6.265 11.5 9.418 8.347 6.265 9.173 3.622 6.051 0.5 3.341 1.259 6.224 4.143 4.143 6.224 1.259 3.34 0.5 6.051 3.623 9.173 6.265 8.347 9.418 11.5 6.265 14.653 3.622 13.827 0.5 16.949 1.259 19.659 4.143 16.776 6.224 18.857 3.341 21.741 6.051 22.5 9.173 19.377 8.347 16.735 11.5 13.581 14.653 16.735 13.827 19.377 16.949 22.5 19.659 21.741 16.776 18.857 18.857 16.776 21.741 19.659 22.5 16.949 19.378 13.827 16.735 14.653"></polygon>
                <polygon id="Path" fill="#B2C0DB" points="18.857 6.224 17.792 5.159 12.517 10.435 13.582 11.5 16.735 8.347 19.377 9.173 22.5 6.051 21.741 3.34"></polygon>
                <polygon id="Path" fill="#B2C0DB" points="10.435 12.516 5.159 17.792 6.224 18.857 3.341 21.741 6.051 22.5 9.173 19.377 8.347 16.735 11.5 13.581"></polygon>
                <polygon id="Path" fill="#B2C0DB" points="17.677 17.955 5.044 5.323 4.143 6.224 1.259 3.34 0.5 6.051 3.623 9.173 6.265 8.347 14.653 16.735 13.827 19.377 16.949 22.5 19.659 21.741 16.776 18.857"></polygon>
                <polygon id="Path" stroke="#002F87" stroke-linecap="round" stroke-linejoin="round" points="11.5 9.418 13.582 11.5 16.735 8.347 19.377 9.173 22.5 6.051 21.741 3.34 18.857 6.224 16.776 4.143 19.659 1.259 16.949 0.5 13.827 3.622 14.653 6.265"></polygon>
                <polygon id="Path" stroke="#002F87" stroke-linecap="round" stroke-linejoin="round" points="11.5 13.581 9.418 11.5 6.265 14.653 3.622 13.827 0.5 16.949 1.259 19.659 4.143 16.776 6.224 18.857 3.341 21.741 6.051 22.5 9.173 19.377 8.347 16.735"></polygon>
                <polygon id="Path" stroke="#002F87" stroke-linecap="round" stroke-linejoin="round" points="3.622 9.173 0.5 6.051 1.259 3.34 4.143 6.224 6.224 4.143 3.341 1.259 6.051 0.5 9.173 3.622 8.347 6.265 16.735 14.653 19.378 13.827 22.5 16.949 21.741 19.659 18.857 16.776 16.776 18.857 19.659 21.741 16.949 22.5 13.827 19.377 14.653 16.735 6.265 8.347"></polygon>
            </g>
            <g id="Frames-24px">
                <rect id="Rectangle" x="0" y="0" width="24" height="24"></rect>
            </g>
        </g>
    </g>
</svg>