<?xml version="1.0" encoding="UTF-8" standalone="no"?>
<!DOCTYPE svg PUBLIC "-//W3C//DTD SVG 1.1//EN" "http://www.w3.org/Graphics/SVG/1.1/DTD/svg11.dtd">
<svg width="471" height="320" viewBox="0 0 471 320" version="1.1" xmlns="http://www.w3.org/2000/svg" xmlns:xlink="http://www.w3.org/1999/xlink" xml:space="preserve" xmlns:serif="http://www.serif.com/" style="fill-rule:evenodd;clip-rule:evenodd;stroke-linecap:round;stroke-linejoin:round;stroke-miterlimit:1.5;">
    <g id="Artboard1" transform="matrix(1,0,0,1,-396.207,-809.918)">
        <rect x="396.207" y="809.918" width="470.416" height="319.513" style="fill:rgb(170,159,159);"/>
        <clipPath id="_clip1">
            <rect x="396.207" y="809.918" width="470.416" height="319.513"/>
        </clipPath>
        <g clip-path="url(#_clip1)">
            <g transform="matrix(0.336374,0,0,0.469574,273.192,428.651)">
                <path d="M1764.82,847.919L1764.82,1460.31C1764.82,1479.08 1743.54,1494.33 1717.32,1494.33L413.816,1494.33C387.604,1494.33 366.323,1479.08 366.323,1460.31L366.323,847.919C366.323,829.142 387.604,813.897 413.816,813.897L1717.32,813.897C1743.54,813.897 1764.82,829.142 1764.82,847.919Z" style="fill:rgb(179,179,179);"/>
            </g>
            <g transform="matrix(0.791446,0,0,0.842447,168.192,238.243)">
                <ellipse cx="325.155" cy="714.989" rx="27.44" ry="26.118" style="stroke:rgb(249,202,13);stroke-width:17.84px;"/>
            </g>
            <g transform="matrix(1,0,0,1,0.206883,-0.0822925)">
                <g transform="matrix(0.253509,0,0,0.276875,396.608,613.588)">
                    <clipPath id="_clip2">
                        <rect x="286.792" y="711.855" width="80.289" height="39.009"/>
                    </clipPath>
                    <g clip-path="url(#_clip2)">
                        <ellipse cx="325.155" cy="714.989" rx="27.44" ry="26.118" style="stroke:rgb(249,202,13);stroke-width:17.27px;"/>
                    </g>
                </g>
                <g transform="matrix(0.253509,0,0,0.276875,426.54,613.588)">
                    <clipPath id="_clip3">
                        <rect x="286.792" y="711.855" width="80.289" height="39.009"/>
                    </clipPath>
                    <g clip-path="url(#_clip3)">
                        <ellipse cx="325.155" cy="714.989" rx="27.44" ry="26.118" style="stroke:rgb(249,202,13);stroke-width:17.27px;"/>
                    </g>
                </g>
                <g transform="matrix(0.253509,0,0,0.276875,456.472,613.588)">
                    <clipPath id="_clip4">
                        <rect x="286.792" y="711.855" width="80.289" height="39.009"/>
                    </clipPath>
                    <g clip-path="url(#_clip4)">
                        <ellipse cx="325.155" cy="714.989" rx="27.44" ry="26.118" style="stroke:rgb(249,202,13);stroke-width:17.27px;"/>
                    </g>
                </g>
                <g transform="matrix(0.253509,0,0,0.276875,486.404,613.588)">
                    <clipPath id="_clip5">
                        <rect x="286.792" y="711.855" width="80.289" height="39.009"/>
                    </clipPath>
                    <g clip-path="url(#_clip5)">
                        <ellipse cx="325.155" cy="714.989" rx="27.44" ry="26.118" style="stroke:rgb(249,202,13);stroke-width:17.27px;"/>
                    </g>
                </g>
                <g transform="matrix(0.253509,0,0,0.276875,516.336,613.588)">
                    <clipPath id="_clip6">
                        <rect x="286.792" y="711.855" width="80.289" height="39.009"/>
                    </clipPath>
                    <g clip-path="url(#_clip6)">
                        <ellipse cx="325.155" cy="714.989" rx="27.44" ry="26.118" style="stroke:rgb(249,202,13);stroke-width:17.27px;"/>
                    </g>
                </g>
                <g transform="matrix(0.253509,0,0,0.276875,546.268,613.588)">
                    <clipPath id="_clip7">
                        <rect x="286.792" y="711.855" width="80.289" height="39.009"/>
                    </clipPath>
                    <g clip-path="url(#_clip7)">
                        <ellipse cx="325.155" cy="714.989" rx="27.44" ry="26.118" style="stroke:rgb(249,202,13);stroke-width:17.27px;"/>
                    </g>
                </g>
                <g transform="matrix(0.253509,0,0,0.276875,576.2,613.588)">
                    <clipPath id="_clip8">
                        <rect x="286.792" y="711.855" width="80.289" height="39.009"/>
                    </clipPath>
                    <g clip-path="url(#_clip8)">
                        <ellipse cx="325.155" cy="714.989" rx="27.44" ry="26.118" style="stroke:rgb(249,202,13);stroke-width:17.27px;"/>
                    </g>
                </g>
                <g transform="matrix(0.253509,0,0,0.276875,606.132,613.588)">
                    <clipPath id="_clip9">
                        <rect x="286.792" y="711.855" width="80.289" height="39.009"/>
                    </clipPath>
                    <g clip-path="url(#_clip9)">
                        <ellipse cx="325.155" cy="714.989" rx="27.44" ry="26.118" style="stroke:rgb(249,202,13);stroke-width:17.27px;"/>
                    </g>
                </g>
                <g transform="matrix(0.253509,0,0,0.276875,636.064,613.588)">
                    <clipPath id="_clip10">
                        <rect x="286.792" y="711.855" width="80.289" height="39.009"/>
                    </clipPath>
                    <g clip-path="url(#_clip10)">
                        <ellipse cx="325.155" cy="714.989" rx="27.44" ry="26.118" style="stroke:rgb(249,202,13);stroke-width:17.27px;"/>
                    </g>
                </g>
                <g transform="matrix(0.253509,0,0,0.276875,665.996,613.588)">
                    <clipPath id="_clip11">
                        <rect x="286.792" y="711.855" width="80.289" height="39.009"/>
                    </clipPath>
                    <g clip-path="url(#_clip11)">
                        <ellipse cx="325.155" cy="714.989" rx="27.44" ry="26.118" style="stroke:rgb(249,202,13);stroke-width:17.27px;"/>
                    </g>
                </g>
                <g transform="matrix(0.253509,0,0,0.276875,695.928,613.588)">
                    <clipPath id="_clip12">
                        <rect x="286.792" y="711.855" width="80.289" height="39.009"/>
                    </clipPath>
                    <g clip-path="url(#_clip12)">
                        <ellipse cx="325.155" cy="714.989" rx="27.44" ry="26.118" style="stroke:rgb(249,202,13);stroke-width:17.27px;"/>
                    </g>
                </g>
                <g transform="matrix(0.253509,0,0,0.276875,725.86,613.588)">
                    <clipPath id="_clip13">
                        <rect x="286.792" y="711.855" width="80.289" height="39.009"/>
                    </clipPath>
                    <g clip-path="url(#_clip13)">
                        <ellipse cx="325.155" cy="714.989" rx="27.44" ry="26.118" style="stroke:rgb(249,202,13);stroke-width:17.27px;"/>
                    </g>
                </g>
            </g>
            <g transform="matrix(-1,-1.22465e-16,1.22465e-16,-1,1256.51,1941.03)">
                <g transform="matrix(0.253509,0,0,0.276875,396.608,613.588)">
                    <clipPath id="_clip14">
                        <rect x="286.792" y="711.855" width="80.289" height="39.009"/>
                    </clipPath>
                    <g clip-path="url(#_clip14)">
                        <ellipse cx="325.155" cy="714.989" rx="27.44" ry="26.118" style="stroke:rgb(249,202,13);stroke-width:17.27px;"/>
                    </g>
                </g>
                <g transform="matrix(0.253509,0,0,0.276875,426.54,613.588)">
                    <clipPath id="_clip15">
                        <rect x="286.792" y="711.855" width="80.289" height="39.009"/>
                    </clipPath>
                    <g clip-path="url(#_clip15)">
                        <ellipse cx="325.155" cy="714.989" rx="27.44" ry="26.118" style="stroke:rgb(249,202,13);stroke-width:17.27px;"/>
                    </g>
                </g>
                <g transform="matrix(0.253509,0,0,0.276875,456.472,613.588)">
                    <clipPath id="_clip16">
                        <rect x="286.792" y="711.855" width="80.289" height="39.009"/>
                    </clipPath>
                    <g clip-path="url(#_clip16)">
                        <ellipse cx="325.155" cy="714.989" rx="27.44" ry="26.118" style="stroke:rgb(249,202,13);stroke-width:17.27px;"/>
                    </g>
                </g>
                <g transform="matrix(0.253509,0,0,0.276875,486.404,613.588)">
                    <clipPath id="_clip17">
                        <rect x="286.792" y="711.855" width="80.289" height="39.009"/>
                    </clipPath>
                    <g clip-path="url(#_clip17)">
                        <ellipse cx="325.155" cy="714.989" rx="27.44" ry="26.118" style="stroke:rgb(249,202,13);stroke-width:17.27px;"/>
                    </g>
                </g>
                <g transform="matrix(0.253509,0,0,0.276875,516.336,613.588)">
                    <clipPath id="_clip18">
                        <rect x="286.792" y="711.855" width="80.289" height="39.009"/>
                    </clipPath>
                    <g clip-path="url(#_clip18)">
                        <ellipse cx="325.155" cy="714.989" rx="27.44" ry="26.118" style="stroke:rgb(249,202,13);stroke-width:17.27px;"/>
                    </g>
                </g>
                <g transform="matrix(0.253509,0,0,0.276875,546.268,613.588)">
                    <clipPath id="_clip19">
                        <rect x="286.792" y="711.855" width="80.289" height="39.009"/>
                    </clipPath>
                    <g clip-path="url(#_clip19)">
                        <ellipse cx="325.155" cy="714.989" rx="27.44" ry="26.118" style="stroke:rgb(249,202,13);stroke-width:17.27px;"/>
                    </g>
                </g>
                <g transform="matrix(0.253509,0,0,0.276875,576.2,613.588)">
                    <clipPath id="_clip20">
                        <rect x="286.792" y="711.855" width="80.289" height="39.009"/>
                    </clipPath>
                    <g clip-path="url(#_clip20)">
                        <ellipse cx="325.155" cy="714.989" rx="27.44" ry="26.118" style="stroke:rgb(249,202,13);stroke-width:17.27px;"/>
                    </g>
                </g>
                <g transform="matrix(0.253509,0,0,0.276875,606.132,613.588)">
                    <clipPath id="_clip21">
                        <rect x="286.792" y="711.855" width="80.289" height="39.009"/>
                    </clipPath>
                    <g clip-path="url(#_clip21)">
                        <ellipse cx="325.155" cy="714.989" rx="27.44" ry="26.118" style="stroke:rgb(249,202,13);stroke-width:17.27px;"/>
                    </g>
                </g>
                <g transform="matrix(0.253509,0,0,0.276875,636.064,613.588)">
                    <clipPath id="_clip22">
                        <rect x="286.792" y="711.855" width="80.289" height="39.009"/>
                    </clipPath>
                    <g clip-path="url(#_clip22)">
                        <ellipse cx="325.155" cy="714.989" rx="27.44" ry="26.118" style="stroke:rgb(249,202,13);stroke-width:17.27px;"/>
                    </g>
                </g>
                <g transform="matrix(0.253509,0,0,0.276875,665.996,613.588)">
                    <clipPath id="_clip23">
                        <rect x="286.792" y="711.855" width="80.289" height="39.009"/>
                    </clipPath>
                    <g clip-path="url(#_clip23)">
                        <ellipse cx="325.155" cy="714.989" rx="27.44" ry="26.118" style="stroke:rgb(249,202,13);stroke-width:17.27px;"/>
                    </g>
                </g>
                <g transform="matrix(0.253509,0,0,0.276875,695.928,613.588)">
                    <clipPath id="_clip24">
                        <rect x="286.792" y="711.855" width="80.289" height="39.009"/>
                    </clipPath>
                    <g clip-path="url(#_clip24)">
                        <ellipse cx="325.155" cy="714.989" rx="27.44" ry="26.118" style="stroke:rgb(249,202,13);stroke-width:17.27px;"/>
                    </g>
                </g>
                <g transform="matrix(0.253509,0,0,0.276875,725.86,613.588)">
                    <clipPath id="_clip25">
                        <rect x="286.792" y="711.855" width="80.289" height="39.009"/>
                    </clipPath>
                    <g clip-path="url(#_clip25)">
                        <ellipse cx="325.155" cy="714.989" rx="27.44" ry="26.118" style="stroke:rgb(249,202,13);stroke-width:17.27px;"/>
                    </g>
                </g>
            </g>
            <g transform="matrix(0.791446,0,0,0.842447,578.913,498.01)">
                <ellipse cx="325.155" cy="714.989" rx="27.44" ry="26.118" style="stroke:rgb(249,202,13);stroke-width:17.84px;"/>
            </g>
            <g transform="matrix(1,0,0,1,396.207,809.918)">
                <rect x="83.442" y="39.469" width="304.202" height="244.989" style="fill:rgb(170,159,159);"/>
            </g>
            <g transform="matrix(1,0,0,1,396.207,809.918)">
                <rect x="-50.916" y="0" width="50.916" height="48.945" style="fill:rgb(170,159,159);stroke:black;stroke-width:0.83px;stroke-dasharray:0.83,0.83;"/>
            </g>
            <g transform="matrix(1,0,0,1,396.207,809.918)">
                <rect x="16.095" y="78.219" width="67.347" height="206.24" style="fill:rgb(170,159,159);"/>
            </g>
            <g transform="matrix(1,0,0,1,396.207,809.918)">
                <rect x="387.644" y="39.469" width="65.171" height="207.08" style="fill:rgb(170,159,159);"/>
            </g>
        </g>
    </g>
</svg>
