<?xml version="1.0" encoding="UTF-8" standalone="no"?>
<!DOCTYPE svg PUBLIC "-//W3C//DTD SVG 1.1//EN" "http://www.w3.org/Graphics/SVG/1.1/DTD/svg11.dtd">
<svg width="100%" height="100%" viewBox="0 0 1826 1233" version="1.1" xmlns="http://www.w3.org/2000/svg" xmlns:xlink="http://www.w3.org/1999/xlink" xml:space="preserve" xmlns:serif="http://www.serif.com/" style="fill-rule:evenodd;clip-rule:evenodd;stroke-linejoin:round;stroke-miterlimit:2;">
    <g transform="matrix(1,0,0,1.39895,0,-21.09)">
        <path d="M36.219,795.283L36.219,85.554C36.219,67.512 56.71,52.864 81.95,52.864L1734.77,52.864C1760.01,52.864 1780.51,67.512 1780.51,85.554L1780.51,837.423C1780.51,855.466 1760.01,870.113 1734.77,870.113L137.351,870.113C137.351,870.024 137.305,869.934 137.211,869.865L36.578,795.392C36.48,795.32 36.35,795.283 36.219,795.283Z" style="fill:rgb(158,151,132);"/>
    </g>
    <g>
        <g>
            <g transform="matrix(1,0,0,1,0.299801,-2.61816)">
                <path d="M187.132,55.482C186.865,69.038 175.777,79.962 162.157,79.962C148.538,79.962 137.449,69.038 137.183,55.482L149.677,55.482C149.94,62.144 155.431,67.472 162.157,67.472C168.883,67.472 174.374,62.144 174.637,55.482L187.132,55.482Z" style="fill:rgb(224,178,33);"/>
            </g>
            <g transform="matrix(1,0,0,1,-1.00391,-9.29688)">
                <path d="M163.431,82.712C188.212,82.712 208.332,102.832 208.332,127.614C208.332,152.395 188.212,172.515 163.431,172.515C138.649,172.515 118.529,152.395 118.529,127.614C118.529,102.832 138.649,82.712 163.431,82.712ZM163.431,105.163C175.822,105.163 185.881,115.223 185.881,127.614C185.881,140.005 175.822,150.064 163.431,150.064C151.04,150.064 140.98,140.005 140.98,127.614C140.98,115.223 151.04,105.163 163.431,105.163Z" style="fill:rgb(224,178,33);"/>
            </g>
        </g>
        <g transform="matrix(1,0,0,1,126.58,0)">
            <g transform="matrix(1,0,0,1,0.299801,-2.61816)">
                <path d="M187.132,55.482C186.865,69.038 175.777,79.962 162.157,79.962C148.538,79.962 137.449,69.038 137.183,55.482L149.677,55.482C149.94,62.144 155.431,67.472 162.157,67.472C168.883,67.472 174.374,62.144 174.637,55.482L187.132,55.482Z" style="fill:rgb(224,178,33);"/>
            </g>
            <g transform="matrix(1,0,0,1,-1.00391,-9.29688)">
                <path d="M163.431,82.712C188.212,82.712 208.332,102.832 208.332,127.614C208.332,152.395 188.212,172.515 163.431,172.515C138.649,172.515 118.529,152.395 118.529,127.614C118.529,102.832 138.649,82.712 163.431,82.712ZM163.431,105.163C175.822,105.163 185.881,115.223 185.881,127.614C185.881,140.005 175.822,150.064 163.431,150.064C151.04,150.064 140.98,140.005 140.98,127.614C140.98,115.223 151.04,105.163 163.431,105.163Z" style="fill:rgb(224,178,33);"/>
            </g>
        </g>
        <g transform="matrix(1,0,0,1,253.159,0)">
            <g transform="matrix(1,0,0,1,0.299801,-2.61816)">
                <path d="M187.132,55.482C186.865,69.038 175.777,79.962 162.157,79.962C148.538,79.962 137.449,69.038 137.183,55.482L149.677,55.482C149.94,62.144 155.431,67.472 162.157,67.472C168.883,67.472 174.374,62.144 174.637,55.482L187.132,55.482Z" style="fill:rgb(224,178,33);"/>
            </g>
            <g transform="matrix(1,0,0,1,-1.00391,-9.29688)">
                <path d="M163.431,82.712C188.212,82.712 208.332,102.832 208.332,127.614C208.332,152.395 188.212,172.515 163.431,172.515C138.649,172.515 118.529,152.395 118.529,127.614C118.529,102.832 138.649,82.712 163.431,82.712ZM163.431,105.163C175.822,105.163 185.881,115.223 185.881,127.614C185.881,140.005 175.822,150.064 163.431,150.064C151.04,150.064 140.98,140.005 140.98,127.614C140.98,115.223 151.04,105.163 163.431,105.163Z" style="fill:rgb(224,178,33);"/>
            </g>
        </g>
        <g transform="matrix(1,0,0,1,379.739,0)">
            <g transform="matrix(1,0,0,1,0.299801,-2.61816)">
                <path d="M187.132,55.482C186.865,69.038 175.777,79.962 162.157,79.962C148.538,79.962 137.449,69.038 137.183,55.482L149.677,55.482C149.94,62.144 155.431,67.472 162.157,67.472C168.883,67.472 174.374,62.144 174.637,55.482L187.132,55.482Z" style="fill:rgb(224,178,33);"/>
            </g>
            <g transform="matrix(1,0,0,1,-1.00391,-9.29688)">
                <path d="M163.431,82.712C188.212,82.712 208.332,102.832 208.332,127.614C208.332,152.395 188.212,172.515 163.431,172.515C138.649,172.515 118.529,152.395 118.529,127.614C118.529,102.832 138.649,82.712 163.431,82.712ZM163.431,105.163C175.822,105.163 185.881,115.223 185.881,127.614C185.881,140.005 175.822,150.064 163.431,150.064C151.04,150.064 140.98,140.005 140.98,127.614C140.98,115.223 151.04,105.163 163.431,105.163Z" style="fill:rgb(224,178,33);"/>
            </g>
        </g>
        <g transform="matrix(1,0,0,1,506.318,0)">
            <g transform="matrix(1,0,0,1,0.299801,-2.61816)">
                <path d="M187.132,55.482C186.865,69.038 175.777,79.962 162.157,79.962C148.538,79.962 137.449,69.038 137.183,55.482L149.677,55.482C149.94,62.144 155.431,67.472 162.157,67.472C168.883,67.472 174.374,62.144 174.637,55.482L187.132,55.482Z" style="fill:rgb(224,178,33);"/>
            </g>
            <g transform="matrix(1,0,0,1,-1.00391,-9.29688)">
                <path d="M163.431,82.712C188.212,82.712 208.332,102.832 208.332,127.614C208.332,152.395 188.212,172.515 163.431,172.515C138.649,172.515 118.529,152.395 118.529,127.614C118.529,102.832 138.649,82.712 163.431,82.712ZM163.431,105.163C175.822,105.163 185.881,115.223 185.881,127.614C185.881,140.005 175.822,150.064 163.431,150.064C151.04,150.064 140.98,140.005 140.98,127.614C140.98,115.223 151.04,105.163 163.431,105.163Z" style="fill:rgb(224,178,33);"/>
            </g>
        </g>
        <g transform="matrix(1,0,0,1,632.898,0)">
            <g transform="matrix(1,0,0,1,0.299801,-2.61816)">
                <path d="M187.132,55.482C186.865,69.038 175.777,79.962 162.157,79.962C148.538,79.962 137.449,69.038 137.183,55.482L149.677,55.482C149.94,62.144 155.431,67.472 162.157,67.472C168.883,67.472 174.374,62.144 174.637,55.482L187.132,55.482Z" style="fill:rgb(224,178,33);"/>
            </g>
            <g transform="matrix(1,0,0,1,-1.00391,-9.29688)">
                <path d="M163.431,82.712C188.212,82.712 208.332,102.832 208.332,127.614C208.332,152.395 188.212,172.515 163.431,172.515C138.649,172.515 118.529,152.395 118.529,127.614C118.529,102.832 138.649,82.712 163.431,82.712ZM163.431,105.163C175.822,105.163 185.881,115.223 185.881,127.614C185.881,140.005 175.822,150.064 163.431,150.064C151.04,150.064 140.98,140.005 140.98,127.614C140.98,115.223 151.04,105.163 163.431,105.163Z" style="fill:rgb(224,178,33);"/>
            </g>
        </g>
        <g transform="matrix(1,0,0,1,759.478,0)">
            <g transform="matrix(1,0,0,1,0.299801,-2.61816)">
                <path d="M187.132,55.482C186.865,69.038 175.777,79.962 162.157,79.962C148.538,79.962 137.449,69.038 137.183,55.482L149.677,55.482C149.94,62.144 155.431,67.472 162.157,67.472C168.883,67.472 174.374,62.144 174.637,55.482L187.132,55.482Z" style="fill:rgb(224,178,33);"/>
            </g>
            <g transform="matrix(1,0,0,1,-1.00391,-9.29688)">
                <path d="M163.431,82.712C188.212,82.712 208.332,102.832 208.332,127.614C208.332,152.395 188.212,172.515 163.431,172.515C138.649,172.515 118.529,152.395 118.529,127.614C118.529,102.832 138.649,82.712 163.431,82.712ZM163.431,105.163C175.822,105.163 185.881,115.223 185.881,127.614C185.881,140.005 175.822,150.064 163.431,150.064C151.04,150.064 140.98,140.005 140.98,127.614C140.98,115.223 151.04,105.163 163.431,105.163Z" style="fill:rgb(224,178,33);"/>
            </g>
        </g>
        <g transform="matrix(1,0,0,1,886.057,0)">
            <g transform="matrix(1,0,0,1,0.299801,-2.61816)">
                <path d="M187.132,55.482C186.865,69.038 175.777,79.962 162.157,79.962C148.538,79.962 137.449,69.038 137.183,55.482L149.677,55.482C149.94,62.144 155.431,67.472 162.157,67.472C168.883,67.472 174.374,62.144 174.637,55.482L187.132,55.482Z" style="fill:rgb(224,178,33);"/>
            </g>
            <g transform="matrix(1,0,0,1,-1.00391,-9.29688)">
                <path d="M163.431,82.712C188.212,82.712 208.332,102.832 208.332,127.614C208.332,152.395 188.212,172.515 163.431,172.515C138.649,172.515 118.529,152.395 118.529,127.614C118.529,102.832 138.649,82.712 163.431,82.712ZM163.431,105.163C175.822,105.163 185.881,115.223 185.881,127.614C185.881,140.005 175.822,150.064 163.431,150.064C151.04,150.064 140.98,140.005 140.98,127.614C140.98,115.223 151.04,105.163 163.431,105.163Z" style="fill:rgb(224,178,33);"/>
            </g>
        </g>
        <g transform="matrix(1,0,0,1,1012.64,0)">
            <g transform="matrix(1,0,0,1,0.299801,-2.61816)">
                <path d="M187.132,55.482C186.865,69.038 175.777,79.962 162.157,79.962C148.538,79.962 137.449,69.038 137.183,55.482L149.677,55.482C149.94,62.144 155.431,67.472 162.157,67.472C168.883,67.472 174.374,62.144 174.637,55.482L187.132,55.482Z" style="fill:rgb(224,178,33);"/>
            </g>
            <g transform="matrix(1,0,0,1,-1.00391,-9.29688)">
                <path d="M163.431,82.712C188.212,82.712 208.332,102.832 208.332,127.614C208.332,152.395 188.212,172.515 163.431,172.515C138.649,172.515 118.529,152.395 118.529,127.614C118.529,102.832 138.649,82.712 163.431,82.712ZM163.431,105.163C175.822,105.163 185.881,115.223 185.881,127.614C185.881,140.005 175.822,150.064 163.431,150.064C151.04,150.064 140.98,140.005 140.98,127.614C140.98,115.223 151.04,105.163 163.431,105.163Z" style="fill:rgb(224,178,33);"/>
            </g>
        </g>
        <g transform="matrix(1,0,0,1,1139.22,0)">
            <g transform="matrix(1,0,0,1,0.299801,-2.61816)">
                <path d="M187.132,55.482C186.865,69.038 175.777,79.962 162.157,79.962C148.538,79.962 137.449,69.038 137.183,55.482L149.677,55.482C149.94,62.144 155.431,67.472 162.157,67.472C168.883,67.472 174.374,62.144 174.637,55.482L187.132,55.482Z" style="fill:rgb(224,178,33);"/>
            </g>
            <g transform="matrix(1,0,0,1,-1.00391,-9.29688)">
                <path d="M163.431,82.712C188.212,82.712 208.332,102.832 208.332,127.614C208.332,152.395 188.212,172.515 163.431,172.515C138.649,172.515 118.529,152.395 118.529,127.614C118.529,102.832 138.649,82.712 163.431,82.712ZM163.431,105.163C175.822,105.163 185.881,115.223 185.881,127.614C185.881,140.005 175.822,150.064 163.431,150.064C151.04,150.064 140.98,140.005 140.98,127.614C140.98,115.223 151.04,105.163 163.431,105.163Z" style="fill:rgb(224,178,33);"/>
            </g>
        </g>
        <g transform="matrix(1,0,0,1,1265.8,0)">
            <g transform="matrix(1,0,0,1,0.299801,-2.61816)">
                <path d="M187.132,55.482C186.865,69.038 175.777,79.962 162.157,79.962C148.538,79.962 137.449,69.038 137.183,55.482L149.677,55.482C149.94,62.144 155.431,67.472 162.157,67.472C168.883,67.472 174.374,62.144 174.637,55.482L187.132,55.482Z" style="fill:rgb(224,178,33);"/>
            </g>
            <g transform="matrix(1,0,0,1,-1.00391,-9.29688)">
                <path d="M163.431,82.712C188.212,82.712 208.332,102.832 208.332,127.614C208.332,152.395 188.212,172.515 163.431,172.515C138.649,172.515 118.529,152.395 118.529,127.614C118.529,102.832 138.649,82.712 163.431,82.712ZM163.431,105.163C175.822,105.163 185.881,115.223 185.881,127.614C185.881,140.005 175.822,150.064 163.431,150.064C151.04,150.064 140.98,140.005 140.98,127.614C140.98,115.223 151.04,105.163 163.431,105.163Z" style="fill:rgb(224,178,33);"/>
            </g>
        </g>
        <g transform="matrix(1,0,0,1,1392.38,0)">
            <g transform="matrix(1,0,0,1,0.299801,-2.61816)">
                <path d="M187.132,55.482C186.865,69.038 175.777,79.962 162.157,79.962C148.538,79.962 137.449,69.038 137.183,55.482L149.677,55.482C149.94,62.144 155.431,67.472 162.157,67.472C168.883,67.472 174.374,62.144 174.637,55.482L187.132,55.482Z" style="fill:rgb(224,178,33);"/>
            </g>
            <g transform="matrix(1,0,0,1,-1.00391,-9.29688)">
                <path d="M163.431,82.712C188.212,82.712 208.332,102.832 208.332,127.614C208.332,152.395 188.212,172.515 163.431,172.515C138.649,172.515 118.529,152.395 118.529,127.614C118.529,102.832 138.649,82.712 163.431,82.712ZM163.431,105.163C175.822,105.163 185.881,115.223 185.881,127.614C185.881,140.005 175.822,150.064 163.431,150.064C151.04,150.064 140.98,140.005 140.98,127.614C140.98,115.223 151.04,105.163 163.431,105.163Z" style="fill:rgb(224,178,33);"/>
            </g>
        </g>
        <g transform="matrix(1,0,0,1,1518.96,0)">
            <g transform="matrix(1,0,0,1,0.299801,-2.61816)">
                <path d="M187.132,55.482C186.865,69.038 175.777,79.962 162.157,79.962C148.538,79.962 137.449,69.038 137.183,55.482L149.677,55.482C149.94,62.144 155.431,67.472 162.157,67.472C168.883,67.472 174.374,62.144 174.637,55.482L187.132,55.482Z" style="fill:rgb(224,178,33);"/>
            </g>
            <g transform="matrix(1,0,0,1,-1.00391,-9.29688)">
                <path d="M163.431,82.712C188.212,82.712 208.332,102.832 208.332,127.614C208.332,152.395 188.212,172.515 163.431,172.515C138.649,172.515 118.529,152.395 118.529,127.614C118.529,102.832 138.649,82.712 163.431,82.712ZM163.431,105.163C175.822,105.163 185.881,115.223 185.881,127.614C185.881,140.005 175.822,150.064 163.431,150.064C151.04,150.064 140.98,140.005 140.98,127.614C140.98,115.223 151.04,105.163 163.431,105.163Z" style="fill:rgb(224,178,33);"/>
            </g>
        </g>
    </g>
    <g>
        <g transform="matrix(-1,-1.22465e-16,1.22465e-16,-1,1843.81,1249.02)">
            <g transform="matrix(1,0,0,1,0.299801,-2.61816)">
                <path d="M187.132,55.482C186.865,69.038 175.777,79.962 162.157,79.962C148.538,79.962 137.449,69.038 137.183,55.482L149.677,55.482C149.94,62.144 155.431,67.472 162.157,67.472C168.883,67.472 174.374,62.144 174.637,55.482L187.132,55.482Z" style="fill:rgb(224,178,33);"/>
            </g>
            <g transform="matrix(1,0,0,1,-1.00391,-9.29688)">
                <path d="M163.431,82.712C188.212,82.712 208.332,102.832 208.332,127.614C208.332,152.395 188.212,172.515 163.431,172.515C138.649,172.515 118.529,152.395 118.529,127.614C118.529,102.832 138.649,82.712 163.431,82.712ZM163.431,105.163C175.822,105.163 185.881,115.223 185.881,127.614C185.881,140.005 175.822,150.064 163.431,150.064C151.04,150.064 140.98,140.005 140.98,127.614C140.98,115.223 151.04,105.163 163.431,105.163Z" style="fill:rgb(224,178,33);"/>
            </g>
        </g>
        <g transform="matrix(-1,-1.22465e-16,1.22465e-16,-1,1717.2,1249.02)">
            <g transform="matrix(1,0,0,1,0.299801,-2.61816)">
                <path d="M187.132,55.482C186.865,69.038 175.777,79.962 162.157,79.962C148.538,79.962 137.449,69.038 137.183,55.482L149.677,55.482C149.94,62.144 155.431,67.472 162.157,67.472C168.883,67.472 174.374,62.144 174.637,55.482L187.132,55.482Z" style="fill:rgb(224,178,33);"/>
            </g>
            <g transform="matrix(1,0,0,1,-1.00391,-9.29688)">
                <path d="M163.431,82.712C188.212,82.712 208.332,102.832 208.332,127.614C208.332,152.395 188.212,172.515 163.431,172.515C138.649,172.515 118.529,152.395 118.529,127.614C118.529,102.832 138.649,82.712 163.431,82.712ZM163.431,105.163C175.822,105.163 185.881,115.223 185.881,127.614C185.881,140.005 175.822,150.064 163.431,150.064C151.04,150.064 140.98,140.005 140.98,127.614C140.98,115.223 151.04,105.163 163.431,105.163Z" style="fill:rgb(224,178,33);"/>
            </g>
        </g>
        <g transform="matrix(-1,-1.22465e-16,1.22465e-16,-1,1590.59,1249.02)">
            <g transform="matrix(1,0,0,1,0.299801,-2.61816)">
                <path d="M187.132,55.482C186.865,69.038 175.777,79.962 162.157,79.962C148.538,79.962 137.449,69.038 137.183,55.482L149.677,55.482C149.94,62.144 155.431,67.472 162.157,67.472C168.883,67.472 174.374,62.144 174.637,55.482L187.132,55.482Z" style="fill:rgb(224,178,33);"/>
            </g>
            <g transform="matrix(1,0,0,1,-1.00391,-9.29688)">
                <path d="M163.431,82.712C188.212,82.712 208.332,102.832 208.332,127.614C208.332,152.395 188.212,172.515 163.431,172.515C138.649,172.515 118.529,152.395 118.529,127.614C118.529,102.832 138.649,82.712 163.431,82.712ZM163.431,105.163C175.822,105.163 185.881,115.223 185.881,127.614C185.881,140.005 175.822,150.064 163.431,150.064C151.04,150.064 140.98,140.005 140.98,127.614C140.98,115.223 151.04,105.163 163.431,105.163Z" style="fill:rgb(224,178,33);"/>
            </g>
        </g>
        <g transform="matrix(-1,-1.22465e-16,1.22465e-16,-1,1463.97,1249.02)">
            <g transform="matrix(1,0,0,1,0.299801,-2.61816)">
                <path d="M187.132,55.482C186.865,69.038 175.777,79.962 162.157,79.962C148.538,79.962 137.449,69.038 137.183,55.482L149.677,55.482C149.94,62.144 155.431,67.472 162.157,67.472C168.883,67.472 174.374,62.144 174.637,55.482L187.132,55.482Z" style="fill:rgb(224,178,33);"/>
            </g>
            <g transform="matrix(1,0,0,1,-1.00391,-9.29688)">
                <path d="M163.431,82.712C188.212,82.712 208.332,102.832 208.332,127.614C208.332,152.395 188.212,172.515 163.431,172.515C138.649,172.515 118.529,152.395 118.529,127.614C118.529,102.832 138.649,82.712 163.431,82.712ZM163.431,105.163C175.822,105.163 185.881,115.223 185.881,127.614C185.881,140.005 175.822,150.064 163.431,150.064C151.04,150.064 140.98,140.005 140.98,127.614C140.98,115.223 151.04,105.163 163.431,105.163Z" style="fill:rgb(224,178,33);"/>
            </g>
        </g>
        <g transform="matrix(-1,-1.22465e-16,1.22465e-16,-1,1337.36,1249.02)">
            <g transform="matrix(1,0,0,1,0.299801,-2.61816)">
                <path d="M187.132,55.482C186.865,69.038 175.777,79.962 162.157,79.962C148.538,79.962 137.449,69.038 137.183,55.482L149.677,55.482C149.94,62.144 155.431,67.472 162.157,67.472C168.883,67.472 174.374,62.144 174.637,55.482L187.132,55.482Z" style="fill:rgb(224,178,33);"/>
            </g>
            <g transform="matrix(1,0,0,1,-1.00391,-9.29688)">
                <path d="M163.431,82.712C188.212,82.712 208.332,102.832 208.332,127.614C208.332,152.395 188.212,172.515 163.431,172.515C138.649,172.515 118.529,152.395 118.529,127.614C118.529,102.832 138.649,82.712 163.431,82.712ZM163.431,105.163C175.822,105.163 185.881,115.223 185.881,127.614C185.881,140.005 175.822,150.064 163.431,150.064C151.04,150.064 140.98,140.005 140.98,127.614C140.98,115.223 151.04,105.163 163.431,105.163Z" style="fill:rgb(224,178,33);"/>
            </g>
        </g>
        <g transform="matrix(-1,-1.22465e-16,1.22465e-16,-1,1210.75,1249.02)">
            <g transform="matrix(1,0,0,1,0.299801,-2.61816)">
                <path d="M187.132,55.482C186.865,69.038 175.777,79.962 162.157,79.962C148.538,79.962 137.449,69.038 137.183,55.482L149.677,55.482C149.94,62.144 155.431,67.472 162.157,67.472C168.883,67.472 174.374,62.144 174.637,55.482L187.132,55.482Z" style="fill:rgb(224,178,33);"/>
            </g>
            <g transform="matrix(1,0,0,1,-1.00391,-9.29688)">
                <path d="M163.431,82.712C188.212,82.712 208.332,102.832 208.332,127.614C208.332,152.395 188.212,172.515 163.431,172.515C138.649,172.515 118.529,152.395 118.529,127.614C118.529,102.832 138.649,82.712 163.431,82.712ZM163.431,105.163C175.822,105.163 185.881,115.223 185.881,127.614C185.881,140.005 175.822,150.064 163.431,150.064C151.04,150.064 140.98,140.005 140.98,127.614C140.98,115.223 151.04,105.163 163.431,105.163Z" style="fill:rgb(224,178,33);"/>
            </g>
        </g>
        <g transform="matrix(-1,-1.22465e-16,1.22465e-16,-1,1084.14,1249.02)">
            <g transform="matrix(1,0,0,1,0.299801,-2.61816)">
                <path d="M187.132,55.482C186.865,69.038 175.777,79.962 162.157,79.962C148.538,79.962 137.449,69.038 137.183,55.482L149.677,55.482C149.94,62.144 155.431,67.472 162.157,67.472C168.883,67.472 174.374,62.144 174.637,55.482L187.132,55.482Z" style="fill:rgb(224,178,33);"/>
            </g>
            <g transform="matrix(1,0,0,1,-1.00391,-9.29688)">
                <path d="M163.431,82.712C188.212,82.712 208.332,102.832 208.332,127.614C208.332,152.395 188.212,172.515 163.431,172.515C138.649,172.515 118.529,152.395 118.529,127.614C118.529,102.832 138.649,82.712 163.431,82.712ZM163.431,105.163C175.822,105.163 185.881,115.223 185.881,127.614C185.881,140.005 175.822,150.064 163.431,150.064C151.04,150.064 140.98,140.005 140.98,127.614C140.98,115.223 151.04,105.163 163.431,105.163Z" style="fill:rgb(224,178,33);"/>
            </g>
        </g>
        <g transform="matrix(-1,-1.22465e-16,1.22465e-16,-1,957.527,1249.02)">
            <g transform="matrix(1,0,0,1,0.299801,-2.61816)">
                <path d="M187.132,55.482C186.865,69.038 175.777,79.962 162.157,79.962C148.538,79.962 137.449,69.038 137.183,55.482L149.677,55.482C149.94,62.144 155.431,67.472 162.157,67.472C168.883,67.472 174.374,62.144 174.637,55.482L187.132,55.482Z" style="fill:rgb(224,178,33);"/>
            </g>
            <g transform="matrix(1,0,0,1,-1.00391,-9.29688)">
                <path d="M163.431,82.712C188.212,82.712 208.332,102.832 208.332,127.614C208.332,152.395 188.212,172.515 163.431,172.515C138.649,172.515 118.529,152.395 118.529,127.614C118.529,102.832 138.649,82.712 163.431,82.712ZM163.431,105.163C175.822,105.163 185.881,115.223 185.881,127.614C185.881,140.005 175.822,150.064 163.431,150.064C151.04,150.064 140.98,140.005 140.98,127.614C140.98,115.223 151.04,105.163 163.431,105.163Z" style="fill:rgb(224,178,33);"/>
            </g>
        </g>
        <g transform="matrix(-1,-1.22465e-16,1.22465e-16,-1,830.915,1249.02)">
            <g transform="matrix(1,0,0,1,0.299801,-2.61816)">
                <path d="M187.132,55.482C186.865,69.038 175.777,79.962 162.157,79.962C148.538,79.962 137.449,69.038 137.183,55.482L149.677,55.482C149.94,62.144 155.431,67.472 162.157,67.472C168.883,67.472 174.374,62.144 174.637,55.482L187.132,55.482Z" style="fill:rgb(224,178,33);"/>
            </g>
            <g transform="matrix(1,0,0,1,-1.00391,-9.29688)">
                <path d="M163.431,82.712C188.212,82.712 208.332,102.832 208.332,127.614C208.332,152.395 188.212,172.515 163.431,172.515C138.649,172.515 118.529,152.395 118.529,127.614C118.529,102.832 138.649,82.712 163.431,82.712ZM163.431,105.163C175.822,105.163 185.881,115.223 185.881,127.614C185.881,140.005 175.822,150.064 163.431,150.064C151.04,150.064 140.98,140.005 140.98,127.614C140.98,115.223 151.04,105.163 163.431,105.163Z" style="fill:rgb(224,178,33);"/>
            </g>
        </g>
        <g transform="matrix(-1,-1.22465e-16,1.22465e-16,-1,704.303,1249.02)">
            <g transform="matrix(1,0,0,1,0.299801,-2.61816)">
                <path d="M187.132,55.482C186.865,69.038 175.777,79.962 162.157,79.962C148.538,79.962 137.449,69.038 137.183,55.482L149.677,55.482C149.94,62.144 155.431,67.472 162.157,67.472C168.883,67.472 174.374,62.144 174.637,55.482L187.132,55.482Z" style="fill:rgb(224,178,33);"/>
            </g>
            <g transform="matrix(1,0,0,1,-1.00391,-9.29688)">
                <path d="M163.431,82.712C188.212,82.712 208.332,102.832 208.332,127.614C208.332,152.395 188.212,172.515 163.431,172.515C138.649,172.515 118.529,152.395 118.529,127.614C118.529,102.832 138.649,82.712 163.431,82.712ZM163.431,105.163C175.822,105.163 185.881,115.223 185.881,127.614C185.881,140.005 175.822,150.064 163.431,150.064C151.04,150.064 140.98,140.005 140.98,127.614C140.98,115.223 151.04,105.163 163.431,105.163Z" style="fill:rgb(224,178,33);"/>
            </g>
        </g>
        <g transform="matrix(-1,-1.22465e-16,1.22465e-16,-1,577.692,1249.02)">
            <g transform="matrix(1,0,0,1,0.299801,-2.61816)">
                <path d="M187.132,55.482C186.865,69.038 175.777,79.962 162.157,79.962C148.538,79.962 137.449,69.038 137.183,55.482L149.677,55.482C149.94,62.144 155.431,67.472 162.157,67.472C168.883,67.472 174.374,62.144 174.637,55.482L187.132,55.482Z" style="fill:rgb(224,178,33);"/>
            </g>
            <g transform="matrix(1,0,0,1,-1.00391,-9.29688)">
                <path d="M163.431,82.712C188.212,82.712 208.332,102.832 208.332,127.614C208.332,152.395 188.212,172.515 163.431,172.515C138.649,172.515 118.529,152.395 118.529,127.614C118.529,102.832 138.649,82.712 163.431,82.712ZM163.431,105.163C175.822,105.163 185.881,115.223 185.881,127.614C185.881,140.005 175.822,150.064 163.431,150.064C151.04,150.064 140.98,140.005 140.98,127.614C140.98,115.223 151.04,105.163 163.431,105.163Z" style="fill:rgb(224,178,33);"/>
            </g>
        </g>
        <g transform="matrix(-1,-1.22465e-16,1.22465e-16,-1,451.08,1249.02)">
            <g transform="matrix(1,0,0,1,0.299801,-2.61816)">
                <path d="M187.132,55.482C186.865,69.038 175.777,79.962 162.157,79.962C148.538,79.962 137.449,69.038 137.183,55.482L149.677,55.482C149.94,62.144 155.431,67.472 162.157,67.472C168.883,67.472 174.374,62.144 174.637,55.482L187.132,55.482Z" style="fill:rgb(224,178,33);"/>
            </g>
            <g transform="matrix(1,0,0,1,-1.00391,-9.29688)">
                <path d="M163.431,82.712C188.212,82.712 208.332,102.832 208.332,127.614C208.332,152.395 188.212,172.515 163.431,172.515C138.649,172.515 118.529,152.395 118.529,127.614C118.529,102.832 138.649,82.712 163.431,82.712ZM163.431,105.163C175.822,105.163 185.881,115.223 185.881,127.614C185.881,140.005 175.822,150.064 163.431,150.064C151.04,150.064 140.98,140.005 140.98,127.614C140.98,115.223 151.04,105.163 163.431,105.163Z" style="fill:rgb(224,178,33);"/>
            </g>
        </g>
    </g>
</svg>
