<svg xmlns="http://www.w3.org/2000/svg" xmlns:xlink="http://www.w3.org/1999/xlink" width="820" height="730" >
  <rect x="0" y="0" width="820" height="730" fill="white" >
  </rect>
  <g transform="translate(74,20) scale(0.845)" >
      <svg width="100%" height="100%" viewBox="0 0 1826 1233" version="1.1" xmlns="http://www.w3.org/2000/svg" xmlns:xlink="http://www.w3.org/1999/xlink" xml:space="preserve" xmlns:serif="http://www.serif.com/" style="fill-rule:evenodd;clip-rule:evenodd;stroke-linejoin:round;stroke-miterlimit:2;">
      <g transform="matrix(1,0,0,1.39895,0,-21.09)">
      <path d="M36.219,795.283L36.219,85.554C36.219,67.512 56.71,52.864 81.95,52.864L1734.77,52.864C1760.01,52.864 1780.51,67.512 1780.51,85.554L1780.51,837.423C1780.51,855.466 1760.01,870.113 1734.77,870.113L137.351,870.113C137.351,870.024 137.305,869.934 137.211,869.865L36.578,795.392C36.48,795.32 36.35,795.283 36.219,795.283Z" style="fill:rgb(158,151,132);"/>
      </g>
      <g>
      <g>
      <g transform="matrix(1,0,0,1,0.299801,-2.61816)">
      <path d="M187.132,55.482C186.865,69.038 175.777,79.962 162.157,79.962C148.538,79.962 137.449,69.038 137.183,55.482L149.677,55.482C149.94,62.144 155.431,67.472 162.157,67.472C168.883,67.472 174.374,62.144 174.637,55.482L187.132,55.482Z" style="fill:rgb(224,178,33);"/>
      </g>
      <g transform="matrix(1,0,0,1,-1.00391,-9.29688)">
      <path d="M163.431,82.712C188.212,82.712 208.332,102.832 208.332,127.614C208.332,152.395 188.212,172.515 163.431,172.515C138.649,172.515 118.529,152.395 118.529,127.614C118.529,102.832 138.649,82.712 163.431,82.712ZM163.431,105.163C175.822,105.163 185.881,115.223 185.881,127.614C185.881,140.005 175.822,150.064 163.431,150.064C151.04,150.064 140.98,140.005 140.98,127.614C140.98,115.223 151.04,105.163 163.431,105.163Z" style="fill:rgb(224,178,33);"/>
      </g>
      </g>
      <g transform="matrix(1,0,0,1,126.58,0)">
      <g transform="matrix(1,0,0,1,0.299801,-2.61816)">
      <path d="M187.132,55.482C186.865,69.038 175.777,79.962 162.157,79.962C148.538,79.962 137.449,69.038 137.183,55.482L149.677,55.482C149.94,62.144 155.431,67.472 162.157,67.472C168.883,67.472 174.374,62.144 174.637,55.482L187.132,55.482Z" style="fill:rgb(224,178,33);"/>
      </g>
      <g transform="matrix(1,0,0,1,-1.00391,-9.29688)">
      <path d="M163.431,82.712C188.212,82.712 208.332,102.832 208.332,127.614C208.332,152.395 188.212,172.515 163.431,172.515C138.649,172.515 118.529,152.395 118.529,127.614C118.529,102.832 138.649,82.712 163.431,82.712ZM163.431,105.163C175.822,105.163 185.881,115.223 185.881,127.614C185.881,140.005 175.822,150.064 163.431,150.064C151.04,150.064 140.98,140.005 140.98,127.614C140.98,115.223 151.04,105.163 163.431,105.163Z" style="fill:rgb(224,178,33);"/>
      </g>
      </g>
      <g transform="matrix(1,0,0,1,253.159,0)">
      <g transform="matrix(1,0,0,1,0.299801,-2.61816)">
      <path d="M187.132,55.482C186.865,69.038 175.777,79.962 162.157,79.962C148.538,79.962 137.449,69.038 137.183,55.482L149.677,55.482C149.94,62.144 155.431,67.472 162.157,67.472C168.883,67.472 174.374,62.144 174.637,55.482L187.132,55.482Z" style="fill:rgb(224,178,33);"/>
      </g>
      <g transform="matrix(1,0,0,1,-1.00391,-9.29688)">
      <path d="M163.431,82.712C188.212,82.712 208.332,102.832 208.332,127.614C208.332,152.395 188.212,172.515 163.431,172.515C138.649,172.515 118.529,152.395 118.529,127.614C118.529,102.832 138.649,82.712 163.431,82.712ZM163.431,105.163C175.822,105.163 185.881,115.223 185.881,127.614C185.881,140.005 175.822,150.064 163.431,150.064C151.04,150.064 140.98,140.005 140.98,127.614C140.98,115.223 151.04,105.163 163.431,105.163Z" style="fill:rgb(224,178,33);"/>
      </g>
      </g>
      <g transform="matrix(1,0,0,1,379.739,0)">
      <g transform="matrix(1,0,0,1,0.299801,-2.61816)">
      <path d="M187.132,55.482C186.865,69.038 175.777,79.962 162.157,79.962C148.538,79.962 137.449,69.038 137.183,55.482L149.677,55.482C149.94,62.144 155.431,67.472 162.157,67.472C168.883,67.472 174.374,62.144 174.637,55.482L187.132,55.482Z" style="fill:rgb(224,178,33);"/>
      </g>
      <g transform="matrix(1,0,0,1,-1.00391,-9.29688)">
      <path d="M163.431,82.712C188.212,82.712 208.332,102.832 208.332,127.614C208.332,152.395 188.212,172.515 163.431,172.515C138.649,172.515 118.529,152.395 118.529,127.614C118.529,102.832 138.649,82.712 163.431,82.712ZM163.431,105.163C175.822,105.163 185.881,115.223 185.881,127.614C185.881,140.005 175.822,150.064 163.431,150.064C151.04,150.064 140.98,140.005 140.98,127.614C140.98,115.223 151.04,105.163 163.431,105.163Z" style="fill:rgb(224,178,33);"/>
      </g>
      </g>
      <g transform="matrix(1,0,0,1,506.318,0)">
      <g transform="matrix(1,0,0,1,0.299801,-2.61816)">
      <path d="M187.132,55.482C186.865,69.038 175.777,79.962 162.157,79.962C148.538,79.962 137.449,69.038 137.183,55.482L149.677,55.482C149.94,62.144 155.431,67.472 162.157,67.472C168.883,67.472 174.374,62.144 174.637,55.482L187.132,55.482Z" style="fill:rgb(224,178,33);"/>
      </g>
      <g transform="matrix(1,0,0,1,-1.00391,-9.29688)">
      <path d="M163.431,82.712C188.212,82.712 208.332,102.832 208.332,127.614C208.332,152.395 188.212,172.515 163.431,172.515C138.649,172.515 118.529,152.395 118.529,127.614C118.529,102.832 138.649,82.712 163.431,82.712ZM163.431,105.163C175.822,105.163 185.881,115.223 185.881,127.614C185.881,140.005 175.822,150.064 163.431,150.064C151.04,150.064 140.98,140.005 140.98,127.614C140.98,115.223 151.04,105.163 163.431,105.163Z" style="fill:rgb(224,178,33);"/>
      </g>
      </g>
      <g transform="matrix(1,0,0,1,632.898,0)">
      <g transform="matrix(1,0,0,1,0.299801,-2.61816)">
      <path d="M187.132,55.482C186.865,69.038 175.777,79.962 162.157,79.962C148.538,79.962 137.449,69.038 137.183,55.482L149.677,55.482C149.94,62.144 155.431,67.472 162.157,67.472C168.883,67.472 174.374,62.144 174.637,55.482L187.132,55.482Z" style="fill:rgb(224,178,33);"/>
      </g>
      <g transform="matrix(1,0,0,1,-1.00391,-9.29688)">
      <path d="M163.431,82.712C188.212,82.712 208.332,102.832 208.332,127.614C208.332,152.395 188.212,172.515 163.431,172.515C138.649,172.515 118.529,152.395 118.529,127.614C118.529,102.832 138.649,82.712 163.431,82.712ZM163.431,105.163C175.822,105.163 185.881,115.223 185.881,127.614C185.881,140.005 175.822,150.064 163.431,150.064C151.04,150.064 140.98,140.005 140.98,127.614C140.98,115.223 151.04,105.163 163.431,105.163Z" style="fill:rgb(224,178,33);"/>
      </g>
      </g>
      <g transform="matrix(1,0,0,1,759.478,0)">
      <g transform="matrix(1,0,0,1,0.299801,-2.61816)">
      <path d="M187.132,55.482C186.865,69.038 175.777,79.962 162.157,79.962C148.538,79.962 137.449,69.038 137.183,55.482L149.677,55.482C149.94,62.144 155.431,67.472 162.157,67.472C168.883,67.472 174.374,62.144 174.637,55.482L187.132,55.482Z" style="fill:rgb(224,178,33);"/>
      </g>
      <g transform="matrix(1,0,0,1,-1.00391,-9.29688)">
      <path d="M163.431,82.712C188.212,82.712 208.332,102.832 208.332,127.614C208.332,152.395 188.212,172.515 163.431,172.515C138.649,172.515 118.529,152.395 118.529,127.614C118.529,102.832 138.649,82.712 163.431,82.712ZM163.431,105.163C175.822,105.163 185.881,115.223 185.881,127.614C185.881,140.005 175.822,150.064 163.431,150.064C151.04,150.064 140.98,140.005 140.98,127.614C140.98,115.223 151.04,105.163 163.431,105.163Z" style="fill:rgb(224,178,33);"/>
      </g>
      </g>
      <g transform="matrix(1,0,0,1,886.057,0)">
      <g transform="matrix(1,0,0,1,0.299801,-2.61816)">
      <path d="M187.132,55.482C186.865,69.038 175.777,79.962 162.157,79.962C148.538,79.962 137.449,69.038 137.183,55.482L149.677,55.482C149.94,62.144 155.431,67.472 162.157,67.472C168.883,67.472 174.374,62.144 174.637,55.482L187.132,55.482Z" style="fill:rgb(224,178,33);"/>
      </g>
      <g transform="matrix(1,0,0,1,-1.00391,-9.29688)">
      <path d="M163.431,82.712C188.212,82.712 208.332,102.832 208.332,127.614C208.332,152.395 188.212,172.515 163.431,172.515C138.649,172.515 118.529,152.395 118.529,127.614C118.529,102.832 138.649,82.712 163.431,82.712ZM163.431,105.163C175.822,105.163 185.881,115.223 185.881,127.614C185.881,140.005 175.822,150.064 163.431,150.064C151.04,150.064 140.98,140.005 140.98,127.614C140.98,115.223 151.04,105.163 163.431,105.163Z" style="fill:rgb(224,178,33);"/>
      </g>
      </g>
      <g transform="matrix(1,0,0,1,1012.64,0)">
      <g transform="matrix(1,0,0,1,0.299801,-2.61816)">
      <path d="M187.132,55.482C186.865,69.038 175.777,79.962 162.157,79.962C148.538,79.962 137.449,69.038 137.183,55.482L149.677,55.482C149.94,62.144 155.431,67.472 162.157,67.472C168.883,67.472 174.374,62.144 174.637,55.482L187.132,55.482Z" style="fill:rgb(224,178,33);"/>
      </g>
      <g transform="matrix(1,0,0,1,-1.00391,-9.29688)">
      <path d="M163.431,82.712C188.212,82.712 208.332,102.832 208.332,127.614C208.332,152.395 188.212,172.515 163.431,172.515C138.649,172.515 118.529,152.395 118.529,127.614C118.529,102.832 138.649,82.712 163.431,82.712ZM163.431,105.163C175.822,105.163 185.881,115.223 185.881,127.614C185.881,140.005 175.822,150.064 163.431,150.064C151.04,150.064 140.98,140.005 140.98,127.614C140.98,115.223 151.04,105.163 163.431,105.163Z" style="fill:rgb(224,178,33);"/>
      </g>
      </g>
      <g transform="matrix(1,0,0,1,1139.22,0)">
      <g transform="matrix(1,0,0,1,0.299801,-2.61816)">
      <path d="M187.132,55.482C186.865,69.038 175.777,79.962 162.157,79.962C148.538,79.962 137.449,69.038 137.183,55.482L149.677,55.482C149.94,62.144 155.431,67.472 162.157,67.472C168.883,67.472 174.374,62.144 174.637,55.482L187.132,55.482Z" style="fill:rgb(224,178,33);"/>
      </g>
      <g transform="matrix(1,0,0,1,-1.00391,-9.29688)">
      <path d="M163.431,82.712C188.212,82.712 208.332,102.832 208.332,127.614C208.332,152.395 188.212,172.515 163.431,172.515C138.649,172.515 118.529,152.395 118.529,127.614C118.529,102.832 138.649,82.712 163.431,82.712ZM163.431,105.163C175.822,105.163 185.881,115.223 185.881,127.614C185.881,140.005 175.822,150.064 163.431,150.064C151.04,150.064 140.98,140.005 140.98,127.614C140.98,115.223 151.04,105.163 163.431,105.163Z" style="fill:rgb(224,178,33);"/>
      </g>
      </g>
      <g transform="matrix(1,0,0,1,1265.8,0)">
      <g transform="matrix(1,0,0,1,0.299801,-2.61816)">
      <path d="M187.132,55.482C186.865,69.038 175.777,79.962 162.157,79.962C148.538,79.962 137.449,69.038 137.183,55.482L149.677,55.482C149.94,62.144 155.431,67.472 162.157,67.472C168.883,67.472 174.374,62.144 174.637,55.482L187.132,55.482Z" style="fill:rgb(224,178,33);"/>
      </g>
      <g transform="matrix(1,0,0,1,-1.00391,-9.29688)">
      <path d="M163.431,82.712C188.212,82.712 208.332,102.832 208.332,127.614C208.332,152.395 188.212,172.515 163.431,172.515C138.649,172.515 118.529,152.395 118.529,127.614C118.529,102.832 138.649,82.712 163.431,82.712ZM163.431,105.163C175.822,105.163 185.881,115.223 185.881,127.614C185.881,140.005 175.822,150.064 163.431,150.064C151.04,150.064 140.98,140.005 140.98,127.614C140.98,115.223 151.04,105.163 163.431,105.163Z" style="fill:rgb(224,178,33);"/>
      </g>
      </g>
      <g transform="matrix(1,0,0,1,1392.38,0)">
      <g transform="matrix(1,0,0,1,0.299801,-2.61816)">
      <path d="M187.132,55.482C186.865,69.038 175.777,79.962 162.157,79.962C148.538,79.962 137.449,69.038 137.183,55.482L149.677,55.482C149.94,62.144 155.431,67.472 162.157,67.472C168.883,67.472 174.374,62.144 174.637,55.482L187.132,55.482Z" style="fill:rgb(224,178,33);"/>
      </g>
      <g transform="matrix(1,0,0,1,-1.00391,-9.29688)">
      <path d="M163.431,82.712C188.212,82.712 208.332,102.832 208.332,127.614C208.332,152.395 188.212,172.515 163.431,172.515C138.649,172.515 118.529,152.395 118.529,127.614C118.529,102.832 138.649,82.712 163.431,82.712ZM163.431,105.163C175.822,105.163 185.881,115.223 185.881,127.614C185.881,140.005 175.822,150.064 163.431,150.064C151.04,150.064 140.98,140.005 140.98,127.614C140.98,115.223 151.04,105.163 163.431,105.163Z" style="fill:rgb(224,178,33);"/>
      </g>
      </g>
      <g transform="matrix(1,0,0,1,1518.96,0)">
      <g transform="matrix(1,0,0,1,0.299801,-2.61816)">
      <path d="M187.132,55.482C186.865,69.038 175.777,79.962 162.157,79.962C148.538,79.962 137.449,69.038 137.183,55.482L149.677,55.482C149.94,62.144 155.431,67.472 162.157,67.472C168.883,67.472 174.374,62.144 174.637,55.482L187.132,55.482Z" style="fill:rgb(224,178,33);"/>
      </g>
      <g transform="matrix(1,0,0,1,-1.00391,-9.29688)">
      <path d="M163.431,82.712C188.212,82.712 208.332,102.832 208.332,127.614C208.332,152.395 188.212,172.515 163.431,172.515C138.649,172.515 118.529,152.395 118.529,127.614C118.529,102.832 138.649,82.712 163.431,82.712ZM163.431,105.163C175.822,105.163 185.881,115.223 185.881,127.614C185.881,140.005 175.822,150.064 163.431,150.064C151.04,150.064 140.98,140.005 140.98,127.614C140.98,115.223 151.04,105.163 163.431,105.163Z" style="fill:rgb(224,178,33);"/>
      </g>
      </g>
      </g>
      <g>
      <g transform="matrix(-1,-1.22465e-16,1.22465e-16,-1,1843.81,1249.02)">
      <g transform="matrix(1,0,0,1,0.299801,-2.61816)">
      <path d="M187.132,55.482C186.865,69.038 175.777,79.962 162.157,79.962C148.538,79.962 137.449,69.038 137.183,55.482L149.677,55.482C149.94,62.144 155.431,67.472 162.157,67.472C168.883,67.472 174.374,62.144 174.637,55.482L187.132,55.482Z" style="fill:rgb(224,178,33);"/>
      </g>
      <g transform="matrix(1,0,0,1,-1.00391,-9.29688)">
      <path d="M163.431,82.712C188.212,82.712 208.332,102.832 208.332,127.614C208.332,152.395 188.212,172.515 163.431,172.515C138.649,172.515 118.529,152.395 118.529,127.614C118.529,102.832 138.649,82.712 163.431,82.712ZM163.431,105.163C175.822,105.163 185.881,115.223 185.881,127.614C185.881,140.005 175.822,150.064 163.431,150.064C151.04,150.064 140.98,140.005 140.98,127.614C140.98,115.223 151.04,105.163 163.431,105.163Z" style="fill:rgb(224,178,33);"/>
      </g>
      </g>
      <g transform="matrix(-1,-1.22465e-16,1.22465e-16,-1,1717.2,1249.02)">
      <g transform="matrix(1,0,0,1,0.299801,-2.61816)">
      <path d="M187.132,55.482C186.865,69.038 175.777,79.962 162.157,79.962C148.538,79.962 137.449,69.038 137.183,55.482L149.677,55.482C149.94,62.144 155.431,67.472 162.157,67.472C168.883,67.472 174.374,62.144 174.637,55.482L187.132,55.482Z" style="fill:rgb(224,178,33);"/>
      </g>
      <g transform="matrix(1,0,0,1,-1.00391,-9.29688)">
      <path d="M163.431,82.712C188.212,82.712 208.332,102.832 208.332,127.614C208.332,152.395 188.212,172.515 163.431,172.515C138.649,172.515 118.529,152.395 118.529,127.614C118.529,102.832 138.649,82.712 163.431,82.712ZM163.431,105.163C175.822,105.163 185.881,115.223 185.881,127.614C185.881,140.005 175.822,150.064 163.431,150.064C151.04,150.064 140.98,140.005 140.98,127.614C140.98,115.223 151.04,105.163 163.431,105.163Z" style="fill:rgb(224,178,33);"/>
      </g>
      </g>
      <g transform="matrix(-1,-1.22465e-16,1.22465e-16,-1,1590.59,1249.02)">
      <g transform="matrix(1,0,0,1,0.299801,-2.61816)">
      <path d="M187.132,55.482C186.865,69.038 175.777,79.962 162.157,79.962C148.538,79.962 137.449,69.038 137.183,55.482L149.677,55.482C149.94,62.144 155.431,67.472 162.157,67.472C168.883,67.472 174.374,62.144 174.637,55.482L187.132,55.482Z" style="fill:rgb(224,178,33);"/>
      </g>
      <g transform="matrix(1,0,0,1,-1.00391,-9.29688)">
      <path d="M163.431,82.712C188.212,82.712 208.332,102.832 208.332,127.614C208.332,152.395 188.212,172.515 163.431,172.515C138.649,172.515 118.529,152.395 118.529,127.614C118.529,102.832 138.649,82.712 163.431,82.712ZM163.431,105.163C175.822,105.163 185.881,115.223 185.881,127.614C185.881,140.005 175.822,150.064 163.431,150.064C151.04,150.064 140.98,140.005 140.98,127.614C140.98,115.223 151.04,105.163 163.431,105.163Z" style="fill:rgb(224,178,33);"/>
      </g>
      </g>
      <g transform="matrix(-1,-1.22465e-16,1.22465e-16,-1,1463.97,1249.02)">
      <g transform="matrix(1,0,0,1,0.299801,-2.61816)">
      <path d="M187.132,55.482C186.865,69.038 175.777,79.962 162.157,79.962C148.538,79.962 137.449,69.038 137.183,55.482L149.677,55.482C149.94,62.144 155.431,67.472 162.157,67.472C168.883,67.472 174.374,62.144 174.637,55.482L187.132,55.482Z" style="fill:rgb(224,178,33);"/>
      </g>
      <g transform="matrix(1,0,0,1,-1.00391,-9.29688)">
      <path d="M163.431,82.712C188.212,82.712 208.332,102.832 208.332,127.614C208.332,152.395 188.212,172.515 163.431,172.515C138.649,172.515 118.529,152.395 118.529,127.614C118.529,102.832 138.649,82.712 163.431,82.712ZM163.431,105.163C175.822,105.163 185.881,115.223 185.881,127.614C185.881,140.005 175.822,150.064 163.431,150.064C151.04,150.064 140.98,140.005 140.98,127.614C140.98,115.223 151.04,105.163 163.431,105.163Z" style="fill:rgb(224,178,33);"/>
      </g>
      </g>
      <g transform="matrix(-1,-1.22465e-16,1.22465e-16,-1,1337.36,1249.02)">
      <g transform="matrix(1,0,0,1,0.299801,-2.61816)">
      <path d="M187.132,55.482C186.865,69.038 175.777,79.962 162.157,79.962C148.538,79.962 137.449,69.038 137.183,55.482L149.677,55.482C149.94,62.144 155.431,67.472 162.157,67.472C168.883,67.472 174.374,62.144 174.637,55.482L187.132,55.482Z" style="fill:rgb(224,178,33);"/>
      </g>
      <g transform="matrix(1,0,0,1,-1.00391,-9.29688)">
      <path d="M163.431,82.712C188.212,82.712 208.332,102.832 208.332,127.614C208.332,152.395 188.212,172.515 163.431,172.515C138.649,172.515 118.529,152.395 118.529,127.614C118.529,102.832 138.649,82.712 163.431,82.712ZM163.431,105.163C175.822,105.163 185.881,115.223 185.881,127.614C185.881,140.005 175.822,150.064 163.431,150.064C151.04,150.064 140.98,140.005 140.98,127.614C140.98,115.223 151.04,105.163 163.431,105.163Z" style="fill:rgb(224,178,33);"/>
      </g>
      </g>
      <g transform="matrix(-1,-1.22465e-16,1.22465e-16,-1,1210.75,1249.02)">
      <g transform="matrix(1,0,0,1,0.299801,-2.61816)">
      <path d="M187.132,55.482C186.865,69.038 175.777,79.962 162.157,79.962C148.538,79.962 137.449,69.038 137.183,55.482L149.677,55.482C149.94,62.144 155.431,67.472 162.157,67.472C168.883,67.472 174.374,62.144 174.637,55.482L187.132,55.482Z" style="fill:rgb(224,178,33);"/>
      </g>
      <g transform="matrix(1,0,0,1,-1.00391,-9.29688)">
      <path d="M163.431,82.712C188.212,82.712 208.332,102.832 208.332,127.614C208.332,152.395 188.212,172.515 163.431,172.515C138.649,172.515 118.529,152.395 118.529,127.614C118.529,102.832 138.649,82.712 163.431,82.712ZM163.431,105.163C175.822,105.163 185.881,115.223 185.881,127.614C185.881,140.005 175.822,150.064 163.431,150.064C151.04,150.064 140.98,140.005 140.98,127.614C140.98,115.223 151.04,105.163 163.431,105.163Z" style="fill:rgb(224,178,33);"/>
      </g>
      </g>
      <g transform="matrix(-1,-1.22465e-16,1.22465e-16,-1,1084.14,1249.02)">
      <g transform="matrix(1,0,0,1,0.299801,-2.61816)">
      <path d="M187.132,55.482C186.865,69.038 175.777,79.962 162.157,79.962C148.538,79.962 137.449,69.038 137.183,55.482L149.677,55.482C149.94,62.144 155.431,67.472 162.157,67.472C168.883,67.472 174.374,62.144 174.637,55.482L187.132,55.482Z" style="fill:rgb(224,178,33);"/>
      </g>
      <g transform="matrix(1,0,0,1,-1.00391,-9.29688)">
      <path d="M163.431,82.712C188.212,82.712 208.332,102.832 208.332,127.614C208.332,152.395 188.212,172.515 163.431,172.515C138.649,172.515 118.529,152.395 118.529,127.614C118.529,102.832 138.649,82.712 163.431,82.712ZM163.431,105.163C175.822,105.163 185.881,115.223 185.881,127.614C185.881,140.005 175.822,150.064 163.431,150.064C151.04,150.064 140.98,140.005 140.98,127.614C140.98,115.223 151.04,105.163 163.431,105.163Z" style="fill:rgb(224,178,33);"/>
      </g>
      </g>
      <g transform="matrix(-1,-1.22465e-16,1.22465e-16,-1,957.527,1249.02)">
      <g transform="matrix(1,0,0,1,0.299801,-2.61816)">
      <path d="M187.132,55.482C186.865,69.038 175.777,79.962 162.157,79.962C148.538,79.962 137.449,69.038 137.183,55.482L149.677,55.482C149.94,62.144 155.431,67.472 162.157,67.472C168.883,67.472 174.374,62.144 174.637,55.482L187.132,55.482Z" style="fill:rgb(224,178,33);"/>
      </g>
      <g transform="matrix(1,0,0,1,-1.00391,-9.29688)">
      <path d="M163.431,82.712C188.212,82.712 208.332,102.832 208.332,127.614C208.332,152.395 188.212,172.515 163.431,172.515C138.649,172.515 118.529,152.395 118.529,127.614C118.529,102.832 138.649,82.712 163.431,82.712ZM163.431,105.163C175.822,105.163 185.881,115.223 185.881,127.614C185.881,140.005 175.822,150.064 163.431,150.064C151.04,150.064 140.98,140.005 140.98,127.614C140.98,115.223 151.04,105.163 163.431,105.163Z" style="fill:rgb(224,178,33);"/>
      </g>
      </g>
      <g transform="matrix(-1,-1.22465e-16,1.22465e-16,-1,830.915,1249.02)">
      <g transform="matrix(1,0,0,1,0.299801,-2.61816)">
      <path d="M187.132,55.482C186.865,69.038 175.777,79.962 162.157,79.962C148.538,79.962 137.449,69.038 137.183,55.482L149.677,55.482C149.94,62.144 155.431,67.472 162.157,67.472C168.883,67.472 174.374,62.144 174.637,55.482L187.132,55.482Z" style="fill:rgb(224,178,33);"/>
      </g>
      <g transform="matrix(1,0,0,1,-1.00391,-9.29688)">
      <path d="M163.431,82.712C188.212,82.712 208.332,102.832 208.332,127.614C208.332,152.395 188.212,172.515 163.431,172.515C138.649,172.515 118.529,152.395 118.529,127.614C118.529,102.832 138.649,82.712 163.431,82.712ZM163.431,105.163C175.822,105.163 185.881,115.223 185.881,127.614C185.881,140.005 175.822,150.064 163.431,150.064C151.04,150.064 140.98,140.005 140.98,127.614C140.98,115.223 151.04,105.163 163.431,105.163Z" style="fill:rgb(224,178,33);"/>
      </g>
      </g>
      <g transform="matrix(-1,-1.22465e-16,1.22465e-16,-1,704.303,1249.02)">
      <g transform="matrix(1,0,0,1,0.299801,-2.61816)">
      <path d="M187.132,55.482C186.865,69.038 175.777,79.962 162.157,79.962C148.538,79.962 137.449,69.038 137.183,55.482L149.677,55.482C149.94,62.144 155.431,67.472 162.157,67.472C168.883,67.472 174.374,62.144 174.637,55.482L187.132,55.482Z" style="fill:rgb(224,178,33);"/>
      </g>
      <g transform="matrix(1,0,0,1,-1.00391,-9.29688)">
      <path d="M163.431,82.712C188.212,82.712 208.332,102.832 208.332,127.614C208.332,152.395 188.212,172.515 163.431,172.515C138.649,172.515 118.529,152.395 118.529,127.614C118.529,102.832 138.649,82.712 163.431,82.712ZM163.431,105.163C175.822,105.163 185.881,115.223 185.881,127.614C185.881,140.005 175.822,150.064 163.431,150.064C151.04,150.064 140.98,140.005 140.98,127.614C140.98,115.223 151.04,105.163 163.431,105.163Z" style="fill:rgb(224,178,33);"/>
      </g>
      </g>
      <g transform="matrix(-1,-1.22465e-16,1.22465e-16,-1,577.692,1249.02)">
      <g transform="matrix(1,0,0,1,0.299801,-2.61816)">
      <path d="M187.132,55.482C186.865,69.038 175.777,79.962 162.157,79.962C148.538,79.962 137.449,69.038 137.183,55.482L149.677,55.482C149.94,62.144 155.431,67.472 162.157,67.472C168.883,67.472 174.374,62.144 174.637,55.482L187.132,55.482Z" style="fill:rgb(224,178,33);"/>
      </g>
      <g transform="matrix(1,0,0,1,-1.00391,-9.29688)">
      <path d="M163.431,82.712C188.212,82.712 208.332,102.832 208.332,127.614C208.332,152.395 188.212,172.515 163.431,172.515C138.649,172.515 118.529,152.395 118.529,127.614C118.529,102.832 138.649,82.712 163.431,82.712ZM163.431,105.163C175.822,105.163 185.881,115.223 185.881,127.614C185.881,140.005 175.822,150.064 163.431,150.064C151.04,150.064 140.98,140.005 140.98,127.614C140.98,115.223 151.04,105.163 163.431,105.163Z" style="fill:rgb(224,178,33);"/>
      </g>
      </g>
      <g transform="matrix(-1,-1.22465e-16,1.22465e-16,-1,451.08,1249.02)">
      <g transform="matrix(1,0,0,1,0.299801,-2.61816)">
      <path d="M187.132,55.482C186.865,69.038 175.777,79.962 162.157,79.962C148.538,79.962 137.449,69.038 137.183,55.482L149.677,55.482C149.94,62.144 155.431,67.472 162.157,67.472C168.883,67.472 174.374,62.144 174.637,55.482L187.132,55.482Z" style="fill:rgb(224,178,33);"/>
      </g>
      <g transform="matrix(1,0,0,1,-1.00391,-9.29688)">
      <path d="M163.431,82.712C188.212,82.712 208.332,102.832 208.332,127.614C208.332,152.395 188.212,172.515 163.431,172.515C138.649,172.515 118.529,152.395 118.529,127.614C118.529,102.832 138.649,82.712 163.431,82.712ZM163.431,105.163C175.822,105.163 185.881,115.223 185.881,127.614C185.881,140.005 175.822,150.064 163.431,150.064C151.04,150.064 140.98,140.005 140.98,127.614C140.98,115.223 151.04,105.163 163.431,105.163Z" style="fill:rgb(224,178,33);"/>
      </g>
      </g>
      </g>
      </svg>
      
  </g>
  <g transform="translate(185,556) rotate(90) " >
    <line x1="0" y1="0" x2="0" y2="0" stroke="black" stroke-width="1" >
    </line>
    <rect x="0" y="-8" width="30" height="16" stroke="black" fill="#E6AB00" >
    </rect>
    <text x="15" y="0" text-anchor="middle" dominant-baseline="middle" font-family="Arial, Helvetica, sans-serif" font-size="10px" fill="black" >
1    </text>
    <line x1="30" y1="0" x2="34" y2="0" stroke="black" stroke-width="1" >
    </line>
    <rect x="34" y="-8" width="60" height="16" stroke="black" fill="#00E1FF" >
    </rect>
    <text x="64" y="0" text-anchor="middle" dominant-baseline="middle" font-family="Arial, Helvetica, sans-serif" font-size="10px" fill="black" >
3V3    </text>
  </g>
  <g transform="translate(233,556) rotate(90) " >
    <line x1="0" y1="0" x2="0" y2="0" stroke="black" stroke-width="1" >
    </line>
    <rect x="0" y="-8" width="30" height="16" stroke="black" fill="#E6AB00" >
    </rect>
    <text x="15" y="0" text-anchor="middle" dominant-baseline="middle" font-family="Arial, Helvetica, sans-serif" font-size="10px" fill="black" >
2    </text>
    <line x1="30" y1="0" x2="34" y2="0" stroke="black" stroke-width="1" >
    </line>
    <rect x="34" y="-8" width="60" height="16" stroke="black" fill="#00E1FF" >
    </rect>
    <text x="64" y="0" text-anchor="middle" dominant-baseline="middle" font-family="Arial, Helvetica, sans-serif" font-size="10px" fill="black" >
3V3    </text>
  </g>
  <g transform="translate(281,556) rotate(90) " >
    <line x1="0" y1="0" x2="0" y2="0" stroke="black" stroke-width="1" >
    </line>
    <rect x="0" y="-8" width="30" height="16" stroke="black" fill="#E6AB00" >
    </rect>
    <text x="15" y="0" text-anchor="middle" dominant-baseline="middle" font-family="Arial, Helvetica, sans-serif" font-size="10px" fill="black" >
3    </text>
    <line x1="30" y1="0" x2="34" y2="0" stroke="black" stroke-width="1" >
    </line>
    <rect x="34" y="-8" width="60" height="16" stroke="black" fill="#00E1FF" >
    </rect>
    <text x="64" y="0" text-anchor="middle" dominant-baseline="middle" font-family="Arial, Helvetica, sans-serif" font-size="10px" fill="black" >
5V    </text>
  </g>
  <g transform="translate(329,556) rotate(90) " >
    <line x1="0" y1="0" x2="0" y2="0" stroke="black" stroke-width="1" >
    </line>
    <rect x="0" y="-8" width="30" height="16" stroke="black" fill="#E6AB00" >
    </rect>
    <text x="15" y="0" text-anchor="middle" dominant-baseline="middle" font-family="Arial, Helvetica, sans-serif" font-size="10px" fill="black" >
4    </text>
    <line x1="30" y1="0" x2="34" y2="0" stroke="black" stroke-width="1" >
    </line>
    <rect x="34" y="-8" width="60" height="16" stroke="black" fill="#00E1FF" >
    </rect>
    <text x="64" y="0" text-anchor="middle" dominant-baseline="middle" font-family="Arial, Helvetica, sans-serif" font-size="10px" fill="black" >
5V    </text>
  </g>
  <g transform="translate(377,556) rotate(90) " >
    <line x1="0" y1="0" x2="0" y2="0" stroke="black" stroke-width="1" >
    </line>
    <rect x="0" y="-8" width="30" height="16" stroke="black" fill="#E6AB00" >
    </rect>
    <text x="15" y="0" text-anchor="middle" dominant-baseline="middle" font-family="Arial, Helvetica, sans-serif" font-size="10px" fill="black" >
5    </text>
    <line x1="30" y1="0" x2="34" y2="0" stroke="black" stroke-width="1" >
    </line>
    <rect x="34" y="-8" width="60" height="16" stroke="black" fill="#00E1FF" >
    </rect>
    <text x="64" y="0" text-anchor="middle" dominant-baseline="middle" font-family="Arial, Helvetica, sans-serif" font-size="10px" fill="black" >
VCC    </text>
  </g>
  <g transform="translate(425,556) rotate(90) " >
    <line x1="0" y1="0" x2="0" y2="0" stroke="black" stroke-width="1" >
    </line>
    <rect x="0" y="-8" width="30" height="16" stroke="black" fill="#E6AB00" >
    </rect>
    <text x="15" y="0" text-anchor="middle" dominant-baseline="middle" font-family="Arial, Helvetica, sans-serif" font-size="10px" fill="black" >
6    </text>
    <line x1="30" y1="0" x2="34" y2="0" stroke="black" stroke-width="1" >
    </line>
    <rect x="34" y="-8" width="60" height="16" stroke="black" fill="#00E1FF" >
    </rect>
    <text x="64" y="0" text-anchor="middle" dominant-baseline="middle" font-family="Arial, Helvetica, sans-serif" font-size="10px" fill="black" >
VCC    </text>
  </g>
  <g transform="translate(473,556) rotate(90) " >
    <line x1="0" y1="0" x2="0" y2="0" stroke="black" stroke-width="1" >
    </line>
    <rect x="0" y="-8" width="30" height="16" stroke="black" fill="#E6AB00" >
    </rect>
    <text x="15" y="0" text-anchor="middle" dominant-baseline="middle" font-family="Arial, Helvetica, sans-serif" font-size="10px" fill="black" >
7    </text>
    <line x1="30" y1="0" x2="34" y2="0" stroke="black" stroke-width="1" >
    </line>
    <rect x="34" y="-8" width="60" height="16" stroke="black" fill="#00E1FF" >
    </rect>
    <text x="64" y="0" text-anchor="middle" dominant-baseline="middle" font-family="Arial, Helvetica, sans-serif" font-size="10px" fill="black" >
REGN    </text>
  </g>
  <g transform="translate(521,556) rotate(90) " >
    <line x1="0" y1="0" x2="0" y2="0" stroke="black" stroke-width="1" >
    </line>
    <rect x="0" y="-8" width="30" height="16" stroke="black" fill="#E6AB00" >
    </rect>
    <text x="15" y="0" text-anchor="middle" dominant-baseline="middle" font-family="Arial, Helvetica, sans-serif" font-size="10px" fill="black" >
8    </text>
    <line x1="30" y1="0" x2="34" y2="0" stroke="black" stroke-width="1" >
    </line>
    <rect x="34" y="-8" width="60" height="16" stroke="black" fill="#00E1FF" >
    </rect>
    <text x="64" y="0" text-anchor="middle" dominant-baseline="middle" font-family="Arial, Helvetica, sans-serif" font-size="10px" fill="black" >
NC    </text>
  </g>
  <g transform="translate(569,556) rotate(90) " >
    <line x1="0" y1="0" x2="0" y2="0" stroke="black" stroke-width="1" >
    </line>
    <rect x="0" y="-8" width="30" height="16" stroke="black" fill="#E6AB00" >
    </rect>
    <text x="15" y="0" text-anchor="middle" dominant-baseline="middle" font-family="Arial, Helvetica, sans-serif" font-size="10px" fill="black" >
9    </text>
    <line x1="30" y1="0" x2="34" y2="0" stroke="black" stroke-width="1" >
    </line>
    <rect x="34" y="-8" width="60" height="16" stroke="black" fill="#00E1FF" >
    </rect>
    <text x="64" y="0" text-anchor="middle" dominant-baseline="middle" font-family="Arial, Helvetica, sans-serif" font-size="10px" fill="black" >
GND    </text>
  </g>
  <g transform="translate(617,556) rotate(90) " >
    <line x1="0" y1="0" x2="0" y2="0" stroke="black" stroke-width="1" >
    </line>
    <rect x="0" y="-8" width="30" height="16" stroke="black" fill="#E6AB00" >
    </rect>
    <text x="15" y="0" text-anchor="middle" dominant-baseline="middle" font-family="Arial, Helvetica, sans-serif" font-size="10px" fill="black" >
10    </text>
    <line x1="30" y1="0" x2="34" y2="0" stroke="black" stroke-width="1" >
    </line>
    <rect x="34" y="-8" width="60" height="16" stroke="black" fill="#00E1FF" >
    </rect>
    <text x="64" y="0" text-anchor="middle" dominant-baseline="middle" font-family="Arial, Helvetica, sans-serif" font-size="10px" fill="black" >
GND    </text>
  </g>
  <g transform="translate(665,556) rotate(90) " >
    <line x1="0" y1="0" x2="0" y2="0" stroke="black" stroke-width="1" >
    </line>
    <rect x="0" y="-8" width="30" height="16" stroke="black" fill="#E6AB00" >
    </rect>
    <text x="15" y="0" text-anchor="middle" dominant-baseline="middle" font-family="Arial, Helvetica, sans-serif" font-size="10px" fill="black" >
11    </text>
    <line x1="30" y1="0" x2="34" y2="0" stroke="black" stroke-width="1" >
    </line>
    <rect x="34" y="-8" width="60" height="16" stroke="black" fill="#00E1FF" >
    </rect>
    <text x="64" y="0" text-anchor="middle" dominant-baseline="middle" font-family="Arial, Helvetica, sans-serif" font-size="10px" fill="black" >
VIN    </text>
  </g>
  <g transform="translate(713,556) rotate(90) " >
    <line x1="0" y1="0" x2="0" y2="0" stroke="black" stroke-width="1" >
    </line>
    <rect x="0" y="-8" width="30" height="16" stroke="black" fill="#E6AB00" >
    </rect>
    <text x="15" y="0" text-anchor="middle" dominant-baseline="middle" font-family="Arial, Helvetica, sans-serif" font-size="10px" fill="black" >
12    </text>
    <line x1="30" y1="0" x2="34" y2="0" stroke="black" stroke-width="1" >
    </line>
    <rect x="34" y="-8" width="60" height="16" stroke="black" fill="#00E1FF" >
    </rect>
    <text x="64" y="0" text-anchor="middle" dominant-baseline="middle" font-family="Arial, Helvetica, sans-serif" font-size="10px" fill="black" >
VIN    </text>
  </g>
  <g transform="translate(711,105) rotate(90) " >
    <line x1="0" y1="0" x2="0" y2="0" stroke="black" stroke-width="1" >
    </line>
    <rect x="-30" y="-8" width="30" height="16" stroke="black" fill="#E6AB00" >
    </rect>
    <text x="-15" y="0" text-anchor="middle" dominant-baseline="middle" font-family="Arial, Helvetica, sans-serif" font-size="10px" fill="black" >
13    </text>
    <line x1="-30" y1="0" x2="-34" y2="0" stroke="black" stroke-width="1" >
    </line>
    <rect x="-94" y="-8" width="60" height="16" stroke="black" fill="#00E1FF" >
    </rect>
    <text x="-64" y="0" text-anchor="middle" dominant-baseline="middle" font-family="Arial, Helvetica, sans-serif" font-size="10px" fill="black" >
CHG    </text>
  </g>
  <g transform="translate(663,105) rotate(90) " >
    <line x1="0" y1="0" x2="0" y2="0" stroke="black" stroke-width="1" >
    </line>
    <rect x="-30" y="-8" width="30" height="16" stroke="black" fill="#E6AB00" >
    </rect>
    <text x="-15" y="0" text-anchor="middle" dominant-baseline="middle" font-family="Arial, Helvetica, sans-serif" font-size="10px" fill="black" >
14    </text>
    <line x1="-30" y1="0" x2="-34" y2="0" stroke="black" stroke-width="1" >
    </line>
    <rect x="-94" y="-8" width="60" height="16" stroke="black" fill="#00E1FF" >
    </rect>
    <text x="-64" y="0" text-anchor="middle" dominant-baseline="middle" font-family="Arial, Helvetica, sans-serif" font-size="10px" fill="black" >
SCL    </text>
  </g>
  <g transform="translate(615,105) rotate(90) " >
    <line x1="0" y1="0" x2="0" y2="0" stroke="black" stroke-width="1" >
    </line>
    <rect x="-30" y="-8" width="30" height="16" stroke="black" fill="#E6AB00" >
    </rect>
    <text x="-15" y="0" text-anchor="middle" dominant-baseline="middle" font-family="Arial, Helvetica, sans-serif" font-size="10px" fill="black" >
15    </text>
    <line x1="-30" y1="0" x2="-34" y2="0" stroke="black" stroke-width="1" >
    </line>
    <rect x="-94" y="-8" width="60" height="16" stroke="black" fill="#00E1FF" >
    </rect>
    <text x="-64" y="0" text-anchor="middle" dominant-baseline="middle" font-family="Arial, Helvetica, sans-serif" font-size="10px" fill="black" >
SDA    </text>
  </g>
  <g transform="translate(567,105) rotate(90) " >
    <line x1="0" y1="0" x2="0" y2="0" stroke="black" stroke-width="1" >
    </line>
    <rect x="-30" y="-8" width="30" height="16" stroke="black" fill="#E6AB00" >
    </rect>
    <text x="-15" y="0" text-anchor="middle" dominant-baseline="middle" font-family="Arial, Helvetica, sans-serif" font-size="10px" fill="black" >
16    </text>
    <line x1="-30" y1="0" x2="-34" y2="0" stroke="black" stroke-width="1" >
    </line>
    <rect x="-94" y="-8" width="60" height="16" stroke="black" fill="#00E1FF" >
    </rect>
    <text x="-64" y="0" text-anchor="middle" dominant-baseline="middle" font-family="Arial, Helvetica, sans-serif" font-size="10px" fill="black" >
/FUEL_INT    </text>
  </g>
  <g transform="translate(519,105) rotate(90) " >
    <line x1="0" y1="0" x2="0" y2="0" stroke="black" stroke-width="1" >
    </line>
    <rect x="-30" y="-8" width="30" height="16" stroke="black" fill="#E6AB00" >
    </rect>
    <text x="-15" y="0" text-anchor="middle" dominant-baseline="middle" font-family="Arial, Helvetica, sans-serif" font-size="10px" fill="black" >
17    </text>
    <line x1="-30" y1="0" x2="-34" y2="0" stroke="black" stroke-width="1" >
    </line>
    <rect x="-94" y="-8" width="60" height="16" stroke="black" fill="#00E1FF" >
    </rect>
    <text x="-64" y="0" text-anchor="middle" dominant-baseline="middle" font-family="Arial, Helvetica, sans-serif" font-size="10px" fill="black" >
TS    </text>
  </g>
  <g transform="translate(471,105) rotate(90) " >
    <line x1="0" y1="0" x2="0" y2="0" stroke="black" stroke-width="1" >
    </line>
    <rect x="-30" y="-8" width="30" height="16" stroke="black" fill="#E6AB00" >
    </rect>
    <text x="-15" y="0" text-anchor="middle" dominant-baseline="middle" font-family="Arial, Helvetica, sans-serif" font-size="10px" fill="black" >
18    </text>
    <line x1="-30" y1="0" x2="-34" y2="0" stroke="black" stroke-width="1" >
    </line>
    <rect x="-94" y="-8" width="60" height="16" stroke="black" fill="#00E1FF" >
    </rect>
    <text x="-64" y="0" text-anchor="middle" dominant-baseline="middle" font-family="Arial, Helvetica, sans-serif" font-size="10px" fill="black" >
VBAT    </text>
  </g>
  <g transform="translate(423,105) rotate(90) " >
    <line x1="0" y1="0" x2="0" y2="0" stroke="black" stroke-width="1" >
    </line>
    <rect x="-30" y="-8" width="30" height="16" stroke="black" fill="#E6AB00" >
    </rect>
    <text x="-15" y="0" text-anchor="middle" dominant-baseline="middle" font-family="Arial, Helvetica, sans-serif" font-size="10px" fill="black" >
19    </text>
    <line x1="-30" y1="0" x2="-34" y2="0" stroke="black" stroke-width="1" >
    </line>
    <rect x="-94" y="-8" width="60" height="16" stroke="black" fill="#00E1FF" >
    </rect>
    <text x="-64" y="0" text-anchor="middle" dominant-baseline="middle" font-family="Arial, Helvetica, sans-serif" font-size="10px" fill="black" >
VBAT    </text>
  </g>
  <g transform="translate(375,105) rotate(90) " >
    <line x1="0" y1="0" x2="0" y2="0" stroke="black" stroke-width="1" >
    </line>
    <rect x="-30" y="-8" width="30" height="16" stroke="black" fill="#E6AB00" >
    </rect>
    <text x="-15" y="0" text-anchor="middle" dominant-baseline="middle" font-family="Arial, Helvetica, sans-serif" font-size="10px" fill="black" >
20    </text>
    <line x1="-30" y1="0" x2="-34" y2="0" stroke="black" stroke-width="1" >
    </line>
    <rect x="-94" y="-8" width="60" height="16" stroke="black" fill="#00E1FF" >
    </rect>
    <text x="-64" y="0" text-anchor="middle" dominant-baseline="middle" font-family="Arial, Helvetica, sans-serif" font-size="10px" fill="black" >
VBAT    </text>
  </g>
  <g transform="translate(327,105) rotate(90) " >
    <line x1="0" y1="0" x2="0" y2="0" stroke="black" stroke-width="1" >
    </line>
    <rect x="-30" y="-8" width="30" height="16" stroke="black" fill="#E6AB00" >
    </rect>
    <text x="-15" y="0" text-anchor="middle" dominant-baseline="middle" font-family="Arial, Helvetica, sans-serif" font-size="10px" fill="black" >
21    </text>
    <line x1="-30" y1="0" x2="-34" y2="0" stroke="black" stroke-width="1" >
    </line>
    <rect x="-94" y="-8" width="60" height="16" stroke="black" fill="#00E1FF" >
    </rect>
    <text x="-64" y="0" text-anchor="middle" dominant-baseline="middle" font-family="Arial, Helvetica, sans-serif" font-size="10px" fill="black" >
GND    </text>
  </g>
  <g transform="translate(279,105) rotate(90) " >
    <line x1="0" y1="0" x2="0" y2="0" stroke="black" stroke-width="1" >
    </line>
    <rect x="-30" y="-8" width="30" height="16" stroke="black" fill="#E6AB00" >
    </rect>
    <text x="-15" y="0" text-anchor="middle" dominant-baseline="middle" font-family="Arial, Helvetica, sans-serif" font-size="10px" fill="black" >
22    </text>
    <line x1="-30" y1="0" x2="-34" y2="0" stroke="black" stroke-width="1" >
    </line>
    <rect x="-94" y="-8" width="60" height="16" stroke="black" fill="#00E1FF" >
    </rect>
    <text x="-64" y="0" text-anchor="middle" dominant-baseline="middle" font-family="Arial, Helvetica, sans-serif" font-size="10px" fill="black" >
GND    </text>
  </g>
  <g transform="translate(231,105) rotate(90) " >
    <line x1="0" y1="0" x2="0" y2="0" stroke="black" stroke-width="1" >
    </line>
    <rect x="-30" y="-8" width="30" height="16" stroke="black" fill="#E6AB00" >
    </rect>
    <text x="-15" y="0" text-anchor="middle" dominant-baseline="middle" font-family="Arial, Helvetica, sans-serif" font-size="10px" fill="black" >
23    </text>
    <line x1="-30" y1="0" x2="-34" y2="0" stroke="black" stroke-width="1" >
    </line>
    <rect x="-94" y="-8" width="60" height="16" stroke="black" fill="#00E1FF" >
    </rect>
    <text x="-64" y="0" text-anchor="middle" dominant-baseline="middle" font-family="Arial, Helvetica, sans-serif" font-size="10px" fill="black" >
/RST    </text>
  </g>
  <g transform="translate(183,105) rotate(90) " >
    <line x1="0" y1="0" x2="0" y2="0" stroke="black" stroke-width="1" >
    </line>
    <rect x="-30" y="-8" width="30" height="16" stroke="black" fill="#E6AB00" >
    </rect>
    <text x="-15" y="0" text-anchor="middle" dominant-baseline="middle" font-family="Arial, Helvetica, sans-serif" font-size="10px" fill="black" >
24    </text>
    <line x1="-30" y1="0" x2="-34" y2="0" stroke="black" stroke-width="1" >
    </line>
    <rect x="-94" y="-8" width="60" height="16" stroke="black" fill="#00E1FF" >
    </rect>
    <text x="-64" y="0" text-anchor="middle" dominant-baseline="middle" font-family="Arial, Helvetica, sans-serif" font-size="10px" fill="black" >
PG    </text>
  </g>
  <g transform="translate(135,105) rotate(90) " >
    <line x1="0" y1="0" x2="0" y2="0" stroke="black" stroke-width="1" >
    </line>
    <rect x="-30" y="-8" width="30" height="16" stroke="black" fill="#E6AB00" >
    </rect>
    <text x="-15" y="0" text-anchor="middle" dominant-baseline="middle" font-family="Arial, Helvetica, sans-serif" font-size="10px" fill="black" >
25    </text>
    <line x1="-30" y1="0" x2="-34" y2="0" stroke="black" stroke-width="1" >
    </line>
    <rect x="-94" y="-8" width="60" height="16" stroke="black" fill="#00E1FF" >
    </rect>
    <text x="-64" y="0" text-anchor="middle" dominant-baseline="middle" font-family="Arial, Helvetica, sans-serif" font-size="10px" fill="black" >
ENABLE    </text>
  </g>
</svg>
