<svg xmlns="http://www.w3.org/2000/svg" width="100" height="188">
  <g fill="none" fill-rule="evenodd">
    <path fill="#404040" d="M0 7.875h99.25l.75.25v19.25c-.625 0-1.125.75-1.125 1.625s.5 1.625 1.125 1.625v9.25c-.625 0-1.125.75-1.125 1.625s.5 1.625 1.125 1.625v9.25c-.625 0-1.125.75-1.125 1.625s.5 1.625 1.125 1.625v9.25c-.625 0-1.125.75-1.125 1.625s.5 1.625 1.125 1.625v9.25c-.625 0-1.125.75-1.125 1.625s.5 1.625 1.125 1.625v9.25c-.625 0-1.125.75-1.125 1.625s.5 1.625 1.125 1.625v9.125c-.625 0-1.125.75-1.125 1.625s.5 1.625 1.125 1.625v9.25c-.625 0-1.125.75-1.125 1.625S99.375 118 100 118v9.25c-.625 0-1.125.75-1.125 1.625s.5 1.625 1.125 1.625v9.25c-.625 0-1.125.75-1.125 1.625S99.375 143 100 143v9.25c-.625 0-1.125.75-1.125 1.625s.5 1.625 1.125 1.625v9.25c-.625 0-1.125.75-1.125 1.625S99.375 168 100 168v4.75l-7.375 15.125h-85L0 172.75V168c.875 0 1.5-.75 1.5-1.625S.875 164.75 0 164.75v-9.25c.875 0 1.5-.75 1.5-1.625S.875 152.25 0 152.25V143c.875 0 1.5-.75 1.5-1.625S.875 139.75 0 139.75v-9.25c.875 0 1.5-.75 1.5-1.625S.875 127.25 0 127.25V118c.875 0 1.5-.75 1.5-1.625S.875 114.75 0 114.75v-9.25c.875 0 1.5-.75 1.5-1.625S.875 102.25 0 102.25v-9.125c.875 0 1.5-.75 1.5-1.625S.875 89.875 0 89.875v-9.25c.875 0 1.5-.75 1.5-1.625S.875 77.375 0 77.375v-9.25c.875 0 1.5-.75 1.5-1.625S.875 64.875 0 64.875v-9.25c.875 0 1.5-.75 1.5-1.625S.875 52.375 0 52.375v-9.25c.875 0 1.5-.75 1.5-1.625S.875 39.875 0 39.875v-9.25c.875 0 1.5-.75 1.5-1.625S.875 27.375 0 27.375v-19.5z"/>
    <path fill="#666" d="M100 168v4.75l-7.375 15.125h-.875l7.5-15.125v-5.25c.125.25.5.5.75.5zM99.25 7.875l.75.25v19.25h-.125v.125H99.5v.125h-.125v.125h-.125v.125-20zm.75 22.75v9.25h-.125V40H99.5v.125h-.125v.125h-.125v.125-10.25.125h.125v.125h.125l.125.125h.25v.125H100zm0 12.5v9.25h-.125v.125H99.5v.125h-.125v.125h-.125v.125-10.25.125h.125v.125h.125l.125.125h.25v.125H100zm0 12.5v9.25h-.125V65H99.5v.125h-.125v.125h-.125v.125-10.25.125h.125v.125h.125l.125.125h.25v.125H100zm0 12.5v9.25h-.125v.125H99.5v.125h-.125v.125h-.125v.125-10.25.125h.125v.125h.125l.125.125h.25v.125H100zm0 12.5v9.25h-.125V90H99.5v.125h-.125v.125h-.125v.125-10.25.125h.125v.125h.125l.125.125h.25v.125H100zm0 12.5v9.125h-.125v.125H99.5v.125h-.125v.125h-.125v.125-10.125.125h.125v.125h.125l.125.125h.25v.125H100zm0 12.375v9.25h-.125v.125H99.5V115h-.125v.125h-.125v.125V105v.125h.125v.125h.125l.125.125h.25v.125H100zm0 12.5v9.25h-.125v.125H99.5v.125h-.125v.125h-.125v.125-10.25.125h.125v.125h.125l.125.125h.25V118H100zm0 12.5v9.25h-.125v.125H99.5V140h-.125v.125h-.125v.125V130v.125h.125v.125h.125l.125.125h.25v.125H100zm0 12.5v9.25h-.125v.125H99.5v.125h-.125v.125h-.125v.125-10.25.125h.125v.125h.125l.125.125h.25V143H100zm0 12.5v9.25h-.125v.125H99.5V165h-.125v.125h-.125v.125V155v.125h.125v.125h.125l.125.125h.25v.125H100z"/>
    <path fill="#8C8C8C" d="M100 172.75l-7.375 15.125h-.875l7.5-15.125"/>
    <path fill="#00A0E3" d="M99.25 83.875v-2.75c-1-.25-1.75-1.25-1.75-2.25 0-1.125.75-2 1.75-2.375v-2.25H72.375c-5.125.625-4.875 9.125 0 9.625H99.25z"/>
    <g fill="#666">
      <path d="M26.75 157.5h4.875v4.875H26.75V157.5zm23-2.375h7.875v3.75H49.75v-3.75zM7.5 11.75h17.75V22.5H7.5V11.75zm33.625 139.5H46.5V154h-5.375v-2.75zM18.75 25.375h7.875v3.875H18.75v-3.875zm43.25 22v-8h3.75v8H62zm-7.375.875v-5.375h2.75v5.375h-2.75zm2 34.875v-5.25h2.75v5.25h-2.75zm-11.75 0V77.75h2.75v5.375h-2.75zm-6.5 0v-5.25h2.75v5.25h-2.75zm-4.75 0v-5.25h2.75v5.25h-2.75zm-14 0v-5.25h2.75v5.25h-2.75zm30.625-.75V74.5H54v7.875h-3.75zM62.375 83v-7.875h3.75V83h-3.75zm-44.25-51.25H23.5v2.75h-5.375v-2.75zm58.125 18.5h5.375V53H76.25v-2.75zm0-10h5.375V43H76.25v-2.75zm0-5h5.375v2.625H76.25V35.25z"/>
      <path d="M41.125 151.25H46.5V154h-5.375v-2.75zm-4.375 12.125h5.375v2.75H36.75v-2.75zM39.125 156H44.5v2.75h-5.375V156zm-3 17.625v-5.375h2.625v5.375h-2.625zM36 182v-5.25h2.75V182H36zm-18.625-26.75h5.375V158h-5.375v-2.75zm2 7.125h3v1.875h-3v-1.875zM31 168.75v-3h1.75v3H31zm-2.5-14.5v-3h1.75v3H28.5zm37.5 3.625v-5.25h2.75v5.25H66zm14.5-.125v-5.25h2.75v5.25H80.5zm-5.375 3.125v-8h3.75v8h-3.75zM39.25 38.625h12.125v1.625l1.25 1.125v6.375L51.375 49v1.5H39.25v-1.625l-1.125-1.125v-6.375l1.125-1v-1.75zm41.5 52.75v-5.25h2.75v5.25h-2.75z"/>
    </g>
    <path fill="#CCC" d="M16.75 173.25v8.125h-4.375v-8.125M27 173.375v8.125h-4.375v-8.125M21.25 170.375v2.875h-3.125v-2.875"/>
    <path fill="#E5E5E5" stroke="#8C8C8C" stroke-width="3" d="M14.625 171.5h10c.5 0 .875.375.875 1v9.75c0 .5-.375 1-.875 1h-10c-.5 0-.875-.5-.875-1v-9.75c0-.625.375-1 .875-1z"/>
    <path fill="#E5E5E5" stroke="#8C8C8C" stroke-width="3" d="M19.625 174c1.875 0 3.5 1.5 3.5 3.375s-1.625 3.5-3.5 3.5-3.375-1.625-3.375-3.5S17.75 174 19.625 174z"/>
    <path fill="#C93" d="M19.625 176.5c.5 0 .875.375.875.875s-.375.875-.875.875-.875-.375-.875-.875.375-.875.875-.875z"/>
    <path fill="#CCC" d="M48.5 172.875H88v10H48.5"/>
    <path fill="#999" d="M48.5 172.875h2.25v10H48.5v-10zm37 0H88v10h-2.5v-10z"/>
    <path fill="#C93" d="M54.375 172.875H59.5v10h-5.125"/>
    <path fill="#666" d="M55.375 30.875V33h1.75v-2.125M52.25 30.875V33h1.625v-2.125M49 30.875V33h1.75v-2.125M45.875 30.875V33H47.5v-2.125M42.625 30.875V33h1.75v-2.125"/>
    <path fill="#B3B3B3" d="M33.625 2h32.5v29.375h-32.5"/>
    <path fill="#333" d="M41 4.375v27h17.75v-27"/>
    <path fill="#B3B3B3" d="M66.5 2.625v-.75L67.625 0h.625"/>
    <path fill="#CCC" d="M66.5 1.875v-1L67.625 0"/>
    <path fill="#B3B3B3" d="M31.5 0h.625l1.125 1.875v.75"/>
    <path fill="#CCC" d="M32.125 0l1.125.875v1L32.125 0zM66.5 30.375l-.375 1H61.75s4-.25 4.125-.5c.125-.375-.25-.5-.25-.5h.875zm-33.25 0l.375 1H38s-4-.25-4.125-.5c-.125-.375.25-.5.25-.5h-.875z"/>
    <path fill="#E6E6E6" d="M39.125 31.375V28.5h2.75v2.875h.75v-1h14.5v1H58V28.5h2.75v2.875h5.75V2H33.25v29.375h5.875zM58 7.5V6h2.75v1.5C61.5 8 62 8.875 62 9.75c0 1.125-.375 2-1.25 2.375v7.75H58v-7.75c-.875-.375-1.375-1.25-1.375-2.375 0-1 .5-1.875 1.375-2.25zm-18.75 0V6H42v1.5c.75.5 1.125 1.375 1.125 2.25 0 1.125-.25 2-1.125 2.375v7.75h-2.75v-7.75c-.875-.375-1.5-1.25-1.5-2.375 0-1 .625-1.875 1.5-2.25z"/>
    <path fill="#F2F2F2" d="M65.75 2h.75v28.375h-2.625"/>
    <path fill="#999" d="M33.25 2l1 18.875 1 9.5h-2"/>
    <path fill="#B3B3B3" d="M34.875 2.375V3.5h30V2.375"/>
    <path fill="#CCC" d="M34.875 2v.5h30V2"/>
    <g>
      <path fill="#C93" d="M90.5 21.625l-2.25-3.75 2.25-3.5-3.625 2.25-3.5-2.25 2.25 3.5-2.25 3.5 3.5-2.25"/>
      <path fill="#C93" d="M87.5 20.25l-.625-.375-.5.375.5 2.625.625-2.625zm-2.625-2.375l-.25.5-2.625-.5 2.625-.625.25.625zm4.375.625l-.375-.625.375-.625 2.625.625-2.625.625zm-1.75-3l-.625-2.625-.5 2.625.5.375.625-.375z"/>
      <path fill="#E6AB00" d="M90.5 21.625l-2.25-3.75 2.25-3.5-2.375 3.5 2.375 3.75zm-3-1.375l-.625-.375.5.375-.5 2.625.625-2.625zm-2.875-1.875l.125-.5-.125-.625.25.625-.25.5z"/>
      <path fill="#E6AB00" d="M89.25 18.5l2.25-.625-2.25-.625 2.625.625-2.625.625zm-1.75-3l-.625-2.625.5 2.625-.5.375.625-.375zm-.625 1.125l-3.5-2.25 3.5 2.375v-.125zm0 2.375l-3.5 2.375 3.5-2.25V19z"/>
    </g>
    <g>
      <path fill="#CCC" d="M72.875 76.875h7.875v4.375h-7.875"/>
      <path fill="#E5E5E5" d="M74.375 77.25h4.875v3.5h-4.875"/>
      <path fill="#1B5BB3" d="M75.875 78.375h1.875v1.375h-1.875"/>
    </g>
    <g>
      <path fill="#CCC" d="M22.375 57.625v2.75H18v-2.75M22.375 65.25V68H18v-2.75M38.25 65.25V68h-4.375v-2.75M38.25 57.625v2.75h-4.375v-2.75"/>
      <path fill="#999" d="M37 55.5v14.75H19.375V55.5"/>
      <path fill="#000" d="M28.125 58.625c2.5 0 4.375 1.875 4.375 4.25s-1.875 4.375-4.375 4.375c-2.375 0-4.25-2-4.25-4.375s1.875-4.25 4.25-4.25z"/>
      <path fill="#404040" d="M28 59c2.125 0 3.875 1.75 3.875 3.875 0 2.25-1.75 4-3.875 4-2.25 0-4-1.75-4-4C24 60.75 25.75 59 28 59z"/>
      <path fill="#999" d="M28 59c2.125 0 3.875 1.75 3.875 3.875 0 2.25-1.75 4-3.875 4 5-.75 5-7.25 0-7.875z"/>
    </g>
    <g>
      <path fill="#00A0E3" d="M21.75 53.625c0 .125-.125.375-.125.5-.125.125-.125.25-.25.25-.125.125-.25.25-.5.25-.125.125-.25.125-.5.125s-.375 0-.625-.125c-.125 0-.25 0-.375-.125V54c0 .125.125.125.25.125 0 0 .125.125.25.125h.5c.25 0 .5 0 .625-.125s.25-.25.25-.5c0-.125 0-.125-.125-.25 0 0 0-.125-.125-.125 0-.125-.125-.125-.25-.25-.125 0-.25-.125-.375-.125-.25-.125-.375-.125-.5-.25l-.25-.25c-.125-.125-.125-.25-.125-.375-.125-.125-.125-.25-.125-.375s.125-.25.125-.375.125-.25.25-.375c.125 0 .25-.125.375-.125.125-.125.25-.125.5-.125s.375 0 .5.125c.25 0 .375 0 .5.125l-.125.375c-.125 0-.25-.125-.5-.125h-.375c-.25 0-.375 0-.5.125s-.25.25-.25.375 0 .25.125.25c0 .125 0 .25.125.25 0 0 .125.125.25.125.125.125.25.125.375.25.125 0 .25.125.375.125.125.125.25.25.375.25 0 .125.125.25.125.375s.125.25.125.375zm2.75 1h-2V50.75h2v.375H23v1.25h1.5v.5H23v1.375h1.5v.375zm2.125 0h-.5v-3.5H25v-.375h2.75v.375h-1.125v3.5zm4.5-3.875v3.125l-.375.375-.375.375c-.25 0-.375.125-.625.125s-.5-.125-.625-.125c-.25-.125-.375-.125-.5-.25s-.25-.375-.25-.5c-.125-.25-.125-.375-.125-.625v-2.5h.5v2.5c0 .375.125.625.25.75.125.25.375.25.75.25h.375c.125-.125.25-.125.25-.25.125-.125.125-.25.25-.375V50.75h.5zm3.5 1.125c0 .125-.125.25-.125.5 0 .125-.125.25-.25.375s-.25.25-.5.25c-.125.125-.375.125-.625.125h-.375v1.5h-.5V50.75h1.5c.25.125.375.125.5.25s.125.25.25.375c0 .125.125.25.125.5zm-1.875.875H33c.25 0 .375-.125.5-.125s.25 0 .25-.125c.125 0 .125-.125.25-.25v-.375c0-.25 0-.375-.125-.5-.25-.125-.375-.25-.75-.25h-.375v1.625zm26.5.375v1.625h-.5v-4h1c.5 0 .875.125 1.125.25.125.25.25.5.25.875v.375c-.125.125-.125.25-.25.375 0 0-.125.125-.25.125 0 .125-.125.125-.25.125L61.5 54.75h-.625l-1-1.625h-.625zm0-.5h.875c.125 0 .25-.125.25-.125l.25-.25v-.625c-.125-.125-.125-.25-.25-.25 0-.125-.125-.125-.25-.125h-.875v1.375zm4.875 2.125H62v-4h2.125v.5H62.5v1.125H64v.5h-1.5v1.375h1.625v.5zM67 53.625v.5l-.375.375c-.125 0-.25.125-.375.125-.125.125-.375.125-.5.125h-.625c-.125-.125-.25-.125-.375-.125v-.5h.125c.125.125.25.125.25.125h.25c.125.125.25.125.375.125.25 0 .5-.125.625-.25s.125-.25.125-.375v-.25c0-.125-.125-.25-.125-.25-.125-.125-.125-.125-.25-.125-.125-.125-.25-.125-.5-.25-.125 0-.25-.125-.375-.25-.125 0-.25-.125-.25-.25-.125 0-.125-.125-.25-.25v-.375c0-.25 0-.375.125-.5 0-.125.125-.25.25-.25.125-.125.125-.125.375-.25h1c.125 0 .375.125.5.125l-.25.5c-.125-.125-.25-.125-.375-.125-.125-.125-.25-.125-.375-.125-.25 0-.5.125-.625.125 0 .125-.125.25-.125.5V52c.125 0 .125.125.125.125.125.125.25.125.25.25.125 0 .25.125.375.125.25.125.375.125.5.25.125 0 .25.125.25.25.125 0 .125.125.25.25v.375zm2.875 1.125h-2v-4h2v.5h-1.5v1.125h1.375v.5h-1.375v1.375h1.5v.5zm2 0h-.5v-3.5H70.25v-.5H73v.5h-1.125v3.5zM85.125 31c.25 0 .375 0 .5.125.125 0 .125 0 .25.125s.125.25.25.375c0 0 .125.125.125.375 0-.375.125-.625.375-.875.125-.125.375-.25.625-.25s.375 0 .5.125c.25 0 .375.125.5.25s.125.25.25.5c0 .25.125.5.125.75 0 .125-.125.375-.125.625 0 .125-.125.375-.125.5h-.5c0-.125.125-.375.125-.625.125-.125.125-.375.125-.5 0-.25 0-.375-.125-.5 0-.125 0-.25-.125-.375-.125 0-.125-.125-.25-.125s-.25-.125-.375-.125-.25.125-.375.125l-.25.25c0 .125 0 .25-.125.375V33H86v-.875c0-.125-.125-.25-.125-.25-.125-.125-.25-.25-.375-.25 0 0-.125-.125-.25-.125s-.25.125-.25.125c-.125 0-.25.125-.25.125-.125.125-.125.125-.125.25v.875c.125.125.25.25.25.5l-.375.25c0-.125-.125-.125-.125-.25s-.125-.25-.125-.375c0 0-.125-.125-.125-.25v-.5c0-.125 0-.375.125-.5 0-.125.125-.25.125-.375.125-.125.25-.25.375-.25.125-.125.25-.125.375-.125zm-1-3.375V27l4.375 1.5v.625L84.125 30.5v-.625l2.75-.875c.25 0 .375 0 .625-.125.125 0 .25 0 .375-.125-.125 0-.25 0-.375-.125-.25 0-.375 0-.625-.125l-2.75-.875zm1-3.375h.5l.25.25c.125 0 .125.125.25.25 0 .125.125.25.125.375 0-.375.125-.625.375-.75.125-.25.375-.25.625-.25h.5c.25.125.375.25.5.375s.125.25.25.5c0 .125.125.375.125.625s-.125.5-.125.625c0 .25-.125.375-.125.625h-.5c0-.25.125-.375.125-.625.125-.25.125-.375.125-.625 0-.125 0-.25-.125-.375 0-.125 0-.25-.125-.375s-.125-.125-.25-.125c-.125-.125-.25-.125-.375-.125s-.25 0-.375.125c0 0-.125.125-.25.125 0 .125 0 .25-.125.375v.875H86v-.75c0-.125-.125-.25-.125-.375-.125-.125-.25-.125-.375-.125 0-.125-.125-.125-.25-.125s-.25 0-.25.125c-.125 0-.25 0-.25.125-.125 0-.125.125-.125.25v.875c.125.125.25.25.25.375l-.375.25s-.125-.125-.125-.25c0 0-.125-.125-.125-.25s-.125-.25-.125-.375V25.5c0-.25 0-.375.125-.5 0-.25.125-.375.125-.5.125-.125.25-.125.375-.25h.375zm1.625 19.625h1.75v.625h-4.25v-1.125c0-.5 0-.875.25-1.125s.5-.375 1-.375h.375c.125.125.25.125.375.25l.25.25c0 .125.125.25.125.375L88.5 41.5v.625l-1.75 1.125v.625zm-.5 0V43c0-.125-.125-.25-.125-.375-.125 0-.25-.125-.25-.125h-.75c-.125 0-.25.125-.25.125-.125.125-.125.25-.125.375s-.125.25-.125.375v.5h1.625zm1.125-5.25c.25 0 .375 0 .5.125.125 0 .25.125.375.25s.25.25.25.5c.125.125.125.375.125.625 0 .125 0 .375-.125.5 0 .25 0 .375-.125.5h-.5S88 41 88 40.875v-.25c.125 0 .125-.125.125-.25v-.25c0-.375 0-.625-.125-.75s-.375-.25-.5-.25h-.375c0 .125-.125.125-.125.25-.125 0-.125.125-.25.25 0 .125-.125.25-.25.5 0 .125-.125.25-.125.375l-.375.375c0 .125-.125.125-.25.125-.125.125-.375.125-.5.125s-.375 0-.5-.125c-.125 0-.25-.125-.25-.25-.125-.125-.25-.25-.25-.375-.125-.25-.125-.375-.125-.625 0-.125 0-.375.125-.625 0-.125.125-.375.125-.5l.5.25c-.125.125-.125.25-.125.375-.125.25-.125.375-.125.5 0 .25.125.5.125.625.125.125.375.125.5.125h.25c.125 0 .25-.125.25-.125l.25-.25c0-.125.125-.25.125-.5.125-.125.125-.25.25-.375 0-.125.125-.25.25-.375s.25-.125.375-.25h.375zM88.5 36.5v.5h-3.75v1.25h-.5v-3h.5v1.25h3.75zm-4.25 20.75v-.625l4.375 1.5v.5l-4.375 1.5V59.5l2.75-.875c.125-.125.375-.125.5-.125.125-.125.375-.125.5-.125-.125 0-.375-.125-.5-.125s-.375-.125-.5-.125l-2.75-.875zm0-1.25v-1.875c.125-.125.125-.25.25-.375l.375-.375c.125 0 .25-.125.5-.125.125 0 .25.125.375.125 0 0 .125.125.25.125 0 .125.125.25.125.25.125.125.125.25.125.375h.125v-.375c.125-.125.125-.25.25-.25 0-.125.125-.25.25-.25s.25-.125.5-.125c.125 0 .375.125.5.125.125.125.25.25.375.25.125.125.125.375.25.5 0 .125.125.375.125.625V56H84.25zm1.875-.5v-.75c0-.125 0-.25-.125-.375 0-.125 0-.25-.125-.375 0 0-.125-.125-.25-.125h-.25c-.25 0-.375 0-.5.25-.125.125-.125.375-.125.75v.625h1.375zm.375 0h1.625v-.75c0-.25 0-.375-.125-.5 0-.125 0-.25-.125-.25 0-.125-.125-.125-.25-.125-.125-.125-.25-.125-.375-.125 0 0-.125 0-.25.125-.125 0-.125 0-.25.125 0 0-.125.125-.125.25s-.125.25-.125.5v.75zm2.125-5.75l-1.375.5v1.625l1.375.375v.625L84.25 51.25v-.5l4.375-1.625v.625zm-1.875.625l-1.25.375c0 .125-.125.125-.125.125h-.125c-.125 0-.125.125-.25.125h-.125H85c.125.125.125.125.25.125h.125l.125.125 1.25.375v-1.25zm1.875-3.125v.625H84.75v1.25h-.5v-3h.5v1.125h3.875zM86.25 71.625v-1.5h2.125c0 .125 0 .25.125.375v.375s0 .125.125.25v.5c0 .25-.125.5-.25.75 0 .25-.25.5-.375.625-.25.25-.5.375-.75.375-.25.125-.5.125-.875.125s-.625 0-1-.125c-.25-.125-.5-.25-.625-.375-.25-.25-.375-.375-.5-.625-.125-.375-.125-.625-.125-1v-.625c.125-.125.125-.375.25-.5l.5.125c0 .125-.125.25-.125.25 0 .125 0 .25-.125.25v.625c0 .25 0 .375.125.625 0 .125.125.375.375.5.125.125.25.125.5.25.25 0 .5.125.75.125s.5-.125.625-.125c.25 0 .5-.125.625-.25s.25-.25.375-.5c0-.125.125-.375.125-.625V71C88 71 88 70.875 88 70.875v-.125h-1.25v.875h-.5zm2.25-5.75v.625l-3.625 2.125H88.5v.5h-4.375V68.5l3.625-2.125h-3.625v-.5H88.5zM86.25 61.5c.375 0 .75 0 1 .125L88 62l.375.75c.125.25.125.5.125.875v1.125h-4.375V63.5c0-.375.125-.625.25-.875 0-.25.125-.375.375-.625.125-.125.375-.25.625-.375s.625-.125.875-.125zm.125.625h-.75c-.25.125-.375.25-.625.375-.125.125-.125.25-.25.375-.125.25-.125.375-.125.625v.625H88v-.5c0-.5-.125-.875-.375-1.125s-.75-.375-1.25-.375z"/>
      <path fill="#404040" d="M86.375 79.125c.375 0 .625 0 .875.125.375.125.625.25.75.375.125.25.375.5.375.75.125.25.125.5.125.875v1h-4.25v-1.125c0-.375 0-.625.125-.875s.25-.375.375-.625c.125-.125.375-.25.625-.375.375-.125.625-.125 1-.125zm0 .625h-.75c-.25.125-.375.25-.5.375l-.375.375c0 .25-.125.375-.125.625v.625h3.5v-.5c0-.5-.25-.875-.5-1.125s-.75-.375-1.25-.375zm2.125-1.875l-3.75-1.625v2.25h-.5v-2.75h.375l3.875 1.625v.5z"/>
      <path fill="#00A0E3" d="M86.25 91.5c.375 0 .75 0 1 .125.25 0 .5.25.75.375.125.125.25.375.375.625s.125.625.125.875v1.125h-4.375v-1.25c0-.25.125-.5.125-.75.125-.25.25-.5.5-.625.125-.25.375-.375.625-.375.25-.125.625-.125.875-.125zm.125.5c-.375 0-.625 0-.75.125-.25.125-.5.125-.625.25s-.25.375-.25.5c-.125.125-.125.375-.125.625v.625H88v-.5c0-.5-.125-.875-.375-1.25-.25-.25-.75-.375-1.25-.375zm.25-1.25H86c-.125 0-.375-.125-.5-.125-.25-.125-.375-.125-.625-.25L84.5 90c-.125-.125-.25-.25-.25-.5-.125-.125-.125-.375-.125-.625v-.5h.5v.875c0 .125.125.25.125.375.125.125.25.25.375.25 0 .125.125.125.25.125.125.125.375.125.5.125h.375L86.125 90c-.125 0-.125-.125-.25-.25v-.25c-.125 0-.125-.125-.125-.25 0-.25.125-.375.125-.5.125-.125.125-.25.25-.375s.25-.25.375-.25c.25-.125.375-.125.625-.125s.375 0 .625.125c.125 0 .25.125.375.25l.375.375c0 .25.125.375.125.625 0 .125-.125.375-.125.5-.125.125-.25.375-.375.5s-.375.125-.625.25-.5.125-.875.125zm1.5-1.375c0-.125 0-.25-.125-.375 0-.125 0-.125-.125-.25s-.25-.125-.375-.125c-.125-.125-.25-.125-.375-.125s-.25 0-.375.125c-.125 0-.25 0-.25.125-.125 0-.125.125-.25.25v.625c.125.125.125.25.25.375 0 0 .125.125.25.125s.125.125.25.125.25-.125.375-.125.25-.125.375-.125l.25-.25c.125-.125.125-.25.125-.375zM86.25 103.75c.375 0 .625 0 1 .125.25.125.5.25.625.5.25.125.375.375.375.625.125.25.25.5.25.875V107h-4.375v-1.25c0-.25 0-.625.125-.875s.25-.375.375-.625c.25-.125.375-.25.75-.375.25-.125.5-.125.875-.125zm0 .625c-.25 0-.5 0-.75.125-.25 0-.375.125-.5.25s-.25.25-.375.5v1.125H88v-.5c0-.5-.125-.875-.5-1.125-.25-.25-.625-.375-1.25-.375zm-.5-2.625c0-.125 0-.375.125-.5 0-.25.125-.375.25-.5s.25-.25.375-.25c.125-.125.375-.125.5-.125.25 0 .5 0 .625.125.25 0 .375.125.5.25s.25.375.25.5c.125.25.125.5.125.75v.5c-.125.125-.125.25-.125.25 0 .125-.125.125-.125.25h-.5c0-.125.125-.125.125-.25s.125-.125.125-.25v-1c0-.125-.125-.25-.125-.25-.125-.125-.25-.25-.375-.25s-.25-.125-.375-.125c-.25 0-.5.125-.625.375-.125.125-.25.375-.25.75v.5l.125.125-.25.25-2-.125v-2h.5v1.5l1.25.125s0-.125-.125-.25v-.375zm.625 14.75c.25 0 .625 0 .875.125L88 117c.125.25.25.375.375.75.125.25.125.5.125.875v1h-4.25V118.5c0-.375 0-.625.125-.875 0-.25.125-.375.375-.625.125-.125.375-.25.625-.375s.625-.125 1-.125zm0 .5c-.375 0-.625.125-.75.125-.25.125-.375.25-.5.375-.25.125-.25.25-.375.375 0 .25-.125.375-.125.625v.625H88v-.5c0-.5-.125-.875-.375-1.125s-.75-.5-1.25-.5zm1.125-4.125v.625h1v.5h-1v2h-.375l-3-1.875v-.625h3v-.625h.375zM87.125 114H84.75l.125.125H85l.125.125h.125l1.875 1.25V114zm-.875 14.75c.375 0 .75 0 1 .125l.75.375.375.75c.125.25.125.5.125.875v1h-4.375v-1.125c0-.375.125-.625.125-.875.125-.25.25-.375.5-.625.125-.125.375-.25.625-.375s.625-.125.875-.125zm.125.625h-.75c-.25.125-.5.25-.625.375s-.25.25-.25.375c-.125.25-.125.375-.125.625v.625H88v-.5c0-.5-.125-.875-.375-1.125s-.75-.375-1.25-.375zM85.25 125.5c.125 0 .25 0 .375.125.125 0 .125.125.25.125.125.125.125.25.25.375 0 0 .125.25.125.375 0-.375.125-.625.375-.875.125-.125.375-.25.625-.25s.375 0 .5.125c.25 0 .375.125.5.25s.125.375.25.5c0 .25.125.5.125.75s-.125.375-.125.625c0 .125-.125.375-.125.5h-.5c0-.125.125-.375.125-.625.125-.125.125-.375.125-.5 0-.25 0-.375-.125-.5 0-.125 0-.25-.125-.375-.125 0-.125-.125-.25-.125s-.25-.125-.375-.125-.25.125-.375.125c0 .125-.125.125-.25.25 0 .125 0 .25-.125.375v.875H86v-.875c0-.125-.125-.25-.125-.25-.125-.125-.25-.25-.375-.25H85c-.125 0-.25.125-.25.125-.125.125-.125.125-.125.25v.875c.125.125.25.25.25.5l-.375.25c0-.125-.125-.125-.125-.25s-.125-.25-.125-.375c0 0-.125-.125-.125-.25v-.5c0-.125 0-.375.125-.5 0-.125.125-.25.125-.375.125-.125.25-.25.375-.25.125-.125.25-.125.5-.125zm1.125 15.75c.375 0 .625 0 1 .125.25.125.5.25.625.375.25.25.375.5.375.75.125.25.25.5.25.875v1.125H84.25v-1.25c0-.375 0-.625.125-.875s.25-.375.375-.625c.25-.125.375-.25.75-.375.25-.125.5-.125.875-.125zm0 .625h-.75c-.25.125-.375.25-.5.375l-.375.375v1.25h3.375v-.5c0-.5-.125-.875-.5-1.125-.25-.25-.625-.375-1.25-.375zm2.25-4v2.75h-.5L87 139.5c-.125-.125-.375-.25-.5-.375s-.25-.25-.375-.25c-.125-.125-.25-.125-.375-.25H85l-.125.125-.25.25v.25c0 .25 0 .375.125.5.125.25.125.375.25.5l-.375.25s-.125-.125-.125-.25c-.125 0-.125-.125-.125-.25-.125-.125-.125-.25-.125-.375-.125-.125-.125-.25-.125-.375s.125-.375.125-.5.125-.25.25-.375.25-.125.375-.25c.125 0 .25-.125.5-.125.125 0 .25.125.375.125.25 0 .375.125.5.25s.25.125.5.25c.125.125.25.375.375.5l.875.75h.125v-2h.5zm-2.375 15c.375 0 .75 0 1 .125l.75.375.375.75c.125.25.125.5.125.875v1h-4.375v-1.125c0-.375.125-.625.125-.875.125-.25.25-.375.5-.625.125-.125.375-.25.625-.375s.625-.125.875-.125zm.125.625h-.75c-.25.125-.5.25-.625.375s-.25.25-.25.375c-.125.25-.125.375-.125.625v.625H88v-.5c0-.5-.125-.875-.375-1.125-.375-.25-.75-.375-1.25-.375zm2.125-3.125v.5h-3.75s0 .125.125.125c0 .125.125.125.125.125v.125l.375.375L85 152l-.875-1.125v-.5H88.5zm-2.25 16c.375 0 .75 0 1 .125.25 0 .5.25.75.375.125.125.25.375.375.625s.125.625.125.875v1.125h-4.375v-1.25c0-.25.125-.5.25-.75 0-.25.125-.5.375-.625.125-.25.375-.375.625-.375.25-.125.625-.125.875-.125zm.125.5c-.375 0-.625 0-.75.125-.25 0-.375.125-.625.25-.125.125-.125.25-.25.5-.125.125-.125.375-.125.625V169H88v-.5c0-.5-.125-1-.375-1.25s-.75-.375-1.25-.375zm0-4c.375 0 .625 0 .875.125.25 0 .5.125.75.25.125 0 .375.25.375.375.125.125.25.375.25.625s-.125.5-.25.625c0 .125-.25.375-.375.375l-.75.375h-1.875c-.25-.125-.5-.125-.625-.25-.25-.125-.375-.25-.5-.5-.125-.125-.125-.375-.125-.625s0-.375.125-.625c.125-.125.25-.25.5-.375.125-.125.375-.25.625-.25.25-.125.625-.125 1-.125zm0 2.25c.25 0 .5 0 .75-.125.25 0 .375 0 .5-.125.25 0 .25-.125.375-.25s.125-.25.125-.375 0-.25-.125-.375-.125-.125-.375-.25c-.125-.125-.25-.125-.5-.125s-.5-.125-.75-.125c-.375 0-.625.125-.875.125-.125 0-.375 0-.5.125s-.25.125-.375.25v.75c.125.125.25.25.375.25.125.125.375.125.5.125.25.125.5.125.875.125zM16 166.875l-1.375.5V169l1.375.5v.5l-4.375-1.625v-.5l4.375-1.5v.5zm-1.875.625l-1.25.5h-.125s-.125 0-.125.125h-.375c0 .125.125.125.125.125h.25l.125.125h.125l1.25.375v-1.25zm-.25-4.25c.25 0 .625 0 .875.125.25 0 .5.125.75.25.125.125.375.25.375.375.125.25.25.375.25.625s-.125.5-.25.625c0 .25-.25.375-.375.5-.25.125-.5.125-.75.25h-1.875c-.25-.125-.5-.125-.625-.25-.25-.125-.375-.25-.5-.5-.125-.125-.125-.375-.125-.625s0-.375.125-.625l.375-.375c.25-.125.5-.25.75-.25.25-.125.625-.125 1-.125zm0 2.25h.75c.25-.125.375-.125.5-.25.125 0 .25-.125.375-.25.125 0 .125-.125.125-.375 0-.125 0-.25-.125-.375s-.25-.125-.375-.25c-.125 0-.25-.125-.5-.125H13c-.125 0-.375.125-.5.125-.125.125-.25.125-.375.25 0 .125-.125.25-.125.375 0 .25.125.375.125.375.125.125.25.25.375.25.125.125.375.125.5.25h.875zM16 154.375l-1.375.5v1.625L16 157v.5l-4.375-1.625v-.5l4.375-1.5v.5zm-1.875.625l-1.25.5h-.125s-.125 0-.125.125h-.375c0 .125.125.125.125.125h.25l.125.125h.125l1.25.375V155zM16 151.75v.5h-3.75.125v.125l.125.125v.125l.375.375-.375.25-.875-1.125v-.375H16zm0-9.875l-1.375.5V144l1.375.5v.5l-4.375-1.625v-.5l4.375-1.5v.5zm-1.875.625l-1.25.5h-.125s-.125 0-.125.125h-.375c0 .125.125.125.125.125h.25l.125.125h.125l1.25.375v-1.25zM16 138.375V141h-.5l-1.125-1-.375-.375c-.125-.125-.25-.25-.375-.25-.125-.125-.25-.25-.375-.25s-.375-.125-.5-.125-.125.125-.25.125-.125.125-.25.125c0 .125-.125.125-.125.25v.75c.125.125.25.375.375.5l-.375.25-.25-.25c0-.125-.125-.25-.125-.25 0-.125-.125-.25-.125-.375v-.875c.125-.125.25-.25.25-.375.125-.125.25-.25.375-.25.125-.125.375-.125.5-.125s.375 0 .5.125c.125 0 .25.125.5.125l.375.375c.125.125.375.25.5.375l.875.875v-2h.5zm0-9l-1.375.5v1.625L16 132v.5l-4.375-1.625v-.5l4.375-1.5v.5zm-1.875.625l-1.25.5h-.125s-.125 0-.125.125h-.375c0 .125.125.125.125.125h.25l.125.125h.125l1.25.375V130zm-1.5-4h.5l.25.25.25.25c0 .125.125.25.125.375 0-.25.125-.625.375-.75.125-.125.375-.25.625-.25s.375 0 .5.125c.25 0 .375.125.5.25s.125.25.25.5c0 .125.125.375.125.75 0 .125-.125.375-.125.5 0 .25-.125.375-.125.625h-.5c0-.25.125-.375.125-.625.125-.125.125-.375.125-.5 0-.25 0-.375-.125-.5 0-.125 0-.25-.125-.375s-.125-.125-.25-.125c-.125-.125-.25-.125-.375-.125s-.25 0-.375.125l-.25.25s0 .125-.125.25v.875h-.5v-.75c0-.125-.125-.25-.25-.375 0 0-.125-.125-.25-.125 0-.125-.125-.125-.25-.125s-.25 0-.25.125c-.125 0-.25 0-.25.125-.125 0-.125.125-.125.25v.875c.125.125.25.25.25.375l-.375.375c0-.125-.125-.25-.125-.25 0-.125-.125-.25-.125-.375s-.125-.25-.125-.375v-.875c.125-.25.25-.375.25-.5.125 0 .25-.125.375-.125.125-.125.25-.125.375-.125zM16 116.875l-1.375.5V119l1.375.5v.5l-4.375-1.625v-.5l4.375-1.5v.5zm-1.875.625l-1.25.5h-.125s-.125 0-.125.125h-.375c0 .125.125.125.125.125h.25l.125.125h.125l1.25.375v-1.25zm.875-4.375v.625h1v.5h-1v2h-.5l-2.875-2v-.5H14.5v-.625h.5zm-.5 1.125h-2.25.125c0 .125 0 .125.125.125 0 0 .125 0 .125.125h.125l1.75 1.25v-1.5zm1.5-9.875l-1.375.5v1.625L16 107v.5l-4.375-1.625v-.5l4.375-1.5v.5zm-1.875.625l-1.25.5h-.125s-.125 0-.125.125h-.375c0 .125.125.125.125.125h.25l.125.125h.125l1.25.375V105zm-.75-2.75v-.625c.125-.125.125-.25.25-.375s.25-.25.5-.375h1.125l.375.375c.125.125.25.25.375.5 0 .125.125.375.125.625 0 .125-.125.25-.125.25V103s0 .125-.125.25v.25h-.5c0-.125 0-.25.125-.25v-.375s.125-.125.125-.25v-.25c0-.125 0-.25-.125-.375 0-.125 0-.25-.125-.375s-.125-.125-.25-.125c-.125-.125-.25-.125-.5-.125s-.5.125-.625.25-.25.5-.25.75v.25c.125 0 .125.125.125.125v.375l-.125.25-2.125-.125v-2.125h.5v1.625l1.25.125v-.625zm.375-8.125c.375 0 .625.125 1 .125.25.125.5.25.625.5.25.125.375.375.375.625.125.25.25.5.25.875v1.125h-4.375v-1.25c0-.25 0-.5.125-.75s.25-.5.375-.625c.25-.25.375-.375.75-.5.25 0 .5-.125.875-.125zm0 .625c-.25 0-.5 0-.75.125-.25 0-.375.125-.5.25s-.25.25-.375.5v1.125H15.5v-.375c0-.625-.125-1-.5-1.25-.25-.25-.625-.375-1.25-.375zM16 90.625l-1.375.5v1.625l1.375.5v.5l-4.375-1.5v-.5L16 90.125v.5zm-1.875.625l-1.25.5h-.125c-.125 0-.125.125-.25.125h-.125c-.125 0-.125 0-.25.125h.375c.125.125.125.125.25.125h.125l1.25.5V91.25zM12 87.75c0 .25.125.375.125.625l.375.375c.125.125.375.25.5.25.25.125.5.125.75.125s.5 0 .75-.125c.25 0 .375-.125.625-.25.125-.125.25-.25.25-.375.125-.25.125-.375.125-.625v-.5c-.125-.125-.125-.375-.125-.5h.5V87c0 .125.125.125.125.25v.625c0 .25 0 .625-.125.75-.125.25-.25.5-.5.625-.125.125-.375.25-.75.375-.25.125-.5.125-.875.125-.25 0-.625-.125-.875-.125l-.75-.375c-.125-.25-.25-.375-.375-.625s-.25-.5-.25-.875c0-.25.125-.375.125-.625 0-.125.125-.375.125-.5l.5.25c0 .125-.125.25-.125.375-.125.125-.125.25-.125.5zm-.375-6v-.5l2.625-.75h.25c.125-.125.25-.125.375-.125s.125 0 .25-.125c0 0-.125 0-.25-.125h-.625l-2.625-.625v-.625L16 80v.5l-2.75.75c-.125.125-.25.125-.375.125s-.125 0-.25.125h-.375c.125 0 .25 0 .375.125h.25c.125 0 .25.125.375.125l2.75.75v.5l-4.375 1.125V83.5l2.625-.625h.375c0-.125.125-.125.25-.125h.5c0-.125-.125-.125-.25-.125h-.25c-.125 0-.25 0-.375-.125h-.25l-2.625-.75zM16 75.25v.625l-2.125 1.375.375.5H16v.5h-4.375v-.5h2.25l-.5-.375L11.625 76v-.625l1.875 1.5L16 75.25zm-3.125-3.125c.25 0 .375 0 .625.125.125 0 .25.125.375.25s.25.25.375.5c0 .125.125.375.125.75v.375H16v.625h-4.375v-1.125c0-.25.125-.5.125-.625 0-.25.125-.375.25-.5s.25-.25.375-.25c.125-.125.375-.125.5-.125zm1 2v-.375c0-.125 0-.25-.125-.375 0-.25 0-.25-.125-.375 0-.125-.125-.125-.25-.25H13c-.375 0-.5 0-.625.25-.125.125-.25.375-.25.75v.375h1.75zm.375-5.25H16v.5h-4.375v-1c0-.5.125-.875.375-1.125.125-.25.5-.375.875-.375h.5c.125.125.25.125.25.25.125 0 .25.125.25.25.125.125.125.25.125.25l2-1.125v.625l-1.75 1.125v.625zm-.5 0V68c-.125-.125-.125-.25-.25-.375 0-.125-.125-.125-.25-.125-.125-.125-.25-.125-.375-.125s-.25 0-.375.125l-.125.125c-.125.125-.125.25-.25.375v.875h1.625zm2.25-5.75v.625l-1.875 1L16 65.875v.5l-2.25-1.25-2.125 1.25v-.625l1.75-1-1.75-1v-.5l2.125 1.25L16 63.125zm0-7.75V56h-3.875v1.25h-.5v-3.125h.5v1.25H16zm0-4.625v.625L14.125 52.5l1.875 1v.625l-2.25-1.375L11.625 54v-.625l1.75-1-1.75-1v-.5l2.125 1.25L16 50.75zm-2.25-5v-1.375h2.125s0 .125.125.25v.75c.125.125.125.25.125.375 0 .375-.125.625-.25.875 0 .25-.25.375-.375.625l-.75.375c-.25 0-.625.125-.875.125-.375 0-.625-.125-1-.25-.25 0-.5-.125-.625-.375-.25-.125-.375-.375-.5-.625s-.125-.625-.125-.875V45c.125-.25.125-.5.25-.625l.5.25s-.125.125-.125.25c0 0 0 .125-.125.25v.5c0 .25 0 .5.125.625 0 .25.125.375.375.5.125.125.25.25.5.25.25.125.5.125.75.125s.5 0 .625-.125c.25 0 .5-.125.625-.25l.375-.375c0-.25.125-.5.125-.75v-.25s0-.125-.125-.125v-.375h-1.25v.875h-.5zM16 40v.75l-3.625 2H16v.5h-4.375v-.625l3.625-2V40.5c-.125 0-.25 0-.5.125h-3.125V40H16zm-2.25-4.375c.375 0 .75.125 1 .125.25.125.5.25.75.5.125.125.25.375.375.625s.125.625.125.875v1.125h-4.375v-1.25c0-.25.125-.5.125-.75.125-.25.25-.5.5-.625.125-.25.375-.375.625-.5.25 0 .625-.125.875-.125zm.125.625c-.375 0-.625 0-.75.125-.25 0-.375.125-.625.25-.125.125-.125.25-.25.5-.125.125-.125.375-.125.625v.5H15.5v-.375c0-.625-.125-1-.375-1.25s-.75-.375-1.25-.375zm-2.25-5.75v-.625l4.375 1.5v.5l-4.375 1.5v-.625l2.75-.875c.25 0 .375-.125.5-.125.25 0 .375-.125.5-.125-.125 0-.25 0-.5-.125-.125 0-.25 0-.5-.125l-2.75-.875zM16 28.125v1.5h-.375l-.125-.5h-3.375l-.125.5h-.375v-1.5H12l.125.5H15.5l.125-.5H16zM16 24v.75l-3.625 2H16v.5h-4.375v-.625L15.25 24.5h-.5s-.125 0-.125.125h-3V24H16z"/>
    </g>
    <g>
      <path fill="#CCC" d="M66.25 57.625v2.75h-4.375v-2.75M66.25 65.25v2.875h-4.375V65.25M82 65.25v2.875h-4.375V65.25M82 57.625v2.75h-4.375v-2.75"/>
      <path fill="#999" d="M80.75 55.5v14.75h-17.5V55.5"/>
      <path fill="#000" d="M72 58.625c2.375 0 4.375 1.875 4.375 4.25s-2 4.375-4.375 4.375-4.375-2-4.375-4.375 2-4.25 4.375-4.25z"/>
      <path fill="#404040" d="M71.75 59c2.25 0 4 1.75 4 4 0 2.125-1.75 3.875-4 3.875-2.125 0-3.875-1.75-3.875-3.875 0-2.25 1.75-4 3.875-4z"/>
      <path fill="#999" d="M71.75 59c2.25 0 4 1.75 4 4 0 2.125-1.75 3.875-4 3.875 5.125-.75 5.125-7.25 0-7.875z"/>
    </g>
    <g>
      <path fill="#CCC" d="M23.5 46.25v2.875h-4.375V46.25M23.5 36.875v2.875h-4.375v-2.875M34 37v2.75h-4.375V37M34 41.625v2.75h-4.375v-2.75M34 46.25v2.875h-4.375V46.25"/>
      <path fill="#666" d="M22.125 35.625h8.75V50.25h-8.75"/>
    </g>
    <g>
      <path fill="#006900" d="M22.875 89h54v59h-54"/>
      <path fill="#CCC" d="M23.75 140.125h5.625V147H23.75"/>
      <path fill="#B2B2B2" d="M23.75 90.375h5.625v8.375H23.75v-8.375zm44.75 0h7.625v5.25H68.5v-5.25z"/>
      <path fill="#CCC" d="M69.75 141.625h6.375V147H69.75v-5.375zm-17.5 0h12.625V147H52.25v-5.375z"/>
      <path fill="#B2B2B2" d="M59.5 90.375h6v5.25h-6v-5.25zm-12.375 0h5.25v5.25h-5.25v-5.25z"/>
      <path fill="#9A916C" d="M35.875 142.125h7.5V146h-7.5"/>
      <path fill="#C93" d="M34 90.75h9.25v4.375H34V90.75zm41.625 49.875H72.5v-5.5h3.125v5.5z"/>
      <path fill="#B2B2B2" d="M24.625 91.375H75.25v54.25H24.625"/>
      <path fill="#CCC" d="M24.625 105.5V91.375H75.25V134.5c-9.625-25.25-38-3.25-50.625-29z"/>
      <g fill="#666">
        <path d="M54 127.625h.375c0 .125.125.125.25.125 0 .125.125.125.125.25s.125.125.125.25-.125.125-.125.25c0 0 0 .125-.125.125 0 .125 0 .125-.125.125 0 .125-.125.125-.25.125.125.125.25.125.25.125l.25.25.125.125v.5c-.125.125-.125.25-.25.25 0 .125-.125.125-.25.125-.125.125-.25.125-.375.125s-.25 0-.375-.125c-.125 0-.25 0-.25-.125-.125 0-.125-.125-.25-.25v-.5l.125-.125c0-.125.125-.125.125-.25.125 0 .25 0 .25-.125 0 0-.125 0-.125-.125-.125 0-.125 0-.125-.125-.125 0-.125-.125-.125-.125 0-.125-.125-.125-.125-.25s.125-.125.125-.25.125-.125.125-.25c.125 0 .25 0 .375-.125H54zm-.5 2v.25l.125.125h.125c.125 0 .125.125.25.125s.125-.125.25-.125h.125c.125-.125.125-.125.125-.25v-.25c0-.125 0-.125-.125-.125 0-.125-.125-.125-.125-.125-.125-.125-.125-.125-.25-.125V129c-.25.125-.375.25-.375.25-.125.125-.125.25-.125.375zm.5-1.75c-.125 0-.25.125-.375.125 0 .125-.125.125-.125.25s0 .125.125.25v.125c.125 0 .125 0 .25.125h.25c.125-.125.125-.125.25-.125v-.125c.125-.125.125-.125.125-.25s-.125-.125-.125-.25c-.125 0-.25-.125-.375-.125zm2.25.875h.375s.125.125.25.125c.125.125.125.125.125.25.125.125.125.25.125.375s0 .25-.125.375c0 .125 0 .125-.125.25s-.25.125-.375.125c-.125.125-.25.125-.375.125h-.25s-.125 0-.125-.125h-.375v-.375l.125.125h.375c.125.125.125.125.25.125s.125-.125.25-.125.125 0 .25-.125l.125-.125v-.25c0-.125 0-.25-.125-.375s-.375-.125-.5-.125h-.5l-.25-.125.125-1.25h1.375V128h-1l-.125.75h.5zm3.125.25v.625c0 .125-.125.25-.25.375 0 .125-.125.25-.25.25-.125.125-.25.125-.375.125s-.375 0-.375-.125c-.125 0-.25-.125-.375-.25 0-.125-.125-.25-.125-.375 0-.25-.125-.375-.125-.625s.125-.375.125-.625c0-.125 0-.25.125-.375s.125-.25.25-.25c.125-.125.25-.125.5-.125.125 0 .25 0 .375.125.125 0 .25.125.25.25.125.125.125.25.25.375V129zm-1.5 0c0 .125 0 .375.125.5v.25c.125.125.125.25.25.25 0 0 .125.125.25.125s.125-.125.25-.125c0 0 .125-.125.125-.25.125 0 .125-.125.125-.25v-1c0-.125 0-.25-.125-.375L58.75 128c-.125 0-.125-.125-.25-.125s-.25.125-.25.125c-.125 0-.125.125-.25.125v.375c-.125.125-.125.375-.125.5zM61 130.25h-.375V128v.125H60.5s0 .125-.125.125l-.25.25-.125-.25.75-.625H61v2.625zm2.875-1.25v.625c-.125.125-.125.25-.25.375 0 .125-.125.25-.25.25-.125.125-.25.125-.375.125-.25 0-.375 0-.5-.125-.125 0-.125-.125-.25-.25s-.125-.25-.125-.375C62 129.375 62 129.25 62 129s0-.375.125-.625c0-.125 0-.25.125-.375 0-.125.125-.25.25-.25.125-.125.25-.125.5-.125.125 0 .25 0 .375.125.125 0 .25.125.25.25.125.125.125.25.25.375V129zm-1.5 0v.5c.125.125.125.25.125.25 0 .125.125.25.125.25.125 0 .25.125.375.125 0 0 .125-.125.25-.125 0 0 .125-.125.125-.25 0 0 .125-.125.125-.25v-1c0-.125-.125-.25-.125-.375L63.25 128c-.125 0-.25-.125-.25-.125-.125 0-.25.125-.375.125l-.125.125c0 .125 0 .25-.125.375v.5zm3.875.75h-.5v.5h-.25v-.5h-1.375v-.375l1.25-1.75h.375v1.75h.5v.375zm-.75-.375V128s-.125 0-.125.125v.125c-.125 0-.125 0-.125.125l-.75 1h1zM53.25 132h1.25c.125 0 .25 0 .375.125 0 0 .125.125.125.25.125 0 .125.125.125.25s0 .125-.125.25V133c-.125 0-.125.125-.25.125 0 0-.125.125-.25.125h.25c.125 0 .125.125.25.125 0 .125.125.125.125.25v.5c0 .125-.125.25-.25.25 0 .125-.125.125-.25.125-.125.125-.25.125-.375.125h-1V132zm.375 1.125h.5c.125 0 .25 0 .25-.125h.25s0-.125.125-.125v-.25c0-.125-.125-.25-.125-.25-.125-.125-.375-.125-.5-.125h-.5v.875zm0 .25v.875h.875s.125 0 .125-.125c.125 0 .125 0 .125-.125v-.375s0-.125-.125-.125l-.125-.125h-.875zm3.375 1.25l-.875-2.375v2.375h-.375V132h.625l.75 2.125L58 132h.5v2.625h-.375V132.5c.125 0 .125-.125.125-.25h-.125l-.875 2.375H57zm2.125-.875v-.25h1v.25h-1zm3.125-.5v.625c0 .125-.125.25-.125.375-.125.125-.25.25-.375.25-.125.125-.25.125-.375.125s-.25 0-.375-.125c-.125 0-.25-.125-.375-.25 0-.125-.125-.25-.125-.375v-1.125c0-.25.125-.375.125-.5.125-.125.25-.125.25-.25.125 0 .375-.125.5-.125s.25.125.375.125c.125.125.25.125.25.25.125.125.25.25.25.5v.5zm-1.5 0c0 .25.125.375.125.5v.375c.125 0 .125.125.25.125 0 .125.125.125.25.125s.125 0 .25-.125c.125 0 .125-.125.125-.125.125-.125.125-.25.125-.375v-1c0-.125 0-.25-.125-.25 0-.125 0-.125-.125-.25h-.5l-.25.25v.25c0 .25-.125.375-.125.5zm3.75-.125v.375c0 .125 0 .25-.125.375 0 0 0 .125-.125.25 0 .125-.125.25-.25.25 0 .125-.125.125-.25.25h-.875v-.25h.375c.125 0 .375 0 .375-.125.125 0 .25-.125.375-.25 0 0 .125-.125.125-.25v-.5c0 .125 0 .125-.125.125 0 .125 0 .125-.125.125l-.125.125h-.25c-.125 0-.25 0-.375-.125 0 0-.125 0-.25-.125 0 0-.125-.125-.125-.25v-.625c0-.125.125-.25.125-.375.125 0 .25-.125.375-.125s.25-.125.375-.125.25.125.375.125l.25.25c.125 0 .125.125.25.375v.5zm-.875-.875h-.25c-.125 0-.125 0-.125.125-.125 0-.125.125-.125.125-.125.125-.125.25-.125.375 0 0 0 .125.125.125v.25c.125 0 .125 0 .25.125h.25s.125 0 .125-.125H64c0-.125.125-.125.125-.25v-.375c0-.125-.125-.125-.125-.25l-.125-.125h-.25zm1.25 1.5v-.25h1v.25h-1zm3.125.125c0 .125-.125.25-.125.375 0 0-.125.125-.25.125 0 .125-.125.125-.25.25H66.5c-.125 0-.125-.125-.25-.125v-.375c0 .125.125.125.125.125h.25l.125.125H67c.125 0 .375-.125.375-.125.125-.125.25-.25.25-.375 0 0 0-.125-.125-.125v-.125c-.125 0-.125-.125-.25-.125s-.125-.125-.25-.125-.25-.125-.375-.125-.125-.125-.25-.125c0-.125 0-.125-.125-.25v-.25c0-.125 0-.25.125-.25 0-.125 0-.25.125-.25.125-.125.125-.125.25-.125s.25-.125.375-.125.25.125.375.125.25 0 .375.125l-.125.25c-.125 0-.125-.125-.25-.125h-.375c-.125 0-.25 0-.375.125-.125 0-.125.125-.125.25v.125c0 .125.125.125.125.125 0 .125.125.125.25.125 0 0 .125.125.25.125s.25.125.25.125c.125.125.25.125.25.125.125.125.125.125.125.25s.125.125.125.25zm-14 3.375c.125 0 .25 0 .375.125.125 0 .125 0 .25.125.125 0 .125.125.25.25v.625c-.125.125-.125.25-.25.25-.125.125-.25.125-.375.25h-1l-.125-.125v-.25h.125c.125 0 .125.125.25.125h.625c.125 0 .125-.125.25-.125l.125-.125v-.25c0-.25 0-.375-.125-.5-.125 0-.375-.125-.5-.125h-.25c-.125 0-.125.125-.125.125h-.125l-.125-.125v-1.25h1.375v.25h-1l-.125.75h.5zm1.625 1.625l1.125-2.375h-1.5v-.25h1.875v.25L56 138.875h-.375zm3.625-2v.25c-.125 0-.125.125-.125.125-.125.125-.125.125-.25.125-.125.125-.125.125-.25.125.25 0 .375.125.5.25s.25.25.25.375 0 .25-.125.375c0 0-.125.125-.125.25-.125 0-.25.125-.375.125h-.875c-.125 0-.25 0-.375-.125v-.25c.125 0 .25 0 .375.125h.75s.125-.125.25-.125c0 0 0-.125.125-.125v-.25c0-.125 0-.125-.125-.25 0 0 0-.125-.125-.125 0 0-.125 0-.25-.125H58v-.25h.5c.125 0 .125-.125.25-.125l.125-.125v-.375c0-.125-.125-.125-.125-.125 0-.125-.125-.125-.125-.125H58c-.125.125-.25.125-.25.25l-.25-.25c.125 0 .125-.125.25-.125 0 0 .125 0 .125-.125h.875c.125 0 .25.125.25.125l.25.25v.25zM56.375 112.25l-3.625-5.625 3.375-5.375-5.375 3.375-5.625-3.375 3.625 5.375-3.5 5.375 5.5-3.375"/>
        <path d="M51.625 110.25l-.875-.625-.875.625.875 4.125.875-4.125zm-4-3.625l-.5.75-4.125-.75 4.125-.875.5.75v.125zm6.625.875l-.5-.875.625-1 4 1-4.125.875zm-2.625-4.5l-.875-4-.875 4 .875.5.875-.5z"/>
        <path d="M56.375 112.25l-3.625-5.625 3.375-5.375-3.625 5.375M50.375 116.625c0 .25 0 .375-.125.5 0 .125-.125.25-.25.375s-.25.125-.375.25h-1.25v1.5h-.5v-3.625h1c.25 0 .5 0 .75.125.125 0 .25.125.375.125.125.125.25.25.25.375.125.125.125.25.125.375zm-2 .75h.875c.125 0 .25 0 .25-.125.125 0 .25-.125.25-.25 0 0 .125-.125.125-.25 0-.25-.125-.5-.25-.625-.25 0-.5-.125-.75-.125h-.5v1.375zm5.25 0v.75c-.125.25-.125.5-.25.625s-.25.25-.5.375c-.125.125-.375.125-.625.125-.125 0-.375 0-.5-.125-.25-.125-.375-.25-.5-.375 0-.125-.125-.375-.25-.625v-1.5c.125-.25.125-.375.25-.625.125-.125.25-.25.5-.25.125-.125.375-.125.5-.125.25 0 .5 0 .625.125.25 0 .375.125.5.25 0 .25.125.375.25.625v.75zm-2.125 0V118c.125.25.125.375.125.5l.25.25c.125.125.25.125.375.125.25 0 .375 0 .375-.125.125 0 .25-.125.25-.25.125-.125.125-.25.25-.5v-1.25c-.125-.125-.125-.375-.25-.375 0-.125-.125-.25-.25-.375h-.75c0 .125-.125.25-.25.375 0 0 0 .25-.125.375v.625zM32.5 138.625v-17h.875v1h1v-1h.875v1h1v-1h1v1.875H41v-.875h-1v-1h1v1h.875v-1h1v1h-1v.875h1v1h.875v-1h1v-.875h-1v-1h1v1h1v-1h.875v1h-.875v.875h.875v4.75h-.875v1.875h.875v4.75h-.875v1h.875v.875h-.875v-.875h-2v.875h-.875v-.875h-1v-1H41V134h-1v.875h-.875v1H40v.875h1v1h5.625v-2.875h1V134H49.5v.875h-1.875v2.875H49.5v.875h-17zm17-15.125h-1v1h1v1h-1v.875h1v1h-1v.875h1v1h-1v-1h-.875v1h-1v-2.875h1v-.875h-1v-2.875h1v-1h.875v1h1v.875zm-1 0v-.875h-.875v.875h.875zm1 7.625h-1V132h1v1h-1v-1h-.875v1h-1v-1.875H48.5v-1h1v1zm0 5.625h-1v-.875h1v.875zm-3.75-12.25h-1v1.875h-1v-.875h-.875v.875h-1V123.5H41v1h-1v1.875h-1.875v1h-.875V125.5h.875v-1H36.25v1h-1v.875h-.875v1h-1v.875h1v-.875h1.875v1.875h-1v.875h-.875v1h1.875v-1h1v1h-1V133h1v-1h1.875v-.875H41V132h-1v1h2.875v1h-1v.875h3.875V134h-2v-1h2v-1.875h-2V132h-1.875v-1.875h1v1h.875v-1h-.875v-.875H41v.875h-1v-.875h1v-1h.875v-.875h1v1.875h.875v-1.875h2V124.5zm-1 5.625v-.875h-1v.875h1zM40 136.75h-.875v1H40v-1zm-.875-2.75h-1v.875h1V134zm-1-11.375v-1h1v1h-1zm0 6.625v-1h1v1h-1zm-.875 6.625h-1v.875h1v-.875zm-1-12.375h-1v-.875h-.875v.875h-1v2.875h1V124.5h1.875v-1zm0 10.5h-1v-1h-.875v-1.875h-1V134h1v1.875h-1v1.875h1.875v-1.875h1V134zm-1-5.75h-.875v1h.875v-1zm-.875 1h-1v.875h1v-.875zM52.875 120.5h5.5l2.75 3.875h6.5v.75H60.75l-2.75-4h-4.625l-.5-.625zm2.375 1.875h2l1.375 2h-2l-1.375-2zm4.875 2.75H56.25l-2.5-3.5h3.875l2.5 3.5zm7.5.5v.75H57.25l-.625-.75h11z"/>
        <path d="M61 120.375h.625v2.5c.125.125.125.25.25.25.125.125.25.125.375.125s.25 0 .375-.125c.125 0 .125-.125.125-.25.125-.125.125-.25.125-.625v-1.875h.625v1.875c0 .375-.125.625-.125.875 0 .125-.125.25-.125.375-.125.125-.25.25-.375.25-.125.125-.375.125-.625.125s-.5 0-.625-.125c-.125 0-.25-.125-.375-.25s-.125-.25-.125-.375c-.125-.25-.125-.5-.125-.875v-1.875zm3.125 2.375h.625v.25c0 .25.25.375.5.375.125 0 .25-.125.375-.25.125 0 .125-.125.125-.25v-.25s-.125-.125-.25-.125c0 0-.25-.125-.5-.125-.25-.125-.5-.25-.625-.375-.25-.25-.375-.375-.375-.75 0-.125.125-.25.125-.5.125-.125.25-.25.5-.25.125-.125.25-.125.5-.125.375 0 .75 0 .875.25.25.25.375.375.375.75h-.75c0-.125 0-.25-.125-.375 0 0-.125-.125-.375-.125-.125 0-.25.125-.375.125-.125.125-.125.125-.125.25s0 .125.125.25l.5.25c.375 0 .625.125.75.25.125 0 .25.125.25.25.125.25.125.375.125.625 0 .125 0 .375-.125.5-.125.25-.25.375-.375.375-.25.125-.375.125-.625.125-.5 0-.75-.125-1-.25-.25-.25-.125-.5-.125-.875zm2.75 1.125v-3.5h.625v3.5h-.625zM68.5 120.375c.125 0 .25 0 .375.125 0 0 .125.125.125.25.125 0 .125.125.125.25s0 .125-.125.25c0 .125-.125.125-.125.25h-.625l-.25-.25v-.5c.125-.125.125-.25.25-.25.125-.125.25-.125.25-.125zm0 .125h-.25c0 .125-.125.125-.125.25v.5l.125.125h.5c.125 0 .125-.125.25-.125v-.5l-.25-.25h-.25zm-.25.75v-.625h.25c.125 0 .125 0 .125.125h.125v.25h-.125c0 .125.125.125.125.125v.125h-.125v-.125L68.5 121h-.125v.25h-.125zm.125-.25h.125c.125 0 .125-.125.125-.125v-.125h-.25v.25z"/>
      </g>
      <path fill="#404040" d="M30.625 100.5c-.75-.75-.75-2 0-2.75.75-.875 2-.875 2.875 0 .75.75.75 2 0 2.75-.875.875-2.125.875-2.875 0z"/>
      <path fill="#FFF" d="M30.625 100.5c-.75-.75-.75-2 0-2.75.75-.875 2-.875 2.875 0-2.125-1.625-4.5.75-2.875 2.75z"/>
    </g>
    <g>
      <path fill="#CCC" d="M47.5 64v2.75H45V64M47.5 59.25v2.875H45V59.25M54.5 64v2.875h-2.625V64M54.5 59.25v2.875h-2.625V59.25"/>
      <path fill="#000" d="M45.375 67.625V58.25h8.75v9.375"/>
      <path fill="#404040" d="M45.375 60.25v-.125l1.375-1.875h.125"/>
      <path fill="#E5E5E5" d="M46.625 66.375l-.5-3.5.5-3.125 3.125-.5 3.25.5.375 3.125-.375 3.5-3.25.375"/>
      <path fill="#B2B2B2" d="M48.125 62.875c0-.875.75-1.5 1.5-1.5v1.5h-1.5z"/>
      <path fill="#1B5BB3" d="M48.125 63c0 .75.75 1.5 1.5 1.5V63h-1.5z"/>
      <path fill="#00A63D" d="M51.25 63c0 .75-.625 1.5-1.5 1.5V63h1.5z"/>
      <path fill="#CC1414" d="M51.25 62.875c0-.875-.625-1.5-1.5-1.5v1.5h1.5z"/>
      <path fill="#FFF" d="M46.625 66.375l-.5-3.5.5-3.125 3.125-.5 3.25.5-3.25-.25-3.125.25-.25 3.125"/>
      <path fill="#B2B2B2" d="M53 59.75l.375 3.125-.375 3.5-3.25.375-3.125-.375 3.125.125 3.25-.125.125-3.5"/>
    </g>
    <g>
      <path fill="#C93" d="M16.75 134v-4.125h4.125V134H16.75zm0-6.125v-4.125h4.125v4.125H16.75zm0-6v-4.25h4.125v4.25H16.75z"/>
      <path fill="#E6AB00" d="M16.75 134v-.125h4.125V134H16.75zm0-6.125v-.125h4.125v.125H16.75zm0-6v-.125h4.125v.125H16.75z"/>
    </g>
    <g>
      <path fill="#B2B2B2" d="M10.5 166.375c0 2.375-1.875 4.375-4.25 4.375-2.5 0-4.375-2-4.375-4.375S3.75 162 6.25 162c2.375 0 4.25 2 4.25 4.375z"/>
      <path fill="#999" d="M9.75 164c-.625 0-2.125.5-3.5 2.375-1.625-1.875-2.875-2.375-3.625-2.5C3.625 162.5 5 162 6.25 162c1.125 0 2.625.5 3.5 2zm-5.125 3.875l1.625-1.5 1.5 1.5c-1-.125-2-.25-3.125 0z"/>
      <path fill="#CCC" d="M6.25 166.375l1.5-1.625c-.25 1.125-.25 2.125 0 3.125l-1.5-1.5z"/>
      <path fill="#999" d="M6.25 166.375l-1.625-1.625c1 .25 2 .375 3.125 0l-1.5 1.625z"/>
      <path fill="#CCC" d="M6.25 166.375l-1.625 1.5c.25-1 .25-2 0-3.125l1.625 1.625z"/>
      <path fill="#CCC" d="M6.875 166.375c0 .375-.25.625-.625.625-.5 0-.75-.25-.75-.625s.25-.75.75-.75.625.375.625.75z"/>
      <path fill="#E5E5E5" d="M6.875 166.375c0 .375-.25.625-.625.625-.25 0-.5 0-.625-.125.125.125.375.125.5.125.5 0 .75-.25.75-.625 0-.25-.125-.375-.125-.5.125.125.125.25.125.5z"/>
      <path fill="#666" d="M5.75 166.875c-.125-.125-.25-.25-.25-.5 0-.375.25-.75.75-.75.25 0 .375.125.5.25-.125-.125-.25-.125-.5-.125-.5 0-.75.25-.75.625 0 .25.125.375.25.5z"/>
      <path fill="#B2B2B2" d="M10.5 153.875c0 2.375-1.875 4.375-4.25 4.375-2.5 0-4.375-2-4.375-4.375S3.75 149.5 6.25 149.5c2.375 0 4.25 2 4.25 4.375z"/>
      <path fill="#999" d="M9.75 151.5c-.625 0-2.125.5-3.5 2.375-1.625-1.875-2.875-2.375-3.625-2.5C3.625 150 5 149.5 6.25 149.5c1.125 0 2.625.5 3.5 2zm-5.125 3.875l1.625-1.5 1.5 1.5c-1-.125-2-.25-3.125 0z"/>
      <path fill="#CCC" d="M6.25 153.875l1.5-1.625c-.25 1.125-.25 2.125 0 3.125l-1.5-1.5z"/>
      <path fill="#999" d="M6.25 153.875l-1.625-1.625c1 .25 2 .375 3.125 0l-1.5 1.625z"/>
      <path fill="#CCC" d="M6.25 153.875l-1.625 1.5c.25-1 .25-2 0-3.125l1.625 1.625z"/>
      <path fill="#CCC" d="M6.875 153.875c0 .375-.25.625-.625.625-.5 0-.75-.25-.75-.625s.25-.75.75-.75.625.375.625.75z"/>
      <path fill="#E5E5E5" d="M6.875 153.875c0 .375-.25.625-.625.625-.25 0-.5 0-.625-.125.125.125.375.125.5.125.5 0 .75-.25.75-.625 0-.25-.125-.375-.125-.5.125.125.125.25.125.5z"/>
      <path fill="#666" d="M5.75 154.375c-.125-.125-.25-.25-.25-.5 0-.375.25-.75.75-.75.25 0 .375.125.5.25-.125-.125-.25-.125-.5-.125-.5 0-.75.25-.75.625 0 .25.125.375.25.5z"/>
      <path fill="#B2B2B2" d="M10.5 141.375c0 2.375-1.875 4.375-4.25 4.375-2.5 0-4.375-2-4.375-4.375S3.75 137 6.25 137c2.375 0 4.25 2 4.25 4.375z"/>
      <path fill="#999" d="M9.75 139c-.625 0-2.125.5-3.5 2.375-1.625-1.875-2.875-2.375-3.625-2.5C3.625 137.5 5 137 6.25 137c1.125 0 2.625.5 3.5 2zm-5.125 3.875l1.625-1.5 1.5 1.5c-1-.125-2-.25-3.125 0z"/>
      <path fill="#CCC" d="M6.25 141.375l1.5-1.625c-.25 1.125-.25 2.125 0 3.125l-1.5-1.5z"/>
      <path fill="#999" d="M6.25 141.375l-1.625-1.625c1 .25 2 .375 3.125 0l-1.5 1.625z"/>
      <path fill="#CCC" d="M6.25 141.375l-1.625 1.5c.25-1 .25-2 0-3.125l1.625 1.625z"/>
      <path fill="#CCC" d="M6.875 141.375c0 .375-.25.625-.625.625-.5 0-.75-.25-.75-.625s.25-.75.75-.75.625.375.625.75z"/>
      <path fill="#E5E5E5" d="M6.875 141.375c0 .375-.25.625-.625.625-.25 0-.5 0-.625-.125.125.125.375.125.5.125.5 0 .75-.25.75-.625 0-.25-.125-.375-.125-.5.125.125.125.25.125.5z"/>
      <path fill="#666" d="M5.75 141.875c-.125-.125-.25-.25-.25-.5 0-.375.25-.75.75-.75.25 0 .375.125.5.25-.125-.125-.25-.125-.5-.125-.5 0-.75.25-.75.625 0 .25.125.375.25.5z"/>
      <path fill="#B2B2B2" d="M10.5 128.875c0 2.375-1.875 4.375-4.25 4.375-2.5 0-4.375-2-4.375-4.375S3.75 124.5 6.25 124.5c2.375 0 4.25 2 4.25 4.375z"/>
      <path fill="#999" d="M9.75 126.5c-.625 0-2.125.5-3.5 2.375-1.625-1.875-2.875-2.375-3.625-2.5C3.625 125 5 124.5 6.25 124.5c1.125 0 2.625.5 3.5 2zm-5.125 3.875l1.625-1.5 1.5 1.5c-1-.125-2-.25-3.125 0z"/>
      <path fill="#CCC" d="M6.25 128.875l1.5-1.625c-.25 1.125-.25 2.125 0 3.125l-1.5-1.5z"/>
      <path fill="#999" d="M6.25 128.875l-1.625-1.625c1 .25 2 .375 3.125 0l-1.5 1.625z"/>
      <path fill="#CCC" d="M6.25 128.875l-1.625 1.5c.25-1 .25-2 0-3.125l1.625 1.625z"/>
      <path fill="#CCC" d="M6.875 128.875c0 .375-.25.625-.625.625-.5 0-.75-.25-.75-.625s.25-.75.75-.75.625.375.625.75z"/>
      <path fill="#E5E5E5" d="M6.875 128.875c0 .375-.25.625-.625.625-.25 0-.5 0-.625-.125.125.125.375.125.5.125.5 0 .75-.25.75-.625 0-.25-.125-.375-.125-.5.125.125.125.25.125.5z"/>
      <path fill="#666" d="M5.75 129.375c-.125-.125-.25-.25-.25-.5 0-.375.25-.75.75-.75.25 0 .375.125.5.25-.125-.125-.25-.125-.5-.125-.5 0-.75.25-.75.625 0 .25.125.375.25.5z"/>
      <path fill="#B2B2B2" d="M10.5 116.375c0 2.375-1.875 4.375-4.25 4.375-2.5 0-4.375-2-4.375-4.375S3.75 112 6.25 112c2.375 0 4.25 2 4.25 4.375z"/>
      <path fill="#999" d="M9.75 114c-.625 0-2.125.5-3.5 2.375-1.625-1.875-2.875-2.375-3.625-2.5C3.625 112.5 5 112 6.25 112c1.125 0 2.625.5 3.5 2zm-5.125 3.875l1.625-1.5 1.5 1.5c-1-.125-2-.25-3.125 0z"/>
      <path fill="#CCC" d="M6.25 116.375l1.5-1.625c-.25 1.125-.25 2.125 0 3.125l-1.5-1.5z"/>
      <path fill="#999" d="M6.25 116.375l-1.625-1.625c1 .25 2 .375 3.125 0l-1.5 1.625z"/>
      <path fill="#CCC" d="M6.25 116.375l-1.625 1.5c.25-1 .25-2 0-3.125l1.625 1.625z"/>
      <path fill="#CCC" d="M6.875 116.375c0 .375-.25.625-.625.625-.5 0-.75-.25-.75-.625s.25-.75.75-.75.625.375.625.75z"/>
      <path fill="#E5E5E5" d="M6.875 116.375c0 .375-.25.625-.625.625-.25 0-.5 0-.625-.125.125.125.375.125.5.125.5 0 .75-.25.75-.625 0-.25-.125-.375-.125-.5.125.125.125.25.125.5z"/>
      <path fill="#666" d="M5.75 116.875c-.125-.125-.25-.25-.25-.5 0-.375.25-.75.75-.75.25 0 .375.125.5.25-.125-.125-.25-.125-.5-.125-.5 0-.75.25-.75.625 0 .25.125.375.25.5z"/>
      <path fill="#B2B2B2" d="M10.5 103.875c0 2.375-1.875 4.375-4.25 4.375-2.5 0-4.375-2-4.375-4.375S3.75 99.5 6.25 99.5c2.375 0 4.25 2 4.25 4.375z"/>
      <path fill="#999" d="M9.75 101.5c-.625 0-2.125.5-3.5 2.375-1.625-1.875-2.875-2.375-3.625-2.5C3.625 100 5 99.5 6.25 99.5c1.125 0 2.625.5 3.5 2zm-5.125 3.875l1.625-1.5 1.5 1.5c-1-.125-2-.25-3.125 0z"/>
      <path fill="#CCC" d="M6.25 103.875l1.5-1.625c-.25 1.125-.25 2.125 0 3.125l-1.5-1.5z"/>
      <path fill="#999" d="M6.25 103.875l-1.625-1.625c1 .25 2 .375 3.125 0l-1.5 1.625z"/>
      <path fill="#CCC" d="M6.25 103.875l-1.625 1.5c.25-1 .25-2 0-3.125l1.625 1.625z"/>
      <path fill="#CCC" d="M6.875 103.875c0 .375-.25.625-.625.625-.5 0-.75-.25-.75-.625s.25-.75.75-.75.625.375.625.75z"/>
      <path fill="#E5E5E5" d="M6.875 103.875c0 .375-.25.625-.625.625-.25 0-.5 0-.625-.125.125.125.375.125.5.125.5 0 .75-.25.75-.625 0-.25-.125-.375-.125-.5.125.125.125.25.125.5z"/>
      <path fill="#666" d="M5.75 104.375c-.125-.125-.25-.25-.25-.5 0-.375.25-.75.75-.75.25 0 .375.125.5.25-.125-.125-.25-.125-.5-.125-.5 0-.75.25-.75.625 0 .25.125.375.25.5z"/>
      <path fill="#B2B2B2" d="M10.5 91.5c0 2.375-1.875 4.375-4.25 4.375-2.5 0-4.375-2-4.375-4.375s1.875-4.375 4.375-4.375c2.375 0 4.25 2 4.25 4.375z"/>
      <path fill="#999" d="M9.75 89.125c-.625 0-2.125.5-3.5 2.375-1.625-1.875-2.875-2.375-3.625-2.5 1-1.375 2.375-1.875 3.625-1.875 1.125 0 2.625.5 3.5 2zM4.625 93l1.625-1.5 1.5 1.5c-1-.125-2-.25-3.125 0z"/>
      <path fill="#CCC" d="M6.25 91.5l1.5-1.625C7.5 91 7.5 92 7.75 93l-1.5-1.5z"/>
      <path fill="#999" d="M6.25 91.5l-1.625-1.625c1 .25 2 .375 3.125 0L6.25 91.5z"/>
      <path fill="#CCC" d="M6.25 91.5L4.625 93c.25-1 .25-2 0-3.125L6.25 91.5z"/>
      <path fill="#CCC" d="M6.875 91.5c0 .375-.25.625-.625.625-.5 0-.75-.25-.75-.625s.25-.75.75-.75.625.375.625.75z"/>
      <path fill="#E5E5E5" d="M6.875 91.5c0 .375-.25.625-.625.625-.25 0-.5 0-.625-.125.125.125.375.125.5.125.5 0 .75-.25.75-.625 0-.25-.125-.375-.125-.5.125.125.125.25.125.5z"/>
      <path fill="#666" d="M5.75 92c-.125-.125-.25-.25-.25-.5 0-.375.25-.75.75-.75.25 0 .375.125.5.25-.125-.125-.25-.125-.5-.125-.5 0-.75.25-.75.625 0 .25.125.375.25.5z"/>
      <path fill="#B2B2B2" d="M10.5 79c0 2.375-1.875 4.375-4.25 4.375-2.5 0-4.375-2-4.375-4.375s1.875-4.375 4.375-4.375c2.375 0 4.25 2 4.25 4.375z"/>
      <path fill="#999" d="M9.75 76.625c-.625 0-2.125.5-3.5 2.375-1.625-1.875-2.875-2.375-3.625-2.5 1-1.375 2.375-1.875 3.625-1.875 1.125 0 2.625.5 3.5 2zM4.625 80.5L6.25 79l1.5 1.5c-1-.125-2-.25-3.125 0z"/>
      <path fill="#CCC" d="M6.25 79l1.5-1.625C7.5 78.5 7.5 79.5 7.75 80.5L6.25 79z"/>
      <path fill="#999" d="M6.25 79l-1.625-1.625c1 .25 2 .375 3.125 0L6.25 79z"/>
      <path fill="#CCC" d="M6.25 79l-1.625 1.5c.25-1 .25-2 0-3.125L6.25 79z"/>
      <path fill="#CCC" d="M6.875 79c0 .375-.25.625-.625.625-.5 0-.75-.25-.75-.625s.25-.75.75-.75.625.375.625.75z"/>
      <path fill="#E5E5E5" d="M6.875 79c0 .375-.25.625-.625.625-.25 0-.5 0-.625-.125.125.125.375.125.5.125.5 0 .75-.25.75-.625 0-.25-.125-.375-.125-.5.125.125.125.25.125.5z"/>
      <path fill="#666" d="M5.75 79.5c-.125-.125-.25-.25-.25-.5 0-.375.25-.75.75-.75.25 0 .375.125.5.25-.125-.125-.25-.125-.5-.125-.5 0-.75.25-.75.625 0 .25.125.375.25.5z"/>
      <path fill="#B2B2B2" d="M10.5 66.5c0 2.375-1.875 4.375-4.25 4.375-2.5 0-4.375-2-4.375-4.375s1.875-4.375 4.375-4.375c2.375 0 4.25 2 4.25 4.375z"/>
      <path fill="#999" d="M9.75 64.125c-.625 0-2.125.5-3.5 2.375-1.625-1.875-2.875-2.375-3.625-2.5 1-1.375 2.375-1.875 3.625-1.875 1.125 0 2.625.5 3.5 2zM4.625 68l1.625-1.5 1.5 1.5c-1-.125-2-.25-3.125 0z"/>
      <path fill="#CCC" d="M6.25 66.5l1.5-1.625C7.5 66 7.5 67 7.75 68l-1.5-1.5z"/>
      <path fill="#999" d="M6.25 66.5l-1.625-1.625c1 .25 2 .375 3.125 0L6.25 66.5z"/>
      <path fill="#CCC" d="M6.25 66.5L4.625 68c.25-1 .25-2 0-3.125L6.25 66.5z"/>
      <path fill="#CCC" d="M6.875 66.5c0 .375-.25.625-.625.625-.5 0-.75-.25-.75-.625s.25-.75.75-.75.625.375.625.75z"/>
      <path fill="#E5E5E5" d="M6.875 66.5c0 .375-.25.625-.625.625-.25 0-.5 0-.625-.125.125.125.375.125.5.125.5 0 .75-.25.75-.625 0-.25-.125-.375-.125-.5.125.125.125.25.125.5z"/>
      <path fill="#666" d="M5.75 67c-.125-.125-.25-.25-.25-.5 0-.375.25-.75.75-.75.25 0 .375.125.5.25-.125-.125-.25-.125-.5-.125-.5 0-.75.25-.75.625 0 .25.125.375.25.5z"/>
      <g>
        <path fill="#B2B2B2" d="M10.5 54c0 2.375-1.875 4.375-4.25 4.375-2.5 0-4.375-2-4.375-4.375s1.875-4.375 4.375-4.375c2.375 0 4.25 2 4.25 4.375z"/>
        <path fill="#999" d="M9.75 51.625c-.625 0-2.125.5-3.5 2.375-1.625-1.875-2.875-2.375-3.625-2.5 1-1.375 2.375-1.875 3.625-1.875 1.125 0 2.625.5 3.5 2zM4.625 55.5L6.25 54l1.5 1.5c-1-.125-2-.25-3.125 0z"/>
        <path fill="#CCC" d="M6.25 54l1.5-1.625C7.5 53.5 7.5 54.5 7.75 55.5L6.25 54z"/>
        <path fill="#999" d="M6.25 54l-1.625-1.625c1 .25 2 .375 3.125 0L6.25 54z"/>
        <path fill="#CCC" d="M6.25 54l-1.625 1.5c.25-1 .25-2 0-3.125L6.25 54z"/>
        <path fill="#CCC" d="M6.875 54c0 .375-.25.625-.625.625-.5 0-.75-.25-.75-.625s.25-.75.75-.75.625.375.625.75z"/>
        <path fill="#E5E5E5" d="M6.875 54c0 .375-.25.625-.625.625-.25 0-.5 0-.625-.125.125.125.375.125.5.125.5 0 .75-.25.75-.625 0-.25-.125-.375-.125-.5.125.125.125.25.125.5z"/>
        <path fill="#666" d="M5.75 54.5c-.125-.125-.25-.25-.25-.5 0-.375.25-.75.75-.75.25 0 .375.125.5.25-.125-.125-.25-.125-.5-.125-.5 0-.75.25-.75.625 0 .25.125.375.25.5z"/>
      </g>
      <g>
        <path fill="#B2B2B2" d="M10.5 41.5c0 2.375-1.875 4.375-4.25 4.375-2.5 0-4.375-2-4.375-4.375s1.875-4.375 4.375-4.375c2.375 0 4.25 2 4.25 4.375z"/>
        <path fill="#999" d="M9.75 39.125c-.625 0-2.125.5-3.5 2.375-1.625-1.875-2.875-2.375-3.625-2.5 1-1.375 2.375-1.875 3.625-1.875 1.125 0 2.625.5 3.5 2zM4.625 43l1.625-1.5 1.5 1.5c-1-.125-2-.25-3.125 0z"/>
        <path fill="#CCC" d="M6.25 41.5l1.5-1.625C7.5 41 7.5 42 7.75 43l-1.5-1.5z"/>
        <path fill="#999" d="M6.25 41.5l-1.625-1.625c1 .25 2 .375 3.125 0L6.25 41.5z"/>
        <path fill="#CCC" d="M6.25 41.5L4.625 43c.25-1 .25-2 0-3.125L6.25 41.5z"/>
        <path fill="#CCC" d="M6.875 41.5c0 .375-.25.625-.625.625-.5 0-.75-.25-.75-.625s.25-.75.75-.75.625.375.625.75z"/>
        <path fill="#E5E5E5" d="M6.875 41.5c0 .375-.25.625-.625.625-.25 0-.5 0-.625-.125.125.125.375.125.5.125.5 0 .75-.25.75-.625 0-.25-.125-.375-.125-.5.125.125.125.25.125.5z"/>
        <path fill="#666" d="M5.75 42c-.125-.125-.25-.25-.25-.5 0-.375.25-.75.75-.75.25 0 .375.125.5.25-.125-.125-.25-.125-.5-.125-.5 0-.75.25-.75.625 0 .25.125.375.25.5z"/>
      </g>
      <g>
        <path fill="#B2B2B2" d="M10.5 29c0 2.375-1.875 4.375-4.25 4.375-2.5 0-4.375-2-4.375-4.375s1.875-4.375 4.375-4.375c2.375 0 4.25 2 4.25 4.375z"/>
        <path fill="#999" d="M9.75 26.625c-.625 0-2.125.5-3.5 2.375-1.625-1.875-2.875-2.375-3.625-2.5 1-1.375 2.375-1.875 3.625-1.875 1.125 0 2.625.5 3.5 2zM4.625 30.5L6.25 29l1.5 1.5c-1-.125-2-.25-3.125 0z"/>
        <path fill="#CCC" d="M6.25 29l1.5-1.625C7.5 28.5 7.5 29.5 7.75 30.5L6.25 29z"/>
        <path fill="#999" d="M6.25 29l-1.625-1.625c1 .25 2 .375 3.125 0L6.25 29z"/>
        <path fill="#CCC" d="M6.25 29l-1.625 1.5c.25-1 .25-2 0-3.125L6.25 29z"/>
        <path fill="#CCC" d="M6.875 29c0 .375-.25.625-.625.625-.5 0-.75-.25-.75-.625s.25-.75.75-.75.625.375.625.75z"/>
        <path fill="#E5E5E5" d="M6.875 29c0 .375-.25.625-.625.625-.25 0-.5 0-.625-.125.125.125.375.125.5.125.5 0 .75-.25.75-.625 0-.25-.125-.375-.125-.5.125.125.125.25.125.5z"/>
        <path fill="#666" d="M5.75 29.5c-.125-.125-.25-.25-.25-.5 0-.375.25-.75.75-.75.25 0 .375.125.5.25-.125-.125-.25-.125-.5-.125-.5 0-.75.25-.75.625 0 .25.125.375.25.5z"/>
      </g>
      <g>
        <path fill="#B2B2B2" d="M98 166.375c0 2.375-1.875 4.375-4.25 4.375-2.5 0-4.375-2-4.375-4.375S91.25 162 93.75 162c2.375 0 4.25 2 4.25 4.375z"/>
        <path fill="#999" d="M97.25 164c-.625 0-2.125.5-3.5 2.375-1.625-1.875-2.875-2.375-3.625-2.5 1-1.375 2.375-1.875 3.625-1.875 1.125 0 2.625.5 3.5 2zm-5.125 3.875l1.625-1.5 1.5 1.5c-1-.125-2.125-.25-3.125 0z"/>
        <path fill="#CCC" d="M93.75 166.375l1.5-1.625c-.25 1.125-.25 2.125 0 3.125l-1.5-1.5z"/>
        <path fill="#999" d="M93.75 166.375l-1.625-1.625c1 .25 2 .375 3.125 0l-1.5 1.625z"/>
        <path fill="#CCC" d="M93.75 166.375l-1.625 1.5c.25-1 .25-2 0-3.125l1.625 1.625z"/>
        <path fill="#CCC" d="M94.375 166.375c0 .375-.25.625-.625.625-.5 0-.75-.25-.75-.625s.25-.75.75-.75c.375 0 .625.375.625.75z"/>
        <path fill="#E5E5E5" d="M94.375 166.375c0 .375-.25.625-.625.625-.25 0-.5 0-.625-.125.125.125.25.125.5.125.5 0 .75-.25.75-.625 0-.25-.125-.375-.25-.5.25.125.25.25.25.5z"/>
        <path fill="#666" d="M93.25 166.875c-.125-.125-.25-.25-.25-.5 0-.375.25-.75.75-.75.125 0 .375.125.5.25-.125-.125-.25-.125-.5-.125-.5 0-.75.25-.75.625 0 .25.125.375.25.5z"/>
      </g>
      <g>
        <path fill="#B2B2B2" d="M98 153.875c0 2.375-1.875 4.375-4.25 4.375-2.5 0-4.375-2-4.375-4.375s1.875-4.375 4.375-4.375c2.375 0 4.25 2 4.25 4.375z"/>
        <path fill="#999" d="M97.25 151.5c-.625 0-2.125.5-3.5 2.375-1.625-1.875-2.875-2.375-3.625-2.5 1-1.375 2.375-1.875 3.625-1.875 1.125 0 2.625.5 3.5 2zm-5.125 3.875l1.625-1.5 1.5 1.5c-1-.125-2.125-.25-3.125 0z"/>
        <path fill="#CCC" d="M93.75 153.875l1.5-1.625c-.25 1.125-.25 2.125 0 3.125l-1.5-1.5z"/>
        <path fill="#999" d="M93.75 153.875l-1.625-1.625c1 .25 2 .375 3.125 0l-1.5 1.625z"/>
        <path fill="#CCC" d="M93.75 153.875l-1.625 1.5c.25-1 .25-2 0-3.125l1.625 1.625z"/>
        <path fill="#CCC" d="M94.375 153.875c0 .375-.25.625-.625.625-.5 0-.75-.25-.75-.625s.25-.75.75-.75c.375 0 .625.375.625.75z"/>
        <path fill="#E5E5E5" d="M94.375 153.875c0 .375-.25.625-.625.625-.25 0-.5 0-.625-.125.125.125.25.125.5.125.5 0 .75-.25.75-.625 0-.25-.125-.375-.25-.5.25.125.25.25.25.5z"/>
        <path fill="#666" d="M93.25 154.375c-.125-.125-.25-.25-.25-.5 0-.375.25-.75.75-.75.125 0 .375.125.5.25-.125-.125-.25-.125-.5-.125-.5 0-.75.25-.75.625 0 .25.125.375.25.5z"/>
      </g>
      <g>
        <path fill="#B2B2B2" d="M98 141.375c0 2.375-1.875 4.375-4.25 4.375-2.5 0-4.375-2-4.375-4.375S91.25 137 93.75 137c2.375 0 4.25 2 4.25 4.375z"/>
        <path fill="#999" d="M97.25 139c-.625 0-2.125.5-3.5 2.375-1.625-1.875-2.875-2.375-3.625-2.5 1-1.375 2.375-1.875 3.625-1.875 1.125 0 2.625.5 3.5 2zm-5.125 3.875l1.625-1.5 1.5 1.5c-1-.125-2.125-.25-3.125 0z"/>
        <path fill="#CCC" d="M93.75 141.375l1.5-1.625c-.25 1.125-.25 2.125 0 3.125l-1.5-1.5z"/>
        <path fill="#999" d="M93.75 141.375l-1.625-1.625c1 .25 2 .375 3.125 0l-1.5 1.625z"/>
        <path fill="#CCC" d="M93.75 141.375l-1.625 1.5c.25-1 .25-2 0-3.125l1.625 1.625z"/>
        <path fill="#CCC" d="M94.375 141.375c0 .375-.25.625-.625.625-.5 0-.75-.25-.75-.625s.25-.75.75-.75c.375 0 .625.375.625.75z"/>
        <path fill="#E5E5E5" d="M94.375 141.375c0 .375-.25.625-.625.625-.25 0-.5 0-.625-.125.125.125.25.125.5.125.5 0 .75-.25.75-.625 0-.25-.125-.375-.25-.5.25.125.25.25.25.5z"/>
        <path fill="#666" d="M93.25 141.875c-.125-.125-.25-.25-.25-.5 0-.375.25-.75.75-.75.125 0 .375.125.5.25-.125-.125-.25-.125-.5-.125-.5 0-.75.25-.75.625 0 .25.125.375.25.5z"/>
      </g>
      <g>
        <path fill="#B2B2B2" d="M98 128.875c0 2.375-1.875 4.375-4.25 4.375-2.5 0-4.375-2-4.375-4.375s1.875-4.375 4.375-4.375c2.375 0 4.25 2 4.25 4.375z"/>
        <path fill="#999" d="M97.25 126.5c-.625 0-2.125.5-3.5 2.375-1.625-1.875-2.875-2.375-3.625-2.5 1-1.375 2.375-1.875 3.625-1.875 1.125 0 2.625.5 3.5 2zm-5.125 3.875l1.625-1.5 1.5 1.5c-1-.125-2.125-.25-3.125 0z"/>
        <path fill="#CCC" d="M93.75 128.875l1.5-1.625c-.25 1.125-.25 2.125 0 3.125l-1.5-1.5z"/>
        <path fill="#999" d="M93.75 128.875l-1.625-1.625c1 .25 2 .375 3.125 0l-1.5 1.625z"/>
        <path fill="#CCC" d="M93.75 128.875l-1.625 1.5c.25-1 .25-2 0-3.125l1.625 1.625z"/>
        <path fill="#CCC" d="M94.375 128.875c0 .375-.25.625-.625.625-.5 0-.75-.25-.75-.625s.25-.75.75-.75c.375 0 .625.375.625.75z"/>
        <path fill="#E5E5E5" d="M94.375 128.875c0 .375-.25.625-.625.625-.25 0-.5 0-.625-.125.125.125.25.125.5.125.5 0 .75-.25.75-.625 0-.25-.125-.375-.25-.5.25.125.25.25.25.5z"/>
        <path fill="#666" d="M93.25 129.375c-.125-.125-.25-.25-.25-.5 0-.375.25-.75.75-.75.125 0 .375.125.5.25-.125-.125-.25-.125-.5-.125-.5 0-.75.25-.75.625 0 .25.125.375.25.5z"/>
      </g>
      <g>
        <path fill="#B2B2B2" d="M98 116.375c0 2.375-1.875 4.375-4.25 4.375-2.5 0-4.375-2-4.375-4.375S91.25 112 93.75 112c2.375 0 4.25 2 4.25 4.375z"/>
        <path fill="#999" d="M97.25 114c-.625 0-2.125.5-3.5 2.375-1.625-1.875-2.875-2.375-3.625-2.5 1-1.375 2.375-1.875 3.625-1.875 1.125 0 2.625.5 3.5 2zm-5.125 3.875l1.625-1.5 1.5 1.5c-1-.125-2.125-.25-3.125 0z"/>
        <path fill="#CCC" d="M93.75 116.375l1.5-1.625c-.25 1.125-.25 2.125 0 3.125l-1.5-1.5z"/>
        <path fill="#999" d="M93.75 116.375l-1.625-1.625c1 .25 2 .375 3.125 0l-1.5 1.625z"/>
        <path fill="#CCC" d="M93.75 116.375l-1.625 1.5c.25-1 .25-2 0-3.125l1.625 1.625z"/>
        <path fill="#CCC" d="M94.375 116.375c0 .375-.25.625-.625.625-.5 0-.75-.25-.75-.625s.25-.75.75-.75c.375 0 .625.375.625.75z"/>
        <path fill="#E5E5E5" d="M94.375 116.375c0 .375-.25.625-.625.625-.25 0-.5 0-.625-.125.125.125.25.125.5.125.5 0 .75-.25.75-.625 0-.25-.125-.375-.25-.5.25.125.25.25.25.5z"/>
        <path fill="#666" d="M93.25 116.875c-.125-.125-.25-.25-.25-.5 0-.375.25-.75.75-.75.125 0 .375.125.5.25-.125-.125-.25-.125-.5-.125-.5 0-.75.25-.75.625 0 .25.125.375.25.5z"/>
      </g>
      <g>
        <path fill="#B2B2B2" d="M98 103.875c0 2.375-1.875 4.375-4.25 4.375-2.5 0-4.375-2-4.375-4.375S91.25 99.5 93.75 99.5c2.375 0 4.25 2 4.25 4.375z"/>
        <path fill="#999" d="M97.25 101.5c-.625 0-2.125.5-3.5 2.375-1.625-1.875-2.875-2.375-3.625-2.5 1-1.375 2.375-1.875 3.625-1.875 1.125 0 2.625.5 3.5 2zm-5.125 3.875l1.625-1.5 1.5 1.5c-1-.125-2.125-.25-3.125 0z"/>
        <path fill="#CCC" d="M93.75 103.875l1.5-1.625c-.25 1.125-.25 2.125 0 3.125l-1.5-1.5z"/>
        <path fill="#999" d="M93.75 103.875l-1.625-1.625c1 .25 2 .375 3.125 0l-1.5 1.625z"/>
        <path fill="#CCC" d="M93.75 103.875l-1.625 1.5c.25-1 .25-2 0-3.125l1.625 1.625z"/>
        <path fill="#CCC" d="M94.375 103.875c0 .375-.25.625-.625.625-.5 0-.75-.25-.75-.625s.25-.75.75-.75c.375 0 .625.375.625.75z"/>
        <path fill="#E5E5E5" d="M94.375 103.875c0 .375-.25.625-.625.625-.25 0-.5 0-.625-.125.125.125.25.125.5.125.5 0 .75-.25.75-.625 0-.25-.125-.375-.25-.5.25.125.25.25.25.5z"/>
        <path fill="#666" d="M93.25 104.375c-.125-.125-.25-.25-.25-.5 0-.375.25-.75.75-.75.125 0 .375.125.5.25-.125-.125-.25-.125-.5-.125-.5 0-.75.25-.75.625 0 .25.125.375.25.5z"/>
      </g>
      <g>
        <path fill="#B2B2B2" d="M98 91.5c0 2.375-1.875 4.375-4.25 4.375-2.5 0-4.375-2-4.375-4.375s1.875-4.375 4.375-4.375c2.375 0 4.25 2 4.25 4.375z"/>
        <path fill="#999" d="M97.25 89.125c-.625 0-2.125.5-3.5 2.375-1.625-1.875-2.875-2.375-3.625-2.5 1-1.375 2.375-1.875 3.625-1.875 1.125 0 2.625.5 3.5 2zM92.125 93l1.625-1.5 1.5 1.5c-1-.125-2.125-.25-3.125 0z"/>
        <path fill="#CCC" d="M93.75 91.5l1.5-1.625C95 91 95 92 95.25 93l-1.5-1.5z"/>
        <path fill="#999" d="M93.75 91.5l-1.625-1.625c1 .25 2 .375 3.125 0l-1.5 1.625z"/>
        <path fill="#CCC" d="M93.75 91.5L92.125 93c.25-1 .25-2 0-3.125L93.75 91.5z"/>
        <path fill="#CCC" d="M94.375 91.5c0 .375-.25.625-.625.625-.5 0-.75-.25-.75-.625s.25-.75.75-.75c.375 0 .625.375.625.75z"/>
        <path fill="#E5E5E5" d="M94.375 91.5c0 .375-.25.625-.625.625-.25 0-.5 0-.625-.125.125.125.25.125.5.125.5 0 .75-.25.75-.625 0-.25-.125-.375-.25-.5.25.125.25.25.25.5z"/>
        <path fill="#666" d="M93.25 92c-.125-.125-.25-.25-.25-.5 0-.375.25-.75.75-.75.125 0 .375.125.5.25-.125-.125-.25-.125-.5-.125-.5 0-.75.25-.75.625 0 .25.125.375.25.5z"/>
      </g>
      <g>
        <path fill="#B2B2B2" d="M98 79c0 2.375-1.875 4.375-4.25 4.375-2.5 0-4.375-2-4.375-4.375s1.875-4.375 4.375-4.375c2.375 0 4.25 2 4.25 4.375z"/>
        <path fill="#999" d="M97.25 76.625c-.625 0-2.125.5-3.5 2.375-1.625-1.875-2.875-2.375-3.625-2.5 1-1.375 2.375-1.875 3.625-1.875 1.125 0 2.625.5 3.5 2zM92.125 80.5L93.75 79l1.5 1.5c-1-.125-2.125-.25-3.125 0z"/>
        <path fill="#CCC" d="M93.75 79l1.5-1.625C95 78.5 95 79.5 95.25 80.5l-1.5-1.5z"/>
        <path fill="#999" d="M93.75 79l-1.625-1.625c1 .25 2 .375 3.125 0L93.75 79z"/>
        <path fill="#CCC" d="M93.75 79l-1.625 1.5c.25-1 .25-2 0-3.125L93.75 79z"/>
        <path fill="#CCC" d="M94.375 79c0 .375-.25.625-.625.625-.5 0-.75-.25-.75-.625s.25-.75.75-.75c.375 0 .625.375.625.75z"/>
        <path fill="#E5E5E5" d="M94.375 79c0 .375-.25.625-.625.625-.25 0-.5 0-.625-.125.125.125.25.125.5.125.5 0 .75-.25.75-.625 0-.25-.125-.375-.25-.5.25.125.25.25.25.5z"/>
        <path fill="#666" d="M93.25 79.5c-.125-.125-.25-.25-.25-.5 0-.375.25-.75.75-.75.125 0 .375.125.5.25-.125-.125-.25-.125-.5-.125-.5 0-.75.25-.75.625 0 .25.125.375.25.5z"/>
      </g>
      <g>
        <path fill="#B2B2B2" d="M98 66.5c0 2.375-1.875 4.375-4.25 4.375-2.5 0-4.375-2-4.375-4.375s1.875-4.375 4.375-4.375c2.375 0 4.25 2 4.25 4.375z"/>
        <path fill="#999" d="M97.25 64.125c-.625 0-2.125.5-3.5 2.375-1.625-1.875-2.875-2.375-3.625-2.5 1-1.375 2.375-1.875 3.625-1.875 1.125 0 2.625.5 3.5 2zM92.125 68l1.625-1.5 1.5 1.5c-1-.125-2.125-.25-3.125 0z"/>
        <path fill="#CCC" d="M93.75 66.5l1.5-1.625C95 66 95 67 95.25 68l-1.5-1.5z"/>
        <path fill="#999" d="M93.75 66.5l-1.625-1.625c1 .25 2 .375 3.125 0l-1.5 1.625z"/>
        <path fill="#CCC" d="M93.75 66.5L92.125 68c.25-1 .25-2 0-3.125L93.75 66.5z"/>
        <path fill="#CCC" d="M94.375 66.5c0 .375-.25.625-.625.625-.5 0-.75-.25-.75-.625s.25-.75.75-.75c.375 0 .625.375.625.75z"/>
        <path fill="#E5E5E5" d="M94.375 66.5c0 .375-.25.625-.625.625-.25 0-.5 0-.625-.125.125.125.25.125.5.125.5 0 .75-.25.75-.625 0-.25-.125-.375-.25-.5.25.125.25.25.25.5z"/>
        <path fill="#666" d="M93.25 67c-.125-.125-.25-.25-.25-.5 0-.375.25-.75.75-.75.125 0 .375.125.5.25-.125-.125-.25-.125-.5-.125-.5 0-.75.25-.75.625 0 .25.125.375.25.5z"/>
      </g>
      <g>
        <path fill="#B2B2B2" d="M98 54c0 2.375-1.875 4.375-4.25 4.375-2.5 0-4.375-2-4.375-4.375s1.875-4.375 4.375-4.375c2.375 0 4.25 2 4.25 4.375z"/>
        <path fill="#999" d="M97.25 51.625c-.625 0-2.125.5-3.5 2.375-1.625-1.875-2.875-2.375-3.625-2.5 1-1.375 2.375-1.875 3.625-1.875 1.125 0 2.625.5 3.5 2zM92.125 55.5L93.75 54l1.5 1.5c-1-.125-2.125-.25-3.125 0z"/>
        <path fill="#CCC" d="M93.75 54l1.5-1.625C95 53.5 95 54.5 95.25 55.5l-1.5-1.5z"/>
        <path fill="#999" d="M93.75 54l-1.625-1.625c1 .25 2 .375 3.125 0L93.75 54z"/>
        <path fill="#CCC" d="M93.75 54l-1.625 1.5c.25-1 .25-2 0-3.125L93.75 54z"/>
        <path fill="#CCC" d="M94.375 54c0 .375-.25.625-.625.625-.5 0-.75-.25-.75-.625s.25-.75.75-.75c.375 0 .625.375.625.75z"/>
        <path fill="#E5E5E5" d="M94.375 54c0 .375-.25.625-.625.625-.25 0-.5 0-.625-.125.125.125.25.125.5.125.5 0 .75-.25.75-.625 0-.25-.125-.375-.25-.5.25.125.25.25.25.5z"/>
        <path fill="#666" d="M93.25 54.5c-.125-.125-.25-.25-.25-.5 0-.375.25-.75.75-.75.125 0 .375.125.5.25-.125-.125-.25-.125-.5-.125-.5 0-.75.25-.75.625 0 .25.125.375.25.5z"/>
      </g>
      <g>
        <path fill="#B2B2B2" d="M98 41.5c0 2.375-1.875 4.375-4.25 4.375-2.5 0-4.375-2-4.375-4.375s1.875-4.375 4.375-4.375c2.375 0 4.25 2 4.25 4.375z"/>
        <path fill="#999" d="M97.25 39.125c-.625 0-2.125.5-3.5 2.375-1.625-1.875-2.875-2.375-3.625-2.5 1-1.375 2.375-1.875 3.625-1.875 1.125 0 2.625.5 3.5 2zM92.125 43l1.625-1.5 1.5 1.5c-1-.125-2.125-.25-3.125 0z"/>
        <path fill="#CCC" d="M93.75 41.5l1.5-1.625C95 41 95 42 95.25 43l-1.5-1.5z"/>
        <path fill="#999" d="M93.75 41.5l-1.625-1.625c1 .25 2 .375 3.125 0l-1.5 1.625z"/>
        <path fill="#CCC" d="M93.75 41.5L92.125 43c.25-1 .25-2 0-3.125L93.75 41.5z"/>
        <path fill="#CCC" d="M94.375 41.5c0 .375-.25.625-.625.625-.5 0-.75-.25-.75-.625s.25-.75.75-.75c.375 0 .625.375.625.75z"/>
        <path fill="#E5E5E5" d="M94.375 41.5c0 .375-.25.625-.625.625-.25 0-.5 0-.625-.125.125.125.25.125.5.125.5 0 .75-.25.75-.625 0-.25-.125-.375-.25-.5.25.125.25.25.25.5z"/>
        <path fill="#666" d="M93.25 42c-.125-.125-.25-.25-.25-.5 0-.375.25-.75.75-.75.125 0 .375.125.5.25-.125-.125-.25-.125-.5-.125-.5 0-.75.25-.75.625 0 .25.125.375.25.5z"/>
      </g>
      <g>
        <path fill="#B2B2B2" d="M98 29c0 2.375-1.875 4.375-4.25 4.375-2.5 0-4.375-2-4.375-4.375s1.875-4.375 4.375-4.375c2.375 0 4.25 2 4.25 4.375z"/>
        <path fill="#999" d="M97.25 26.625c-.625 0-2.125.5-3.5 2.375-1.625-1.875-2.875-2.375-3.625-2.5 1-1.375 2.375-1.875 3.625-1.875 1.125 0 2.625.5 3.5 2zM92.125 30.5L93.75 29l1.5 1.5c-1-.125-2.125-.25-3.125 0z"/>
        <path fill="#CCC" d="M93.75 29l1.5-1.625C95 28.5 95 29.5 95.25 30.5l-1.5-1.5z"/>
        <path fill="#999" d="M93.75 29l-1.625-1.625c1 .25 2 .375 3.125 0L93.75 29z"/>
        <path fill="#CCC" d="M93.75 29l-1.625 1.5c.25-1 .25-2 0-3.125L93.75 29z"/>
        <path fill="#CCC" d="M94.375 29c0 .375-.25.625-.625.625-.5 0-.75-.25-.75-.625s.25-.75.75-.75c.375 0 .625.375.625.75z"/>
        <path fill="#E5E5E5" d="M94.375 29c0 .375-.25.625-.625.625-.25 0-.5 0-.625-.125.125.125.25.125.5.125.5 0 .75-.25.75-.625 0-.25-.125-.375-.25-.5.25.125.25.25.25.5z"/>
        <path fill="#666" d="M93.25 29.5c-.125-.125-.25-.25-.25-.5 0-.375.25-.75.75-.75.125 0 .375.125.5.25-.125-.125-.25-.125-.5-.125-.5 0-.75.25-.75.625 0 .25.125.375.25.5z"/>
      </g>
      <g fill="#B2B2B2">
        <path d="M0 163.25c1.625 0 3.125 1.375 3.125 3.125S1.625 169.5 0 169.5V168c.875 0 1.5-.75 1.5-1.625S.875 164.75 0 164.75v-1.5zm0-12.5c1.625 0 3.125 1.375 3.125 3.125S1.625 157 0 157v-1.5c.875 0 1.5-.75 1.5-1.625S.875 152.25 0 152.25v-1.5zm0-12.5c1.625 0 3.125 1.375 3.125 3.125S1.625 144.5 0 144.5V143c.875 0 1.5-.75 1.5-1.625S.875 139.75 0 139.75v-1.5zm0-12.5c1.625 0 3.125 1.375 3.125 3.125S1.625 132 0 132v-1.5c.875 0 1.5-.75 1.5-1.625S.875 127.25 0 127.25v-1.5zm0-12.5c1.625 0 3.125 1.375 3.125 3.125S1.625 119.5 0 119.5V118c.875 0 1.5-.75 1.5-1.625S.875 114.75 0 114.75v-1.5zm0-12.375c1.625 0 3.125 1.375 3.125 3.125s-1.5 3.125-3.125 3.125v-1.5c.875 0 1.5-.75 1.5-1.625s-.625-1.625-1.5-1.625v-1.5zm0-12.5c1.625 0 3.125 1.375 3.125 3.125S1.625 94.625 0 94.625v-1.5c.875 0 1.5-.75 1.5-1.625S.875 89.875 0 89.875v-1.5zm0-12.5c1.625 0 3.125 1.375 3.125 3.125S1.625 82.125 0 82.125v-1.5c.875 0 1.5-.75 1.5-1.625S.875 77.375 0 77.375v-1.5zm0-12.5c1.625 0 3.125 1.375 3.125 3.125S1.625 69.625 0 69.625v-1.5c.875 0 1.5-.75 1.5-1.625S.875 64.875 0 64.875v-1.5zm0-12.5c1.625 0 3.125 1.375 3.125 3.125S1.625 57.125 0 57.125v-1.5c.875 0 1.5-.75 1.5-1.625S.875 52.375 0 52.375v-1.5zm0-12.5c1.625 0 3.125 1.375 3.125 3.125S1.625 44.625 0 44.625v-1.5c.875 0 1.5-.75 1.5-1.625S.875 39.875 0 39.875v-1.5zm0-12.5c1.625 0 3.125 1.375 3.125 3.125S1.625 32.125 0 32.125v-1.5c.875 0 1.5-.75 1.5-1.625S.875 27.375 0 27.375v-1.5z"/>
      </g>
      <g>
        <path fill="#B2B2B2" d="M99.25 32.125c-1.25 0-2.375-1.375-2.375-3.125S98 25.875 99.25 25.875v1.5c-.75 0-1.25.75-1.25 1.625s.5 1.625 1.25 1.625v1.5z"/>
        <path fill="#CCC" d="M99.25 30.625v1.5h.75v-1.5h-.75zm0-4.75v1.5h.75v-1.5h-.75z"/>
        <path fill="#666" d="M100 27.375h-.75c-.75 0-1.25.75-1.25 1.625s.5 1.625 1.25 1.625h.75c-.625-.125-1.125-.75-1.125-1.625s.5-1.625 1.125-1.625z"/>
      </g>
      <g>
        <path fill="#B2B2B2" d="M99.25 44.625c-1.25 0-2.375-1.375-2.375-3.125S98 38.375 99.25 38.375v1.5c-.75 0-1.25.75-1.25 1.625s.5 1.625 1.25 1.625v1.5z"/>
        <path fill="#CCC" d="M99.25 43.125v1.5h.75v-1.5h-.75zm0-4.75v1.5h.75v-1.5h-.75z"/>
        <path fill="#666" d="M100 39.875h-.75c-.75 0-1.25.75-1.25 1.625s.5 1.625 1.25 1.625h.75c-.625-.125-1.125-.75-1.125-1.625s.5-1.625 1.125-1.625z"/>
      </g>
      <g>
        <path fill="#B2B2B2" d="M99.25 57.125c-1.25 0-2.375-1.375-2.375-3.125S98 50.875 99.25 50.875v1.5c-.75 0-1.25.75-1.25 1.625s.5 1.625 1.25 1.625v1.5z"/>
        <path fill="#CCC" d="M99.25 55.625v1.5h.75v-1.5h-.75zm0-4.75v1.5h.75v-1.5h-.75z"/>
        <path fill="#666" d="M100 52.375h-.75c-.75 0-1.25.75-1.25 1.625s.5 1.625 1.25 1.625h.75c-.625-.125-1.125-.75-1.125-1.625s.5-1.625 1.125-1.625z"/>
      </g>
      <g>
        <path fill="#B2B2B2" d="M99.25 107c-1.25 0-2.375-1.375-2.375-3.125S98 100.75 99.25 100.75v1.5c-.75 0-1.25.75-1.25 1.625s.5 1.625 1.25 1.625v1.5z"/>
        <path fill="#CCC" d="M99.25 105.5v1.5h.75v-1.5h-.75zm0-4.625v1.375h.75v-1.375h-.75z"/>
        <path fill="#666" d="M100 102.25h-.75c-.75 0-1.25.75-1.25 1.625s.5 1.625 1.25 1.625h.75c-.625-.125-1.125-.75-1.125-1.625s.5-1.625 1.125-1.625z"/>
      </g>
      <g>
        <path fill="#B2B2B2" d="M99.25 94.625c-1.25 0-2.375-1.375-2.375-3.125S98 88.375 99.25 88.375v1.5c-.75 0-1.25.75-1.25 1.625s.5 1.625 1.25 1.625v1.5z"/>
        <path fill="#CCC" d="M99.25 93.125v1.5h.75v-1.5h-.75zm0-4.75v1.5h.75v-1.5h-.75z"/>
        <path fill="#666" d="M100 89.875h-.75c-.75 0-1.25.75-1.25 1.625s.5 1.625 1.25 1.625h.75c-.625-.125-1.125-.75-1.125-1.625s.5-1.625 1.125-1.625z"/>
      </g>
      <g>
        <path fill="#B2B2B2" d="M99.25 82.125c-1.25 0-2.375-1.375-2.375-3.125S98 75.875 99.25 75.875v1.5c-.75 0-1.25.75-1.25 1.625s.5 1.625 1.25 1.625v1.5z"/>
        <path fill="#CCC" d="M99.25 80.625v1.5h.75v-1.5h-.75zm0-4.75v1.5h.75v-1.5h-.75z"/>
        <path fill="#666" d="M100 77.375h-.75c-.75 0-1.25.75-1.25 1.625s.5 1.625 1.25 1.625h.75c-.625-.125-1.125-.75-1.125-1.625s.5-1.625 1.125-1.625z"/>
      </g>
      <g>
        <path fill="#B2B2B2" d="M99.25 69.625c-1.25 0-2.375-1.375-2.375-3.125S98 63.375 99.25 63.375v1.5c-.75 0-1.25.75-1.25 1.625s.5 1.625 1.25 1.625v1.5z"/>
        <path fill="#CCC" d="M99.25 68.125v1.5h.75v-1.5h-.75zm0-4.75v1.5h.75v-1.5h-.75z"/>
        <path fill="#666" d="M100 64.875h-.75c-.75 0-1.25.75-1.25 1.625s.5 1.625 1.25 1.625h.75c-.625-.125-1.125-.75-1.125-1.625s.5-1.625 1.125-1.625z"/>
      </g>
      <g>
        <path fill="#B2B2B2" d="M99.25 169.5c-1.25 0-2.375-1.375-2.375-3.125S98 163.25 99.25 163.25v1.5c-.75 0-1.25.75-1.25 1.625S98.5 168 99.25 168v1.5z"/>
        <path fill="#CCC" d="M99.25 168v1.5h.75V168h-.75zm0-4.75v1.5h.75v-1.5h-.75z"/>
        <path fill="#666" d="M100 164.75h-.75c-.75 0-1.25.75-1.25 1.625S98.5 168 99.25 168h.75c-.625-.125-1.125-.75-1.125-1.625s.5-1.625 1.125-1.625z"/>
      </g>
      <g>
        <path fill="#B2B2B2" d="M99.25 157c-1.25 0-2.375-1.375-2.375-3.125S98 150.75 99.25 150.75v1.5c-.75 0-1.25.75-1.25 1.625s.5 1.625 1.25 1.625v1.5z"/>
        <path fill="#CCC" d="M99.25 155.5v1.5h.75v-1.5h-.75zm0-4.75v1.5h.75v-1.5h-.75z"/>
        <path fill="#666" d="M100 152.25h-.75c-.75 0-1.25.75-1.25 1.625s.5 1.625 1.25 1.625h.75c-.625-.125-1.125-.75-1.125-1.625s.5-1.625 1.125-1.625z"/>
      </g>
      <g>
        <path fill="#B2B2B2" d="M99.25 144.5c-1.25 0-2.375-1.375-2.375-3.125S98 138.25 99.25 138.25v1.5c-.75 0-1.25.75-1.25 1.625S98.5 143 99.25 143v1.5z"/>
        <path fill="#CCC" d="M99.25 143v1.5h.75V143h-.75zm0-4.75v1.5h.75v-1.5h-.75z"/>
        <path fill="#666" d="M100 139.75h-.75c-.75 0-1.25.75-1.25 1.625S98.5 143 99.25 143h.75c-.625-.125-1.125-.75-1.125-1.625s.5-1.625 1.125-1.625z"/>
      </g>
      <g>
        <path fill="#B2B2B2" d="M99.25 132c-1.25 0-2.375-1.375-2.375-3.125S98 125.75 99.25 125.75v1.5c-.75 0-1.25.75-1.25 1.625s.5 1.625 1.25 1.625v1.5z"/>
        <path fill="#CCC" d="M99.25 130.5v1.5h.75v-1.5h-.75zm0-4.75v1.5h.75v-1.5h-.75z"/>
        <path fill="#666" d="M100 127.25h-.75c-.75 0-1.25.75-1.25 1.625s.5 1.625 1.25 1.625h.75c-.625-.125-1.125-.75-1.125-1.625s.5-1.625 1.125-1.625z"/>
      </g>
      <g>
        <path fill="#B2B2B2" d="M99.25 119.5c-1.25 0-2.375-1.375-2.375-3.125S98 113.25 99.25 113.25v1.5c-.75 0-1.25.75-1.25 1.625S98.5 118 99.25 118v1.5z"/>
        <path fill="#CCC" d="M99.25 118v1.5h.75V118h-.75zm0-4.75v1.5h.75v-1.5h-.75z"/>
        <path fill="#666" d="M100 114.75h-.75c-.75 0-1.25.75-1.25 1.625S98.5 118 99.25 118h.75c-.625-.125-1.125-.75-1.125-1.625s.5-1.625 1.125-1.625z"/>
      </g>
    </g>
  </g>
</svg>
