<?xml version="1.0" encoding="UTF-8" standalone="no"?>
<svg
   xmlns:dc="http://purl.org/dc/elements/1.1/"
   xmlns:cc="http://creativecommons.org/ns#"
   xmlns:rdf="http://www.w3.org/1999/02/22-rdf-syntax-ns#"
   xmlns:svg="http://www.w3.org/2000/svg"
   xmlns="http://www.w3.org/2000/svg"
   viewBox="0 0 5250 1500"
   height="1500"
   width="5250"
   xml:space="preserve"
   version="1.1"
   id="svg2"><metadata
     id="metadata8"><rdf:RDF><cc:Work
         rdf:about=""><dc:format>image/svg+xml</dc:format><dc:type
           rdf:resource="http://purl.org/dc/dcmitype/StillImage" /><dc:title></dc:title></cc:Work></rdf:RDF></metadata><defs
     id="defs6"><clipPath
       id="clipPath16"
       clipPathUnits="userSpaceOnUse"><path
         id="path18"
         d="m 0,1200 4200,0 L 4200,0 0,0 0,1200 Z" /></clipPath></defs><g
     transform="matrix(1.25,0,0,-1.25,0,1500)"
     id="g10"><g
       id="g12"><g
         id="g20"
         transform="translate(1470.3534,569.6702)"><path
           d="m 0,0 c 125.762,0 210.892,66.061 210.892,167.091 l 0,1.944 c 0,107.829 -83.193,164.166 -205.082,164.166 l -154.309,0 L -148.499,0 0,0 Z m -198.799,379.83 208.475,0 c 148.98,0 251.525,-76.743 251.525,-207.885 l 0,-1.937 C 261.201,27.204 138.343,-46.629 -2.897,-46.629 l -145.602,0 0,-253.541 -50.3,0 0,680 z"
           style="fill:#231f20;fill-opacity:1;fill-rule:nonzero;stroke:none"
           id="path22" /></g><g
         id="g24"
         transform="translate(2128.6497,455.4767)"><path
           d="M 0,0 0,56.282 C -41.72,66.959 -97.031,78.6 -167.868,78.6 -272.662,78.6 -330.887,32.023 -330.887,-36.871 l 0,-1.943 c 0,-71.808 67.922,-113.528 143.616,-113.528 C -86.354,-152.342 0,-90.24 0,0 m -381.342,-41.72 0,1.935 c 0,102.859 88.297,161.076 216.388,161.076 68.894,0 116.442,-8.726 163.991,-21.346 l 0,21.346 c 0,99.953 -61.14,151.379 -163.02,151.379 -60.168,0 -109.651,-16.497 -155.256,-39.785 l -17.469,41.728 c 54.34,25.231 107.709,42.691 175.631,42.691 66.96,0 120.328,-18.431 156.228,-54.339 32.994,-32.994 50.463,-78.6 50.463,-139.731 l 0,-308.57 -46.577,0 0,82.477 c -33.966,-47.541 -95.097,-94.118 -189.222,-94.118 -92.183,0 -191.157,52.397 -191.157,155.257"
           style="fill:#231f20;fill-opacity:1;fill-rule:nonzero;stroke:none"
           id="path26" /></g><g
         id="g28"
         transform="translate(2235.5417,764.3781)"><path
           d="m 0,0 47.548,0 0,-140.702 C 86.362,-52.397 192.919,-0.499 291.272,-0.499 l 0,-44.135 -4.848,0 c -114.5,0 -238.876,-86.363 -238.876,-247.439 l 0,-202.805 -47.548,0 L 0,0 Z"
           style="fill:#231f20;fill-opacity:1;fill-rule:nonzero;stroke:none"
           id="path30" /></g><g
         id="g32"
         transform="translate(2586.7437,765.0184)"><path
           d="m 0,0 0,158.171 47.556,0 0,-158.171 173.689,0 0,-43.663 -173.689,0 0,-319.247 c 0,-70.837 41.728,-96.068 98.982,-96.068 24.26,0 44.634,4.857 72.764,17.468 l 0,-44.634 c -25.223,-11.648 -49.483,-17.468 -80.534,-17.468 C 62.103,-503.612 0,-461.884 0,-367.759 l 0,324.096"
           style="fill:#231f20;fill-opacity:1;fill-rule:nonzero;stroke:none"
           id="path34" /></g><g
         id="g36"
         transform="translate(2957.5908,509.5751)"><path
           d="m 0,0 0,1.897 c 0,135.488 107.647,252.98 245.51,252.98 90.648,0 147.299,-41.693 192.623,-89.069 l -33.044,-34.106 c -41.543,42.634 -88.758,79.585 -160.517,79.585 -109.537,0 -194.514,-91.899 -194.514,-207.493 l 0,-1.897 c 0,-116.535 87.805,-209.39 198.279,-209.39 67.994,0 120.865,35.054 161.471,80.533 l 32.106,-28.423 C 392.809,-211.287 334.267,-251.075 245.51,-251.075 106.709,-251.075 0,-135.488 0,0"
           style="fill:#231f20;fill-opacity:1;fill-rule:nonzero;stroke:none"
           id="path38" /></g><path
         d="m 3450.554,977.5 48,0 0,-708 -48,0 0,708 z"
         style="fill:#231f20;fill-opacity:1;fill-rule:nonzero;stroke:none"
         id="path40" /><g
         id="g42"
         transform="translate(3947.4009,534.2115)"><path
           d="M 0,0 C -6.612,97.589 -62.336,187.599 -172.878,187.599 -268.289,187.599 -341.973,107.066 -350.476,0 L 0,0 Z m -399.604,-23.688 0,1.897 c 0,140.231 98.256,252.031 228.617,252.031 135.098,0 221.068,-109.911 221.068,-252.979 0,-8.529 0,-11.366 -0.953,-18.946 l -399.604,0 c 8.503,-120.337 94.473,-190.444 188.946,-190.444 74.622,0 125.641,33.157 165.312,75.798 l 32.122,-28.423 c -49.128,-53.066 -106.744,-90.957 -199.325,-90.957 -126.595,0 -236.183,101.375 -236.183,252.023"
           style="fill:#231f20;fill-opacity:1;fill-rule:nonzero;stroke:none"
           id="path44" /></g><path
         d="m 2860.554,765.099 48,0 0,-495.599 -48,0 0,495.599 z"
         style="fill:#231f20;fill-opacity:1;fill-rule:nonzero;stroke:none"
         id="path46" /><path
         d="m 2860.554,923.5 48,0 0,-78.382 -48,0 0,78.382 z"
         style="fill:#231f20;fill-opacity:1;fill-rule:nonzero;stroke:none"
         id="path48" /><g
         id="g50"
         transform="translate(1092.5179,610)"><path
           d="M 0,0 -236.919,-50.876 -269.82,0 -236.919,50.879 0,0 Z"
           style="fill:#00aeef;fill-opacity:1;fill-rule:nonzero;stroke:none"
           id="path52" /></g><g
         id="g54"
         transform="translate(647.5024,434.8075)"><path
           d="M 0,0 50.878,-32.902 0,-269.792 -50.879,-32.902 0,0 Z"
           style="fill:#00aeef;fill-opacity:1;fill-rule:nonzero;stroke:none"
           id="path56" /></g><g
         id="g58"
         transform="translate(647.5024,1054.9845)"><path
           d="M 0,0 50.878,-236.885 0,-269.789 -50.879,-236.885 0,0 Z"
           style="fill:#00aeef;fill-opacity:1;fill-rule:nonzero;stroke:none"
           id="path60" /></g><g
         id="g62"
         transform="translate(439.403,660.879)"><path
           d="M 0,0 32.904,-50.879 0,-101.755 -236.885,-50.879 0,0 Z"
           style="fill:#00aeef;fill-opacity:1;fill-rule:nonzero;stroke:none"
           id="path64" /></g><g
         id="g66"
         transform="translate(962.1757,924.6346)"><path
           d="M 0,0 -203.409,-314.618 0,-629.272 -314.656,-425.858 -629.308,-629.272 -425.902,-314.618 -629.308,0 -314.656,-203.367 0,0 Z"
           style="fill:#00aeef;fill-opacity:1;fill-rule:nonzero;stroke:none"
           id="path68" /></g></g></g></svg>